<svg xmlns="http://www.w3.org/2000/svg" viewBox="0 0 291.44 485.49"><defs><style>.cls-1{fill:#777;}</style></defs><g id="圖層_2" data-name="圖層 2"><g id="圖層_1-2" data-name="圖層 1"><g id="圖層_2-2" data-name="圖層 2"><g id="圖層_1-2-2" data-name="圖層 1-2"><path class="cls-1" d="M278.43,295.29c-8.05,6.36-17.15,10.91-26.23,15.44-22.67,11.32-42.66,25.94-58.28,46.12C182,372.2,173.29,389.47,164,406.38c-8.68,15.76-17.76,31.25-28.9,45.47-24.93,31.84-63,42.1-100.18,26.38-17.32-7.26-27.6-21-32.09-39C-1.48,422-.66,404.88,4,390.71c6.94-22.83,18.35-40,31-56.4,19.25-25,40.84-47.89,62-71.2,10.73-11.84,21.31-23.82,31-36.58a52.15,52.15,0,0,0,10.9-33.47q-.73-57.19-1.3-114.4c-.18-18.15.08-36.31-.44-54.45-.22-7.73,3.21-12.16,9.71-15.1a77.3,77.3,0,0,1,21.6-6c28.88-3.92,57.75-4.63,86.54.77,7.05,1.3,13.84,3.63,20.62,5.84,4.65,1.51,6.79,4.33,6.51,9.25-.95,16.63-1.67,33.26-2.67,49.88-2.4,41.76-3.71,83.51.48,125.26,1.87,18.6,5.71,36.86,9.27,55.17a113.82,113.82,0,0,1,2.22,18.77C291.79,279.39,287.26,288.29,278.43,295.29Z"/></g></g></g></g></svg>