<svg aria-hidden="true" style="position: absolute; width: 0; height: 0; overflow: hidden;" version="1.1" xmlns="http://www.w3.org/2000/svg" xmlns:xlink="http://www.w3.org/1999/xlink">
<defs>
<symbol id="icon-pattern-dotted-transparent" viewBox="0 0 20 32">
<title>pattern-dotted-transparent</title>
<path class="stripe"  d="M19.081 17.481c0.030 0.681-0.296 1.333-0.83 1.748-0.533 0.385-1.096 0.711-1.689 0.978-1.452 0.681-2.726 1.689-3.733 2.963-0.711 1.007-1.363 2.074-1.926 3.17-0.533 1.007-1.156 1.985-1.867 2.904-1.6 2.044-4.030 2.696-6.43 1.689-1.007-0.415-1.778-1.363-2.015-2.489-0.267-1.037-0.237-2.104 0.089-3.111 0.415-1.333 1.096-2.548 1.985-3.615 1.244-1.6 2.607-3.081 3.97-4.563 0.681-0.77 1.363-1.541 1.985-2.341 0.474-0.622 0.711-1.363 0.711-2.133-0.030-2.43-0.059-4.889-0.089-7.319 0-1.156 0-2.341-0.030-3.496-0.030-0.415 0.207-0.83 0.622-0.978 0.444-0.207 0.919-0.326 1.393-0.385 1.837-0.296 3.704-0.267 5.541 0.059 0.444 0.089 0.889 0.207 1.333 0.385 0.267 0.059 0.444 0.326 0.415 0.593-0.059 1.067-0.119 2.133-0.178 3.2-0.207 2.667-0.178 5.363 0.030 8.030 0.119 1.185 0.356 2.37 0.593 3.526 0.059 0.385 0.119 0.77 0.119 1.185z"></path>

<path class="circle" d="M13.778 4.296c0 1.227-0.995 2.222-2.222 2.222s-2.222-0.995-2.222-2.222c0-1.227 0.995-2.222 2.222-2.222s2.222 0.995 2.222 2.222z"></path>
<path class="circle" d="M18.519 10.222c0 1.227-0.995 2.222-2.222 2.222s-2.222-0.995-2.222-2.222c0-1.227 0.995-2.222 2.222-2.222s2.222 0.995 2.222 2.222z"></path>
<path  class="circle" d="M12 16.741c0 1.227-0.995 2.222-2.222 2.222s-2.222-0.995-2.222-2.222c0-1.227 0.995-2.222 2.222-2.222s2.222 0.995 2.222 2.222z"></path>
<path  class="circle" d="M19.407 17.333c0 1.227-0.995 2.222-2.222 2.222s-2.222-0.995-2.222-2.222c0-1.227 0.995-2.222 2.222-2.222s2.222 0.995 2.222 2.222z"></path>
<path  class="circle" d="M4.593 27.407c0 1.227-0.995 2.222-2.222 2.222s-2.222-0.995-2.222-2.222c0-1.227 0.995-2.222 2.222-2.222s2.222 0.995 2.222 2.222z"></path>
<path  class="circle" d="M12 24.148c0 1.227-0.995 2.222-2.222 2.222s-2.222-0.995-2.222-2.222c0-1.227 0.995-2.222 2.222-2.222s2.222 0.995 2.222 2.222z"></path> 

</symbol>
<symbol id="icon-pattern-stripe-transparent" viewBox="0 0 20 32">
<title>pattern-stripe-transparent</title>
<path stroke-linejoin="miter" stroke-linecap="butt" stroke-miterlimit="4" stroke-width="0.8889" d="M19.111 17.778c0.030 0.681-0.296 1.333-0.83 1.748-0.533 0.385-1.096 0.711-1.689 0.978-1.452 0.681-2.726 1.689-3.733 2.963-0.711 1.007-1.363 2.074-1.926 3.17-0.533 1.007-1.156 1.985-1.867 2.904-1.6 2.044-4.030 2.696-6.43 1.689-1.067-0.444-1.837-1.393-2.074-2.519-0.267-1.037-0.237-2.104 0.089-3.111 0.415-1.333 1.096-2.548 1.985-3.615 1.244-1.6 2.607-3.081 3.97-4.563 0.681-0.77 1.363-1.541 1.985-2.341 0.474-0.622 0.711-1.363 0.711-2.133-0.030-2.43-0.059-4.889-0.089-7.319 0-1.156 0-2.341-0.030-3.496 0-0.415 0.267-0.83 0.681-0.948 0.444-0.207 0.919-0.326 1.393-0.385 1.837-0.296 3.704-0.267 5.541 0.059 0.444 0.089 0.889 0.207 1.333 0.385 0.267 0.059 0.444 0.326 0.415 0.593-0.059 1.067-0.119 2.133-0.178 3.2-0.207 2.637-0.207 5.333 0 8 0.119 1.185 0.356 2.37 0.593 3.526 0.089 0.415 0.148 0.8 0.148 1.215z"></path>
<path stroke-linejoin="miter" stroke-linecap="butt" stroke-miterlimit="4" stroke-width="1.4815" d="M9.215 3.141h9.126"></path>
<path stroke-linejoin="miter" stroke-linecap="butt" stroke-miterlimit="4" stroke-width="1.4815" d="M9.215 6.252h9.126"></path>
<path stroke-linejoin="miter" stroke-linecap="butt" stroke-miterlimit="4" stroke-width="1.4815" d="M9.215 9.363h9.126"></path>
<path stroke-linejoin="miter" stroke-linecap="butt" stroke-miterlimit="4" stroke-width="1.4815" d="M9.215 12.504h9.126"></path>
<path stroke-linejoin="miter" stroke-linecap="round" stroke-miterlimit="4" stroke-width="1.4815" d="M8.563 15.615h10.015"></path>
<path stroke-linejoin="miter" stroke-linecap="round" stroke-miterlimit="4" stroke-width="1.4815" d="M5.896 18.726l12.237 0.444"></path>
<path stroke-linejoin="miter" stroke-linecap="round" stroke-miterlimit="4" stroke-width="1.4815" d="M3.437 21.837l10.015 0.652"></path>
<path stroke-linejoin="miter" stroke-linecap="butt" stroke-miterlimit="4" stroke-width="1.4815" d="M1.215 24.948l10.015 0.889"></path>
<path stroke-linejoin="miter" stroke-linecap="round" stroke-miterlimit="4" stroke-width="1.4815" d="M0.77 28.504l8 0.889"></path>
</symbol>
<symbol id="icon-pattern-watz-transparent" viewBox="0 0 20 32">
<title>pattern-watz-transparent</title>
<path fill="none" stroke="#404040" style="stroke: var(--color1, #404040)" stroke-linejoin="miter" stroke-linecap="butt" stroke-miterlimit="4" stroke-width="0.8889" d="M19.141 17.63c0.030 0.681-0.296 1.333-0.83 1.748-0.533 0.385-1.096 0.711-1.689 0.978-1.452 0.681-2.726 1.689-3.733 2.963-0.711 1.007-1.363 2.074-1.926 3.17-0.533 1.007-1.156 1.985-1.867 2.904-1.6 2.044-4.030 2.696-6.43 1.689-1.067-0.444-1.837-1.393-2.074-2.519-0.237-1.007-0.207-2.074 0.119-3.081 0.415-1.333 1.096-2.548 1.985-3.615 1.244-1.6 2.607-3.081 3.97-4.563 0.681-0.77 1.363-1.541 1.985-2.341 0.474-0.622 0.711-1.363 0.711-2.133-0.030-2.43-0.059-4.889-0.089-7.319 0-1.156 0-2.341-0.030-3.496-0.030-0.415 0.207-0.83 0.622-0.978 0.444-0.207 0.919-0.326 1.393-0.385 1.837-0.296 3.704-0.267 5.541 0.059 0.444 0.089 0.889 0.207 1.333 0.385 0.267 0.059 0.444 0.326 0.415 0.593-0.059 1.067-0.119 2.133-0.178 3.2-0.207 2.667-0.178 5.363 0.030 8.030 0.119 1.185 0.356 2.37 0.593 3.526 0.059 0.385 0.119 0.77 0.148 1.185z"></path>
<path d="M10.459 9.333c0.593-0.385 1.185-0.859 1.778-1.244v0c-1.067-0.474-2.104-1.037-3.081-1.63 0.089 1.156 0.178 2.311 0.267 3.467 0.356-0.178 0.711-0.385 1.037-0.593z"></path>
<path d="M12.741 20.119c-0.030-0.504-0.089-1.007-0.119-1.511-0.030-0.444-0.119-0.859-0.119-1.304 0-0.148 0-0.296 0-0.444 0-0.059 0-0.119 0-0.148v0c0-0.030-0.030-0.030-0.030-0.059 0 0-0.030-0.030 0-0.059l-0.030-0.059c0 0-0.030-0.030-0.030-0.030v0c-0.326-0.178-0.681-0.296-1.037-0.415-0.474-0.148-0.978-0.237-1.452-0.356-0.563-0.148-1.156-0.296-1.719-0.504-0.119 0.178-0.267 0.356-0.415 0.533-1.067 1.156-2.074 2.341-3.111 3.496-1.185 1.363-2.4 2.696-3.319 4.237-0.83 1.363-1.274 2.815-0.978 4.385 0.267 1.393 1.007 2.519 2.519 3.052 1.215 0.444 2.519 0.474 3.763 0.178 1.333-0.326 2.489-1.185 3.2-2.37 0.77-1.185 1.481-2.4 2.104-3.644 0.326-0.652 0.711-1.244 1.126-1.807-0.148-1.067-0.267-2.133-0.356-3.17z"></path>
<path d="M17.304 12.741c-0.089-0.622-0.178-1.274-0.237-1.896-1.096-0.207-2.133-0.504-3.141-0.948-0.267 0.178-0.533 0.326-0.77 0.533-0.83 0.622-1.719 1.452-2.726 1.867 0 0.119 0.030 0.237 0.030 0.356 0.030 0.207 0.030 0.385 0.030 0.593 0.119 0.148 0.237 0.296 0.385 0.415 0.889 0.385 1.837 0.681 2.815 0.859 0.296 0 0.622 0 0.919-0.030 0.207-0.178 0.415-0.326 0.622-0.444 0.652-0.504 1.333-0.919 2.074-1.304z"></path>
<path d="M18.933 17.185c-0.030-0.267-0.089-0.533-0.148-0.8-0.178-0.622-0.356-1.244-0.474-1.896-0.148 0.059-0.296 0.148-0.415 0.207-1.215 0.681-2.43 1.778-2.844 3.141-0.207 0.711-0.207 1.481 0 2.193 0.089 0.385 0.178 0.741 0.267 1.126 0.474-0.385 0.978-0.711 1.541-0.978 0.415-0.237 0.8-0.474 1.185-0.741 0.741-0.444 1.126-1.363 0.889-2.252z"></path>
<path d="M9.6 4.207c0.593 0.415 1.185 0.83 1.807 1.215 0.948 0.593 1.956 1.156 2.993 1.63 0.356-0.237 0.741-0.474 1.096-0.711 1.007-0.681 1.956-1.481 2.815-2.4 0-0.8-0.030-1.6-0.030-2.4 0.030-0.296-0.178-0.593-0.504-0.652-0.741-0.148-1.481-0.296-2.133-0.444-0.859 0.030-1.63 0.030-2.37 0.059-0.504 0.030-1.007 0.089-1.511 0.178-0.593 0.119-1.156 0.267-1.719 0.474-0.444 0.119-0.711 0.593-0.593 1.037 0.089 0.652 0.119 1.333 0.148 2.015z"></path>
<path d="M18.015 7.081c-0.593 0.533-1.244 1.037-1.926 1.481l-0.059 0.030c0.681 0.267 1.363 0.444 2.074 0.593-0.030-0.711-0.059-1.452-0.059-2.163l-0.030 0.059z"></path>
</symbol>
<symbol id="icon-pattern-white-transparent" viewBox="0 0 20 32">
<title>pattern-white-transparent</title>
<path stroke-linejoin="miter" stroke-linecap="butt" stroke-miterlimit="4" stroke-width="0.8889" d="M19.141 17.63c0.030 0.681-0.296 1.333-0.83 1.748-0.533 0.385-1.096 0.711-1.689 0.978-1.452 0.681-2.726 1.689-3.733 2.963-0.711 1.007-1.363 2.074-1.926 3.17-0.533 1.007-1.156 1.985-1.867 2.904-1.6 2.044-4.030 2.696-6.43 1.689-1.067-0.444-1.837-1.393-2.074-2.519-0.237-1.007-0.207-2.074 0.119-3.081 0.415-1.333 1.096-2.548 1.985-3.615 1.244-1.6 2.607-3.081 3.97-4.563 0.681-0.77 1.363-1.541 1.985-2.341 0.474-0.622 0.711-1.363 0.711-2.133-0.030-2.43-0.059-4.889-0.089-7.319 0-1.156 0-2.341-0.030-3.496-0.030-0.415 0.207-0.83 0.622-0.978 0.444-0.207 0.919-0.326 1.393-0.385 1.837-0.296 3.704-0.267 5.541 0.059 0.444 0.089 0.889 0.207 1.333 0.385 0.267 0.059 0.444 0.326 0.415 0.593-0.059 1.067-0.119 2.133-0.178 3.2-0.207 2.667-0.178 5.363 0.030 8.030 0.119 1.185 0.356 2.37 0.593 3.526 0.059 0.385 0.119 0.77 0.148 1.185z"></path>
</symbol>
<symbol id="icon-magic-line" viewBox="0 0 32 32">
<title>magic-line</title>
<path stroke-linejoin="miter" stroke-linecap="butt" stroke-miterlimit="4" stroke-width="0.6454" d="M15.735 16.42l-8.223 10.908c-0.137 0.197-0.362 0.325-0.617 0.325-0.166 0-0.319-0.054-0.444-0.145l0.002 0.001c-0.176-0.143-0.287-0.36-0.287-0.602 0-0.177 0.060-0.341 0.16-0.471l-0.001 0.002 8.223-10.946 1.549-1.936 1.291 0.929z"></path>
<path stroke-linejoin="miter" stroke-linecap="butt" stroke-miterlimit="4" stroke-width="0.6454" d="M23.067 13.412l-2.040-2.401c-0.012-0.027-0.019-0.058-0.019-0.090s0.007-0.064 0.020-0.092l-0.001 0.001 0.581-3.021c0.003-0.013 0.004-0.027 0.004-0.042 0-0.102-0.074-0.187-0.171-0.203l-0.001-0c-0.021-0.006-0.046-0.009-0.071-0.009s-0.050 0.003-0.073 0.010l0.002-0-2.775 1.394c-0.027 0.012-0.058 0.019-0.090 0.019s-0.064-0.007-0.092-0.020l0.001 0.001-2.401-1.084-0.207 0.116 0.62 3.098-0.71 0.658-1.678 1.601 2.956 0.426 1.033 2.091 0.503 0.284v0.168l1.058-2.246c0.027-0.068 0.092-0.116 0.168-0.116h0l3.201-0.207c0.116-0.007 0.207-0.102 0.207-0.219 0-0 0-0 0-0v0c0-0.002 0-0.004 0-0.006 0-0.040-0.010-0.078-0.027-0.111l0.001 0.001z"></path>
<path stroke-linejoin="miter" stroke-linecap="butt" stroke-miterlimit="4" stroke-width="0.6454" d="M17.336 13.58c-0.022-0.066-0.083-0.114-0.155-0.116h-0l-2.582-0.413 2.014-1.743c0.049-0.041 0.081-0.102 0.081-0.17 0-0.013-0.001-0.026-0.003-0.038l0 0.001-0.697-3.15-0.503-0.207c-0.026-0.014-0.057-0.022-0.090-0.022-0.082 0-0.153 0.051-0.181 0.124l-0 0.001c-0.006 0.019-0.010 0.042-0.010 0.065s0.004 0.045 0.010 0.066l-0-0.002 0.697 3.137c0.002 0.013 0.004 0.027 0.004 0.042 0 0.064-0.026 0.123-0.068 0.165v0l-2.311 1.975c-0.028 0.029-0.050 0.063-0.064 0.101l-0.001 0.002c-0 0.004-0 0.009-0 0.013 0 0.11 0.085 0.199 0.193 0.206l0.001 0 2.866 0.452c0.072 0.011 0.133 0.055 0.167 0.115l0.001 0.001 1.213 2.582c0.032 0.075 0.105 0.126 0.19 0.126 0.034 0 0.067-0.008 0.095-0.023l-0.001 0.001c0.047-0.020 0.083-0.057 0.103-0.102l0-0.001 0.297-0.645z"></path>
<path stroke-linejoin="miter" stroke-linecap="butt" stroke-miterlimit="4" stroke-width="0.6454" d="M10.985 9.759c-0.225 0.255-0.363 0.593-0.363 0.963 0 0.268 0.072 0.519 0.199 0.735l-0.004-0.007c0.034 0.069 0.105 0.116 0.186 0.116 0.026 0 0.051-0.005 0.074-0.014l-0.001 0 1.226-0.594c0.052-0.038 0.086-0.099 0.086-0.167 0-0.033-0.008-0.064-0.022-0.092l0.001 0.001v-0.077l-1.136-0.865c-0.032-0.030-0.075-0.048-0.123-0.048s-0.091 0.018-0.123 0.048l0-0z"></path>
<path stroke-linejoin="miter" stroke-linecap="butt" stroke-miterlimit="4" stroke-width="0.6454" d="M18.304 4.492c-0.177-0.084-0.385-0.133-0.604-0.133-0.413 0-0.786 0.175-1.048 0.455l-0.001 0.001c-0.037 0.031-0.061 0.077-0.061 0.129s0.023 0.098 0.060 0.129l0 0 0.916 1.007c0.037 0.029 0.084 0.047 0.136 0.047s0.099-0.018 0.136-0.047l-0 0v-0.077l0.503-1.291c0.012-0.024 0.018-0.052 0.018-0.082 0-0.054-0.022-0.102-0.057-0.137v0z"></path>
<path stroke-linejoin="miter" stroke-linecap="butt" stroke-miterlimit="4" stroke-width="0.6454" d="M14.044 6.751c-0.015 0.002-0.032 0.004-0.049 0.004-0.081 0-0.154-0.031-0.209-0.082l0 0-0.697-0.645c-0.061-0.059-0.099-0.141-0.099-0.232s0.038-0.174 0.099-0.232l0-0c0.058-0.057 0.138-0.092 0.226-0.092s0.168 0.035 0.226 0.092l-0-0 0.697 0.645c0.054 0.059 0.087 0.139 0.087 0.226s-0.033 0.167-0.088 0.226l0-0c-0.044 0.061-0.114 0.101-0.193 0.103h-0z"></path>
<path stroke-linejoin="miter" stroke-linecap="butt" stroke-miterlimit="4" stroke-width="0.6454" d="M22.306 18.317c-0.27 0.403-0.723 0.665-1.238 0.665-0.129 0-0.254-0.016-0.373-0.047l0.010 0.002c-0.096-0.012-0.17-0.094-0.17-0.192 0-0.010 0.001-0.019 0.002-0.028l-0 0.001 0.245-1.291c0.018-0.090 0.096-0.157 0.19-0.157 0.010 0 0.020 0.001 0.030 0.002l-0.001-0c0.013-0.005 0.029-0.007 0.045-0.007s0.032 0.003 0.046 0.008l-0.001-0 1.136 0.8c0.055 0.038 0.091 0.1 0.091 0.171 0 0.027-0.005 0.052-0.014 0.075l0-0.001z"></path>
<path stroke-linejoin="miter" stroke-linecap="butt" stroke-miterlimit="4" stroke-width="0.6454" d="M25.378 9.823c0.215 0.251 0.346 0.579 0.346 0.938 0 0.273-0.076 0.529-0.207 0.746l0.004-0.006c-0.032 0.075-0.105 0.127-0.191 0.127-0.024 0-0.047-0.004-0.069-0.012l0.001 0-1.213-0.62c-0.060-0.034-0.099-0.097-0.099-0.169 0-0.033 0.008-0.063 0.022-0.090l-0 0.001c-0.003-0.010-0.004-0.021-0.004-0.032s0.002-0.023 0.004-0.033l-0 0.001 1.123-0.878c0.035-0.025 0.079-0.040 0.127-0.040 0.062 0 0.117 0.025 0.157 0.066l0 0z"></path>
<path stroke-linejoin="miter" stroke-linecap="butt" stroke-miterlimit="4" stroke-width="0.6454" d="M25.559 15.296h-0.219l-0.813-0.491c-0.059-0.062-0.095-0.146-0.095-0.239s0.036-0.177 0.095-0.239l-0 0c0.064-0.071 0.156-0.115 0.259-0.115 0.046 0 0.090 0.009 0.131 0.025l-0.002-0.001 0.8 0.503c0.098 0.050 0.163 0.15 0.163 0.265 0 0.060-0.018 0.115-0.048 0.162l0.001-0.001c-0.045 0.087-0.131 0.147-0.231 0.155l-0.001 0z"></path>
<path stroke-linejoin="miter" stroke-linecap="butt" stroke-miterlimit="4" stroke-width="0.6454" d="M22.68 6.519c-0.009 0.001-0.020 0.001-0.032 0.001-0.17 0-0.312-0.122-0.342-0.283l-0-0.002c-0.015-0.036-0.024-0.078-0.024-0.123s0.009-0.086 0.025-0.125l-0.001 0.002 0.774-0.826c0.056-0.056 0.134-0.091 0.219-0.091s0.163 0.035 0.219 0.091v0c0.060 0.057 0.098 0.137 0.098 0.226s-0.038 0.169-0.098 0.226l-0 0-0.62 0.839c-0.062 0.039-0.138 0.063-0.219 0.065h-0z"></path>
<path stroke-linejoin="miter" stroke-linecap="butt" stroke-miterlimit="4" stroke-width="0.6454" d="M31.69 16.006c0 8.662-7.022 15.684-15.684 15.684s-15.684-7.022-15.684-15.684c0-8.662 7.022-15.684 15.684-15.684s15.684 7.022 15.684 15.684z"></path>
</symbol>
</defs>
</svg>
