<?xml version="1.0" encoding="utf-8"?>
<!-- Generator: Adobe Illustrator 24.2.1, SVG Export Plug-In . SVG Version: 6.00 Build 0)  -->
<svg version="1.1" id="圖層_1" xmlns="http://www.w3.org/2000/svg" xmlns:xlink="http://www.w3.org/1999/xlink" x="0px" y="0px"
	 viewBox="0 0 1920 1080" style="enable-background:new 0 0 1920 1080;" xml:space="preserve">
<style type="text/css">
	.st0{fill:#F8F4EB;}
	.st1{fill:#F2DE79;}
	.st2{fill:#FFFFFF;}
	.st3{fill:#03588C;}
	.st4{fill:#0388A6;}
</style>
<path class="st0" d="M-12,960.6v23c14.2-3.4,28.7-5.3,43.3-5.9C17.2,970.7,2.8,964.6-12,960.6z"/>
<path class="st0" d="M1742,1129.2c-9.3,2-18.5,4.5-27.5,7.4h180.6C1845.6,1121.6,1792.6,1118.3,1742,1129.2z"/>
<path class="st0" d="M1908,1065V899c-44.2-65-58.4-148.7-46.9-226.9c4.4-29.5,12.1-58.8,11.5-88.7c-0.8-36.3-13.9-71.1-24.1-106
	s-17.5-72.5-6.7-107.3c9.3-29.9,36-56.2,66.3-59.1V56.6h-143.4c11.1,7.4,21.4,15.8,30.7,25.3c45.8,46.3,67.2,117.6,65.6,181.7
	c-3.9,156.6-380.3,302.1-461.5,145.6c-4-7.7-7.1-15.8-9.4-24.1c-18.1-64.6,71.4-136.5,83-197.9c7.8-41,26.6-80.9,54.9-111.2
	c-16-3.4-31.9-5.7-48-3.3c-23.7,3.4-44.8,16.6-67.9,23.2c-34,9.4-70.4,4.1-100.3-14.7c-10.5-6.8-20-15.1-28-24.6H782.4
	c1.4,21.3,2.8,42.7,4.2,64c1.6,24.6,2.9,50.6-8.3,72.5c-20.4,40-78.8,49.7-117,26.1c-26.5-16.4-44.9-44.9-73.5-57.2
	c-16.6-7.1-35-8-53-10.8c-1,1.4-2.8,1.7-4.2,0.7c-0.6-0.4-1-1-1.2-1.6l-0.8-0.1c-14-2.7-27.6-7.3-40.3-13.6
	c-0.5,0.4-1.2,0.6-1.8,0.6c-1.7,0-3-1.3-3-2.9c0,0,0,0,0-0.1c0,0,0-0.1,0-0.1c-23.2-12.5-43.1-30.2-58.3-51.7c-5-7-9.5-14.4-13.4-22
	c-0.8,0.5-1.9,0.6-2.8,0.2c-0.2-0.1-0.4-0.2-0.5-0.3c-1.2-0.8-1.7-2.4-1.1-3.8h-24.9c0.2,0.4,0.2,0.8,0.3,1.2c0,0.4-0.1,0.8-0.3,1.2
	c-0.3,0.7-0.9,1.3-1.6,1.6c-1.5,0.7-3.3,0-4-1.5c0,0,0-0.1,0-0.1c-0.2-0.4-0.2-0.8-0.2-1.2c0-0.4,0.1-0.8,0.3-1.2h-25
	c0.3,0.8,0.3,1.6,0,2.4c-0.2,0.5-0.6,1-1.1,1.3c-1.4,0.9-3.3,0.6-4.3-0.8c-0.6-0.9-0.7-2-0.3-2.9h-25c0.2,0.4,0.3,0.8,0.3,1.2
	c0,1.7-1.4,3.1-3,3.1c-1.2,0-2.3-0.7-2.8-1.9c-0.2-0.4-0.2-0.8-0.2-1.2c0-0.4,0.1-0.8,0.3-1.2h-25c0.3,0.8,0.3,1.6,0,2.4
	c-0.4,0.9-1.2,1.6-2.2,1.8c-0.2,0-0.4,0.1-0.6,0.1l0,0c-1.7,0-3-1.3-3.1-3c0-0.4,0.1-0.8,0.3-1.2h-24.9c0.3,0.8,0.3,1.6,0,2.4
	c-0.7,1.5-2.5,2.2-4,1.6c-1.5-0.7-2.2-2.5-1.6-4c0,0,0,0,0,0h-24c4.2,14.5,7.7,29.3,10.7,44.1c0.3-0.1,0.5-0.1,0.8-0.1l0,0
	c1.7-0.1,3.1,1.2,3.2,2.9c0.1,1.7-1.2,3.1-2.9,3.2c1.5,7.9,2.8,15.8,4,23.7c5.3,35.3,6.9,75.9-17.9,101.6
	c-23,23.9-60.2,26-93.3,23.3c-50.4-4.1-100-15.4-147.1-33.6v391c41.7-6.1,83.6-9,124,7.4c42,17,76.7,58.2,73.8,103.3
	c-1.9,29.6-19.2,57.9-14.4,87.1c9.2,55.3,88.3,75.2,101.3,129.7c9.8,41.2-26.8,82.5-68.3,91.3c-6.5,1.4-13.1,2.2-19.7,2.4
	c31.5,24.4,61.1,51.8,95.8,71.2c24.2,13.5,50.5,22.9,77.7,27.7c7.9,1.4,15.9,2.4,23.9,3.7h1095.4
	C1599.4,1047.5,1763.9,1022,1908,1065z M245.1,73.1c0,1.7-1.3,3.1-3,3.1c-1.7,0-3.1-1.3-3.1-3c0-1.7,1.3-3.1,3-3.1c0,0,0,0,0.1,0
	l0,0C243.7,70.1,245,71.4,245.1,73.1L245.1,73.1z M547.8,351.1h-0.2c-1.7,0-3.1-1.4-3.1-3.1c0-1.7,1.4-3.1,3.1-3.1
	c1.7,0,3,1.3,3.1,3C549.7,349,548.8,350,547.8,351.1z M565.4,300.5c0.1,0.2,0.2,0.3,0.3,0.5c0.6,1.5-0.1,3.3-1.6,3.9
	c-1.5,0.6-3.3-0.1-3.9-1.6c-0.6-1.5,0.1-3.3,1.6-3.9C563,298.8,564.6,299.3,565.4,300.5z M575,286.9c0-1.1,0.6-2.1,1.5-2.6
	c-0.3,1.5-0.5,3.1-0.8,4.6C575.3,288.3,575,287.6,575,286.9z M581.1,195.3c0,1.7-1.4,3.1-3.1,3.1c-1.7,0-3.1-1.4-3.1-3.1
	c0-1.7,1.4-3.1,3.1-3.1c0,0,0,0,0.1,0C579.8,192.2,581.1,193.5,581.1,195.3C581.1,195.2,581.1,195.2,581.1,195.3z M590.3,180
	c0-1.7,1.3-3,2.9-3.1c0,0,0.1,0,0.1,0c0.2,0,0.4,0,0.6,0.1c0.9,0.2,1.6,0.7,2.1,1.5c-0.3,0.6-0.5,1.1-0.8,1.7
	c-0.4,0.9-0.8,1.8-1.2,2.7L594,183c-0.2,0-0.4,0.1-0.6,0.1c-0.4,0-0.8-0.1-1.2-0.2l0,0C591,182.3,590.3,181.2,590.3,180L590.3,180z
	 M578.1,161.6c1.7,0,3,1.4,3,3.1l0,0c0,1.7-1.4,3.1-3.1,3.1c-1.7,0-3.1-1.4-3.1-3.1C575,163,576.3,161.6,578.1,161.6
	C578,161.6,578.1,161.6,578.1,161.6z M578.1,222.8c1.7,0,3,1.4,3,3.1l0,0c0,1.7-1.4,3.1-3.1,3.1c-1.7,0-3.1-1.4-3.1-3.1
	C575,224.1,576.3,222.7,578.1,222.8C578,222.7,578.1,222.7,578.1,222.8z M578.1,253.3c0.8,0,1.6,0.3,2.2,0.9
	c-0.2,1.6-0.3,3.1-0.5,4.6c-0.5,0.4-1.1,0.5-1.7,0.5c-1.7,0-3.1-1.4-3.1-3.1C575,254.7,576.4,253.3,578.1,253.3L578.1,253.3z
	 M561.1,177.5c1.4-0.9,3.2-0.5,4.2,0.9c0.9,1.4,0.5,3.2-0.9,4.2c-1.4,0.9-3.2,0.5-4.1-0.8C559.3,180.3,559.7,178.5,561.1,177.5
	C561.1,177.5,561.1,177.5,561.1,177.5L561.1,177.5z M562.8,207.5L562.8,207.5c1.6,0,3,1.4,3,3l0,0c0,1.7-1.3,3.1-3,3.1
	c-1.7,0-3.1-1.3-3.1-3s1.3-3.1,3-3.1C562.7,207.5,562.7,207.5,562.8,207.5L562.8,207.5z M565.8,241.1L565.8,241.1
	c0.1,1.7-1.2,3.1-2.9,3.2c-1.7,0.1-3.1-1.2-3.2-2.9c0-0.1,0-0.2,0-0.3c0-0.2,0-0.4,0.1-0.6c0.3-1.7,1.9-2.7,3.6-2.4
	c1.2,0.2,2.2,1.2,2.4,2.4C565.8,240.7,565.9,240.9,565.8,241.1L565.8,241.1z M562.8,268.6L562.8,268.6c1.7,0,3,1.4,3,3.1l0,0
	c0,1.7-1.4,3.1-3.1,3.1s-3.1-1.4-3.1-3.1S561.1,268.6,562.8,268.6L562.8,268.6L562.8,268.6z M562.6,329.7c-0.8,1.5-1.6,3-2.5,4.5
	c-0.3-0.5-0.4-1-0.4-1.5C559.7,331.1,561,329.8,562.6,329.7z M547.5,161.7L547.5,161.7c1.7,0,3.1,1.4,3,3.1c0,1.7-1.4,3.1-3.1,3
	c-1.7,0-3-1.4-3-3.1c0-1.7,1.3-3,2.9-3.1C547.5,161.6,547.5,161.6,547.5,161.7L547.5,161.7z M550.6,195.3c0,1.7-1.4,3.1-3.1,3.1
	s-3.1-1.4-3.1-3.1c0-1.7,1.4-3.1,3.1-3.1l0,0l0,0c1.7,0,3,1.3,3.1,2.9C550.6,195.2,550.6,195.2,550.6,195.3L550.6,195.3z
	 M547.5,222.8L547.5,222.8c1.7,0,3.1,1.4,3,3.1c0,1.7-1.4,3.1-3.1,3c-1.7,0-3-1.4-3-3.1C544.5,224.1,545.8,222.7,547.5,222.8
	C547.5,222.7,547.6,222.7,547.5,222.8L547.5,222.8z M547.5,253.3L547.5,253.3c1.7,0,3.1,1.4,3,3.1c0,1.7-1.4,3.1-3.1,3
	c-1.7,0-3-1.4-3-3.1C544.5,254.7,545.8,253.3,547.5,253.3C547.5,253.3,547.6,253.3,547.5,253.3L547.5,253.3z M550.6,286.9
	c0,1.7-1.4,3.1-3.1,3.1s-3.1-1.4-3.1-3.1c0-1.7,1.4-3.1,3.1-3.1l0,0l0,0c1.7,0,3,1.3,3.1,2.9C550.6,286.8,550.6,286.9,550.6,286.9
	L550.6,286.9z M547.5,314.4L547.5,314.4c1.7,0,3.1,1.4,3,3.1c0,1.7-1.4,3.1-3.1,3c-1.7,0-3-1.4-3-3.1c0-1.7,1.3-3,2.9-3.1
	C547.5,314.4,547.5,314.4,547.5,314.4L547.5,314.4z M529.7,178.3c0.9-1.4,2.8-1.8,4.2-0.8c0.3,0.2,0.6,0.5,0.8,0.8l0,0
	c0.1,0.2,0.2,0.3,0.3,0.5c0.7,1.5,0,3.4-1.6,4s-3.4,0-4-1.6c-0.2-0.4-0.3-0.8-0.3-1.3C529.2,179.4,529.4,178.8,529.7,178.3z
	 M529.7,208.8c1-1.4,2.9-1.8,4.3-0.8c0.8,0.6,1.3,1.5,1.3,2.5c0,0.6-0.2,1.2-0.5,1.7c-0.9,1.4-2.8,1.8-4.3,0.8
	C529.2,212.1,528.8,210.2,529.7,208.8L529.7,208.8z M437.6,363.3c0-0.2,0-0.4,0.1-0.6c0.3-1.7,1.9-2.8,3.5-2.5
	c1.2,0.2,2.2,1.2,2.5,2.5c0,0.2,0.1,0.4,0.1,0.6c0.1,1.7-1.2,3.1-2.9,3.2s-3.1-1.2-3.2-2.9C437.6,363.5,437.6,363.4,437.6,363.3
	L437.6,363.3z M452.8,378.6c0-1.7,1.4-3.1,3-3.1l0,0c1.7,0,3.1,1.4,3.1,3.1s-1.4,3.1-3.1,3.1C454.2,381.6,452.8,380.3,452.8,378.6
	L452.8,378.6L452.8,378.6z M471.2,329.7c1.7,0,3.1,1.4,3.1,3c0,1.7-1.4,3.1-3,3.1s-3.1-1.4-3.1-3c0,0,0,0,0,0
	C468.1,331.1,469.5,329.7,471.2,329.7C471.2,329.7,471.2,329.7,471.2,329.7L471.2,329.7z M468.1,302.2c0-1.7,1.3-3.1,3-3.1
	c1.7,0,3.1,1.3,3.1,3c0,1.7-1.3,3.1-3,3.1c0,0,0,0-0.1,0l0,0C469.5,305.2,468.2,303.9,468.1,302.2
	C468.1,302.2,468.1,302.2,468.1,302.2L468.1,302.2z M471.2,244.1c-1.7,0-3.1-1.4-3.1-3.1c0-0.2,0-0.4,0.1-0.6
	c0.3-1.7,1.9-2.8,3.5-2.5c1.2,0.2,2.2,1.2,2.5,2.5c0,0.2,0.1,0.4,0.1,0.6l0,0C474.3,242.8,472.9,244.1,471.2,244.1
	C471.2,244.1,471.2,244.1,471.2,244.1L471.2,244.1z M468.2,362.7c0.3-1.7,1.9-2.8,3.5-2.5c1.2,0.2,2.2,1.2,2.5,2.5
	c0,0.2,0.1,0.4,0.1,0.6c0,1.7-1.4,3.1-3.1,3.1c-1.7,0-3.1-1.4-3.1-3.1C468.1,363.1,468.2,362.9,468.2,362.7L468.2,362.7z M483.8,380
	c-0.2-0.4-0.4-0.9-0.4-1.4c0-1.7,1.4-3.1,3-3.1c0,0,0,0,0,0l0,0c1.7,0,3.1,1.4,3.1,3.1c0,0.1,0,0.3,0,0.4
	C487.6,379.3,485.7,379.7,483.8,380L483.8,380z M498.7,363.3c0-0.2,0-0.4,0.1-0.6c0.3-1.7,1.9-2.8,3.5-2.5c1.2,0.2,2.2,1.2,2.5,2.5
	c0,0.2,0.1,0.4,0.1,0.6c0.1,1.7-1.2,3.1-2.9,3.2c-1.7,0.1-3.1-1.2-3.2-2.9C498.7,363.5,498.7,363.4,498.7,363.3L498.7,363.3z
	 M520,195.3c0,1.7-1.4,3.1-3.1,3.1c-1.7,0-3.1-1.4-3.1-3.1c0-1.7,1.4-3.1,3.1-3.1c0,0,0,0,0.1,0C518.7,192.2,520.1,193.6,520,195.3
	C520.1,195.3,520.1,195.3,520,195.3z M529.8,365.1c-0.4-0.5-0.6-1.1-0.6-1.8c0-0.2,0-0.4,0.1-0.6c0.3-1.6,1.8-2.8,3.4-2.5
	c1,0.2,1.8,0.8,2.2,1.7C533.3,363,531.5,364.1,529.8,365.1L529.8,365.1z M532.3,274.7c-1.7-0.1-3-1.5-2.9-3.2
	c0.1-1.6,1.3-2.8,2.9-2.9c0.6,0,1.2,0.2,1.7,0.5c1.4,0.9,1.8,2.8,0.8,4.2C534.2,274.2,533.3,274.7,532.3,274.7z M535.3,302.2
	c0,0.4-0.1,0.8-0.2,1.2c-0.1,0.2-0.2,0.4-0.3,0.5c-0.9,1.4-2.8,1.8-4.2,0.8s-1.8-2.8-0.8-4.2c0.9-1.4,2.8-1.8,4.2-0.8c0,0,0,0,0,0
	c0.3,0.2,0.6,0.5,0.8,0.8C535.1,301,535.3,301.6,535.3,302.2L535.3,302.2z M529.2,241.1c0-0.2,0-0.4,0.1-0.6
	c0.3-1.7,1.9-2.8,3.5-2.4c1.2,0.2,2.2,1.2,2.5,2.4c0,0.2,0.1,0.4,0.1,0.6l0,0c0.1,1.7-1.2,3.1-2.9,3.2c-1.7,0.1-3.1-1.2-3.2-2.9
	C529.2,241.3,529.2,241.2,529.2,241.1L529.2,241.1z M529.7,331c1-1.4,2.9-1.8,4.3-0.8c0.8,0.6,1.3,1.5,1.3,2.5
	c0,0.6-0.2,1.2-0.5,1.7c-0.9,1.4-2.9,1.8-4.3,0.8S528.8,332.4,529.7,331L529.7,331z M517,161.7L517,161.7c1.7,0,3,1.4,3,3.1l0,0
	c0,1.7-1.4,3.1-3.1,3.1c-1.7,0-3.1-1.4-3.1-3.1C513.9,163,515.3,161.6,517,161.7C517,161.6,517,161.6,517,161.7z M517,222.8
	c1.7,0.1,3,1.5,2.9,3.2c-0.1,1.6-1.3,2.8-2.9,2.9l0,0c-1.7,0.1-3.1-1.2-3.2-2.9s1.2-3.1,2.9-3.2C516.8,222.7,516.9,222.7,517,222.8z
	 M517,253.3L517,253.3c1.7,0,3,1.4,3,3.1l0,0c0,1.7-1.4,3.1-3.1,3.1c-1.7,0-3.1-1.4-3.1-3.1C513.9,254.7,515.3,253.3,517,253.3
	C517,253.3,517,253.3,517,253.3z M520,286.9c0,1.7-1.4,3.1-3.1,3.1c-1.7,0-3.1-1.4-3.1-3.1c0-1.7,1.4-3.1,3.1-3.1c0,0,0,0,0.1,0l0,0
	C518.7,283.9,520,285.3,520,286.9z M517,314.4L517,314.4c1.7,0,3,1.4,3,3.1l0,0c0,1.7-1.4,3.1-3.1,3.1c-1.7,0-3.1-1.4-3.1-3.1
	C513.9,315.8,515.3,314.4,517,314.4C517,314.4,517,314.4,517,314.4z M517,345c1.7,0,3,1.4,3,3.1l0,0c0,1.7-1.4,3.1-3.1,3.1
	c-1.7,0-3.1-1.4-3.1-3.1C513.9,346.3,515.3,345,517,345C517,345,517,345,517,345z M501.7,146.4L501.7,146.4c1.7,0,3.1,1.4,3.1,3.1
	c0,1.7-1.4,3.1-3.1,3.1c-1.7,0-3.1-1.4-3.1-3.1c0,0,0,0,0,0C498.7,147.8,500,146.4,501.7,146.4C501.7,146.4,501.7,146.4,501.7,146.4
	L501.7,146.4z M504.8,180c0,0.4-0.1,0.8-0.3,1.2c-0.7,1.6-2.4,2.3-4,1.6c-1.6-0.7-2.3-2.4-1.6-4c0.5-1.1,1.6-1.9,2.8-1.9
	C503.4,176.9,504.8,178.3,504.8,180z M498.7,210.6c0-1.7,1.4-3.1,3.1-3.1s3.1,1.4,3.1,3.1c0,1.7-1.4,3.1-3.1,3.1c0,0,0,0,0,0
	C500,213.6,498.7,212.3,498.7,210.6C498.7,210.6,498.7,210.6,498.7,210.6L498.7,210.6z M498.7,240.5c0.3-1.7,1.9-2.8,3.6-2.4
	c1.2,0.2,2.2,1.2,2.4,2.4c0,0.2,0.1,0.4,0.1,0.6c0.1,1.7-1.2,3.1-2.9,3.2c-1.7,0.1-3.1-1.2-3.2-2.9c0-0.1,0-0.2,0-0.3
	C498.7,240.9,498.7,240.7,498.7,240.5L498.7,240.5z M501.7,268.6L501.7,268.6c1.7,0,3,1.4,3,3.1l0,0c0,1.7-1.4,3.1-3.1,3.1
	s-3.1-1.4-3.1-3.1C498.6,270,500,268.6,501.7,268.6L501.7,268.6L501.7,268.6z M502.9,305c-1.6,0.7-3.3-0.1-4-1.6
	c-0.7-1.6,0.1-3.3,1.6-4c1.3-0.6,2.9-0.1,3.7,1.1l0,0c0.1,0.2,0.2,0.3,0.3,0.5C505.2,302.6,504.5,304.3,502.9,305L502.9,305z
	 M501.7,329.7L501.7,329.7c1.7,0,3,1.4,3,3l0,0c0,1.7-1.4,3.1-3,3.1c-1.7,0-3.1-1.4-3.1-3S500,329.7,501.7,329.7
	C501.7,329.7,501.7,329.7,501.7,329.7L501.7,329.7z M486.5,161.7c1.7,0,3.1,1.4,3.1,3.1c0,1.7-1.4,3.1-3.1,3.1
	c-1.7,0-3.1-1.4-3.1-3.1c0,0,0,0,0,0c-0.1-1.7,1.3-3.1,2.9-3.1C486.4,161.7,486.4,161.6,486.5,161.7L486.5,161.7z M489.5,195.4
	c0,1.7-1.4,3.1-3.1,3.1s-3.1-1.4-3.1-3.1c0-1.7,1.4-3.1,3.1-3.1l0,0l0,0C488.1,192.3,489.5,193.6,489.5,195.4L489.5,195.4z
	 M486.5,222.8L486.5,222.8c1.7,0,3.1,1.4,3,3.1c0,1.7-1.4,3.1-3.1,3c-1.7,0-3-1.4-3-3.1C483.4,224.2,484.7,222.8,486.5,222.8
	C486.4,222.8,486.4,222.8,486.5,222.8L486.5,222.8z M486.5,253.4L486.5,253.4c1.7,0,3.1,1.4,3,3.1c0,1.7-1.4,3.1-3.1,3
	c-1.7,0-3-1.4-3-3.1C483.4,254.8,484.7,253.3,486.5,253.4C486.4,253.3,486.4,253.3,486.5,253.4L486.5,253.4z M489.5,287
	c0,1.7-1.4,3.1-3.1,3.1s-3.1-1.4-3.1-3.1c0-1.7,1.4-3.1,3.1-3.1l0,0l0,0C488.1,284,489.5,285.3,489.5,287L489.5,287z M486.5,314.5
	L486.5,314.5c1.7,0,3.1,1.4,3,3.1c0,1.7-1.4,3.1-3.1,3c-1.7,0-3-1.4-3-3.1c0-1.7,1.3-3.1,3-3.1C486.4,314.4,486.4,314.4,486.5,314.5
	L486.5,314.5z M486.5,345.1L486.5,345.1c1.7,0,3.1,1.4,3,3.1c0,1.7-1.4,3.1-3.1,3c-1.7,0-3-1.4-3-3.1c0-1.7,1.3-3.1,3-3.1
	C486.4,345,486.4,345,486.5,345.1L486.5,345.1z M471.2,213.6c-1.7,0-3.1-1.4-3.1-3.1c0-1.7,1.4-3.1,3.1-3.1c1.7,0,3.1,1.4,3.1,3.1
	l0,0C474.2,212.2,472.9,213.6,471.2,213.6z M468.1,180c0-1.7,1.4-3.1,3.1-3.1c1.7,0,3.1,1.4,3.1,3.1c0,1.7-1.4,3.1-3.1,3.1
	c-1.2,0-2.3-0.7-2.8-1.9C468.2,180.8,468.1,180.4,468.1,180L468.1,180z M471.2,146.4c1.7,0,3,1.3,3,3l0,0c0,1.7-1.4,3.1-3.1,3.1
	c-1.7,0-3.1-1.4-3.1-3.1C468.1,147.7,469.4,146.3,471.2,146.4C471.1,146.3,471.2,146.3,471.2,146.4L471.2,146.4z M471.2,268.6
	c1.7,0,3,1.3,3,3c0,0,0,0,0,0.1l0,0c0,1.7-1.4,3.1-3.1,3.1c-1.7,0-3.1-1.4-3.1-3.1C468.1,270,469.4,268.6,471.2,268.6
	C471.1,268.6,471.2,268.6,471.2,268.6z M455.9,131.1L455.9,131.1c1.7,0,3.1,1.4,3.1,3.1s-1.4,3.1-3.1,3.1c-1.7,0-3.1-1.4-3.1-3.1
	c0,0,0,0,0,0C452.8,132.5,454.2,131.1,455.9,131.1C455.9,131.1,455.9,131.1,455.9,131.1L455.9,131.1z M455.9,161.6L455.9,161.6
	c1.7,0,3.1,1.4,3.1,3.1c0,1.7-1.4,3.1-3.1,3.1c-1.7,0-3.1-1.4-3.1-3.1c0,0,0,0,0,0C452.8,163,454.2,161.7,455.9,161.6
	C455.9,161.6,455.9,161.6,455.9,161.6L455.9,161.6z M459,195.3c0,1.7-1.4,3.1-3.1,3.1s-3.1-1.4-3.1-3.1s1.4-3.1,3.1-3.1l0,0l0,0
	C457.6,192.2,459,193.6,459,195.3C459,195.2,459,195.3,459,195.3z M455.9,222.8L455.9,222.8c1.7,0,3.1,1.4,3.1,3.1
	c0,1.7-1.4,3.1-3.1,3.1c-1.7,0-3.1-1.4-3.1-3.1l0,0C452.8,224.1,454.2,222.8,455.9,222.8C455.9,222.8,455.9,222.8,455.9,222.8
	L455.9,222.8z M455.9,253.3L455.9,253.3c1.7,0,3.1,1.4,3.1,3.1c0,1.7-1.4,3.1-3.1,3.1c-1.7,0-3.1-1.4-3.1-3.1l0,0
	C452.8,254.7,454.2,253.3,455.9,253.3C455.9,253.3,455.9,253.3,455.9,253.3L455.9,253.3z M459,286.9c0,1.7-1.4,3.1-3.1,3.1
	s-3.1-1.4-3.1-3.1s1.4-3.1,3.1-3.1l0,0l0,0C457.6,283.9,459,285.2,459,286.9C459,286.9,459,286.9,459,286.9z M455.9,314.4
	L455.9,314.4c1.7,0,3.1,1.4,3.1,3.1s-1.4,3.1-3.1,3.1c-1.7,0-3.1-1.4-3.1-3.1l0,0C452.8,315.8,454.2,314.4,455.9,314.4
	C455.9,314.4,455.9,314.4,455.9,314.4L455.9,314.4z M455.9,345L455.9,345c1.7,0,3.1,1.4,3.1,3.1s-1.4,3.1-3.1,3.1
	c-1.7,0-3.1-1.4-3.1-3.1l0,0C452.8,346.3,454.2,345,455.9,345C455.9,345,455.9,345,455.9,345L455.9,345z M437.6,118.3
	c0.3-1.7,1.9-2.8,3.5-2.4c1.2,0.2,2.2,1.2,2.5,2.4c0,0.2,0.1,0.4,0.1,0.6c-0.1,1.7-1.5,3-3.2,2.9c-1.6-0.1-2.8-1.3-2.9-2.9
	C437.6,118.7,437.6,118.5,437.6,118.3z M440.6,146.4L440.6,146.4c1.7,0,3.1,1.4,3.1,3.1c0,1.7-1.4,3.1-3.1,3.1
	c-1.7,0-3.1-1.4-3.1-3.1c0,0,0,0,0,0C437.6,147.8,438.9,146.4,440.6,146.4z M438.9,177.4c1.4-0.9,3.3-0.5,4.3,0.9
	c0.3,0.5,0.5,1.1,0.5,1.7c0,0.4-0.1,0.8-0.2,1.2c-0.7,1.6-2.5,2.3-4,1.6c-0.7-0.3-1.3-0.9-1.6-1.6c-0.2-0.4-0.2-0.8-0.2-1.2
	C437.6,179,438.1,178,438.9,177.4L438.9,177.4z M440.6,207.4L440.6,207.4c1.7,0,3,1.3,3,3l0,0c0,1.7-1.4,3.1-3.1,3.1
	s-3.1-1.4-3.1-3.1C437.6,208.8,438.9,207.4,440.6,207.4L440.6,207.4L440.6,207.4z M443.7,241c0.1,1.7-1.2,3.1-2.9,3.2
	c-1.7,0.1-3.1-1.2-3.2-2.9c0-0.1,0-0.2,0-0.3c0-0.2,0-0.4,0.1-0.6c0.3-1.7,1.9-2.8,3.5-2.4c1.2,0.2,2.2,1.2,2.5,2.4
	C443.7,240.6,443.7,240.9,443.7,241L443.7,241z M440.6,268.6L440.6,268.6c1.7,0,3,1.4,3,3.1l0,0c0,1.7-1.4,3.1-3.1,3.1
	s-3.1-1.4-3.1-3.1S438.9,268.6,440.6,268.6L440.6,268.6L440.6,268.6z M443.7,302.2c0,1.7-1.4,3.1-3,3.1s-3.1-1.4-3.1-3
	s1.4-3.1,3-3.1c1,0,2,0.5,2.5,1.3C443.5,301,443.7,301.6,443.7,302.2L443.7,302.2z M440.6,329.7L440.6,329.7c1.7,0,3,1.3,3,2.9
	c0,0,0,0.1,0,0.1l0,0c0,1.7-1.4,3.1-3,3.1c-1.7,0-3.1-1.4-3.1-3S438.9,329.7,440.6,329.7C440.6,329.7,440.6,329.7,440.6,329.7
	L440.6,329.7z M425.3,100.6L425.3,100.6c1.7,0,3.1,1.4,3.1,3.1c0,1.7-1.4,3.1-3.1,3.1c-1.7,0-3.1-1.4-3.1-3.1c0,0,0,0,0-0.1
	C422.3,101.9,423.7,100.6,425.3,100.6L425.3,100.6z M239,286.9c0-1.7,1.3-3,2.9-3c0,0,0.1,0,0.1,0l0,0c1.7,0,3.1,1.4,3.1,3.1
	c0,1.7-1.4,3.1-3.1,3.1S239,288.6,239,286.9C239,286.9,239,286.9,239,286.9L239,286.9z M255.6,299.7c1.4-0.9,3.3-0.6,4.2,0.8
	c0.9,1.4,0.6,3.3-0.8,4.2c-1.4,0.9-3.3,0.6-4.2-0.8C253.9,302.5,254.2,300.6,255.6,299.7C255.6,299.7,255.6,299.7,255.6,299.7
	L255.6,299.7z M272.6,131.1L272.6,131.1c1.7,0,3.1,1.4,3.1,3.1c0,1.7-1.4,3.1-3.1,3.1c-1.7,0-3.1-1.4-3.1-3.1c0,0,0,0,0,0
	C269.6,132.5,270.9,131.1,272.6,131.1L272.6,131.1z M269.5,103.6c0-1.7,1.4-3,3-3l0,0c1.7,0,3.1,1.4,3.1,3.1c0,1.7-1.4,3.1-3.1,3.1
	C270.9,106.7,269.6,105.3,269.5,103.6C269.5,103.6,269.5,103.6,269.5,103.6z M287.9,176.9c0.2,0,0.4,0,0.6,0.1
	c1.7,0.3,2.8,1.9,2.5,3.6c-0.2,1.2-1.2,2.2-2.5,2.4c-0.2,0-0.4,0.1-0.6,0.1c-0.4,0-0.8-0.1-1.2-0.2c-0.7-0.3-1.3-0.9-1.6-1.6
	c-0.2-0.4-0.2-0.8-0.2-1.2C284.8,178.3,286.2,176.9,287.9,176.9L287.9,176.9z M284.8,149.4c0-1.7,1.4-3,3.1-3c0.2,0,0.4,0,0.6,0.1
	l0,0c1.7,0.3,2.7,1.9,2.4,3.6c-0.2,1.2-1.2,2.2-2.4,2.4c-0.2,0-0.4,0.1-0.6,0.1C286.2,152.5,284.8,151.1,284.8,149.4L284.8,149.4z
	 M285.3,300.5c0.6-0.9,1.5-1.4,2.5-1.4c0.2,0,0.4,0,0.6,0.1c0.8,0.2,1.5,0.6,1.9,1.3l0,0c1,1.3,0.7,3.2-0.7,4.2
	c-0.4,0.3-0.8,0.4-1.2,0.5c-0.2,0-0.4,0.1-0.6,0.1c-1.7,0-3-1.3-3.1-3C284.8,301.6,285,301,285.3,300.5L285.3,300.5z M286.7,268.8
	c0.4-0.2,0.8-0.2,1.2-0.2c0.2,0,0.4,0,0.6,0.1l0,0c1.7,0.3,2.7,1.9,2.4,3.6c-0.2,1.2-1.2,2.2-2.4,2.4c-0.2,0-0.4,0.1-0.6,0.1
	c-1.7,0-3.1-1.4-3.1-3.1C284.8,270.4,285.6,269.3,286.7,268.8L286.7,268.8z M286.7,329.9c0.4-0.2,0.8-0.2,1.2-0.2
	c0.2,0,0.4,0,0.6,0.1l0,0c1.7,0.3,2.7,1.9,2.4,3.6c-0.2,1.2-1.2,2.2-2.4,2.4c-0.2,0-0.4,0.1-0.6,0.1c-1.7,0-3.1-1.4-3-3.1
	C284.8,331.5,285.6,330.4,286.7,329.9L286.7,329.9z M288.5,244.1c-0.2,0-0.4,0.1-0.6,0.1c-1.7,0-3.1-1.4-3.1-3.1
	c0-0.2,0-0.4,0.1-0.6c0.2-1,0.9-1.8,1.8-2.2c0.4-0.2,0.8-0.2,1.2-0.2c0.2,0,0.4,0,0.6,0.1c1.2,0.3,2.1,1.2,2.4,2.4
	c0,0.2,0.1,0.4,0.1,0.6C291,242.5,289.9,243.8,288.5,244.1L288.5,244.1z M287.9,207.5c0.2,0,0.4,0,0.6,0.1l0,0
	c1.7,0.3,2.7,1.9,2.4,3.6c-0.2,1.2-1.2,2.2-2.4,2.4c-0.2,0-0.4,0.1-0.6,0.1c-1.7,0.1-3.1-1.2-3.2-2.9c-0.1-1.7,1.2-3.1,2.9-3.2
	C287.6,207.5,287.8,207.5,287.9,207.5L287.9,207.5z M316.2,361.2c0.4-0.5,1-0.8,1.6-0.9c1.7-0.3,3.3,0.7,3.6,2.4
	c0,0.2,0.1,0.4,0.1,0.6l0,0c0,0,0,0.1,0,0.1C319.7,362.7,317.9,362,316.2,361.2L316.2,361.2z M321.5,241.1c0,1.7-1.4,3-3.1,3l0,0
	c-1.7,0-3.1-1.4-3.1-3.1c0-1.7,1.4-3.1,3.1-3.1c1.5,0,2.7,1,3,2.5C321.5,240.6,321.5,240.8,321.5,241.1L321.5,241.1z M333.7,131.1
	L333.7,131.1c1.7,0,3.1,1.4,3.1,3.1c0,1.7-1.4,3.1-3.1,3.1c-1.7,0-3.1-1.4-3.1-3.1c0,0,0,0,0,0C330.7,132.4,332,131.1,333.7,131.1
	L333.7,131.1z M330.6,103.6c0-1.7,1.4-3,3-3l0,0c1.7,0,3.1,1.4,3.1,3.1c0,1.7-1.4,3.1-3.1,3.1C332,106.7,330.7,105.3,330.6,103.6
	C330.6,103.6,330.6,103.6,330.6,103.6z M345.9,363.3c0-0.2,0-0.4,0.1-0.6c0.3-1.7,1.9-2.8,3.5-2.5c1.2,0.2,2.2,1.2,2.5,2.5
	c0,0.2,0.1,0.4,0.1,0.6c0.1,1.7-1.2,3.1-2.9,3.2s-3.1-1.2-3.2-2.9C345.9,363.5,345.9,363.4,345.9,363.3L345.9,363.3z M362.4,376.2
	c0.5-0.4,1.2-0.6,1.9-0.6l0,0c1.2,0,2.2,0.7,2.7,1.7C365.4,376.9,363.9,376.5,362.4,376.2z M367.3,195.3c0,1.7-1.4,3.1-3.1,3.1
	s-3.1-1.4-3.1-3.1s1.4-3.1,3.1-3.1l0,0l0,0C365.9,192.2,367.3,193.6,367.3,195.3z M364.2,131.1L364.2,131.1c1.7,0,3.1,1.4,3.1,3.1
	c0,1.7-1.4,3.1-3.1,3.1c-1.7,0-3.1-1.4-3.1-3.1c0,0,0,0,0-0.1C361.2,132.4,362.6,131.1,364.2,131.1L364.2,131.1z M361.2,103.6
	c0-1.7,1.4-3,3.1-3l0,0c1.7,0,3.1,1.4,3.1,3.1s-1.4,3.1-3.1,3.1C362.6,106.7,361.2,105.3,361.2,103.6
	C361.2,103.6,361.2,103.6,361.2,103.6z M376.5,363.3c0-0.2,0-0.4,0.1-0.6c0.3-1.7,1.9-2.8,3.5-2.5c1.2,0.2,2.2,1.2,2.5,2.5
	c0,0.2,0.1,0.4,0.1,0.6c0.1,1.7-1.2,3.1-2.9,3.2s-3.1-1.2-3.2-2.9C376.5,363.5,376.5,363.4,376.5,363.3L376.5,363.3z M391.7,378.6
	c0-1.7,1.3-3,3-3.1l0,0c1.7,0,3.1,1.4,3.1,3.1s-1.4,3.1-3.1,3.1C393.1,381.6,391.7,380.3,391.7,378.6L391.7,378.6L391.7,378.6z
	 M394.7,131.1L394.7,131.1c1.7,0,3.1,1.4,3.1,3.1c0,1.7-1.4,3.1-3.1,3.1c-1.7,0-3.1-1.4-3.1-3.1c0,0,0,0,0,0
	C391.7,132.5,393,131.1,394.7,131.1C394.7,131.1,394.8,131.1,394.7,131.1L394.7,131.1z M391.7,103.6c0-1.7,1.3-3,3-3.1l0,0
	c1.7,0,3.1,1.3,3.1,3c0,1.7-1.3,3.1-3,3.1C393.2,106.7,391.8,105.4,391.7,103.6C391.7,103.6,391.7,103.6,391.7,103.6L391.7,103.6z
	 M407,363.3c0-0.2,0-0.4,0.1-0.6c0.3-1.7,1.9-2.7,3.6-2.4c1.2,0.2,2.2,1.2,2.4,2.4c0,0.2,0.1,0.4,0.1,0.6l0,0c0,1.7-1.3,3-3,3
	c0,0,0,0-0.1,0c-0.4,0-0.8-0.1-1.2-0.2C407.8,365.6,407,364.5,407,363.3z M422.3,378.6c0-1.7,1.4-3.1,3-3.1l0,0c1.7,0,3.1,1.4,3,3.1
	c0,1.7-1.4,3.1-3.1,3C423.6,381.6,422.3,380.3,422.3,378.6L422.3,378.6z M425.3,131.1L425.3,131.1c1.7,0,3.1,1.4,3,3.1
	c0,1.7-1.4,3.1-3.1,3c-1.7,0-3-1.4-3-3.1c0-1.7,1.3-3,2.9-3.1C425.3,131.1,425.3,131.1,425.3,131.1L425.3,131.1z M425.3,161.7
	L425.3,161.7c1.7,0,3.1,1.4,3,3.1c0,1.7-1.4,3.1-3.1,3c-1.7,0-3-1.4-3-3.1c0-1.7,1.3-3,2.9-3.1C425.3,161.6,425.3,161.6,425.3,161.7
	L425.3,161.7z M428.4,195.3c0,1.7-1.4,3.1-3.1,3.1s-3.1-1.4-3.1-3.1s1.4-3.1,3.1-3.1l0,0l0,0C427,192.2,428.4,193.6,428.4,195.3
	L428.4,195.3z M425.3,222.8L425.3,222.8c1.7,0,3.1,1.4,3,3.1c0,1.7-1.4,3.1-3.1,3c-1.7,0-3-1.4-3-3.1
	C422.3,224.1,423.6,222.8,425.3,222.8C425.3,222.7,425.4,222.7,425.3,222.8L425.3,222.8z M425.3,253.3L425.3,253.3
	c1.7,0,3.1,1.4,3,3.1c0,1.7-1.4,3.1-3.1,3c-1.7,0-3-1.4-3-3.1C422.3,254.7,423.6,253.3,425.3,253.3
	C425.3,253.3,425.4,253.3,425.3,253.3L425.3,253.3z M428.4,286.9c0,1.7-1.4,3.1-3.1,3.1s-3.1-1.4-3.1-3.1s1.4-3.1,3.1-3.1l0,0l0,0
	c1.7,0,3,1.3,3.1,2.9C428.4,286.8,428.4,286.9,428.4,286.9L428.4,286.9z M425.3,314.4L425.3,314.4c1.7,0,3.1,1.4,3,3.1
	c0,1.7-1.4,3.1-3.1,3c-1.7,0-3-1.4-3-3.1c0-1.7,1.3-3,2.9-3.1C425.3,314.4,425.3,314.4,425.3,314.4L425.3,314.4z M425.3,345
	L425.3,345c1.7,0,3.1,1.4,3.1,3.1s-1.4,3.1-3.1,3.1c-1.7,0-3.1-1.4-3.1-3.1l0,0C422.3,346.3,423.6,345,425.3,345
	C425.3,345,425.3,345,425.3,345L425.3,345z M411.3,213.3c-1.5,0.6-3.3-0.2-3.9-1.7c-0.6-1.5,0.2-3.3,1.7-3.9
	c0.9-0.3,1.9-0.2,2.7,0.3l0,0c1.4,0.9,1.8,2.8,0.8,4.2C412.3,212.7,411.8,213.1,411.3,213.3z M413.1,241.1c0.1,1.7-1.2,3.1-2.9,3.2
	c-1.7,0.1-3.1-1.2-3.2-2.9c0-0.1,0-0.2,0-0.3c0-0.2,0-0.4,0.1-0.6c0.3-1.7,1.9-2.7,3.6-2.4c1.2,0.2,2.2,1.2,2.4,2.4
	C413.1,240.7,413.1,240.9,413.1,241.1z M408.4,177.4c1.4-0.9,3.3-0.6,4.2,0.8c0.6,0.9,0.7,2,0.3,2.9c-0.2,0.5-0.6,1-1.1,1.3
	c-1.4,0.9-3.3,0.5-4.2-0.9C406.7,180.2,407,178.4,408.4,177.4z M407.5,86.6c0.9-1.4,2.8-1.8,4.2-0.8c0,0,0,0,0,0
	c0.8,0.6,1.4,1.5,1.3,2.5c0,1.7-1.4,3.1-3,3.1c-1.7,0-3.1-1.4-3.1-3C407,87.7,407.2,87.1,407.5,86.6z M413.1,118.8L413.1,118.8
	c0,1.7-1.3,3-3,3c0,0,0,0-0.1,0c-0.4,0-0.8-0.1-1.2-0.2c-1.1-0.5-1.8-1.5-1.9-2.7c0-0.2,0-0.4,0.1-0.6c0.3-1.7,1.9-2.7,3.6-2.4
	c1.2,0.2,2.2,1.2,2.4,2.4C413.1,118.5,413.1,118.7,413.1,118.8L413.1,118.8z M407.5,147.7c1-1.4,2.9-1.8,4.3-0.8
	c0.8,0.6,1.3,1.5,1.3,2.5c0,0.6-0.2,1.2-0.5,1.7c-0.9,1.4-2.9,1.8-4.3,0.8C407,151,406.6,149.1,407.5,147.7z M407.5,269.9
	c1-1.4,2.9-1.8,4.3-0.8c0.8,0.6,1.4,1.5,1.3,2.5c0,0.6-0.2,1.2-0.5,1.7c-0.9,1.4-2.9,1.8-4.3,0.8C407,273.2,406.6,271.3,407.5,269.9
	L407.5,269.9z M413.1,302.1c0,0.4-0.1,0.8-0.2,1.2c-0.1,0.2-0.2,0.4-0.3,0.5c-0.9,1.4-2.8,1.8-4.2,0.8c-1.4-0.9-1.8-2.8-0.8-4.2
	c0.9-1.4,2.8-1.8,4.2-0.8c0.3,0.2,0.6,0.5,0.8,0.8C413,301,413.1,301.6,413.1,302.1L413.1,302.1z M407.5,331c1-1.4,2.9-1.8,4.3-0.8
	c0.8,0.6,1.3,1.5,1.3,2.5c0,0.6-0.2,1.2-0.5,1.7c-0.9,1.4-2.9,1.8-4.3,0.8S406.6,332.4,407.5,331L407.5,331z M394.8,70L394.8,70
	c1.7,0,3.1,1.4,3.1,3.1c0,1.7-1.4,3.1-3.1,3.1c-1.7,0-3.1-1.4-3.1-3.1c0,0,0,0,0-0.1C391.8,71.3,393.1,70,394.8,70
	C394.8,70,394.8,70,394.8,70L394.8,70z M394.8,161.6L394.8,161.6c1.7,0,3.1,1.4,3.1,3.1s-1.4,3.1-3.1,3.1c-1.7,0-3.1-1.4-3.1-3.1
	c0,0,0,0,0,0C391.7,163,393.1,161.6,394.8,161.6C394.8,161.6,394.8,161.6,394.8,161.6L394.8,161.6z M397.9,195.2
	c0,1.7-1.4,3.1-3.1,3.1s-3.1-1.4-3.1-3.1s1.4-3.1,3.1-3.1l0,0l0,0C396.5,192.2,397.9,193.5,397.9,195.2
	C397.9,195.2,397.9,195.2,397.9,195.2L397.9,195.2z M394.8,222.7L394.8,222.7c1.7,0,3.1,1.4,3.1,3.1c0,1.7-1.4,3.1-3.1,3.1
	c-1.7,0-3.1-1.4-3.1-3.1l0,0C391.8,224.1,393.1,222.7,394.8,222.7L394.8,222.7z M394.8,253.3L394.8,253.3c1.7,0,3.1,1.4,3.1,3.1
	c0,1.7-1.4,3.1-3.1,3.1c-1.7,0-3.1-1.4-3.1-3.1l0,0C391.8,254.7,393.1,253.3,394.8,253.3L394.8,253.3z M397.9,286.9
	c0,1.7-1.4,3.1-3.1,3.1s-3.1-1.4-3.1-3.1s1.4-3.1,3.1-3.1l0,0l0,0C396.5,283.8,397.9,285.2,397.9,286.9
	C397.9,286.9,397.9,286.9,397.9,286.9L397.9,286.9z M394.8,314.4L394.8,314.4c1.7,0,3.1,1.4,3.1,3.1s-1.4,3.1-3.1,3.1
	c-1.7,0-3.1-1.4-3.1-3.1l0,0C391.7,315.8,393.1,314.4,394.8,314.4C394.8,314.4,394.8,314.4,394.8,314.4L394.8,314.4z M394.8,344.9
	L394.8,344.9c1.7,0,3.1,1.4,3.1,3.1s-1.4,3.1-3.1,3.1c-1.7,0-3.1-1.4-3.1-3.1l0,0C391.8,346.3,393.1,345,394.8,344.9L394.8,344.9z
	 M382.6,179.9c0,1.7-1.4,3-3,3c-1.7,0-3-1.4-3-3c0-1.7,1.4-3,3-3c1,0,1.9,0.5,2.5,1.3C382.4,178.8,382.6,179.4,382.6,179.9
	L382.6,179.9z M379.5,85.2L379.5,85.2c1.7,0,3,1.4,3,3.1s-1.4,3-3.1,3c-1.7,0-3-1.4-3-3C376.5,86.6,377.8,85.3,379.5,85.2
	C379.5,85.3,379.5,85.3,379.5,85.2L379.5,85.2z M376.5,118.2c0.3-1.7,1.9-2.8,3.5-2.5c1.2,0.2,2.2,1.2,2.5,2.5
	c0,0.2,0.1,0.4,0.1,0.6c-0.1,1.7-1.5,3-3.2,2.9c-1.6-0.1-2.8-1.3-2.9-2.9C376.5,118.7,376.5,118.5,376.5,118.2L376.5,118.2z
	 M379.5,146.4L379.5,146.4c1.7,0,3.1,1.4,3.1,3.1s-1.4,3.1-3.1,3.1c-1.7,0-3.1-1.4-3.1-3.1c0,0,0,0,0,0
	C376.5,147.7,377.9,146.4,379.5,146.4L379.5,146.4z M379.5,207.5L379.5,207.5c1.7,0,3,1.3,3,3l0,0c0,1.7-1.4,3.1-3.1,3.1
	s-3.1-1.4-3.1-3.1C376.5,208.8,377.8,207.4,379.5,207.5L379.5,207.5L379.5,207.5z M382.6,302.2c0,0.4-0.1,0.8-0.3,1.2
	c-0.7,1.5-2.5,2.3-4,1.6s-2.3-2.5-1.6-4c0.2-0.5,0.6-1,1.1-1.3c1.4-0.9,3.3-0.6,4.2,0.8C382.4,301,382.6,301.6,382.6,302.2z
	 M382.6,241.1c0.1,1.7-1.2,3.1-2.9,3.2s-3.1-1.2-3.2-2.9c0-0.1,0-0.2,0-0.3c0-0.2,0-0.4,0.1-0.6c0.3-1.7,1.9-2.8,3.5-2.5
	c1.2,0.2,2.2,1.2,2.5,2.5C382.6,240.7,382.6,240.9,382.6,241.1L382.6,241.1z M379.5,268.6L379.5,268.6c1.7,0,3,1.4,3,3.1l0,0
	c0,1.7-1.4,3.1-3.1,3.1s-3.1-1.4-3.1-3.1S377.8,268.6,379.5,268.6L379.5,268.6L379.5,268.6z M379.5,329.7L379.5,329.7
	c1.7,0,3,1.3,3,2.9c0,0,0,0.1,0,0.1l0,0c0,1.7-1.4,3.1-3,3.1c-1.7,0-3.1-1.4-3.1-3S377.8,329.7,379.5,329.7
	C379.5,329.7,379.5,329.7,379.5,329.7L379.5,329.7z M364.2,70L364.2,70c1.7,0,3,1.3,3,3l0,0c0,1.7-1.3,3.1-3,3.1s-3.1-1.3-3.1-3
	C361.1,71.4,362.5,70,364.2,70C364.2,70,364.2,70,364.2,70L364.2,70z M364.2,161.7L364.2,161.7c1.7,0,3,1.4,3,3.1l0,0
	c0,1.7-1.4,3.1-3.1,3.1c-1.7,0-3.1-1.4-3.1-3.1C361.2,163,362.5,161.7,364.2,161.7L364.2,161.7L364.2,161.7z M364.2,222.8
	L364.2,222.8c1.7,0,3,1.4,3,3.1l0,0c0,1.7-1.4,3.1-3.1,3.1s-3.1-1.4-3.1-3.1C361.2,224.1,362.5,222.8,364.2,222.8L364.2,222.8
	L364.2,222.8z M364.2,253.3L364.2,253.3c1.7,0,3,1.4,3,3.1l0,0c0,1.7-1.4,3.1-3.1,3.1s-3.1-1.4-3.1-3.1S362.5,253.3,364.2,253.3
	L364.2,253.3L364.2,253.3z M367.3,286.9c0,1.7-1.4,3.1-3.1,3.1s-3.1-1.4-3.1-3.1s1.4-3.1,3.1-3.1l0,0l0,0
	C365.9,283.9,367.3,285.2,367.3,286.9z M364.2,314.4L364.2,314.4c1.7,0,3,1.4,3,3.1l0,0c0,1.7-1.4,3.1-3.1,3.1s-3.1-1.4-3.1-3.1
	C361.2,315.8,362.5,314.4,364.2,314.4L364.2,314.4L364.2,314.4z M364.2,345c1.7,0,3.1,1.4,3.1,3.1l0,0c0,1.7-1.4,3.1-3.1,3.1
	s-3.1-1.4-3.1-3.1C361.2,346.3,362.6,345,364.2,345L364.2,345z M349,85.3L349,85.3c1.7,0,3,1.4,3,3.1c0,1.7-1.4,3-3.1,3
	c-1.7,0-3-1.4-3-3c0-1.7,1.3-3,2.9-3.1C348.9,85.3,349,85.3,349,85.3z M346,118.3c0.3-1.7,1.9-2.8,3.5-2.5c1.2,0.2,2.2,1.2,2.5,2.5
	c0,0.2,0.1,0.4,0.1,0.6c-0.1,1.7-1.5,3-3.2,2.9c-1.6-0.1-2.8-1.3-2.9-2.9C346,118.7,346,118.5,346,118.3L346,118.3z M349,146.4
	L349,146.4c1.7,0,3,1.3,3,2.9c0,0,0,0,0,0.1l0,0c0,1.7-1.3,3.1-3,3.1c-1.7,0-3.1-1.3-3.1-3C345.9,147.8,347.3,146.4,349,146.4
	C349,146.4,349,146.4,349,146.4z M347.3,177.5c1.4-0.9,3.3-0.6,4.2,0.8l0,0c0.1,0.2,0.2,0.3,0.3,0.5c0.7,1.5,0.1,3.4-1.4,4.1
	c-1.5,0.7-3.4,0.1-4.1-1.4c0-0.1-0.1-0.2-0.1-0.3c-0.2-0.4-0.2-0.8-0.2-1.2C345.9,179,346.4,178,347.3,177.5L347.3,177.5z
	 M349,207.5c1.7,0,3,1.3,3,2.9c0,0,0,0,0,0.1l0,0c0,1.7-1.3,3.1-3,3.1c-1.7,0-3.1-1.3-3.1-3C345.9,208.9,347.3,207.5,349,207.5
	C349,207.5,349,207.5,349,207.5L349,207.5z M352,241.1c0.1,1.7-1.2,3.1-2.9,3.2c-1.7,0.1-3.1-1.2-3.2-2.9c0-0.1,0-0.2,0-0.3
	c0-0.2,0-0.4,0.1-0.6c0.3-1.7,1.9-2.8,3.5-2.4c1.2,0.2,2.2,1.2,2.5,2.4C352,240.7,352,240.9,352,241.1z M349,268.6L349,268.6
	c1.7,0,3,1.4,3.1,3c0,0,0,0,0,0l0,0c0,1.7-1.4,3.1-3.1,3.1c-1.7,0-3.1-1.4-3.1-3.1C345.9,269.9,347.3,268.6,349,268.6
	C349,268.6,349,268.6,349,268.6z M352,302.2c0,0.4-0.1,0.8-0.2,1.2c-0.2,0.5-0.6,1-1.1,1.3c-1.4,0.9-3.3,0.6-4.3-0.8
	c-0.9-1.4-0.6-3.3,0.8-4.3s3.3-0.6,4.3,0.8c0,0,0,0,0,0C351.8,301,352,301.6,352,302.2z M349,329.7L349,329.7c1.7,0,3,1.3,3,2.9
	c0,0,0,0.1,0,0.1l0,0c0,1.7-1.4,3.1-3.1,3.1c-1.7,0-3.1-1.4-3.1-3.1S347.3,329.7,349,329.7C349,329.7,349,329.7,349,329.7L349,329.7
	z M333.7,70L333.7,70c1.7,0,3.1,1.4,3.1,3.1c0,1.7-1.4,3.1-3.1,3.1c-1.7,0-3.1-1.4-3.1-3.1c0,0,0,0,0-0.1
	C330.6,71.3,332,70,333.7,70C333.7,70,333.7,70,333.7,70L333.7,70z M333.7,161.7L333.7,161.7c1.7,0,3.1,1.4,3.1,3.1
	s-1.4,3.1-3.1,3.1c-1.7,0-3.1-1.4-3.1-3.1c0,0,0,0,0,0C330.6,163,332,161.7,333.7,161.7C333.7,161.6,333.7,161.6,333.7,161.7
	L333.7,161.7z M336.8,195.3c0,1.7-1.4,3.1-3.1,3.1s-3.1-1.4-3.1-3.1s1.4-3.1,3.1-3.1l0,0l0,0C335.4,192.2,336.8,193.6,336.8,195.3z
	 M333.7,222.8L333.7,222.8c1.7,0,3.1,1.4,3.1,3.1c0,1.7-1.4,3.1-3.1,3.1c-1.7,0-3.1-1.4-3.1-3.1l0,0
	C330.6,224.1,332,222.8,333.7,222.8C333.7,222.8,333.7,222.8,333.7,222.8L333.7,222.8z M333.7,253.3L333.7,253.3
	c1.7,0,3.1,1.4,3.1,3.1c0,1.7-1.4,3.1-3.1,3.1c-1.7,0-3.1-1.4-3.1-3.1l0,0C330.6,254.7,332,253.3,333.7,253.3
	C333.7,253.3,333.7,253.3,333.7,253.3L333.7,253.3z M336.8,286.9c0,1.7-1.4,3.1-3.1,3.1s-3.1-1.4-3.1-3.1s1.4-3.1,3.1-3.1l0,0l0,0
	C335.4,283.9,336.8,285.2,336.8,286.9C336.8,286.9,336.8,286.9,336.8,286.9z M333.7,314.4L333.7,314.4c1.7,0,3.1,1.4,3.1,3.1
	s-1.4,3.1-3.1,3.1c-1.7,0-3.1-1.4-3.1-3.1l0,0C330.6,315.8,332,314.4,333.7,314.4C333.7,314.4,333.7,314.4,333.7,314.4L333.7,314.4z
	 M333.7,345L333.7,345c1.7,0,3.1,1.4,3.1,3.1s-1.4,3.1-3.1,3.1c-1.7,0-3.1-1.4-3.1-3.1l0,0C330.6,346.3,332,345,333.7,345
	C333.7,345,333.7,345,333.7,345L333.7,345z M318.4,85.3L318.4,85.3c1.7,0,3,1.4,3,3.1s-1.4,3-3.1,3c-1.7,0-3-1.4-3-3
	c0-1.7,1.3-3,2.9-3.1C318.4,85.3,318.4,85.3,318.4,85.3L318.4,85.3z M321.4,118.9c0,1.7-1.3,3-3,3l0,0l0,0c-1.7,0-3-1.3-3-2.9
	c0,0,0,0,0-0.1c0-0.2,0-0.4,0.1-0.6c0.3-1.7,1.9-2.8,3.5-2.4c1.2,0.2,2.2,1.2,2.5,2.4C321.5,118.5,321.5,118.7,321.4,118.9
	L321.4,118.9z M318.4,146.4L318.4,146.4c1.7,0,3,1.3,3,3l0,0c0,1.7-1.3,3.1-3,3.1s-3.1-1.3-3.1-3c0-1.7,1.3-3.1,3-3.1
	C318.4,146.4,318.4,146.4,318.4,146.4z M321.4,180c0,1.7-1.3,3-3,3c-1.7,0-3-1.3-3-3c0-1.6,1.3-3,2.9-3
	C320.1,177,321.4,178.3,321.4,180L321.4,180z M318.4,207.5L318.4,207.5c1.7,0,3.1,1.4,3,3.1c0,1.7-1.4,3.1-3.1,3c-1.7,0-3-1.4-3-3.1
	C315.4,208.9,316.7,207.5,318.4,207.5C318.4,207.5,318.4,207.5,318.4,207.5L318.4,207.5z M318.4,268.6L318.4,268.6c1.7,0,3,1.3,3,3
	c0,0,0,0,0,0.1l0,0c0,1.7-1.4,3.1-3.1,3.1c-1.7,0-3.1-1.4-3.1-3.1C315.3,269.9,316.7,268.6,318.4,268.6
	C318.4,268.6,318.4,268.6,318.4,268.6z M321.4,302.2c0.2,1.6-1,3.1-2.7,3.3c-1.4,0.1-2.7-0.7-3.2-2.1c-0.2-0.4-0.2-0.8-0.2-1.2
	c0-1.7,1.4-3,3-3C320.1,299.2,321.4,300.5,321.4,302.2L321.4,302.2L321.4,302.2z M318.4,329.7L318.4,329.7c1.7,0,3,1.3,3,3
	c0,0,0,0,0,0.1l0,0c0,1.7-1.4,3.1-3.1,3.1c-1.7,0-3.1-1.4-3.1-3.1C315.3,331,316.7,329.7,318.4,329.7
	C318.4,329.7,318.4,329.7,318.4,329.7L318.4,329.7z M303.1,222.8L303.1,222.8c1.7,0,3.1,1.4,3.1,3.1c0,1.7-1.4,3.1-3.1,3.1
	c-1.7,0-3.1-1.4-3.1-3.1l0,0C300.1,224.1,301.4,222.8,303.1,222.8C303.1,222.7,303.1,222.7,303.1,222.8L303.1,222.8z M300.1,195.3
	c0-1.7,1.4-3.1,3-3.1l0,0c1.7,0,3,1.4,3,3.1l0,0c-0.1,1.7-1.5,3-3.2,2.9C301.4,198.1,300.2,196.8,300.1,195.3L300.1,195.3z
	 M303.1,131.1L303.1,131.1c1.7,0,3.1,1.4,3.1,3.1c0,1.7-1.4,3.1-3.1,3.1c-1.7,0-3.1-1.4-3.1-3.1c0,0,0,0,0-0.1
	C300.1,132.4,301.5,131.1,303.1,131.1L303.1,131.1z M300.1,103.6c0-1.7,1.4-3,3.1-3l0,0c1.7,0,3.1,1.4,3.1,3.1s-1.4,3.1-3.1,3.1
	C301.5,106.7,300.1,105.3,300.1,103.6C300.1,103.6,300.1,103.6,300.1,103.6z M303.1,70L303.1,70c1.7,0,3,1.3,3,3l0,0
	c0,1.7-1.3,3.1-3,3.1c-1.7,0-3.1-1.3-3.1-3C300,71.4,301.4,70,303.1,70C303.1,70,303.1,70,303.1,70L303.1,70z M303.1,161.6
	L303.1,161.6c1.7,0,3,1.4,3,3.1l0,0c0,1.7-1.4,3.1-3.1,3.1c-1.7,0-3.1-1.4-3.1-3.1S301.4,161.6,303.1,161.6L303.1,161.6L303.1,161.6
	z M303.1,253.3L303.1,253.3c1.7,0,3,1.4,3,3.1l0,0c0,1.7-1.4,3.1-3.1,3.1s-3.1-1.4-3.1-3.1S301.4,253.3,303.1,253.3L303.1,253.3
	L303.1,253.3z M306.2,286.9c0,1.7-1.4,3.1-3.1,3.1s-3.1-1.4-3.1-3.1s1.4-3.1,3.1-3.1l0,0l0,0C304.8,283.8,306.2,285.2,306.2,286.9
	C306.2,286.9,306.2,286.9,306.2,286.9L306.2,286.9z M303.1,314.4L303.1,314.4c1.7,0,3,1.4,3,3.1l0,0c0,1.7-1.4,3.1-3.1,3.1
	s-3.1-1.4-3.1-3.1C300.1,315.8,301.4,314.4,303.1,314.4L303.1,314.4L303.1,314.4z M303.1,344.9c1.7,0,3.1,1.4,3.1,3.1l0,0
	c0,1.7-1.4,3.1-3.1,3.1s-3.1-1.4-3.1-3.1C300.1,346.3,301.5,344.9,303.1,344.9L303.1,344.9z M288.5,121.9c-0.2,0-0.4,0.1-0.6,0.1
	l0,0c-1.7,0-3-1.3-3.1-3c0-0.2,0-0.4,0.1-0.6c0.3-1.4,1.5-2.4,3-2.4c0.2,0,0.4,0,0.6,0.1c1.2,0.3,2.1,1.2,2.4,2.4
	c0,0.2,0.1,0.4,0.1,0.6C290.9,120.4,289.9,121.6,288.5,121.9z M286.7,85.5c0.4-0.2,0.8-0.2,1.2-0.2c0.2,0,0.4,0,0.6,0.1l0,0
	c1.7,0.3,2.8,1.9,2.5,3.6c-0.2,1.2-1.2,2.2-2.5,2.4c-0.2,0-0.4,0.1-0.6,0.1c-0.4,0-0.8-0.1-1.2-0.2c-1.6-0.6-2.3-2.3-1.8-3.9
	C285.2,86.5,285.9,85.8,286.7,85.5L286.7,85.5z M272.6,70L272.6,70c1.7,0,3.1,1.4,3.1,3.1c0,1.7-1.4,3.1-3.1,3.1
	c-1.7,0-3.1-1.4-3.1-3.1c0,0,0,0,0-0.1C269.5,71.3,270.9,70,272.6,70C272.6,70,272.6,70,272.6,70L272.6,70z M272.6,161.7
	L272.6,161.7c1.7,0,3.1,1.4,3.1,3.1s-1.4,3.1-3.1,3.1c-1.7,0-3.1-1.4-3.1-3.1c0,0,0,0,0,0C269.5,163,270.9,161.7,272.6,161.7
	C272.6,161.6,272.6,161.6,272.6,161.7L272.6,161.7z M275.7,195.3c0,1.7-1.4,3.1-3.1,3.1s-3.1-1.4-3.1-3.1s1.4-3.1,3.1-3.1l0,0l0,0
	C274.3,192.2,275.7,193.6,275.7,195.3C275.7,195.3,275.7,195.3,275.7,195.3L275.7,195.3z M272.6,222.8L272.6,222.8
	c1.7,0,3.1,1.4,3.1,3.1c0,1.7-1.4,3.1-3.1,3.1c-1.7,0-3.1-1.4-3.1-3.1l0,0C269.5,224.1,270.9,222.8,272.6,222.8
	C272.6,222.8,272.6,222.8,272.6,222.8L272.6,222.8z M272.6,253.3L272.6,253.3c1.7,0,3.1,1.4,3.1,3.1c0,1.7-1.4,3.1-3.1,3.1
	c-1.7,0-3.1-1.4-3.1-3.1l0,0C269.5,254.7,270.9,253.3,272.6,253.3C272.6,253.3,272.6,253.3,272.6,253.3L272.6,253.3z M275.7,286.9
	c0,1.7-1.4,3.1-3.1,3.1s-3.1-1.4-3.1-3.1s1.4-3.1,3.1-3.1l0,0l0,0C274.3,283.9,275.7,285.2,275.7,286.9
	C275.7,286.9,275.7,286.9,275.7,286.9L275.7,286.9z M272.6,314.4L272.6,314.4c1.7,0,3.1,1.4,3.1,3.1s-1.4,3.1-3.1,3.1
	c-1.7,0-3.1-1.4-3.1-3.1l0,0C269.5,315.8,270.9,314.4,272.6,314.4C272.6,314.4,272.6,314.4,272.6,314.4L272.6,314.4z M257.3,121.9
	c-1.7,0-3-1.3-3-2.9c0,0,0,0,0-0.1c0-0.2,0-0.4,0-0.6c0.3-1.7,1.9-2.7,3.6-2.4c1.2,0.2,2.2,1.2,2.4,2.4c0,0.2,0.1,0.4,0.1,0.6
	C260.4,120.6,259,121.9,257.3,121.9C257.4,121.9,257.4,121.9,257.3,121.9z M257.3,85.3L257.3,85.3c1.7,0,3,1.4,3,3.1s-1.4,3-3.1,3
	c-1.7,0-3-1.4-3-3c0-1.7,1.3-3,2.9-3.1C257.3,85.3,257.3,85.3,257.3,85.3L257.3,85.3z M257.3,146.4L257.3,146.4c1.7,0,3,1.3,3,2.9
	c0,0,0,0,0,0.1l0,0c0,1.7-1.3,3.1-3,3.1s-3.1-1.3-3.1-3C254.2,147.8,255.6,146.4,257.3,146.4C257.3,146.4,257.3,146.4,257.3,146.4z
	 M260.4,241.1c0,1.7-1.4,3-3,3c-1.7,0-3.1-1.4-3.1-3l0,0c0-0.2,0-0.4,0-0.6c0.3-1.7,1.9-2.7,3.6-2.4c1.2,0.2,2.2,1.2,2.4,2.4
	C260.4,240.7,260.4,240.9,260.4,241.1z M260.4,180c0,1.7-1.3,3.1-3,3.1c-1.2,0-2.4-0.7-2.8-1.9c-0.2-0.4-0.2-0.8-0.2-1.2
	c0-1.7,1.4-3.1,3.1-3.1C259,176.9,260.4,178.3,260.4,180L260.4,180z M257.3,207.5L257.3,207.5c1.7,0,3,1.3,3,2.9c0,0,0,0,0,0.1l0,0
	c0,1.7-1.4,3.1-3.1,3.1c-1.7,0-3.1-1.4-3.1-3.1C254.3,208.8,255.6,207.4,257.3,207.5C257.3,207.4,257.3,207.4,257.3,207.5
	L257.3,207.5z M257.3,268.6L257.3,268.6c1.7,0,3,1.3,3,3c0,0,0,0,0,0.1l0,0c0,1.7-1.4,3.1-3.1,3.1c-1.7,0-3.1-1.4-3.1-3.1
	C254.2,269.9,255.6,268.6,257.3,268.6C257.3,268.6,257.3,268.6,257.3,268.6L257.3,268.6z M242,222.8L242,222.8c1.7,0,3,1.4,3,3.1
	l0,0c0,1.7-1.4,3.1-3.1,3.1s-3.1-1.4-3.1-3.1C238.9,224.1,240.3,222.8,242,222.8L242,222.8L242,222.8z M242,253.3L242,253.3
	c1.7,0,3,1.4,3,3.1l0,0c0,1.7-1.4,3.1-3.1,3.1s-3.1-1.4-3.1-3.1S240.3,253.3,242,253.3L242,253.3L242,253.3z M223.7,240.5
	c0.3-1.7,1.9-2.7,3.6-2.4c1.2,0.2,2.2,1.2,2.4,2.4c0,0.2,0.1,0.4,0.1,0.6c0.1,1.7-1.2,3.1-2.9,3.2c-1.7,0.1-3.1-1.2-3.2-2.9
	c0-0.1,0-0.2,0-0.3C223.7,240.9,223.7,240.7,223.7,240.5L223.7,240.5z M224.2,269.9c0.9-1.4,2.8-1.8,4.2-0.8
	c1.4,0.9,1.8,2.8,0.8,4.2c-0.6,0.8-1.5,1.3-2.5,1.3c-0.9,0-1.7-0.4-2.2-1c-0.3-0.7-0.6-1.4-0.8-2.1
	C223.7,271,223.9,270.4,224.2,269.9L224.2,269.9z"/>
<path class="st1" d="M411.7,60.4c3.9,7.6,8.4,15,13.4,22c15.2,21.5,35.2,39.2,58.3,51.7c0-1.7,1.3-3,3-3l0,0c1.6-0.2,3.1,1,3.3,2.7
	c0.1,1.1-0.4,2.2-1.4,2.8c12.7,6.4,26.3,11,40.3,13.6l0.8,0.1c-0.6-1.5,0.1-3.3,1.7-3.9c1-0.4,2.1-0.2,3,0.4c1.4,1,1.8,2.8,0.8,4.3
	l-0.1,0.1c17.9,2.8,36.3,3.7,53,10.8c28.7,12.3,47,40.8,73.5,57.1c38.2,23.6,96.6,13.9,117-26.1c11.2-21.9,9.9-47.9,8.3-72.5
	c-1.4-21.3-2.8-42.7-4.2-64h-3.3c-1.5,1.2-3,2.3-4.5,3.4c-0.3-0.3-0.6-0.7-0.7-1c-0.2-0.4-0.2-0.8-0.2-1.2c0-0.4,0.1-0.8,0.2-1.2
	h-25c0.5,1.6-0.4,3.3-2,3.8s-3.3-0.4-3.8-2c-0.1-0.2-0.1-0.4-0.1-0.6c0-0.4,0.1-0.8,0.3-1.2h-25c0.7,1.6-0.1,3.3-1.6,4
	s-3.3-0.1-4-1.6l0,0c-0.2-0.4-0.2-0.8-0.2-1.2c0-0.4,0.1-0.8,0.3-1.2h-25c0.7,1.5,0,3.3-1.5,4c0,0-0.1,0-0.1,0
	c-1.6,0.7-3.3-0.1-4-1.6c-0.1-0.4-0.1-0.8-0.1-1.2c0-0.4,0.1-0.8,0.3-1.2h-25c0.7,1.6-0.1,3.3-1.6,4s-3.3-0.1-4-1.6l0,0
	c-0.2-0.4-0.2-0.8-0.2-1.2c0-0.4,0.1-0.8,0.3-1.2h-24.9c0.7,1.6-0.1,3.3-1.6,4s-3.3-0.1-4-1.6l0,0c-0.2-0.4-0.2-0.8-0.2-1.2
	c0-0.4,0.1-0.8,0.3-1.2h-25c0.1,0.2,0.1,0.4,0.2,0.6c0.4,1.6-0.6,3.2-2.3,3.6c0,0,0,0,0,0c-0.2,0-0.4,0.1-0.6,0.1
	c-1.7,0-3-1.3-3.1-2.9c0-0.5,0.1-0.9,0.3-1.3h-25c0.8,1.5,0.3,3.3-1.1,4.2c-1.5,0.8-3.3,0.3-4.2-1.1c-0.1-0.2-0.2-0.4-0.3-0.7
	c-0.2-0.4-0.2-0.8-0.2-1.2c0-0.4,0.1-0.8,0.2-1.2h-25c0.2,0.4,0.2,0.8,0.3,1.2c0,0.4-0.1,0.8-0.2,1.2c-0.1,0.2-0.2,0.4-0.3,0.5
	c-1,1.3-3,1.6-4.3,0.5c-1-0.8-1.4-2.2-1-3.4h-24.9c0.7,1.6-0.1,3.3-1.6,4s-3.3-0.1-4-1.6l0,0c-0.2-0.4-0.2-0.8-0.2-1.2
	c0-0.4,0.1-0.8,0.3-1.2H474c0.2,0.4,0.2,0.8,0.2,1.2c0,0.4-0.1,0.8-0.2,1.2c-0.2,0.5-0.6,1-1.1,1.3c-1.4,0.9-3.3,0.6-4.3-0.8
	c-0.6-0.9-0.7-2-0.3-2.9h-25c0.2,0.4,0.2,0.8,0.3,1.2c0,1.7-1.4,3.1-3.1,3c-1,0-2-0.5-2.5-1.3c-0.6-0.9-0.7-2-0.3-2.9h-25
	C413.5,58,413,59.6,411.7,60.4z M605.6,134.2c0-1.7,1.4-3.1,3.1-3.1l0,0c1.7,0,3.1,1.4,3,3.1c0,1.7-1.4,3.1-3.1,3
	C607,137.2,605.6,135.8,605.6,134.2L605.6,134.2z M636.1,103.6c0-1.7,1.4-3.1,3.1-3.1s3.1,1.4,3.1,3.1c0,1.7-1.4,3.1-3.1,3.1l0,0
	C637.5,106.6,636.1,105.3,636.1,103.6z M669.8,106.6c-1.7-0.1-3-1.5-2.9-3.2c0.1-1.6,1.3-2.8,2.9-2.9l0,0c1.7,0,3,1.4,3,3.1
	c0,1-0.5,1.9-1.3,2.5l-0.7,0.3C670.5,106.6,670.1,106.6,669.8,106.6L669.8,106.6z M651.8,117.4c0.4-0.7,1.2-1.3,2-1.5h0.3
	L651.8,117.4z M730.8,70L730.8,70c1.6,0,3,1.4,3,3l0,0c0,1.7-1.3,3.1-3,3.1c-1.7,0-3.1-1.3-3.1-3s1.3-3.1,3-3.1
	C730.7,70,730.8,70,730.8,70L730.8,70z M714.4,85.5c1-0.4,2-0.3,2.9,0.3c0.3,0.2,0.6,0.5,0.8,0.8c0.1,0.2,0.2,0.3,0.3,0.5l-5.7,2.1
	C712.2,87.7,713,86.1,714.4,85.5z M700.3,70L700.3,70c1.7,0,3,1.3,3,2.9c0,0,0,0,0,0.1l0,0c0,1.7-1.3,3.1-3,3.1
	c-1.7,0-3.1-1.3-3.1-3S698.6,70,700.3,70C700.3,70,700.3,70,700.3,70z M685,85.3L685,85.3c1.7,0,3.1,1.3,3.1,3c0,1.7-1.3,3.1-3,3.1
	c-1.7,0-3.1-1.3-3.1-3c0,0,0,0,0,0C682,86.7,683.3,85.3,685,85.3C685,85.3,685,85.3,685,85.3z M669.8,70L669.8,70
	c1.7,0,3.1,1.4,3,3.1s-1.4,3.1-3.1,3c-1.7,0-3.1-1.4-3-3.1c0,0,0,0,0,0C666.7,71.3,668,70,669.8,70C669.7,70,669.7,70,669.8,70
	L669.8,70z M651.9,86.6c0.9-1.4,2.8-1.8,4.2-0.9c0,0,0.1,0,0.1,0.1l0,0c1.4,0.9,1.8,2.7,0.9,4.1c-0.2,0.4-0.5,0.7-0.9,0.9
	c-0.5,0.3-1.1,0.5-1.7,0.5c-1.7,0-3.1-1.4-3-3.1C651.4,87.7,651.6,87.1,651.9,86.6z M639.2,70c1.7,0,3,1.3,3,3l0,0
	c0,1.7-1.3,3.1-3,3.1c-1.7,0-3.1-1.3-3.1-3c0-1.7,1.3-3.1,3-3.1C639.1,70,639.2,70,639.2,70z M627,118.9c-0.1,1.7-1.5,3-3.2,2.9
	c-1.6-0.1-2.8-1.3-2.9-2.9c0-0.2,0-0.4,0.1-0.6c0.3-1.7,1.9-2.7,3.6-2.4c1.2,0.2,2.2,1.2,2.4,2.4C627,118.5,627,118.7,627,118.9
	L627,118.9z M623.9,85.3L623.9,85.3c1.7,0,3,1.3,3.1,2.9c0,0,0,0.1,0,0.1l0,0c0,1.7-1.4,3.1-3,3.1s-3.1-1.4-3.1-3
	C620.9,86.7,622.3,85.3,623.9,85.3C624,85.3,624,85.3,623.9,85.3L623.9,85.3z M608.7,106.7c-1.7,0-3.1-1.4-3.1-3.1
	c0-1.7,1.4-3.1,3.1-3.1c1.7,0,3.1,1.4,3.1,3.1c0,0,0,0,0,0.1C611.7,105.3,610.4,106.7,608.7,106.7
	C608.7,106.7,608.7,106.7,608.7,106.7z M608.7,70L608.7,70c1.7,0,3.1,1.4,3,3.1s-1.4,3.1-3.1,3c-1.7,0-3.1-1.4-3-3.1c0,0,0,0,0,0
	C605.6,71.3,606.9,70,608.7,70C608.6,70,608.6,70,608.7,70L608.7,70z M594,152.4c-0.2,0-0.4,0.1-0.6,0.1c-1.7-0.1-3-1.5-2.9-3.2
	c0.1-1.6,1.3-2.8,2.9-2.9c0.2,0,0.4,0,0.6,0.1c1.7,0.3,2.7,1.9,2.4,3.6C596.2,151.3,595.2,152.2,594,152.4L594,152.4z M594,121.9
	c-0.2,0-0.4,0.1-0.6,0.1c-0.4,0-0.8-0.1-1.2-0.2c-1.1-0.5-1.9-1.6-1.9-2.8c0-1.2,0.7-2.3,1.9-2.8c0.4-0.1,0.8-0.2,1.2-0.2
	c0.2,0,0.4,0,0.6,0.1c1.2,0.2,2.1,1.2,2.4,2.4c0,0.2,0.1,0.4,0.1,0.6C596.5,120.3,595.4,121.6,594,121.9z M593.4,85.3
	c0.2,0,0.4,0,0.6,0.1c1.7,0.3,2.8,1.9,2.5,3.6c-0.2,1.2-1.2,2.2-2.5,2.4c-0.2,0.1-0.4,0.1-0.6,0.1c-0.4,0-0.8-0.1-1.2-0.2l0,0
	c-1.6-0.7-2.3-2.5-1.6-4C591.1,86,592.2,85.3,593.4,85.3L593.4,85.3z M547.6,137.2c-1.7,0.1-3.1-1.2-3.2-2.9
	c-0.1-1.7,1.2-3.1,2.9-3.2c0.1,0,0.2,0,0.3,0l0,0c1.7,0.1,3,1.5,2.9,3.2C550.4,135.9,549.1,137.1,547.6,137.2z M547.6,106.7
	c-1.7,0.1-3.1-1.2-3.2-2.9c-0.1-1.7,1.2-3.1,2.9-3.2c0.1,0,0.2,0,0.3,0l0,0c1.7,0.1,3,1.5,2.9,3.2
	C550.4,105.3,549.1,106.6,547.6,106.7z M562.8,152.5c-1.7-0.1-3-1.5-2.9-3.2c0.1-1.6,1.3-2.8,2.9-2.9l0,0c1.7,0.1,3,1.5,2.9,3.2
	C565.6,151.2,564.4,152.4,562.8,152.5z M578.1,137.2c-1.7,0-3.1-1.3-3.1-3c0-1.7,1.3-3.1,3-3.1c1.7,0,3.1,1.3,3.1,3c0,0,0,0.1,0,0.1
	C581.1,135.9,579.8,137.2,578.1,137.2z M578.1,106.7c-1.7,0-3.1-1.3-3.1-3c0-1.7,1.3-3.1,3-3.1c1.7,0,3.1,1.3,3.1,3c0,0,0,0.1,0,0.1
	C581.1,105.3,579.8,106.6,578.1,106.7z M578.1,70c1.7,0,3,1.3,3,3l0,0c0,1.7-1.3,3.1-3,3.1c-1.7,0-3.1-1.3-3.1-3
	c0-1.7,1.3-3.1,3-3.1C578,70,578.1,70,578.1,70z M562.8,85.3L562.8,85.3c1.7,0,3,1.4,3,3.1c0,1.7-1.4,3-3.1,3c-1.7,0-3-1.4-3-3
	c0-1.7,1.3-3,2.9-3.1C562.8,85.3,562.8,85.3,562.8,85.3L562.8,85.3z M559.8,118.3c0.3-1.7,1.9-2.7,3.6-2.4c1.2,0.2,2.2,1.2,2.4,2.4
	c0,0.2,0.1,0.4,0.1,0.6l0,0c-0.1,1.7-1.5,3-3.2,2.9c-1.6-0.1-2.8-1.3-2.9-2.9C559.8,118.7,559.8,118.5,559.8,118.3L559.8,118.3z
	 M547.5,70L547.5,70c1.7,0,3.1,1.4,3,3.1s-1.4,3.1-3.1,3c-1.7,0-3.1-1.4-3-3.1c0,0,0,0,0,0C544.5,71.3,545.8,70,547.5,70
	C547.5,70,547.5,70,547.5,70L547.5,70z M532.3,85.3c0.6,0,1.2,0.2,1.7,0.5c1.4,0.9,1.8,2.8,0.8,4.2c-0.9,1.4-2.8,1.8-4.2,0.8
	c-1.4-0.9-1.8-2.8-0.8-4.2C530.3,85.8,531.3,85.3,532.3,85.3z M529.3,118.3c0.3-1.7,1.9-2.8,3.5-2.5c1.2,0.2,2.2,1.2,2.5,2.5
	c0,0.2,0.1,0.4,0.1,0.6c-0.1,1.7-1.5,3-3.2,2.9c-1.6-0.1-2.8-1.3-2.9-2.9C529.2,118.7,529.2,118.5,529.3,118.3L529.3,118.3z
	 M486.4,106.7c-1.7-0.1-3-1.5-2.9-3.2c0.1-1.6,1.3-2.8,2.9-2.9l0,0c1.7,0.1,3,1.5,2.9,3.2C489.2,105.4,488,106.6,486.4,106.7z
	 M517,137.2c-1.7,0.1-3.1-1.2-3.2-2.9c-0.1-1.7,1.2-3.1,2.9-3.2c0.1,0,0.2,0,0.3,0l0,0c1.7,0.1,3,1.5,2.9,3.2
	C519.8,135.9,518.6,137.1,517,137.2z M517,106.7c-1.7,0.2-3.2-1-3.4-2.7c-0.2-1.7,1-3.2,2.7-3.4c0.2,0,0.5,0,0.7,0l0,0
	c1.7,0.1,3,1.5,2.9,3.2C519.8,105.4,518.6,106.6,517,106.7L517,106.7z M517,70L517,70c1.7,0,3,1.3,3,3l0,0c0,1.7-1.3,3.1-3,3.1
	c-1.7,0-3.1-1.3-3.1-3c0-1.7,1.3-3.1,3-3.1C516.9,70,517,70,517,70z M501.7,85.3L501.7,85.3c1.7,0,3,1.4,3,3.1c0,1.7-1.4,3-3.1,3
	c-1.7,0-3-1.4-3-3c0-1.7,1.3-3,2.9-3.1C501.7,85.3,501.7,85.3,501.7,85.3L501.7,85.3z M498.7,118.3c0.3-1.7,1.9-2.8,3.5-2.5
	c1.2,0.2,2.2,1.2,2.5,2.5c0,0.2,0.1,0.4,0.1,0.6c-0.1,1.7-1.5,3-3.2,2.9c-1.6-0.1-2.8-1.3-2.9-2.9
	C498.7,118.7,498.7,118.5,498.7,118.3L498.7,118.3z M486.5,70L486.5,70c1.7,0,3.1,1.4,3,3.1c0,1.7-1.4,3.1-3.1,3
	c-1.7,0-3.1-1.4-3-3.1c0,0,0,0,0,0C483.4,71.3,484.8,70,486.5,70L486.5,70z M471.2,85.3c1.7,0,3.1,1.4,3.1,3l0,0
	c0,1.7-1.4,3.1-3,3.1s-3.1-1.4-3.1-3C468.1,86.7,469.5,85.3,471.2,85.3C471.2,85.3,471.2,85.3,471.2,85.3z M468.2,118.3
	c0.3-1.7,1.9-2.7,3.6-2.4c1.2,0.2,2.2,1.2,2.4,2.4c0,0.2,0.1,0.4,0.1,0.6c-0.1,1.7-1.5,3-3.2,2.9c-1.6-0.1-2.8-1.3-2.9-2.9
	C468.1,118.7,468.1,118.5,468.2,118.3L468.2,118.3z M455.9,106.7c-1.7-0.1-3-1.5-2.9-3.2c0.1-1.6,1.3-2.8,2.9-2.9l0,0
	c1.7,0.1,3,1.5,2.9,3.2C458.7,105.4,457.5,106.6,455.9,106.7z M455.9,70L455.9,70c1.7,0,3.1,1.4,3.1,3.1c0,1.7-1.4,3.1-3.1,3.1
	c-1.7,0-3.1-1.4-3.1-3.1c0,0,0,0,0-0.1C452.8,71.4,454.2,70,455.9,70C455.9,70,455.9,70,455.9,70L455.9,70z M440.6,85.3L440.6,85.3
	c1.7,0,3,1.4,3,3.1c0,1.7-1.4,3-3.1,3c-1.7,0-3-1.4-3-3c0-1.7,1.3-3,2.9-3.1C440.6,85.3,440.6,85.3,440.6,85.3L440.6,85.3z
	 M425.3,70L425.3,70c1.7,0,3.1,1.4,3,3.1c0,1.7-1.4,3.1-3.1,3c-1.7,0-3.1-1.4-3-3.1c0,0,0,0,0,0C422.3,71.3,423.6,70,425.3,70
	C425.3,70,425.3,70,425.3,70L425.3,70z"/>
<path class="st2" d="M1585.8,86.9c-19.5-1.2-38.7-6.8-57.9-10.9c-28.3,30.3-47.2,70.1-54.9,111.2c-11.6,61.5-101.1,133.3-83,197.9
	c2.3,8.3,5.5,16.4,9.4,24.1c81.2,156.5,457.5,10.9,461.5-145.6c1.6-64.1-19.8-135.4-65.6-181.7c-9.4-9.4-19.7-17.9-30.8-25.3h-91.3
	C1648.9,76.9,1617.5,88.8,1585.8,86.9z"/>
<path class="st3" d="M773.9,59c0.2,0.4,0.4,0.8,0.7,1c1.5-1.1,3-2.3,4.5-3.4h-5.2c-0.2,0.4-0.2,0.8-0.2,1.2
	C773.6,58.2,773.7,58.6,773.9,59z"/>
<path class="st3" d="M743.3,59c0.6,1.5,2.4,2.3,3.9,1.7c0,0,0.1,0,0.1,0c1.5-0.6,2.3-2.4,1.6-3.9c0,0,0-0.1,0-0.1h-5.6
	c-0.2,0.4-0.3,0.8-0.3,1.2C743.1,58.2,743.2,58.6,743.3,59z"/>
<path class="st3" d="M712.8,59c0.7,1.6,2.4,2.3,4,1.6s2.3-2.4,1.6-4c0,0,0,0,0,0h-5.6c-0.2,0.4-0.2,0.8-0.3,1.2
	C712.5,58.2,712.6,58.6,712.8,59z"/>
<path class="st3" d="M730.9,76.1c1.7,0,3.1-1.4,3.1-3.1l0,0c0-1.6-1.4-3-3-3l0,0c-1.7-0.1-3.1,1.2-3.2,2.9c-0.1,1.7,1.2,3.1,2.9,3.2
	C730.7,76.2,730.8,76.2,730.9,76.1L730.9,76.1z"/>
<path class="st3" d="M718.4,87.1c-0.1-0.2-0.2-0.3-0.3-0.5c-0.2-0.3-0.5-0.6-0.8-0.8c-1.3-1-3.2-0.7-4.2,0.6
	c-0.6,0.8-0.7,1.8-0.4,2.8L718.4,87.1z"/>
<path class="st3" d="M682.2,59c0.7,1.6,2.4,2.3,4,1.6c1.5-0.6,2.3-2.4,1.6-3.9c0,0,0-0.1,0-0.1h-5.6c-0.2,0.4-0.2,0.8-0.2,1.2
	C682,58.2,682.1,58.6,682.2,59z"/>
<path class="st3" d="M651.7,59c0.7,1.6,2.4,2.3,4,1.6s2.3-2.4,1.6-4c0,0,0,0,0,0h-5.6c-0.2,0.4-0.2,0.8-0.3,1.2
	C651.4,58.2,651.5,58.6,651.7,59z"/>
<path class="st3" d="M685,91.4c1.7,0,3-1.4,3-3s-1.4-3.1-3-3.1l0,0c-1.7,0-3,1.4-3,3.1S683.3,91.4,685,91.4z"/>
<path class="st3" d="M672.8,103.6c0-1.7-1.3-3-2.9-3.1c0,0,0,0-0.1,0l0,0c-1.7-0.1-3.1,1.3-3.2,2.9c-0.1,1.7,1.3,3.1,2.9,3.2
	c0.4,0,0.8-0.1,1.2-0.2l0.7-0.3C672.3,105.5,672.8,104.6,672.8,103.6z"/>
<path class="st3" d="M669.8,76.1c1.7-0.1,3-1.5,2.9-3.2c-0.1-1.6-1.3-2.8-2.9-2.9l0,0c-1.7-0.1-3.1,1.2-3.2,2.9
	c-0.1,1.7,1.2,3.1,2.9,3.2C669.5,76.1,669.6,76.1,669.8,76.1z"/>
<path class="st3" d="M700.3,76.1c1.7,0,3-1.4,3-3.1l0,0c0-1.7-1.3-3-3-3c0,0,0,0-0.1,0l0,0c-1.7-0.1-3.1,1.2-3.2,2.9
	c-0.1,1.7,1.2,3.1,2.9,3.2C700.1,76.2,700.2,76.2,700.3,76.1L700.3,76.1z"/>
<path class="st3" d="M651.8,117.4l2.4-1.5h-0.3C653,116,652.3,116.6,651.8,117.4z"/>
<path class="st3" d="M654.5,91.4c0.6,0,1.2-0.2,1.7-0.5c1.4-0.9,1.8-2.7,0.9-4.1c-0.2-0.4-0.5-0.7-0.9-0.9l0,0
	c-1.4-0.9-3.3-0.6-4.2,0.8c-0.9,1.4-0.6,3.3,0.8,4.2C653.3,91.2,653.9,91.4,654.5,91.4z"/>
<path class="st3" d="M621.1,59c0.7,1.6,2.4,2.3,4,1.6s2.3-2.4,1.6-4c0,0,0,0,0,0h-5.6c-0.2,0.4-0.3,0.8-0.3,1.2
	C620.9,58.2,621,58.6,621.1,59z"/>
<path class="st3" d="M590.6,59c0.5,1.1,1.6,1.9,2.8,1.9c0.2,0,0.4,0,0.6-0.1c1.6-0.3,2.7-1.9,2.4-3.5c0,0,0-0.1,0-0.1
	c0-0.2-0.1-0.4-0.2-0.6h-5.6C590.3,57.3,590.3,58.2,590.6,59z"/>
<path class="st3" d="M623.9,115.8c-1.5,0-2.7,1-3,2.4c0,0.2-0.1,0.4-0.1,0.6c0.1,1.7,1.5,3,3.2,2.9c1.6-0.1,2.8-1.3,2.9-2.9l0,0
	c0-0.2,0-0.4-0.1-0.6C626.6,116.8,625.4,115.8,623.9,115.8z"/>
<path class="st3" d="M623.9,91.4c1.7,0,3-1.3,3.1-2.9c0,0,0,0,0-0.1l0,0c0-1.7-1.3-3-2.9-3c0,0-0.1,0-0.1,0l0,0
	c-1.7,0-3.1,1.4-3.1,3S622.3,91.4,623.9,91.4C623.9,91.4,623.9,91.4,623.9,91.4L623.9,91.4z"/>
<path class="st3" d="M608.7,100.6c-1.7,0-3.1,1.4-3.1,3.1c0,1.7,1.4,3.1,3.1,3.1c1.7,0,3.1-1.4,3.1-3.1c0,0,0,0,0-0.1
	C611.7,101.9,610.3,100.6,608.7,100.6z"/>
<path class="st3" d="M642.3,103.6c0-1.7-1.3-3.1-3-3.1c-1.7,0-3.1,1.3-3.1,3c0,1.7,1.3,3.1,3,3.1c0,0,0.1,0,0.1,0
	C640.9,106.6,642.2,105.2,642.3,103.6z"/>
<path class="st3" d="M608.7,76.1c1.7-0.1,3-1.5,2.9-3.2c-0.1-1.6-1.3-2.8-2.9-2.9l0,0c-1.7-0.1-3.1,1.2-3.2,2.9
	c-0.1,1.7,1.2,3.1,2.9,3.2C608.4,76.1,608.5,76.1,608.7,76.1z"/>
<path class="st3" d="M639.2,76.1c1.7,0,3-1.4,3-3.1l0,0c0-1.7-1.4-3.1-3.1-3.1c-1.7,0-3.1,1.4-3.1,3.1S637.5,76.1,639.2,76.1
	C639.2,76.1,639.2,76.1,639.2,76.1z"/>
<path class="st3" d="M611.7,134.2c0-1.7-1.3-3-2.9-3.1c0,0,0,0-0.1,0l0,0c-1.7,0-3.1,1.4-3.1,3c0,1.7,1.4,3.1,3,3.1
	C610.4,137.2,611.8,135.9,611.7,134.2C611.8,134.2,611.8,134.2,611.7,134.2L611.7,134.2z"/>
<path class="st3" d="M594,146.4c-0.2,0-0.4-0.1-0.6-0.1c-1.7,0.1-3,1.5-2.9,3.2c0.1,1.6,1.3,2.8,2.9,2.9c0.2,0,0.4,0,0.6-0.1
	c1.7-0.3,2.7-1.9,2.4-3.6C596.2,147.6,595.2,146.7,594,146.4L594,146.4z"/>
<path class="st3" d="M560,59c0.7,1.6,2.4,2.3,4,1.6s2.3-2.4,1.6-4c0,0,0,0,0,0H560c-0.2,0.4-0.3,0.8-0.3,1.2
	C559.8,58.2,559.9,58.6,560,59z"/>
<path class="st3" d="M530.6,60.3c1.4,0.9,3.3,0.6,4.3-0.8c0.1-0.2,0.2-0.3,0.3-0.5c0.2-0.4,0.2-0.8,0.2-1.2c0-0.4-0.1-0.8-0.3-1.2
	h-5.6C528.9,57.9,529.4,59.5,530.6,60.3z"/>
<path class="st3" d="M562.8,121.9c1.7,0,3-1.3,3.1-3l0,0c0-0.2,0-0.4-0.1-0.6c-0.3-1.7-1.9-2.7-3.6-2.4c-1.2,0.2-2.2,1.2-2.4,2.4
	c0,0.2-0.1,0.4-0.1,0.6C559.8,120.6,561.2,121.9,562.8,121.9z"/>
<path class="st3" d="M592.2,91.1L592.2,91.1c0.4,0.2,0.8,0.2,1.2,0.2c0.2,0,0.4,0,0.6-0.1c1.7-0.3,2.8-1.9,2.5-3.5
	c-0.2-1.2-1.2-2.2-2.5-2.5c-0.2,0-0.4-0.1-0.6-0.1c-1.7,0-3.1,1.4-3,3.1C590.3,89.5,591.1,90.6,592.2,91.1L592.2,91.1z"/>
<path class="st3" d="M562.8,91.4c1.7,0,3-1.4,3-3s-1.4-3.1-3-3.1l0,0c-1.7,0-3,1.4-3,3.1S561.2,91.4,562.8,91.4z"/>
<path class="st3" d="M547.6,100.6L547.6,100.6c-1.7,0-3.1,1.4-3.1,3c0,1.7,1.4,3.1,3,3.1c1.7,0,3.1-1.4,3.1-3c0,0,0-0.1,0-0.1
	C550.6,101.9,549.2,100.6,547.6,100.6L547.6,100.6z"/>
<path class="st3" d="M578.1,100.6c-1.7,0-3.1,1.3-3.1,3c0,1.7,1.3,3.1,3,3.1c1.7,0,3.1-1.3,3.1-3c0,0,0,0,0-0.1
	C581.1,102,579.8,100.6,578.1,100.6z"/>
<path class="st3" d="M547.6,76.1c1.7-0.1,3-1.5,2.9-3.2c-0.1-1.6-1.3-2.8-2.9-2.9l0,0c-1.7-0.1-3.1,1.2-3.2,2.9
	c-0.1,1.7,1.2,3.1,2.9,3.2C547.3,76.1,547.4,76.1,547.6,76.1z"/>
<path class="st3" d="M578.1,76.1c1.7,0,3.1-1.4,3.1-3.1l0,0c0-1.7-1.4-3.1-3.1-3.1s-3.1,1.4-3.1,3.1S576.4,76.1,578.1,76.1
	L578.1,76.1z"/>
<path class="st3" d="M532.3,121.9c1.7,0,3-1.3,3-3l0,0c0-0.2,0-0.4-0.1-0.6c-0.3-1.7-1.9-2.8-3.5-2.5c-1.2,0.2-2.2,1.2-2.5,2.5
	c0,0.2-0.1,0.4-0.1,0.6C529.2,120.6,530.6,122,532.3,121.9C532.3,121.9,532.3,121.9,532.3,121.9z"/>
<path class="st3" d="M532.3,91.4c1.7,0,3.1-1.3,3.1-3c0-1-0.5-2-1.3-2.6c-0.5-0.3-1.1-0.5-1.7-0.5c-1.7,0-3,1.4-3,3.1
	S530.6,91.4,532.3,91.4L532.3,91.4L532.3,91.4z"/>
<path class="st3" d="M564.5,182.5c1.4-1,1.7-2.8,0.7-4.2c-1-1.4-2.8-1.7-4.2-0.7c-1.3,0.9-1.7,2.7-0.8,4.1
	C561.2,183.1,563.1,183.5,564.5,182.5C564.5,182.6,564.5,182.5,564.5,182.5z"/>
<path class="st3" d="M562.8,146.4L562.8,146.4c-1.7,0-3.1,1.4-3.1,3.1c0,1.7,1.4,3.1,3.1,3.1s3.1-1.4,3.1-3.1c0,0,0,0,0-0.1
	C565.9,147.7,564.5,146.4,562.8,146.4L562.8,146.4z"/>
<path class="st3" d="M547.6,167.8c1.7-0.1,3-1.5,2.9-3.2c-0.1-1.6-1.3-2.8-2.9-2.9l0,0c-1.7-0.1-3.1,1.2-3.2,2.9
	c-0.1,1.7,1.2,3.1,2.9,3.2C547.3,167.8,547.4,167.8,547.6,167.8z"/>
<path class="st3" d="M578.1,167.8c1.7,0,3-1.3,3.1-2.9c0,0,0-0.1,0-0.1l0,0c0-1.7-1.4-3.1-3-3.1c-1.7,0-3.1,1.4-3.1,3
	C575,166.4,576.4,167.8,578.1,167.8C578.1,167.8,578.1,167.8,578.1,167.8z"/>
<path class="st3" d="M547.6,131.1L547.6,131.1c-1.7,0-3.1,1.4-3.1,3.1s1.4,3.1,3.1,3.1s3.1-1.4,3.1-3.1c0,0,0,0,0,0
	C550.6,132.5,549.3,131.1,547.6,131.1C547.6,131.1,547.6,131.1,547.6,131.1L547.6,131.1z"/>
<path class="st3" d="M578.1,131.1c-1.7,0-3.1,1.3-3.1,3c0,1.7,1.3,3.1,3,3.1c1.7,0,3.1-1.3,3.1-3c0,0,0,0,0-0.1
	C581.1,132.5,579.8,131.1,578.1,131.1z"/>
<path class="st3" d="M533.5,182.8c1.5-0.7,2.3-2.5,1.6-4c-0.1-0.2-0.2-0.3-0.3-0.5l0,0c-0.2-0.3-0.5-0.6-0.8-0.8
	c-1.4-0.9-3.3-0.6-4.2,0.8c-0.3,0.5-0.5,1.1-0.5,1.7c0,1.7,1.3,3,2.9,3.1C532.6,183.1,533.1,183,533.5,182.8L533.5,182.8z"/>
<path class="st3" d="M535.3,149.4c0-1-0.5-2-1.3-2.5c-1.4-1-3.3-0.6-4.3,0.8c-1,1.4-0.6,3.3,0.8,4.3c1.4,0.9,3.2,0.6,4.2-0.7
	l0.1-0.1C535.2,150.6,535.3,150,535.3,149.4z"/>
<path class="st3" d="M594,115.9c-0.2,0-0.4-0.1-0.6-0.1c-0.4,0-0.8,0.1-1.2,0.2c-1.1,0.5-1.9,1.6-1.9,2.8c0,1.2,0.7,2.3,1.9,2.8
	c0.4,0.2,0.8,0.2,1.2,0.2c0.2,0,0.4,0,0.6-0.1c1.4-0.3,2.4-1.5,2.4-3c0-0.2,0-0.4-0.1-0.6C596.2,117.1,595.2,116.1,594,115.9z"/>
<path class="st3" d="M562.8,238c-1.5,0-2.7,1-3,2.4c0,0.2-0.1,0.4-0.1,0.6c-0.1,1.7,1.2,3.1,2.9,3.2c1.7,0.1,3.1-1.2,3.2-2.9
	c0-0.1,0-0.2,0-0.3l0,0c0-0.2,0-0.4-0.1-0.6C565.5,239.1,564.3,238,562.8,238z"/>
<path class="st3" d="M562.8,213.6c1.7,0,3.1-1.4,3.1-3.1l0,0c0-1.6-1.4-3-3-3l0,0c-1.7-0.1-3.1,1.2-3.2,2.9
	c-0.1,1.7,1.2,3.1,2.9,3.2C562.7,213.6,562.8,213.6,562.8,213.6L562.8,213.6z"/>
<path class="st3" d="M547.6,228.9c1.7,0,3.1-1.4,3.1-3.1c0-1.7-1.4-3.1-3.1-3.1l0,0c-1.7,0-3.1,1.4-3.1,3.1
	C544.5,227.5,545.9,228.9,547.6,228.9z"/>
<path class="st3" d="M578.1,228.9c1.7,0,3.1-1.4,3.1-3.1l0,0c0-1.7-1.4-3.1-3.1-3.1s-3.1,1.4-3.1,3.1S576.4,228.9,578.1,228.9
	L578.1,228.9z"/>
<path class="st3" d="M547.5,192.2c-1.7,0-3.1,1.4-3.1,3.1c0,1.7,1.4,3.1,3.1,3.1s3.1-1.4,3.1-3.1l0,0
	C550.6,193.6,549.2,192.2,547.5,192.2z"/>
<path class="st3" d="M578.1,192.2c-1.7,0-3.1,1.3-3.1,3c0,1.7,1.3,3.1,3,3.1c1.7,0,3.1-1.3,3.1-3c0,0,0,0,0-0.1l0,0
	C581.1,193.6,579.8,192.2,578.1,192.2z"/>
<path class="st3" d="M532.3,244.1c1.7,0,3-1.3,3-3c0,0,0,0,0-0.1l0,0c0-0.2,0-0.4-0.1-0.6c-0.3-1.7-1.9-2.8-3.5-2.5
	c-1.2,0.2-2.2,1.2-2.5,2.5c0,0.2-0.1,0.4-0.1,0.6C529.2,242.8,530.5,244.2,532.3,244.1C532.3,244.1,532.3,244.1,532.3,244.1z"/>
<path class="st3" d="M530.6,213.1c1.4,0.9,3.3,0.6,4.2-0.8c0,0,0,0,0,0c0.3-0.5,0.5-1.1,0.5-1.7c0-1.7-1.4-3.1-3.1-3.1
	c-1.7,0-3.1,1.4-3.1,3.1C529.2,211.6,529.7,212.5,530.6,213.1L530.6,213.1z"/>
<path class="st3" d="M592.2,182.8L592.2,182.8c0.4,0.2,0.8,0.2,1.2,0.2c0.2,0,0.4,0,0.6-0.1l0.1-0.1c0.4-0.9,0.8-1.8,1.2-2.7
	c0.3-0.6,0.5-1.1,0.8-1.7c-0.4-0.8-1.2-1.3-2.1-1.5c-0.2,0-0.4-0.1-0.6-0.1c-1.7,0-3,1.3-3,2.9c0,0,0,0.1,0,0.1l0,0
	C590.3,181.2,591,182.3,592.2,182.8z"/>
<path class="st3" d="M561.1,299.7c-1.4,0.9-1.8,2.8-0.8,4.2c0.9,1.4,2.8,1.8,4.2,0.8c1.2-0.8,1.7-2.4,1.1-3.7
	c-0.1-0.2-0.2-0.3-0.3-0.5l0,0C564.4,299.1,562.5,298.7,561.1,299.7z"/>
<path class="st3" d="M562.8,274.7c1.7,0,3.1-1.4,3.1-3.1l0,0c0-1.7-1.3-3-3-3.1l0,0c-1.7,0-3.1,1.4-3.1,3.1S561.2,274.7,562.8,274.7
	C562.9,274.7,562.9,274.7,562.8,274.7L562.8,274.7z"/>
<path class="st3" d="M547.5,283.9c-1.7,0-3.1,1.4-3.1,3.1c0,1.7,1.4,3.1,3.1,3.1s3.1-1.4,3.1-3.1l0,0
	C550.6,285.2,549.2,283.9,547.5,283.9z"/>
<path class="st3" d="M575,286.9c0,0.7,0.3,1.4,0.7,2c0.3-1.5,0.6-3.1,0.8-4.6C575.6,284.8,575,285.8,575,286.9z"/>
<path class="st3" d="M547.6,259.4c1.7,0,3.1-1.4,3.1-3.1c0-1.7-1.4-3.1-3.1-3.1l0,0c-1.7,0-3.1,1.4-3.1,3.1
	C544.5,258.1,545.9,259.4,547.6,259.4z"/>
<path class="st3" d="M578.1,259.4c0.6,0,1.2-0.2,1.7-0.5c0.2-1.5,0.3-3.1,0.5-4.6c-1.2-1.2-3.1-1.3-4.3-0.1s-1.3,3.1-0.1,4.3
	C576.5,259.1,577.3,259.4,578.1,259.4L578.1,259.4z"/>
<path class="st3" d="M534,299.7c-1.4-1-3.3-0.6-4.3,0.8c-1,1.4-0.6,3.3,0.8,4.3c1.4,1,3.3,0.6,4.3-0.8c0,0,0,0,0,0
	c0.1-0.2,0.2-0.3,0.3-0.5c0.4-1,0.3-2-0.3-2.9C534.6,300.2,534.3,299.9,534,299.7z"/>
<path class="st3" d="M534,269.1c-0.5-0.3-1.1-0.5-1.7-0.5c-1.7,0-3.1,1.4-3.1,3c0,1.7,1.4,3.1,3,3.1c1.7,0,3.1-1.4,3.1-3
	C535.4,270.6,534.9,269.7,534,269.1z"/>
<path class="st3" d="M562.6,329.7c-1.6,0.1-2.9,1.4-2.9,3c0,0.5,0.2,1,0.4,1.5C561,332.8,561.9,331.2,562.6,329.7z"/>
<path class="st3" d="M547.6,345c-1.7-0.1-3.1,1.2-3.2,2.9s1.2,3.1,2.9,3.2c0.1,0,0.2,0,0.3,0h0.2c1-1,1.9-2.1,2.8-3.1
	C550.6,346.3,549.2,344.9,547.6,345C547.6,345,547.6,345,547.6,345z"/>
<path class="st3" d="M547.6,320.5c1.7-0.1,3-1.5,2.9-3.2c-0.1-1.6-1.3-2.8-2.9-2.9l0,0c-1.7-0.1-3.1,1.2-3.2,2.9s1.2,3.1,2.9,3.2
	C547.3,320.5,547.4,320.5,547.6,320.5z"/>
<path class="st3" d="M531.7,360.3c-1.2,0.3-2.1,1.2-2.4,2.4c0,0.2-0.1,0.4-0.1,0.6c0,0.6,0.2,1.3,0.6,1.8c1.8-1,3.5-2.1,5.2-3.2
	C534.4,360.7,533,360,531.7,360.3z"/>
<path class="st3" d="M530.6,335.3c1.4,0.9,3.3,0.6,4.3-0.8c0.3-0.5,0.5-1.1,0.5-1.7c0-1.7-1.4-3.1-3.1-3.1c-1.7,0-3.1,1.4-3.1,3.1
	C529.2,333.7,529.7,334.7,530.6,335.3z"/>
<path class="st3" d="M498.9,59c0.7,1.6,2.4,2.3,4,1.6c1.6-0.7,2.3-2.4,1.6-4c0,0,0,0,0,0h-5.6c-0.2,0.4-0.3,0.8-0.3,1.2
	C498.7,58.2,498.8,58.6,498.9,59z"/>
<path class="st3" d="M468.6,59.5c0.9,1.4,2.8,1.8,4.3,0.8c0.5-0.3,0.9-0.8,1.1-1.3c0.2-0.4,0.2-0.8,0.2-1.2c0-0.4-0.1-0.8-0.2-1.2
	h-5.6C468,57.5,468.1,58.6,468.6,59.5z"/>
<path class="st3" d="M501.7,121.9c1.7,0,3-1.3,3.1-3c0-0.2,0-0.4-0.1-0.6c-0.3-1.7-1.9-2.8-3.5-2.5c-1.2,0.2-2.2,1.2-2.5,2.5
	c0,0.2-0.1,0.4-0.1,0.6C498.7,120.6,500,121.9,501.7,121.9C501.7,121.9,501.7,121.9,501.7,121.9z"/>
<path class="st3" d="M501.7,91.4c1.7,0,3-1.4,3-3s-1.4-3.1-3-3.1l0,0c-1.7,0-3,1.4-3,3.1S500,91.4,501.7,91.4z"/>
<path class="st3" d="M486.5,100.6L486.5,100.6c-1.7,0-3.1,1.4-3.1,3.1c0,1.7,1.4,3.1,3.1,3.1c1.7,0,3.1-1.4,3.1-3.1c0,0,0,0,0-0.1
	C489.5,101.9,488.2,100.6,486.5,100.6C486.5,100.6,486.5,100.6,486.5,100.6L486.5,100.6z"/>
<path class="st3" d="M517,100.6L517,100.6c-1.7,0-3.1,1.3-3.1,3s1.3,3.1,3,3.1c1.7,0,3.1-1.3,3.1-3c0,0,0-0.1,0-0.1
	C520,101.9,518.7,100.6,517,100.6z"/>
<path class="st3" d="M486.5,76.1c1.7,0.1,3.1-1.2,3.2-2.9c0.1-1.7-1.2-3.1-2.9-3.2c-0.1,0-0.2,0-0.3,0l0,0c-1.7-0.1-3.1,1.2-3.2,2.9
	c-0.1,1.7,1.2,3.1,2.9,3.2C486.2,76.1,486.3,76.1,486.5,76.1z"/>
<path class="st3" d="M517,76.1c1.7,0,3-1.4,3-3.1l0,0c0-1.7-1.3-3-3-3l0,0c-1.7,0.1-3,1.5-2.9,3.2C514.2,74.8,515.5,76.1,517,76.1
	L517,76.1z"/>
<path class="st3" d="M471.2,121.9c1.7,0,3-1.3,3-3l0,0c0-0.2,0-0.4-0.1-0.6c-0.3-1.7-1.9-2.7-3.6-2.4c-1.2,0.2-2.2,1.2-2.4,2.4
	c0,0.2-0.1,0.4-0.1,0.6C468.1,120.6,469.5,122,471.2,121.9C471.2,121.9,471.2,121.9,471.2,121.9z"/>
<path class="st3" d="M471.2,91.4c1.7,0,3-1.3,3.1-3l0,0c0-1.7-1.3-3.1-3-3.1s-3.1,1.3-3.1,3C468.1,89.9,469.4,91.3,471.2,91.4
	C471.1,91.4,471.2,91.4,471.2,91.4z"/>
<path class="st3" d="M501.7,176.9c-1.7,0-3,1.4-3,3.1c0,1.7,1.4,3,3.1,3c1.2,0,2.3-0.7,2.8-1.9c0.2-0.4,0.2-0.8,0.3-1.2
	C504.8,178.3,503.4,176.9,501.7,176.9z"/>
<path class="st3" d="M501.7,152.5c1.7-0.1,3-1.5,2.9-3.2c-0.1-1.6-1.3-2.8-2.9-2.9l0,0c-1.7,0.1-3,1.5-2.9,3.2
	C498.9,151.2,500.2,152.4,501.7,152.5z"/>
<path class="st3" d="M486.5,167.8c1.7,0,3.1-1.4,3.1-3.1c0-1.7-1.4-3.1-3.1-3.1c-1.7,0-3.1,1.4-3.1,3.1c0,0,0,0,0,0
	c0,1.7,1.3,3,2.9,3.1C486.4,167.8,486.4,167.8,486.5,167.8z"/>
<path class="st3" d="M517,167.8c1.7,0,3-1.3,3.1-2.9c0,0,0-0.1,0-0.1l0,0c0-1.7-1.3-3-3-3.1l0,0c-1.7,0.1-3,1.5-2.9,3.2
	C514.3,166.4,515.5,167.7,517,167.8L517,167.8z"/>
<path class="st3" d="M489.5,134.2c0-1.7-1.4-3.1-3-3.1l0,0c-1.7,0-3,1.3-3,3c0,0,0,0.1,0,0.1c0,1.7,1.3,3,3,3c0,0,0,0,0.1,0
	c0.7,0,1.3-0.2,1.8-0.6C489.1,136,489.5,135.1,489.5,134.2z"/>
<path class="st3" d="M517,131.1L517,131.1c-1.7,0-3.1,1.3-3.1,3c0,1.7,1.3,3.1,3,3.1c1.7,0,3.1-1.3,3.1-3c0,0,0,0,0-0.1
	C520,132.5,518.7,131.1,517,131.1z"/>
<path class="st3" d="M471.2,152.5c1.7,0,3-1.3,3-3l0,0c0-1.7-1.4-3.1-3.1-3.1c-1.7,0-3.1,1.4-3.1,3.1
	C468.1,151.2,469.4,152.6,471.2,152.5C471.1,152.6,471.2,152.6,471.2,152.5L471.2,152.5z"/>
<path class="st3" d="M501.7,244.1c1.7,0,3.1-1.4,3.1-3.1c0-0.2,0-0.4-0.1-0.6c-0.3-1.7-1.9-2.8-3.5-2.4c-1.2,0.2-2.2,1.2-2.5,2.4
	c0,0.2-0.1,0.4-0.1,0.6C498.7,242.8,500,244.1,501.7,244.1C501.7,244.1,501.7,244.1,501.7,244.1z"/>
<path class="st3" d="M501.7,213.6c1.7,0,3.1-1.4,3.1-3c0-1.7-1.4-3.1-3-3.1c-1.7,0-3.1,1.4-3.1,3c0,0,0,0,0,0l0,0
	C498.7,212.2,500,213.6,501.7,213.6C501.7,213.6,501.7,213.6,501.7,213.6z"/>
<path class="st3" d="M486.5,228.9c1.7,0,3.1-1.4,3.1-3.1c0-1.7-1.4-3.1-3.1-3.1l0,0c-1.7,0-3.1,1.4-3.1,3.1
	C483.4,227.5,484.8,228.9,486.5,228.9C486.5,228.9,486.5,228.9,486.5,228.9z"/>
<path class="st3" d="M517,228.9L517,228.9c1.7,0,3.1-1.4,3.1-3.1c0-1.7-1.4-3.1-3.1-3.1s-3.1,1.4-3.1,3.1l0,0
	C514,227.5,515.3,228.9,517,228.9z"/>
<path class="st3" d="M486.5,192.2L486.5,192.2c-1.7,0-3.1,1.4-3.1,3.1c0,1.7,1.4,3.1,3.1,3.1c1.7,0,3.1-1.4,3.1-3.1l0,0
	C489.5,193.6,488.2,192.2,486.5,192.2C486.5,192.2,486.5,192.2,486.5,192.2L486.5,192.2z"/>
<path class="st3" d="M517,192.2c-1.7,0-3.1,1.3-3.1,3c0,1.7,1.3,3.1,3,3.1c1.7,0,3.1-1.3,3.1-3c0,0,0,0,0-0.1l0,0
	C520,193.6,518.7,192.2,517,192.2z"/>
<path class="st3" d="M504.3,300.5c-0.9-1.4-2.8-1.8-4.2-0.8s-1.8,2.8-0.8,4.2c0.9,1.4,2.8,1.8,4.2,0.8c1.2-0.8,1.7-2.4,1.1-3.7
	C504.5,300.8,504.4,300.6,504.3,300.5z"/>
<path class="st3" d="M501.7,274.7c1.7,0,3.1-1.4,3.1-3.1l0,0c0-1.7-1.3-3-3-3.1l0,0c-1.7,0-3.1,1.4-3.1,3.1
	C498.7,273.3,500.1,274.7,501.7,274.7L501.7,274.7z"/>
<path class="st3" d="M486.5,283.9c-1.7,0-3.1,1.4-3.1,3.1c0,1.7,1.4,3.1,3.1,3.1c1.7,0,3.1-1.4,3.1-3.1l0,0c0-1.7-1.3-3-2.9-3.1
	C486.5,283.9,486.5,283.9,486.5,283.9z"/>
<path class="st3" d="M517,283.9c-1.7,0-3.1,1.3-3.1,3c0,1.7,1.3,3.1,3,3.1c1.7,0,3.1-1.3,3.1-3c0,0,0,0,0-0.1
	C520,285.3,518.7,283.9,517,283.9z"/>
<path class="st3" d="M486.5,259.4c1.7,0,3.1-1.4,3.1-3.1c0-1.7-1.4-3.1-3.1-3.1l0,0c-1.7,0-3.1,1.4-3.1,3.1
	C483.4,258.1,484.8,259.4,486.5,259.4z"/>
<path class="st3" d="M517,259.4c1.7,0,3.1-1.4,3.1-3.1l0,0c0-1.7-1.3-3-3-3.1l0,0c-1.7,0-3.1,1.4-3.1,3.1
	C514,258.1,515.4,259.4,517,259.4L517,259.4z"/>
<path class="st3" d="M471.2,274.7c1.7,0,3-1.4,3-3.1l0,0c0-1.7-1.4-3.1-3.1-3.1c-1.7,0-3.1,1.4-3.1,3.1
	C468.1,273.3,469.4,274.7,471.2,274.7C471.1,274.7,471.2,274.7,471.2,274.7z"/>
<path class="st3" d="M504.8,363.3c0-0.2,0-0.4-0.1-0.6c-0.3-1.7-1.9-2.8-3.5-2.5c-1.2,0.2-2.2,1.2-2.5,2.5c0,0.2-0.1,0.4-0.1,0.6
	c-0.1,1.7,1.2,3.1,2.9,3.2c1.7,0.1,3.1-1.2,3.2-2.9C504.8,363.5,504.8,363.4,504.8,363.3L504.8,363.3z"/>
<path class="st3" d="M501.7,335.8c1.7,0,3.1-1.4,3.1-3.1l0,0c0-1.7-1.3-3-3-3l0,0c-1.7-0.1-3.1,1.2-3.2,2.9s1.2,3.1,2.9,3.2
	C501.6,335.8,501.7,335.8,501.7,335.8L501.7,335.8z"/>
<path class="st3" d="M486.5,351.1c1.7-0.1,3-1.5,2.9-3.2c-0.1-1.6-1.3-2.8-2.9-2.9l0,0c-1.7-0.1-3.1,1.2-3.2,2.9s1.2,3.1,2.9,3.2
	C486.2,351.1,486.3,351.1,486.5,351.1z"/>
<path class="st3" d="M517,351.1c1.7,0,3.1-1.4,3.1-3c0,0,0,0,0,0l0,0c0-1.7-1.4-3.1-3-3.1c-1.7,0-3.1,1.4-3.1,3
	C514,349.7,515.3,351.1,517,351.1C517,351.1,517,351.1,517,351.1z"/>
<path class="st3" d="M486.5,320.5c1.7-0.1,3-1.5,2.9-3.2c-0.1-1.6-1.3-2.8-2.9-2.9l0,0c-1.7-0.1-3.1,1.2-3.2,2.9s1.2,3.1,2.9,3.2
	C486.2,320.5,486.3,320.5,486.5,320.5z"/>
<path class="st3" d="M517,320.5c1.7,0,3.1-1.4,3.1-3c0,0,0,0,0,0l0,0c0-1.7-1.3-3-3-3.1l0,0c-1.7-0.1-3.1,1.2-3.2,2.9
	s1.2,3.1,2.9,3.2C516.8,320.5,517,320.5,517,320.5L517,320.5z"/>
<path class="st3" d="M486.5,375.5L486.5,375.5c-1.7,0-3,1.4-3.1,3c0,0,0,0,0,0c0,0.5,0.1,1,0.4,1.4c1.9-0.3,3.8-0.7,5.7-1
	c0-0.1,0-0.3,0-0.4C489.5,376.9,488.2,375.5,486.5,375.5C486.5,375.5,486.5,375.5,486.5,375.5z"/>
<path class="st3" d="M438.1,59.5c1,1.4,2.9,1.8,4.3,0.8c0.8-0.6,1.3-1.5,1.3-2.5c0-0.4-0.1-0.8-0.3-1.2h-5.6
	C437.4,57.5,437.5,58.6,438.1,59.5z"/>
<path class="st3" d="M408.4,60.3c0.2,0.1,0.3,0.2,0.5,0.3c1.5,0.7,3.3,0.1,4-1.4c0.4-0.8,0.4-1.8,0-2.6h-5.6
	C406.7,57.9,407.2,59.5,408.4,60.3z"/>
<path class="st3" d="M440.6,121.9c1.7,0,3-1.3,3.1-3c0-0.2,0-0.4-0.1-0.6c-0.3-1.7-1.9-2.8-3.5-2.5c-1.2,0.2-2.2,1.2-2.5,2.5
	c0,0.2-0.1,0.4-0.1,0.6C437.6,120.6,438.9,121.9,440.6,121.9C440.6,121.9,440.6,121.9,440.6,121.9z"/>
<path class="st3" d="M440.6,91.4c1.7,0,3-1.4,3-3s-1.4-3.1-3-3.1l0,0c-1.7,0-3,1.4-3,3.1S438.9,91.4,440.6,91.4z"/>
<path class="st3" d="M425.4,106.7c1.7-0.1,3-1.5,2.9-3.2c-0.1-1.6-1.3-2.8-2.9-2.9l0,0c-1.7,0.1-3,1.5-2.9,3.2
	C422.6,105.3,423.8,106.6,425.4,106.7z"/>
<path class="st3" d="M455.9,100.6L455.9,100.6c-1.7,0-3.1,1.4-3.1,3.1c0,1.7,1.4,3.1,3.1,3.1c1.7,0,3.1-1.4,3.1-3.1c0,0,0,0,0-0.1
	C458.9,101.9,457.6,100.6,455.9,100.6L455.9,100.6z"/>
<path class="st3" d="M425.4,76.1c1.7-0.1,3-1.5,2.9-3.2c-0.1-1.6-1.3-2.8-2.9-2.9l0,0c-1.7,0.1-3,1.5-2.9,3.2
	C422.6,74.8,423.8,76,425.4,76.1z"/>
<path class="st3" d="M455.9,76.1c1.7-0.1,3-1.5,2.9-3.2c-0.1-1.6-1.3-2.8-2.9-2.9l0,0c-1.7,0.1-3,1.5-2.9,3.2
	C453.1,74.8,454.4,76,455.9,76.1z"/>
<path class="st3" d="M410.1,115.8c-1.5,0-2.7,1-3,2.4c0,0.2-0.1,0.4-0.1,0.6c0,1.2,0.7,2.3,1.9,2.8c0.4,0.2,0.8,0.2,1.2,0.2
	c1.7,0,3-1.3,3-2.9c0,0,0,0,0-0.1l0,0c0-0.2,0-0.4-0.1-0.6C412.8,116.9,411.5,115.8,410.1,115.8z"/>
<path class="st3" d="M408.4,90.9c1.4,0.9,3.3,0.6,4.2-0.8c0.3-0.5,0.5-1.1,0.5-1.7c0-1-0.5-2-1.3-2.5c-1.4-1-3.3-0.7-4.3,0.6
	c-1,1.4-0.7,3.3,0.6,4.3C408.2,90.8,408.3,90.8,408.4,90.9z"/>
<path class="st3" d="M441.8,182.8c0.7-0.3,1.3-0.9,1.6-1.6c0.2-0.4,0.2-0.8,0.2-1.2c0.1-1.7-1.2-3.1-2.9-3.2
	c-1.7-0.1-3.1,1.2-3.2,2.9c0,0.1,0,0.2,0,0.3c0,0.4,0.1,0.8,0.2,1.2C438.5,182.7,440.3,183.5,441.8,182.8
	C441.8,182.8,441.8,182.8,441.8,182.8z"/>
<path class="st3" d="M440.6,152.5c1.7,0.1,3.1-1.2,3.2-2.9c0.1-1.7-1.2-3.1-2.9-3.2c-0.1,0-0.2,0-0.3,0l0,0c-1.7,0.1-3,1.5-2.9,3.2
	C437.8,151.2,439.1,152.4,440.6,152.5z"/>
<path class="st3" d="M425.4,167.8c1.7-0.1,3-1.5,2.9-3.2c-0.1-1.6-1.3-2.8-2.9-2.9l0,0c-1.7,0.1-3,1.5-2.9,3.2
	C422.6,166.4,423.8,167.7,425.4,167.8z"/>
<path class="st3" d="M455.9,167.8c1.7-0.1,3-1.5,2.9-3.2c-0.1-1.6-1.3-2.8-2.9-2.9l0,0c-1.7,0.1-3,1.5-2.9,3.2
	C453.1,166.4,454.4,167.7,455.9,167.8z"/>
<path class="st3" d="M425.4,137.2c1.7-0.1,3-1.5,2.9-3.2c-0.1-1.6-1.3-2.8-2.9-2.9l0,0c-1.7,0.1-3,1.5-2.9,3.2
	C422.6,135.9,423.8,137.1,425.4,137.2z"/>
<path class="st3" d="M455.9,137.2c1.7-0.1,3-1.5,2.9-3.2c-0.1-1.6-1.3-2.8-2.9-2.9l0,0c-1.7,0.1-3,1.5-2.9,3.2
	C453.1,135.9,454.4,137.1,455.9,137.2z"/>
<path class="st3" d="M411.8,182.5c1.4-0.9,1.8-2.8,0.9-4.1c0,0,0-0.1-0.1-0.1c-0.9-1.4-2.8-1.8-4.2-0.8c-1.4,0.9-1.8,2.8-0.8,4.2
	C408.5,183.1,410.4,183.5,411.8,182.5C411.8,182.5,411.8,182.5,411.8,182.5z"/>
<path class="st3" d="M408.4,152c1.4,0.9,3.3,0.6,4.3-0.8c0.3-0.5,0.5-1.1,0.5-1.7c0-1.7-1.4-3.1-3.1-3.1s-3.1,1.4-3.1,3.1
	C407,150.5,407.5,151.4,408.4,152z"/>
<path class="st3" d="M440.6,238c-1.5,0-2.7,1-3,2.4c0,0.2-0.1,0.4-0.1,0.6c-0.1,1.7,1.2,3.1,2.9,3.2c1.7,0.1,3.1-1.2,3.2-2.9
	c0-0.1,0-0.2,0-0.3c0-0.2,0-0.4-0.1-0.6C443.3,239.1,442.1,238,440.6,238z"/>
<path class="st3" d="M471.2,207.5c-1.7,0-3.1,1.4-3.1,3.1c0,1.7,1.4,3.1,3.1,3.1c1.7,0,3.1-1.4,3.1-3.1c0,0,0,0,0-0.1
	C474.2,208.8,472.9,207.5,471.2,207.5C471.2,207.5,471.2,207.5,471.2,207.5z"/>
<path class="st3" d="M440.6,213.6c1.7,0,3-1.3,3.1-3l0,0c0-1.7-1.4-3-3-3l0,0c-1.7-0.1-3.1,1.2-3.2,2.9c-0.1,1.7,1.2,3.1,2.9,3.2
	c0.1,0,0.2,0,0.3,0L440.6,213.6z"/>
<path class="st3" d="M425.4,228.9c1.7,0,3.1-1.4,3.1-3.1c0-1.7-1.4-3.1-3.1-3.1l0,0c-1.7,0-3.1,1.4-3.1,3.1
	C422.3,227.5,423.7,228.9,425.4,228.9z"/>
<path class="st3" d="M455.9,228.9c1.7,0,3.1-1.4,3.1-3.1c0-1.7-1.4-3.1-3.1-3.1l0,0c-1.7,0-3.1,1.4-3.1,3.1
	C452.9,227.5,454.2,228.9,455.9,228.9z"/>
<path class="st3" d="M425.3,192.2c-1.7,0-3.1,1.4-3.1,3.1c0,1.7,1.4,3.1,3.1,3.1c1.7,0,3.1-1.4,3.1-3.1l0,0
	C428.4,193.6,427,192.2,425.3,192.2z"/>
<path class="st3" d="M455.9,192.2c-1.7,0-3.1,1.4-3.1,3.1c0,1.7,1.4,3.1,3.1,3.1c1.7,0,3.1-1.4,3.1-3.1l0,0
	C459,193.6,457.6,192.2,455.9,192.2z"/>
<path class="st3" d="M409.5,238.1c-1.2,0.2-2.1,1.2-2.4,2.4c0,0.2-0.1,0.4-0.1,0.6c-0.1,1.7,1.2,3.1,2.9,3.2
	c1.7,0.1,3.1-1.2,3.2-2.9c0-0.1,0-0.2,0-0.3c0-0.2,0-0.4-0.1-0.6c-0.3-1.6-1.9-2.7-3.5-2.4C409.5,238.1,409.5,238.1,409.5,238.1z"/>
<path class="st3" d="M412.9,209.3c-0.2-0.5-0.6-1-1.1-1.3l0,0c-1.4-0.9-3.3-0.6-4.2,0.8s-0.6,3.3,0.8,4.2c1.4,0.9,3.3,0.6,4.2-0.8
	C413.2,211.4,413.3,210.3,412.9,209.3z"/>
<path class="st3" d="M471.2,183c1.7,0,3.1-1.4,3.1-3c0-1.7-1.4-3.1-3-3.1s-3.1,1.4-3.1,3c0,0,0,0,0,0c0,0.4,0.1,0.8,0.2,1.2
	C468.8,182.3,470,183,471.2,183z"/>
<path class="st3" d="M438.9,299.7c-1.4,0.9-1.8,2.8-0.8,4.2c0.9,1.4,2.8,1.8,4.2,0.8c1.4-0.9,1.8-2.8,0.8-4.2c0,0,0,0,0,0
	C442.2,299.1,440.3,298.7,438.9,299.7z"/>
<path class="st3" d="M440.6,274.7c1.7,0,3.1-1.4,3.1-3.1l0,0c0-1.7-1.4-3.1-3-3.1l0,0c-1.7,0-3.1,1.4-3.1,3.1
	C437.6,273.3,439,274.7,440.6,274.7L440.6,274.7z"/>
<path class="st3" d="M425.3,283.9c-1.7,0-3.1,1.4-3.1,3.1c0,1.7,1.4,3.1,3.1,3.1c1.7,0,3.1-1.4,3.1-3.1l0,0
	C428.4,285.2,427,283.9,425.3,283.9z"/>
<path class="st3" d="M455.9,283.9c-1.7,0-3.1,1.4-3.1,3.1c0,1.7,1.4,3.1,3.1,3.1c1.7,0,3.1-1.4,3.1-3.1l0,0
	C459,285.2,457.6,283.9,455.9,283.9z"/>
<path class="st3" d="M425.4,259.4c1.7,0,3.1-1.4,3.1-3.1c0-1.7-1.4-3.1-3.1-3.1l0,0c-1.7,0-3.1,1.4-3.1,3.1
	C422.3,258.1,423.7,259.4,425.4,259.4z"/>
<path class="st3" d="M455.9,259.4c1.7,0,3.1-1.4,3.1-3.1c0-1.7-1.4-3.1-3.1-3.1l0,0c-1.7,0-3.1,1.4-3.1,3.1
	C452.9,258.1,454.2,259.4,455.9,259.4z"/>
<path class="st3" d="M411.8,299.7c-1.4-0.9-3.3-0.6-4.2,0.8c-0.9,1.4-0.6,3.3,0.8,4.2c1.4,0.9,3.3,0.6,4.2-0.8c0,0,0,0,0,0
	c0.1-0.2,0.2-0.3,0.3-0.5c0.2-0.4,0.2-0.8,0.2-1.2c0-0.6-0.2-1.2-0.5-1.7C412.4,300.2,412.1,299.9,411.8,299.7z"/>
<path class="st3" d="M408.4,274.2c1.4,0.9,3.3,0.6,4.3-0.8c0.3-0.5,0.5-1.1,0.5-1.7c0-1-0.5-2-1.3-2.5c-1.4-1-3.3-0.7-4.3,0.6
	c-1,1.4-0.7,3.3,0.6,4.3C408.2,274.1,408.3,274.1,408.4,274.2z"/>
<path class="st3" d="M474.2,240.5c-0.3-1.7-1.9-2.8-3.5-2.4c-1.2,0.2-2.2,1.2-2.5,2.4c0,0.2-0.1,0.4-0.1,0.6c0,1.7,1.4,3.1,3.1,3.1
	c1.7,0,3.1-1.4,3.1-3.1l0,0C474.2,240.9,474.2,240.7,474.2,240.5z"/>
<path class="st3" d="M443.7,363.3c0-0.2,0-0.4-0.1-0.6c-0.3-1.7-1.9-2.8-3.5-2.5c-1.2,0.2-2.2,1.2-2.5,2.5c0,0.2-0.1,0.4-0.1,0.6
	c-0.1,1.7,1.2,3.1,2.9,3.2s3.1-1.2,3.2-2.9C443.7,363.5,443.7,363.4,443.7,363.3L443.7,363.3z"/>
<path class="st3" d="M471.2,335.8c1.7,0,3.1-1.4,3.1-3s-1.4-3.1-3-3.1s-3.1,1.4-3.1,3c0,0,0,0,0,0
	C468.1,334.4,469.5,335.8,471.2,335.8z"/>
<path class="st3" d="M440.6,335.8c1.7,0,3.1-1.4,3.1-3.1l0,0c0-1.7-1.3-3-2.9-3c0,0-0.1,0-0.1,0l0,0c-1.7-0.1-3.1,1.2-3.2,2.9
	s1.2,3.1,2.9,3.2C440.4,335.8,440.5,335.8,440.6,335.8L440.6,335.8z"/>
<path class="st3" d="M425.4,351.1c1.7-0.1,3-1.5,2.9-3.2c-0.1-1.6-1.3-2.8-2.9-2.9l0,0c-1.7,0.1-3,1.5-2.9,3.2
	C422.6,349.7,423.8,351,425.4,351.1z"/>
<path class="st3" d="M455.9,351.1c1.7-0.1,3-1.5,2.9-3.2c-0.1-1.6-1.3-2.8-2.9-2.9l0,0c-1.7,0.1-3,1.5-2.9,3.2
	C453.1,349.7,454.4,351,455.9,351.1z"/>
<path class="st3" d="M425.4,320.5c1.7-0.1,3-1.5,2.9-3.2c-0.1-1.6-1.3-2.8-2.9-2.9l0,0c-1.7,0.1-3,1.5-2.9,3.2
	C422.6,319.2,423.8,320.4,425.4,320.5z"/>
<path class="st3" d="M455.9,320.5c1.7-0.1,3-1.5,2.9-3.2c-0.1-1.6-1.3-2.8-2.9-2.9l0,0c-1.7,0.1-3,1.5-2.9,3.2
	C453.1,319.2,454.4,320.4,455.9,320.5z"/>
<path class="st3" d="M410.1,366.3c1.7,0,3-1.3,3-2.9c0,0,0,0,0-0.1l0,0c0-0.2,0-0.4-0.1-0.6c-0.3-1.7-1.9-2.7-3.6-2.4
	c-1.2,0.2-2.2,1.2-2.4,2.4c0,0.2-0.1,0.4-0.1,0.6c0,1.2,0.7,2.3,1.9,2.8C409.3,366.3,409.7,366.4,410.1,366.3z"/>
<path class="st3" d="M408.4,335.3c1.4,0.9,3.3,0.6,4.3-0.8c0.3-0.5,0.5-1.1,0.5-1.7c0-1.7-1.4-3.1-3.1-3.1c-1.7,0-3.1,1.4-3.1,3.1
	C407,333.7,407.5,334.7,408.4,335.3z"/>
<path class="st3" d="M471.2,305.2c1.7,0,3.1-1.4,3.1-3.1c0-1.7-1.4-3.1-3.1-3.1c-1.7,0-3.1,1.4-3.1,3.1c0,0,0,0,0,0.1
	C468.2,303.9,469.5,305.2,471.2,305.2z"/>
<path class="st3" d="M428.4,378.6c0-1.7-1.3-3-3-3.1l0,0c-1.7,0-3.1,1.4-3.1,3.1s1.4,3.1,3.1,3.1
	C427.1,381.6,428.5,380.3,428.4,378.6L428.4,378.6L428.4,378.6z"/>
<path class="st3" d="M459,378.6c0-1.7-1.4-3.1-3-3.1l0,0c-1.7,0-3.1,1.4-3.1,3.1s1.4,3.1,3.1,3.1C457.6,381.6,459,380.3,459,378.6
	L459,378.6L459,378.6z"/>
<path class="st3" d="M471.2,366.3c1.7,0,3.1-1.4,3.1-3c0,0,0,0,0,0c0-0.2,0-0.4-0.1-0.6c-0.3-1.7-1.9-2.8-3.5-2.5
	c-1.2,0.2-2.2,1.2-2.5,2.5c0,0.2-0.1,0.4-0.1,0.6C468.1,365,469.5,366.3,471.2,366.3C471.2,366.3,471.2,366.3,471.2,366.3z"/>
<path class="st3" d="M376.7,59c0.6,1.5,2.4,2.3,3.9,1.7c0,0,0.1,0,0.1,0c0.7-0.3,1.3-0.9,1.6-1.6c0.2-0.4,0.3-0.8,0.3-1.2
	c0-0.4-0.1-0.8-0.3-1.2h-5.6c-0.2,0.4-0.3,0.8-0.3,1.2C376.5,58.2,376.6,58.6,376.7,59z"/>
<path class="st3" d="M346.4,59.5c0.9,1.4,2.8,1.8,4.3,0.8c0.8-0.6,1.3-1.5,1.3-2.5c0-0.4-0.1-0.8-0.3-1.2h-5.6
	C345.7,57.5,345.9,58.6,346.4,59.5z"/>
<path class="st3" d="M379.5,121.9c1.7,0,3-1.3,3.1-3c0-0.2,0-0.4-0.1-0.6c-0.3-1.7-1.9-2.8-3.5-2.5c-1.2,0.2-2.2,1.2-2.5,2.5
	c0,0.2-0.1,0.4-0.1,0.6C376.5,120.6,377.8,121.9,379.5,121.9C379.5,121.9,379.5,121.9,379.5,121.9z"/>
<path class="st3" d="M379.5,91.4c1.7,0,3-1.4,3-3s-1.4-3.1-3-3.1l0,0c-1.7,0-3,1.4-3,3.1S377.9,91.4,379.5,91.4L379.5,91.4z"/>
<path class="st3" d="M364.2,106.7c1.7,0.1,3.1-1.2,3.2-2.9c0.1-1.7-1.2-3.1-2.9-3.2c-0.1,0-0.2,0-0.3,0l0,0c-1.7,0.1-3,1.5-2.9,3.2
	C361.5,105.3,362.7,106.6,364.2,106.7z"/>
<path class="st3" d="M394.8,106.7c1.7-0.1,3-1.5,2.9-3.2c-0.1-1.6-1.3-2.8-2.9-2.9l0,0c-1.7,0.1-3,1.5-2.9,3.2
	C392,105.3,393.3,106.6,394.8,106.7z"/>
<path class="st3" d="M364.2,76.1c1.7,0,3.1-1.4,3.1-3.1l0,0c0-1.7-1.4-3-3-3l0,0c-1.7-0.1-3.1,1.2-3.2,2.9c-0.1,1.7,1.2,3.1,2.9,3.2
	C364,76.2,364.1,76.2,364.2,76.1L364.2,76.1z"/>
<path class="st3" d="M394.8,76.1c1.7-0.1,3-1.5,2.9-3.2c-0.1-1.6-1.3-2.8-2.9-2.9l0,0c-1.7-0.1-3.1,1.2-3.2,2.9
	c-0.1,1.7,1.2,3.1,2.9,3.2C394.6,76.1,394.7,76.1,394.8,76.1z"/>
<path class="st3" d="M349,121.9c1.7,0,3-1.3,3-2.9c0,0,0,0,0-0.1c0-0.2,0-0.4-0.1-0.6c-0.3-1.7-1.9-2.8-3.5-2.5
	c-1.2,0.2-2.2,1.2-2.5,2.5c0,0.2-0.1,0.4-0.1,0.6C346,120.6,347.3,121.9,349,121.9z"/>
<path class="st3" d="M349,91.4c1.7,0,3-1.4,3-3s-1.4-3.1-3-3.1l0,0c-1.7,0-3,1.4-3,3.1S347.3,91.4,349,91.4z"/>
<path class="st3" d="M377.8,177.5c-1.4,0.9-1.7,2.8-0.8,4.2c0.9,1.4,2.8,1.7,4.2,0.8c1.3-0.9,1.7-2.7,0.8-4.1
	C381.2,176.9,379.3,176.5,377.8,177.5C377.9,177.4,377.9,177.4,377.8,177.5z"/>
<path class="st3" d="M379.5,152.5c1.7-0.1,3-1.5,2.9-3.2c-0.1-1.6-1.3-2.8-2.9-2.9l0,0c-1.7,0.1-3,1.5-2.9,3.2
	C376.7,151.2,378,152.4,379.5,152.5z"/>
<path class="st3" d="M364.2,167.8c1.7,0,3-1.3,3.1-2.9c0,0,0-0.1,0-0.1l0,0c0-1.7-1.4-3.1-3-3.1l0,0c-1.7-0.1-3.1,1.2-3.2,2.9
	c-0.1,1.7,1.2,3.1,2.9,3.2C364,167.8,364.1,167.8,364.2,167.8L364.2,167.8z"/>
<path class="st3" d="M394.8,167.8c1.7-0.1,3-1.5,2.9-3.2c-0.1-1.6-1.3-2.8-2.9-2.9l0,0c-1.7,0.1-3,1.5-2.9,3.2
	C392,166.4,393.3,167.7,394.8,167.8z"/>
<path class="st3" d="M364.2,137.2c1.7,0.1,3.1-1.2,3.2-2.9c0.1-1.7-1.2-3.1-2.9-3.2c-0.1,0-0.2,0-0.3,0l0,0c-1.7,0.1-3,1.5-2.9,3.2
	C361.5,135.9,362.7,137.1,364.2,137.2z"/>
<path class="st3" d="M394.8,137.2c1.7-0.1,3-1.5,2.9-3.2c-0.1-1.6-1.3-2.8-2.9-2.9l0,0c-1.7,0.1-3,1.5-2.9,3.2
	C392,135.9,393.3,137.1,394.8,137.2z"/>
<path class="st3" d="M350.2,182.8c1.5-0.6,2.3-2.4,1.6-3.9c0,0,0-0.1,0-0.1c-0.1-0.2-0.2-0.3-0.3-0.5l0,0c-1-1.4-2.9-1.8-4.3-0.8
	c-0.8,0.6-1.3,1.5-1.3,2.5c0,0.4,0.1,0.8,0.2,1.2C346.8,182.7,348.6,183.4,350.2,182.8C350.2,182.8,350.2,182.8,350.2,182.8z"/>
<path class="st3" d="M349,152.5c1.7,0,3-1.4,3-3.1l0,0c0-1.7-1.3-3-3-3c0,0,0,0-0.1,0l0,0c-1.7-0.1-3.1,1.2-3.2,2.9
	c-0.1,1.7,1.2,3.1,2.9,3.2C348.7,152.5,348.9,152.5,349,152.5L349,152.5z"/>
<path class="st3" d="M379.5,238c-1.5,0-2.7,1-3,2.4c0,0.2-0.1,0.4-0.1,0.6c-0.1,1.7,1.2,3.1,2.9,3.2c1.7,0.1,3.1-1.2,3.2-2.9
	c0-0.1,0-0.2,0-0.3c0-0.2,0-0.4-0.1-0.6C382.2,239.1,381,238,379.5,238z"/>
<path class="st3" d="M379.5,213.6c1.7,0,3-1.3,3.1-3l0,0c0-1.7-1.4-3-3-3l0,0c-1.7-0.1-3.1,1.2-3.2,2.9c-0.1,1.7,1.2,3.1,2.9,3.2
	c0.1,0,0.2,0,0.3,0L379.5,213.6z"/>
<path class="st3" d="M364.2,228.9c1.7,0,3.1-1.4,3.1-3.1l0,0c0-1.7-1.4-3.1-3-3.1l0,0c-1.7,0-3.1,1.4-3.1,3.1
	C361.2,227.5,362.6,228.9,364.2,228.9L364.2,228.9z"/>
<path class="st3" d="M394.8,228.9c1.7,0,3.1-1.4,3.1-3.1c0-1.7-1.4-3.1-3.1-3.1l0,0c-1.7,0-3.1,1.4-3.1,3.1
	C391.8,227.5,393.1,228.9,394.8,228.9z"/>
<path class="st3" d="M364.2,192.2L364.2,192.2c-1.7,0-3.1,1.4-3.1,3.1c0,1.7,1.4,3.1,3.1,3.1c1.7,0,3.1-1.4,3.1-3.1l0,0l0,0
	C367.3,193.6,365.9,192.2,364.2,192.2z"/>
<path class="st3" d="M394.8,192.2c-1.7,0-3.1,1.4-3.1,3.1c0,1.7,1.4,3.1,3.1,3.1c1.7,0,3.1-1.4,3.1-3.1l0,0
	C397.9,193.6,396.5,192.2,394.8,192.2z"/>
<path class="st3" d="M349,238c-1.5,0-2.7,1-3,2.4c0,0.2-0.1,0.4-0.1,0.6c-0.1,1.7,1.2,3.1,2.9,3.2c1.7,0.1,3.1-1.2,3.2-2.9
	c0-0.1,0-0.2,0-0.3c0-0.2,0-0.4-0.1-0.6C351.7,239.1,350.5,238,349,238z"/>
<path class="st3" d="M349,213.6c1.7,0,3-1.3,3.1-3l0,0c0-1.7-1.3-3.1-3-3.1s-3.1,1.3-3.1,3C345.9,212.1,347.3,213.5,349,213.6
	C349,213.6,349,213.6,349,213.6z"/>
<path class="st3" d="M377.8,299.7c-1.4,0.9-1.8,2.8-0.8,4.2c0.9,1.4,2.8,1.8,4.2,0.8c0.5-0.3,0.9-0.8,1.1-1.3
	c0.2-0.4,0.3-0.8,0.3-1.2c0-1.7-1.4-3.1-3-3.1C378.9,299.1,378.3,299.3,377.8,299.7z"/>
<path class="st3" d="M379.5,274.7c1.7,0,3.1-1.4,3.1-3.1l0,0c0-1.7-1.4-3.1-3-3.1l0,0c-1.7,0-3.1,1.4-3.1,3.1
	C376.5,273.3,377.9,274.7,379.5,274.7L379.5,274.7z"/>
<path class="st3" d="M364.2,283.9c-1.7,0-3.1,1.4-3.1,3.1c0,1.7,1.4,3.1,3.1,3.1c1.7,0,3.1-1.4,3.1-3.1l0,0
	C367.3,285.2,365.9,283.9,364.2,283.9z"/>
<path class="st3" d="M394.8,283.9c-1.7,0-3.1,1.4-3.1,3.1c0,1.7,1.4,3.1,3.1,3.1c1.7,0,3.1-1.4,3.1-3.1l0,0
	C397.9,285.2,396.5,283.9,394.8,283.9z"/>
<path class="st3" d="M364.2,259.4c1.7,0,3.1-1.4,3.1-3.1l0,0c0-1.7-1.4-3.1-3-3.1l0,0c-1.7,0-3.1,1.4-3.1,3.1
	C361.2,258.1,362.6,259.4,364.2,259.4L364.2,259.4z"/>
<path class="st3" d="M394.8,259.4c1.7,0,3.1-1.4,3.1-3.1c0-1.7-1.4-3.1-3.1-3.1l0,0c-1.7,0-3.1,1.4-3.1,3.1
	C391.8,258.1,393.1,259.4,394.8,259.4z"/>
<path class="st3" d="M347.3,299.7c-1.4,0.9-1.9,2.8-1,4.2c0.9,1.4,2.8,1.9,4.2,1c0.1,0,0.1-0.1,0.2-0.1c0.5-0.3,0.9-0.8,1.1-1.3
	c0.2-0.4,0.2-0.8,0.2-1.2c0-0.6-0.2-1.2-0.5-1.7C350.6,299.1,348.7,298.7,347.3,299.7z"/>
<path class="st3" d="M349,274.7c1.7,0,3.1-1.4,3.1-3.1l0,0c0-1.7-1.4-3.1-3-3.1c0,0,0,0,0,0l0,0c-1.7,0-3.1,1.4-3.1,3.1
	C346,273.3,347.3,274.7,349,274.7z"/>
<path class="st3" d="M382.6,363.3c0-0.2,0-0.4-0.1-0.6c-0.3-1.7-1.9-2.8-3.5-2.5c-1.2,0.2-2.2,1.2-2.5,2.5c0,0.2-0.1,0.4-0.1,0.6
	c-0.1,1.7,1.2,3.1,2.9,3.2s3.1-1.2,3.2-2.9C382.6,363.5,382.6,363.4,382.6,363.3L382.6,363.3z"/>
<path class="st3" d="M379.5,335.8c1.7,0,3.1-1.4,3.1-3.1l0,0c0-1.7-1.3-3-2.9-3c0,0-0.1,0-0.1,0l0,0c-1.7-0.1-3.1,1.2-3.2,2.9
	s1.2,3.1,2.9,3.2C379.3,335.8,379.4,335.8,379.5,335.8L379.5,335.8z"/>
<path class="st3" d="M364.2,351.1c1.7,0,3.1-1.4,3.1-3c0,0,0,0,0,0l0,0c0-1.7-1.4-3.1-3-3.1c-1.7,0-3.1,1.4-3.1,3
	S362.5,351.1,364.2,351.1C364.2,351.1,364.2,351.1,364.2,351.1z"/>
<path class="st3" d="M394.8,351.1c1.7-0.1,3-1.5,2.9-3.2c-0.1-1.6-1.3-2.8-2.9-2.9l0,0c-1.7,0.1-3,1.5-2.9,3.2
	C392,349.7,393.3,351,394.8,351.1z"/>
<path class="st3" d="M364.2,320.5c1.7,0,3.1-1.4,3.1-3c0,0,0,0,0,0l0,0c0-1.7-1.4-3.1-3-3.1l0,0c-1.7-0.1-3.1,1.2-3.2,2.9
	s1.2,3.1,2.9,3.2C364,320.5,364.1,320.5,364.2,320.5L364.2,320.5z"/>
<path class="st3" d="M394.8,320.5c1.7-0.1,3-1.5,2.9-3.2c-0.1-1.6-1.3-2.8-2.9-2.9l0,0c-1.7,0.1-3,1.5-2.9,3.2
	C392,319.2,393.3,320.4,394.8,320.5z"/>
<path class="st3" d="M352,363.3c0-0.2,0-0.4-0.1-0.6c-0.3-1.7-1.9-2.8-3.5-2.5c-1.2,0.2-2.2,1.2-2.5,2.5c0,0.2-0.1,0.4-0.1,0.6
	c-0.1,1.7,1.2,3.1,2.9,3.2s3.1-1.2,3.2-2.9C352,363.5,352,363.4,352,363.3L352,363.3z"/>
<path class="st3" d="M349,335.8c1.7,0,3.1-1.4,3.1-3l0,0c0-1.7-1.3-3-2.9-3c0,0-0.1,0-0.1,0l0,0c-1.7-0.1-3.1,1.2-3.2,2.9
	s1.2,3.1,2.9,3.2C348.8,335.8,348.9,335.8,349,335.8L349,335.8z"/>
<path class="st3" d="M364.3,375.5L364.3,375.5c-0.7,0-1.3,0.2-1.9,0.6c1.5,0.4,3,0.7,4.6,1C366.5,376.1,365.4,375.5,364.3,375.5z"/>
<path class="st3" d="M397.9,378.6c0-1.7-1.3-3-3-3.1l0,0c-1.7,0-3.1,1.4-3.1,3.1s1.4,3.1,3.1,3.1
	C396.5,381.6,397.9,380.3,397.9,378.6L397.9,378.6L397.9,378.6z"/>
<path class="st3" d="M287.9,60.8L287.9,60.8c0.2,0,0.4,0,0.6-0.1c1-0.2,1.8-0.9,2.2-1.8c0.3-0.8,0.3-1.6,0-2.4h-5.6
	c-0.2,0.4-0.2,0.8-0.3,1.2C284.9,59.5,286.2,60.8,287.9,60.8z"/>
<path class="st3" d="M318.4,91.4c1.7,0,3-1.4,3-3s-1.4-3.1-3-3.1l0,0c-1.7,0-3,1.4-3,3.1S316.7,91.4,318.4,91.4L318.4,91.4z"/>
<path class="st3" d="M303.1,106.7c1.7,0.1,3.1-1.2,3.2-2.9c0.1-1.7-1.2-3.1-2.9-3.2c-0.1,0-0.2,0-0.3,0l0,0c-1.7,0.1-3,1.5-2.9,3.2
	C300.4,105.3,301.6,106.6,303.1,106.7z"/>
<path class="st3" d="M333.7,106.7c1.7-0.1,3-1.5,2.9-3.2c-0.1-1.6-1.3-2.8-2.9-2.9l0,0c-1.7,0.1-3,1.5-2.9,3.2
	C330.9,105.3,332.2,106.6,333.7,106.7z"/>
<path class="st3" d="M303.1,76.1c1.7,0,3.1-1.4,3.1-3.1l0,0c0-1.7-1.4-3-3-3l0,0c-1.7-0.1-3.1,1.2-3.2,2.9c-0.1,1.7,1.2,3.1,2.9,3.2
	C302.9,76.2,303,76.2,303.1,76.1L303.1,76.1z"/>
<path class="st3" d="M333.7,76.1c1.7-0.1,3-1.5,2.9-3.2c-0.1-1.6-1.3-2.8-2.9-2.9l0,0c-1.7,0.1-3,1.5-2.9,3.2
	C330.9,74.8,332.2,76,333.7,76.1z"/>
<path class="st3" d="M288.5,115.9c-0.2,0-0.4-0.1-0.6-0.1c-1.5,0-2.7,1-3,2.4c0,0.2-0.1,0.4-0.1,0.6c0,1.7,1.4,3,3.1,3l0,0
	c0.2,0,0.4,0,0.6-0.1c1.4-0.3,2.4-1.5,2.4-3c0-0.2,0-0.4-0.1-0.6C290.6,117,289.7,116.1,288.5,115.9z"/>
<path class="st3" d="M286.7,91.1c0.4,0.2,0.8,0.2,1.2,0.2c0.2,0,0.4,0,0.6-0.1c1.7-0.3,2.8-1.9,2.5-3.5c-0.2-1.2-1.2-2.2-2.5-2.5
	l0,0c-0.2,0-0.4-0.1-0.6-0.1c-0.4,0-0.8,0.1-1.2,0.2c-1.6,0.6-2.3,2.3-1.8,3.9C285.2,90.2,285.9,90.8,286.7,91.1L286.7,91.1z"/>
<path class="st3" d="M315.6,59c0.7,1.6,2.4,2.3,4,1.6c1.1-0.5,1.9-1.6,1.9-2.8c0-0.4-0.1-0.8-0.3-1.2h-5.6c-0.2,0.4-0.3,0.8-0.3,1.2
	C315.4,58.2,315.5,58.6,315.6,59z"/>
<path class="st3" d="M318.4,152.5c1.7,0,3-1.4,3-3.1l0,0c0-1.7-1.3-3-3-3l0,0c-1.7-0.1-3.1,1.2-3.2,2.9c-0.1,1.7,1.2,3.1,2.9,3.2
	C318.2,152.5,318.3,152.5,318.4,152.5L318.4,152.5z"/>
<path class="st3" d="M303.1,167.8c1.7,0,3-1.3,3.1-2.9c0,0,0-0.1,0-0.1l0,0c0-1.7-1.4-3.1-3-3.1l0,0c-1.7-0.1-3.1,1.2-3.2,2.9
	c-0.1,1.7,1.2,3.1,2.9,3.2C302.9,167.8,303,167.8,303.1,167.8L303.1,167.8z"/>
<path class="st3" d="M333.7,167.8c1.7-0.1,3-1.5,2.9-3.2c-0.1-1.6-1.3-2.8-2.9-2.9l0,0c-1.7,0.1-3,1.5-2.9,3.2
	C330.9,166.4,332.2,167.7,333.7,167.8z"/>
<path class="st3" d="M303.1,137.2c1.7,0.1,3.1-1.2,3.2-2.9c0.1-1.7-1.2-3.1-2.9-3.2c-0.1,0-0.2,0-0.3,0l0,0c-1.7,0.1-3,1.5-2.9,3.2
	C300.4,135.9,301.6,137.1,303.1,137.2z"/>
<path class="st3" d="M333.7,137.2c1.7-0.1,3-1.5,2.9-3.2c-0.1-1.6-1.3-2.8-2.9-2.9l0,0c-1.7,0.1-3,1.5-2.9,3.2
	C330.9,135.9,332.2,137.1,333.7,137.2z"/>
<path class="st3" d="M285,181.2c0.3,0.7,0.9,1.3,1.6,1.6c0.4,0.2,0.8,0.2,1.2,0.2c0.2,0,0.4,0,0.6-0.1c1.7-0.3,2.7-1.9,2.4-3.6
	c-0.2-1.2-1.2-2.2-2.4-2.4c-0.2,0-0.4-0.1-0.6-0.1c-1.7,0-3.1,1.4-3.1,3.1C284.8,180.4,284.9,180.8,285,181.2z"/>
<path class="st3" d="M287.9,152.5c0.2,0,0.4,0,0.6-0.1c1.7-0.3,2.7-1.9,2.4-3.6c-0.2-1.2-1.2-2.2-2.4-2.4l0,0
	c-0.2,0-0.4-0.1-0.6-0.1c-1.7-0.1-3.1,1.2-3.2,2.9c-0.1,1.7,1.2,3.1,2.9,3.2C287.6,152.5,287.8,152.5,287.9,152.5L287.9,152.5z"/>
<path class="st3" d="M317.8,115.9c-1.2,0.3-2.1,1.2-2.4,2.4c0,0.2-0.1,0.4-0.1,0.6c0,1.7,1.3,3,3,3c0,0,0,0,0.1,0l0,0
	c1.7,0,3-1.3,3-3l0,0c0-0.2,0-0.4-0.1-0.6C321,116.6,319.4,115.6,317.8,115.9z"/>
<path class="st3" d="M318.4,213.6c1.7,0.1,3.1-1.2,3.2-2.9c0.1-1.7-1.2-3.1-2.9-3.2c-0.1,0-0.2,0-0.3,0l0,0
	c-1.7-0.1-3.1,1.2-3.2,2.9c-0.1,1.7,1.2,3.1,2.9,3.2C318.2,213.6,318.3,213.6,318.4,213.6z"/>
<path class="st3" d="M303.2,228.9c1.7,0,3.1-1.4,3.1-3.1c0-1.7-1.4-3.1-3.1-3.1l0,0c-1.7,0-3.1,1.4-3.1,3.1
	C300.1,227.5,301.5,228.9,303.2,228.9z"/>
<path class="st3" d="M333.7,228.9c1.7,0,3.1-1.4,3.1-3.1c0-1.7-1.4-3.1-3.1-3.1l0,0c-1.7,0-3.1,1.4-3.1,3.1
	C330.7,227.5,332,228.9,333.7,228.9z"/>
<path class="st3" d="M303.1,198.3c1.7,0,3-1.3,3.1-3l0,0c0-1.7-1.4-3.1-3-3.1l0,0c-1.7,0.1-3,1.5-2.9,3.2
	C300.4,197,301.6,198.3,303.1,198.3L303.1,198.3z"/>
<path class="st3" d="M333.7,192.2c-1.7,0-3.1,1.4-3.1,3.1c0,1.7,1.4,3.1,3.1,3.1c1.7,0,3.1-1.4,3.1-3.1l0,0
	C336.8,193.6,335.4,192.2,333.7,192.2z"/>
<path class="st3" d="M290.9,240.5c-0.2-1.2-1.2-2.1-2.4-2.4c-0.2,0-0.4-0.1-0.6-0.1c-0.4,0-0.8,0.1-1.2,0.2
	c-0.9,0.4-1.6,1.2-1.8,2.2c0,0.2-0.1,0.4-0.1,0.6c0,1.7,1.4,3.1,3.1,3.1c0.2,0,0.4,0,0.6-0.1c1.4-0.3,2.5-1.5,2.4-3
	C290.9,240.9,290.9,240.7,290.9,240.5z"/>
<path class="st3" d="M286.7,213.4c0.4,0.2,0.8,0.2,1.2,0.2c0.2,0,0.4,0,0.6-0.1c1.7-0.3,2.7-1.9,2.4-3.6c-0.2-1.2-1.2-2.2-2.4-2.4
	l0,0c-0.2,0-0.4-0.1-0.6-0.1c-1.7,0-3.1,1.3-3.1,3C284.8,211.7,285.5,212.9,286.7,213.4L286.7,213.4z"/>
<path class="st3" d="M318.4,177c-1.7,0-3,1.3-3,3c0,0,0,0,0,0.1c0,1.7,1.4,3,3,3c1.7,0,3-1.4,3-3c0-1.7-1.3-3-2.9-3.1
	C318.5,177,318.4,177,318.4,177z"/>
<path class="st3" d="M318.4,274.7c1.7,0,3.1-1.4,3.1-3.1l0,0c0-1.7-1.3-3-2.9-3.1c0,0,0,0-0.1,0l0,0c-1.7,0-3.1,1.4-3.1,3.1
	C315.4,273.3,316.8,274.7,318.4,274.7L318.4,274.7z"/>
<path class="st3" d="M303.1,283.9c-1.7,0-3.1,1.4-3.1,3.1c0,1.7,1.4,3.1,3.1,3.1c1.7,0,3.1-1.4,3.1-3.1l0,0
	C306.2,285.2,304.8,283.9,303.1,283.9z"/>
<path class="st3" d="M333.7,283.9c-1.7,0-3.1,1.4-3.1,3.1c0,1.7,1.4,3.1,3.1,3.1c1.7,0,3.1-1.4,3.1-3.1l0,0
	C336.8,285.2,335.4,283.9,333.7,283.9z"/>
<path class="st3" d="M303.1,259.4c1.7,0,3.1-1.4,3.1-3.1l0,0c0-1.7-1.4-3-3-3.1l0,0c-1.7,0-3.1,1.4-3.1,3.1
	C300.1,258.1,301.5,259.4,303.1,259.4L303.1,259.4z"/>
<path class="st3" d="M333.7,259.4c1.7,0,3.1-1.4,3.1-3.1c0-1.7-1.4-3.1-3.1-3.1l0,0c-1.7,0-3.1,1.4-3.1,3.1
	C330.7,258.1,332,259.4,333.7,259.4z"/>
<path class="st3" d="M286.7,305c0.4,0.2,0.8,0.2,1.2,0.2c0.2,0,0.4,0,0.6-0.1c1.6-0.3,2.7-1.9,2.4-3.5c-0.1-0.4-0.3-0.9-0.5-1.2l0,0
	c-0.4-0.7-1.1-1.1-1.9-1.3c-0.2,0-0.4-0.1-0.6-0.1c-1,0-2,0.5-2.5,1.4c-0.3,0.5-0.5,1.1-0.5,1.7C284.8,303.4,285.5,304.5,286.7,305z
	"/>
<path class="st3" d="M287.9,274.7c0.2,0,0.4,0,0.6-0.1c1.7-0.3,2.7-1.9,2.4-3.6c-0.2-1.2-1.2-2.2-2.4-2.4l0,0
	c-0.2,0-0.4-0.1-0.6-0.1c-1.7,0-3.1,1.4-3.1,3.1C284.8,273.3,286.2,274.7,287.9,274.7L287.9,274.7z"/>
<path class="st3" d="M317.8,238.1c-1.7,0.4-2.7,2-2.3,3.6c0.3,1.4,1.5,2.4,3,2.4l0,0c1.7,0,3-1.4,3.1-3.1l0,0c0-0.2,0-0.4-0.1-0.6
	C321.1,238.8,319.5,237.8,317.8,238.1C317.8,238.1,317.8,238.1,317.8,238.1z"/>
<path class="st3" d="M318.4,335.8c1.7,0,3.1-1.4,3.1-3l0,0c0-1.7-1.3-3-2.9-3c0,0,0,0-0.1,0l0,0c-1.7-0.1-3.1,1.2-3.2,2.9
	s1.2,3.1,2.9,3.2C318.2,335.8,318.4,335.8,318.4,335.8L318.4,335.8z"/>
<path class="st3" d="M303.1,351.1c1.7,0,3.1-1.4,3.1-3c0,0,0,0,0,0l0,0c0-1.7-1.4-3.1-3-3.1c-1.7,0-3.1,1.4-3.1,3
	S301.4,351.1,303.1,351.1C303.1,351.1,303.1,351.1,303.1,351.1z"/>
<path class="st3" d="M333.7,351.1c1.7-0.1,3-1.5,2.9-3.2c-0.1-1.6-1.3-2.8-2.9-2.9l0,0c-1.7,0.1-3,1.5-2.9,3.2
	C330.9,349.7,332.2,351,333.7,351.1z"/>
<path class="st3" d="M303.1,320.5c1.7,0,3.1-1.4,3.1-3c0,0,0,0,0,0l0,0c0-1.7-1.4-3.1-3-3.1l0,0c-1.7-0.1-3.1,1.2-3.2,2.9
	s1.2,3.1,2.9,3.2C302.9,320.5,303,320.5,303.1,320.5L303.1,320.5z"/>
<path class="st3" d="M333.7,320.5c1.7-0.1,3-1.5,2.9-3.2c-0.1-1.6-1.3-2.8-2.9-2.9l0,0c-1.7,0.1-3,1.5-2.9,3.2
	C330.9,319.2,332.2,320.4,333.7,320.5z"/>
<path class="st3" d="M287.9,335.8c0.2,0,0.4,0,0.6-0.1c1.7-0.3,2.7-1.9,2.4-3.6c-0.2-1.2-1.2-2.2-2.4-2.4l0,0
	c-0.2,0-0.4-0.1-0.6-0.1c-1.7,0.1-3,1.5-2.9,3.2C285.1,334.5,286.3,335.7,287.9,335.8L287.9,335.8z"/>
<path class="st3" d="M318.4,299.2c-1.7,0-3,1.3-3,3c0,0,0,0,0,0.1c0,0.4,0.1,0.8,0.2,1.2c0.7,1.5,2.5,2.2,4,1.5
	c1.5-0.7,2.2-2.5,1.5-4C320.6,299.9,319.6,299.2,318.4,299.2L318.4,299.2z"/>
<path class="st3" d="M321.5,363.3c0-0.2,0-0.4-0.1-0.6c-0.3-1.6-2-2.7-3.6-2.4c-0.6,0.1-1.2,0.5-1.6,0.9c1.8,0.7,3.5,1.5,5.3,2.2
	C321.5,363.4,321.5,363.3,321.5,363.3L321.5,363.3z"/>
<path class="st3" d="M254.8,59.5c0.9,1.4,2.8,1.8,4.2,0.8c0.5-0.3,0.9-0.8,1.1-1.3c0.3-0.8,0.3-1.6,0-2.4h-5.6
	C254.1,57.5,254.2,58.6,254.8,59.5z"/>
<path class="st3" d="M257.3,115.8c-1.4,0-2.7,1-3,2.4c0,0.2,0,0.4,0,0.6c0,1.7,1.4,3.1,3,3.1c1.7,0,3.1-1.4,3.1-3.1
	c0-0.2,0-0.4-0.1-0.6C260,116.8,258.8,115.8,257.3,115.8z"/>
<path class="st3" d="M257.3,91.4c1.7,0,3-1.4,3-3s-1.4-3.1-3-3.1l0,0c-1.7,0-3,1.4-3,3.1S255.6,91.4,257.3,91.4z"/>
<path class="st3" d="M245.1,103.6c0-1.7-1.4-3-3.1-3l0,0c-0.3,0-0.6,0.1-0.9,0.1c0.4,2,0.8,4,1.1,5.9
	C243.9,106.6,245.2,105.2,245.1,103.6z"/>
<path class="st3" d="M272.6,106.7c1.7-0.1,3-1.5,2.9-3.2c-0.1-1.6-1.3-2.8-2.9-2.9l0,0c-1.7,0.1-3,1.5-2.9,3.2
	C269.8,105.3,271.1,106.6,272.6,106.7z"/>
<path class="st3" d="M242,70L242,70c-1.7,0-3.1,1.4-3.1,3.1c0,1.7,1.4,3.1,3.1,3.1s3.1-1.4,3.1-3.1c0,0,0,0,0-0.1l0,0
	C245,71.3,243.7,70,242,70z"/>
<path class="st3" d="M272.6,76.1c1.7,0.1,3.1-1.2,3.2-2.9c0.1-1.7-1.2-3.1-2.9-3.2c-0.1,0-0.2,0-0.3,0l0,0c-1.7,0.1-3,1.5-2.9,3.2
	C269.8,74.8,271,76,272.6,76.1z"/>
<path class="st3" d="M255.6,177.5c-0.8,0.6-1.4,1.5-1.3,2.5c0,0.4,0.1,0.8,0.2,1.2c0.6,1.6,2.4,2.3,4,1.7c1.2-0.5,1.9-1.6,1.9-2.8
	c0-0.6-0.2-1.2-0.5-1.7C258.9,176.9,257,176.5,255.6,177.5z"/>
<path class="st3" d="M257.3,152.5c1.7,0,3-1.4,3.1-3.1c0,0,0,0,0,0l0,0c0-1.7-1.3-3-3-3c0,0,0,0-0.1,0l0,0c-1.7-0.1-3.1,1.2-3.2,2.9
	c-0.1,1.7,1.2,3.1,2.9,3.2C257.1,152.5,257.2,152.5,257.3,152.5L257.3,152.5z"/>
<path class="st3" d="M272.6,167.8c1.7,0.1,3.1-1.2,3.2-2.9c0.1-1.7-1.2-3.1-2.9-3.2c-0.1,0-0.2,0-0.3,0l0,0c-1.7,0.1-3,1.5-2.9,3.2
	C269.8,166.4,271,167.7,272.6,167.8z"/>
<path class="st3" d="M272.6,137.2c1.7-0.1,3-1.5,2.9-3.2c-0.1-1.6-1.3-2.8-2.9-2.9l0,0c-1.7,0.1-3,1.5-2.9,3.2
	C269.8,135.9,271.1,137.1,272.6,137.2z"/>
<path class="st3" d="M257.3,238c-1.5,0-2.7,1-3,2.4c0,0.2,0,0.4,0,0.6c0,1.7,1.4,3,3,3c1.7,0,3.1-1.4,3.1-3l0,0c0-0.2,0-0.4-0.1-0.6
	C260,239,258.8,238,257.3,238z"/>
<path class="st3" d="M257.3,213.6c1.7,0,3-1.3,3.1-3l0,0c0-1.7-1.3-3-3-3c0,0,0,0-0.1,0l0,0c-1.7,0.1-3,1.5-2.9,3.2
	c0.1,1.6,1.3,2.8,2.9,2.9L257.3,213.6z"/>
<path class="st3" d="M242,228.9c1.7,0,3.1-1.4,3.1-3.1l0,0c0-1.7-1.3-3-3-3.1l0,0c-1.7,0-3.1,1.4-3.1,3.1
	C239,227.5,240.4,228.9,242,228.9L242,228.9z"/>
<path class="st3" d="M272.6,228.9c1.7,0,3.1-1.4,3.1-3.1c0-1.7-1.4-3.1-3.1-3.1l0,0c-1.7,0-3.1,1.4-3.1,3.1
	C269.5,227.5,270.9,228.9,272.6,228.9z"/>
<path class="st3" d="M272.6,192.2c-1.7,0-3.1,1.4-3.1,3.1c0,1.7,1.4,3.1,3.1,3.1c1.7,0,3.1-1.4,3.1-3.1l0,0
	C275.7,193.6,274.3,192.2,272.6,192.2z"/>
<path class="st3" d="M226.8,244.1c1.7,0,3.1-1.4,3.1-3.1c0-0.2,0-0.4-0.1-0.6c-0.3-1.7-1.9-2.7-3.6-2.4c-1.2,0.2-2.2,1.2-2.4,2.4
	c0,0.2-0.1,0.4-0.1,0.6C223.7,242.8,225.1,244.1,226.8,244.1C226.8,244.1,226.8,244.1,226.8,244.1z"/>
<path class="st3" d="M259,304.7c1.4-0.9,1.8-2.8,0.8-4.2c-0.9-1.4-2.8-1.8-4.2-0.8c-1.4,0.9-1.8,2.8-0.8,4.2
	C255.7,305.3,257.6,305.7,259,304.7z"/>
<path class="st3" d="M257.3,274.7c1.7,0,3.1-1.4,3.1-3.1l0,0c0-1.7-1.3-3-2.9-3.1c0,0,0,0-0.1,0l0,0c-1.7,0-3.1,1.4-3.1,3.1
	C254.3,273.3,255.7,274.7,257.3,274.7L257.3,274.7z"/>
<path class="st3" d="M245.1,286.9c0-1.7-1.3-3-3-3.1l0,0c-1.7,0-3.1,1.4-3.1,3.1c0,1.7,1.4,3.1,3.1,3.1
	C243.8,290,245.2,288.6,245.1,286.9L245.1,286.9L245.1,286.9z"/>
<path class="st3" d="M272.6,283.9c-1.7,0-3.1,1.4-3.1,3.1c0,1.7,1.4,3.1,3.1,3.1c1.7,0,3.1-1.4,3.1-3.1l0,0
	C275.7,285.2,274.3,283.9,272.6,283.9z"/>
<path class="st3" d="M242,259.4c1.7,0,3.1-1.4,3.1-3.1l0,0c0-1.7-1.3-3-3-3.1l0,0c-1.7,0-3.1,1.4-3.1,3.1
	C239,258.1,240.4,259.4,242,259.4L242,259.4z"/>
<path class="st3" d="M272.6,259.4c1.7,0,3.1-1.4,3.1-3.1c0-1.7-1.4-3.1-3.1-3.1l0,0c-1.7,0-3.1,1.4-3.1,3.1
	C269.5,258.1,270.9,259.4,272.6,259.4z"/>
<path class="st3" d="M226.8,274.7c1.7,0,3.1-1.3,3.1-3c0-1.7-1.3-3.1-3-3.1c-1.7,0-3,1.3-3.1,3c0.3,0.7,0.5,1.4,0.8,2.1
	C225.2,274.3,225.9,274.7,226.8,274.7z"/>
<path class="st3" d="M272.6,320.5c1.7-0.1,3-1.5,2.9-3.2c-0.1-1.6-1.3-2.8-2.9-2.9l0,0c-1.7,0.1-3,1.5-2.9,3.2
	C269.8,319.2,271,320.4,272.6,320.5z"/>
<path class="st2" d="M125.7,996.3c21.3,10,40.5,23.3,59,37.6c6.6-0.2,13.2-1,19.7-2.4c41.4-8.8,78.1-50.1,68.3-91.3
	c-13-54.6-92.1-74.4-101.3-129.7c-4.8-29.2,12.5-57.5,14.4-87.1c2.9-45.1-31.8-86.4-73.8-103.4c-40.4-16.5-82.3-13.5-124-7.4v347.9
	c14.8,4,29.1,10.1,43.3,17.1C63.7,976.6,96.3,982.6,125.7,996.3z"/>
<path class="st3" d="M135.2,255.2c33,2.6,70.3,0.6,93.3-23.3c24.7-25.8,23.2-66.3,17.9-101.6c-1.2-7.9-2.5-15.8-4-23.6
	c-0.4-2-0.8-4-1.1-5.9c-3-14.8-6.5-29.6-10.7-44.1H-12v165.1C35.2,239.8,84.8,251.1,135.2,255.2z"/>
<path class="st4" d="M1841.8,370.2c-10.8,34.7-3.4,72.4,6.7,107.3c10.2,34.9,23.3,69.6,24.1,106c0.6,29.9-7.1,59.2-11.5,88.7
	c-11.5,78.2,2.7,161.9,46.9,226.9v-588C1877.8,314,1851,340.3,1841.8,370.2z"/>
<path class="st1" d="M1895.2,1136.6h12.9V1065c-144.1-43-308.7-17.5-430.4,71.6h237c9-2.9,18.2-5.4,27.5-7.4
	C1792.6,1118.3,1845.6,1121.6,1895.2,1136.6z"/>
<path class="st3" d="M1311.8,81.2c29.9,18.8,66.3,24.1,100.3,14.7c23.1-6.5,44.1-19.7,67.9-23.2c16.1-2.3,32-0.1,48,3.3
	c19.2,4.1,38.4,9.7,57.9,10.9c31.7,1.9,63.1-10,87.4-30.3h-389.4C1291.9,66.1,1301.3,74.5,1311.8,81.2z"/>
<path class="st4" d="M280.6,1105.1c-34.7-19.4-64.4-46.8-95.8-71.2c-18.6-14.4-37.8-27.7-59-37.7c-29.5-13.7-62-19.7-94.4-18.6
	c-14.6,0.5-29.1,2.5-43.3,5.9v153h394.2c-8-1.3-16-2.3-23.9-3.7C331.1,1128,304.8,1118.6,280.6,1105.1z"/>
</svg>
