<svg xmlns="http://www.w3.org/2000/svg" viewBox="0 0 1920 1080"><defs><style>.cls-1{fill:#f8f4eb;}.cls-2{fill:#f2de79;}.cls-3{fill:#fff;}.cls-4{fill:#03588c;}.cls-5{fill:#0388a6;}</style></defs><g id="圖層_2" data-name="圖層 2"><g id="圖層_1-2" data-name="圖層 1"><path class="cls-1" d="M0,904v23a223.66,223.66,0,0,1,43.32-5.89C29.15,914.13,14.75,908,0,904Z"/><path class="cls-1" d="M1754,1072.59a280.47,280.47,0,0,0-27.48,7.41h180.59C1857.56,1065,1804.63,1061.7,1754,1072.59Z"/><path class="cls-1" d="M1920,1008.41v-166c-44.18-65-58.39-148.74-46.9-226.94,4.38-29.52,12.09-58.83,11.47-88.69-.8-36.32-13.91-71.06-24.08-106s-17.5-72.53-6.74-107.25c9.28-29.93,36-56.19,66.25-59.1V0H1776.55a195.85,195.85,0,0,1,30.74,25.26c45.84,46.33,67.21,117.63,65.59,181.72-3.94,156.55-380.3,302.11-461.48,145.63a125.27,125.27,0,0,1-9.42-24.09c-18.09-64.58,71.36-136.45,83-197.92,7.77-41,26.58-80.9,54.93-111.16-16-3.38-31.9-5.65-48-3.31-23.73,3.45-44.82,16.64-67.88,23.16a125.57,125.57,0,0,1-100.27-14.65,124.7,124.7,0,0,1-28-24.64H794.36q2.08,32,4.18,64c1.61,24.57,2.93,50.57-8.27,72.51-20.43,40-78.85,49.73-117,26.09-26.51-16.39-44.86-44.9-73.55-57.15-16.63-7.08-35-8-53-10.78a3,3,0,0,1-5.34-.9l-.77-.14A156.1,156.1,0,0,1,500.28,80a3,3,0,0,1-1.84.63,3,3,0,0,1-3.05-3,.41.41,0,0,1,0-.11,171.36,171.36,0,0,1-58.34-51.66,179.62,179.62,0,0,1-13.41-22,3,3,0,0,1-2.78.22,3.25,3.25,0,0,1-.52-.28A3.06,3.06,0,0,1,419.25,0H394.32a3.07,3.07,0,0,1,.25,1.2,2.84,2.84,0,0,1-.25,1.18A3,3,0,0,1,392.7,4a3,3,0,0,1-4-1.63,3,3,0,0,1-.24-1.18,3.08,3.08,0,0,1,.26-1.2h-25a3,3,0,0,1,0,2.39,3.06,3.06,0,0,1-1.1,1.34,3.07,3.07,0,0,1-4.25-.83,3,3,0,0,1-.27-2.9h-25a3.18,3.18,0,0,1,.26,1.2,3.05,3.05,0,0,1-5.86,1.19,3.13,3.13,0,0,1-.23-1.17A2.9,2.9,0,0,1,327.61,0h-25a3,3,0,0,1,0,2.38,3.08,3.08,0,0,1-2.2,1.81,3.26,3.26,0,0,1-.62.06h0a3.06,3.06,0,0,1-3.06-3,3.07,3.07,0,0,1,.25-1.2H272.1a3.05,3.05,0,0,1,0,2.39A3,3,0,1,1,266.51,0h-24c4.22,14.51,7.73,29.27,10.68,44.11A3.17,3.17,0,0,1,254,44h0a3,3,0,0,1,.28,6.08q2.24,11.82,4,23.65c5.34,35.26,6.86,75.87-17.87,101.63-23,23.87-60.22,25.95-93.26,23.3A529.88,529.88,0,0,1,0,165.07v391c41.68-6.11,83.63-9.05,124,7.4C166,580.43,200.7,621.72,197.75,666.8c-1.89,29.57-19.16,57.88-14.37,87.12,9.19,55.31,88.31,75.16,101.31,129.73,9.83,41.24-26.84,82.48-68.26,91.3a116.58,116.58,0,0,1-19.67,2.43c31.47,24.36,61.12,51.79,95.83,71.17a249.76,249.76,0,0,0,77.73,27.74c7.91,1.41,15.92,2.44,23.87,3.71H1489.61C1611.34,990.9,1775.9,965.4,1920,1008.41ZM257.09,16.47a3.06,3.06,0,1,1-3.06-3h0a3.06,3.06,0,0,1,3,3Zm302.68,278-.24,0a3.06,3.06,0,1,1,3.05-3.16C561.67,292.4,560.74,293.45,559.77,294.47Zm17.58-50.57a3.46,3.46,0,0,1,.27.5,3,3,0,1,1-.27-.5ZM587,230.33a3.05,3.05,0,0,1,1.55-2.64c-.26,1.53-.54,3.06-.83,4.59A3,3,0,0,1,587,230.33Zm6.11-91.65a3.06,3.06,0,1,1-3-3.06,3,3,0,0,1,3,3.06Zm9.17-15.28a3,3,0,0,1,3.05-3.05,2.56,2.56,0,0,1,.62.07,3.06,3.06,0,0,1,2.06,1.51c-.26.56-.53,1.12-.78,1.69-.39.91-.78,1.82-1.15,2.73l-.13.05a3.18,3.18,0,0,1-.62.06,3.08,3.08,0,0,1-1.19-.24h0a3,3,0,0,1-1.86-2.81Zm-12.22-18.33a3.05,3.05,0,0,1,3,3.06h0a3.06,3.06,0,1,1-3-3.06Zm0,61.1a3.06,3.06,0,0,1,3,3.06h0a3.06,3.06,0,1,1-3-3.06Zm0,30.55a3.05,3.05,0,0,1,2.19.94c-.15,1.55-.31,3.1-.47,4.64a3,3,0,0,1-1.73.54,3.06,3.06,0,0,1,0-6.12Zm-17-75.84a3,3,0,1,1-.82,4.23A3,3,0,0,1,573.11,120.88Zm1.7,30h0a3.06,3.06,0,0,1,3,3h0a3.06,3.06,0,1,1-3.06-3Zm3.06,33.6v0a3.06,3.06,0,1,1-6.11,0,3.15,3.15,0,0,1,.06-.61,3.06,3.06,0,0,1,6,0A3.15,3.15,0,0,1,577.87,184.5ZM574.81,212h0a3.06,3.06,0,0,1,3,3.06h0a3.06,3.06,0,1,1-3.06-3.06Zm-.18,61.13c-.79,1.53-1.61,3.05-2.47,4.54a3.21,3.21,0,0,1-.41-1.5A3,3,0,0,1,574.63,273.13Zm-15.1-168.06h0a3.06,3.06,0,1,1-3.07,3.06A3,3,0,0,1,559.55,105.07Zm3.06,33.61a3.06,3.06,0,1,1-3.06-3.06h0A3,3,0,0,1,562.59,138.68Zm-3.06,27.49h0a3.06,3.06,0,1,1-3.07,3.06A3.06,3.06,0,0,1,559.55,166.17Zm0,30.55h0a3.06,3.06,0,1,1-3.07,3.06A3.06,3.06,0,0,1,559.55,196.72Zm3.06,33.62a3.06,3.06,0,1,1-3.06-3.06h0A3,3,0,0,1,562.59,230.34Zm-3.06,27.49h0a3.06,3.06,0,1,1-3.07,3.06A3,3,0,0,1,559.55,257.83ZM541.73,121.7a3.06,3.06,0,0,1,4.24-.83,3,3,0,0,1,.83.83h0a3.53,3.53,0,0,1,.28.5,3.06,3.06,0,1,1-5.86,1.21A3,3,0,0,1,541.73,121.7Zm0,30.54a3.06,3.06,0,0,1,5.59,1.71,3,3,0,0,1-.52,1.72,3.06,3.06,0,0,1-5.07-3.43ZM449.56,306.71a3.26,3.26,0,0,1,.06-.62,3.05,3.05,0,0,1,6,0,2.62,2.62,0,0,1,.07.62,3.06,3.06,0,1,1-6.11,0ZM464.83,322a3.06,3.06,0,0,1,3.05-3.06h0a3.06,3.06,0,1,1-3.06,3.06Zm18.33-48.88a3.06,3.06,0,1,1-3.05,3.06A3.06,3.06,0,0,1,483.16,273.11Zm-3.05-27.5a3.06,3.06,0,1,1,3.05,3h0A3,3,0,0,1,480.11,245.61Zm3.05-58.05a3.07,3.07,0,0,1-3.06-3.06,4.22,4.22,0,0,1,.07-.61,3.05,3.05,0,0,1,6,0,2.54,2.54,0,0,1,.07.61h0A3.06,3.06,0,0,1,483.16,187.56Zm-3,118.53a3.05,3.05,0,0,1,6,0,2.62,2.62,0,0,1,.07.62,3.06,3.06,0,0,1-6.12,0A4.36,4.36,0,0,1,480.17,306.09Zm15.59,17.34a3,3,0,0,1-.37-1.44,3.05,3.05,0,0,1,3.05-3.06h0A3.07,3.07,0,0,1,501.5,322c0,.14,0,.27-.05.4Q498.62,322.95,495.76,323.43Zm14.9-16.72a2.61,2.61,0,0,1,.06-.62,3.05,3.05,0,0,1,6,0,4.36,4.36,0,0,1,.07.62,3.06,3.06,0,1,1-6.11,0Zm21.38-168a3.06,3.06,0,1,1-3-3.06,3,3,0,0,1,3,3.06Zm9.74,169.8a3,3,0,0,1-.58-1.77,3.27,3.27,0,0,1,.07-.62,3,3,0,0,1,5.68-.8C545.27,306.42,543.53,307.47,541.78,308.48Zm2.48-90.37a3.06,3.06,0,0,1,0-6.11,3,3,0,0,1,1.71.53,3.05,3.05,0,0,1-1.71,5.58Zm3,27.5a3,3,0,0,1-.24,1.19,2.65,2.65,0,0,1-.29.52,3.06,3.06,0,1,1-.81-4.24,3.2,3.2,0,0,1,.82.82A3.07,3.07,0,0,1,547.31,245.61ZM541.2,184.5a3.17,3.17,0,0,1,.07-.61,3.05,3.05,0,0,1,6,0,2.53,2.53,0,0,1,.06.61h0a3.06,3.06,0,1,1-6.11,0Zm.52,89.94a3.06,3.06,0,0,1,5.59,1.72,3.1,3.1,0,0,1-.52,1.72,3.06,3.06,0,0,1-5.07-3.44ZM529,105.07h0a3.05,3.05,0,0,1,3,3.06h0a3.06,3.06,0,1,1-3-3.06Zm0,61.1a3.06,3.06,0,0,1,0,6.11h0a3.06,3.06,0,1,1,0-6.11Zm0,30.55h0a3.06,3.06,0,0,1,3,3.06h0a3.06,3.06,0,1,1-3-3.06Zm3,33.62a3.06,3.06,0,1,1-3-3.06h0A3.05,3.05,0,0,1,532,230.34Zm-3,27.49h0a3.05,3.05,0,0,1,3,3.06h0a3.06,3.06,0,1,1-3-3.06Zm0,30.55a3.05,3.05,0,0,1,3,3.06h0a3.06,3.06,0,1,1-3-3.06ZM513.71,89.8h0a3.06,3.06,0,1,1-3.06,3.06A3.06,3.06,0,0,1,513.72,89.8Zm3.06,33.6a3.21,3.21,0,0,1-.25,1.19,3.05,3.05,0,1,1-2.81-4.24A3.06,3.06,0,0,1,516.77,123.4ZM510.66,154a3.06,3.06,0,1,1,3.05,3.06,3.05,3.05,0,0,1-3.05-3.06Zm.06,29.94a3.05,3.05,0,0,1,6,0,4.22,4.22,0,0,1,.07.61,3.06,3.06,0,1,1-6.11,0A2.11,2.11,0,0,1,510.72,183.89Zm3,28.11h0a3.06,3.06,0,0,1,3,3.06h0a3.06,3.06,0,1,1-3.06-3.06Zm1.2,36.41a3.05,3.05,0,1,1,1.34-4.51h0a4.82,4.82,0,0,1,.27.5A3.06,3.06,0,0,1,514.91,248.41Zm-1.2,24.7h0a3.06,3.06,0,0,1,3,3.05h0a3.06,3.06,0,1,1-3.06-3.05Zm-15.27-168a3.06,3.06,0,1,1-3.06,3.06A3.05,3.05,0,0,1,498.44,105.07Zm3.06,33.61a3.06,3.06,0,1,1-3.06-3.06h0A3.06,3.06,0,0,1,501.5,138.68Zm-3.06,27.49h0a3.06,3.06,0,1,1-3.07,3.06A3.07,3.07,0,0,1,498.45,166.17Zm0,30.55h0a3.06,3.06,0,1,1-3.07,3.06A3.07,3.07,0,0,1,498.45,196.72Zm3.06,33.62a3.06,3.06,0,1,1-3.06-3.06h0A3.06,3.06,0,0,1,501.5,230.34Zm-3.06,27.49h0a3.06,3.06,0,1,1-3.07,3.06A3.06,3.06,0,0,1,498.45,257.83Zm0,30.55h0a3.06,3.06,0,1,1-3.07,3.06A3.06,3.06,0,0,1,498.45,288.38ZM483.16,157a3.06,3.06,0,1,1,3.06-3.06A3.06,3.06,0,0,1,483.16,157Zm-3.05-33.61a3.06,3.06,0,1,1,.24,1.19A3,3,0,0,1,480.11,123.4Zm3.05-33.6a3,3,0,0,1,3,3h0a3.06,3.06,0,1,1-3-3.06Zm0,122.21a3,3,0,0,1,3,3.05h0a3.06,3.06,0,1,1-3-3.05ZM467.88,74.52h0a3.06,3.06,0,1,1-3.06,3.06A3.05,3.05,0,0,1,467.89,74.52Zm0,30.55h0a3.06,3.06,0,1,1-3.06,3.06A3.05,3.05,0,0,1,467.89,105.07Zm3.06,33.61a3.06,3.06,0,1,1-3.06-3.06h0A3.05,3.05,0,0,1,470.94,138.68Zm-3.06,27.49h0a3.06,3.06,0,1,1-3.06,3.06A3.06,3.06,0,0,1,467.89,166.17Zm0,30.55h0a3.06,3.06,0,1,1-3.06,3.06A3.06,3.06,0,0,1,467.89,196.72Zm3.06,33.62a3.06,3.06,0,1,1-3.06-3.06h0A3.05,3.05,0,0,1,470.94,230.34Zm-3.06,27.49h0a3.06,3.06,0,1,1-3.06,3.06A3.05,3.05,0,0,1,467.89,257.83Zm0,30.55h0a3.06,3.06,0,1,1-3.06,3.06A3.06,3.06,0,0,1,467.89,288.38ZM449.62,61.68a3.05,3.05,0,0,1,6,0,2.62,2.62,0,0,1,.07.62,3.06,3.06,0,0,1-6.11,0A3.26,3.26,0,0,1,449.62,61.68Zm3,28.12h0a3.06,3.06,0,1,1-3.06,3.06A3.06,3.06,0,0,1,452.62,89.8Zm-1.7,31.06a3.07,3.07,0,0,1,4.76,2.54,3.2,3.2,0,0,1-.24,1.19,3.06,3.06,0,0,1-5.64,0,3.19,3.19,0,0,1-.23-1.19A3.06,3.06,0,0,1,450.91,120.86Zm1.7,30h0a3.06,3.06,0,0,1,3.05,3h0a3.06,3.06,0,1,1-3.06-3.06Zm3.06,33.6a3.06,3.06,0,1,1-6.11,0,3.15,3.15,0,0,1,.06-.61,3.05,3.05,0,0,1,6,0A2.54,2.54,0,0,1,455.67,184.5ZM452.61,212h0a3.06,3.06,0,0,1,3.05,3.06h0a3.06,3.06,0,1,1-3.06-3.06Zm3.06,33.61a3.06,3.06,0,1,1-.53-1.71A3.07,3.07,0,0,1,455.67,245.61Zm-3.06,27.5h0a3,3,0,0,1,3.05,3.05h0a3.06,3.06,0,1,1-3.06-3.05ZM437.33,44h0A3.06,3.06,0,1,1,434.28,47,3.05,3.05,0,0,1,437.34,44ZM251,230.33a3,3,0,0,1,3.05-3.05h0a3.06,3.06,0,1,1-3.06,3.05Zm16.62,12.75a3.05,3.05,0,1,1-.82,4.24A3.05,3.05,0,0,1,267.6,243.08Zm17-168.56h0a3.06,3.06,0,1,1-3.06,3.06A3.05,3.05,0,0,1,284.59,74.52ZM281.53,47A3.06,3.06,0,0,1,284.58,44h0A3.06,3.06,0,1,1,281.53,47Zm18.33,73.32a3.26,3.26,0,0,1,.62.06,3.05,3.05,0,0,1,0,6,3.26,3.26,0,0,1-.62.06,2.88,2.88,0,0,1-1.19-.24,3.08,3.08,0,0,1-1.63-1.62,3.24,3.24,0,0,1-.24-1.19A3.06,3.06,0,0,1,299.86,120.35Zm-3.06-27.5a3.05,3.05,0,0,1,3.06-3,3.26,3.26,0,0,1,.62.06h0a3.06,3.06,0,0,1,0,6,3.26,3.26,0,0,1-.62.06,3.06,3.06,0,0,1-3.06-3.06Zm.53,151.05a3,3,0,0,1,2.53-1.35,2.62,2.62,0,0,1,.62.07,3.05,3.05,0,0,1,1.91,1.28h0a3,3,0,0,1-1.91,4.7,3.26,3.26,0,0,1-.62.06,3.06,3.06,0,0,1-3.06-3A3,3,0,0,1,297.33,243.9Zm1.34-31.66a3,3,0,0,1,1.19-.24,3.26,3.26,0,0,1,.62.06h0a3.06,3.06,0,0,1,0,6,3.27,3.27,0,0,1-.62.07,3.06,3.06,0,0,1-1.19-5.88Zm0,61.11a3,3,0,0,1,1.19-.24,3.26,3.26,0,0,1,.62.06h0a3.06,3.06,0,0,1,0,6,3.26,3.26,0,0,1-.62.06,3.06,3.06,0,0,1-1.19-5.87Zm1.81-85.85a3.26,3.26,0,0,1-.62.06,3.06,3.06,0,0,1-3.06-3.05,3.18,3.18,0,0,1,.06-.62,3.08,3.08,0,0,1,1.81-2.2,3,3,0,0,1,1.19-.24,3.26,3.26,0,0,1,.62.06,3.06,3.06,0,0,1,2.37,2.38,3.18,3.18,0,0,1,.06.62A3,3,0,0,1,300.48,187.5Zm-.62-36.6a3.26,3.26,0,0,1,.62.06h0a3.06,3.06,0,0,1,0,6,3.26,3.26,0,0,1-.62.06,3.06,3.06,0,1,1,0-6.11Zm28.3,153.76a3.09,3.09,0,0,1,1.63-.94,3.06,3.06,0,0,1,3.61,2.37,3.26,3.26,0,0,1,.06.62h0s0,.08,0,.12C331.68,306.13,329.92,305.4,328.16,304.66Zm5.31-120.15a3.07,3.07,0,0,1-3.06,3.05h0a3.06,3.06,0,1,1,3-3.67,2.48,2.48,0,0,1,.07.61Zm12.21-110h0a3.06,3.06,0,1,1-3.06,3.06A3.05,3.05,0,0,1,345.69,74.52ZM342.63,47A3.06,3.06,0,0,1,345.68,44h0A3.06,3.06,0,1,1,342.63,47ZM357.9,306.71a2.62,2.62,0,0,1,.07-.62,3.05,3.05,0,0,1,6,0,3.26,3.26,0,0,1,.06.62,3.06,3.06,0,1,1-6.11,0Zm16.48,12.87a3,3,0,0,1,1.85-.65h0a3,3,0,0,1,2.71,1.69C377.42,320.28,375.9,319.94,374.38,319.58Zm4.91-180.9a3.06,3.06,0,1,1-3.06-3.06h0a3.06,3.06,0,0,1,3.06,3.06Zm-3.06-64.16h0a3.06,3.06,0,1,1-3.06,3A3.06,3.06,0,0,1,376.24,74.52ZM373.18,47A3.06,3.06,0,0,1,376.23,44h0A3.06,3.06,0,1,1,373.18,47Zm15.28,259.69a3.26,3.26,0,0,1,.06-.62,3.05,3.05,0,0,1,6,0,3.27,3.27,0,0,1,.07.62,3.06,3.06,0,1,1-6.11,0ZM403.73,322a3.06,3.06,0,0,1,3-3.06h0a3.06,3.06,0,1,1-3.06,3.06Zm3-247.47h0a3.06,3.06,0,1,1-3.06,3.06A3.05,3.05,0,0,1,406.79,74.52Zm-3-27.49a3.06,3.06,0,0,1,3-3.06h0A3.06,3.06,0,1,1,403.73,47ZM419,306.71a3.26,3.26,0,0,1,.06-.62,3.06,3.06,0,0,1,6,0,3.26,3.26,0,0,1,.06.62v0a3,3,0,0,1-3.05,3,3.19,3.19,0,0,1-1.19-.23A3.07,3.07,0,0,1,419,306.71ZM434.28,322a3.06,3.06,0,0,1,3.05-3.06h0a3.06,3.06,0,1,1-3.07,3.06Zm3.05-247.47h0a3.06,3.06,0,1,1-3.07,3.06A3,3,0,0,1,437.35,74.52Zm0,30.55h0a3.06,3.06,0,1,1-3.07,3.06A3,3,0,0,1,437.35,105.07Zm3.06,33.61a3.06,3.06,0,1,1-3.06-3.06h0A3.06,3.06,0,0,1,440.39,138.68Zm-3.06,27.49h0a3.06,3.06,0,1,1-3.07,3.06A3.06,3.06,0,0,1,437.35,166.17Zm0,30.55h0a3.06,3.06,0,1,1-3.07,3.06A3.06,3.06,0,0,1,437.35,196.72Zm3.06,33.62a3.06,3.06,0,1,1-3.06-3.06h0A3,3,0,0,1,440.39,230.34Zm-3.06,27.49h0a3.06,3.06,0,1,1-3.07,3.06A3,3,0,0,1,437.35,257.83Zm0,30.55h0a3.06,3.06,0,1,1-3.06,3.06A3.05,3.05,0,0,1,437.34,288.38ZM423.25,156.76a3,3,0,1,1,.52-5.34h0a3.05,3.05,0,0,1-.52,5.34Zm1.86,27.74a3.06,3.06,0,1,1-6.11,0,3.15,3.15,0,0,1,.06-.61,3.06,3.06,0,0,1,6,0A3.15,3.15,0,0,1,425.11,184.5Zm-4.76-63.64a3.06,3.06,0,0,1,4.52,3.74,3,3,0,0,1-1.11,1.34,3.06,3.06,0,0,1-3.41-5.08ZM419.52,30a3.06,3.06,0,0,1,4.25-.82,3,3,0,0,1,1.34,2.53A3.06,3.06,0,1,1,419.52,30Zm5.59,32.26h0a3,3,0,0,1-3.05,3,3,3,0,0,1-1.19-.24A3,3,0,0,1,419,62.3a3.26,3.26,0,0,1,.06-.62,3.06,3.06,0,0,1,6,0A3.26,3.26,0,0,1,425.11,62.3Zm-5.59,28.83a3.06,3.06,0,0,1,5.59,1.72,3.1,3.1,0,0,1-.52,1.72,3.06,3.06,0,1,1-5.07-3.44Zm0,122.21a3.06,3.06,0,0,1,4.25-.81,3,3,0,0,1,1.34,2.53,3.1,3.1,0,0,1-.52,1.72,3.06,3.06,0,0,1-5.07-3.44Zm5.59,32.27a3,3,0,0,1-.24,1.19,2.49,2.49,0,0,1-.27.51,3.05,3.05,0,1,1-.83-4.24,3.4,3.4,0,0,1,.82.83A3,3,0,0,1,425.11,245.61Zm-5.59,28.83a3.06,3.06,0,0,1,5.59,1.72,3.1,3.1,0,0,1-.52,1.72,3.06,3.06,0,0,1-5.07-3.44Zm-12.74-261h0a3.06,3.06,0,1,1-3.06,3A3,3,0,0,1,406.79,13.42Zm0,91.65h0a3.06,3.06,0,1,1-3.06,3.06A3.05,3.05,0,0,1,406.79,105.07Zm3.06,33.61a3.06,3.06,0,1,1-3.06-3.06h0A3.05,3.05,0,0,1,409.84,138.68Zm-3.06,27.49h0a3.06,3.06,0,1,1-3.06,3.06A3.06,3.06,0,0,1,406.79,166.17Zm0,30.55h0a3.06,3.06,0,1,1-3.06,3.06A3.06,3.06,0,0,1,406.79,196.72Zm3.06,33.62a3.06,3.06,0,1,1-3.06-3.06h0A3.05,3.05,0,0,1,409.84,230.34Zm-3.06,27.49h0a3.06,3.06,0,1,1-3.06,3.06A3.05,3.05,0,0,1,406.79,257.83Zm0,30.55h0a3.06,3.06,0,1,1-3.06,3.06A3.06,3.06,0,0,1,406.79,288.38Zm-12.21-165a3,3,0,1,1-.52-1.7A3,3,0,0,1,394.57,123.4Zm-3.06-94.7h0a3.05,3.05,0,1,1-3.06,3.05A3,3,0,0,1,391.52,28.7Zm-3,33a3.05,3.05,0,0,1,6,0,3.27,3.27,0,0,1,.07.62,3.06,3.06,0,0,1-6.11,0A3.26,3.26,0,0,1,388.52,61.68Zm3,28.12h0a3.06,3.06,0,1,1-3.06,3.06A3.06,3.06,0,0,1,391.52,89.8Zm0,61.1h0a3.06,3.06,0,0,1,3.05,3h0a3.06,3.06,0,1,1-3.06-3.06Zm3.06,94.71a2.89,2.89,0,0,1-.25,1.19,3.05,3.05,0,1,1-4.51-3.73,3.05,3.05,0,0,1,4.76,2.54Zm0-61.11a3.06,3.06,0,1,1-6.11,0,3.15,3.15,0,0,1,.06-.61,3.05,3.05,0,0,1,6,0A2.54,2.54,0,0,1,394.57,184.5ZM391.51,212h0a3.06,3.06,0,0,1,3.05,3.06h0a3.06,3.06,0,1,1-3.06-3.06Zm0,61.11h0a3,3,0,0,1,3.05,3.05h0a3.06,3.06,0,1,1-3.06-3.05ZM376.23,13.42h0a3.06,3.06,0,0,1,3.05,3h0a3.06,3.06,0,1,1-3.06-3Zm0,91.65h0a3.06,3.06,0,0,1,3.05,3.06h0a3.06,3.06,0,1,1-3.06-3.06Zm0,61.1h0a3.06,3.06,0,0,1,3.05,3.06h0a3.06,3.06,0,1,1-3.06-3.06Zm0,30.55h0a3.06,3.06,0,0,1,3.05,3.06h0a3.06,3.06,0,1,1-3.06-3.06Zm3.06,33.62a3.06,3.06,0,1,1-3.06-3.06h0A3.06,3.06,0,0,1,379.29,230.34Zm-3.06,27.49h0a3.06,3.06,0,0,1,3.05,3.06h0a3.06,3.06,0,1,1-3.06-3.06Zm0,30.55a3.06,3.06,0,0,1,3.06,3.06h0a3.06,3.06,0,1,1-3.06-3.06ZM361,28.7h0a3.05,3.05,0,1,1-3.06,3.05A3,3,0,0,1,361,28.7Zm-3,33a3.05,3.05,0,0,1,6,0,3.26,3.26,0,0,1,.06.62,3.06,3.06,0,0,1-6.11,0A2.62,2.62,0,0,1,358,61.68Zm3,28.12h0a3,3,0,0,1,3.05,3h0a3.06,3.06,0,1,1-3.05-3Zm-1.71,31.07a3.06,3.06,0,0,1,4.24.83h0a2.7,2.7,0,0,1,.27.5,3.06,3.06,0,1,1-5.62,2.4,3.2,3.2,0,0,1-.24-1.19A3.07,3.07,0,0,1,359.25,120.87Zm1.71,30a3,3,0,0,1,3.05,3h0A3.06,3.06,0,1,1,361,150.9ZM364,184.5a3.06,3.06,0,1,1-6.11,0,2.54,2.54,0,0,1,.07-.61,3.05,3.05,0,0,1,6,0A3.15,3.15,0,0,1,364,184.5ZM361,212h0a3.05,3.05,0,0,1,3.05,3.06h0A3.06,3.06,0,1,1,361,212ZM364,245.61a3,3,0,0,1-.24,1.19,3,3,0,0,1-1.1,1.34,3.06,3.06,0,1,1,.82-4.24A3,3,0,0,1,364,245.61ZM361,273.11h0a3,3,0,0,1,3.05,3.05h0a3.06,3.06,0,1,1-3.05-3.06ZM345.68,13.42h0a3.06,3.06,0,1,1-3.06,3A3,3,0,0,1,345.69,13.42Zm0,91.65h0a3.06,3.06,0,1,1-3.06,3.06A3.05,3.05,0,0,1,345.69,105.07Zm3.06,33.61a3.06,3.06,0,1,1-3.06-3.06h0A3.06,3.06,0,0,1,348.74,138.68Zm-3.06,27.49h0a3.06,3.06,0,1,1-3.06,3.06A3.06,3.06,0,0,1,345.69,166.17Zm0,30.55h0a3.06,3.06,0,1,1-3.06,3.06A3.06,3.06,0,0,1,345.69,196.72Zm3.06,33.62a3.06,3.06,0,1,1-3.06-3.06h0A3.05,3.05,0,0,1,348.74,230.34Zm-3.06,27.49h0a3.06,3.06,0,1,1-3.06,3.06A3.05,3.05,0,0,1,345.69,257.83Zm0,30.55h0a3.06,3.06,0,1,1-3.06,3.06A3.06,3.06,0,0,1,345.69,288.38ZM330.41,28.7h0a3.05,3.05,0,1,1-3.07,3.05A3,3,0,0,1,330.42,28.7Zm3,33.6a3,3,0,0,1-3,3h0a3,3,0,0,1-3.05-3,3.26,3.26,0,0,1,.06-.62,3.05,3.05,0,0,1,6,0A3.26,3.26,0,0,1,333.46,62.3Zm-3,27.5h0a3,3,0,0,1,3,3h0a3.06,3.06,0,1,1-3-3Zm3,33.6a3,3,0,1,1-3.06-3A3.05,3.05,0,0,1,333.44,123.4Zm-3,27.5h0a3.06,3.06,0,1,1-3.07,3.06A3.06,3.06,0,0,1,330.42,150.9Zm0,61.1h0a3,3,0,0,1,3,3.06h0a3.06,3.06,0,1,1-3-3.06Zm3,33.61a3,3,0,0,1-5.85,1.19,3.13,3.13,0,0,1-.23-1.17,3,3,0,1,1,6.08,0Zm-3,27.5h0a3,3,0,0,1,3,3.05h0a3.06,3.06,0,1,1-3-3.06ZM315.13,166.17h0a3.06,3.06,0,1,1-3.06,3.06A3.05,3.05,0,0,1,315.14,166.17Zm-3.05-27.49a3.06,3.06,0,0,1,3.05-3.06h0a3.06,3.06,0,0,1,3.05,3.06h0a3.06,3.06,0,0,1-6.11,0Zm3.05-64.16h0a3.06,3.06,0,1,1-3.06,3A3.06,3.06,0,0,1,315.14,74.52ZM312.08,47A3.06,3.06,0,0,1,315.13,44h0A3.06,3.06,0,1,1,312.08,47Zm3.05-33.6h0a3.06,3.06,0,0,1,3.05,3h0a3.06,3.06,0,1,1-3.06-3Zm0,91.65h0a3.06,3.06,0,0,1,3.05,3.06h0a3.06,3.06,0,1,1-3.06-3.06Zm0,91.65h0a3.07,3.07,0,0,1,3.05,3.06h0a3.06,3.06,0,1,1-3.06-3.06Zm3.06,33.62a3.06,3.06,0,1,1-3.06-3.06h0A3.06,3.06,0,0,1,318.19,230.34Zm-3.06,27.49h0a3.06,3.06,0,0,1,3.05,3.06h0a3.06,3.06,0,1,1-3.06-3.06Zm0,30.55a3.06,3.06,0,0,1,3.06,3.06h0a3.06,3.06,0,1,1-3.06-3.06ZM300.48,65.29a3.26,3.26,0,0,1-.62.06h0a3.05,3.05,0,0,1-3.06-3,3.26,3.26,0,0,1,.06-.62,3.07,3.07,0,0,1,3-2.44,4.36,4.36,0,0,1,.62.07,3.07,3.07,0,0,1,2.37,2.37,3.26,3.26,0,0,1,.06.62A3.05,3.05,0,0,1,300.48,65.29Zm-1.81-36.35a2.88,2.88,0,0,1,1.19-.24,2.18,2.18,0,0,1,.62.06h0a3.05,3.05,0,0,1,0,6,2.18,2.18,0,0,1-.62.06,2.88,2.88,0,0,1-1.19-.24,3,3,0,0,1,0-5.62ZM284.58,13.42h0a3.06,3.06,0,1,1-3.06,3A3,3,0,0,1,284.59,13.42Zm0,91.65h0a3.06,3.06,0,1,1-3.06,3.06A3.05,3.05,0,0,1,284.59,105.07Zm3.06,33.61a3.06,3.06,0,1,1-3.06-3.06h0A3.06,3.06,0,0,1,287.64,138.68Zm-3.06,27.49h0a3.06,3.06,0,1,1-3.06,3.06A3.06,3.06,0,0,1,284.59,166.17Zm0,30.55h0a3.06,3.06,0,1,1-3.06,3.06A3.06,3.06,0,0,1,284.59,196.72Zm3.06,33.62a3.06,3.06,0,1,1-3.06-3.06h0A3.05,3.05,0,0,1,287.64,230.34Zm-3.06,27.49h0a3.06,3.06,0,1,1-3.06,3.06A3.05,3.05,0,0,1,284.59,257.83ZM269.31,65.35a3,3,0,0,1-3.05-3,4.32,4.32,0,0,1,.05-.62,3.06,3.06,0,0,1,6,0,3.26,3.26,0,0,1,.06.62A3,3,0,0,1,269.31,65.35Zm0-36.65h0a3.05,3.05,0,1,1-3.07,3.05A3,3,0,0,1,269.32,28.7Zm0,61.1h0a3,3,0,0,1,3.05,3h0a3.06,3.06,0,1,1-3.05-3Zm3.05,94.7a3.05,3.05,0,1,1-6.1,0,4.18,4.18,0,0,1,.05-.61,3.06,3.06,0,0,1,6,0A3.15,3.15,0,0,1,272.36,184.5Zm0-61.1a3.05,3.05,0,0,1-5.87,1.19,3.19,3.19,0,0,1-.23-1.19,3.05,3.05,0,0,1,6.1,0Zm-3.05,27.5h0a3,3,0,0,1,3.05,3h0a3.06,3.06,0,1,1-3.05-3.06Zm0,61.1h0a3,3,0,0,1,3,3.06h0a3.06,3.06,0,1,1-3.05-3.06ZM254,166.17h0a3.06,3.06,0,0,1,3,3.06h0a3.06,3.06,0,1,1-3.06-3.06Zm0,30.55h0a3.06,3.06,0,0,1,3,3.06h0a3.06,3.06,0,1,1-3.06-3.06Zm-18.27-12.83a3.06,3.06,0,0,1,6,0,3.15,3.15,0,0,1,.06.61,3.06,3.06,0,1,1-6.11,0A3.15,3.15,0,0,1,235.76,183.89Zm.47,29.46a3.05,3.05,0,1,1,2.53,4.76,3,3,0,0,1-2.24-1c-.28-.71-.55-1.43-.81-2.15A3,3,0,0,1,236.23,213.35Z"/><path class="cls-2" d="M423.65,3.79a179.62,179.62,0,0,0,13.41,22A171.36,171.36,0,0,0,495.4,77.47a3,3,0,0,1,3-3h0A3,3,0,0,1,500.28,80a156.1,156.1,0,0,0,40.3,13.64l.77.14A3,3,0,0,1,546,90.32a3.08,3.08,0,0,1,.82,4.25l-.1.11c17.93,2.81,36.35,3.7,53,10.78,28.69,12.25,47,40.76,73.55,57.15,38.2,23.64,96.62,13.94,117-26.09,11.2-21.94,9.88-47.94,8.27-72.51q-2.12-32-4.18-64H791.1c-1.48,1.17-3,2.32-4.51,3.43a3,3,0,0,1-.73-1.05,2.83,2.83,0,0,1-.24-1.18,2.89,2.89,0,0,1,.24-1.2h-25a3,3,0,1,1-5.85,1.2,3.09,3.09,0,0,1,.27-1.2h-25a3.05,3.05,0,1,1-5.62,2.38,3,3,0,0,1-.24-1.18,3.07,3.07,0,0,1,.25-1.2h-25a3,3,0,0,1-1.6,4,3.06,3.06,0,0,1-4-1.63A3,3,0,0,1,694,1.2a3.09,3.09,0,0,1,.27-1.2h-25a3.05,3.05,0,1,1-5.62,2.38,3,3,0,0,1-.24-1.18,3.07,3.07,0,0,1,.25-1.2H638.72a3.05,3.05,0,1,1-5.62,2.38,3,3,0,0,1-.24-1.18,3.08,3.08,0,0,1,.26-1.2h-25a2.91,2.91,0,0,1,.19.59A3,3,0,0,1,606,4.19a4.2,4.2,0,0,1-.62.07A3,3,0,0,1,602.57,0h-25A3.05,3.05,0,1,1,572,2.38a3,3,0,0,1-.24-1.18A3.08,3.08,0,0,1,572,0h-25a3.07,3.07,0,0,1,.25,1.2,3,3,0,0,1-.24,1.18,3.35,3.35,0,0,1-.28.53A3.06,3.06,0,0,1,541.44,0H516.52a3.05,3.05,0,1,1-5.62,2.38,3,3,0,0,1-.24-1.18,3.08,3.08,0,0,1,.26-1.2H486a2.89,2.89,0,0,1,.24,1.2A2.88,2.88,0,0,1,486,2.39a3.06,3.06,0,0,1-1.1,1.34,3.07,3.07,0,0,1-4.25-.83,3,3,0,0,1-.27-2.9H455.42a3.07,3.07,0,0,1,.25,1.2,3.06,3.06,0,0,1-5.59,1.71A3.07,3.07,0,0,1,449.81,0H424.86a3,3,0,0,1-1.21,3.79ZM617.58,77.58a3.06,3.06,0,0,1,3.06-3.06h0a3.06,3.06,0,1,1-3.07,3.06ZM648.13,47a3.06,3.06,0,1,1,3.06,3.06A3.06,3.06,0,0,1,648.13,47Zm33.61,3.06a3.06,3.06,0,0,1,0-6.11h0a3.05,3.05,0,0,1,1.73,5.56l-.69.35A3,3,0,0,1,681.74,50.08ZM663.82,60.77a3.07,3.07,0,0,1,2-1.46l.35,0Zm79-47.35h0a3.06,3.06,0,0,1,3,3h0a3.06,3.06,0,1,1-3.06-3ZM726.37,28.94a3,3,0,0,1,2.9.28,3.08,3.08,0,0,1,.83.82,3.56,3.56,0,0,1,.27.51l-5.72,2.06A3,3,0,0,1,726.37,28.94ZM712.29,13.42h0a3,3,0,0,1,3.05,3h0a3.06,3.06,0,1,1-3.05-3ZM697,28.7h0A3.05,3.05,0,1,1,694,31.75,3,3,0,0,1,697,28.7ZM681.74,13.42h0a3.06,3.06,0,1,1-3.07,3A3,3,0,0,1,681.75,13.42ZM663.93,30a3,3,0,0,1,4.24-.82h0a3,3,0,0,1,0,5.06,3,3,0,0,1-1.71.52A3.06,3.06,0,0,1,663.93,30ZM651.19,13.42a3,3,0,0,1,3,3h0a3.06,3.06,0,1,1-3-3ZM639,62.31a3.06,3.06,0,0,1-6.11,0,3.26,3.26,0,0,1,.06-.62,3.06,3.06,0,0,1,6,0,3.26,3.26,0,0,1,.06.62ZM635.91,28.7h0A3,3,0,0,1,639,31.75h0a3.06,3.06,0,1,1-3.06-3.05ZM620.64,50.08a3.06,3.06,0,1,1,3.06-3A3,3,0,0,1,620.64,50.08Zm0-36.66h0a3.06,3.06,0,1,1-3.07,3A3,3,0,0,1,620.65,13.42ZM606,95.85a3.18,3.18,0,0,1-.62.06,3.06,3.06,0,0,1,0-6.11,3.18,3.18,0,0,1,.62.06,3.06,3.06,0,0,1,0,6Zm0-30.56a3.18,3.18,0,0,1-.62.06,3.08,3.08,0,0,1-1.19-.24,3,3,0,0,1-1.86-2.81,3.06,3.06,0,0,1,1.86-2.82,3.51,3.51,0,0,1,1.19-.24,4.2,4.2,0,0,1,.62.07,3,3,0,0,1,2.37,2.37,2.62,2.62,0,0,1,.07.62A3.05,3.05,0,0,1,606,65.29Zm-.62-36.6a2.56,2.56,0,0,1,.62.07,3.05,3.05,0,0,1,0,6,2.14,2.14,0,0,1-.62.06,2.91,2.91,0,0,1-1.19-.24h0a3.06,3.06,0,0,1,1.19-5.87ZM559.54,80.63a3.06,3.06,0,1,1,0-6.11h0a3.06,3.06,0,0,1,0,6.11Zm0-30.55a3.06,3.06,0,1,1,0-6.11h0a3.06,3.06,0,0,1,0,6.11Zm15.28,45.83a3.06,3.06,0,0,1,0-6.11h0a3.06,3.06,0,0,1,0,6.11Zm15.27-15.28a3.06,3.06,0,1,1,3-3A3.06,3.06,0,0,1,590.09,80.63Zm0-30.55a3.06,3.06,0,1,1,3-3A3.06,3.06,0,0,1,590.09,50.08Zm0-36.66a3,3,0,0,1,3,3h0a3.06,3.06,0,1,1-3-3ZM574.81,28.7h0a3.05,3.05,0,1,1-3.06,3.05A3,3,0,0,1,574.82,28.7Zm-3,33a3.06,3.06,0,0,1,6,0,3.26,3.26,0,0,1,.06.62h0a3.06,3.06,0,0,1-6.11,0A3.26,3.26,0,0,1,571.82,61.68ZM559.53,13.42h0a3.06,3.06,0,1,1-3.07,3A3,3,0,0,1,559.55,13.42ZM544.26,28.7a3,3,0,0,1,1.71.52,3.06,3.06,0,1,1-1.71-.52Zm-3,33a3.05,3.05,0,0,1,6,0,2.61,2.61,0,0,1,.06.62,3.06,3.06,0,0,1-6.11,0A3.27,3.27,0,0,1,541.27,61.68Zm-42.83-11.6a3.06,3.06,0,0,1,0-6.11h0a3.06,3.06,0,0,1,0,6.11ZM529,80.63a3.06,3.06,0,1,1,0-6.11h0a3.06,3.06,0,0,1,0,6.11Zm0-30.55A3.06,3.06,0,1,1,529,44h0a3.06,3.06,0,0,1,0,6.11Zm0-36.66h0a3,3,0,0,1,3,3h0a3.06,3.06,0,1,1-3-3ZM513.71,28.7h0a3.05,3.05,0,1,1-3.06,3.05A3,3,0,0,1,513.72,28.7Zm-3,33a3.05,3.05,0,0,1,6,0,4.36,4.36,0,0,1,.07.62,3.06,3.06,0,0,1-6.11,0A2.61,2.61,0,0,1,510.72,61.68ZM498.44,13.42h0a3.06,3.06,0,1,1-3.07,3A3.06,3.06,0,0,1,498.45,13.42ZM483.16,28.7a3.06,3.06,0,0,1,3.06,3.05h0a3.06,3.06,0,1,1-3.06-3.05Zm-3,33a3.06,3.06,0,0,1,6,0,3.26,3.26,0,0,1,.06.62,3.06,3.06,0,0,1-6.11,0A3.26,3.26,0,0,1,480.16,61.68Zm-12.27-11.6a3.06,3.06,0,0,1,0-6.11h0a3.06,3.06,0,0,1,0,6.11Zm0-36.66h0a3.06,3.06,0,1,1-3.06,3A3,3,0,0,1,467.89,13.42ZM452.61,28.7h0a3.05,3.05,0,1,1-3.06,3.05A3,3,0,0,1,452.62,28.7ZM437.33,13.42h0a3.06,3.06,0,1,1-3.07,3A3,3,0,0,1,437.35,13.42Z"/><path class="cls-3" d="M1597.81,30.31c-19.51-1.16-38.72-6.81-57.91-10.87C1511.55,49.7,1492.74,89.55,1485,130.6c-11.63,61.47-101.08,133.34-83,197.92a125.27,125.27,0,0,0,9.42,24.09c81.18,156.48,457.54,10.92,461.48-145.63,1.62-64.09-19.75-135.39-65.59-181.72A195.85,195.85,0,0,0,1776.55,0h-91.33C1660.88,20.28,1629.52,32.19,1597.81,30.31Z"/><path class="cls-4" d="M785.86,2.38a3,3,0,0,0,.73,1.05c1.53-1.11,3-2.26,4.51-3.43h-5.24a2.89,2.89,0,0,0-.24,1.2A2.83,2.83,0,0,0,785.86,2.38Z"/><path class="cls-4" d="M755.3,2.38a3,3,0,0,0,4,1.63,3,3,0,0,0,1.61-4h-5.58a3.09,3.09,0,0,0-.27,1.2A3,3,0,0,0,755.3,2.38Z"/><path class="cls-4" d="M724.75,2.38A3.05,3.05,0,1,0,730.37,0h-5.61a3.07,3.07,0,0,0-.25,1.2A3,3,0,0,0,724.75,2.38Z"/><path class="cls-4" d="M742.84,19.53a3.07,3.07,0,0,0,3.06-3.06h0a3.06,3.06,0,0,0-3-3h0a3.06,3.06,0,1,0,0,6.11Z"/><path class="cls-4" d="M730.37,30.55a3.56,3.56,0,0,0-.27-.51,3.08,3.08,0,0,0-.83-.82,3,3,0,0,0-4.62,3.39Z"/><path class="cls-4" d="M694.2,2.38a3.06,3.06,0,0,0,4,1.63,3,3,0,0,0,1.6-4h-5.58A3.09,3.09,0,0,0,694,1.2,3,3,0,0,0,694.2,2.38Z"/><path class="cls-4" d="M663.65,2.38A3.05,3.05,0,1,0,669.27,0h-5.61a3.07,3.07,0,0,0-.25,1.2A3,3,0,0,0,663.65,2.38Z"/><path class="cls-4" d="M697,34.8a3.05,3.05,0,1,0,0-6.1h0a3.05,3.05,0,1,0,0,6.1Z"/><path class="cls-4" d="M684.79,47a3,3,0,0,0-3-3.06h0a3.06,3.06,0,1,0,1,5.91l.69-.35A3,3,0,0,0,684.79,47Z"/><path class="cls-4" d="M681.74,19.53a3.06,3.06,0,0,0,0-6.11h0a3.06,3.06,0,1,0,0,6.11Z"/><path class="cls-4" d="M712.29,19.53a3.06,3.06,0,0,0,3.05-3.06h0a3,3,0,0,0-3.05-3h0a3.06,3.06,0,1,0,0,6.11Z"/><path class="cls-4" d="M663.82,60.77l2.37-1.49-.35,0A3.07,3.07,0,0,0,663.82,60.77Z"/><path class="cls-4" d="M666.46,34.8a3,3,0,0,0,1.71-.52,3,3,0,0,0,0-5.06h0a3.05,3.05,0,1,0-1.71,5.58Z"/><path class="cls-4" d="M633.1,2.38A3.05,3.05,0,1,0,638.72,0h-5.6a3.08,3.08,0,0,0-.26,1.2A3,3,0,0,0,633.1,2.38Z"/><path class="cls-4" d="M602.55,2.39a3,3,0,0,0,2.81,1.87,4.2,4.2,0,0,0,.62-.07,3,3,0,0,0,2.37-3.6,2.91,2.91,0,0,0-.19-.59h-5.59A3.05,3.05,0,0,0,602.55,2.39Z"/><path class="cls-4" d="M635.91,59.24a3.05,3.05,0,0,0-3,2.44,3.26,3.26,0,0,0-.06.62,3.06,3.06,0,0,0,6.11,0h0a3.26,3.26,0,0,0-.06-.62A3.08,3.08,0,0,0,635.91,59.24Z"/><path class="cls-4" d="M635.91,34.8a3,3,0,0,0,3.06-3h0a3,3,0,0,0-3.05-3.05h0a3.05,3.05,0,1,0,0,6.1Z"/><path class="cls-4" d="M620.64,44A3.06,3.06,0,1,0,623.7,47,3.06,3.06,0,0,0,620.64,44Z"/><path class="cls-4" d="M654.24,47a3.06,3.06,0,1,0-3,3A3.05,3.05,0,0,0,654.24,47Z"/><path class="cls-4" d="M620.64,19.53a3.06,3.06,0,0,0,0-6.11h0a3.06,3.06,0,1,0,0,6.11Z"/><path class="cls-4" d="M651.19,19.53a3.06,3.06,0,0,0,3-3.06h0a3.06,3.06,0,1,0-3,3.06Z"/><path class="cls-4" d="M623.69,77.58a3,3,0,0,0-3-3.06h0a3.06,3.06,0,1,0,3.05,3.06Z"/><path class="cls-4" d="M606,89.86a3.18,3.18,0,0,0-.62-.06,3.06,3.06,0,0,0,0,6.11,3.18,3.18,0,0,0,.62-.06,3.06,3.06,0,0,0,0-6Z"/><path class="cls-4" d="M572,2.38A3.05,3.05,0,1,0,577.62,0H572a3.08,3.08,0,0,0-.26,1.2A3,3,0,0,0,572,2.38Z"/><path class="cls-4" d="M542.54,3.72a3.06,3.06,0,0,0,4.25-.81,3.35,3.35,0,0,0,.28-.53,3,3,0,0,0,.24-1.18,3.07,3.07,0,0,0-.25-1.2h-5.62A3.05,3.05,0,0,0,542.54,3.72Z"/><path class="cls-4" d="M574.81,65.36a3.05,3.05,0,0,0,3.06-3h0a3.26,3.26,0,0,0-.06-.62,3.06,3.06,0,0,0-6,0,3.26,3.26,0,0,0-.06.62A3.05,3.05,0,0,0,574.81,65.36Z"/><path class="cls-4" d="M604.17,34.56h0a2.91,2.91,0,0,0,1.19.24,2.14,2.14,0,0,0,.62-.06,3.05,3.05,0,0,0,0-6,2.56,2.56,0,0,0-.62-.07,3.06,3.06,0,0,0-1.19,5.87Z"/><path class="cls-4" d="M574.82,34.8a3.05,3.05,0,0,0,0-6.1h0a3.05,3.05,0,1,0,0,6.1Z"/><path class="cls-4" d="M559.55,44h0A3.06,3.06,0,1,0,562.59,47,3.06,3.06,0,0,0,559.53,44Z"/><path class="cls-4" d="M590.09,44a3.06,3.06,0,1,0,3,3.06A3.06,3.06,0,0,0,590.09,44Z"/><path class="cls-4" d="M559.54,19.53a3.06,3.06,0,0,0,0-6.11h0a3.06,3.06,0,1,0,0,6.11Z"/><path class="cls-4" d="M590.08,19.53a3.06,3.06,0,0,0,3.06-3.06h0a3.06,3.06,0,1,0-3.06,3.06Z"/><path class="cls-4" d="M544.26,65.35a3,3,0,0,0,3-3,2.61,2.61,0,0,0-.06-.62,3.05,3.05,0,0,0-6,0,3.27,3.27,0,0,0-.07.62A3.05,3.05,0,0,0,544.26,65.35Z"/><path class="cls-4" d="M544.26,34.8A3.05,3.05,0,0,0,546,29.22a3,3,0,0,0-1.71-.52,3.05,3.05,0,1,0,0,6.1Z"/><path class="cls-4" d="M576.53,125.93a3,3,0,1,0-4.24-.82A3,3,0,0,0,576.53,125.93Z"/><path class="cls-4" d="M574.82,89.8h0a3.06,3.06,0,1,0,3.06,3A3.05,3.05,0,0,0,574.81,89.8Z"/><path class="cls-4" d="M559.54,111.18a3.06,3.06,0,0,0,0-6.11h0a3.06,3.06,0,1,0,0,6.11Z"/><path class="cls-4" d="M590.08,111.18a3,3,0,0,0,3.06-3.05h0a3.06,3.06,0,1,0-3.06,3.05Z"/><path class="cls-4" d="M559.55,74.52h0a3.06,3.06,0,1,0,3.06,3.06A3.06,3.06,0,0,0,559.53,74.52Z"/><path class="cls-4" d="M590.09,74.52a3.06,3.06,0,1,0,3,3.06A3.06,3.06,0,0,0,590.09,74.52Z"/><path class="cls-4" d="M545.46,126.2a3.06,3.06,0,0,0,1.61-4,3.53,3.53,0,0,0-.28-.5h0a3,3,0,0,0-.83-.83,3.06,3.06,0,0,0-4.24.83,3,3,0,0,0-.52,1.7,3,3,0,0,0,4.25,2.8Z"/><path class="cls-4" d="M547.31,92.85A3,3,0,0,0,546,90.32a3.06,3.06,0,1,0,.72,4.36l.1-.11A3,3,0,0,0,547.31,92.85Z"/><path class="cls-4" d="M606,59.31a4.2,4.2,0,0,0-.62-.07,3.51,3.51,0,0,0-1.19.24,3.06,3.06,0,0,0-1.86,2.82,3,3,0,0,0,1.86,2.81,3.08,3.08,0,0,0,1.19.24,3.18,3.18,0,0,0,.62-.06,3.05,3.05,0,0,0,2.44-3,2.62,2.62,0,0,0-.07-.62A3,3,0,0,0,606,59.31Z"/><path class="cls-4" d="M574.81,181.45a3.05,3.05,0,0,0-3,2.44,3.15,3.15,0,0,0-.06.61,3.06,3.06,0,1,0,6.11,0v0a3.15,3.15,0,0,0-.06-.61A3.07,3.07,0,0,0,574.81,181.45Z"/><path class="cls-4" d="M574.81,157a3.06,3.06,0,0,0,3.06-3.06h0a3.06,3.06,0,0,0-3-3h0a3.06,3.06,0,1,0,0,6.11Z"/><path class="cls-4" d="M559.54,172.29a3.06,3.06,0,0,0,0-6.12h0a3.06,3.06,0,0,0,0,6.12Z"/><path class="cls-4" d="M590.08,172.29a3.06,3.06,0,0,0,3.06-3.06h0a3.06,3.06,0,1,0-3.06,3.06Z"/><path class="cls-4" d="M559.53,135.62a3.06,3.06,0,1,0,3.06,3.06,3.06,3.06,0,0,0-3.06-3.06Z"/><path class="cls-4" d="M590.09,135.62a3.06,3.06,0,1,0,3,3.06h0A3.06,3.06,0,0,0,590.09,135.62Z"/><path class="cls-4" d="M544.26,187.56a3,3,0,0,0,3-3.05h0a2.53,2.53,0,0,0-.06-.61,3.05,3.05,0,0,0-6,0,3.17,3.17,0,0,0-.07.61A3.07,3.07,0,0,0,544.26,187.56Z"/><path class="cls-4" d="M542.54,156.49a3.06,3.06,0,0,0,4.25-.82,3,3,0,0,0,.52-1.72,3.06,3.06,0,1,0-4.77,2.54Z"/><path class="cls-4" d="M604.17,126.22h0a3.08,3.08,0,0,0,1.19.24,3.18,3.18,0,0,0,.62-.06l.13-.05c.37-.91.76-1.82,1.15-2.73.25-.57.52-1.13.78-1.69a3.06,3.06,0,0,0-2.06-1.51,2.56,2.56,0,0,0-.62-.07,3,3,0,0,0-3.05,3.05h0A3,3,0,0,0,604.17,126.22Z"/><path class="cls-4" d="M573.11,243.07a3.05,3.05,0,1,0,4.51,1.33,3.46,3.46,0,0,0-.27-.5h0A3.06,3.06,0,0,0,573.11,243.07Z"/><path class="cls-4" d="M574.81,218.12a3.06,3.06,0,0,0,3.06-3.06h0a3.06,3.06,0,0,0-3-3.06h0a3.06,3.06,0,1,0,0,6.12Z"/><path class="cls-4" d="M559.53,227.28a3.06,3.06,0,1,0,3.06,3.06,3.06,3.06,0,0,0-3.06-3.06Z"/><path class="cls-4" d="M587,230.33a3,3,0,0,0,.72,1.95c.29-1.53.57-3.06.83-4.59A3.05,3.05,0,0,0,587,230.33Z"/><path class="cls-4" d="M559.54,202.84a3.06,3.06,0,0,0,0-6.12h0a3.06,3.06,0,0,0,0,6.12Z"/><path class="cls-4" d="M590.08,202.84a3,3,0,0,0,1.73-.54c.16-1.54.32-3.09.47-4.64a3.06,3.06,0,1,0-2.2,5.18Z"/><path class="cls-4" d="M546,243.08a3.06,3.06,0,1,0,.81,4.24,2.65,2.65,0,0,0,.29-.52,3.07,3.07,0,0,0-.28-2.9A3.2,3.2,0,0,0,546,243.08Z"/><path class="cls-4" d="M546,212.53a3,3,0,0,0-1.71-.53,3.06,3.06,0,1,0,1.71.53Z"/><path class="cls-4" d="M574.63,273.13a3,3,0,0,0-2.88,3,3.21,3.21,0,0,0,.41,1.5C573,276.18,573.84,274.66,574.63,273.13Z"/><path class="cls-4" d="M559.54,288.38a3.06,3.06,0,1,0,0,6.11l.24,0c1-1,1.9-2.07,2.81-3.14A3,3,0,0,0,559.54,288.38Z"/><path class="cls-4" d="M559.54,263.94a3.06,3.06,0,0,0,0-6.11h0a3.06,3.06,0,1,0,0,6.11Z"/><path class="cls-4" d="M543.64,303.72a3.07,3.07,0,0,0-2.37,2.37,3.27,3.27,0,0,0-.07.62,3,3,0,0,0,.58,1.77c1.75-1,3.49-2.06,5.17-3.19A3,3,0,0,0,543.64,303.72Z"/><path class="cls-4" d="M542.54,278.69a3.07,3.07,0,0,0,4.25-.81,3.1,3.1,0,0,0,.52-1.72,3.06,3.06,0,1,0-4.77,2.53Z"/><path class="cls-4" d="M510.9,2.38A3.05,3.05,0,1,0,516.52,0h-5.6a3.08,3.08,0,0,0-.26,1.2A3,3,0,0,0,510.9,2.38Z"/><path class="cls-4" d="M480.62,2.9a3.07,3.07,0,0,0,4.25.83A3.06,3.06,0,0,0,486,2.39a2.88,2.88,0,0,0,.24-1.19A2.89,2.89,0,0,0,486,0h-5.62A3,3,0,0,0,480.62,2.9Z"/><path class="cls-4" d="M513.71,65.35a3.05,3.05,0,0,0,3.06-3,4.36,4.36,0,0,0-.07-.62,3.05,3.05,0,0,0-6,0,2.61,2.61,0,0,0-.06.62A3,3,0,0,0,513.71,65.35Z"/><path class="cls-4" d="M513.71,34.8a3.05,3.05,0,1,0,0-6.1h0a3.05,3.05,0,0,0,0,6.1Z"/><path class="cls-4" d="M498.45,44h0A3.06,3.06,0,1,0,501.5,47,3,3,0,0,0,498.44,44Z"/><path class="cls-4" d="M529,44h0A3.06,3.06,0,1,0,532,47,3.06,3.06,0,0,0,529,44Z"/><path class="cls-4" d="M498.44,19.53a3.06,3.06,0,1,0,0-6.11h0a3.06,3.06,0,1,0,0,6.11Z"/><path class="cls-4" d="M529,19.53A3.06,3.06,0,0,0,532,16.47h0a3,3,0,0,0-3-3h0a3.06,3.06,0,0,0,0,6.11Z"/><path class="cls-4" d="M483.16,65.35a3,3,0,0,0,3-3,3.26,3.26,0,0,0-.06-.62,3.06,3.06,0,0,0-6,0,3.26,3.26,0,0,0-.06.62A3.05,3.05,0,0,0,483.16,65.35Z"/><path class="cls-4" d="M483.16,34.8a3.05,3.05,0,0,0,3.06-3h0a3.06,3.06,0,1,0-3.06,3Z"/><path class="cls-4" d="M513.71,120.35a3.05,3.05,0,1,0,2.81,4.24,3.21,3.21,0,0,0,.25-1.19A3.06,3.06,0,0,0,513.71,120.35Z"/><path class="cls-4" d="M513.71,95.91a3.06,3.06,0,0,0,0-6.11h0a3.06,3.06,0,0,0,0,6.11Z"/><path class="cls-4" d="M498.44,111.18a3.06,3.06,0,1,0-3.06-3.05A3,3,0,0,0,498.44,111.18Z"/><path class="cls-4" d="M529,111.18a3,3,0,0,0,3.06-3.05h0a3.05,3.05,0,0,0-3-3.06h0a3.06,3.06,0,0,0,0,6.11Z"/><path class="cls-4" d="M501.5,77.58a3.06,3.06,0,0,0-3.05-3.06h0a3,3,0,0,0-3,3,.41.41,0,0,0,0,.11,3,3,0,0,0,3.05,3,3,3,0,0,0,1.84-.63A3.08,3.08,0,0,0,501.5,77.58Z"/><path class="cls-4" d="M529,74.52h0a3.06,3.06,0,1,0,3,3.06A3.06,3.06,0,0,0,529,74.52Z"/><path class="cls-4" d="M483.16,95.91a3,3,0,0,0,3-3h0a3.06,3.06,0,1,0-3,3.06Z"/><path class="cls-4" d="M513.71,187.56a3.06,3.06,0,0,0,3.06-3.06,4.22,4.22,0,0,0-.07-.61,3.05,3.05,0,0,0-6,0,2.11,2.11,0,0,0-.06.61A3.05,3.05,0,0,0,513.71,187.56Z"/><path class="cls-4" d="M513.71,157a3.06,3.06,0,1,0-3.05-3.06h0A3.05,3.05,0,0,0,513.71,157Z"/><path class="cls-4" d="M498.44,172.29a3.06,3.06,0,0,0,0-6.12h0a3.06,3.06,0,1,0,0,6.12Z"/><path class="cls-4" d="M529,172.28h0a3.06,3.06,0,1,0-3.06-3.06A3.06,3.06,0,0,0,529,172.28Z"/><path class="cls-4" d="M498.45,135.62h0a3.06,3.06,0,1,0,3.06,3.06A3.05,3.05,0,0,0,498.44,135.62Z"/><path class="cls-4" d="M529,135.62a3.06,3.06,0,1,0,3,3.06h0A3.05,3.05,0,0,0,529,135.62Z"/><path class="cls-4" d="M516.25,243.9a3.06,3.06,0,1,0,.27.5,4.82,4.82,0,0,0-.27-.5Z"/><path class="cls-4" d="M513.71,218.12a3.06,3.06,0,0,0,3.06-3.06h0a3.06,3.06,0,0,0-3-3.06h0a3.06,3.06,0,0,0,0,6.12Z"/><path class="cls-4" d="M498.44,227.28a3.06,3.06,0,1,0,3.06,3.06,3,3,0,0,0-3.06-3.06Z"/><path class="cls-4" d="M529,227.28a3.06,3.06,0,1,0,3,3.06,3.06,3.06,0,0,0-3-3.06Z"/><path class="cls-4" d="M498.44,202.84a3.06,3.06,0,0,0,0-6.12h0a3.06,3.06,0,0,0,0,6.12Z"/><path class="cls-4" d="M529,202.84a3.06,3.06,0,0,0,3.06-3.06h0a3.06,3.06,0,0,0-3-3.06h0a3.06,3.06,0,0,0,0,6.12Z"/><path class="cls-4" d="M483.16,218.12a3.05,3.05,0,0,0,3-3.06h0a3.06,3.06,0,1,0-3,3.06Z"/><path class="cls-4" d="M516.77,306.71a4.36,4.36,0,0,0-.07-.62,3.05,3.05,0,0,0-6,0,2.61,2.61,0,0,0-.06.62,3.06,3.06,0,1,0,6.11,0Z"/><path class="cls-4" d="M513.71,279.22a3.06,3.06,0,0,0,3.06-3.06h0a3.06,3.06,0,0,0-3-3.05h0a3.06,3.06,0,1,0,0,6.11Z"/><path class="cls-4" d="M498.44,294.49a3.06,3.06,0,0,0,0-6.11h0a3.06,3.06,0,1,0,0,6.11Z"/><path class="cls-4" d="M529,294.49a3.05,3.05,0,0,0,3.06-3.05h0a3.06,3.06,0,1,0-3.06,3.05Z"/><path class="cls-4" d="M498.44,263.94a3.06,3.06,0,0,0,0-6.11h0a3.06,3.06,0,1,0,0,6.11Z"/><path class="cls-4" d="M529,263.94a3.05,3.05,0,0,0,3.06-3.05h0a3.05,3.05,0,0,0-3-3.06h0a3.06,3.06,0,1,0,0,6.11Z"/><path class="cls-4" d="M498.45,318.93h0a3.05,3.05,0,0,0-3.05,3.06,3,3,0,0,0,.37,1.44q2.85-.48,5.69-1c0-.13,0-.26.05-.4A3.07,3.07,0,0,0,498.45,318.93Z"/><path class="cls-4" d="M450.08,2.91a3.06,3.06,0,0,0,5.59-1.71,3.07,3.07,0,0,0-.25-1.2h-5.61A3.07,3.07,0,0,0,450.08,2.91Z"/><path class="cls-4" d="M420.35,3.73a3.25,3.25,0,0,0,.52.28,3,3,0,0,0,4-4h-5.61A3.06,3.06,0,0,0,420.35,3.73Z"/><path class="cls-4" d="M452.61,65.35a3.05,3.05,0,0,0,3.06-3,2.62,2.62,0,0,0-.07-.62,3.05,3.05,0,0,0-6,0,3.26,3.26,0,0,0-.06.62A3,3,0,0,0,452.61,65.35Z"/><path class="cls-4" d="M452.61,34.8a3.05,3.05,0,1,0,0-6.1h0a3.05,3.05,0,0,0,0,6.1Z"/><path class="cls-4" d="M437.34,50.08a3.06,3.06,0,0,0,0-6.11h0a3.06,3.06,0,0,0,0,6.11Z"/><path class="cls-4" d="M467.89,44h0A3.06,3.06,0,1,0,470.94,47,3.06,3.06,0,0,0,467.88,44Z"/><path class="cls-4" d="M437.34,19.53a3.06,3.06,0,0,0,0-6.11h0a3.06,3.06,0,0,0,0,6.11Z"/><path class="cls-4" d="M467.89,19.53a3.06,3.06,0,0,0,0-6.11h0a3.06,3.06,0,0,0,0,6.11Z"/><path class="cls-4" d="M422.06,59.24a3.07,3.07,0,0,0-3,2.44,3.26,3.26,0,0,0-.06.62,3,3,0,0,0,1.87,2.81,3,3,0,0,0,1.19.24,3,3,0,0,0,3.05-3h0a3.26,3.26,0,0,0-.06-.62A3.06,3.06,0,0,0,422.06,59.24Z"/><path class="cls-4" d="M420.34,34.28a3.05,3.05,0,0,0,4.77-2.53,3,3,0,0,0-1.34-2.53,3.06,3.06,0,1,0-3.43,5.06Z"/><path class="cls-4" d="M453.81,126.21a3.06,3.06,0,0,0,1.62-1.62,3.2,3.2,0,0,0,.24-1.19,3.06,3.06,0,1,0-6.11,0,3.19,3.19,0,0,0,.23,1.19A3.06,3.06,0,0,0,453.81,126.21Z"/><path class="cls-4" d="M452.61,95.91a3.06,3.06,0,1,0,0-6.11h0a3.06,3.06,0,0,0,0,6.11Z"/><path class="cls-4" d="M437.34,111.18a3.06,3.06,0,0,0,0-6.11h0a3.06,3.06,0,0,0,0,6.11Z"/><path class="cls-4" d="M467.89,111.18a3.06,3.06,0,0,0,0-6.11h0a3.06,3.06,0,0,0,0,6.11Z"/><path class="cls-4" d="M437.34,80.63a3.06,3.06,0,0,0,0-6.11h0a3.06,3.06,0,0,0,0,6.11Z"/><path class="cls-4" d="M467.89,80.63a3.06,3.06,0,0,0,0-6.11h0a3.06,3.06,0,0,0,0,6.11Z"/><path class="cls-4" d="M423.76,125.94a3,3,0,0,0,.83-4.24,3.06,3.06,0,1,0-.83,4.24Z"/><path class="cls-4" d="M420.34,95.39a3.07,3.07,0,0,0,4.25-.82,3.1,3.1,0,0,0,.52-1.72,3.06,3.06,0,1,0-4.77,2.54Z"/><path class="cls-4" d="M452.61,181.45a3.05,3.05,0,0,0-3,2.44,3.15,3.15,0,0,0-.06.61,3.06,3.06,0,1,0,6.11,0,2.54,2.54,0,0,0-.07-.61A3.05,3.05,0,0,0,452.61,181.45Z"/><path class="cls-4" d="M483.16,150.9a3.06,3.06,0,1,0,3.06,3A3,3,0,0,0,483.16,150.9Z"/><path class="cls-4" d="M452.61,157a3.06,3.06,0,0,0,3.06-3h0a3.06,3.06,0,0,0-3.05-3h0a3.06,3.06,0,1,0,0,6.11Z"/><path class="cls-4" d="M437.34,172.29a3.06,3.06,0,0,0,0-6.12h0a3.06,3.06,0,0,0,0,6.12Z"/><path class="cls-4" d="M467.89,172.29a3.06,3.06,0,0,0,0-6.12h0a3.06,3.06,0,0,0,0,6.12Z"/><path class="cls-4" d="M437.33,135.62a3.06,3.06,0,1,0,3.06,3.06,3.06,3.06,0,0,0-3.06-3.06Z"/><path class="cls-4" d="M467.88,135.62a3.06,3.06,0,1,0,3.06,3.06,3.06,3.06,0,0,0-3.06-3.06Z"/><path class="cls-4" d="M421.44,181.52a3.05,3.05,0,0,0-2.38,2.37,3.15,3.15,0,0,0-.06.61,3.06,3.06,0,1,0,6.11,0,3.15,3.15,0,0,0-.06-.61A3,3,0,0,0,421.44,181.52Z"/><path class="cls-4" d="M424.87,152.76a3.06,3.06,0,0,0-1.1-1.34h0a3.05,3.05,0,1,0,1.1,1.34Z"/><path class="cls-4" d="M483.16,126.46a3.06,3.06,0,1,0-3.05-3.06,3,3,0,0,0,.24,1.19A3.06,3.06,0,0,0,483.16,126.46Z"/><path class="cls-4" d="M450.9,243.08a3.06,3.06,0,1,0,4.24.82A3.06,3.06,0,0,0,450.9,243.08Z"/><path class="cls-4" d="M452.61,218.12a3.06,3.06,0,0,0,3.06-3.06h0a3.06,3.06,0,0,0-3.05-3.06h0a3.06,3.06,0,0,0,0,6.12Z"/><path class="cls-4" d="M437.33,227.28a3.06,3.06,0,1,0,3.06,3.06,3.06,3.06,0,0,0-3.06-3.06Z"/><path class="cls-4" d="M467.88,227.28a3.06,3.06,0,1,0,3.06,3.06,3.06,3.06,0,0,0-3.06-3.06Z"/><path class="cls-4" d="M437.34,202.84a3.06,3.06,0,0,0,0-6.12h0a3.06,3.06,0,0,0,0,6.12Z"/><path class="cls-4" d="M467.89,202.84a3.06,3.06,0,0,0,0-6.12h0a3.06,3.06,0,0,0,0,6.12Z"/><path class="cls-4" d="M423.77,243.07a3.06,3.06,0,1,0,.83,4.24,2.49,2.49,0,0,0,.27-.51,3,3,0,0,0,.24-1.19,3,3,0,0,0-.52-1.71A3.4,3.4,0,0,0,423.77,243.07Z"/><path class="cls-4" d="M420.34,217.59a3.06,3.06,0,0,0,4.25-.81,3.1,3.1,0,0,0,.52-1.72,3,3,0,0,0-1.34-2.53,3.06,3.06,0,1,0-3.43,5.06Z"/><path class="cls-4" d="M486.15,183.89a3.05,3.05,0,0,0-6,0,4.22,4.22,0,0,0-.07.61,3.06,3.06,0,0,0,6.12,0h0A2.54,2.54,0,0,0,486.15,183.89Z"/><path class="cls-4" d="M455.67,306.71a2.62,2.62,0,0,0-.07-.62,3.05,3.05,0,0,0-6,0,3.26,3.26,0,0,0-.06.62,3.06,3.06,0,1,0,6.11,0Z"/><path class="cls-4" d="M483.16,279.22a3.06,3.06,0,1,0-3.05-3.05A3.06,3.06,0,0,0,483.16,279.22Z"/><path class="cls-4" d="M452.61,279.22a3.06,3.06,0,0,0,3.06-3.06h0a3,3,0,0,0-3.05-3.05h0a3.06,3.06,0,1,0,0,6.11Z"/><path class="cls-4" d="M437.34,294.49a3.06,3.06,0,0,0,0-6.11h0a3.06,3.06,0,0,0,0,6.11Z"/><path class="cls-4" d="M467.89,294.49a3.06,3.06,0,0,0,0-6.11h0a3.06,3.06,0,0,0,0,6.11Z"/><path class="cls-4" d="M437.34,263.94a3.06,3.06,0,0,0,0-6.11h0a3.06,3.06,0,0,0,0,6.11Z"/><path class="cls-4" d="M467.89,263.94a3.06,3.06,0,0,0,0-6.11h0a3.06,3.06,0,0,0,0,6.11Z"/><path class="cls-4" d="M422.06,309.76a3,3,0,0,0,3.05-3v0a3.26,3.26,0,0,0-.06-.62,3.06,3.06,0,0,0-6,0,3.26,3.26,0,0,0-.06.62,3.07,3.07,0,0,0,1.87,2.82A3.19,3.19,0,0,0,422.06,309.76Z"/><path class="cls-4" d="M420.34,278.69a3.07,3.07,0,0,0,4.25-.81,3.1,3.1,0,0,0,.52-1.72,3.06,3.06,0,1,0-4.77,2.53Z"/><path class="cls-4" d="M483.16,248.66a3.06,3.06,0,1,0-3.05-3,3.06,3.06,0,0,0,3.05,3Z"/><path class="cls-4" d="M440.39,322a3.06,3.06,0,0,0-3-3.06h0a3.06,3.06,0,1,0,3.06,3.06Z"/><path class="cls-4" d="M470.94,322a3.06,3.06,0,0,0-3.05-3.06h0a3.06,3.06,0,1,0,3.06,3.06Z"/><path class="cls-4" d="M483.16,309.76a3.05,3.05,0,0,0,3.06-3.05,2.62,2.62,0,0,0-.07-.62,3.05,3.05,0,0,0-6,0,4.36,4.36,0,0,0-.07.62A3.06,3.06,0,0,0,483.16,309.76Z"/><path class="cls-4" d="M388.7,2.38a3,3,0,0,0,4,1.63,3,3,0,0,0,1.62-1.63,2.84,2.84,0,0,0,.25-1.18,3.07,3.07,0,0,0-.25-1.2h-5.6a3.08,3.08,0,0,0-.26,1.2A3,3,0,0,0,388.7,2.38Z"/><path class="cls-4" d="M358.42,2.9a3.07,3.07,0,0,0,4.25.83A3.05,3.05,0,0,0,364,1.2a3.07,3.07,0,0,0-.25-1.2h-5.61A3,3,0,0,0,358.42,2.9Z"/><path class="cls-4" d="M391.51,65.35a3.05,3.05,0,0,0,3.06-3,3.27,3.27,0,0,0-.07-.62,3.05,3.05,0,0,0-6,0,3.26,3.26,0,0,0-.06.62A3,3,0,0,0,391.51,65.35Z"/><path class="cls-4" d="M391.52,34.8a3.05,3.05,0,1,0,0-6.1h0a3.05,3.05,0,1,0,0,6.1Z"/><path class="cls-4" d="M376.23,50.08a3.06,3.06,0,1,0,0-6.11h0a3.06,3.06,0,0,0,0,6.11Z"/><path class="cls-4" d="M406.79,50.08a3.06,3.06,0,0,0,0-6.11h0a3.06,3.06,0,0,0,0,6.11Z"/><path class="cls-4" d="M376.23,19.53a3.06,3.06,0,0,0,3.06-3.06h0a3.06,3.06,0,0,0-3.05-3h0a3.06,3.06,0,1,0,0,6.11Z"/><path class="cls-4" d="M406.79,19.53a3.06,3.06,0,0,0,0-6.11h0a3.06,3.06,0,1,0,0,6.11Z"/><path class="cls-4" d="M361,65.35a3,3,0,0,0,3.05-3,3.26,3.26,0,0,0-.06-.62,3.05,3.05,0,0,0-6,0,2.62,2.62,0,0,0-.07.62A3.05,3.05,0,0,0,361,65.35Z"/><path class="cls-4" d="M361,34.8a3.05,3.05,0,1,0,0-6.1h0a3.05,3.05,0,1,0,0,6.1Z"/><path class="cls-4" d="M389.83,120.88a3,3,0,1,0,4.22.82A3,3,0,0,0,389.83,120.88Z"/><path class="cls-4" d="M391.52,95.91a3.06,3.06,0,0,0,0-6.11h0a3.06,3.06,0,0,0,0,6.11Z"/><path class="cls-4" d="M376.23,111.18a3,3,0,0,0,3.06-3.05h0a3.06,3.06,0,0,0-3.05-3.06h0a3.06,3.06,0,1,0,0,6.11Z"/><path class="cls-4" d="M406.79,111.18a3.06,3.06,0,0,0,0-6.11h0a3.06,3.06,0,0,0,0,6.11Z"/><path class="cls-4" d="M376.23,80.63a3.06,3.06,0,1,0,0-6.11h0a3.06,3.06,0,0,0,0,6.11Z"/><path class="cls-4" d="M406.79,80.63a3.06,3.06,0,0,0,0-6.11h0a3.06,3.06,0,0,0,0,6.11Z"/><path class="cls-4" d="M362.15,126.2a3,3,0,0,0,1.61-4,2.7,2.7,0,0,0-.27-.5h0a3.06,3.06,0,0,0-5.59,1.7,3.2,3.2,0,0,0,.24,1.19A3.05,3.05,0,0,0,362.15,126.2Z"/><path class="cls-4" d="M361,95.91A3.05,3.05,0,0,0,364,92.85h0a3,3,0,0,0-3.05-3h0a3.06,3.06,0,1,0,0,6.11Z"/><path class="cls-4" d="M391.51,181.45a3.05,3.05,0,0,0-3,2.44,3.15,3.15,0,0,0-.06.61,3.06,3.06,0,1,0,6.11,0,2.54,2.54,0,0,0-.07-.61A3.05,3.05,0,0,0,391.51,181.45Z"/><path class="cls-4" d="M391.51,157a3.06,3.06,0,0,0,3.06-3h0a3.06,3.06,0,0,0-3.05-3h0a3.06,3.06,0,1,0,0,6.11Z"/><path class="cls-4" d="M376.23,172.29a3.06,3.06,0,0,0,3.06-3.06h0a3.06,3.06,0,0,0-3.05-3.06h0a3.06,3.06,0,0,0,0,6.12Z"/><path class="cls-4" d="M406.79,172.29a3.06,3.06,0,0,0,0-6.12h0a3.06,3.06,0,0,0,0,6.12Z"/><path class="cls-4" d="M376.23,135.62h0a3.06,3.06,0,1,0,3.06,3.06h0A3.06,3.06,0,0,0,376.23,135.62Z"/><path class="cls-4" d="M406.78,135.62a3.06,3.06,0,1,0,3.06,3.06,3.06,3.06,0,0,0-3.06-3.06Z"/><path class="cls-4" d="M361,181.45a3.05,3.05,0,0,0-3,2.44,2.54,2.54,0,0,0-.07.61,3.06,3.06,0,1,0,6.11,0,3.15,3.15,0,0,0-.06-.61A3.05,3.05,0,0,0,361,181.45Z"/><path class="cls-4" d="M361,157a3.05,3.05,0,0,0,3.06-3h0A3.06,3.06,0,1,0,361,157Z"/><path class="cls-4" d="M389.81,243.07a3.05,3.05,0,1,0,4.51,3.73,2.89,2.89,0,0,0,.25-1.19,3.05,3.05,0,0,0-4.76-2.54Z"/><path class="cls-4" d="M391.51,218.12a3.06,3.06,0,0,0,3.06-3.06h0a3.06,3.06,0,0,0-3.05-3.06h0a3.06,3.06,0,0,0,0,6.12Z"/><path class="cls-4" d="M376.23,227.28a3.06,3.06,0,1,0,3.06,3.06,3.06,3.06,0,0,0-3.06-3.06Z"/><path class="cls-4" d="M406.78,227.28a3.06,3.06,0,1,0,3.06,3.06,3.06,3.06,0,0,0-3.06-3.06Z"/><path class="cls-4" d="M376.23,202.84a3.06,3.06,0,0,0,3.06-3.06h0a3.06,3.06,0,0,0-3.05-3.06h0a3.06,3.06,0,0,0,0,6.12Z"/><path class="cls-4" d="M406.79,202.84a3.06,3.06,0,0,0,0-6.12h0a3.06,3.06,0,0,0,0,6.12Z"/><path class="cls-4" d="M359.25,243.07a3.06,3.06,0,1,0,3.42,5.07,3,3,0,0,0,1.1-1.34,3,3,0,0,0,.24-1.19,3,3,0,0,0-.52-1.71A3.06,3.06,0,0,0,359.25,243.07Z"/><path class="cls-4" d="M361,218.12a3.06,3.06,0,0,0,3.06-3.06h0A3.05,3.05,0,0,0,361,212h0a3.06,3.06,0,0,0,0,6.12Z"/><path class="cls-4" d="M394.57,306.71a3.27,3.27,0,0,0-.07-.62,3.05,3.05,0,0,0-6,0,3.26,3.26,0,0,0-.06.62,3.06,3.06,0,1,0,6.11,0Z"/><path class="cls-4" d="M391.51,279.22a3.06,3.06,0,0,0,3.06-3.06h0a3,3,0,0,0-3.05-3.05h0a3.06,3.06,0,1,0,0,6.11Z"/><path class="cls-4" d="M376.23,294.49a3.05,3.05,0,0,0,3.06-3.05h0a3.06,3.06,0,1,0-3.06,3.05Z"/><path class="cls-4" d="M406.79,294.49a3.06,3.06,0,0,0,0-6.11h0a3.06,3.06,0,0,0,0,6.11Z"/><path class="cls-4" d="M376.23,263.94a3.05,3.05,0,0,0,3.06-3.05h0a3.06,3.06,0,0,0-3.05-3.06h0a3.06,3.06,0,1,0,0,6.11Z"/><path class="cls-4" d="M406.79,263.94a3.06,3.06,0,0,0,0-6.11h0a3.06,3.06,0,0,0,0,6.11Z"/><path class="cls-4" d="M364,306.71a3.26,3.26,0,0,0-.06-.62,3.05,3.05,0,0,0-6,0,2.62,2.62,0,0,0-.07.62,3.06,3.06,0,1,0,6.11,0Z"/><path class="cls-4" d="M361,279.22a3.06,3.06,0,0,0,3.06-3.05h0a3,3,0,0,0-3.05-3.05h0a3.06,3.06,0,1,0,0,6.11Z"/><path class="cls-4" d="M376.24,318.93h0a3,3,0,0,0-1.85.65c1.52.36,3,.7,4.57,1A3,3,0,0,0,376.24,318.93Z"/><path class="cls-4" d="M409.84,322a3.06,3.06,0,0,0-3-3.06h0a3.06,3.06,0,1,0,3.06,3.06Z"/><path class="cls-4" d="M299.86,4.25h0a3.26,3.26,0,0,0,.62-.06,3.08,3.08,0,0,0,2.2-1.81,3,3,0,0,0,0-2.38h-5.6a3.07,3.07,0,0,0-.25,1.2A3.06,3.06,0,0,0,299.86,4.25Z"/><path class="cls-4" d="M330.41,34.8a3.05,3.05,0,0,0,0-6.1h0a3.05,3.05,0,1,0,0,6.1Z"/><path class="cls-4" d="M315.13,50.08a3.06,3.06,0,1,0,0-6.11h0a3.06,3.06,0,0,0,0,6.11Z"/><path class="cls-4" d="M345.69,50.08a3.06,3.06,0,0,0,0-6.11h0a3.06,3.06,0,0,0,0,6.11Z"/><path class="cls-4" d="M315.13,19.53a3.06,3.06,0,0,0,3.06-3.06h0a3.06,3.06,0,0,0-3.05-3h0a3.06,3.06,0,1,0,0,6.11Z"/><path class="cls-4" d="M345.69,19.53a3.06,3.06,0,0,0,0-6.11h0a3.06,3.06,0,0,0,0,6.11Z"/><path class="cls-4" d="M300.48,59.31a4.36,4.36,0,0,0-.62-.07,3.07,3.07,0,0,0-3,2.44,3.26,3.26,0,0,0-.06.62,3.05,3.05,0,0,0,3.06,3h0a3.26,3.26,0,0,0,.62-.06,3.05,3.05,0,0,0,2.43-3,3.26,3.26,0,0,0-.06-.62A3.07,3.07,0,0,0,300.48,59.31Z"/><path class="cls-4" d="M298.67,34.56a2.88,2.88,0,0,0,1.19.24,2.18,2.18,0,0,0,.62-.06,3.05,3.05,0,0,0,0-6h0a2.18,2.18,0,0,0-.62-.06,2.88,2.88,0,0,0-1.19.24,3,3,0,0,0,0,5.62Z"/><path class="cls-4" d="M327.59,2.39a3.05,3.05,0,0,0,5.86-1.19,3.18,3.18,0,0,0-.26-1.2h-5.58a2.9,2.9,0,0,0-.25,1.22A3.13,3.13,0,0,0,327.59,2.39Z"/><path class="cls-4" d="M330.41,95.91a3.05,3.05,0,0,0,3-3.06h0a3,3,0,0,0-3-3h0a3.06,3.06,0,1,0,0,6.11Z"/><path class="cls-4" d="M315.13,111.18a3,3,0,0,0,3.06-3.05h0a3.06,3.06,0,0,0-3.05-3.06h0a3.06,3.06,0,1,0,0,6.11Z"/><path class="cls-4" d="M345.69,111.18a3.06,3.06,0,0,0,0-6.11h0a3.06,3.06,0,0,0,0,6.11Z"/><path class="cls-4" d="M315.13,80.63a3.06,3.06,0,1,0,0-6.11h0a3.06,3.06,0,0,0,0,6.11Z"/><path class="cls-4" d="M345.69,80.63a3.06,3.06,0,0,0,0-6.11h0a3.06,3.06,0,0,0,0,6.11Z"/><path class="cls-4" d="M297,124.59a3.08,3.08,0,0,0,1.63,1.62,2.88,2.88,0,0,0,1.19.24,3.26,3.26,0,0,0,.62-.06,3.06,3.06,0,0,0,0-6,3.26,3.26,0,0,0-.62-.06,3.06,3.06,0,0,0-3.06,3.05A3.24,3.24,0,0,0,297,124.59Z"/><path class="cls-4" d="M299.86,95.91a3.26,3.26,0,0,0,.62-.06,3.06,3.06,0,0,0,0-6h0a3.26,3.26,0,0,0-.62-.06,3.06,3.06,0,1,0,0,6.11Z"/><path class="cls-4" d="M329.79,59.31a3.07,3.07,0,0,0-2.37,2.37,3.26,3.26,0,0,0-.06.62,3,3,0,0,0,3.05,3h0a3,3,0,0,0,3-3,3.26,3.26,0,0,0-.06-.62A3.06,3.06,0,0,0,329.79,59.31Z"/><path class="cls-4" d="M330.41,157a3.06,3.06,0,1,0,0-6.11h0a3.06,3.06,0,1,0,0,6.11Z"/><path class="cls-4" d="M315.14,172.29a3.06,3.06,0,0,0,0-6.12h0a3.06,3.06,0,0,0,0,6.12Z"/><path class="cls-4" d="M345.69,172.29a3.06,3.06,0,0,0,0-6.12h0a3.06,3.06,0,0,0,0,6.12Z"/><path class="cls-4" d="M315.13,141.73a3.05,3.05,0,0,0,3.06-3h0a3.06,3.06,0,0,0-3.05-3.06h0a3.06,3.06,0,0,0,0,6.11Z"/><path class="cls-4" d="M345.68,135.62a3.06,3.06,0,1,0,3.06,3.06,3.06,3.06,0,0,0-3.06-3.06Z"/><path class="cls-4" d="M302.85,183.89a3.06,3.06,0,0,0-2.37-2.38,3.26,3.26,0,0,0-.62-.06,3,3,0,0,0-1.19.24,3.08,3.08,0,0,0-1.81,2.2,3.18,3.18,0,0,0-.06.62,3.06,3.06,0,0,0,3.06,3.05,3.26,3.26,0,0,0,.62-.06,3,3,0,0,0,2.43-3A3.18,3.18,0,0,0,302.85,183.89Z"/><path class="cls-4" d="M298.67,156.77a3,3,0,0,0,1.19.24,3.26,3.26,0,0,0,.62-.06,3.06,3.06,0,0,0,0-6h0a3.26,3.26,0,0,0-.62-.06,3.05,3.05,0,0,0-1.19,5.87Z"/><path class="cls-4" d="M330.38,120.38a3,3,0,0,0-3,3.05,3,3,0,1,0,6.08,0A3,3,0,0,0,330.38,120.38Z"/><path class="cls-4" d="M330.4,218.12a3.06,3.06,0,0,0,3.06-3.06h0a3,3,0,0,0-3-3.06h0a3.06,3.06,0,0,0,0,6.12Z"/><path class="cls-4" d="M315.13,227.28a3.06,3.06,0,1,0,3.06,3.06,3.06,3.06,0,0,0-3.06-3.06Z"/><path class="cls-4" d="M345.68,227.28a3.06,3.06,0,1,0,3.06,3.06,3.06,3.06,0,0,0-3.06-3.06Z"/><path class="cls-4" d="M315.13,202.84a3.06,3.06,0,0,0,3.06-3.06h0a3.07,3.07,0,0,0-3.05-3.06h0a3.06,3.06,0,0,0,0,6.12Z"/><path class="cls-4" d="M345.69,202.84a3.06,3.06,0,0,0,0-6.12h0a3.06,3.06,0,0,0,0,6.12Z"/><path class="cls-4" d="M298.67,248.42a3,3,0,0,0,1.19.24,3.26,3.26,0,0,0,.62-.06,3,3,0,0,0,1.91-4.7h0a3.05,3.05,0,0,0-1.91-1.28,2.62,2.62,0,0,0-.62-.07,3,3,0,0,0-2.53,1.35,3,3,0,0,0-.53,1.71A3,3,0,0,0,298.67,248.42Z"/><path class="cls-4" d="M299.86,218.12a3.27,3.27,0,0,0,.62-.07,3.06,3.06,0,0,0,0-6h0a3.26,3.26,0,0,0-.62-.06,3.06,3.06,0,0,0,0,6.12Z"/><path class="cls-4" d="M329.79,181.51a3.06,3.06,0,0,0,.61,6.05h0a3.07,3.07,0,0,0,3.06-3.05h0a2.48,2.48,0,0,0-.07-.61A3.05,3.05,0,0,0,329.79,181.51Z"/><path class="cls-4" d="M330.4,279.22a3.06,3.06,0,0,0,3.06-3.05h0a3,3,0,0,0-3-3.05h0a3.06,3.06,0,1,0,0,6.11Z"/><path class="cls-4" d="M315.13,294.49a3.05,3.05,0,0,0,3.06-3.05h0a3.06,3.06,0,1,0-3.06,3.05Z"/><path class="cls-4" d="M345.69,294.49a3.06,3.06,0,0,0,0-6.11h0a3.06,3.06,0,0,0,0,6.11Z"/><path class="cls-4" d="M315.13,263.94a3.05,3.05,0,0,0,3.06-3.05h0a3.06,3.06,0,0,0-3.05-3.06h0a3.06,3.06,0,1,0,0,6.11Z"/><path class="cls-4" d="M345.69,263.94a3.06,3.06,0,0,0,0-6.11h0a3.06,3.06,0,0,0,0,6.11Z"/><path class="cls-4" d="M299.86,279.22a3.26,3.26,0,0,0,.62-.06,3.06,3.06,0,0,0,0-6h0a3.26,3.26,0,0,0-.62-.06,3.06,3.06,0,0,0,0,6.11Z"/><path class="cls-4" d="M330.39,242.57a3,3,0,0,0-3,3.06,3.13,3.13,0,0,0,.23,1.17,3,3,0,1,0,2.8-4.23Z"/><path class="cls-4" d="M333.46,306.71a3.26,3.26,0,0,0-.06-.62,3.06,3.06,0,0,0-3.61-2.37,3.09,3.09,0,0,0-1.63.94c1.76.74,3.52,1.47,5.29,2.17,0,0,0-.08,0-.12Z"/><path class="cls-4" d="M266.78,2.91a3.05,3.05,0,0,0,5.34-.52,3.05,3.05,0,0,0,0-2.39h-5.59A3,3,0,0,0,266.78,2.91Z"/><path class="cls-4" d="M269.31,59.24a3.08,3.08,0,0,0-3,2.44,4.32,4.32,0,0,0-.05.62,3.05,3.05,0,0,0,6.1,0,3.26,3.26,0,0,0-.06-.62A3.06,3.06,0,0,0,269.31,59.24Z"/><path class="cls-4" d="M269.31,34.8a3.05,3.05,0,0,0,0-6.1h0a3.05,3.05,0,1,0,0,6.1Z"/><path class="cls-4" d="M257.09,47A3.06,3.06,0,0,0,254,44h0a3.17,3.17,0,0,0-.87.14c.39,2,.78,4,1.15,5.94A3,3,0,0,0,257.09,47Z"/><path class="cls-4" d="M284.59,50.08a3.06,3.06,0,0,0,0-6.11h0a3.06,3.06,0,0,0,0,6.11Z"/><path class="cls-4" d="M254,13.42h0a3.06,3.06,0,1,0,3.06,3h0A3.06,3.06,0,0,0,254,13.42Z"/><path class="cls-4" d="M284.58,19.53a3.06,3.06,0,1,0,0-6.11h0a3.06,3.06,0,0,0,0,6.11Z"/><path class="cls-4" d="M267.6,120.87a3,3,0,0,0-1.34,2.53,3.19,3.19,0,0,0,.23,1.19,3.05,3.05,0,0,0,5.87-1.19,3,3,0,0,0-.52-1.7A3.06,3.06,0,0,0,267.6,120.87Z"/><path class="cls-4" d="M269.31,95.91a3.05,3.05,0,0,0,3.05-3.06h0a3,3,0,0,0-3.05-3h0a3.06,3.06,0,1,0,0,6.11Z"/><path class="cls-4" d="M284.58,111.18a3.06,3.06,0,1,0,0-6.11h0a3.06,3.06,0,0,0,0,6.11Z"/><path class="cls-4" d="M284.59,80.63a3.06,3.06,0,0,0,0-6.11h0a3.06,3.06,0,0,0,0,6.11Z"/><path class="cls-4" d="M269.31,181.45a3.07,3.07,0,0,0-3,2.44,4.18,4.18,0,0,0-.05.61,3.05,3.05,0,1,0,6.1,0,3.15,3.15,0,0,0-.06-.61A3.05,3.05,0,0,0,269.31,181.45Z"/><path class="cls-4" d="M269.3,157a3.05,3.05,0,0,0,3.06-3h0a3,3,0,0,0-3.05-3h0a3.06,3.06,0,0,0,0,6.11Z"/><path class="cls-4" d="M254,172.29a3.06,3.06,0,0,0,3.06-3.06h0a3.06,3.06,0,0,0-3-3.06h0a3.06,3.06,0,0,0,0,6.12Z"/><path class="cls-4" d="M284.58,172.29a3.06,3.06,0,0,0,0-6.12h0a3.06,3.06,0,0,0,0,6.12Z"/><path class="cls-4" d="M284.58,135.62a3.06,3.06,0,1,0,3.06,3.06,3.06,3.06,0,0,0-3.06-3.06Z"/><path class="cls-4" d="M238.76,187.56a3.06,3.06,0,0,0,3.05-3.06,3.15,3.15,0,0,0-.06-.61,3.06,3.06,0,0,0-6,0,3.15,3.15,0,0,0-.06.61A3.06,3.06,0,0,0,238.76,187.56Z"/><path class="cls-4" d="M271,248.14a3.05,3.05,0,1,0-4.24-.82A3.06,3.06,0,0,0,271,248.14Z"/><path class="cls-4" d="M269.3,218.12a3.06,3.06,0,0,0,3.06-3.06h0a3,3,0,0,0-3-3.06h0a3.06,3.06,0,0,0,0,6.12Z"/><path class="cls-4" d="M257.09,230.34a3.06,3.06,0,0,0-3-3.06h0a3.06,3.06,0,1,0,3.06,3.06Z"/><path class="cls-4" d="M284.58,227.28a3.06,3.06,0,1,0,3.06,3.06,3.06,3.06,0,0,0-3.06-3.06Z"/><path class="cls-4" d="M254,202.84a3.06,3.06,0,0,0,3.06-3.06h0a3.06,3.06,0,0,0-3-3.06h0a3.06,3.06,0,0,0,0,6.12Z"/><path class="cls-4" d="M284.58,202.84a3.06,3.06,0,0,0,0-6.12h0a3.06,3.06,0,0,0,0,6.12Z"/><path class="cls-4" d="M238.76,218.11a3.05,3.05,0,1,0-3-3.14c.26.72.53,1.44.81,2.15A3,3,0,0,0,238.76,218.11Z"/><path class="cls-4" d="M284.58,263.94a3.06,3.06,0,0,0,0-6.11h0a3.06,3.06,0,0,0,0,6.11Z"/><path class="cls-3" d="M137.71,939.73c21.26,9.95,40.47,23.27,59,37.65A116.58,116.58,0,0,0,216.43,975c41.42-8.82,78.09-50.06,68.26-91.3-13-54.57-92.12-74.42-101.31-129.73-4.79-29.24,12.48-57.55,14.37-87.12C200.7,621.72,166,580.43,124,563.49,83.63,547,41.68,550,0,556.09V904c14.75,4,29.15,10.09,43.32,17.12C75.71,920,108.28,926,137.71,939.73Z"/><path class="cls-4" d="M147.21,198.63c33,2.65,70.29.57,93.26-23.3C265.2,149.57,263.68,109,258.34,73.7q-1.8-11.82-4-23.65c-.37-2-.76-4-1.15-5.94C250.21,29.27,246.7,14.51,242.48,0H0V165.07A529.88,529.88,0,0,0,147.21,198.63Z"/><path class="cls-5" d="M1853.75,313.62c-10.76,34.72-3.43,72.36,6.74,107.25s23.28,69.63,24.08,106c.62,29.86-7.09,59.17-11.47,88.69-11.49,78.2,2.72,161.91,46.9,226.94V254.52C1889.8,257.43,1863,283.69,1853.75,313.62Z"/><path class="cls-2" d="M1907.15,1080H1920v-71.59c-144.1-43-308.66-17.51-430.39,71.59h237a280.47,280.47,0,0,1,27.48-7.41C1804.63,1061.7,1857.56,1065,1907.15,1080Z"/><path class="cls-4" d="M1323.78,24.64a125.57,125.57,0,0,0,100.27,14.65c23.06-6.52,44.15-19.71,67.88-23.16,16.07-2.34,32-.07,48,3.31,19.19,4.06,38.4,9.71,57.91,10.87,31.71,1.88,63.07-10,87.41-30.31H1295.81A124.7,124.7,0,0,0,1323.78,24.64Z"/><path class="cls-5" d="M292.59,1048.55c-34.71-19.38-64.36-46.81-95.83-71.17-18.58-14.38-37.79-27.7-59-37.65C108.28,926,75.71,920,43.32,921.16A223.66,223.66,0,0,0,0,927.05v153H394.19c-7.95-1.27-16-2.3-23.87-3.71A249.76,249.76,0,0,1,292.59,1048.55Z"/></g></g></svg>