<svg xmlns="http://www.w3.org/2000/svg" viewBox="0 0 189.16 120.96"><defs><style>.a{fill:#404040;}</style></defs><circle class="a" cx="41.98" cy="108.06" r="12.9"/><circle class="a" cx="303.4" cy="289" r="12.9" transform="translate(-282.07 -103.5) rotate(-13.28)"/><path class="a" d="M325.38,262.93H258.14l-1.32-7.64h55.27a3.92,3.92,0,0,0,3.68-2.5l13.16-33.16a4,4,0,0,0-2.22-5.12,4,4,0,0,0-1.46-.28H250l-3.16-18.15a4,4,0,0,0-3.95-3.29H227.74a4,4,0,0,0,0,7.9h11.84l11.32,66.84a3.94,3.94,0,0,0,3.95,3.29h70.53a3.95,3.95,0,0,0,0-7.9Zm-31.58-38.6c1.76-.58,2.35-.24,2.35-.24a3.91,3.91,0,0,1,2.22.83c.76.76,2,2.7.7,4.1a4.45,4.45,0,0,1-4.45,1.64c-1.79-.38-2.82-4.07-2.82-4.07A3,3,0,0,1,293.8,224.33Zm-3.91,19.07a8,8,0,0,0,3.82-1.92,8.43,8.43,0,0,1,1.28-.94,1,1,0,0,1,1,1.75,6.35,6.35,0,0,0-1,.73,9.73,9.73,0,0,1-4.6,2.31,13.83,13.83,0,0,1-4,.58,14.66,14.66,0,0,1-4.09-.59,10.58,10.58,0,0,1-5.37-3.23,1,1,0,1,1,1.49-1.34,8.54,8.54,0,0,0,4.4,2.63A12.33,12.33,0,0,0,289.89,243.4ZM273.8,224.33c1.76-.58,2.35-.24,2.35-.24a3.91,3.91,0,0,1,2.22.83c.76.76,2,2.7.7,4.1a4.45,4.45,0,0,1-4.45,1.64c-1.79-.38-2.82-4.07-2.82-4.07A3,3,0,0,1,273.8,224.33Z" transform="translate(-223.79 -180.93)"/><path class="a" d="M369.3,204a1.35,1.35,0,0,0,.37-.1l.45-.18-.27-.74-.93.34.19.53A.23.23,0,0,0,369.3,204Z" transform="translate(-223.79 -180.93)"/><path class="a" d="M366.56,204.9a1.1,1.1,0,0,0,0-.76l-.92.33.4,1.1A1.92,1.92,0,0,0,366.56,204.9Z" transform="translate(-223.79 -180.93)"/><rect class="a" x="365.24" y="200.7" width="3.03" height="0.81" transform="translate(-270.43 -43.53) rotate(-19.98)"/><rect class="a" x="367.05" y="216.89" width="1.16" height="3.65" transform="translate(-276.41 -42.07) rotate(-19.99)"/><rect class="a" x="361.48" y="201.78" width="0.95" height="3.67" transform="translate(-271.6 -44.84) rotate(-20)"/><path class="a" d="M412.15,199.84c-3.8-14.16-20.15-22.09-36.53-17.69s-26.58,19.43-22.78,33.6c2.25,8.38-13.92,15.16-5.72,17.83,6.07,2,35.57,1.65,42.25-.14C405.75,229.05,416,214,412.15,199.84Zm-37.85-.53a5.3,5.3,0,0,1,2.55-.13,12.75,12.75,0,0,0,1.72.15,2.94,2.94,0,0,0,1-.16,2.52,2.52,0,0,0,1-.63,4.53,4.53,0,0,0,.72-1.21l.63.31a3.74,3.74,0,0,1-2.1,2.57,5.26,5.26,0,0,1-2.56.1,10.77,10.77,0,0,0-1.7-.15,3.11,3.11,0,0,0-1,.16,2.35,2.35,0,0,0-.95.62,4.84,4.84,0,0,0-.73,1.18l-.63-.29A3.89,3.89,0,0,1,374.3,199.31Zm6.62,12.15a2.92,2.92,0,0,0-.18.78c0,.2-.05.31-.09.32a.67.67,0,0,1-.31,0,7.39,7.39,0,0,1-1.8-.83,9,9,0,0,1-1.35,2.8.7.7,0,0,1-.2.2c-.07,0-.13,0-.2-.16a2.22,2.22,0,0,0-.61-.67,6.51,6.51,0,0,0,1.37-2.71,2.16,2.16,0,0,0,.06-.57l1.05-.2c.14,0,.22,0,.25.07a.21.21,0,0,1-.07.21l-.06.06A7.11,7.11,0,0,0,380.92,211.46ZM369.69,201.4l-.1,0-1.38.48-2,.73-1.37.53c-.06,0-.1,0-.11,0a.17.17,0,0,1-.06-.09l-.25-.76-.25-.69-.3-.75c0-.06,0-.1,0-.11a.17.17,0,0,1,.09-.06l1.39-.48,2-.73,1.37-.52a.15.15,0,0,1,.12,0s0,0,.06.1l.25.76.25.69.29.74A.15.15,0,0,1,369.69,201.4Zm-7-1.93,1.52-.53,3.18-1.15,1.51-.58c.06,0,.1,0,.12,0a.43.43,0,0,1,0,.1l.28.78c0,.06,0,.1,0,.11a.21.21,0,0,1-.1.06l-1.53.53-3.17,1.15-1.51.58a.35.35,0,0,1-.12,0,.3.3,0,0,1,0-.1l-.29-.78c0-.06,0-.1,0-.11S362.65,199.49,362.71,199.47Zm1.91,7.15-.82.3c-.06,0-.09,0-.11,0a.17.17,0,0,1-.06-.09l-.21-.58-.89.33.39,1.07c0,.06,0,.1,0,.11s0,0-.1.06l-.82.3c-.06,0-.1,0-.11,0s0,0-.06-.1l-1-2.79-.58-1.61-.82-2.17c0-.07,0-.11,0-.12s0,0,.1-.06l.95-.32.88-.32.94-.37c.06,0,.1,0,.11,0s0,0,.06.1l.62,1.77.62,1.7,1,2.61c0,.06,0,.1,0,.12S364.67,206.6,364.62,206.62Zm-.32-2.54a.15.15,0,0,1,0-.12l.1-.05,1.54-.54,3-1.1,1.52-.57c.06,0,.1,0,.11,0s0,0,.06.1l.47,1.37.57,1.54.52,1.38a1,1,0,0,1,0,.8,1,1,0,0,1-.39.36,5.27,5.27,0,0,1-.73.31.59.59,0,0,1-.32.06.87.87,0,0,1-.19-.26,3.1,3.1,0,0,0-.52-.68,7.67,7.67,0,0,0,.75-.22A.28.28,0,0,0,371,206l-.6-1.64c-.2.09-.41.18-.61.25a2.66,2.66,0,0,1-1,.23.46.46,0,0,1-.29-.13,1,1,0,0,1-.18-.32l-.29-.82-.6.22a2,2,0,0,1-.41,2,.73.73,0,0,1-.21.19c-.06,0-.17,0-.32-.16a1.12,1.12,0,0,0-.43-.2l.73,2,.48,1.25c0,.06,0,.09,0,.11a.13.13,0,0,1-.09,0l-.84.31c-.06,0-.1,0-.11,0a.19.19,0,0,1-.05-.1l-.44-1.26-1-2.69Zm5.15,2.95.28.69c0,.06,0,.1,0,.11a.21.21,0,0,1-.1.06l-.77.28c-.06,0-.09,0-.11,0s0,0,0-.09l-.24-.71-.29-.8h0l-1,.4c-.06,0-.1,0-.11,0a.17.17,0,0,1-.06-.09l-.21-.59a.17.17,0,0,1,0-.11l.09-.05,1.05-.36,1.09-.4,1-.4c.06,0,.09,0,.11,0s0,0,.05.09l.22.59a.15.15,0,0,1,0,.11s0,0-.09.05l-1.05.36-.1,0Zm7.93,14.63a2.12,2.12,0,0,1-.8.72,10.75,10.75,0,0,1-1.54.67,7.1,7.1,0,0,1-2.47.59,1.15,1.15,0,0,1-1.05-.79,2.19,2.19,0,0,1,0-1.32,7.91,7.91,0,0,1,.69-1.59l1.21-2.08-1.43.52-1,.4c-.06,0-.1,0-.12,0s0,0-.05-.1l-.25-.69q-.11.3-.18.33a.85.85,0,0,1-.32-.05,3.92,3.92,0,0,0-.7-.1l.25.68,1,2.66c0,.06,0,.09,0,.11a.17.17,0,0,1-.09.06l-.86.31a.17.17,0,0,1-.12,0,.31.31,0,0,1-.05-.09l-.22-.6-1.09.4.4,1.08c0,.08,0,.13-.07.15l-.88.32c-.09,0-.14,0-.17-.06l-1-2.83-.61-1.66-.79-2.11c0-.08,0-.13.08-.16l1-.35,1-.37,1-.39c.09,0,.15,0,.17.06l.64,1.79.27.74a9.17,9.17,0,0,0,.55-3.25,4.58,4.58,0,0,0-.11-1.14,9.56,9.56,0,0,1,1.22-.16c.14,0,.22,0,.24.11a.39.39,0,0,1,0,.26,1.85,1.85,0,0,0-.08.6v.6l2.52-.92,1.35-.52a.17.17,0,0,1,.12,0,.31.31,0,0,1,0,.09l.32.87c0,.07,0,.11,0,.13s0,0-.1.05l-1.37.48-3,1.09a11.39,11.39,0,0,1-.28,1.44l1-.34,2.2-.8a.92.92,0,0,0,.25-.15l.17-.11a1.16,1.16,0,0,1,.65.22,1.42,1.42,0,0,1,.51.37.29.29,0,0,1-.11.34,1.84,1.84,0,0,0-.39.45c-.29.43-.71,1.15-1.26,2.15a11.42,11.42,0,0,0-.77,1.62,1.18,1.18,0,0,0-.06.77c.06.17.23.24.52.2a10.5,10.5,0,0,0,1.59-.5c.81-.29,1.27-.58,1.37-.85a1.11,1.11,0,0,0,0-.66,8.5,8.5,0,0,0-.25-.9,3.24,3.24,0,0,0,.9.06,1.13,1.13,0,0,1,.33,0,.2.2,0,0,1,.11.15.6.6,0,0,1,.06.18A2.37,2.37,0,0,1,377.38,221.66Zm11.7-4.47a1.41,1.41,0,0,1-.16.49,1.79,1.79,0,0,1-.7.61,10.28,10.28,0,0,1-1.48.63,5.16,5.16,0,0,1-2.23.51,1.44,1.44,0,0,1-.7-.92l-.79-2.17-.39-1c0-.08,0-.13.08-.16l.68-.22,1-.37-.49-1.34-.61.22-.85.34c-.06,0-.1,0-.11,0a.17.17,0,0,1-.06-.09l-.23-.63-.06.18c-.06.17-.11.27-.15.28s-.15,0-.28-.15a2.66,2.66,0,0,0-.55-.34v0l.38,1.09.49,1.35.42,1.09c0,.06,0,.1,0,.11s0,0-.1.06l-1,.32-1.46.53.62,1.7c.32-.2.75-.49,1.3-.89l-.5-.47s-.06-.05-.06-.07,0-.09.1-.16l.52-.41a.39.39,0,0,1,.11-.08s.09,0,.14,0a14.93,14.93,0,0,1,1.8,1.77l.05.08s0,.09-.1.16l-.57.52-.12.08s-.08,0-.14-.07l-.54-.67c-.63.52-1.42,1.1-2.36,1.75a1.43,1.43,0,0,0-.37.32.27.27,0,0,1-.15.15c-.06,0-.13,0-.2-.09a5.86,5.86,0,0,1-.67-1l.77-.4-1.5-4.12-.54-1.42a.15.15,0,0,1,0-.12s0,0,.1-.06l1.19-.4,0,0-.11-.33a3.51,3.51,0,0,0-.34-.72l1-.32c.11,0,.18,0,.21.07a1,1,0,0,1,0,.18,1.47,1.47,0,0,0,.1.42l.13.33.18-.06,1-.38h0a7.59,7.59,0,0,0,.49-3,3.54,3.54,0,0,0-.13-.69,9.29,9.29,0,0,1,1.06-.18c.14,0,.22,0,.25.08a.35.35,0,0,1,0,.24,2,2,0,0,0,0,.43c0,.37,0,.57,0,.6l2.22-.81,1.14-.44c.1,0,.17,0,.2.06v.05c0,.2.13.48.25.83.66,1.94,1.08,3.27,1.26,4s.14,1.33-.16,1.64a2.71,2.71,0,0,1-.89.49.61.61,0,0,1-.33.06,1.12,1.12,0,0,1-.2-.27,2.81,2.81,0,0,0-.48-.66c.28-.07.51-.14.68-.2s.32-.36.23-.8-.5-1.73-1.21-3.81l-2.83,1a7.44,7.44,0,0,1-.23,1.1,7.21,7.21,0,0,0,.81-.27l.88-.32.65-.26c.06,0,.1,0,.12,0s0,.05.05.1l.35,1,.39,1.07.38,1c0,.06,0,.1,0,.11s0,0-.11.06l-.66.22-1,.35.7,1.9q.15.44.33.48a3.1,3.1,0,0,0,1.37-.32c.76-.27,1.19-.52,1.3-.75a1.93,1.93,0,0,0-.1-1.14,3.48,3.48,0,0,0,.87,0h.32a.21.21,0,0,1,.13.13s0,.11,0,.21A2.68,2.68,0,0,1,389.08,217.19Zm8-11.73a1.92,1.92,0,0,0-.38.56,24.89,24.89,0,0,1-2.39,3.59l1.07,2.93.51,1.33a1.9,1.9,0,0,1,.14.74,1.17,1.17,0,0,1-.17.47,2,2,0,0,1-.77.6c-.27.13-.7.31-1.3.53l-.13.06q-.17.06-.24,0a.79.79,0,0,1-.19-.24,3.09,3.09,0,0,0-.72-.82,16.24,16.24,0,0,0,1.63-.5.52.52,0,0,0,.32-.77l-1.25-3.45a10.38,10.38,0,0,0-.66-1.51l.87-.25a15.55,15.55,0,0,0,1.68-2.49l-5.37,1.95-1.47.56a.15.15,0,0,1-.12,0s0-.05-.06-.1l-.34-.94a.17.17,0,0,1,0-.12l.09-.05,1.49-.52,6-2.18a1.56,1.56,0,0,0,.42-.22.33.33,0,0,1,.14-.1c.1,0,.32,0,.68.22s.55.29.59.38A.32.32,0,0,1,397.09,205.46Z" transform="translate(-223.79 -180.93)"/><rect class="a" x="378.81" y="214.44" width="1.57" height="0.68" transform="translate(-274.37 -38.05) rotate(-20.01)"/><rect class="a" x="379.34" y="215.88" width="1.57" height="0.7" transform="translate(-274.91 -37.35) rotate(-20.07)"/></svg>