<svg xmlns="http://www.w3.org/2000/svg" viewBox="0 0 299.29 493.42"><g id="圖層_2" data-name="圖層 2"><g id="圖層_1-2" data-name="圖層 1"><path d="M269,6.1c20.6,6.3,21.53,7.35,20.74,24.37-1.55,33.09-4.26,66.11-4.73,99.26-.57,40.63,2.46,80.87,11.45,120.57a112.09,112.09,0,0,1,2.8,21.27c.41,13.14-4.63,23.6-15.18,31.47A148,148,0,0,1,264,315.19c-15.79,8.28-31.48,16.65-44.95,28.67-18,16.05-30.2,36.18-41.55,57s-22.49,42-37.89,60.39c-24.29,29-55.16,37.72-91.15,28.8-28.87-7.16-45.73-29-48.17-60.27-1.9-24.51,5-46.75,17.39-67.54,15.16-25.5,34.9-47.42,54.47-69.48,18-20.29,36.83-39.87,53.93-61,9.31-11.51,13.07-24.1,12.8-38.77-.9-47.62-1.29-95.24-1.81-142.86-.09-8.66.14-17.31.15-26,0-5.14,2.31-8.89,6.54-11.62a50,50,0,0,1,17.95-7.27C199-1.82,236.17-2,269,6.1ZM7.77,394.83C3.13,409,2.31,426.12,6.6,443.35c4.49,18,14.77,31.74,32.09,39,37.23,15.72,75.25,5.46,100.18-26.38,11.14-14.22,20.22-29.71,28.9-45.47,9.31-16.91,18.06-34.18,29.94-49.53,15.62-20.18,35.61-34.8,58.28-46.12,9.08-4.53,18.18-9.08,26.23-15.44,8.83-7,13.36-15.9,13-27.24A114.43,114.43,0,0,0,293,253.4c-3.56-18.31-7.4-36.57-9.27-55.17-4.19-41.75-2.88-83.5-.48-125.26,1-16.62,1.72-33.25,2.67-49.88.28-4.92-1.86-7.74-6.51-9.25C272.63,11.63,265.84,9.3,258.79,8,230,2.6,201.13,3.31,172.25,7.23a77.36,77.36,0,0,0-21.6,6c-6.5,2.94-9.93,7.37-9.71,15.1.52,18.14.26,36.3.44,54.45q.56,57.21,1.3,114.4a52.13,52.13,0,0,1-10.9,33.47c-9.69,12.76-20.27,24.74-31,36.58-21.16,23.31-42.75,46.24-62,71.2C26.12,354.82,14.71,372,7.77,394.83Z"/></g></g></svg>