<?xml version="1.0" encoding="utf-8"?>
<!-- Generator: Adobe Illustrator 24.2.3, SVG Export Plug-In . SVG Version: 6.00 Build 0)  -->
<svg version="1.1" id="圖層_1" xmlns="http://www.w3.org/2000/svg" xmlns:xlink="http://www.w3.org/1999/xlink" x="0px" y="0px"
	 viewBox="0 0 66.1 108" style="enable-background:new 0 0 66.1 108;" xml:space="preserve">
<style type="text/css">
	.st0{fill:none;stroke:#404040;stroke-width:3;}
	.st1{fill:none;stroke:#404040;stroke-width:5;}
	.st2{fill:none;stroke:#404040;stroke-width:4.8691;stroke-linecap:round;}
	.st3{fill:none;stroke:#404040;stroke-width:5;stroke-linecap:round;}
	.st4{fill:none;stroke:#404040;stroke-width:4.9457;stroke-linecap:round;}
	.st5{fill:none;stroke:#404040;stroke-width:5.0569;}
	.st6{fill:none;stroke:#404040;stroke-width:4.9323;stroke-linecap:round;}
</style>
<g>
	<path id="Path_4445" class="st0" d="M64.7,59.5c0.1,2.3-1,4.5-2.8,5.9c-1.8,1.3-3.7,2.4-5.7,3.3c-4.9,2.3-9.2,5.7-12.6,10
		c-2.4,3.4-4.6,7-6.5,10.7c-1.8,3.4-3.9,6.7-6.3,9.8c-5.4,6.9-13.6,9.1-21.7,5.7c-3.6-1.5-6.2-4.7-7-8.5c-0.9-3.5-0.8-7.1,0.3-10.5
		c1.4-4.5,3.7-8.6,6.7-12.2c4.2-5.4,8.8-10.4,13.4-15.4c2.3-2.6,4.6-5.2,6.7-7.9c1.6-2.1,2.4-4.6,2.4-7.2
		c-0.1-8.2-0.2-16.5-0.3-24.7c0-3.9,0-7.9-0.1-11.8c0-1.4,0.9-2.8,2.3-3.2c1.5-0.7,3.1-1.1,4.7-1.3c6.2-1,12.5-0.9,18.7,0.2
		c1.5,0.3,3,0.7,4.5,1.3c0.9,0.2,1.5,1.1,1.4,2c-0.2,3.6-0.4,7.2-0.6,10.8c-0.7,8.9-0.7,18,0,27c0.4,4,1.2,8,2,11.9
		C64.5,56.8,64.7,58.1,64.7,59.5z"/>
	<line id="Line_1" class="st1" x1="31.3" y1="10.1" x2="62.1" y2="10.1"/>
	<line id="Line_1-2" class="st1" x1="31.3" y1="20.6" x2="62.1" y2="20.6"/>
	<line id="Line_1-3" class="st1" x1="31.3" y1="31.1" x2="62.1" y2="31.1"/>
	<line id="Line_1-4" class="st1" x1="31.3" y1="41.7" x2="62.1" y2="41.7"/>
	<line id="Line_1-5" class="st2" x1="29.1" y1="52.2" x2="62.6" y2="52.2"/>
	<line id="Line_1-6" class="st3" x1="20.1" y1="62.7" x2="61.4" y2="64.2"/>
	<line id="Line_1-7" class="st4" x1="11.3" y1="73.2" x2="45" y2="75.4"/>
	<line id="Line_1-8" class="st5" x1="3.5" y1="83.7" x2="38.1" y2="86.7"/>
	<line id="Line_1-9" class="st6" x1="3.5" y1="95.7" x2="29.8" y2="98.7"/>
</g>
</svg>
