<?xml version="1.0" encoding="utf-8"?>
<!-- Generator: Adobe Illustrator 24.2.3, SVG Export Plug-In . SVG Version: 6.00 Build 0)  -->
<svg version="1.1" id="圖層_1" xmlns="http://www.w3.org/2000/svg" xmlns:xlink="http://www.w3.org/1999/xlink" x="0px" y="0px"
	 viewBox="0 0 66.1 108" style="enable-background:new 0 0 66.1 108;" xml:space="preserve">
<style type="text/css">
	.st0{fill:none;stroke:#404040;stroke-width:3;}
	.st1{fill:none;stroke:#404040;stroke-width:5;}
	.st2{fill:none;stroke:#404040;stroke-width:5;stroke-linecap:round;}
</style>
<g id="圖層_2_1_">
	<g id="圖層_1-2">
		<g id="Group_83">
			<path id="Path_4445" class="st0" d="M64.5,60c0.1,2.3-1,4.5-2.8,5.9c-1.8,1.3-3.7,2.4-5.7,3.3c-4.9,2.3-9.2,5.7-12.6,10
				c-2.4,3.4-4.6,7-6.5,10.7c-1.8,3.4-3.9,6.7-6.3,9.8c-5.4,6.9-13.6,9.1-21.7,5.7c-3.6-1.5-6.2-4.7-7-8.5
				c-0.9-3.5-0.8-7.1,0.3-10.5c1.4-4.5,3.7-8.6,6.7-12.2c4.2-5.4,8.8-10.4,13.4-15.4c2.3-2.6,4.6-5.2,6.7-7.9
				c1.6-2.1,2.4-4.6,2.4-7.2c-0.1-8.2-0.2-16.5-0.3-24.7c0-3.9,0-7.9-0.1-11.8C31,5.8,31.9,4.4,33.3,4c1.5-0.7,3.1-1.1,4.7-1.3
				c6.2-1,12.5-0.9,18.7,0.2c1.5,0.3,3,0.7,4.5,1.3c0.9,0.2,1.5,1.1,1.4,2c-0.2,3.6-0.4,7.2-0.6,10.8C61.3,25.9,61.3,35,62,44
				c0.4,4,1.2,8,2,11.9C64.3,57.3,64.5,58.6,64.5,60z"/>
			<line id="Line_1" class="st1" x1="31.1" y1="10.6" x2="61.9" y2="10.6"/>
			<line id="Line_1-2" class="st1" x1="31.1" y1="21.1" x2="61.9" y2="21.1"/>
			<line id="Line_1-3" class="st1" x1="31.1" y1="31.6" x2="61.9" y2="31.6"/>
			<line id="Line_1-4" class="st1" x1="31.1" y1="42.2" x2="61.9" y2="42.2"/>
			<line id="Line_1-5" class="st2" x1="28.9" y1="52.7" x2="62.7" y2="52.7"/>
			<line id="Line_1-6" class="st2" x1="19.9" y1="63.2" x2="61.2" y2="64.7"/>
			<line id="Line_1-7" class="st2" x1="11.6" y1="73.7" x2="45.4" y2="75.9"/>
			<line id="Line_1-8" class="st1" x1="4.1" y1="84.2" x2="37.9" y2="87.2"/>
			<line id="Line_1-9" class="st2" x1="2.6" y1="96.2" x2="29.6" y2="99.2"/>
		</g>
	</g>
</g>
</svg>
