<svg xmlns="http://www.w3.org/2000/svg" viewBox="0 0 66.05 108.02"><defs><style>.cls-1{fill:#fff;stroke:#404040;stroke-width:3px;}.cls-2{fill:#404040;}</style></defs><g id="圖層_2" data-name="圖層 2"><g id="圖層_1-2" data-name="圖層 1"><g id="Group_82" data-name="Group 82"><path id="Path_4444" data-name="Path 4444" class="cls-1" d="M64.55,59.49a6.93,6.93,0,0,1-2.83,5.89,31.37,31.37,0,0,1-5.67,3.34,35.51,35.51,0,0,0-12.6,10A80.59,80.59,0,0,0,37,89.41a72.92,72.92,0,0,1-6.25,9.83c-5.39,6.89-13.62,9.11-21.67,5.71A11.7,11.7,0,0,1,2.11,96.5,19.31,19.31,0,0,1,2.36,86,37.17,37.17,0,0,1,9.07,73.8c4.16-5.4,8.83-10.36,13.41-15.4,2.32-2.56,4.61-5.15,6.71-7.91a11.3,11.3,0,0,0,2.35-7.24q-.18-12.36-.28-24.74c0-3.92,0-7.85-.1-11.78a3.14,3.14,0,0,1,2.1-3.26,16.55,16.55,0,0,1,4.67-1.29,58.21,58.21,0,0,1,18.72.16,34.51,34.51,0,0,1,4.47,1.27,1.78,1.78,0,0,1,1.41,2c-.2,3.59-.37,7.19-.58,10.78a171.33,171.33,0,0,0,.1,27.09c.4,4,1.24,8,2,11.94A25.27,25.27,0,0,1,64.55,59.49Z"/><circle id="Ellipse_40" data-name="Ellipse 40" class="cls-2" cx="39.15" cy="15" r="7.5"/><circle id="Ellipse_41" data-name="Ellipse 41" class="cls-2" cx="55.15" cy="35" r="7.5"/><circle id="Ellipse_42" data-name="Ellipse 42" class="cls-2" cx="33.15" cy="57" r="7.5"/><circle id="Ellipse_43" data-name="Ellipse 43" class="cls-2" cx="58.15" cy="59" r="7.5"/><circle id="Ellipse_44" data-name="Ellipse 44" class="cls-2" cx="8.15" cy="93" r="7.5"/><circle id="Ellipse_45" data-name="Ellipse 45" class="cls-2" cx="33.15" cy="82" r="7.5"/></g></g></g></svg>