<?xml version="1.0" encoding="utf-8"?>
<!-- Generator: Adobe Illustrator 24.2.3, SVG Export Plug-In . SVG Version: 6.00 Build 0)  -->
<svg version="1.1" id="pattern-white" xmlns="http://www.w3.org/2000/svg" xmlns:xlink="http://www.w3.org/1999/xlink" x="0px"
	 y="0px" viewBox="0 0 66.1 108" style="enable-background:new 0 0 66.1 108;" xml:space="preserve">
<style type="text/css">
	.socks-color{fill:#FFFFFF;stroke:#404040;stroke-width:3;}
	.socks-path{fill:#404040;}
	.socks-border{fill:#404040;}
</style>
<path id="Path_4445" class="socks-color" d="M64.6,59.5c0.1,2.3-1,4.5-2.8,5.9c-1.8,1.3-3.7,2.4-5.7,3.3c-4.9,2.3-9.2,5.7-12.6,10
	c-2.4,3.4-4.6,7-6.5,10.7c-1.8,3.4-3.9,6.7-6.3,9.8c-5.4,6.9-13.6,9.1-21.7,5.7c-3.6-1.5-6.2-4.7-7-8.5C1.2,93,1.3,89.4,2.4,86
	c1.4-4.5,3.7-8.6,6.7-12.2c4.2-5.4,8.8-10.4,13.4-15.4c2.3-2.6,4.6-5.2,6.7-7.9c1.6-2.1,2.4-4.6,2.4-7.2c-0.1-8.2-0.2-16.5-0.3-24.7
	c0-3.9,0-7.9-0.1-11.8c-0.1-1.4,0.7-2.8,2.1-3.3c1.5-0.7,3.1-1.1,4.7-1.3c6.2-1,12.5-0.9,18.7,0.2c1.5,0.3,3,0.7,4.5,1.3
	c0.9,0.2,1.5,1.1,1.4,2c-0.2,3.6-0.4,7.2-0.6,10.8c-0.7,9-0.6,18.1,0.1,27.1c0.4,4,1.2,8,2,11.9C64.3,56.8,64.5,58.1,64.6,59.5z"/>
<g>
	<g id="圖層_2_64_">
		<g id="圖層_1-2_63_">
			<circle id="Ellipse_46_35_" class="socks-path" cx="34.1" cy="90.6" r="0.8"/>
			<path class="socks-path" d="M34.9,93l0.2-0.1c0.1-0.2,0.2-0.5,0.3-0.7v-0.4h0.2c0.2-0.4,0.4-0.8,0.7-1.1c-0.1-0.1-0.3-0.2-0.4-0.4
				c-0.1-0.2-0.2-0.4-0.3-0.6s-0.1-0.5-0.3-0.6c-0.1-0.1-0.4-0.2-0.6-0.2c-0.2,0-0.5-0.1-0.7-0.2s-0.4-0.3-0.5-0.4
				c-0.2-0.2-0.4-0.4-0.6-0.4c-0.2,0-0.4,0-0.6,0.1c-0.2,0.1-0.3,0.1-0.5,0.2l-0.4,2.1c0.6,0.1,1,0.8,0.8,1.4
				c-0.1,0.6-0.7,0.9-1.2,0.8l-0.3,1.8l1.7-0.5c0-0.3,0-0.5,0.1-0.7c0.3-0.6,1.1-0.9,1.7-0.5C34.6,92.6,34.8,92.8,34.9,93z
				 M31.6,93.4v-0.5h0.5v0.5H31.6z M32.4,89.3v-0.5h0.5v0.5H32.4z M34.2,91.8c-0.7,0-1.3-0.5-1.3-1.2s0.5-1.3,1.2-1.3
				s1.3,0.5,1.3,1.2S34.9,91.8,34.2,91.8z"/>
			<path class="socks-path" d="M35.8,88.7c0.2,0.2,0.3,0.5,0.4,0.8c0,0.2,0.1,0.4,0.2,0.5c0.1,0.1,0.2,0.2,0.2,0.2c0.1-0.2,0.3-0.4,0.4-0.6
				c0.1-0.1,0.2-0.3,0.3-0.4c-1.1-1.7-3-2.8-5.1-2.8L32,87.6c0.1,0,0.2-0.1,0.2-0.1c0.2-0.1,0.4-0.1,0.7-0.2c0.1,0,0.2,0,0.2,0
				c0.3,0.1,0.6,0.3,0.8,0.5c0.1,0.1,0.3,0.2,0.4,0.3c0.2,0.1,0.4,0.1,0.5,0.1C35.3,88.4,35.6,88.5,35.8,88.7z"/>
		</g>
	</g>
	<g id="圖層_2_4_">
		<g id="圖層_1-2_3_">
			<circle id="Ellipse_46_2_" class="socks-path" cx="52.3" cy="67.7" r="0.8"/>
			<path id="Path_4462_2_" class="socks-path" d="M50.9,70.2c0.3-0.6,1.1-0.9,1.7-0.5c0.2,0.1,0.4,0.3,0.5,0.5l1.9-0.6
				c0-0.2,0.1-0.3,0.1-0.5c0.1-0.2,0.1-0.5,0.1-0.7s-0.3-0.3-0.5-0.5c-0.2-0.1-0.3-0.3-0.5-0.5c-0.1-0.2-0.2-0.4-0.3-0.6
				s-0.1-0.5-0.3-0.6c0-0.2-0.2-0.2-0.5-0.2c-0.2,0-0.5-0.1-0.7-0.2s-0.4-0.3-0.5-0.4c-0.2-0.2-0.4-0.4-0.6-0.4
				c-0.2,0-0.4,0-0.6,0.1c-0.2,0.1-0.3,0.1-0.5,0.2l-0.4,2.1c0.6,0.1,1,0.8,0.8,1.4c-0.1,0.6-0.7,0.9-1.2,0.8L49,71.4l1.7-0.5
				C50.7,70.7,50.8,70.4,50.9,70.2z M53.7,68.9h0.5v0.5h-0.5V68.9z M52.3,66.5c0.7,0,1.3,0.5,1.3,1.2S53.1,69,52.4,69
				s-1.3-0.5-1.3-1.2l0,0C51,67.1,51.6,66.5,52.3,66.5L52.3,66.5z M50.6,66h0.5v0.5h-0.5V66z M50.3,70.5h-0.5V70h0.5V70.5z"/>
			<path id="Path_4463_2_" class="socks-path" d="M55.5,69.4c0-0.1,0-0.2,0.1-0.2c0.1-0.3,0.2-0.6,0.1-0.9c-0.1-0.3-0.4-0.5-0.6-0.7
				c-0.1-0.1-0.3-0.2-0.4-0.4c-0.1-0.2-0.2-0.3-0.2-0.5c-0.1-0.3-0.2-0.6-0.4-0.8c-0.2-0.2-0.6-0.3-0.9-0.3c-0.2,0-0.4-0.1-0.5-0.1
				c-0.2-0.1-0.3-0.2-0.4-0.3c-0.2-0.2-0.5-0.5-0.8-0.5c-0.1,0-0.2,0-0.2,0c-0.2,0-0.4,0.1-0.7,0.2c-0.1,0-0.2,0.1-0.2,0.1l0.2-1.2
				c3.1,0.1,5.7,2.4,6.1,5.5L55.5,69.4L55.5,69.4z"/>
		</g>
	</g>
	<g id="圖層_2_2_">
		<g id="圖層_1-2_1_">
			<circle id="Ellipse_46_1_" class="socks-path" cx="14.2" cy="100.8" r="0.8"/>
			<path id="Path_4462_1_" class="socks-path" d="M12.7,103.3c0.3-0.6,1.1-0.9,1.7-0.5c0.2,0.1,0.4,0.3,0.5,0.5l1.9-0.6
				c0-0.2,0.1-0.3,0.1-0.5c0.1-0.2,0.1-0.5,0.1-0.7c-0.1-0.2-0.3-0.3-0.5-0.5c-0.2-0.1-0.3-0.3-0.5-0.5c-0.1-0.2-0.2-0.4-0.3-0.6
				s-0.1-0.5-0.3-0.6c-0.1-0.1-0.4-0.2-0.6-0.2c-0.2,0-0.5-0.1-0.7-0.2s-0.4-0.3-0.5-0.4c-0.2-0.2-0.4-0.4-0.6-0.4
				c-0.2,0-0.4,0-0.6,0.1c-0.2,0.1-0.3,0.1-0.5,0.2l-0.4,2.1c0.6,0.1,1,0.8,0.8,1.4c-0.1,0.6-0.7,0.9-1.2,0.8l-0.3,1.8l1.7-0.5
				C12.6,103.8,12.6,103.5,12.7,103.3z M15.6,102h0.5v0.5h-0.5V102z M14.1,99.6c0.7,0,1.3,0.5,1.3,1.2s-0.5,1.3-1.2,1.3
				s-1.3-0.5-1.3-1.2l0,0C12.9,100.2,13.4,99.6,14.1,99.6L14.1,99.6z M12.5,99.1H13v0.5h-0.5V99.1z M12.2,103.6h-0.5v-0.5h0.5V103.6
				z"/>
			<path id="Path_4463_1_" class="socks-path" d="M17.4,102.5c0-0.1,0-0.2,0.1-0.2c0.1-0.3,0.2-0.6,0.1-0.9s-0.4-0.5-0.6-0.7
				c-0.1-0.1-0.3-0.2-0.4-0.4c-0.1-0.2-0.2-0.3-0.2-0.5c-0.1-0.3-0.2-0.6-0.4-0.8c-0.2-0.2-0.6-0.3-0.9-0.3c-0.2,0-0.4-0.1-0.5-0.1
				c-0.2-0.1-0.3-0.2-0.4-0.3c-0.2-0.2-0.5-0.5-0.8-0.5c-0.1,0-0.2,0-0.2,0c-0.2,0-0.4,0.1-0.7,0.2c-0.1,0-0.2,0.1-0.2,0.1l0.2-1.2
				c3.1,0.1,5.7,2.4,6.1,5.5L17.4,102.5L17.4,102.5z"/>
		</g>
	</g>
	<g id="圖層_2_62_">
		<g id="圖層_1-2_61_">
			<path id="Path_4461_14_" class="socks-path" d="M5.1,82.1l0.3-1.3c0.3,0.1,0.5,0.4,0.5,0.8c0,0.2-0.1,0.3-0.3,0.4
				C5.4,82.1,5.3,82.2,5.1,82.1z"/>
			<circle id="Ellipse_46_33_" class="socks-path" cx="8" cy="80.7" r="0.8"/>
			<path id="Path_4462_33_" class="socks-path" d="M6.5,83.2c0.3-0.6,1.1-0.9,1.7-0.5c0.2,0.1,0.4,0.3,0.5,0.5l1.9-0.6
				c0-0.2,0.1-0.3,0.1-0.5c0.1-0.2,0.1-0.5,0.1-0.7c-0.1-0.2-0.3-0.3-0.5-0.5c-0.2-0.1-0.3-0.3-0.5-0.5c-0.1-0.2-0.2-0.4-0.3-0.6
				s-0.1-0.5-0.3-0.6C9.3,79,9,79,8.8,79s-0.5-0.1-0.7-0.2s-0.4-0.3-0.5-0.4C7.4,78.2,7.2,78,7,78s-0.4,0-0.6,0.1s-0.3,0.1-0.5,0.2
				l-0.4,2.1c0.6,0.1,1,0.8,0.8,1.4c-0.1,0.6-0.7,0.9-1.2,0.8l-0.3,1.8l1.7-0.5C6.4,83.6,6.4,83.4,6.5,83.2z M9.4,81.9h0.5v0.5H9.4
				V81.9z M7.9,79.5c0.7,0,1.3,0.5,1.3,1.2S8.7,82,8,82s-1.3-0.5-1.3-1.2l0,0C6.7,80.1,7.2,79.5,7.9,79.5L7.9,79.5z M6.3,79h0.5v0.5
				H6.3V79z M6,83.5H5.5V83H6V83.5z"/>
			<path id="Path_4463_33_" class="socks-path" d="M11.2,82.4c0-0.1,0-0.2,0.1-0.2c0.1-0.3,0.2-0.6,0.1-0.9c-0.1-0.3-0.4-0.5-0.6-0.7
				c-0.1-0.1-0.3-0.2-0.4-0.4c-0.1-0.2-0.2-0.3-0.2-0.5C10,79.4,9.9,79,9.7,78.8s-0.6-0.3-0.9-0.3c-0.2,0-0.4-0.1-0.5-0.1
				C8.1,78.3,8,78.2,7.9,78c-0.2-0.2-0.5-0.5-0.8-0.5c-0.1,0-0.2,0-0.2,0c-0.2,0-0.4,0.1-0.7,0.2c-0.1,0-0.2,0.1-0.2,0.1l0.2-1.2
				c3.1,0.1,5.7,2.4,6.1,5.5L11.2,82.4L11.2,82.4z"/>
			<path id="Path_4464_21_" class="socks-path" d="M8.4,83.3l-1.5,0.5c0-0.4,0.2-0.7,0.6-0.8C7.8,82.8,8.2,83,8.4,83.3z"/>
		</g>
	</g>
	<g id="圖層_2_61_">
		<g id="圖層_1-2_52_">
			<path id="Path_4461_13_" class="socks-path" d="M24.7,74.5l0.3-1.3c0.3,0.1,0.5,0.4,0.5,0.8c0,0.2-0.1,0.3-0.3,0.4
				C25.1,74.5,24.9,74.6,24.7,74.5z"/>
			<circle id="Ellipse_46_32_" class="socks-path" cx="27.6" cy="73.1" r="0.8"/>
			<path id="Path_4462_32_" class="socks-path" d="M26.1,75.5c0.3-0.6,1.1-0.9,1.7-0.5c0.2,0.1,0.4,0.3,0.5,0.5l1.9-0.6
				c0-0.2,0.1-0.3,0.1-0.5c0.1-0.2,0.1-0.5,0.1-0.7c-0.1-0.2-0.3-0.3-0.5-0.5c-0.2-0.1-0.3-0.3-0.5-0.5c-0.1-0.2-0.2-0.4-0.3-0.6
				c-0.1-0.2-0.1-0.5-0.3-0.6c-0.1-0.1-0.4-0.2-0.6-0.2s-0.5-0.1-0.7-0.2s-0.4-0.3-0.5-0.4c-0.2-0.2-0.4-0.4-0.6-0.4s-0.4,0-0.6,0.1
				s-0.3,0.1-0.5,0.2l-0.4,2.1c0.6,0.1,1,0.8,0.8,1.4c-0.1,0.6-0.7,0.9-1.2,0.8l-0.3,1.8l1.7-0.5C26,76,26,75.8,26.1,75.5z M29,74.3
				h0.5v0.5H29V74.3z M27.5,71.9c0.7,0,1.3,0.5,1.3,1.2s-0.5,1.3-1.2,1.3s-1.3-0.5-1.3-1.2l0,0C26.3,72.5,26.8,71.9,27.5,71.9
				L27.5,71.9z M25.9,71.4h0.5v0.5h-0.5V71.4z M25.6,75.9h-0.5v-0.5h0.5V75.9z"/>
			<path id="Path_4463_32_" class="socks-path" d="M30.8,74.8c0-0.1,0-0.2,0.1-0.2c0.1-0.3,0.2-0.6,0.1-0.9s-0.4-0.5-0.6-0.7
				c-0.1-0.1-0.3-0.2-0.4-0.4c-0.1-0.2-0.2-0.3-0.2-0.5c-0.1-0.3-0.2-0.6-0.4-0.8c-0.2-0.2-0.6-0.3-0.9-0.3c-0.2,0-0.4-0.1-0.5-0.1
				c-0.2-0.1-0.3-0.2-0.4-0.3c-0.2-0.2-0.5-0.5-0.8-0.5c-0.1,0-0.2,0-0.2,0c-0.2,0-0.4,0.1-0.7,0.2c-0.1,0-0.2,0.1-0.2,0.1l0.2-1.2
				c3.1,0.1,5.7,2.4,6.1,5.5L30.8,74.8L30.8,74.8z"/>
			<path id="Path_4464_20_" class="socks-path" d="M28,75.7l-1.5,0.5c0-0.4,0.2-0.7,0.6-0.8C27.4,75.2,27.8,75.4,28,75.7z"/>
		</g>
	</g>
	<g id="圖層_2_5_">
		<g id="圖層_1-2_5_">
			<path class="socks-path" d="M27.1,54.5c-0.2-0.1-0.3-0.3-0.5-0.5c-0.1-0.2-0.2-0.4-0.3-0.6c0-0.1-0.1-0.2-0.1-0.3
				c-0.2,0.2-0.3,0.4-0.5,0.6c0.1,0.2,0.2,0.4,0.2,0.6c0,0.7-0.5,1.3-1.2,1.3c-0.3,0-0.5-0.1-0.8-0.2c-0.1,0.1-0.1,0.1-0.2,0.2
				c-0.4,0.3-0.7,0.6-1.1,0.9c0,0.1-0.1,0.1-0.1,0.2l0,0v0.5h-0.3c-0.2,0.3-0.3,0.6-0.6,0.8l1.3-0.4c0-0.3,0-0.5,0.1-0.7
				c0.3-0.6,1.1-0.9,1.7-0.5c0.2,0.1,0.4,0.3,0.5,0.5l1.9-0.6c0-0.2,0.1-0.3,0.1-0.5c0.1-0.2,0.1-0.5,0.1-0.7
				C27.4,54.8,27.3,54.7,27.1,54.5z M26,56v-0.5h0.5V56H26z"/>
			<path class="socks-path" d="M27,51.9c-0.1,0.2-0.3,0.5-0.5,0.7c0.1,0.2,0.2,0.4,0.2,0.6c0,0.2,0.1,0.4,0.2,0.5s0.2,0.3,0.4,0.4
				c0.2,0.2,0.5,0.4,0.6,0.7s0,0.6-0.1,0.9c0,0.1,0,0.2-0.1,0.2l0,0l1.1-0.4C28.7,54.2,28,52.9,27,51.9z"/>
			<path id="Path_4464_1_" class="socks-path" d="M25,56.9l-1.5,0.5c0-0.4,0.2-0.7,0.6-0.8C24.4,56.5,24.8,56.6,25,56.9z"/>
		</g>
	</g>
	<g id="圖層_2_6_">
		<g id="圖層_1-2_11_">
			<path id="Path_4461_2_" class="socks-path" d="M40.7,52.5l0.3-1.3c0.3,0.1,0.5,0.4,0.5,0.8c0,0.2-0.1,0.3-0.3,0.4
				C41,52.5,40.8,52.6,40.7,52.5z"/>
			<circle id="Ellipse_46_9_" class="socks-path" cx="43.5" cy="51.1" r="0.8"/>
			<path id="Path_4462_9_" class="socks-path" d="M42.1,53.5c0.3-0.6,1.1-0.9,1.7-0.5c0.2,0.1,0.4,0.3,0.5,0.5l1.9-0.6
				c0-0.2,0.1-0.3,0.1-0.5c0.1-0.2,0.1-0.5,0.1-0.7c-0.1-0.2-0.3-0.3-0.5-0.5c-0.2-0.1-0.3-0.3-0.5-0.5c-0.1-0.2-0.2-0.4-0.3-0.6
				c-0.1-0.2-0.1-0.5-0.3-0.6c-0.1-0.1-0.4-0.2-0.6-0.2c-0.2,0-0.5-0.1-0.7-0.2c-0.2-0.1-0.4-0.3-0.5-0.4c-0.2-0.2-0.4-0.4-0.6-0.4
				s-0.4,0-0.6,0.1c-0.2,0.1-0.3,0.1-0.5,0.2L41,50.8c0.6,0.1,1,0.8,0.8,1.4c-0.1,0.6-0.7,0.9-1.2,0.8l-0.3,1.8l1.7-0.5
				C41.9,54,42,53.8,42.1,53.5z M44.9,52.3h0.5v0.5h-0.5V52.3z M43.5,49.9c0.7,0,1.3,0.5,1.3,1.2s-0.5,1.3-1.2,1.3s-1.3-0.5-1.3-1.2
				l0,0C42.3,50.5,42.8,49.9,43.5,49.9L43.5,49.9z M41.8,49.4h0.5v0.5h-0.5V49.4z M41.5,53.9H41v-0.5h0.5V53.9z"/>
			<path id="Path_4463_9_" class="socks-path" d="M46.7,52.8c0-0.1,0-0.2,0.1-0.2c0.1-0.3,0.2-0.6,0.1-0.9c-0.1-0.3-0.4-0.5-0.6-0.7
				c-0.1-0.1-0.3-0.2-0.4-0.4c-0.1-0.2-0.2-0.3-0.2-0.5c-0.1-0.3-0.2-0.6-0.4-0.8S44.7,49,44.4,49c-0.2,0-0.4-0.1-0.5-0.1
				c-0.2-0.1-0.3-0.2-0.4-0.3c-0.2-0.2-0.5-0.5-0.8-0.5c-0.1,0-0.2,0-0.2,0c-0.2,0-0.4,0.1-0.7,0.2c-0.1,0-0.2,0.1-0.2,0.1l0.2-1.2
				c3.1,0.1,5.7,2.4,6.1,5.5L46.7,52.8L46.7,52.8z"/>
			<path id="Path_4464_2_" class="socks-path" d="M43.9,53.7l-1.5,0.5c0-0.4,0.2-0.7,0.6-0.8C43.3,53.2,43.7,53.4,43.9,53.7z"/>
		</g>
	</g>
	<g id="圖層_2_12_">
		<g id="圖層_1-2_12_">
			<path class="socks-path" d="M34.7,34c-0.1-0.2-0.3-0.3-0.5-0.5c-0.2-0.1-0.3-0.3-0.5-0.5c-0.1-0.2-0.2-0.4-0.3-0.6
				c-0.1-0.2-0.1-0.5-0.3-0.6s-0.4-0.2-0.6-0.2c-0.2,0-0.5-0.1-0.7-0.2s-0.4-0.3-0.5-0.4l0,0c0,0.4,0.1,0.8,0.1,1.2
				c0.1,0,0.2-0.1,0.3-0.1c0.7,0,1.3,0.5,1.3,1.2s-0.5,1.3-1.2,1.3c-0.1,0-0.3,0-0.4-0.1c0,0.2,0,0.4,0,0.6c0.2,0,0.4,0,0.6,0.1
				s0.4,0.3,0.5,0.5l1.9-0.6c0-0.2,0.1-0.3,0.1-0.5C34.7,34.4,34.8,34.2,34.7,34z M33.3,35v-0.5h0.5V35H33.3z"/>
			<path class="socks-path" d="M31.2,29.3c0,0.3,0.1,0.6,0.1,0.9c0.1,0.1,0.3,0.2,0.4,0.3c0.1,0.1,0.3,0.2,0.4,0.3c0.2,0.1,0.4,0.1,0.5,0.1
				c0.3,0,0.6,0.1,0.9,0.3c0.2,0.2,0.3,0.5,0.4,0.8c0,0.2,0.1,0.4,0.2,0.5c0.1,0.1,0.2,0.3,0.4,0.4c0.2,0.2,0.5,0.4,0.6,0.7
				s0,0.6-0.1,0.9c0,0.1,0,0.2-0.1,0.2l0,0l1.1-0.4C35.8,32,33.8,29.9,31.2,29.3z"/>
		</g>
	</g>
	<g id="圖層_2_13_">
		<g id="圖層_1-2_13_">
			<path id="Path_4461_3_" class="socks-path" d="M56.1,39l0.3-1.3c0.3,0.1,0.5,0.4,0.5,0.8c0,0.2-0.1,0.3-0.3,0.4
				C56.5,39,56.3,39.1,56.1,39z"/>
			<circle id="Ellipse_46_11_" class="socks-path" cx="59" cy="37.6" r="0.8"/>
			<path id="Path_4462_11_" class="socks-path" d="M57.5,40c0.3-0.6,1.1-0.9,1.7-0.5c0.2,0.1,0.4,0.3,0.5,0.5l1.9-0.6
				c0-0.2,0.1-0.3,0.1-0.5c0.1-0.2,0.1-0.5,0.1-0.7c-0.1-0.2-0.3-0.3-0.5-0.5c-0.2-0.1-0.3-0.3-0.5-0.5c-0.1-0.2-0.2-0.4-0.3-0.6
				c-0.1-0.2-0.1-0.5-0.3-0.6c-0.1-0.1-0.4-0.2-0.6-0.2c-0.2,0-0.5-0.1-0.7-0.2c-0.2-0.1-0.4-0.3-0.5-0.4c-0.2-0.2-0.4-0.4-0.6-0.4
				c-0.2,0-0.4,0-0.6,0.1C57,35,56.9,35,56.7,35.1l-0.4,2.1c0.6,0.1,1,0.8,0.8,1.4c-0.1,0.6-0.7,0.9-1.2,0.8l-0.3,1.8l1.7-0.5
				C57.4,40.5,57.4,40.3,57.5,40z M60.4,38.8h0.5v0.5h-0.5V38.8z M58.9,36.4c0.7,0,1.3,0.5,1.3,1.2s-0.5,1.3-1.2,1.3
				s-1.3-0.5-1.3-1.2l0,0C57.7,37,58.2,36.4,58.9,36.4L58.9,36.4z M57.3,35.9h0.5v0.5h-0.5V35.9z M57,40.4h-0.5v-0.5H57V40.4z"/>
			<path id="Path_4463_11_" class="socks-path" d="M62.2,39.3c0-0.1,0-0.2,0.1-0.2c0.1-0.3,0.2-0.6,0.1-0.9s-0.4-0.5-0.6-0.7
				c-0.1-0.1-0.3-0.2-0.4-0.4c-0.1-0.2-0.2-0.3-0.2-0.5c-0.1-0.3-0.2-0.6-0.4-0.8s-0.6-0.3-0.9-0.3c-0.2,0-0.4-0.1-0.5-0.1
				c-0.2-0.1-0.3-0.2-0.4-0.3c-0.2-0.2-0.5-0.5-0.8-0.5c-0.1,0-0.2,0-0.2,0c-0.2,0-0.4,0.1-0.7,0.2c-0.1,0-0.2,0.1-0.2,0.1l0.2-1.2
				c3.1,0.1,5.7,2.4,6.1,5.5L62.2,39.3L62.2,39.3z"/>
			<path id="Path_4464_7_" class="socks-path" d="M59.4,40.2l-1.5,0.5c0-0.4,0.2-0.7,0.6-0.8C58.8,39.7,59.2,39.9,59.4,40.2z"/>
		</g>
	</g>
	<g id="圖層_2_14_">
		<g id="圖層_1-2_14_">
			<path id="Path_4461_6_" class="socks-path" d="M45.7,21l0.3-1.3c0.3,0.1,0.5,0.4,0.5,0.8c0,0.2-0.1,0.3-0.3,0.4S45.8,21.1,45.7,21z"/>
			<circle id="Ellipse_46_12_" class="socks-path" cx="48.6" cy="19.6" r="0.8"/>
			<path id="Path_4462_12_" class="socks-path" d="M47.1,22c0.3-0.6,1.1-0.9,1.7-0.5c0.2,0.1,0.4,0.3,0.5,0.5l1.9-0.6
				c0-0.2,0.1-0.3,0.1-0.5c0.1-0.2,0.1-0.5,0.1-0.7c-0.1-0.2-0.3-0.3-0.5-0.5c-0.2-0.1-0.3-0.3-0.5-0.5c-0.1-0.2-0.2-0.4-0.3-0.6
				S50,18.1,49.8,18c-0.1-0.1-0.4-0.2-0.6-0.2c-0.2,0-0.5-0.1-0.7-0.2s-0.4-0.3-0.5-0.4c-0.2-0.2-0.4-0.4-0.6-0.4
				c-0.2,0-0.4,0-0.6,0.1c-0.2,0.1-0.3,0.1-0.5,0.2L46,19.3c0.6,0.1,1,0.8,0.8,1.4c-0.1,0.6-0.7,0.9-1.2,0.8l-0.3,1.8l1.7-0.5
				C46.9,22.5,47,22.3,47.1,22z M49.9,20.8h0.5v0.5h-0.5V20.8z M48.5,18.4c0.7,0,1.3,0.5,1.3,1.2s-0.5,1.3-1.2,1.3s-1.3-0.5-1.3-1.2
				l0,0C47.3,19,47.8,18.4,48.5,18.4L48.5,18.4z M46.8,17.9h0.5v0.5h-0.5V17.9z M46.5,22.4H46v-0.5h0.5V22.4z"/>
			<path id="Path_4463_12_" class="socks-path" d="M51.7,21.3c0-0.1,0-0.2,0.1-0.2c0.1-0.3,0.2-0.6,0.1-0.9c-0.1-0.3-0.4-0.5-0.6-0.7
				c-0.1-0.1-0.3-0.2-0.4-0.4c-0.1-0.2-0.2-0.3-0.2-0.5c-0.1-0.3-0.2-0.6-0.4-0.8c-0.2-0.2-0.6-0.3-0.9-0.3c-0.2,0-0.4-0.1-0.5-0.1
				c-0.2-0.1-0.3-0.2-0.4-0.3c-0.2-0.2-0.5-0.5-0.8-0.5c-0.1,0-0.2,0-0.2,0c-0.2,0-0.4,0.1-0.7,0.2c-0.1,0-0.2,0.1-0.2,0.1l0.2-1.2
				c3.1,0.1,5.7,2.4,6.1,5.5L51.7,21.3L51.7,21.3z"/>
			<path id="Path_4464_8_" class="socks-path" d="M48.9,22.2l-1.5,0.5c0-0.4,0.2-0.7,0.6-0.8C48.3,21.7,48.7,21.9,48.9,22.2z"/>
		</g>
	</g>
	<g id="圖層_2_17_">
		<g id="圖層_1-2_16_">
			<path id="Path_4461_7_" class="socks-path" d="M32.1,8.6l0.3-1.3c0.3,0.1,0.5,0.4,0.5,0.8c0,0.2-0.1,0.3-0.3,0.4
				C32.4,8.5,32.3,8.6,32.1,8.6z"/>
			<circle id="Ellipse_46_13_" class="socks-path" cx="35" cy="7.1" r="0.8"/>
			<path id="Path_4462_13_" class="socks-path" d="M33.5,9.6c0.3-0.6,1.1-0.9,1.7-0.5c0.2,0.1,0.4,0.3,0.5,0.5l2-0.6c0-0.2,0.1-0.3,0.1-0.5
				c0.1-0.2,0.1-0.5,0.1-0.7c-0.1-0.2-0.3-0.3-0.5-0.5C37.2,7.2,37,7,36.9,6.8s-0.2-0.4-0.3-0.6s-0.1-0.5-0.3-0.6
				c-0.1-0.1-0.4-0.2-0.6-0.2c-0.2,0-0.5-0.1-0.7-0.2s-0.4-0.3-0.5-0.4c-0.2-0.2-0.4-0.4-0.6-0.4c-0.2,0-0.4,0-0.6,0.1
				c-0.2,0.1-0.3,0.1-0.5,0.2l-0.4,2.1c0.6,0.1,1,0.8,0.8,1.4C33.1,8.7,32.6,9.1,32,9l-0.3,1.8l1.7-0.5C33.3,10.1,33.4,9.8,33.5,9.6
				z M36.3,8.3h0.5v0.5h-0.5V8.3z M34.9,5.9c0.7,0,1.3,0.5,1.3,1.2S35.7,8.4,35,8.4s-1.3-0.5-1.3-1.2l0,0
				C33.7,6.5,34.2,5.9,34.9,5.9L34.9,5.9z M33.2,5.4h0.5v0.5h-0.5V5.4z M32.9,9.9h-0.5V9.4h0.5V9.9z"/>
			<path id="Path_4463_13_" class="socks-path" d="M38.2,8.8c0-0.1,0-0.2,0.1-0.2c0.1-0.3,0.2-0.6,0.1-0.9C38.3,7.4,38,7.2,37.8,7
				c-0.1-0.1-0.3-0.2-0.4-0.4c-0.1-0.2-0.2-0.3-0.2-0.5c-0.1-0.3-0.2-0.6-0.4-0.8c-0.4-0.3-0.7-0.3-1-0.4c-0.2,0-0.4-0.1-0.5-0.1
				c-0.2-0.1-0.3-0.2-0.4-0.3C34.7,4.3,34.4,4,34.1,4c-0.1,0-0.2,0-0.2,0c-0.2,0-0.4,0.1-0.7,0.2c-0.1,0-0.2,0.1-0.2,0.1L33.2,3
				c3.1,0.1,5.7,2.4,6.1,5.5L38.2,8.8L38.2,8.8z"/>
			<path id="Path_4464_9_" class="socks-path" d="M35.3,9.7l-1.5,0.5c0-0.4,0.2-0.7,0.6-0.8C34.8,9.3,35.1,9.4,35.3,9.7z"/>
		</g>
	</g>
	<g id="圖層_2_18_">
		<g id="圖層_1-2_17_">
			<path id="Path_4461_8_" class="socks-path" d="M57.6,6l0.3-1.3c0.3,0.1,0.5,0.4,0.5,0.8c0,0.2-0.1,0.3-0.3,0.4C57.9,6,57.7,6,57.6,6z"/>
			<circle id="Ellipse_46_14_" class="socks-path" cx="60.4" cy="4.6" r="0.8"/>
			<path class="socks-path" d="M62.3,6.2h-0.5V5.7h0.4c-0.2-0.2-0.4-0.5-0.6-0.8c-0.1,0.5-0.6,0.9-1.1,0.9c-0.7,0-1.3-0.5-1.3-1.2
				c0-0.6,0.4-1.1,0.9-1.3H60c-0.3-0.1-0.6-0.2-0.8-0.3v0.2h-0.5V2.7h0.1l-0.1-0.1c-0.2,0-0.3,0-0.5,0l-0.3,1.5
				c0.6,0.1,1,0.8,0.8,1.4c-0.1,0.6-0.7,0.9-1.2,0.8l-0.3,1.8l1.7-0.5c0-0.3,0-0.5,0.1-0.7c0.3-0.6,1.1-0.9,1.7-0.5
				c0.2,0.1,0.4,0.3,0.5,0.5L63,6.3c-0.3-0.2-0.5-0.4-0.8-0.6L62.3,6.2z M57.9,7.4V6.9h0.5v0.5H57.9z"/>
			<path id="Path_4464_10_" class="socks-path" d="M60.8,7.1l-1.5,0.5c0-0.4,0.2-0.7,0.6-0.8C60.2,6.7,60.6,6.8,60.8,7.1z"/>
		</g>
	</g>
</g>
<g id="圖層_2_3_">
	<g id="圖層_1-2_2_">
		<g id="Path_4454_1_">
			<path class="socks-border" d="M16.6,108c-2.6,0-5.4-0.6-8-1.7c-4-1.7-7-5.2-7.9-9.5c-0.9-3.7-0.8-7.6,0.3-11.2c1.5-4.7,3.9-8.9,7-12.7
				c3.5-4.6,7.5-8.9,11.4-13.2l2.1-2.3c2.6-2.8,4.7-5.2,6.6-7.8c1.4-1.8,2.1-4,2-6.3C30,35,29.9,26.7,29.8,18.5
				c0-3.8,0-7.8-0.1-11.7c-0.2-2.1,1.1-4,3-4.7c1.6-0.7,3.3-1.2,5-1.4c6.3-1,12.8-0.9,19.2,0.2c1.6,0.3,3.1,0.8,4.6,1.3
				c1.6,0.4,2.7,1.9,2.5,3.6c-0.1,1.5-0.2,3-0.2,4.5c-0.1,2.1-0.2,4.2-0.3,6.2c-0.7,8.9-0.6,18,0.1,26.9c0.3,3.4,1,6.8,1.7,10.2
				l0.3,1.6c0.3,1.4,0.5,2.8,0.5,4.3c0.1,2.8-1.2,5.5-3.4,7.2c-1.8,1.4-3.8,2.5-5.9,3.5c-4.7,2.2-8.8,5.5-12,9.6
				c-2.3,3.3-4.5,6.8-6.3,10.4c-1.9,3.5-4,6.9-6.4,10.1C28,105.3,22.5,108,16.6,108z M46.9,3c-2.9,0-5.8,0.2-8.7,0.7
				c-1.5,0.2-2.9,0.6-4.3,1.2h-0.1c-0.7,0.2-1.2,0.9-1.1,1.7v0.1c0.1,3.9,0.1,8,0.1,11.8c0.1,8.1,0.2,16.5,0.3,24.7
				c0.1,2.9-0.9,5.8-2.7,8.2c-2,2.7-4.2,5.1-6.8,8l-2.1,2.3c-3.8,4.2-7.8,8.5-11.2,13c-2.9,3.5-5.1,7.5-6.5,11.7
				c-1,3.1-1,6.5-0.2,9.7c0.7,3.4,3,6.1,6.1,7.4c7.4,3.1,14.9,1.2,19.9-5.3c2.3-3,4.3-6.2,6.1-9.6c1.9-3.8,4.1-7.4,6.6-10.9
				c3.5-4.5,8.1-8.1,13.2-10.5c1.9-0.9,3.7-1.9,5.4-3.2c1.5-1.1,2.3-2.8,2.2-4.6l0,0c-0.1-1.3-0.2-2.6-0.5-3.8L62.3,54
				c-0.7-3.4-1.4-6.9-1.7-10.5c-0.8-9.1-0.8-18.3-0.1-27.4c0.1-2,0.2-4.1,0.3-6.2c0.1-1.5,0.2-3,0.2-4.5V5.3C61,5.2,60.9,5,60.8,5
				h-0.1c-1.4-0.5-2.8-0.9-4.3-1.2C53.3,3.3,50.1,3,46.9,3z"/>
		</g>
	</g>
</g>
</svg>
