<?xml version="1.0" encoding="utf-8"?>
<!-- Generator: Adobe Illustrator 24.2.3, SVG Export Plug-In . SVG Version: 6.00 Build 0)  -->
<svg version="1.1" id="圖層_1" xmlns="http://www.w3.org/2000/svg" xmlns:xlink="http://www.w3.org/1999/xlink" x="0px" y="0px"
	 viewBox="0 0 66.1 108" style="enable-background:new 0 0 66.1 108;" xml:space="preserve">
<style type="text/css">
	.st0{fill:none;stroke:#404040;stroke-width:3;}
	.st1{fill:#404040;}
</style>
<g id="圖層_2_1_">
	<g id="圖層_1-2">
		<g id="Group_84">
			<path id="Path_4446" class="st0" d="M64.6,59.5c0.1,2.3-1,4.5-2.8,5.9c-1.8,1.3-3.7,2.4-5.7,3.3c-4.9,2.3-9.2,5.7-12.6,10
				c-2.4,3.4-4.6,7-6.5,10.7c-1.8,3.4-3.9,6.7-6.3,9.8c-5.4,6.9-13.6,9.1-21.7,5.7c-3.6-1.5-6.2-4.7-7-8.5C1.2,93,1.3,89.4,2.4,86
				c1.4-4.5,3.7-8.6,6.7-12.2c4.2-5.4,8.8-10.4,13.4-15.4c2.3-2.6,4.6-5.2,6.7-7.9c1.6-2.1,2.4-4.6,2.4-7.2
				c-0.1-8.2-0.2-16.5-0.3-24.7c0-3.9,0-7.9-0.1-11.8c-0.1-1.4,0.7-2.8,2.1-3.3c1.5-0.7,3.1-1.1,4.7-1.3c6.2-1,12.5-0.9,18.7,0.2
				c1.5,0.3,3,0.7,4.5,1.3c0.9,0.2,1.5,1.1,1.4,2c-0.2,3.6-0.4,7.2-0.6,10.8c-0.7,9-0.6,18.1,0.1,27.1c0.4,4,1.2,8,2,11.9
				C64.3,56.8,64.5,58.1,64.6,59.5z"/>
			<path id="Path_4447" class="st1" d="M35.3,31.5c2-1.3,4-2.9,6-4.2l0,0c-3.6-1.6-7.1-3.5-10.4-5.5c0.3,3.9,0.6,7.8,0.9,11.7
				C33,32.9,34.2,32.2,35.3,31.5z"/>
			<path id="Path_4448" class="st1" d="M43,67.9c-0.1-1.7-0.3-3.4-0.4-5.1c-0.1-1.5-0.4-2.9-0.4-4.4c0-0.5,0-1,0-1.5
				c0-0.2,0-0.4,0-0.5l0,0c0-0.1-0.1-0.1-0.1-0.2c0,0-0.1-0.1,0-0.2L42,55.8c0,0-0.1-0.1-0.1-0.1l0,0c-1.1-0.6-2.3-1-3.5-1.4
				c-1.6-0.5-3.3-0.8-4.9-1.2c-1.9-0.5-3.9-1-5.8-1.7c-0.4,0.6-0.9,1.2-1.4,1.8c-3.6,3.9-7,7.9-10.5,11.8c-4,4.6-8.1,9.1-11.2,14.3
				c-2.8,4.6-4.3,9.5-3.3,14.8c0.9,4.7,3.4,8.5,8.5,10.3c4.1,1.5,8.5,1.6,12.7,0.6c4.5-1.1,8.4-4,10.8-8c2.6-4,5-8.1,7.1-12.3
				c1.1-2.2,2.4-4.2,3.8-6.1C43.7,75,43.3,71.4,43,67.9z"/>
			<path id="Path_4449" class="st1" d="M58.4,43c-0.3-2.1-0.6-4.3-0.8-6.4c-3.7-0.7-7.2-1.7-10.6-3.2c-0.9,0.6-1.8,1.1-2.6,1.8
				c-2.8,2.1-5.8,4.9-9.2,6.3c0,0.4,0.1,0.8,0.1,1.2c0.1,0.7,0.1,1.3,0.1,2c0.4,0.5,0.8,1,1.3,1.4c3,1.3,6.2,2.3,9.5,2.9
				c1,0,2.1,0,3.1-0.1c0.7-0.6,1.4-1.1,2.1-1.5C53.6,45.7,55.9,44.3,58.4,43z"/>
			<path id="Path_4450" class="st1" d="M63.9,58c-0.1-0.9-0.3-1.8-0.5-2.7c-0.6-2.1-1.2-4.2-1.6-6.4c-0.5,0.2-1,0.5-1.4,0.7
				c-4.1,2.3-8.2,6-9.6,10.6c-0.7,2.4-0.7,5,0,7.4c0.3,1.3,0.6,2.5,0.9,3.8c1.6-1.3,3.3-2.4,5.2-3.3c1.4-0.8,2.7-1.6,4-2.5
				C63.4,64.1,64.7,61,63.9,58z"/>
			<path id="Path_4451" class="st1" d="M32.4,14.2c2,1.4,4,2.8,6.1,4.1c3.2,2,6.6,3.9,10.1,5.5c1.2-0.8,2.5-1.6,3.7-2.4
				c3.4-2.3,6.6-5,9.5-8.1c0-2.7-0.1-5.4-0.1-8.1C61.8,4.2,61.1,3.2,60,3c-2.5-0.5-5-1-7.2-1.5c-2.9,0.1-5.5,0.1-8,0.2
				c-1.7,0.1-3.4,0.3-5.1,0.6c-2,0.4-3.9,0.9-5.8,1.6c-1.5,0.4-2.4,2-2,3.5C32.2,9.6,32.3,11.9,32.4,14.2z"/>
			<path id="Path_4452" class="st1" d="M60.8,23.9c-2,1.8-4.2,3.5-6.5,5L54.1,29c2.3,0.9,4.6,1.5,7,2c-0.1-2.4-0.2-4.9-0.2-7.3
				L60.8,23.9z"/>
		</g>
	</g>
</g>
</svg>
