<?xml version="1.0" encoding="utf-8"?>
<!-- Generator: Adobe Illustrator 24.2.3, SVG Export Plug-In . SVG Version: 6.00 Build 0)  -->
<svg version="1.1" id="圖層_1" xmlns="http://www.w3.org/2000/svg" xmlns:xlink="http://www.w3.org/1999/xlink" x="0px" y="0px"
	 viewBox="0 0 66.1 108" style="enable-background:new 0 0 66.1 108;" xml:space="preserve">
<style type="text/css">
	.st0{fill:none;stroke:#404040;stroke-width:3;}
</style>
<g id="圖層_2_1_">
	<g id="圖層_1-2">
		<path id="Path_4454" class="st0" d="M64.6,59.5c0.1,2.3-1,4.5-2.8,5.9c-1.8,1.3-3.7,2.4-5.7,3.3c-4.9,2.3-9.2,5.7-12.6,10
			c-2.4,3.4-4.6,7-6.5,10.7c-1.8,3.4-3.9,6.7-6.3,9.8c-5.4,6.9-13.6,9.1-21.7,5.7c-3.6-1.5-6.2-4.7-7-8.5C1.2,93,1.3,89.4,2.4,86
			c1.4-4.5,3.7-8.6,6.7-12.2c4.2-5.4,8.8-10.4,13.4-15.4c2.3-2.6,4.6-5.2,6.7-7.9c1.6-2.1,2.4-4.6,2.4-7.2
			c-0.1-8.2-0.2-16.5-0.3-24.7c0-3.9,0-7.9-0.1-11.8c-0.1-1.4,0.7-2.8,2.1-3.3c1.5-0.7,3.1-1.1,4.7-1.3c6.2-1,12.5-0.9,18.7,0.2
			c1.5,0.3,3,0.7,4.5,1.3c0.9,0.2,1.5,1.1,1.4,2c-0.2,3.6-0.4,7.2-0.6,10.8c-0.7,9-0.6,18.1,0.1,27.1c0.4,4,1.2,8,2,11.9
			C64.3,56.8,64.5,58.1,64.6,59.5z"/>
	</g>
</g>
</svg>
