<?xml version="1.0" encoding="utf-8"?>
<!-- Generator: Adobe Illustrator 24.2.3, SVG Export Plug-In . SVG Version: 6.00 Build 0)  -->
<svg version="1.1" id="pattern-white" xmlns="http://www.w3.org/2000/svg" xmlns:xlink="http://www.w3.org/1999/xlink" x="0px"
	 y="0px" viewBox="0 0 66.1 108" style="enable-background:new 0 0 66.1 108;" xml:space="preserve">
<style type="text/css">
	.socks-color{fill:#FFFFFF;stroke:#404040;stroke-width:3;}
	.socks-path{fill:#404040;}
	.socks-border{fill:#404040;}
</style>
<path id="Path_4445" class="socks-color" d="M64.6,59.5c0.1,2.3-1,4.5-2.8,5.9c-1.8,1.3-3.7,2.4-5.7,3.3c-4.9,2.3-9.2,5.7-12.6,10
	c-2.4,3.4-4.6,7-6.5,10.7c-1.8,3.4-3.9,6.7-6.3,9.8c-5.4,6.9-13.6,9.1-21.7,5.7c-3.6-1.5-6.2-4.7-7-8.5C1.2,93,1.3,89.4,2.4,86
	c1.4-4.5,3.7-8.6,6.7-12.2c4.2-5.4,8.8-10.4,13.4-15.4c2.3-2.6,4.6-5.2,6.7-7.9c1.6-2.1,2.4-4.6,2.4-7.2c-0.1-8.2-0.2-16.5-0.3-24.7
	c0-3.9,0-7.9-0.1-11.8c-0.1-1.4,0.7-2.8,2.1-3.3c1.5-0.7,3.1-1.1,4.7-1.3c6.2-1,12.5-0.9,18.7,0.2c1.5,0.3,3,0.7,4.5,1.3
	c0.9,0.2,1.5,1.1,1.4,2c-0.2,3.6-0.4,7.2-0.6,10.8c-0.7,9-0.6,18.1,0.1,27.1c0.4,4,1.2,8,2,11.9C64.3,56.8,64.5,58.1,64.6,59.5z"/>
<g>
	<g id="圖層_2_101_">
		<g id="圖層_1-2_100_">
			<g id="Group_109_99_">
				<g id="Group_108_99_">
					<path id="Path_4466_99_" class="socks-path" d="M37.5,88.5c0.1,0.2,0.1,0.4,0,0.6c-0.1,0.3-0.5,0.5-0.8,0.4c-0.1,0-0.3-0.1-0.4-0.2
						c0-0.1-0.1-0.1-0.2-0.1l0,0c-0.1,0-0.2,0.1-0.2,0.2s0,0.2,0,0.2C35.7,90,35.3,90.1,35,90s-0.6-0.4-0.5-0.8
						c0-0.1-0.1-0.2-0.2-0.3l0,0c-0.1,0-0.2,0-0.3,0c-0.2,0.1-0.4,0.1-0.5,0l0,0c-0.4-0.1-0.6-0.5-0.4-0.9l0,0c0,0,0,0,0-0.1l0,0
						c0,0,0,0-0.1,0s-0.3,0-0.4,0c-0.4-0.1-0.6-0.5-0.4-0.9c0.1-0.2,0.2-0.3,0.4-0.4c0-0.4,0-0.8,0.1-1.2c0.6-1.5,2.2-2.2,3.6-1.7
						c1.5,0.5,2.4,2.2,1.9,3.7C38.1,87.8,37.8,88.2,37.5,88.5z"/>
				</g>
			</g>
			<g id="Group_111_99_">
				<g id="Group_110_99_">
					<path id="Path_4467_99_" class="socks-path" d="M35.8,90.6l-3.2,4.7L32,95.1l0.5-6c0.3,0.4,0.7,0.7,1.2,0.7c0,0.1,0.1,0.3,0.2,0.4
						c0.2,0.2,0.4,0.4,0.7,0.5c0.1,0,0.1,0,0.2,0C35.1,90.8,35.5,90.8,35.8,90.6z"/>
				</g>
			</g>
		</g>
	</g>
	<g id="圖層_2_100_">
		<g id="圖層_1-2_99_">
			<g id="Group_109_98_">
				<g id="Group_108_98_">
					<path id="Path_4466_98_" class="socks-path" d="M35.9,68.4c0.1,0.2,0.1,0.4,0,0.6c-0.1,0.3-0.5,0.5-0.8,0.4c-0.1,0-0.3-0.1-0.4-0.2
						c0-0.1-0.1-0.1-0.2-0.1l0,0c-0.1,0-0.2,0.1-0.2,0.2s0,0.2,0,0.2c-0.1,0.3-0.5,0.5-0.9,0.4c-0.3-0.1-0.6-0.4-0.5-0.8
						c0-0.1-0.1-0.2-0.2-0.3l0,0c-0.1,0-0.2,0-0.3,0c-0.2,0.1-0.4,0.1-0.5,0l0,0c-0.4-0.1-0.6-0.5-0.4-0.9l0,0c0,0,0,0,0-0.1l0,0
						c0,0,0,0-0.1,0s-0.3,0-0.4,0c-0.4-0.1-0.6-0.5-0.4-0.9c0.1-0.2,0.2-0.3,0.4-0.4c0-0.4,0-0.8,0.1-1.2c0.6-1.5,2.2-2.2,3.6-1.7
						c1.5,0.5,2.4,2.2,1.9,3.7C36.5,67.7,36.2,68.1,35.9,68.4z"/>
				</g>
			</g>
			<g id="Group_111_98_">
				<g id="Group_110_98_">
					<path id="Path_4467_98_" class="socks-path" d="M34.2,70.5L31,75.2L30.5,75l0.5-6c0.3,0.4,0.7,0.7,1.2,0.7c0,0.1,0.1,0.3,0.2,0.4
						c0.2,0.2,0.4,0.4,0.7,0.5c0.1,0,0.1,0,0.2,0C33.6,70.7,33.9,70.7,34.2,70.5z"/>
				</g>
			</g>
		</g>
	</g>
	<g id="圖層_2_97_">
		<g id="圖層_1-2_96_">
			<g id="Group_109_95_">
				<g id="Group_108_95_">
					<path id="Path_4466_95_" class="socks-path" d="M14.6,97.7c0.1,0.2,0.1,0.4,0,0.6c-0.1,0.3-0.5,0.5-0.8,0.4c-0.1,0-0.3-0.1-0.4-0.2
						c0-0.1-0.1-0.1-0.2-0.1l0,0c-0.1,0-0.2,0.1-0.2,0.2s0,0.2,0,0.2c-0.1,0.3-0.5,0.5-0.9,0.4c-0.3-0.1-0.6-0.4-0.5-0.8
						c0-0.1-0.1-0.2-0.2-0.3l0,0c-0.1,0-0.2,0-0.3,0c-0.2,0.1-0.4,0.1-0.5,0l0,0c-0.4-0.1-0.6-0.5-0.4-0.9l0,0c0,0,0,0,0-0.1l0,0
						c0,0,0,0-0.1,0s-0.3,0-0.4,0c-0.4-0.1-0.6-0.5-0.4-0.9c0.1-0.2,0.2-0.3,0.4-0.4c0-0.4,0-0.8,0.1-1.2c0.6-1.5,2.2-2.2,3.6-1.7
						c1.5,0.5,2.4,2.2,1.9,3.7C15.2,97,14.9,97.3,14.6,97.7z"/>
				</g>
			</g>
			<g id="Group_111_95_">
				<g id="Group_110_95_">
					<path id="Path_4467_95_" class="socks-path" d="M12.9,99.8l-3.2,4.7l-0.6-0.2l0.5-6c0.3,0.4,0.7,0.7,1.2,0.7c0,0.1,0.1,0.3,0.2,0.4
						c0.2,0.2,0.4,0.4,0.7,0.5c0.1,0,0.1,0,0.2,0C12.3,100,12.6,99.9,12.9,99.8z"/>
				</g>
			</g>
		</g>
	</g>
	<g id="圖層_2_96_">
		<g id="圖層_1-2_95_">
			<g id="Group_109_94_">
				<g id="Group_108_94_">
					<path id="Path_4466_94_" class="socks-path" d="M36.2,48c0.1,0.2,0.1,0.4,0,0.6c-0.1,0.3-0.5,0.5-0.8,0.4c-0.1,0-0.3-0.1-0.4-0.2
						c0-0.1-0.1-0.1-0.2-0.1l0,0c-0.1,0-0.2,0.1-0.2,0.2c0,0.1,0,0.2,0,0.2c-0.1,0.3-0.5,0.5-0.9,0.4c-0.3-0.1-0.6-0.4-0.5-0.8
						c0-0.1-0.1-0.2-0.2-0.3l0,0c-0.1,0-0.2,0-0.3,0c-0.2,0.1-0.4,0.1-0.5,0l0,0c-0.4-0.1-0.6-0.5-0.4-0.9l0,0c0,0,0,0,0-0.1l0,0
						c0,0,0,0-0.1,0s-0.3,0-0.4,0c-0.4-0.1-0.6-0.5-0.4-0.9c0.1-0.2,0.2-0.3,0.4-0.4c0-0.4,0-0.8,0.1-1.2c0.6-1.5,2.2-2.2,3.6-1.7
						c1.5,0.5,2.4,2.2,1.9,3.7C36.8,47.3,36.5,47.7,36.2,48z"/>
				</g>
			</g>
			<g id="Group_111_94_">
				<g id="Group_110_94_">
					<path id="Path_4467_94_" class="socks-path" d="M34.5,50.1l-3.2,4.7l-0.6-0.2l0.5-6c0.3,0.4,0.7,0.7,1.2,0.7c0,0.1,0.1,0.3,0.2,0.4
						c0.2,0.2,0.4,0.4,0.7,0.5c0.1,0,0.1,0,0.2,0C33.9,50.3,34.2,50.2,34.5,50.1z"/>
				</g>
			</g>
		</g>
	</g>
	<g id="圖層_2_94_">
		<g id="圖層_1-2_93_">
			<g id="Group_109_92_">
				<g id="Group_108_92_">
					<path id="Path_4466_92_" class="socks-path" d="M13.3,76.3c0.1,0.2,0.1,0.4,0,0.6c-0.1,0.3-0.5,0.5-0.8,0.4c-0.1,0-0.3-0.1-0.4-0.2
						c0-0.1-0.1-0.1-0.2-0.1l0,0c-0.1,0-0.2,0.1-0.2,0.2s0,0.2,0,0.2c-0.1,0.3-0.5,0.5-0.9,0.4c-0.3-0.1-0.6-0.4-0.5-0.8
						c0-0.1-0.1-0.2-0.2-0.3l0,0c-0.1,0-0.2,0-0.3,0c-0.2,0.1-0.4,0.1-0.5,0l0,0c-0.4-0.1-0.6-0.5-0.4-0.9l0,0c0,0,0,0,0-0.1l0,0
						c0,0,0,0-0.1,0s-0.3,0-0.4,0C8,75.6,7.8,75.2,8,74.8c0.1-0.2,0.2-0.3,0.4-0.4c0-0.4,0-0.8,0.1-1.2c0.6-1.5,2.2-2.2,3.6-1.7
						c1.5,0.5,2.4,2.2,1.9,3.7C13.9,75.6,13.7,76,13.3,76.3z"/>
				</g>
			</g>
			<g id="Group_111_92_">
				<g id="Group_110_92_">
					<path id="Path_4467_92_" class="socks-path" d="M11.7,78.4l-3.2,4.7l-0.6-0.2l0.5-6c0.3,0.4,0.7,0.7,1.2,0.7c0,0.1,0.1,0.3,0.2,0.4
						c0.2,0.2,0.4,0.4,0.7,0.5c0.1,0,0.1,0,0.2,0C11,78.6,11.4,78.5,11.7,78.4z"/>
				</g>
			</g>
		</g>
	</g>
	<g id="圖層_2_93_">
		<g id="圖層_1-2_92_">
			<g id="Group_109_91_">
				<g id="Group_108_91_">
					<path id="Path_4466_91_" class="socks-path" d="M48.8,28.1c0.1,0.2,0.1,0.4,0,0.6c-0.1,0.3-0.5,0.5-0.8,0.4c-0.1,0-0.3-0.1-0.4-0.2
						c0-0.1-0.1-0.1-0.2-0.1l0,0c-0.1,0-0.2,0.1-0.2,0.2s0,0.2,0,0.2c-0.1,0.3-0.5,0.5-0.9,0.4c-0.3-0.1-0.6-0.4-0.5-0.8
						c0-0.1-0.1-0.2-0.2-0.3l0,0c-0.1,0-0.2,0-0.3,0c-0.2,0.1-0.4,0.1-0.5,0l0,0c-0.4-0.1-0.6-0.5-0.4-0.9l0,0c0,0,0,0,0-0.1l0,0
						c0,0,0,0-0.1,0s-0.3,0-0.4,0c-0.4-0.1-0.6-0.5-0.4-0.9c0.1-0.2,0.2-0.3,0.4-0.4c0-0.4,0-0.8,0.1-1.2c0.6-1.5,2.2-2.2,3.6-1.7
						c1.5,0.5,2.4,2.2,1.9,3.7C49.4,27.4,49.1,27.8,48.8,28.1z"/>
				</g>
			</g>
			<g id="Group_111_91_">
				<g id="Group_110_91_">
					<path id="Path_4467_91_" class="socks-path" d="M47.2,30.2L44,34.9l-0.6-0.2l0.5-6c0.3,0.4,0.7,0.7,1.2,0.7c0,0.1,0.1,0.3,0.2,0.4
						c0.2,0.2,0.4,0.4,0.7,0.5c0.1,0,0.1,0,0.2,0C46.5,30.4,46.8,30.3,47.2,30.2z"/>
				</g>
			</g>
		</g>
	</g>
	<g id="圖層_2_92_">
		<g id="圖層_1-2_91_">
			<g id="Group_109_90_">
				<g id="Group_108_90_">
					<path id="Path_4466_90_" class="socks-path" d="M55.8,64.3c0.1,0.2,0.1,0.4,0,0.6c-0.1,0.3-0.5,0.5-0.8,0.4c-0.1,0-0.3-0.1-0.4-0.2
						c0-0.1-0.1-0.1-0.2-0.1l0,0c-0.1,0-0.2,0.1-0.2,0.2s0,0.2,0,0.2c-0.1,0.3-0.5,0.5-0.9,0.4c-0.3-0.1-0.6-0.4-0.5-0.8
						c0-0.1-0.1-0.2-0.2-0.3l0,0c-0.1,0-0.2,0-0.3,0c-0.2,0.1-0.4,0.1-0.5,0l0,0c-0.4-0.1-0.6-0.5-0.4-0.9l0,0c0,0,0,0,0-0.1l0,0
						c0,0,0,0-0.1,0s-0.3,0-0.4,0c-0.4-0.1-0.6-0.5-0.4-0.9c0.1-0.2,0.2-0.3,0.4-0.4c0-0.4,0-0.8,0.1-1.2c0.6-1.5,2.2-2.2,3.6-1.7
						c1.5,0.5,2.4,2.2,1.9,3.7C56.4,63.6,56.1,64,55.8,64.3z"/>
				</g>
			</g>
			<g id="Group_111_90_">
				<g id="Group_110_90_">
					<path id="Path_4467_90_" class="socks-path" d="M54.1,66.4l-3.2,4.7l-0.6-0.2l0.5-6c0.3,0.4,0.7,0.7,1.2,0.7c0,0.1,0.1,0.3,0.2,0.4
						c0.2,0.2,0.4,0.4,0.7,0.5c0.1,0,0.1,0,0.2,0C53.5,66.6,53.8,66.6,54.1,66.4z"/>
				</g>
			</g>
		</g>
	</g>
	<g id="圖層_2_91_">
		<g id="圖層_1-2_90_">
			<g id="Group_109_89_">
				<g id="Group_108_89_">
					<path id="Path_4466_89_" class="socks-path" d="M61.2,40.6c0.1,0.2,0.1,0.4,0,0.6c-0.1,0.3-0.5,0.5-0.8,0.4c-0.1,0-0.3-0.1-0.4-0.2
						c0-0.1-0.1-0.1-0.2-0.1l0,0c-0.1,0-0.2,0.1-0.2,0.2c0,0.1,0,0.2,0,0.2c-0.1,0.3-0.5,0.5-0.9,0.4c-0.3-0.1-0.6-0.4-0.5-0.8
						c0-0.1-0.1-0.2-0.2-0.3l0,0c-0.1,0-0.2,0-0.3,0c-0.2,0.1-0.4,0.1-0.5,0l0,0c-0.4-0.1-0.6-0.5-0.4-0.9l0,0c0,0,0,0,0-0.1l0,0
						c0,0,0,0-0.1,0s-0.3,0-0.4,0c-0.4-0.1-0.6-0.5-0.4-0.9c0.1-0.2,0.2-0.3,0.4-0.4c0-0.4,0-0.8,0.1-1.2c0.6-1.5,2.2-2.2,3.6-1.7
						c1.5,0.5,2.4,2.2,1.9,3.7C61.8,39.9,61.5,40.3,61.2,40.6z"/>
				</g>
			</g>
			<g id="Group_111_89_">
				<g id="Group_110_89_">
					<path id="Path_4467_89_" class="socks-path" d="M59.5,42.7l-3.2,4.7l-0.6-0.2l0.5-6c0.3,0.4,0.7,0.7,1.2,0.7c0,0.1,0.1,0.3,0.2,0.4
						c0.2,0.2,0.4,0.4,0.7,0.5c0.1,0,0.1,0,0.2,0C58.9,42.9,59.2,42.9,59.5,42.7z"/>
				</g>
			</g>
		</g>
	</g>
	<g id="圖層_2_89_">
		<g id="圖層_1-2_88_">
			<g id="Group_109_87_">
				<g id="Group_108_87_">
					<path id="Path_4466_87_" class="socks-path" d="M37.4,13.1c0.1,0.2,0.1,0.4,0,0.6c-0.1,0.3-0.5,0.5-0.8,0.4c-0.1,0-0.3-0.1-0.4-0.2
						c0-0.1-0.1-0.1-0.2-0.1l0,0c-0.1,0-0.2,0.1-0.2,0.2c0,0.1,0,0.2,0,0.2c-0.1,0.3-0.5,0.5-0.9,0.4c-0.3-0.1-0.6-0.4-0.5-0.8
						c0-0.1-0.1-0.2-0.2-0.3l0,0c-0.1,0-0.2,0-0.3,0c-0.2,0.1-0.4,0.1-0.5,0l0,0C33,13.4,32.8,13,33,12.6l0,0c0,0,0,0,0-0.1l0,0
						c0,0,0,0-0.1,0s-0.3,0-0.4,0c-0.4-0.1-0.6-0.5-0.4-0.9c0.1-0.2,0.2-0.3,0.4-0.4c0-0.4,0-0.8,0.1-1.2c0.6-1.5,2.2-2.2,3.6-1.7
						c1.5,0.5,2.4,2.2,1.9,3.7C38,12.4,37.8,12.8,37.4,13.1z"/>
				</g>
			</g>
			<g id="Group_111_87_">
				<g id="Group_110_87_">
					<path id="Path_4467_87_" class="socks-path" d="M35.8,15.2l-3.2,4.7L32,19.7l0.5-6c0.3,0.4,0.7,0.7,1.2,0.7c0,0.1,0.1,0.3,0.2,0.4
						c0.2,0.2,0.4,0.4,0.7,0.5c0.1,0,0.1,0,0.2,0C35.1,15.4,35.5,15.4,35.8,15.2z"/>
				</g>
			</g>
		</g>
	</g>
	<g id="圖層_2_88_">
		<g id="圖層_1-2_87_">
			<g id="Group_109_86_">
				<g id="Group_108_86_">
					<path id="Path_4466_86_" class="socks-path" d="M61.2,8.8c0.1,0.2,0.1,0.4,0,0.6c-0.1,0.3-0.5,0.5-0.8,0.4c-0.1,0-0.3-0.1-0.4-0.2
						c0-0.1-0.1-0.1-0.2-0.1l0,0c-0.1,0-0.2,0.1-0.2,0.2c0,0.1,0,0.2,0,0.2c-0.1,0.3-0.5,0.5-0.9,0.4c-0.3-0.1-0.6-0.4-0.5-0.8
						c0-0.1-0.1-0.2-0.2-0.3l0,0c-0.1,0-0.2,0-0.3,0c-0.2,0.1-0.4,0.1-0.5,0l0,0c-0.4-0.1-0.6-0.5-0.4-0.9l0,0c0,0,0,0,0-0.1l0,0
						c0,0,0,0-0.1,0s-0.3,0-0.4,0c-0.4-0.1-0.6-0.5-0.4-0.9C56,7.1,56.1,7,56.3,6.9c0-0.4,0-0.8,0.1-1.2C56.9,4.3,58.6,3.5,60,4
						c1.5,0.5,2.4,2.2,1.9,3.7C61.8,8.1,61.5,8.5,61.2,8.8z"/>
				</g>
			</g>
			<g id="Group_111_86_">
				<g id="Group_110_86_">
					<path id="Path_4467_86_" class="socks-path" d="M59.5,10.9l-3.2,4.7l-0.6-0.2l0.5-6c0.3,0.4,0.7,0.7,1.2,0.7c0,0.1,0.1,0.3,0.2,0.4
						c0.2,0.2,0.4,0.4,0.7,0.5c0.1,0,0.1,0,0.2,0C58.8,11.1,59.2,11.1,59.5,10.9z"/>
				</g>
			</g>
		</g>
	</g>
</g>
<g id="圖層_2_3_">
	<g id="圖層_1-2_2_">
		<g id="Path_4454_1_">
			<path class="socks-border" d="M16.6,108c-2.6,0-5.4-0.6-8-1.7c-4-1.7-7-5.2-7.9-9.5c-0.9-3.7-0.8-7.6,0.3-11.2c1.5-4.7,3.9-8.9,7-12.7
				c3.5-4.6,7.5-8.9,11.4-13.2l2.1-2.3c2.6-2.8,4.7-5.2,6.6-7.8c1.4-1.8,2.1-4,2-6.3C30,35,29.9,26.7,29.8,18.5
				c0-3.8,0-7.8-0.1-11.7c-0.2-2.1,1.1-4,3-4.7c1.6-0.7,3.3-1.2,5-1.4c6.3-1,12.8-0.9,19.2,0.2c1.6,0.3,3.1,0.8,4.6,1.3
				c1.6,0.4,2.7,1.9,2.5,3.6c-0.1,1.5-0.2,3-0.2,4.5c-0.1,2.1-0.2,4.2-0.3,6.2c-0.7,8.9-0.6,18,0.1,26.9c0.3,3.4,1,6.8,1.7,10.2
				l0.3,1.6c0.3,1.4,0.5,2.8,0.5,4.3c0.1,2.8-1.2,5.5-3.4,7.2c-1.8,1.4-3.8,2.5-5.9,3.5c-4.7,2.2-8.8,5.5-12,9.6
				c-2.3,3.3-4.5,6.8-6.3,10.4c-1.9,3.5-4,6.9-6.4,10.1C28,105.3,22.5,108,16.6,108z M46.9,3c-2.9,0-5.8,0.2-8.7,0.7
				c-1.5,0.2-2.9,0.6-4.3,1.2h-0.1c-0.7,0.2-1.2,0.9-1.1,1.7v0.1c0.1,3.9,0.1,8,0.1,11.8c0.1,8.1,0.2,16.5,0.3,24.7
				c0.1,2.9-0.9,5.8-2.7,8.2c-2,2.7-4.2,5.1-6.8,8l-2.1,2.3c-3.8,4.2-7.8,8.5-11.2,13c-2.9,3.5-5.1,7.5-6.5,11.7
				c-1,3.1-1,6.5-0.2,9.7c0.7,3.4,3,6.1,6.1,7.4c7.4,3.1,14.9,1.2,19.9-5.3c2.3-3,4.3-6.2,6.1-9.6c1.9-3.8,4.1-7.4,6.6-10.9
				c3.5-4.5,8.1-8.1,13.2-10.5c1.9-0.9,3.7-1.9,5.4-3.2c1.5-1.1,2.3-2.8,2.2-4.6l0,0c-0.1-1.3-0.2-2.6-0.5-3.8L62.3,54
				c-0.7-3.4-1.4-6.9-1.7-10.5c-0.8-9.1-0.8-18.3-0.1-27.4c0.1-2,0.2-4.1,0.3-6.2c0.1-1.5,0.2-3,0.2-4.5V5.3C61,5.2,60.9,5,60.8,5
				h-0.1c-1.4-0.5-2.8-0.9-4.3-1.2C53.3,3.3,50.1,3,46.9,3z"/>
		</g>
	</g>
</g>
</svg>
