<svg xmlns="http://www.w3.org/2000/svg" viewBox="0 0 66.05 108.02"><defs><style>.cls-1{fill:#fff;stroke:#404040;stroke-width:3px;}.cls-2{fill:#404040;}</style></defs><g id="圖層_2" data-name="圖層 2"><g id="圖層_1-2" data-name="圖層 1"><g id="Group_84" data-name="Group 84"><path id="Path_4446" data-name="Path 4446" class="cls-1" d="M64.55,59.49a6.93,6.93,0,0,1-2.83,5.89,31.37,31.37,0,0,1-5.67,3.34,35.51,35.51,0,0,0-12.6,10A80.59,80.59,0,0,0,37,89.41a72.92,72.92,0,0,1-6.25,9.83c-5.39,6.89-13.62,9.11-21.67,5.71A11.7,11.7,0,0,1,2.11,96.5,19.31,19.31,0,0,1,2.36,86,37.17,37.17,0,0,1,9.07,73.8c4.16-5.4,8.83-10.36,13.41-15.4,2.32-2.56,4.61-5.15,6.71-7.91a11.3,11.3,0,0,0,2.35-7.24q-.18-12.36-.28-24.74c0-3.92,0-7.85-.1-11.78a3.14,3.14,0,0,1,2.1-3.26,16.55,16.55,0,0,1,4.67-1.29,58.21,58.21,0,0,1,18.72.16,34.51,34.51,0,0,1,4.47,1.27,1.78,1.78,0,0,1,1.41,2c-.2,3.59-.37,7.19-.58,10.78a171.33,171.33,0,0,0,.1,27.09c.4,4,1.24,8,2,11.94A25.27,25.27,0,0,1,64.55,59.49Z"/><path id="Path_4447" data-name="Path 4447" class="cls-2" d="M35.26,31.48c2-1.34,4-2.85,6-4.16l0,0a84.89,84.89,0,0,1-10.4-5.54c.3,3.9.58,7.79.92,11.68A27,27,0,0,0,35.26,31.48Z"/><path id="Path_4448" data-name="Path 4448" class="cls-2" d="M43.05,67.86c-.14-1.7-.26-3.39-.43-5.08-.14-1.47-.37-2.93-.4-4.4,0-.5,0-1,0-1.51,0-.19,0-.37,0-.55v0a1.8,1.8,0,0,1-.08-.21s-.06-.08,0-.2L42,55.81a.44.44,0,0,1-.12-.1h0a23.35,23.35,0,0,0-3.54-1.37c-1.62-.46-3.27-.84-4.91-1.24a54.21,54.21,0,0,1-5.75-1.7,14.14,14.14,0,0,1-1.4,1.79c-3.56,3.9-7,7.88-10.49,11.84-4,4.57-8.13,9.11-11.22,14.27C1.77,83.92.29,88.78,1.31,94.06c.91,4.72,3.38,8.47,8.54,10.32a21.58,21.58,0,0,0,12.7.55,17.76,17.76,0,0,0,10.8-8,135.46,135.46,0,0,0,7.12-12.3,40.12,40.12,0,0,1,3.84-6.13A100.78,100.78,0,0,1,43.05,67.86Z"/><path id="Path_4449" data-name="Path 4449" class="cls-2" d="M58.41,43c-.33-2.12-.58-4.26-.77-6.4A49.67,49.67,0,0,1,47,33.44c-.88.57-1.76,1.14-2.6,1.77-2.84,2.11-5.77,4.93-9.21,6.28,0,.4.07.81.1,1.21a13.64,13.64,0,0,1,.06,2,9,9,0,0,0,1.33,1.43A43.31,43.31,0,0,0,46.16,49c1,0,2.07,0,3.08-.13.68-.56,1.39-1.07,2.06-1.55A61.21,61.21,0,0,1,58.41,43Z"/><path id="Path_4450" data-name="Path 4450" class="cls-2" d="M63.94,58a26.47,26.47,0,0,0-.54-2.65c-.62-2.11-1.16-4.24-1.62-6.37-.49.22-1,.45-1.43.71-4.1,2.25-8.15,6-9.57,10.56a14.37,14.37,0,0,0,0,7.45c.28,1.27.58,2.54.86,3.81a33.39,33.39,0,0,1,5.15-3.3,38.78,38.78,0,0,0,4-2.5A7,7,0,0,0,63.94,58Z"/><path id="Path_4451" data-name="Path 4451" class="cls-2" d="M32.39,14.24c2,1.44,4,2.83,6.14,4.14a85.13,85.13,0,0,0,10.12,5.47c1.23-.78,2.46-1.57,3.65-2.41a59.13,59.13,0,0,0,9.45-8.06c0-2.72-.08-5.43-.07-8.15A2,2,0,0,0,60,3C57.52,2.49,55,2,52.82,1.5c-2.91.08-5.47.09-8,.23a36.28,36.28,0,0,0-5.08.6,48.75,48.75,0,0,0-5.8,1.58,2.9,2.9,0,0,0-2,3.46C32.17,9.65,32.25,11.94,32.39,14.24Z"/><path id="Path_4452" data-name="Path 4452" class="cls-2" d="M60.76,23.87a64.14,64.14,0,0,1-6.47,5l-.18.12a45.29,45.29,0,0,0,7,2c-.14-2.43-.21-4.86-.23-7.3Z"/></g></g></g></svg>