<svg xmlns="http://www.w3.org/2000/svg" viewBox="0 0 1920 1080.59"><defs><style>.cls-1{fill:#171d3a;}.cls-2{fill:#f3f3f1;}.cls-3{fill:#fdc500;}.cls-4{fill:#1a1a24;}.cls-5{fill:#00c5f2;}.cls-6{fill:#fe5801;}</style></defs><g id="圖層_2" data-name="圖層 2"><g id="圖層_1-2" data-name="圖層 1"><path class="cls-1" d="M634,1037.5a41.5,41.5,0,0,1,0-83,40.94,40.94,0,0,1,6,.44V779.06a40.94,40.94,0,0,1-6,.44,41.5,41.5,0,0,1,0-83,40.94,40.94,0,0,1,6,.44V525.06a40.94,40.94,0,0,1-6,.44,41.5,41.5,0,0,1,0-83,40.94,40.94,0,0,1,6,.44V267.06a40.94,40.94,0,0,1-6,.44,41.5,41.5,0,0,1,0-83,40.94,40.94,0,0,1,6,.44V12.06a40.94,40.94,0,0,1-6,.44A41.35,41.35,0,0,1,604.33,0H483.52a41.35,41.35,0,0,1-29.88,12.72A41.35,41.35,0,0,1,423.76,0H303.86A41.37,41.37,0,0,1,274,12.72,41.35,41.35,0,0,1,244.09,0H124.19A41.35,41.35,0,0,1,94.31,12.72,41.37,41.37,0,0,1,64.42,0H.14V69a41.83,41.83,0,0,1,4.5-.25,41.5,41.5,0,0,1,0,83,41.83,41.83,0,0,1-4.5-.25V312a41.83,41.83,0,0,1,4.5-.25,41.5,41.5,0,0,1,0,83,41.83,41.83,0,0,1-4.5-.25V581a41.83,41.83,0,0,1,4.5-.25,41.5,41.5,0,0,1,0,83,41.83,41.83,0,0,1-4.5-.25V824a41.83,41.83,0,0,1,4.5-.25,41.5,41.5,0,0,1,0,83,41.83,41.83,0,0,1-4.5-.25v170.31c.72,0,1.44-.06,2.17-.06A41.36,41.36,0,0,1,18.5,1080H165.78a41.62,41.62,0,0,1,32.39,0H345.45a41.62,41.62,0,0,1,32.39,0H529.38a41.41,41.41,0,0,1,30.5,0H640v-42.94A40.94,40.94,0,0,1,634,1037.5Zm-539.69.22a41.5,41.5,0,1,1,41.5-41.5A41.5,41.5,0,0,1,94.31,1037.72Zm0-258a41.5,41.5,0,1,1,41.5-41.5A41.5,41.5,0,0,1,94.31,779.72Zm0-254a41.5,41.5,0,1,1,41.5-41.5A41.5,41.5,0,0,1,94.31,525.72Zm0-258a41.5,41.5,0,1,1,41.5-41.5A41.5,41.5,0,0,1,94.31,267.72Zm90,639a41.5,41.5,0,1,1,41.5-41.5A41.5,41.5,0,0,1,184.31,906.72Zm0-243a41.5,41.5,0,1,1,41.5-41.5A41.5,41.5,0,0,1,184.31,663.72Zm0-269a41.5,41.5,0,1,1,41.5-41.5A41.5,41.5,0,0,1,184.31,394.72Zm0-243a41.5,41.5,0,1,1,41.5-41.5A41.5,41.5,0,0,1,184.31,151.72Zm89.66,886a41.5,41.5,0,1,1,41.5-41.5A41.5,41.5,0,0,1,274,1037.72Zm0-258a41.5,41.5,0,1,1,41.5-41.5A41.5,41.5,0,0,1,274,779.72Zm0-254a41.5,41.5,0,1,1,41.5-41.5A41.5,41.5,0,0,1,274,525.72Zm0-258a41.5,41.5,0,1,1,41.5-41.5A41.5,41.5,0,0,1,274,267.72Zm90,639a41.5,41.5,0,1,1,41.5-41.5A41.5,41.5,0,0,1,364,906.72Zm0-243a41.5,41.5,0,1,1,41.5-41.5A41.5,41.5,0,0,1,364,663.72Zm0-269a41.5,41.5,0,1,1,41.5-41.5A41.5,41.5,0,0,1,364,394.72Zm0-243a41.5,41.5,0,1,1,41.5-41.5A41.5,41.5,0,0,1,364,151.72Zm89.67,886a41.5,41.5,0,1,1,41.5-41.5A41.5,41.5,0,0,1,453.64,1037.72Zm0-258a41.5,41.5,0,1,1,41.5-41.5A41.5,41.5,0,0,1,453.64,779.72Zm0-254a41.5,41.5,0,1,1,41.5-41.5A41.5,41.5,0,0,1,453.64,525.72Zm0-258a41.5,41.5,0,1,1,41.5-41.5A41.5,41.5,0,0,1,453.64,267.72Zm90,639a41.5,41.5,0,1,1,41.5-41.5A41.5,41.5,0,0,1,543.64,906.72Zm0-243a41.5,41.5,0,1,1,41.5-41.5A41.5,41.5,0,0,1,543.64,663.72Zm0-269a41.5,41.5,0,1,1,41.5-41.5A41.5,41.5,0,0,1,543.64,394.72Zm0-243a41.5,41.5,0,1,1,41.5-41.5A41.5,41.5,0,0,1,543.64,151.72Z"/><path class="cls-2" d="M46.14,110.22a41.5,41.5,0,0,0-41.5-41.5A41.83,41.83,0,0,0,.14,69H0v82.48H.14a41.83,41.83,0,0,0,4.5.25A41.5,41.5,0,0,0,46.14,110.22Z"/><circle class="cls-2" cx="184.31" cy="110.22" r="41.5"/><circle class="cls-2" cx="363.97" cy="110.22" r="41.5"/><circle class="cls-2" cx="543.64" cy="110.22" r="41.5"/><circle class="cls-2" cx="94.31" cy="226.22" r="41.5"/><circle class="cls-2" cx="273.97" cy="226.22" r="41.5"/><circle class="cls-2" cx="453.64" cy="226.22" r="41.5"/><path class="cls-2" d="M592.5,226A41.5,41.5,0,0,0,634,267.5a40.94,40.94,0,0,0,6-.44V184.94a40.94,40.94,0,0,0-6-.44A41.5,41.5,0,0,0,592.5,226Z"/><path class="cls-2" d="M94.31,12.72A41.35,41.35,0,0,0,124.19,0H64.42A41.37,41.37,0,0,0,94.31,12.72Z"/><path class="cls-2" d="M274,12.72A41.37,41.37,0,0,0,303.86,0H244.09A41.35,41.35,0,0,0,274,12.72Z"/><path class="cls-2" d="M453.64,12.72A41.35,41.35,0,0,0,483.52,0H423.76A41.35,41.35,0,0,0,453.64,12.72Z"/><path class="cls-2" d="M634,12.5a40.94,40.94,0,0,0,6-.44V0H604.33A41.35,41.35,0,0,0,634,12.5Z"/><path class="cls-2" d="M46.14,353.22a41.5,41.5,0,0,0-41.5-41.5,41.83,41.83,0,0,0-4.5.25H0v82.48H.14a41.83,41.83,0,0,0,4.5.25A41.5,41.5,0,0,0,46.14,353.22Z"/><circle class="cls-2" cx="184.31" cy="353.22" r="41.5"/><circle class="cls-2" cx="363.97" cy="353.22" r="41.5"/><circle class="cls-2" cx="543.64" cy="353.22" r="41.5"/><circle class="cls-2" cx="94.31" cy="484.22" r="41.5"/><circle class="cls-2" cx="273.97" cy="484.22" r="41.5"/><circle class="cls-2" cx="453.64" cy="484.22" r="41.5"/><path class="cls-2" d="M592.5,484A41.5,41.5,0,0,0,634,525.5a40.94,40.94,0,0,0,6-.44V442.94a40.94,40.94,0,0,0-6-.44A41.5,41.5,0,0,0,592.5,484Z"/><path class="cls-2" d="M46.14,622.22a41.5,41.5,0,0,0-41.5-41.5,41.83,41.83,0,0,0-4.5.25H0v82.48H.14a41.83,41.83,0,0,0,4.5.25A41.5,41.5,0,0,0,46.14,622.22Z"/><circle class="cls-2" cx="184.31" cy="622.22" r="41.5"/><circle class="cls-2" cx="363.97" cy="622.22" r="41.5"/><circle class="cls-2" cx="543.64" cy="622.22" r="41.5"/><circle class="cls-2" cx="94.31" cy="738.22" r="41.5"/><circle class="cls-2" cx="273.97" cy="738.22" r="41.5"/><circle class="cls-2" cx="453.64" cy="738.22" r="41.5"/><path class="cls-2" d="M592.5,738A41.5,41.5,0,0,0,634,779.5a40.94,40.94,0,0,0,6-.44V696.94a40.94,40.94,0,0,0-6-.44A41.5,41.5,0,0,0,592.5,738Z"/><path class="cls-2" d="M46.14,865.22a41.5,41.5,0,0,0-41.5-41.5,41.83,41.83,0,0,0-4.5.25H0v82.48H.14a41.83,41.83,0,0,0,4.5.25A41.5,41.5,0,0,0,46.14,865.22Z"/><circle class="cls-2" cx="184.31" cy="865.22" r="41.5"/><circle class="cls-2" cx="363.97" cy="865.22" r="41.5"/><circle class="cls-2" cx="543.64" cy="865.22" r="41.5"/><circle class="cls-2" cx="94.31" cy="996.22" r="41.5"/><circle class="cls-2" cx="273.97" cy="996.22" r="41.5"/><circle class="cls-2" cx="453.64" cy="996.22" r="41.5"/><path class="cls-2" d="M.14,1076.78H0V1080H18.5a41.36,41.36,0,0,0-16.19-3.28C1.58,1076.72.86,1076.74.14,1076.78Z"/><path class="cls-2" d="M165.78,1080h32.39a41.62,41.62,0,0,0-32.39,0Z"/><path class="cls-2" d="M345.45,1080h32.39a41.62,41.62,0,0,0-32.39,0Z"/><path class="cls-2" d="M529.38,1080h30.5a41.41,41.41,0,0,0-30.5,0Z"/><path class="cls-2" d="M592.5,996a41.5,41.5,0,0,0,41.5,41.5,40.94,40.94,0,0,0,6-.44V954.94a40.94,40.94,0,0,0-6-.44A41.5,41.5,0,0,0,592.5,996Z"/><rect class="cls-3" x="631.5" y="595.68" width="645.88" height="69.6"/><rect class="cls-3" x="631.5" y="852.89" width="645.88" height="69.6"/><rect class="cls-3" x="631.5" y="467.08" width="645.88" height="69.6"/><rect class="cls-3" x="631.5" y="724.28" width="645.88" height="69.6"/><rect class="cls-3" x="631.5" y="981.49" width="645.88" height="69.6"/><rect class="cls-3" x="631.5" y="338.47" width="645.88" height="69.6"/><rect class="cls-3" x="631.5" y="108.96" width="645.88" height="41.91"/><rect class="cls-3" x="631.5" y="0.59" width="645.88" height="49.36"/><rect class="cls-3" x="631.5" y="209.87" width="645.88" height="69.6"/><rect class="cls-4" x="631.5" y="49.96" width="645.88" height="59"/><rect class="cls-4" x="631.5" y="150.87" width="645.88" height="59"/><rect class="cls-4" x="631.5" y="279.47" width="645.88" height="59"/><rect class="cls-4" x="631.5" y="408.08" width="645.88" height="59"/><rect class="cls-4" x="631.5" y="536.68" width="645.88" height="59"/><rect class="cls-4" x="631.5" y="665.28" width="645.88" height="59"/><rect class="cls-4" x="631.5" y="793.89" width="645.88" height="59"/><rect class="cls-4" x="631.5" y="922.49" width="645.88" height="59"/><rect class="cls-4" x="631.5" y="1051.09" width="645.88" height="29.5"/><path class="cls-5" d="M1913.8,1038c-23.69,0-42.9-18.61-42.9-41.56s19.21-41.56,42.9-41.56a43.72,43.72,0,0,1,6.2.44V779.24a45.24,45.24,0,0,1-6.2.44c-23.69,0-42.9-18.61-42.9-41.56s19.21-41.56,42.9-41.56a45.24,45.24,0,0,1,6.2.44V524.89a45.25,45.25,0,0,1-6.2.43c-23.69,0-42.9-18.6-42.9-41.55s19.21-41.56,42.9-41.56a43.72,43.72,0,0,1,6.2.44V266.53a45.25,45.25,0,0,1-6.2.43c-23.69,0-42.9-18.6-42.9-41.55s19.21-41.56,42.9-41.56a43.72,43.72,0,0,1,6.2.44V8.17a45.24,45.24,0,0,1-6.2.44,43.56,43.56,0,0,1-25.31-8H1753a43.67,43.67,0,0,1-25.63,8.24A43.62,43.62,0,0,1,1701.74.59H1567.28a43.62,43.62,0,0,1-25.63,8.24A43.62,43.62,0,0,1,1516,.59H1381.56a43.62,43.62,0,0,1-25.63,8.24A43.62,43.62,0,0,1,1330.3.59H1260V68c1.07-.08,2.15-.13,3.25-.13,23.69,0,42.89,18.6,42.89,41.56S1286.94,151,1263.25,151c-1.1,0-2.18-.05-3.25-.13V311.38c1.07-.08,2.15-.13,3.25-.13,23.69,0,42.89,18.6,42.89,41.55s-19.2,41.56-42.89,41.56c-1.1,0-2.18-.05-3.25-.13V580.75c1.07-.08,2.15-.13,3.25-.13,23.69,0,42.89,18.61,42.89,41.56s-19.2,41.56-42.89,41.56c-1.1,0-2.18-.06-3.25-.13V824.09c1.07-.08,2.15-.13,3.25-.13,23.69,0,42.89,18.6,42.89,41.56s-19.2,41.55-42.89,41.55c-1.1,0-2.18-.05-3.25-.13v170.39l.83,0a44,44,0,0,1,16.74,3.28h152.24a44.36,44.36,0,0,1,33.48,0h152.24a44.36,44.36,0,0,1,33.48,0h150.44a44.3,44.3,0,0,1,31.53,0h89v-43A45.24,45.24,0,0,1,1913.8,1038Zm-557.87.22c-23.69,0-42.89-18.61-42.89-41.56s19.2-41.56,42.89-41.56,42.9,18.61,42.9,41.56S1379.62,1038.26,1355.93,1038.26Zm0-258.36c-23.69,0-42.89-18.61-42.89-41.56s19.2-41.56,42.89-41.56,42.9,18.61,42.9,41.56S1379.62,779.9,1355.93,779.9Zm0-254.36c-23.69,0-42.89-18.6-42.89-41.55s19.2-41.56,42.89-41.56,42.9,18.6,42.9,41.56S1379.62,525.54,1355.93,525.54Zm0-258.36c-23.69,0-42.89-18.6-42.89-41.55s19.2-41.56,42.89-41.56,42.9,18.61,42.9,41.56S1379.62,267.18,1355.93,267.18Zm93,639.89c-23.69,0-42.89-18.6-42.89-41.55S1425.27,824,1449,824s42.9,18.6,42.9,41.56S1472.65,907.07,1449,907.07Zm0-243.33c-23.69,0-42.89-18.61-42.89-41.56s19.2-41.56,42.89-41.56,42.9,18.61,42.9,41.56S1472.65,663.74,1449,663.74Zm0-269.38c-23.69,0-42.89-18.6-42.89-41.56s19.2-41.55,42.89-41.55,42.9,18.6,42.9,41.55S1472.65,394.36,1449,394.36ZM1449,151c-23.69,0-42.89-18.6-42.89-41.55s19.2-41.56,42.89-41.56,42.9,18.6,42.9,41.56S1472.65,151,1449,151Zm92.69,887.24c-23.69,0-42.9-18.61-42.9-41.56s19.21-41.56,42.9-41.56,42.9,18.61,42.9,41.56S1565.34,1038.26,1541.65,1038.26Zm0-258.36c-23.69,0-42.9-18.61-42.9-41.56s19.21-41.56,42.9-41.56,42.9,18.61,42.9,41.56S1565.34,779.9,1541.65,779.9Zm0-254.36c-23.69,0-42.9-18.6-42.9-41.55s19.21-41.56,42.9-41.56,42.9,18.6,42.9,41.56S1565.34,525.54,1541.65,525.54Zm0-258.36c-23.69,0-42.9-18.6-42.9-41.55s19.21-41.56,42.9-41.56,42.9,18.61,42.9,41.56S1565.34,267.18,1541.65,267.18Zm93,639.89c-23.69,0-42.9-18.6-42.9-41.55S1611,824,1634.68,824s42.9,18.6,42.9,41.56S1658.37,907.07,1634.68,907.07Zm0-243.33c-23.69,0-42.9-18.61-42.9-41.56s19.21-41.56,42.9-41.56,42.9,18.61,42.9,41.56S1658.37,663.74,1634.68,663.74Zm0-269.38c-23.69,0-42.9-18.6-42.9-41.56s19.21-41.55,42.9-41.55,42.9,18.6,42.9,41.55S1658.37,394.36,1634.68,394.36Zm0-243.34c-23.69,0-42.9-18.6-42.9-41.55s19.21-41.56,42.9-41.56,42.9,18.6,42.9,41.56S1658.37,151,1634.68,151Zm92.69,887.24c-23.7,0-42.9-18.61-42.9-41.56s19.2-41.56,42.9-41.56,42.89,18.61,42.89,41.56S1751.06,1038.26,1727.37,1038.26Zm0-258.36c-23.7,0-42.9-18.61-42.9-41.56s19.2-41.56,42.9-41.56,42.89,18.61,42.89,41.56S1751.06,779.9,1727.37,779.9Zm0-254.36c-23.7,0-42.9-18.6-42.9-41.55s19.2-41.56,42.9-41.56,42.89,18.6,42.89,41.56S1751.06,525.54,1727.37,525.54Zm0-258.36c-23.7,0-42.9-18.6-42.9-41.55s19.2-41.56,42.9-41.56,42.89,18.61,42.89,41.56S1751.06,267.18,1727.37,267.18Zm93,639.89c-23.7,0-42.9-18.6-42.9-41.55S1796.7,824,1820.4,824s42.89,18.6,42.89,41.56S1844.09,907.07,1820.4,907.07Zm0-243.33c-23.7,0-42.9-18.61-42.9-41.56s19.2-41.56,42.9-41.56,42.89,18.61,42.89,41.56S1844.09,663.74,1820.4,663.74Zm0-269.38c-23.7,0-42.9-18.6-42.9-41.56s19.2-41.55,42.9-41.55,42.89,18.6,42.89,41.55S1844.09,394.36,1820.4,394.36Zm0-243.34c-23.7,0-42.9-18.6-42.9-41.55s19.2-41.56,42.9-41.56,42.89,18.6,42.89,41.56S1844.09,151,1820.4,151Z"/><path class="cls-6" d="M1306.14,109.47c0-23-19.2-41.56-42.89-41.56-1.1,0-2.18,0-3.25.13v82.85c1.07.08,2.15.13,3.25.13C1286.94,151,1306.14,132.42,1306.14,109.47Z"/><ellipse class="cls-6" cx="1448.96" cy="109.47" rx="42.9" ry="41.56"/><ellipse class="cls-6" cx="1634.68" cy="109.47" rx="42.9" ry="41.56"/><ellipse class="cls-6" cx="1820.4" cy="109.47" rx="42.9" ry="41.56"/><ellipse class="cls-6" cx="1355.93" cy="225.63" rx="42.9" ry="41.56"/><ellipse class="cls-6" cx="1541.65" cy="225.63" rx="42.9" ry="41.56"/><ellipse class="cls-6" cx="1727.37" cy="225.63" rx="42.9" ry="41.56"/><path class="cls-6" d="M1870.9,225.41c0,23,19.21,41.55,42.9,41.55a45.25,45.25,0,0,0,6.2-.43V184.29a43.72,43.72,0,0,0-6.2-.44C1890.11,183.85,1870.9,202.46,1870.9,225.41Z"/><path class="cls-6" d="M1381.56.59H1330.3a43.62,43.62,0,0,0,25.63,8.24A43.62,43.62,0,0,0,1381.56.59Z"/><path class="cls-6" d="M1567.28.59H1516a43.62,43.62,0,0,0,25.63,8.24A43.62,43.62,0,0,0,1567.28.59Z"/><path class="cls-6" d="M1753,.59h-51.26a43.62,43.62,0,0,0,25.63,8.24A43.67,43.67,0,0,0,1753,.59Z"/><path class="cls-6" d="M1920,8.17V.59h-31.51a43.56,43.56,0,0,0,25.31,8A45.24,45.24,0,0,0,1920,8.17Z"/><path class="cls-6" d="M1306.14,352.8c0-22.95-19.2-41.55-42.89-41.55-1.1,0-2.18.05-3.25.13v82.85c1.07.08,2.15.13,3.25.13C1286.94,394.36,1306.14,375.76,1306.14,352.8Z"/><ellipse class="cls-6" cx="1448.96" cy="352.8" rx="42.9" ry="41.56"/><ellipse class="cls-6" cx="1634.68" cy="352.8" rx="42.9" ry="41.56"/><ellipse class="cls-6" cx="1820.4" cy="352.8" rx="42.9" ry="41.56"/><ellipse class="cls-6" cx="1355.93" cy="483.99" rx="42.9" ry="41.56"/><ellipse class="cls-6" cx="1541.65" cy="483.99" rx="42.9" ry="41.56"/><ellipse class="cls-6" cx="1727.37" cy="483.99" rx="42.9" ry="41.56"/><path class="cls-6" d="M1870.9,483.77c0,23,19.21,41.55,42.9,41.55a45.25,45.25,0,0,0,6.2-.43V442.65a43.72,43.72,0,0,0-6.2-.44C1890.11,442.21,1870.9,460.81,1870.9,483.77Z"/><path class="cls-6" d="M1306.14,622.18c0-22.95-19.2-41.56-42.89-41.56-1.1,0-2.18,0-3.25.13v82.86c1.07.07,2.15.13,3.25.13C1286.94,663.74,1306.14,645.13,1306.14,622.18Z"/><ellipse class="cls-6" cx="1448.96" cy="622.18" rx="42.9" ry="41.56"/><ellipse class="cls-6" cx="1634.68" cy="622.18" rx="42.9" ry="41.56"/><ellipse class="cls-6" cx="1820.4" cy="622.18" rx="42.9" ry="41.56"/><ellipse class="cls-6" cx="1355.93" cy="738.34" rx="42.9" ry="41.56"/><ellipse class="cls-6" cx="1541.65" cy="738.34" rx="42.9" ry="41.56"/><ellipse class="cls-6" cx="1727.37" cy="738.34" rx="42.9" ry="41.56"/><path class="cls-6" d="M1870.9,738.12c0,23,19.21,41.56,42.9,41.56a45.24,45.24,0,0,0,6.2-.44V697a45.24,45.24,0,0,0-6.2-.44C1890.11,696.56,1870.9,715.17,1870.9,738.12Z"/><path class="cls-6" d="M1306.14,865.52c0-23-19.2-41.56-42.89-41.56-1.1,0-2.18,0-3.25.13v82.85c1.07.08,2.15.13,3.25.13C1286.94,907.07,1306.14,888.47,1306.14,865.52Z"/><ellipse class="cls-6" cx="1448.96" cy="865.52" rx="42.9" ry="41.56"/><ellipse class="cls-6" cx="1634.68" cy="865.52" rx="42.9" ry="41.56"/><ellipse class="cls-6" cx="1820.4" cy="865.52" rx="42.9" ry="41.56"/><ellipse class="cls-6" cx="1355.93" cy="996.7" rx="42.9" ry="41.56"/><ellipse class="cls-6" cx="1541.65" cy="996.7" rx="42.9" ry="41.56"/><ellipse class="cls-6" cx="1727.37" cy="996.7" rx="42.9" ry="41.56"/><path class="cls-6" d="M1260,1077.33v3.26h17.57a44,44,0,0,0-16.74-3.28Z"/><path class="cls-6" d="M1429.81,1080.59h33.48a44.36,44.36,0,0,0-33.48,0Z"/><path class="cls-6" d="M1615.53,1080.59H1649a44.36,44.36,0,0,0-33.48,0Z"/><path class="cls-6" d="M1799.45,1080.59H1831a44.3,44.3,0,0,0-31.53,0Z"/><path class="cls-6" d="M1870.9,996.48c0,22.95,19.21,41.56,42.9,41.56a45.24,45.24,0,0,0,6.2-.44V955.36a43.72,43.72,0,0,0-6.2-.44C1890.11,954.92,1870.9,973.53,1870.9,996.48Z"/></g></g></svg>