<svg xmlns="http://www.w3.org/2000/svg" xmlns:xlink="http://www.w3.org/1999/xlink" viewBox="0 0 788.88 893.38"><defs><style>.cls-1,.cls-10,.cls-11,.cls-9{fill:none;}.cls-2{fill:#f2de79;}.cls-3{fill:#f8f4eb;}.cls-4{opacity:0.15;}.cls-5{clip-path:url(#clip-path);}.cls-12,.cls-6{fill:#03588c;}.cls-7{fill:#ff9685;}.cls-8{fill:#0388a6;}.cls-9{stroke:#ededed;}.cls-10,.cls-11,.cls-9{stroke-miterlimit:10;}.cls-10,.cls-9{stroke-width:0.52px;}.cls-10{stroke:#00a99d;}.cls-11{stroke:#03588c;}.cls-12{font-size:12px;font-family:NotoSans-Regular, Noto Sans;letter-spacing:0.2em;}</style><clipPath id="clip-path" transform="translate(108.88)"><path id="Rectangle_8" data-name="Rectangle 8" class="cls-1" d="M50.38,15H629.62C649.16,15,665,34.77,665,59.16V480.84c0,24.39-15.84,44.16-35.38,44.16H50.38C30.84,525,15,505.23,15,480.84V59.16C15,34.77,30.84,15,50.38,15Z"/></clipPath></defs><g id="圖層_2" data-name="圖層 2"><g id="圖層_1-2" data-name="圖層 1"><path id="Rectangle_8-2" data-name="Rectangle 8" class="cls-2" d="M37,0H643c20.45,0,37,20.94,37,46.76V493.24c0,25.82-16.57,46.76-37,46.76H37c-20.45,0-37-20.94-37-46.76V46.76C0,20.94,16.57,0,37,0Z" transform="translate(108.88)"/><path id="Rectangle_8-3" data-name="Rectangle 8" class="cls-3" d="M50.38,15H629.62C649.16,15,665,34.77,665,59.16V480.84c0,24.39-15.84,44.16-35.38,44.16H50.38C30.84,525,15,505.23,15,480.84V59.16C15,34.77,30.84,15,50.38,15Z" transform="translate(108.88)"/><g class="cls-4"><g class="cls-5"><g id="Group_2" data-name="Group 2"><path id="Path_4412" data-name="Path 4412" class="cls-2" d="M79.76,116.37a2.61,2.61,0,0,1-.17.28c-.08.14-.25.4-.28.44-.18.26-.36.52-.55.77a28.1,28.1,0,0,1-2.16,2.58c-.4.43-.83.86-1.25,1.28l-.13.13,0,0-.72.65a66.85,66.85,0,0,1-6.47,5l-.95.66q-.75-11.28-1.45-22.57l1.08.91c2,1.67,4.16,3.25,6.28,4.78a71.89,71.89,0,0,0,6.46,4.25,2.34,2.34,0,0,0,.27.15A3.17,3.17,0,0,0,79.76,116.37Z" transform="translate(108.88)"/><path id="Path_4413" data-name="Path 4413" class="cls-6" d="M104.42,93.05l-1.09.75-1,.7c-2.45,1.69-5,3.31-7.34,5.19-1.63,1.31-3.11,2.85-4.62,4.31l-1.08,1-.45.43-.23.21c-.87.8-1.76,1.58-2.69,2.29A19,19,0,0,1,84,109.23c.2-.13-.34.12-.64.26l-.1,0-.21-.12-.9-.5c-.49-.3-1-.63-1.45-1-1-.69-2.1-1.27-3.11-2A84.48,84.48,0,0,1,66.1,96.44c-.39-.4-.77-.8-1.15-1.21-.1-1.86-.16-3.73-.26-5.59a3.81,3.81,0,0,1,1.53-3.36A12.78,12.78,0,0,1,70.77,84c9.58-2.58,19.23-3.22,27.88-1.49,5.44,1.43,5.7,1.71,5.75,6.5C104.41,90.32,104.42,91.69,104.42,93.05Z" transform="translate(108.88)"/><path id="Path_4414" data-name="Path 4414" class="cls-2" d="M105,123.13l-1-.36-.4-.15-.53-.2-.63-.24-1.61-.68c-1.12-.48-2.22-1-3.31-1.53a99,99,0,0,1-9-5.09c3.29-2.12,6-5.23,8.91-7.95,0,0,.49-.46.65-.59.31-.27.62-.54,1-.79,1.26-1,2.58-1.84,3.87-2.74l.46-.32,1.06-.74c0,5,0,10.08.23,15.11Q104.77,120,105,123.13Z" transform="translate(108.88)"/><path id="Path_4415" data-name="Path 4415" class="cls-7" d="M105.92,132.38c-.35.12-.69.26-1,.4-5.43,2.32-9.65,6.9-14.67,10l-.91.53a0,0,0,0,1,0,0l-.36.18a14,14,0,0,1-2.14.84l-.66.18-.67.09a12.44,12.44,0,0,1-2.2,0l-.4,0-1-.1c-.77-.09-1.54-.19-2.3-.31-1.52-.25-3-.55-4.53-1-.85-.22-1.7-.47-2.54-.76l-.53-.19-.07,0c-.42-.18-.83-.35-1.23-.55a17.76,17.76,0,0,1-2-1.13l-.08-.06a3.78,3.78,0,0,1-.33-.22l-.06,0-.54-.49a22.27,22.27,0,0,0,0-2.83c0-.19,0-.38,0-.57l.93-.61c6-4,12.4-8.41,16.41-14.69a91.43,91.43,0,0,0,19.71,9.54c.36.12.73.25,1.1.36C105.8,131.45,105.86,131.91,105.92,132.38Z" transform="translate(108.88)"/><path id="Path_4416" data-name="Path 4416" class="cls-8" d="M84.52,186.81c-1.37,2.52-2.59,5.15-3.75,7.81-2.65,6-5.22,12.13-8.94,17.54C66,220.7,58.06,223.63,48.58,221.7c-7.6-1.54-12.31-7.39-13.41-16.12a33.82,33.82,0,0,1,3.51-19.22C42.24,179,47,172.51,51.8,166c4.37-6,9-11.78,13.09-18q.31-.48.6-1l.87.53a29.79,29.79,0,0,0,5.35,2.26A42.15,42.15,0,0,0,78,151.35c1.66.94,3.41,1.81,4.15,3.73a17.56,17.56,0,0,1,.79,2.68c.32,9.08.27,18.2,1.31,27.22C84.36,185.59,84.44,186.2,84.52,186.81Z" transform="translate(108.88)"/><path id="Path_4417" data-name="Path 4417" class="cls-2" d="M107,165.47a38.26,38.26,0,0,1-5,3.73c-4,2.58-7.93,5.18-11.25,8.76-.08.08-.14.17-.22.24,0-.47-.06-.94-.08-1.42-.42-7.05-.43-14.14-.72-21.21a16.39,16.39,0,0,1,2.58-5.68,54.48,54.48,0,0,0,7.51-5.26c1.47-1.16,2.94-2.31,4.48-3.33.4-.26.79-.51,1.19-.75l.54-.32.06,0,0,0,.08,0c.29-.15.59-.28.88-.41.65,3.61,1.43,7.19,2.38,10.74a34,34,0,0,1,1,5.92A10.41,10.41,0,0,1,107,165.47Z" transform="translate(108.88)"/><path id="Path_4418" data-name="Path 4418" class="cls-9" d="M34.93,202a9,9,0,0,0,5.86,3.88,25,25,0,0,0,7,.15" transform="translate(108.88)"/><path id="Path_4419" data-name="Path 4419" class="cls-10" d="M71.59,84.11a13.22,13.22,0,0,0,.36,5" transform="translate(108.88)"/><path id="Path_4420" data-name="Path 4420" class="cls-10" d="M75.3,82.81l.21,4a4.66,4.66,0,0,0,.22,1.44" transform="translate(108.88)"/><path id="Path_4421" data-name="Path 4421" class="cls-10" d="M82.34,82.13a29.06,29.06,0,0,1,.3,4" transform="translate(108.88)"/><path id="Path_4422" data-name="Path 4422" class="cls-10" d="M78.6,82.59l.22,3.11" transform="translate(108.88)"/><path id="Path_4423" data-name="Path 4423" class="cls-10" d="M87,82.05v3.88" transform="translate(108.88)"/><path id="Path_4424" data-name="Path 4424" class="cls-10" d="M92.56,82.06c-.23,1.32-.53,2.64-.88,3.94" transform="translate(108.88)"/><path id="Path_4425" data-name="Path 4425" class="cls-10" d="M97.14,83q-.37,2.14-.93,4.26" transform="translate(108.88)"/></g><g id="Group_2-2" data-name="Group 2"><path id="Path_4412-2" data-name="Path 4412" class="cls-2" d="M192.52,245.14l-.16.28-.29.44c-.18.26-.36.52-.55.77a29.68,29.68,0,0,1-2.15,2.58c-.41.43-.83.86-1.25,1.28l-.13.13,0,0-.73.65a66.72,66.72,0,0,1-6.46,5l-1,.66q-.75-11.28-1.45-22.57l1.09.91c2,1.67,4.16,3.25,6.27,4.78a73.34,73.34,0,0,0,6.46,4.25c.09.06.18.1.27.15A3.17,3.17,0,0,0,192.52,245.14Z" transform="translate(108.88)"/><path id="Path_4413-2" data-name="Path 4413" class="cls-6" d="M217.18,221.82l-1.09.75-1,.7c-2.45,1.69-5,3.31-7.34,5.19-1.63,1.31-3.11,2.85-4.62,4.31l-1.08,1-.45.43-.23.21c-.87.8-1.76,1.58-2.69,2.29a18.86,18.86,0,0,1-1.85,1.26c.2-.13-.35.12-.64.26l-.11,0-.21-.12-.89-.5c-.5-.3-1-.63-1.46-1-1-.69-2.09-1.27-3.1-2a85.18,85.18,0,0,1-11.54-9.47c-.39-.4-.77-.8-1.15-1.21-.09-1.86-.16-3.73-.25-5.59a3.78,3.78,0,0,1,1.52-3.36,12.74,12.74,0,0,1,4.56-2.33c9.57-2.58,19.22-3.22,27.87-1.49,5.44,1.43,5.7,1.71,5.75,6.5C217.17,219.09,217.18,220.46,217.18,221.82Z" transform="translate(108.88)"/><path id="Path_4414-2" data-name="Path 4414" class="cls-2" d="M217.76,251.9l-1-.36-.4-.15-.53-.2-.62-.24c-.55-.22-1.08-.45-1.62-.68-1.12-.48-2.22-1-3.31-1.53a100.36,100.36,0,0,1-8.95-5.09c3.29-2.12,6.06-5.23,8.91-8l.65-.59c.31-.27.63-.54,1-.79,1.25-1,2.57-1.84,3.86-2.74l.46-.32,1.06-.74c0,5,0,10.08.24,15.11Q217.54,248.78,217.76,251.9Z" transform="translate(108.88)"/><path id="Path_4415-2" data-name="Path 4415" class="cls-7" d="M218.68,261.15c-.34.12-.68.26-1,.4-5.42,2.32-9.65,6.9-14.67,10l-.9.53,0,0-.36.18a14,14,0,0,1-2.14.84l-.66.18-.67.09a12.32,12.32,0,0,1-2.19,0l-.41,0-.95-.1c-.77-.09-1.54-.19-2.3-.31-1.52-.25-3-.55-4.53-1-.85-.22-1.7-.47-2.54-.76l-.53-.19-.07,0c-.41-.18-.83-.35-1.23-.55a17.63,17.63,0,0,1-2-1.13l-.09-.06-.33-.22-.05,0-.55-.49a20.57,20.57,0,0,0,0-2.83c0-.19,0-.38,0-.57l.94-.61c6-4,12.39-8.41,16.4-14.69a91.43,91.43,0,0,0,19.71,9.54c.36.12.73.25,1.1.36C218.57,260.22,218.62,260.68,218.68,261.15Z" transform="translate(108.88)"/><path id="Path_4416-2" data-name="Path 4416" class="cls-8" d="M197.28,315.58c-1.37,2.52-2.58,5.15-3.75,7.81-2.65,6-5.21,12.13-8.94,17.54-5.88,8.54-13.77,11.47-23.25,9.54-7.6-1.54-12.31-7.39-13.4-16.12a33.73,33.73,0,0,1,3.5-19.22c3.56-7.39,8.36-13.85,13.12-20.35,4.38-6,9-11.78,13.09-18,.22-.32.41-.64.6-1,.29.18.58.36.88.53a29.4,29.4,0,0,0,5.34,2.26,42,42,0,0,0,6.34,1.49c1.66.94,3.4,1.81,4.15,3.73a18.74,18.74,0,0,1,.78,2.68c.32,9.08.27,18.2,1.31,27.22C197.13,314.36,197.2,315,197.28,315.58Z" transform="translate(108.88)"/><path id="Path_4417-2" data-name="Path 4417" class="cls-2" d="M219.75,294.24a37,37,0,0,1-5,3.73c-4,2.58-7.93,5.18-11.25,8.76l-.21.24-.09-1.42c-.42-7.05-.43-14.14-.72-21.21a16.48,16.48,0,0,1,2.58-5.68,54.57,54.57,0,0,0,7.52-5.26c1.46-1.16,2.93-2.31,4.48-3.33.39-.26.79-.51,1.19-.75l.54-.32.05,0,0,0,.07,0c.29-.15.59-.28.88-.41.65,3.61,1.43,7.19,2.38,10.75a33.7,33.7,0,0,1,1,5.91A10.41,10.41,0,0,1,219.75,294.24Z" transform="translate(108.88)"/><path id="Path_4418-2" data-name="Path 4418" class="cls-9" d="M147.69,330.72a9,9,0,0,0,5.86,3.88,25.06,25.06,0,0,0,7,.15" transform="translate(108.88)"/><path id="Path_4419-2" data-name="Path 4419" class="cls-10" d="M184.35,212.88a13.22,13.22,0,0,0,.36,5" transform="translate(108.88)"/><path id="Path_4420-2" data-name="Path 4420" class="cls-10" d="M188.06,211.58l.21,4a5,5,0,0,0,.22,1.44" transform="translate(108.88)"/><path id="Path_4421-2" data-name="Path 4421" class="cls-10" d="M195.1,210.9a30.77,30.77,0,0,1,.31,3.95" transform="translate(108.88)"/><path id="Path_4422-2" data-name="Path 4422" class="cls-10" d="M191.36,211.36l.23,3.11" transform="translate(108.88)"/><path id="Path_4423-2" data-name="Path 4423" class="cls-10" d="M199.75,210.82v3.88" transform="translate(108.88)"/><path id="Path_4424-2" data-name="Path 4424" class="cls-10" d="M205.33,210.83c-.24,1.32-.53,2.64-.89,3.94" transform="translate(108.88)"/><path id="Path_4425-2" data-name="Path 4425" class="cls-10" d="M209.91,211.81c-.26,1.43-.57,2.85-.94,4.26" transform="translate(108.88)"/></g><g id="Group_2-3" data-name="Group 2"><path id="Path_4412-3" data-name="Path 4412" class="cls-2" d="M258.17,52l-.16.28-.29.43c-.17.26-.36.52-.55.78A31.26,31.26,0,0,1,255,56.06c-.41.43-.83.85-1.25,1.27l-.13.13s0,0,0,0l-.73.66a68.35,68.35,0,0,1-6.46,5l-1,.65Q244.7,52.49,244,41.21c.36.3.72.61,1.09.9,2,1.68,4.16,3.25,6.28,4.79a74,74,0,0,0,6.45,4.25l.27.15A5.4,5.4,0,0,0,258.17,52Z" transform="translate(108.88)"/><path id="Path_4413-3" data-name="Path 4413" class="cls-6" d="M282.84,28.67l-1.1.74-1,.7c-2.45,1.7-5,3.32-7.33,5.19-1.63,1.31-3.11,2.85-4.62,4.31l-1.09,1-.44.42-.24.22c-.87.79-1.76,1.57-2.69,2.29a19.43,19.43,0,0,1-1.85,1.26c.2-.14-.34.12-.64.26l-.11,0L261.5,45c-.29-.16-.6-.32-.89-.5-.5-.3-1-.63-1.46-1-1-.69-2.09-1.27-3.1-2a84.48,84.48,0,0,1-11.53-9.47c-.39-.4-.78-.8-1.16-1.21-.09-1.86-.15-3.72-.25-5.58a3.78,3.78,0,0,1,1.52-3.36,12.67,12.67,0,0,1,4.56-2.33c9.58-2.59,19.22-3.23,27.87-1.49,5.45,1.43,5.71,1.71,5.75,6.49C282.83,25.94,282.83,27.3,282.84,28.67Z" transform="translate(108.88)"/><path id="Path_4414-3" data-name="Path 4414" class="cls-2" d="M283.41,58.75l-1.05-.37-.4-.15-.53-.19-.62-.25-1.62-.67c-1.11-.49-2.21-1-3.31-1.54a97.69,97.69,0,0,1-8.94-5.08c3.29-2.12,6.05-5.24,8.9-8,0,0,.5-.45.65-.58.31-.28.63-.54,1-.8,1.25-.95,2.57-1.83,3.86-2.74l.46-.32,1.07-.74c0,5,0,10.08.23,15.12Q283.19,55.62,283.41,58.75Z" transform="translate(108.88)"/><path id="Path_4415-3" data-name="Path 4415" class="cls-7" d="M284.33,68l-1,.4c-5.42,2.33-9.64,6.91-14.67,10-.3.19-.61.35-.9.54l0,0a4,4,0,0,1-.36.17,15,15,0,0,1-2.13.85l-.66.17-.68.1a12.32,12.32,0,0,1-2.19,0l-.41,0-.95-.1c-.77-.09-1.53-.2-2.3-.32-1.52-.24-3-.55-4.53-.94-.85-.23-1.7-.48-2.53-.77l-.53-.19-.08,0q-.62-.26-1.23-.54a17.06,17.06,0,0,1-2-1.14l-.09,0-.33-.23,0,0-.55-.49a20.56,20.56,0,0,0,0-2.83l0-.57.93-.62c6-4,12.39-8.41,16.41-14.69a91.58,91.58,0,0,0,19.7,9.54l1.1.37C284.22,67.06,284.27,67.53,284.33,68Z" transform="translate(108.88)"/><path id="Path_4416-3" data-name="Path 4416" class="cls-8" d="M262.94,122.42c-1.38,2.52-2.59,5.15-3.76,7.82-2.64,6-5.21,12.13-8.94,17.54-5.87,8.53-13.76,11.46-23.25,9.54-7.6-1.54-12.31-7.4-13.4-16.13A33.7,33.7,0,0,1,217.1,122c3.56-7.4,8.35-13.86,13.11-20.36,4.38-6,9-11.77,13.1-18,.21-.32.41-.64.59-1,.29.19.58.37.88.53a28.52,28.52,0,0,0,5.35,2.26A41.86,41.86,0,0,0,256.46,87c1.66.94,3.4,1.81,4.15,3.74a18.64,18.64,0,0,1,.79,2.67c.32,9.09.26,18.21,1.31,27.23C262.78,121.21,262.86,121.81,262.94,122.42Z" transform="translate(108.88)"/><path id="Path_4417-3" data-name="Path 4417" class="cls-2" d="M285.4,101.09a38.73,38.73,0,0,1-5,3.73c-4,2.57-7.93,5.17-11.25,8.76l-.21.24-.09-1.42c-.42-7.06-.42-14.15-.71-21.22a16.45,16.45,0,0,1,2.57-5.68,52.9,52.9,0,0,0,7.52-5.26c1.46-1.16,2.93-2.31,4.48-3.33.39-.26.79-.51,1.19-.75l.54-.31.06,0,0,0,.07,0,.89-.4q1,5.4,2.37,10.74A33.67,33.67,0,0,1,288.88,92,10.45,10.45,0,0,1,285.4,101.09Z" transform="translate(108.88)"/><path id="Path_4418-3" data-name="Path 4418" class="cls-9" d="M213.35,137.56a8.91,8.91,0,0,0,5.85,3.88,24.7,24.7,0,0,0,7,.16" transform="translate(108.88)"/><path id="Path_4419-3" data-name="Path 4419" class="cls-10" d="M250,19.72a13.27,13.27,0,0,0,.35,5" transform="translate(108.88)"/><path id="Path_4420-3" data-name="Path 4420" class="cls-10" d="M253.71,18.43l.21,4a5.27,5.27,0,0,0,.22,1.43" transform="translate(108.88)"/><path id="Path_4421-3" data-name="Path 4421" class="cls-10" d="M260.75,17.74a30.77,30.77,0,0,1,.31,4" transform="translate(108.88)"/><path id="Path_4422-3" data-name="Path 4422" class="cls-10" d="M257,18.2l.22,3.11" transform="translate(108.88)"/><path id="Path_4423-3" data-name="Path 4423" class="cls-10" d="M265.4,17.67v3.87" transform="translate(108.88)"/><path id="Path_4424-3" data-name="Path 4424" class="cls-10" d="M271,17.67c-.24,1.33-.53,2.64-.89,3.94" transform="translate(108.88)"/><path id="Path_4425-3" data-name="Path 4425" class="cls-10" d="M275.56,18.66c-.25,1.43-.56,2.84-.93,4.25" transform="translate(108.88)"/></g><g id="Group_2-4" data-name="Group 2"><path id="Path_4412-4" data-name="Path 4412" class="cls-2" d="M380.46,155.33l-.17.28L380,156l-.55.78a29.5,29.5,0,0,1-2.16,2.58c-.4.43-.82.85-1.24,1.27l-.14.13,0,0-.72.66a68.35,68.35,0,0,1-6.46,5l-1,.65q-.75-11.28-1.45-22.56c.36.3.72.61,1.08.9,2.05,1.68,4.16,3.25,6.28,4.79a74.12,74.12,0,0,0,6.46,4.25l.27.15A3.25,3.25,0,0,0,380.46,155.33Z" transform="translate(108.88)"/><path id="Path_4413-4" data-name="Path 4413" class="cls-6" d="M405.12,132l-1.09.74-1,.7c-2.45,1.7-5,3.32-7.34,5.2-1.63,1.3-3.11,2.84-4.62,4.3L390,144l-.45.42-.23.22c-.87.8-1.76,1.57-2.69,2.29a19,19,0,0,1-1.86,1.26c.2-.13-.34.12-.64.26l-.1,0-.21-.12c-.3-.16-.6-.32-.9-.5-.49-.3-1-.62-1.45-.95-1-.68-2.1-1.27-3.1-2a84,84,0,0,1-11.54-9.47c-.39-.39-.77-.8-1.15-1.21-.1-1.86-.16-3.72-.26-5.58a3.8,3.8,0,0,1,1.53-3.36,12.62,12.62,0,0,1,4.55-2.33c9.58-2.59,19.23-3.23,27.88-1.49,5.44,1.43,5.7,1.71,5.75,6.49C405.11,129.28,405.12,130.64,405.12,132Z" transform="translate(108.88)"/><path id="Path_4414-4" data-name="Path 4414" class="cls-2" d="M405.7,162.09l-1.05-.37-.4-.14-.53-.2-.63-.25-1.61-.67c-1.12-.48-2.22-1-3.31-1.54a96.53,96.53,0,0,1-8.95-5.08c3.29-2.12,6-5.24,8.91-8,0,0,.49-.45.65-.58.31-.28.62-.54,1-.8,1.26-.95,2.58-1.83,3.87-2.74l.46-.32,1.06-.74c0,5,0,10.08.23,15.12Q405.47,159,405.7,162.09Z" transform="translate(108.88)"/><path id="Path_4415-4" data-name="Path 4415" class="cls-7" d="M406.62,171.33c-.35.13-.69.26-1,.4-5.43,2.33-9.65,6.91-14.67,10-.3.19-.61.35-.91.54l0,0-.36.17a15.13,15.13,0,0,1-2.14.85l-.66.17-.67.1a12.44,12.44,0,0,1-2.2,0l-.4,0-.95-.1c-.77-.09-1.54-.2-2.3-.32-1.52-.24-3-.55-4.53-.94-.85-.23-1.7-.48-2.54-.77l-.53-.19-.07,0q-.63-.25-1.23-.54a16.44,16.44,0,0,1-2.05-1.14l-.08-.05a3.88,3.88,0,0,1-.33-.23l-.06,0-.54-.49a20.56,20.56,0,0,0,0-2.83c0-.19,0-.38,0-.57l.93-.61c6-4,12.4-8.42,16.41-14.69a91.86,91.86,0,0,0,19.71,9.53l1.1.37C406.5,170.4,406.56,170.87,406.62,171.33Z" transform="translate(108.88)"/><path id="Path_4416-4" data-name="Path 4416" class="cls-8" d="M385.22,225.76c-1.37,2.52-2.59,5.15-3.75,7.82-2.65,6-5.22,12.13-8.94,17.54-5.88,8.53-13.77,11.46-23.25,9.54-7.6-1.54-12.31-7.4-13.41-16.13a33.79,33.79,0,0,1,3.51-19.21c3.56-7.4,8.36-13.86,13.12-20.36,4.37-6,9-11.77,13.09-18,.21-.32.41-.64.6-1,.29.19.58.37.87.53a28.41,28.41,0,0,0,5.35,2.26,43.44,43.44,0,0,0,6.33,1.5c1.67.93,3.41,1.81,4.15,3.73a17.44,17.44,0,0,1,.79,2.67c.32,9.09.27,18.21,1.31,27.23C385.06,224.55,385.14,225.16,385.22,225.76Z" transform="translate(108.88)"/><path id="Path_4417-4" data-name="Path 4417" class="cls-2" d="M407.69,204.43a40.14,40.14,0,0,1-5,3.73c-4,2.57-7.93,5.17-11.25,8.76l-.22.24c0-.47-.06-.95-.08-1.42-.42-7.06-.43-14.15-.72-21.22a16.48,16.48,0,0,1,2.58-5.68,52.81,52.81,0,0,0,7.51-5.26c1.47-1.16,2.94-2.31,4.48-3.33.4-.26.79-.51,1.19-.75l.54-.31.06,0,0,0,.08,0,.88-.4c.65,3.6,1.43,7.18,2.38,10.74a33.65,33.65,0,0,1,1,5.92A10.41,10.41,0,0,1,407.69,204.43Z" transform="translate(108.88)"/><path id="Path_4418-4" data-name="Path 4418" class="cls-9" d="M335.63,240.9a8.93,8.93,0,0,0,5.86,3.88,24.69,24.69,0,0,0,7,.16" transform="translate(108.88)"/><path id="Path_4419-4" data-name="Path 4419" class="cls-10" d="M372.29,123.06a13.27,13.27,0,0,0,.36,5" transform="translate(108.88)"/><path id="Path_4420-4" data-name="Path 4420" class="cls-10" d="M376,121.77l.21,4a4.59,4.59,0,0,0,.22,1.43" transform="translate(108.88)"/><path id="Path_4421-4" data-name="Path 4421" class="cls-10" d="M383,121.08a29.06,29.06,0,0,1,.3,4" transform="translate(108.88)"/><path id="Path_4422-4" data-name="Path 4422" class="cls-10" d="M379.3,121.54l.22,3.12" transform="translate(108.88)"/><path id="Path_4423-4" data-name="Path 4423" class="cls-10" d="M387.68,121v3.87" transform="translate(108.88)"/><path id="Path_4424-4" data-name="Path 4424" class="cls-10" d="M393.26,121c-.23,1.33-.53,2.64-.88,3.94" transform="translate(108.88)"/><path id="Path_4425-4" data-name="Path 4425" class="cls-10" d="M397.84,122c-.25,1.43-.56,2.84-.93,4.25" transform="translate(108.88)"/></g><g id="Group_2-5" data-name="Group 2"><path id="Path_4412-5" data-name="Path 4412" class="cls-2" d="M293.25,347.4c0,.09-.11.19-.16.28s-.25.4-.28.43c-.18.27-.37.52-.55.78a33.51,33.51,0,0,1-2.16,2.58c-.41.43-.83.86-1.25,1.27l-.13.14,0,0c-.24.22-.48.44-.73.65a66.72,66.72,0,0,1-6.46,5l-1,.66q-.75-11.28-1.44-22.57c.36.31.71.61,1.08.91,2,1.67,4.16,3.24,6.28,4.78a75.5,75.5,0,0,0,6.45,4.25l.27.15A5.2,5.2,0,0,0,293.25,347.4Z" transform="translate(108.88)"/><path id="Path_4413-5" data-name="Path 4413" class="cls-6" d="M317.92,324.08l-1.09.75-1,.69c-2.45,1.7-5,3.32-7.34,5.2-1.63,1.31-3.11,2.84-4.62,4.31-.36.35-.72.7-1.09,1,0,.05-.44.42-.44.42l-.24.22c-.87.8-1.75,1.58-2.69,2.29a17.73,17.73,0,0,1-1.85,1.26c.2-.13-.34.12-.64.26l-.11,0-.2-.12-.9-.5c-.49-.3-1-.63-1.45-.95-1-.69-2.1-1.27-3.11-2a83.68,83.68,0,0,1-11.53-9.46c-.39-.4-.78-.8-1.16-1.22-.09-1.86-.15-3.72-.25-5.58a3.78,3.78,0,0,1,1.53-3.36,12.62,12.62,0,0,1,4.55-2.33c9.58-2.59,19.23-3.22,27.88-1.49,5.44,1.43,5.7,1.71,5.74,6.5C317.91,321.35,317.91,322.71,317.92,324.08Z" transform="translate(108.88)"/><path id="Path_4414-5" data-name="Path 4414" class="cls-2" d="M318.5,354.16l-1.05-.37-.4-.14-.53-.2-.63-.25c-.54-.21-1.08-.44-1.62-.67q-1.66-.72-3.3-1.53a99,99,0,0,1-9-5.09c3.29-2.12,6.05-5.24,8.9-8l.65-.59c.31-.27.63-.54,1-.79,1.26-1,2.57-1.84,3.86-2.74l.46-.33,1.07-.73c0,5,0,10.07.23,15.11C318.23,350,318.34,352.08,318.5,354.16Z" transform="translate(108.88)"/><path id="Path_4415-5" data-name="Path 4415" class="cls-7" d="M319.41,363.4c-.34.13-.68.26-1,.41-5.42,2.32-9.64,6.9-14.67,10l-.9.53,0,0-.35.18a15.56,15.56,0,0,1-2.14.84l-.66.18-.67.09a12.44,12.44,0,0,1-2.2,0l-.41,0-.95-.1c-.76-.09-1.53-.19-2.29-.32a44.05,44.05,0,0,1-4.54-.94c-.85-.22-1.7-.48-2.53-.77l-.53-.18-.08,0-1.23-.55a18.5,18.5,0,0,1-2-1.13l-.09-.06-.33-.22s0,0-.05-.05c-.18-.16-.37-.32-.54-.49a22.27,22.27,0,0,0,0-2.83c0-.19,0-.38,0-.57l.93-.61c6-4,12.4-8.41,16.41-14.69a91.58,91.58,0,0,0,19.7,9.54l1.11.36C319.3,362.47,319.36,362.94,319.41,363.4Z" transform="translate(108.88)"/><path id="Path_4416-5" data-name="Path 4416" class="cls-8" d="M298,417.84c-1.38,2.52-2.59,5.14-3.76,7.81-2.64,6-5.21,12.13-8.94,17.54-5.87,8.54-13.76,11.47-23.25,9.54-7.6-1.54-12.3-7.39-13.4-16.13a33.72,33.72,0,0,1,3.51-19.21c3.56-7.39,8.36-13.86,13.11-20.36,4.38-6,9-11.77,13.1-18,.21-.32.41-.64.59-1,.29.18.58.36.88.53a29.19,29.19,0,0,0,5.35,2.26,41.86,41.86,0,0,0,6.33,1.49c1.66.94,3.4,1.81,4.15,3.73a19,19,0,0,1,.79,2.67c.32,9.09.26,18.21,1.31,27.23C297.86,416.62,297.94,417.23,298,417.84Z" transform="translate(108.88)"/><path id="Path_4417-5" data-name="Path 4417" class="cls-2" d="M320.48,396.5a38.39,38.39,0,0,1-5,3.73c-4,2.58-7.93,5.18-11.26,8.76l-.21.24-.09-1.42c-.42-7.05-.42-14.14-.71-21.21a16.21,16.21,0,0,1,2.58-5.68,55.09,55.09,0,0,0,7.51-5.26c1.46-1.16,2.93-2.31,4.48-3.34.39-.26.79-.51,1.19-.74l.54-.32.06,0,0,0,.07,0c.3-.15.59-.28.89-.41q1,5.42,2.38,10.74a34,34,0,0,1,1,5.92A10.42,10.42,0,0,1,320.48,396.5Z" transform="translate(108.88)"/><path id="Path_4418-5" data-name="Path 4418" class="cls-9" d="M248.43,433a8.89,8.89,0,0,0,5.85,3.87,24.71,24.71,0,0,0,7,.16" transform="translate(108.88)"/><path id="Path_4419-5" data-name="Path 4419" class="cls-10" d="M285.09,315.14a13.42,13.42,0,0,0,.35,5" transform="translate(108.88)"/><path id="Path_4420-5" data-name="Path 4420" class="cls-10" d="M288.79,313.84l.22,4a4.7,4.7,0,0,0,.22,1.44" transform="translate(108.88)"/><path id="Path_4421-5" data-name="Path 4421" class="cls-10" d="M295.83,313.16a28.82,28.82,0,0,1,.31,3.95" transform="translate(108.88)"/><path id="Path_4422-5" data-name="Path 4422" class="cls-10" d="M292.1,313.61l.22,3.12" transform="translate(108.88)"/><path id="Path_4423-5" data-name="Path 4423" class="cls-10" d="M300.48,313.08V317" transform="translate(108.88)"/><path id="Path_4424-5" data-name="Path 4424" class="cls-10" d="M306.06,313.08c-.23,1.33-.53,2.65-.89,3.95" transform="translate(108.88)"/><path id="Path_4425-5" data-name="Path 4425" class="cls-10" d="M310.64,314.07c-.25,1.43-.56,2.85-.93,4.25" transform="translate(108.88)"/></g><g id="Group_2-6" data-name="Group 2"><path id="Path_4412-6" data-name="Path 4412" class="cls-2" d="M477.68,254.88c0,.09-.11.19-.16.28s-.25.4-.28.43c-.18.27-.37.52-.56.78a31.26,31.26,0,0,1-2.15,2.58c-.41.43-.83.86-1.25,1.28l-.13.13,0,0c-.24.22-.48.44-.73.65a66.72,66.72,0,0,1-6.46,5l-1,.66q-.75-11.28-1.44-22.57c.35.31.71.61,1.08.91,2,1.67,4.16,3.24,6.28,4.78a75.5,75.5,0,0,0,6.45,4.25l.27.15A5.2,5.2,0,0,0,477.68,254.88Z" transform="translate(108.88)"/><path id="Path_4413-6" data-name="Path 4413" class="cls-6" d="M502.35,231.56l-1.09.75-1,.69c-2.45,1.7-5,3.32-7.34,5.2-1.63,1.31-3.11,2.84-4.62,4.31-.36.35-.72.7-1.09,1,0,0-.44.42-.44.42l-.24.22c-.87.8-1.75,1.58-2.69,2.29a17.73,17.73,0,0,1-1.85,1.26c.2-.13-.34.12-.64.26l-.11,0-.21-.12-.89-.5c-.49-.3-1-.63-1.45-.95-1-.69-2.1-1.27-3.11-2A83.68,83.68,0,0,1,464,235c-.39-.4-.78-.8-1.16-1.22-.09-1.86-.15-3.72-.25-5.58a3.8,3.8,0,0,1,1.52-3.36,12.75,12.75,0,0,1,4.56-2.33c9.58-2.59,19.22-3.22,27.87-1.49,5.45,1.43,5.71,1.71,5.75,6.5C502.34,228.83,502.34,230.19,502.35,231.56Z" transform="translate(108.88)"/><path id="Path_4414-6" data-name="Path 4414" class="cls-2" d="M502.93,261.64l-1.05-.37-.41-.14-.53-.2-.62-.25c-.54-.21-1.08-.44-1.62-.67q-1.67-.72-3.3-1.53a99,99,0,0,1-8.95-5.09c3.29-2.12,6.05-5.24,8.9-7.95l.65-.59c.31-.27.63-.54,1-.79,1.26-1,2.57-1.84,3.86-2.74l.46-.32,1.07-.74c0,5,0,10.07.23,15.11C502.66,257.47,502.77,259.56,502.93,261.64Z" transform="translate(108.88)"/><path id="Path_4415-6" data-name="Path 4415" class="cls-7" d="M503.84,270.88c-.34.13-.68.26-1,.41-5.42,2.32-9.64,6.9-14.67,10l-.9.53,0,0-.35.18a15.56,15.56,0,0,1-2.14.84l-.66.18-.67.09a12.44,12.44,0,0,1-2.2,0l-.41,0-1-.1c-.76-.09-1.53-.19-2.29-.31-1.53-.25-3-.55-4.54-1-.85-.22-1.7-.48-2.53-.77l-.53-.18-.08,0-1.23-.55a18.5,18.5,0,0,1-2-1.13l-.09-.06-.33-.22-.05-.05-.55-.49a20.56,20.56,0,0,0,0-2.83c0-.19,0-.38,0-.57l.93-.61c6-4,12.4-8.41,16.41-14.69a91.58,91.58,0,0,0,19.7,9.54l1.1.36C503.73,270,503.79,270.42,503.84,270.88Z" transform="translate(108.88)"/><path id="Path_4416-6" data-name="Path 4416" class="cls-8" d="M482.45,325.32c-1.38,2.52-2.59,5.14-3.76,7.81-2.64,6-5.21,12.13-8.94,17.54-5.87,8.54-13.76,11.47-23.25,9.54-7.6-1.54-12.3-7.39-13.4-16.13a33.72,33.72,0,0,1,3.51-19.21c3.56-7.39,8.36-13.86,13.11-20.36,4.38-6,9-11.77,13.1-18,.21-.32.41-.64.59-1,.29.18.58.36.88.53a29.19,29.19,0,0,0,5.35,2.26,41.86,41.86,0,0,0,6.33,1.49c1.66.94,3.4,1.81,4.15,3.73a19,19,0,0,1,.79,2.67c.32,9.09.26,18.21,1.31,27.23C482.29,324.1,482.37,324.71,482.45,325.32Z" transform="translate(108.88)"/><path id="Path_4417-6" data-name="Path 4417" class="cls-2" d="M504.91,304a37.83,37.83,0,0,1-5,3.73c-4,2.58-7.93,5.18-11.25,8.76l-.21.24-.09-1.42c-.42-7.05-.42-14.14-.71-21.21a16.21,16.21,0,0,1,2.58-5.68,55.09,55.09,0,0,0,7.51-5.26c1.46-1.16,2.93-2.31,4.48-3.33.39-.26.79-.51,1.19-.75l.54-.32.06,0,0,0,.07,0c.3-.15.59-.28.89-.41q1,5.42,2.38,10.74a34,34,0,0,1,1,5.92A10.42,10.42,0,0,1,504.91,304Z" transform="translate(108.88)"/><path id="Path_4418-6" data-name="Path 4418" class="cls-9" d="M432.86,340.46a8.89,8.89,0,0,0,5.85,3.87,24.71,24.71,0,0,0,7,.16" transform="translate(108.88)"/><path id="Path_4419-6" data-name="Path 4419" class="cls-10" d="M469.52,222.62a13.42,13.42,0,0,0,.35,5" transform="translate(108.88)"/><path id="Path_4420-6" data-name="Path 4420" class="cls-10" d="M473.22,221.32l.22,4a5,5,0,0,0,.21,1.44" transform="translate(108.88)"/><path id="Path_4421-6" data-name="Path 4421" class="cls-10" d="M480.26,220.64a28.94,28.94,0,0,1,.31,4" transform="translate(108.88)"/><path id="Path_4422-6" data-name="Path 4422" class="cls-10" d="M476.53,221.09l.22,3.12" transform="translate(108.88)"/><path id="Path_4423-6" data-name="Path 4423" class="cls-10" d="M484.91,220.56v3.88" transform="translate(108.88)"/><path id="Path_4424-6" data-name="Path 4424" class="cls-10" d="M490.49,220.57c-.23,1.32-.53,2.64-.89,3.94" transform="translate(108.88)"/><path id="Path_4425-6" data-name="Path 4425" class="cls-10" d="M495.07,221.55q-.37,2.14-.93,4.26" transform="translate(108.88)"/></g><g id="Group_2-7" data-name="Group 2"><path id="Path_4412-7" data-name="Path 4412" class="cls-2" d="M528.8,50.37c0,.08-.11.19-.16.27l-.28.44c-.18.26-.37.52-.56.77a28.26,28.26,0,0,1-2.15,2.58c-.41.44-.83.86-1.25,1.28l-.13.13,0,0c-.24.22-.48.44-.73.65a66.72,66.72,0,0,1-6.46,5l-1,.66q-.75-11.28-1.44-22.57c.35.31.71.61,1.08.91,2,1.67,4.16,3.25,6.28,4.78a69.65,69.65,0,0,0,6.45,4.25c.09.06.18.1.27.15A5.35,5.35,0,0,0,528.8,50.37Z" transform="translate(108.88)"/><path id="Path_4413-7" data-name="Path 4413" class="cls-6" d="M553.47,27l-1.1.75-1,.7c-2.45,1.69-5,3.31-7.33,5.19-1.63,1.31-3.11,2.85-4.62,4.31l-1.09,1-.44.43-.24.21c-.87.8-1.76,1.58-2.69,2.29a17.73,17.73,0,0,1-1.85,1.26c.2-.13-.34.13-.64.26l-.11,0-.21-.12c-.29-.17-.6-.32-.89-.5-.5-.3-1-.63-1.45-.95-1-.69-2.1-1.27-3.11-2a84.48,84.48,0,0,1-11.53-9.47c-.39-.4-.78-.8-1.16-1.21-.09-1.86-.15-3.73-.25-5.58a3.78,3.78,0,0,1,1.52-3.36A12.67,12.67,0,0,1,519.82,18c9.58-2.59,19.22-3.23,27.87-1.5,5.45,1.44,5.71,1.71,5.75,6.5C553.46,24.31,553.46,25.68,553.47,27Z" transform="translate(108.88)"/><path id="Path_4414-7" data-name="Path 4414" class="cls-2" d="M554,57.12l-1-.36-.4-.15-.53-.19s-.62-.25-.62-.25c-.54-.22-1.08-.44-1.62-.68q-1.67-.72-3.3-1.53a96.63,96.63,0,0,1-8.95-5.09c3.29-2.12,6-5.23,8.9-7.95l.65-.59c.31-.27.63-.54,1-.79,1.25-1,2.57-1.84,3.86-2.74l.46-.32,1.07-.74c0,5,0,10.08.23,15.12Q553.82,54,554,57.12Z" transform="translate(108.88)"/><path id="Path_4415-7" data-name="Path 4415" class="cls-7" d="M555,66.37c-.34.12-.68.26-1,.4-5.42,2.32-9.64,6.9-14.67,10l-.9.53,0,0-.35.18a14.38,14.38,0,0,1-2.14.84l-.66.18-.67.1a12.43,12.43,0,0,1-2.2,0l-.41,0-.95-.11c-.77-.09-1.53-.19-2.29-.31-1.53-.25-3-.55-4.54-1-.85-.22-1.7-.47-2.53-.76l-.53-.19-.08,0c-.41-.17-.82-.35-1.23-.55a18.5,18.5,0,0,1-2-1.13l-.09,0-.33-.23,0,0-.55-.48a20.71,20.71,0,0,0,0-2.84l0-.57.93-.61c6-4,12.4-8.41,16.41-14.69a91.58,91.58,0,0,0,19.7,9.54c.37.12.73.25,1.1.36C554.85,65.44,554.91,65.9,555,66.37Z" transform="translate(108.88)"/><path id="Path_4416-7" data-name="Path 4416" class="cls-8" d="M533.57,120.8c-1.38,2.52-2.59,5.15-3.76,7.81-2.64,6-5.21,12.14-8.94,17.54-5.87,8.54-13.76,11.47-23.25,9.55-7.6-1.55-12.3-7.4-13.4-16.13a33.74,33.74,0,0,1,3.51-19.22c3.56-7.39,8.35-13.85,13.11-20.35,4.38-6,9-11.78,13.1-18,.21-.32.41-.64.59-1,.29.18.58.36.88.53a28.52,28.52,0,0,0,5.35,2.26,41.86,41.86,0,0,0,6.33,1.49c1.66.94,3.4,1.81,4.15,3.73a18.77,18.77,0,0,1,.79,2.68c.32,9.09.26,18.2,1.31,27.22C533.41,119.58,533.49,120.19,533.57,120.8Z" transform="translate(108.88)"/><path id="Path_4417-7" data-name="Path 4417" class="cls-2" d="M556,99.46a37,37,0,0,1-5,3.73c-4,2.58-7.93,5.18-11.25,8.77l-.21.23-.09-1.41c-.42-7.06-.42-14.15-.71-21.22a16.45,16.45,0,0,1,2.57-5.68,54.57,54.57,0,0,0,7.52-5.26c1.46-1.16,2.93-2.31,4.48-3.33.39-.26.79-.51,1.19-.75l.54-.31.06,0,0,0,.07,0,.89-.41q1,5.42,2.37,10.75a32.77,32.77,0,0,1,1,5.92A10.42,10.42,0,0,1,556,99.46Z" transform="translate(108.88)"/><path id="Path_4418-7" data-name="Path 4418" class="cls-9" d="M484,135.94a8.91,8.91,0,0,0,5.85,3.88,24.71,24.71,0,0,0,7,.15" transform="translate(108.88)"/><path id="Path_4419-7" data-name="Path 4419" class="cls-10" d="M520.64,18.1a13.41,13.41,0,0,0,.35,5" transform="translate(108.88)"/><path id="Path_4420-7" data-name="Path 4420" class="cls-10" d="M524.34,16.81l.21,4a5.34,5.34,0,0,0,.22,1.44" transform="translate(108.88)"/><path id="Path_4421-7" data-name="Path 4421" class="cls-10" d="M531.38,16.12a30.77,30.77,0,0,1,.31,3.95" transform="translate(108.88)"/><path id="Path_4422-7" data-name="Path 4422" class="cls-10" d="M527.65,16.58l.22,3.11" transform="translate(108.88)"/><path id="Path_4423-7" data-name="Path 4423" class="cls-10" d="M536,16v3.88" transform="translate(108.88)"/><path id="Path_4424-7" data-name="Path 4424" class="cls-10" d="M541.61,16.05c-.24,1.33-.53,2.64-.89,3.94" transform="translate(108.88)"/><path id="Path_4425-7" data-name="Path 4425" class="cls-10" d="M546.19,17c-.25,1.42-.56,2.84-.93,4.25" transform="translate(108.88)"/></g><g id="Group_2-8" data-name="Group 2"><path id="Path_4412-8" data-name="Path 4412" class="cls-2" d="M629.54,162.9a2.61,2.61,0,0,1-.17.28c-.08.14-.25.4-.28.44-.18.26-.36.52-.55.77a28.1,28.1,0,0,1-2.16,2.58c-.4.43-.82.86-1.24,1.28l-.14.13,0,0-.72.65a66.72,66.72,0,0,1-6.46,5l-1,.66q-.75-11.28-1.45-22.57l1.08.91c2,1.67,4.16,3.25,6.28,4.78a71.89,71.89,0,0,0,6.46,4.25,2.34,2.34,0,0,0,.27.15A3.17,3.17,0,0,0,629.54,162.9Z" transform="translate(108.88)"/><path id="Path_4413-8" data-name="Path 4413" class="cls-6" d="M654.2,139.58l-1.09.75-1,.7c-2.45,1.69-5,3.31-7.34,5.19-1.63,1.31-3.11,2.85-4.62,4.31l-1.08,1-.45.43-.23.21c-.87.8-1.76,1.58-2.69,2.29a19,19,0,0,1-1.86,1.26c.2-.13-.34.13-.64.26l-.1,0-.21-.12-.9-.5c-.49-.3-1-.63-1.45-1-1-.69-2.1-1.27-3.1-2A84,84,0,0,1,615.88,143c-.39-.4-.77-.8-1.15-1.21-.1-1.86-.16-3.73-.26-5.59a3.81,3.81,0,0,1,1.53-3.36,12.78,12.78,0,0,1,4.55-2.33c9.58-2.58,19.23-3.22,27.88-1.49,5.44,1.43,5.7,1.71,5.75,6.5C654.19,136.85,654.2,138.22,654.2,139.58Z" transform="translate(108.88)"/><path id="Path_4414-8" data-name="Path 4414" class="cls-2" d="M654.78,169.66l-1-.36-.4-.15-.53-.2-.63-.24-1.61-.68c-1.12-.48-2.22-1-3.31-1.53a99,99,0,0,1-9-5.09c3.29-2.12,6.05-5.23,8.91-7.95,0,0,.49-.46.65-.59s.62-.54.95-.79c1.26-1,2.58-1.84,3.87-2.74l.46-.32,1.06-.74c0,5,0,10.08.23,15.11Q654.55,166.54,654.78,169.66Z" transform="translate(108.88)"/><path id="Path_4415-8" data-name="Path 4415" class="cls-7" d="M655.7,178.91c-.35.12-.69.26-1,.4-5.43,2.32-9.65,6.9-14.67,10l-.91.53,0,0-.36.18a14,14,0,0,1-2.14.84l-.66.18-.67.09a12.44,12.44,0,0,1-2.2,0l-.4,0-.95-.1c-.77-.09-1.54-.19-2.3-.31-1.52-.25-3-.55-4.53-1-.85-.22-1.7-.47-2.54-.76l-.53-.19-.07,0c-.42-.18-.83-.35-1.23-.55a17.76,17.76,0,0,1-2-1.13l-.08,0-.33-.23-.06,0-.54-.49a20.57,20.57,0,0,0,0-2.83c0-.19,0-.38,0-.57l.93-.61c6-4,12.4-8.41,16.41-14.69a91.43,91.43,0,0,0,19.71,9.54c.36.12.73.25,1.1.36C655.58,178,655.64,178.44,655.7,178.91Z" transform="translate(108.88)"/><path id="Path_4416-8" data-name="Path 4416" class="cls-8" d="M634.3,233.34c-1.37,2.52-2.59,5.15-3.75,7.81-2.65,6-5.22,12.14-8.94,17.54-5.88,8.54-13.77,11.47-23.25,9.54-7.6-1.54-12.31-7.39-13.41-16.12a33.82,33.82,0,0,1,3.51-19.22c3.56-7.39,8.36-13.85,13.12-20.35,4.37-6,9-11.78,13.09-18q.32-.48.6-1l.87.53a29.79,29.79,0,0,0,5.35,2.26,42.15,42.15,0,0,0,6.33,1.49c1.67.94,3.41,1.81,4.15,3.73a17.56,17.56,0,0,1,.79,2.68c.32,9.09.27,18.2,1.31,27.22C634.14,232.12,634.22,232.73,634.3,233.34Z" transform="translate(108.88)"/><path id="Path_4417-8" data-name="Path 4417" class="cls-2" d="M656.77,212a38.26,38.26,0,0,1-5,3.73c-4,2.58-7.93,5.18-11.25,8.76-.08.08-.14.17-.22.24,0-.47-.06-.94-.08-1.42-.42-7.05-.43-14.14-.72-21.21a16.48,16.48,0,0,1,2.58-5.68,54.48,54.48,0,0,0,7.51-5.26c1.47-1.16,2.94-2.31,4.48-3.33.4-.26.79-.51,1.2-.75l.53-.32.06,0,0,0,.08,0c.29-.15.59-.28.88-.41.65,3.61,1.43,7.19,2.38,10.75a33.7,33.7,0,0,1,1,5.91A10.41,10.41,0,0,1,656.77,212Z" transform="translate(108.88)"/><path id="Path_4418-8" data-name="Path 4418" class="cls-9" d="M584.71,248.48a9,9,0,0,0,5.86,3.88,25.06,25.06,0,0,0,7,.15" transform="translate(108.88)"/><path id="Path_4419-8" data-name="Path 4419" class="cls-10" d="M621.37,130.64a13.22,13.22,0,0,0,.36,5" transform="translate(108.88)"/><path id="Path_4420-8" data-name="Path 4420" class="cls-10" d="M625.08,129.34l.21,4a4.66,4.66,0,0,0,.22,1.44" transform="translate(108.88)"/><path id="Path_4421-8" data-name="Path 4421" class="cls-10" d="M632.12,128.66a29.06,29.06,0,0,1,.3,4" transform="translate(108.88)"/><path id="Path_4422-8" data-name="Path 4422" class="cls-10" d="M628.38,129.12l.22,3.11" transform="translate(108.88)"/><path id="Path_4423-8" data-name="Path 4423" class="cls-10" d="M636.76,128.58v3.88" transform="translate(108.88)"/><path id="Path_4424-8" data-name="Path 4424" class="cls-10" d="M642.34,128.59c-.23,1.32-.53,2.64-.88,3.94" transform="translate(108.88)"/><path id="Path_4425-8" data-name="Path 4425" class="cls-10" d="M646.92,129.57q-.37,2.15-.93,4.26" transform="translate(108.88)"/></g><g id="Group_2-9" data-name="Group 2"><path id="Path_4412-9" data-name="Path 4412" class="cls-2" d="M598,348.49c0,.08-.11.19-.16.27l-.28.44c-.18.26-.37.52-.56.77a29.68,29.68,0,0,1-2.15,2.58c-.41.44-.83.86-1.25,1.28l-.13.13,0,0c-.24.22-.48.44-.73.65a66.72,66.72,0,0,1-6.46,5l-1,.66q-.75-11.28-1.44-22.57c.36.31.71.61,1.08.91,2,1.67,4.16,3.25,6.28,4.78a71,71,0,0,0,6.45,4.25l.27.15A5.35,5.35,0,0,0,598,348.49Z" transform="translate(108.88)"/><path id="Path_4413-9" data-name="Path 4413" class="cls-6" d="M622.63,325.16l-1.09.75-1,.7c-2.45,1.69-5,3.31-7.34,5.19-1.63,1.31-3.11,2.85-4.62,4.31-.36.35-.72.7-1.09,1,0,.05-.44.43-.44.43l-.24.21c-.87.8-1.75,1.58-2.69,2.29a17.73,17.73,0,0,1-1.85,1.26c.2-.13-.34.13-.64.26l-.11,0-.21-.12-.89-.5c-.49-.3-1-.63-1.45-.95-1-.69-2.1-1.27-3.11-2a84.48,84.48,0,0,1-11.53-9.47c-.39-.4-.78-.8-1.16-1.21-.09-1.86-.15-3.73-.25-5.58a3.81,3.81,0,0,1,1.52-3.37,12.91,12.91,0,0,1,4.56-2.33c9.58-2.58,19.22-3.22,27.88-1.49,5.44,1.43,5.7,1.71,5.74,6.5C622.62,322.43,622.62,323.8,622.63,325.16Z" transform="translate(108.88)"/><path id="Path_4414-9" data-name="Path 4414" class="cls-2" d="M623.21,355.24l-1.05-.36-.41-.15-.53-.2-.62-.24c-.54-.22-1.08-.44-1.62-.68q-1.66-.72-3.3-1.53a99,99,0,0,1-8.95-5.09c3.29-2.12,6-5.23,8.9-7.95l.65-.59c.31-.27.63-.54,1-.79,1.26-1,2.57-1.84,3.86-2.74l.46-.32,1.07-.74c0,5,0,10.08.23,15.11C622.94,351.07,623.05,353.16,623.21,355.24Z" transform="translate(108.88)"/><path id="Path_4415-9" data-name="Path 4415" class="cls-7" d="M624.12,364.49c-.34.12-.68.26-1,.4-5.42,2.32-9.64,6.9-14.67,10l-.9.53,0,0-.35.18a14.38,14.38,0,0,1-2.14.84l-.66.18c-.19,0-.58.09-.67.09a12.44,12.44,0,0,1-2.2,0l-.41,0-1-.1c-.76-.09-1.53-.19-2.29-.31-1.53-.25-3-.55-4.54-.95-.85-.22-1.7-.47-2.53-.76l-.53-.19-.08,0c-.41-.18-.82-.35-1.23-.55a18.5,18.5,0,0,1-2-1.13l-.09,0-.33-.23-.05-.05-.55-.48a20.71,20.71,0,0,0,0-2.84c0-.19,0-.38,0-.57l.93-.61c6-4,12.4-8.41,16.41-14.69a91.58,91.58,0,0,0,19.7,9.54l1.1.36C624,363.56,624.07,364,624.12,364.49Z" transform="translate(108.88)"/><path id="Path_4416-9" data-name="Path 4416" class="cls-8" d="M602.73,418.92c-1.38,2.52-2.59,5.15-3.76,7.81-2.64,6-5.21,12.14-8.94,17.54-5.87,8.54-13.76,11.47-23.25,9.54-7.6-1.54-12.3-7.39-13.4-16.12a33.74,33.74,0,0,1,3.51-19.22c3.56-7.39,8.36-13.85,13.11-20.35,4.38-6,9-11.78,13.1-18,.21-.32.41-.64.59-1,.29.18.58.36.88.53a29.19,29.19,0,0,0,5.35,2.26,41.86,41.86,0,0,0,6.33,1.49c1.66.94,3.4,1.81,4.15,3.73a18.77,18.77,0,0,1,.79,2.68c.32,9.09.26,18.2,1.31,27.22C602.57,417.7,602.65,418.31,602.73,418.92Z" transform="translate(108.88)"/><path id="Path_4417-9" data-name="Path 4417" class="cls-2" d="M625.19,397.58a37,37,0,0,1-5,3.73c-4,2.58-7.93,5.18-11.25,8.77l-.21.23-.09-1.42c-.42-7.05-.42-14.14-.71-21.21a16.29,16.29,0,0,1,2.58-5.68,55.09,55.09,0,0,0,7.51-5.26c1.46-1.16,2.93-2.31,4.48-3.33.39-.26.79-.51,1.19-.75l.54-.31.06,0,0,0,.07,0,.89-.41q1,5.41,2.38,10.75a33.7,33.7,0,0,1,1,5.91A10.42,10.42,0,0,1,625.19,397.58Z" transform="translate(108.88)"/><path id="Path_4418-9" data-name="Path 4418" class="cls-9" d="M553.14,434.06a8.94,8.94,0,0,0,5.85,3.88,25.08,25.08,0,0,0,7,.15" transform="translate(108.88)"/><path id="Path_4419-9" data-name="Path 4419" class="cls-10" d="M589.8,316.22a13.42,13.42,0,0,0,.35,5" transform="translate(108.88)"/><path id="Path_4420-9" data-name="Path 4420" class="cls-10" d="M593.5,314.92l.22,4a5,5,0,0,0,.21,1.44" transform="translate(108.88)"/><path id="Path_4421-9" data-name="Path 4421" class="cls-10" d="M600.54,314.24a29.07,29.07,0,0,1,.31,3.95" transform="translate(108.88)"/><path id="Path_4422-9" data-name="Path 4422" class="cls-10" d="M596.81,314.7l.22,3.11" transform="translate(108.88)"/><path id="Path_4423-9" data-name="Path 4423" class="cls-10" d="M605.19,314.16V318" transform="translate(108.88)"/><path id="Path_4424-9" data-name="Path 4424" class="cls-10" d="M610.77,314.17c-.23,1.33-.53,2.64-.89,3.94" transform="translate(108.88)"/><path id="Path_4425-9" data-name="Path 4425" class="cls-10" d="M615.35,315.15q-.37,2.14-.93,4.26" transform="translate(108.88)"/></g><g id="Group_2-10" data-name="Group 2"><path id="Path_4412-10" data-name="Path 4412" class="cls-2" d="M42.17,315.48l-.16.28c-.09.13-.26.4-.29.43l-.55.78A31.26,31.26,0,0,1,39,319.55c-.41.43-.83.85-1.25,1.27l-.13.13,0,0c-.24.23-.49.44-.73.66a68.35,68.35,0,0,1-6.46,5l-1,.65Q28.7,316,28,304.7l1.09.91c2,1.67,4.16,3.24,6.27,4.78a75.66,75.66,0,0,0,6.46,4.25l.27.15A3.25,3.25,0,0,0,42.17,315.48Z" transform="translate(108.88)"/><path id="Path_4413-10" data-name="Path 4413" class="cls-6" d="M66.83,292.16l-1.09.75-1,.69c-2.45,1.7-5,3.32-7.34,5.2-1.63,1.3-3.11,2.84-4.62,4.3l-1.08,1-.45.42-.23.22c-.87.8-1.76,1.57-2.69,2.29a18.86,18.86,0,0,1-1.85,1.26c.2-.13-.35.12-.64.26l-.11,0-.21-.11c-.3-.17-.6-.33-.89-.51-.5-.29-1-.62-1.46-.94-1-.69-2.09-1.28-3.1-2a84.43,84.43,0,0,1-11.54-9.47c-.39-.39-.77-.8-1.15-1.21-.09-1.86-.16-3.72-.25-5.58a3.77,3.77,0,0,1,1.52-3.36,12.59,12.59,0,0,1,4.56-2.33c9.57-2.59,19.22-3.23,27.87-1.49,5.44,1.43,5.7,1.71,5.75,6.49C66.82,289.43,66.83,290.79,66.83,292.16Z" transform="translate(108.88)"/><path id="Path_4414-10" data-name="Path 4414" class="cls-2" d="M67.41,322.24l-1-.37-.4-.14-.53-.2-.62-.25c-.55-.21-1.08-.44-1.62-.67-1.12-.48-2.22-1-3.31-1.53a100.36,100.36,0,0,1-9-5.09c3.29-2.12,6.06-5.24,8.91-7.95l.65-.59c.31-.28.63-.54,1-.8,1.25-.95,2.57-1.83,3.86-2.74l.46-.32,1.06-.74c0,5,0,10.08.24,15.12C67.14,318.07,67.26,320.16,67.41,322.24Z" transform="translate(108.88)"/><path id="Path_4415-10" data-name="Path 4415" class="cls-7" d="M68.33,331.48c-.34.13-.68.26-1,.41-5.42,2.32-9.65,6.9-14.67,10-.3.18-.61.34-.9.53l0,0-.36.18a16.38,16.38,0,0,1-2.14.84l-.66.17-.67.1a12.32,12.32,0,0,1-2.19,0l-.41,0-1-.1c-.77-.09-1.54-.2-2.3-.32-1.52-.24-3-.55-4.53-.94-.85-.22-1.7-.48-2.54-.77l-.53-.19-.07,0c-.41-.17-.83-.35-1.23-.54a17.63,17.63,0,0,1-2-1.13l-.09-.06-.33-.22-.05-.05-.55-.49a20.56,20.56,0,0,0,0-2.83c0-.19,0-.38,0-.57l.94-.61c6-4,12.39-8.41,16.4-14.69a91.9,91.9,0,0,0,19.71,9.54l1.1.36C68.22,330.55,68.27,331,68.33,331.48Z" transform="translate(108.88)"/><path id="Path_4416-10" data-name="Path 4416" class="cls-8" d="M46.93,385.91c-1.37,2.52-2.58,5.15-3.75,7.82-2.65,6-5.21,12.13-8.94,17.54-5.88,8.53-13.77,11.46-23.25,9.54-7.6-1.54-12.31-7.4-13.4-16.13a33.7,33.7,0,0,1,3.5-19.21c3.56-7.39,8.36-13.86,13.12-20.36,4.38-6,9-11.77,13.09-18,.22-.32.41-.64.6-1,.29.19.58.37.88.54A29.4,29.4,0,0,0,34.12,349a44.55,44.55,0,0,0,6.34,1.49c1.66.93,3.4,1.81,4.14,3.73a17.78,17.78,0,0,1,.79,2.67c.32,9.09.27,18.21,1.31,27.23C46.78,384.7,46.85,385.31,46.93,385.91Z" transform="translate(108.88)"/><path id="Path_4417-10" data-name="Path 4417" class="cls-2" d="M69.4,364.58a38.73,38.73,0,0,1-5,3.73c-4,2.58-7.93,5.18-11.25,8.76l-.21.24-.09-1.42c-.42-7.05-.43-14.14-.72-21.22A16.56,16.56,0,0,1,54.68,349a52.24,52.24,0,0,0,7.51-5.26c1.47-1.15,2.94-2.31,4.49-3.33.39-.26.79-.51,1.19-.75l.54-.31,0,0,0,0,.07,0,.88-.4c.65,3.6,1.43,7.18,2.38,10.74a33.82,33.82,0,0,1,1,5.92A10.41,10.41,0,0,1,69.4,364.58Z" transform="translate(108.88)"/><path id="Path_4418-10" data-name="Path 4418" class="cls-9" d="M-2.66,401.05a8.93,8.93,0,0,0,5.86,3.88,24.69,24.69,0,0,0,7,.16" transform="translate(108.88)"/><path id="Path_4419-10" data-name="Path 4419" class="cls-10" d="M34,283.21a13.27,13.27,0,0,0,.36,5" transform="translate(108.88)"/><path id="Path_4420-10" data-name="Path 4420" class="cls-10" d="M37.71,281.92l.21,4a5,5,0,0,0,.22,1.44" transform="translate(108.88)"/><path id="Path_4421-10" data-name="Path 4421" class="cls-10" d="M44.75,281.24a30.49,30.49,0,0,1,.31,3.95" transform="translate(108.88)"/><path id="Path_4422-10" data-name="Path 4422" class="cls-10" d="M41,281.69l.23,3.12" transform="translate(108.88)"/><path id="Path_4423-10" data-name="Path 4423" class="cls-10" d="M49.4,281.16V285" transform="translate(108.88)"/><path id="Path_4424-10" data-name="Path 4424" class="cls-10" d="M55,281.16c-.23,1.33-.52,2.64-.88,3.94" transform="translate(108.88)"/><path id="Path_4425-10" data-name="Path 4425" class="cls-10" d="M59.56,282.15c-.26,1.43-.57,2.85-.94,4.25" transform="translate(108.88)"/></g><g id="Group_2-11" data-name="Group 2"><path id="Path_4412-11" data-name="Path 4412" class="cls-2" d="M-26.24,555.37a2.61,2.61,0,0,1-.17.28c-.08.14-.25.4-.28.44-.18.26-.36.52-.55.77a28.1,28.1,0,0,1-2.16,2.58c-.4.43-.83.86-1.25,1.28l-.13.13,0,0-.72.65a66.85,66.85,0,0,1-6.47,5l-1,.66q-.75-11.28-1.45-22.57l1.08.91c2,1.67,4.16,3.25,6.28,4.78a71.89,71.89,0,0,0,6.46,4.25,2.34,2.34,0,0,0,.27.15A3.17,3.17,0,0,0-26.24,555.37Z" transform="translate(108.88)"/><path id="Path_4413-11" data-name="Path 4413" class="cls-6" d="M-1.58,532.05l-1.09.75-1,.7c-2.45,1.69-5,3.31-7.34,5.19-1.63,1.31-3.11,2.85-4.62,4.31l-1.08,1-.45.43-.23.21c-.87.8-1.76,1.58-2.69,2.29A19,19,0,0,1-22,548.23c.2-.13-.34.12-.64.26l-.1,0-.21-.12-.9-.5c-.49-.3-1-.63-1.45-1-1-.69-2.1-1.27-3.11-2a84.48,84.48,0,0,1-11.53-9.47c-.39-.4-.77-.8-1.15-1.21-.1-1.86-.16-3.73-.26-5.59a3.81,3.81,0,0,1,1.53-3.36A12.78,12.78,0,0,1-35.23,523c9.58-2.58,19.23-3.22,27.88-1.49,5.44,1.43,5.7,1.71,5.75,6.5C-1.59,529.32-1.58,530.69-1.58,532.05Z" transform="translate(108.88)"/><path id="Path_4414-11" data-name="Path 4414" class="cls-2" d="M-1,562.13l-1-.36-.4-.15-.53-.2-.63-.24-1.61-.68c-1.12-.48-2.22-1-3.31-1.53a99,99,0,0,1-9-5.09c3.29-2.12,6.05-5.23,8.91-8,0,0,.49-.46.65-.59s.62-.54,1-.79c1.26-1,2.58-1.84,3.87-2.74l.46-.32,1.06-.74c0,5,0,10.08.23,15.11Q-1.23,559-1,562.13Z" transform="translate(108.88)"/><path id="Path_4415-11" data-name="Path 4415" class="cls-7" d="M-.08,571.38c-.35.12-.69.26-1,.4-5.43,2.32-9.65,6.9-14.67,10l-.91.53,0,0-.36.18a14,14,0,0,1-2.14.84l-.66.18-.67.09a12.44,12.44,0,0,1-2.2,0l-.4,0-.95-.1c-.77-.09-1.54-.19-2.3-.31-1.52-.25-3-.55-4.53-1-.85-.22-1.7-.47-2.54-.76l-.53-.19-.07,0c-.42-.18-.83-.35-1.23-.55a17.76,17.76,0,0,1-2-1.13l-.08-.06-.33-.22-.06-.05-.54-.49a22.27,22.27,0,0,0,0-2.83c0-.19,0-.38,0-.57l.93-.61c6-4,12.4-8.41,16.41-14.69a91.43,91.43,0,0,0,19.71,9.54c.36.12.73.25,1.1.36C-.2,570.45-.14,570.91-.08,571.38Z" transform="translate(108.88)"/><path id="Path_4416-11" data-name="Path 4416" class="cls-8" d="M-21.48,625.81c-1.37,2.52-2.59,5.15-3.75,7.81-2.65,6-5.22,12.13-8.94,17.54-5.88,8.54-13.77,11.47-23.25,9.54-7.6-1.54-12.31-7.39-13.41-16.12a33.82,33.82,0,0,1,3.51-19.22C-63.76,618-59,611.51-54.2,605c4.37-6,9-11.78,13.09-18q.31-.48.6-1l.87.53a29.79,29.79,0,0,0,5.35,2.26A42.15,42.15,0,0,0-28,590.35c1.66.94,3.41,1.81,4.15,3.73a17.56,17.56,0,0,1,.79,2.68c.32,9.08.27,18.2,1.31,27.22C-21.64,624.59-21.56,625.2-21.48,625.81Z" transform="translate(108.88)"/><path id="Path_4417-11" data-name="Path 4417" class="cls-2" d="M1,604.47a38.26,38.26,0,0,1-5,3.73c-4,2.58-7.93,5.18-11.25,8.76-.08.08-.14.17-.22.24,0-.47-.06-.94-.08-1.42-.42-7-.43-14.14-.72-21.21a16.39,16.39,0,0,1,2.58-5.68,54.48,54.48,0,0,0,7.51-5.26c1.47-1.16,2.94-2.31,4.48-3.33.4-.26.79-.51,1.19-.75l.54-.32.06,0,0,0,.08,0c.29-.15.59-.28.88-.41.65,3.61,1.43,7.19,2.38,10.74a34,34,0,0,1,1,5.92A10.41,10.41,0,0,1,1,604.47Z" transform="translate(108.88)"/><path id="Path_4418-11" data-name="Path 4418" class="cls-9" d="M-71.07,641a9,9,0,0,0,5.86,3.88,25,25,0,0,0,7,.15" transform="translate(108.88)"/><path id="Path_4419-11" data-name="Path 4419" class="cls-10" d="M-34.41,523.11a13.22,13.22,0,0,0,.36,5" transform="translate(108.88)"/><path id="Path_4420-11" data-name="Path 4420" class="cls-10" d="M-30.7,521.81l.21,4a4.66,4.66,0,0,0,.22,1.44" transform="translate(108.88)"/><path id="Path_4421-11" data-name="Path 4421" class="cls-10" d="M-23.66,521.13a29.06,29.06,0,0,1,.3,4" transform="translate(108.88)"/><path id="Path_4422-11" data-name="Path 4422" class="cls-10" d="M-27.4,521.59l.22,3.11" transform="translate(108.88)"/><path id="Path_4423-11" data-name="Path 4423" class="cls-10" d="M-19,521.05v3.88" transform="translate(108.88)"/><path id="Path_4424-11" data-name="Path 4424" class="cls-10" d="M-13.44,521.06c-.23,1.32-.53,2.64-.88,3.94" transform="translate(108.88)"/><path id="Path_4425-11" data-name="Path 4425" class="cls-10" d="M-8.86,522q-.37,2.15-.93,4.26" transform="translate(108.88)"/></g><g id="Group_2-12" data-name="Group 2"><path id="Path_4412-12" data-name="Path 4412" class="cls-2" d="M86.52,684.14l-.16.28-.29.44c-.18.26-.36.52-.55.77a29.68,29.68,0,0,1-2.15,2.58c-.41.43-.83.86-1.25,1.28l-.13.13,0,0-.73.65a66.72,66.72,0,0,1-6.46,5l-1,.66q-.75-11.28-1.45-22.57l1.09.91c2,1.67,4.16,3.25,6.27,4.78a73.34,73.34,0,0,0,6.46,4.25l.27.15A3.17,3.17,0,0,0,86.52,684.14Z" transform="translate(108.88)"/><path id="Path_4413-12" data-name="Path 4413" class="cls-6" d="M111.18,660.82l-1.09.75-1,.7c-2.45,1.69-5,3.31-7.34,5.19-1.63,1.31-3.11,2.85-4.62,4.31l-1.08,1-.45.43-.23.21c-.87.8-1.76,1.58-2.69,2.29A18.86,18.86,0,0,1,90.81,677c.2-.13-.35.12-.64.26l-.11,0-.21-.12-.89-.5c-.5-.3-1-.63-1.46-1-1-.69-2.09-1.27-3.1-2a85.18,85.18,0,0,1-11.54-9.47c-.39-.4-.77-.8-1.15-1.21-.09-1.86-.16-3.73-.25-5.59A3.78,3.78,0,0,1,73,654.05a12.74,12.74,0,0,1,4.56-2.33c9.57-2.58,19.22-3.22,27.87-1.49,5.44,1.43,5.7,1.71,5.75,6.5C111.17,658.09,111.18,659.46,111.18,660.82Z" transform="translate(108.88)"/><path id="Path_4414-12" data-name="Path 4414" class="cls-2" d="M111.76,690.9l-1.05-.36-.4-.15-.53-.2-.62-.24c-.55-.22-1.08-.45-1.62-.68-1.12-.48-2.22-1-3.31-1.53a100.36,100.36,0,0,1-9-5.09c3.29-2.12,6.06-5.23,8.91-7.95l.65-.59c.31-.27.63-.54,1-.79,1.25-1,2.57-1.84,3.86-2.74l.46-.32,1.06-.74c0,5,0,10.08.24,15.11Q111.54,687.78,111.76,690.9Z" transform="translate(108.88)"/><path id="Path_4415-12" data-name="Path 4415" class="cls-7" d="M112.68,700.15c-.34.12-.68.26-1,.4-5.42,2.32-9.65,6.9-14.67,10l-.9.53,0,0-.36.18a14,14,0,0,1-2.14.84c-.11,0-.48.13-.66.18l-.67.09a12.32,12.32,0,0,1-2.19,0l-.41,0-.95-.1c-.77-.09-1.54-.19-2.3-.31-1.52-.25-3-.55-4.53-1-.85-.22-1.7-.47-2.54-.76l-.53-.19-.07,0c-.41-.18-.83-.35-1.23-.55a17.63,17.63,0,0,1-2-1.13l-.09-.06-.33-.22,0-.05-.55-.49a20.57,20.57,0,0,0,0-2.83c0-.19,0-.38,0-.57l.94-.61c6-4,12.39-8.41,16.4-14.69a91.43,91.43,0,0,0,19.71,9.54c.36.12.73.25,1.1.36C112.57,699.22,112.62,699.68,112.68,700.15Z" transform="translate(108.88)"/><path id="Path_4416-12" data-name="Path 4416" class="cls-8" d="M91.28,754.58c-1.37,2.52-2.58,5.15-3.75,7.81-2.65,6-5.21,12.13-8.94,17.54-5.88,8.54-13.77,11.47-23.25,9.54-7.6-1.54-12.31-7.39-13.4-16.12a33.73,33.73,0,0,1,3.5-19.22c3.56-7.39,8.36-13.85,13.12-20.35,4.38-6,9-11.78,13.09-18,.22-.32.41-.64.6-1,.29.18.58.36.88.53a29.4,29.4,0,0,0,5.34,2.26,42,42,0,0,0,6.34,1.49c1.66.94,3.4,1.81,4.15,3.73a18.74,18.74,0,0,1,.78,2.68c.32,9.08.27,18.2,1.31,27.22C91.13,753.36,91.2,754,91.28,754.58Z" transform="translate(108.88)"/><path id="Path_4417-12" data-name="Path 4417" class="cls-2" d="M113.75,733.24a37,37,0,0,1-5,3.73c-4,2.58-7.93,5.18-11.25,8.76l-.21.24-.09-1.42c-.42-7-.43-14.14-.72-21.21A16.48,16.48,0,0,1,99,717.66a54.57,54.57,0,0,0,7.52-5.26c1.46-1.16,2.93-2.31,4.48-3.33.39-.26.79-.51,1.19-.75l.54-.32,0,0,0,0,.07,0c.29-.15.59-.28.88-.41.65,3.61,1.43,7.19,2.38,10.75a33.7,33.7,0,0,1,1,5.91A10.41,10.41,0,0,1,113.75,733.24Z" transform="translate(108.88)"/><path id="Path_4418-12" data-name="Path 4418" class="cls-9" d="M41.69,769.72a9,9,0,0,0,5.86,3.88,25.06,25.06,0,0,0,7,.15" transform="translate(108.88)"/><path id="Path_4419-12" data-name="Path 4419" class="cls-10" d="M78.35,651.88a13.22,13.22,0,0,0,.36,5" transform="translate(108.88)"/><path id="Path_4420-12" data-name="Path 4420" class="cls-10" d="M82.06,650.58l.21,4a5,5,0,0,0,.22,1.44" transform="translate(108.88)"/><path id="Path_4421-12" data-name="Path 4421" class="cls-10" d="M89.1,649.9a30.77,30.77,0,0,1,.31,4" transform="translate(108.88)"/><path id="Path_4422-12" data-name="Path 4422" class="cls-10" d="M85.36,650.36l.23,3.11" transform="translate(108.88)"/><path id="Path_4423-12" data-name="Path 4423" class="cls-10" d="M93.75,649.82v3.88" transform="translate(108.88)"/><path id="Path_4424-12" data-name="Path 4424" class="cls-10" d="M99.33,649.83c-.24,1.32-.53,2.64-.89,3.94" transform="translate(108.88)"/><path id="Path_4425-12" data-name="Path 4425" class="cls-10" d="M103.91,650.81c-.26,1.43-.57,2.85-.94,4.26" transform="translate(108.88)"/></g><g id="Group_2-13" data-name="Group 2"><path id="Path_4412-13" data-name="Path 4412" class="cls-2" d="M152.17,491l-.16.28-.29.43c-.17.26-.36.52-.55.78a31.26,31.26,0,0,1-2.15,2.58c-.41.43-.83.85-1.25,1.27l-.13.13s0,0,0,0l-.73.66a68.35,68.35,0,0,1-6.46,5l-1,.65q-.75-11.28-1.45-22.56c.36.3.72.61,1.09.9,2,1.68,4.16,3.25,6.28,4.79a74,74,0,0,0,6.45,4.25l.27.15A5.4,5.4,0,0,0,152.17,491Z" transform="translate(108.88)"/><path id="Path_4413-13" data-name="Path 4413" class="cls-6" d="M176.84,467.67l-1.1.74-1,.7c-2.45,1.7-5,3.32-7.33,5.19-1.63,1.31-3.11,2.85-4.62,4.31l-1.09,1.05-.44.42-.24.22c-.87.79-1.76,1.57-2.69,2.29a19.43,19.43,0,0,1-1.85,1.26c.2-.14-.34.12-.64.26l-.11,0-.21-.12c-.29-.16-.6-.32-.89-.5-.5-.3-1-.63-1.46-.95-1-.69-2.09-1.27-3.1-2a84.48,84.48,0,0,1-11.53-9.47c-.39-.4-.78-.8-1.16-1.21-.09-1.86-.15-3.72-.25-5.58a3.78,3.78,0,0,1,1.52-3.36,12.67,12.67,0,0,1,4.56-2.33c9.58-2.59,19.22-3.23,27.87-1.49,5.45,1.43,5.71,1.71,5.75,6.49C176.83,464.94,176.83,466.3,176.84,467.67Z" transform="translate(108.88)"/><path id="Path_4414-13" data-name="Path 4414" class="cls-2" d="M177.41,497.75l-1-.37-.4-.15-.53-.19-.62-.25-1.62-.67c-1.11-.49-2.21-1-3.31-1.54a97.69,97.69,0,0,1-8.94-5.08c3.29-2.12,6.05-5.24,8.9-8,0,0,.5-.45.65-.58.31-.28.63-.54,1-.8,1.25-1,2.57-1.83,3.86-2.74l.46-.32,1.07-.74c0,5,0,10.08.23,15.12Q177.19,494.62,177.41,497.75Z" transform="translate(108.88)"/><path id="Path_4415-13" data-name="Path 4415" class="cls-7" d="M178.33,507l-1,.4c-5.42,2.33-9.64,6.91-14.67,10-.3.19-.61.35-.9.54l0,0a4,4,0,0,1-.36.17,15,15,0,0,1-2.13.85l-.66.17-.68.1a12.32,12.32,0,0,1-2.19,0l-.41,0-.95-.1c-.77-.09-1.53-.2-2.3-.32-1.52-.24-3-.55-4.53-.94-.85-.23-1.7-.48-2.53-.77l-.53-.19-.08,0-1.23-.54a17.06,17.06,0,0,1-2-1.14l-.09-.05-.33-.23,0,0-.55-.49a20.56,20.56,0,0,0,0-2.83l0-.57.93-.62c6-4,12.39-8.41,16.41-14.69a91.58,91.58,0,0,0,19.7,9.54l1.1.37C178.22,506.06,178.27,506.53,178.33,507Z" transform="translate(108.88)"/><path id="Path_4416-13" data-name="Path 4416" class="cls-8" d="M156.94,561.42c-1.38,2.52-2.59,5.15-3.76,7.82-2.64,6-5.21,12.13-8.94,17.54-5.87,8.53-13.76,11.46-23.25,9.54-7.6-1.54-12.31-7.4-13.4-16.13A33.7,33.7,0,0,1,111.1,561c3.56-7.4,8.35-13.86,13.11-20.36,4.38-6,9-11.77,13.1-18,.21-.32.41-.64.59-1,.29.19.58.37.88.53a28.52,28.52,0,0,0,5.35,2.26,41.86,41.86,0,0,0,6.33,1.49c1.66.94,3.4,1.81,4.15,3.74a18.64,18.64,0,0,1,.79,2.67c.32,9.09.26,18.21,1.31,27.23C156.78,560.21,156.86,560.81,156.94,561.42Z" transform="translate(108.88)"/><path id="Path_4417-13" data-name="Path 4417" class="cls-2" d="M179.4,540.09a38.73,38.73,0,0,1-5,3.73c-4,2.57-7.93,5.17-11.25,8.76l-.21.24-.09-1.42c-.42-7.06-.42-14.15-.71-21.22a16.45,16.45,0,0,1,2.57-5.68,52.9,52.9,0,0,0,7.52-5.26c1.46-1.16,2.93-2.31,4.48-3.33.39-.26.79-.51,1.19-.75l.54-.31.06,0,0,0,.07,0,.89-.4q1,5.4,2.37,10.74a33.67,33.67,0,0,1,1,5.92A10.45,10.45,0,0,1,179.4,540.09Z" transform="translate(108.88)"/><path id="Path_4418-13" data-name="Path 4418" class="cls-9" d="M107.35,576.56a8.91,8.91,0,0,0,5.85,3.88,24.7,24.7,0,0,0,7,.16" transform="translate(108.88)"/><path id="Path_4419-13" data-name="Path 4419" class="cls-10" d="M144,458.72a13.27,13.27,0,0,0,.35,5" transform="translate(108.88)"/><path id="Path_4420-13" data-name="Path 4420" class="cls-10" d="M147.71,457.43l.21,4a5.27,5.27,0,0,0,.22,1.43" transform="translate(108.88)"/><path id="Path_4421-13" data-name="Path 4421" class="cls-10" d="M154.75,456.74a30.77,30.77,0,0,1,.31,3.95" transform="translate(108.88)"/><path id="Path_4422-13" data-name="Path 4422" class="cls-10" d="M151,457.2l.22,3.11" transform="translate(108.88)"/><path id="Path_4423-13" data-name="Path 4423" class="cls-10" d="M159.4,456.67v3.87" transform="translate(108.88)"/><path id="Path_4424-13" data-name="Path 4424" class="cls-10" d="M165,456.67c-.24,1.33-.53,2.64-.89,3.94" transform="translate(108.88)"/><path id="Path_4425-13" data-name="Path 4425" class="cls-10" d="M169.56,457.66c-.25,1.43-.56,2.84-.93,4.25" transform="translate(108.88)"/></g><g id="Group_2-14" data-name="Group 2"><path id="Path_4412-14" data-name="Path 4412" class="cls-2" d="M274.46,594.33l-.17.28L274,595l-.55.78a29.5,29.5,0,0,1-2.16,2.58c-.4.43-.82.85-1.24,1.27l-.14.13,0,0-.72.66a68.35,68.35,0,0,1-6.46,5l-1,.65q-.75-11.28-1.45-22.56l1.08.9c2.05,1.68,4.16,3.25,6.28,4.79a74.12,74.12,0,0,0,6.46,4.25l.27.15A3.25,3.25,0,0,0,274.46,594.33Z" transform="translate(108.88)"/><path id="Path_4413-14" data-name="Path 4413" class="cls-6" d="M299.12,571l-1.09.74-1,.7c-2.45,1.7-5,3.32-7.34,5.2-1.63,1.3-3.11,2.84-4.62,4.3L284,583l-.45.42-.23.22c-.87.8-1.76,1.57-2.69,2.29a19,19,0,0,1-1.86,1.26c.2-.13-.34.12-.64.26l-.1,0-.21-.12c-.3-.16-.6-.32-.9-.5-.49-.3-1-.62-1.45-.95-1-.68-2.1-1.27-3.1-2a84,84,0,0,1-11.54-9.47c-.39-.39-.77-.8-1.15-1.21-.1-1.86-.16-3.72-.26-5.58a3.8,3.8,0,0,1,1.53-3.36,12.62,12.62,0,0,1,4.55-2.33c9.58-2.59,19.23-3.23,27.88-1.49,5.44,1.43,5.7,1.71,5.75,6.49C299.11,568.28,299.12,569.64,299.12,571Z" transform="translate(108.88)"/><path id="Path_4414-14" data-name="Path 4414" class="cls-2" d="M299.7,601.09l-1.05-.37-.4-.14-.53-.2-.63-.25-1.61-.67c-1.12-.48-2.22-1-3.31-1.54a96.53,96.53,0,0,1-8.95-5.08c3.29-2.12,6-5.24,8.91-8,0,0,.49-.45.65-.58.31-.28.62-.54,1-.8,1.26-1,2.58-1.83,3.87-2.74l.46-.32,1.06-.74c0,5,0,10.08.23,15.12Q299.47,598,299.7,601.09Z" transform="translate(108.88)"/><path id="Path_4415-14" data-name="Path 4415" class="cls-7" d="M300.62,610.33c-.35.13-.69.26-1,.4-5.43,2.33-9.65,6.91-14.67,10-.3.19-.61.35-.91.54l0,0-.36.17a15.13,15.13,0,0,1-2.14.85l-.66.17-.67.1a12.44,12.44,0,0,1-2.2,0l-.4,0-.95-.1c-.77-.09-1.54-.2-2.3-.32-1.52-.24-3-.55-4.53-.94-.85-.23-1.7-.48-2.54-.77l-.53-.19-.07,0q-.63-.26-1.23-.54a16.44,16.44,0,0,1-2.05-1.14l-.08,0a3.88,3.88,0,0,1-.33-.23l-.06,0-.54-.49a20.56,20.56,0,0,0,0-2.83c0-.19,0-.38,0-.57l.93-.61c6-4,12.4-8.42,16.41-14.69a91.86,91.86,0,0,0,19.71,9.53l1.1.37C300.5,609.4,300.56,609.87,300.62,610.33Z" transform="translate(108.88)"/><path id="Path_4416-14" data-name="Path 4416" class="cls-8" d="M279.22,664.76c-1.37,2.52-2.59,5.15-3.75,7.82-2.65,6-5.22,12.13-8.94,17.54-5.88,8.53-13.77,11.46-23.25,9.54-7.6-1.54-12.31-7.4-13.41-16.13a33.79,33.79,0,0,1,3.51-19.21c3.56-7.4,8.36-13.86,13.12-20.36,4.37-6,9-11.77,13.09-18,.21-.32.41-.64.6-1,.29.19.58.37.87.53a28.41,28.41,0,0,0,5.35,2.26,43.44,43.44,0,0,0,6.33,1.5c1.67.93,3.41,1.81,4.15,3.73a17.44,17.44,0,0,1,.79,2.67c.32,9.09.27,18.21,1.31,27.23C279.06,663.55,279.14,664.16,279.22,664.76Z" transform="translate(108.88)"/><path id="Path_4417-14" data-name="Path 4417" class="cls-2" d="M301.69,643.43a40.14,40.14,0,0,1-5,3.73c-4,2.57-7.93,5.17-11.25,8.76l-.22.24c0-.47-.06-.95-.08-1.42-.42-7.06-.43-14.15-.72-21.22a16.48,16.48,0,0,1,2.58-5.68,52.81,52.81,0,0,0,7.51-5.26c1.47-1.16,2.94-2.31,4.48-3.33.4-.26.79-.51,1.19-.75l.54-.31.06,0,0,0,.08,0,.88-.4c.65,3.6,1.43,7.18,2.38,10.74a33.65,33.65,0,0,1,1,5.92A10.41,10.41,0,0,1,301.69,643.43Z" transform="translate(108.88)"/><path id="Path_4418-14" data-name="Path 4418" class="cls-9" d="M229.63,679.9a8.93,8.93,0,0,0,5.86,3.88,24.69,24.69,0,0,0,7,.16" transform="translate(108.88)"/><path id="Path_4419-14" data-name="Path 4419" class="cls-10" d="M266.29,562.06a13.27,13.27,0,0,0,.36,5" transform="translate(108.88)"/><path id="Path_4420-14" data-name="Path 4420" class="cls-10" d="M270,560.77l.21,4a4.59,4.59,0,0,0,.22,1.43" transform="translate(108.88)"/><path id="Path_4421-14" data-name="Path 4421" class="cls-10" d="M277,560.08a29.06,29.06,0,0,1,.3,3.95" transform="translate(108.88)"/><path id="Path_4422-14" data-name="Path 4422" class="cls-10" d="M273.3,560.54l.22,3.12" transform="translate(108.88)"/><path id="Path_4423-14" data-name="Path 4423" class="cls-10" d="M281.68,560v3.87" transform="translate(108.88)"/><path id="Path_4424-14" data-name="Path 4424" class="cls-10" d="M287.26,560c-.23,1.33-.53,2.64-.88,3.94" transform="translate(108.88)"/><path id="Path_4425-14" data-name="Path 4425" class="cls-10" d="M291.84,561c-.25,1.43-.56,2.84-.93,4.25" transform="translate(108.88)"/></g><g id="Group_2-15" data-name="Group 2"><path id="Path_4412-15" data-name="Path 4412" class="cls-2" d="M187.25,786.4c0,.09-.11.19-.16.28s-.25.4-.28.43c-.18.27-.37.52-.55.78a33.51,33.51,0,0,1-2.16,2.58c-.41.43-.83.86-1.25,1.27l-.13.14,0,0c-.24.22-.48.44-.73.65a66.72,66.72,0,0,1-6.46,5l-1,.66q-.75-11.28-1.44-22.57c.36.31.71.61,1.08.91,2,1.67,4.16,3.24,6.28,4.78a75.5,75.5,0,0,0,6.45,4.25l.27.15A5.2,5.2,0,0,0,187.25,786.4Z" transform="translate(108.88)"/><path id="Path_4413-15" data-name="Path 4413" class="cls-6" d="M211.92,763.08l-1.09.75-1,.69c-2.45,1.7-5,3.32-7.34,5.2-1.63,1.31-3.11,2.84-4.62,4.31-.36.35-.72.7-1.09,1,0,0-.44.42-.44.42l-.24.22c-.87.8-1.75,1.58-2.69,2.29a17.73,17.73,0,0,1-1.85,1.26c.2-.13-.34.12-.64.26l-.11,0-.2-.12-.9-.5c-.49-.3-1-.63-1.45-1-1-.69-2.1-1.27-3.11-2a83.68,83.68,0,0,1-11.53-9.46c-.39-.4-.78-.8-1.16-1.22-.09-1.86-.15-3.72-.25-5.58a3.78,3.78,0,0,1,1.53-3.36,12.62,12.62,0,0,1,4.55-2.33c9.58-2.59,19.23-3.22,27.88-1.49,5.44,1.43,5.7,1.71,5.74,6.5C211.91,760.35,211.91,761.71,211.92,763.08Z" transform="translate(108.88)"/><path id="Path_4414-15" data-name="Path 4414" class="cls-2" d="M212.5,793.16l-1.05-.37-.4-.14-.53-.2-.63-.25c-.54-.21-1.08-.44-1.62-.67q-1.67-.72-3.3-1.53a99,99,0,0,1-8.95-5.09c3.29-2.12,6-5.24,8.9-7.95l.65-.59c.31-.27.63-.54,1-.79,1.26-1,2.57-1.84,3.86-2.74l.46-.33,1.07-.73c0,5,0,10.07.23,15.11C212.23,789,212.34,791.08,212.5,793.16Z" transform="translate(108.88)"/><path id="Path_4415-15" data-name="Path 4415" class="cls-7" d="M213.41,802.4c-.34.13-.68.26-1,.41-5.42,2.32-9.64,6.9-14.67,10l-.9.53,0,0-.35.18a15.56,15.56,0,0,1-2.14.84l-.66.18-.67.09a12.44,12.44,0,0,1-2.2,0l-.41,0-1-.1c-.76-.09-1.53-.19-2.29-.32a44.05,44.05,0,0,1-4.54-.94c-.85-.22-1.7-.48-2.53-.77l-.53-.18-.08,0-1.23-.55a18.5,18.5,0,0,1-2-1.13l-.09-.06-.33-.22-.05-.05c-.18-.16-.37-.32-.54-.49a22.27,22.27,0,0,0,0-2.83c0-.19,0-.38,0-.57l.93-.61c6-4,12.4-8.41,16.41-14.69a91.58,91.58,0,0,0,19.7,9.54l1.11.36C213.3,801.47,213.36,801.94,213.41,802.4Z" transform="translate(108.88)"/><path id="Path_4416-15" data-name="Path 4416" class="cls-8" d="M192,856.84c-1.38,2.52-2.59,5.14-3.76,7.81-2.64,6-5.21,12.13-8.94,17.54-5.87,8.54-13.76,11.47-23.25,9.54-7.6-1.54-12.3-7.39-13.4-16.13a33.72,33.72,0,0,1,3.51-19.21c3.56-7.39,8.36-13.86,13.11-20.36,4.38-6,9-11.77,13.1-18,.21-.32.41-.64.59-1,.29.18.58.36.88.53a29.19,29.19,0,0,0,5.35,2.26,41.86,41.86,0,0,0,6.33,1.49c1.66.94,3.4,1.81,4.15,3.73a19,19,0,0,1,.79,2.67c.32,9.09.26,18.21,1.31,27.23C191.86,855.62,191.94,856.23,192,856.84Z" transform="translate(108.88)"/><path id="Path_4417-15" data-name="Path 4417" class="cls-2" d="M214.48,835.5a38.39,38.39,0,0,1-5,3.73c-4,2.58-7.93,5.18-11.26,8.76l-.21.24-.09-1.42c-.42-7-.42-14.14-.71-21.21a16.21,16.21,0,0,1,2.58-5.68,55.09,55.09,0,0,0,7.51-5.26c1.46-1.16,2.93-2.31,4.48-3.34.39-.26.79-.51,1.19-.74l.54-.32.06,0,0,0,.07,0c.3-.15.59-.28.89-.41q1,5.41,2.38,10.74a34,34,0,0,1,1,5.92A10.42,10.42,0,0,1,214.48,835.5Z" transform="translate(108.88)"/><path id="Path_4418-15" data-name="Path 4418" class="cls-9" d="M142.43,872a8.89,8.89,0,0,0,5.85,3.87,24.71,24.71,0,0,0,7,.16" transform="translate(108.88)"/><path id="Path_4419-15" data-name="Path 4419" class="cls-10" d="M179.09,754.14a13.42,13.42,0,0,0,.35,5" transform="translate(108.88)"/><path id="Path_4420-15" data-name="Path 4420" class="cls-10" d="M182.79,752.84l.22,4a4.7,4.7,0,0,0,.22,1.44" transform="translate(108.88)"/><path id="Path_4421-15" data-name="Path 4421" class="cls-10" d="M189.83,752.16a28.82,28.82,0,0,1,.31,4" transform="translate(108.88)"/><path id="Path_4422-15" data-name="Path 4422" class="cls-10" d="M186.1,752.61l.22,3.12" transform="translate(108.88)"/><path id="Path_4423-15" data-name="Path 4423" class="cls-10" d="M194.48,752.08V756" transform="translate(108.88)"/><path id="Path_4424-15" data-name="Path 4424" class="cls-10" d="M200.06,752.08c-.23,1.33-.53,2.65-.89,3.95" transform="translate(108.88)"/><path id="Path_4425-15" data-name="Path 4425" class="cls-10" d="M204.64,753.07c-.25,1.43-.56,2.85-.93,4.25" transform="translate(108.88)"/></g><g id="Group_2-16" data-name="Group 2"><path id="Path_4412-16" data-name="Path 4412" class="cls-2" d="M371.68,693.88c0,.09-.11.19-.16.28s-.25.4-.28.43c-.18.27-.37.52-.56.78a31.26,31.26,0,0,1-2.15,2.58c-.41.43-.83.86-1.25,1.28l-.13.13,0,0c-.24.22-.48.44-.73.65a66.72,66.72,0,0,1-6.46,5l-1,.66q-.75-11.28-1.44-22.57c.35.31.71.61,1.08.91,2,1.67,4.16,3.24,6.28,4.78a75.5,75.5,0,0,0,6.45,4.25l.27.15A5.2,5.2,0,0,0,371.68,693.88Z" transform="translate(108.88)"/><path id="Path_4413-16" data-name="Path 4413" class="cls-6" d="M396.35,670.56l-1.09.75-1,.69c-2.45,1.7-5,3.32-7.34,5.2-1.63,1.31-3.11,2.84-4.62,4.31-.36.35-.72.7-1.09,1,0,.05-.44.42-.44.42l-.24.22c-.87.8-1.75,1.58-2.69,2.29a17.73,17.73,0,0,1-1.85,1.26c.2-.13-.34.12-.64.26l-.11,0-.21-.12-.89-.5c-.49-.3-1-.63-1.45-1-1-.69-2.1-1.27-3.11-2A83.68,83.68,0,0,1,358,674c-.39-.4-.78-.8-1.16-1.22-.09-1.86-.15-3.72-.25-5.58a3.8,3.8,0,0,1,1.52-3.36,12.75,12.75,0,0,1,4.56-2.33c9.58-2.59,19.22-3.22,27.87-1.49,5.45,1.43,5.71,1.71,5.75,6.5C396.34,667.83,396.34,669.19,396.35,670.56Z" transform="translate(108.88)"/><path id="Path_4414-16" data-name="Path 4414" class="cls-2" d="M396.93,700.64l-1.05-.37-.41-.14-.53-.2-.62-.25c-.54-.21-1.08-.44-1.62-.67q-1.67-.72-3.3-1.53a99,99,0,0,1-8.95-5.09c3.29-2.12,6.05-5.24,8.9-7.95l.65-.59c.31-.27.63-.54,1-.79,1.26-1,2.57-1.84,3.86-2.74l.46-.32,1.07-.74c0,5,0,10.07.23,15.11C396.66,696.47,396.77,698.56,396.93,700.64Z" transform="translate(108.88)"/><path id="Path_4415-16" data-name="Path 4415" class="cls-7" d="M397.84,709.88c-.34.13-.68.26-1,.41-5.42,2.32-9.64,6.9-14.67,10l-.9.53,0,0-.35.18a15.56,15.56,0,0,1-2.14.84l-.66.18-.67.09a12.44,12.44,0,0,1-2.2,0l-.41,0-1-.1c-.76-.09-1.53-.19-2.29-.31-1.53-.25-3-.55-4.54-1-.85-.22-1.7-.48-2.53-.77l-.53-.18-.08,0-1.23-.55a18.5,18.5,0,0,1-2-1.13l-.09-.06-.33-.22s0,0-.05-.05l-.55-.49a20.56,20.56,0,0,0,0-2.83c0-.19,0-.38,0-.57l.93-.61c6-4,12.4-8.41,16.41-14.69a91.58,91.58,0,0,0,19.7,9.54l1.1.36C397.73,709,397.79,709.42,397.84,709.88Z" transform="translate(108.88)"/><path id="Path_4416-16" data-name="Path 4416" class="cls-8" d="M376.45,764.32c-1.38,2.52-2.59,5.14-3.76,7.81-2.64,6-5.21,12.13-8.94,17.54-5.87,8.54-13.76,11.47-23.25,9.54-7.6-1.54-12.3-7.39-13.4-16.13a33.72,33.72,0,0,1,3.51-19.21c3.56-7.39,8.36-13.86,13.11-20.36,4.38-6,9-11.77,13.1-18,.21-.32.41-.64.59-1,.29.18.58.36.88.53a29.19,29.19,0,0,0,5.35,2.26,41.86,41.86,0,0,0,6.33,1.49c1.66.94,3.4,1.81,4.15,3.73a19,19,0,0,1,.79,2.67c.32,9.09.26,18.21,1.31,27.23C376.29,763.1,376.37,763.71,376.45,764.32Z" transform="translate(108.88)"/><path id="Path_4417-16" data-name="Path 4417" class="cls-2" d="M398.91,743a37.83,37.83,0,0,1-5,3.73c-4,2.58-7.93,5.18-11.25,8.76l-.21.24-.09-1.42c-.42-7-.42-14.14-.71-21.21a16.21,16.21,0,0,1,2.58-5.68,55.09,55.09,0,0,0,7.51-5.26c1.46-1.16,2.93-2.31,4.48-3.33.39-.26.79-.51,1.19-.75l.54-.32.06,0,0,0,.07,0c.3-.15.59-.28.89-.41q1,5.41,2.38,10.74a34,34,0,0,1,1,5.92A10.42,10.42,0,0,1,398.91,743Z" transform="translate(108.88)"/><path id="Path_4418-16" data-name="Path 4418" class="cls-9" d="M326.86,779.46a8.89,8.89,0,0,0,5.85,3.87,24.71,24.71,0,0,0,7,.16" transform="translate(108.88)"/><path id="Path_4419-16" data-name="Path 4419" class="cls-10" d="M363.52,661.62a13.42,13.42,0,0,0,.35,5" transform="translate(108.88)"/><path id="Path_4420-16" data-name="Path 4420" class="cls-10" d="M367.22,660.32l.22,4a5,5,0,0,0,.21,1.44" transform="translate(108.88)"/><path id="Path_4421-16" data-name="Path 4421" class="cls-10" d="M374.26,659.64a28.94,28.94,0,0,1,.31,4" transform="translate(108.88)"/><path id="Path_4422-16" data-name="Path 4422" class="cls-10" d="M370.53,660.09l.22,3.12" transform="translate(108.88)"/><path id="Path_4423-16" data-name="Path 4423" class="cls-10" d="M378.91,659.56v3.88" transform="translate(108.88)"/><path id="Path_4424-16" data-name="Path 4424" class="cls-10" d="M384.49,659.57c-.23,1.32-.53,2.64-.89,3.94" transform="translate(108.88)"/><path id="Path_4425-16" data-name="Path 4425" class="cls-10" d="M389.07,660.55q-.37,2.15-.93,4.26" transform="translate(108.88)"/></g><g id="Group_2-17" data-name="Group 2"><path id="Path_4412-17" data-name="Path 4412" class="cls-2" d="M422.8,489.37c0,.08-.11.19-.16.27l-.28.44c-.18.26-.37.52-.56.77a28.26,28.26,0,0,1-2.15,2.58c-.41.44-.83.86-1.25,1.28l-.13.13,0,0c-.24.22-.48.44-.73.65a66.72,66.72,0,0,1-6.46,5l-1,.66q-.75-11.28-1.44-22.57c.35.31.71.61,1.08.91,2,1.67,4.16,3.25,6.28,4.78a69.65,69.65,0,0,0,6.45,4.25l.27.15A5.35,5.35,0,0,0,422.8,489.37Z" transform="translate(108.88)"/><path id="Path_4413-17" data-name="Path 4413" class="cls-6" d="M447.47,466l-1.1.75-1,.7c-2.45,1.69-5,3.31-7.33,5.19-1.63,1.31-3.11,2.85-4.62,4.31l-1.09,1-.44.43-.24.21c-.87.8-1.76,1.58-2.69,2.29a17.73,17.73,0,0,1-1.85,1.26c.2-.13-.34.13-.64.26l-.11,0-.21-.12c-.29-.17-.6-.32-.89-.5-.5-.3-1-.63-1.45-.95-1-.69-2.1-1.27-3.11-2a84.48,84.48,0,0,1-11.53-9.47c-.39-.4-.78-.8-1.16-1.21-.09-1.86-.15-3.73-.25-5.58a3.78,3.78,0,0,1,1.52-3.36,12.67,12.67,0,0,1,4.56-2.33c9.58-2.59,19.22-3.23,27.87-1.5,5.45,1.44,5.71,1.71,5.75,6.5C447.46,463.31,447.46,464.68,447.47,466Z" transform="translate(108.88)"/><path id="Path_4414-17" data-name="Path 4414" class="cls-2" d="M448,496.12l-1.05-.36-.4-.15-.53-.19s-.62-.25-.62-.25c-.54-.22-1.08-.44-1.62-.68q-1.67-.72-3.3-1.53a96.63,96.63,0,0,1-8.95-5.09c3.29-2.12,6.05-5.23,8.9-7.95l.65-.59c.31-.27.63-.54,1-.79,1.25-1,2.57-1.84,3.86-2.74l.46-.32,1.07-.74c0,5,0,10.08.23,15.12Q447.82,493,448,496.12Z" transform="translate(108.88)"/><path id="Path_4415-17" data-name="Path 4415" class="cls-7" d="M449,505.37c-.34.12-.68.26-1,.4-5.42,2.32-9.64,6.9-14.67,10l-.9.53,0,0-.35.18a14.38,14.38,0,0,1-2.14.84l-.66.18-.67.1a12.43,12.43,0,0,1-2.2,0l-.41,0-1-.11c-.77-.09-1.53-.19-2.29-.31-1.53-.25-3-.55-4.54-1-.85-.22-1.7-.47-2.53-.76l-.53-.19-.08,0c-.41-.17-.82-.35-1.23-.55a18.5,18.5,0,0,1-2-1.13l-.09-.05-.33-.23-.05,0-.55-.48a20.71,20.71,0,0,0,0-2.84l0-.57.93-.61c6-4,12.4-8.41,16.41-14.69a91.58,91.58,0,0,0,19.7,9.54c.37.12.73.25,1.1.36C448.85,504.44,448.91,504.9,449,505.37Z" transform="translate(108.88)"/><path id="Path_4416-17" data-name="Path 4416" class="cls-8" d="M427.57,559.8c-1.38,2.52-2.59,5.15-3.76,7.81-2.64,6-5.21,12.14-8.94,17.54-5.87,8.54-13.76,11.47-23.25,9.55-7.6-1.55-12.3-7.4-13.4-16.13a33.74,33.74,0,0,1,3.51-19.22c3.56-7.39,8.35-13.85,13.11-20.35,4.38-6,9-11.78,13.1-18,.21-.32.41-.64.59-1,.29.18.58.36.88.53a28.52,28.52,0,0,0,5.35,2.26,41.86,41.86,0,0,0,6.33,1.49c1.66.94,3.4,1.81,4.15,3.73a18.77,18.77,0,0,1,.79,2.68c.32,9.09.26,18.2,1.31,27.22C427.41,558.58,427.49,559.19,427.57,559.8Z" transform="translate(108.88)"/><path id="Path_4417-17" data-name="Path 4417" class="cls-2" d="M450,538.46a37,37,0,0,1-5,3.73c-4,2.58-7.93,5.18-11.25,8.77l-.21.23-.09-1.41c-.42-7.06-.42-14.15-.71-21.22a16.45,16.45,0,0,1,2.57-5.68,54.57,54.57,0,0,0,7.52-5.26c1.46-1.16,2.93-2.31,4.48-3.33.39-.26.79-.51,1.19-.75l.54-.31.06,0,0,0,.07,0,.89-.41q1,5.41,2.37,10.75a32.77,32.77,0,0,1,1.05,5.92A10.42,10.42,0,0,1,450,538.46Z" transform="translate(108.88)"/><path id="Path_4418-17" data-name="Path 4418" class="cls-9" d="M378,574.94a8.91,8.91,0,0,0,5.85,3.88,24.71,24.71,0,0,0,7,.15" transform="translate(108.88)"/><path id="Path_4419-17" data-name="Path 4419" class="cls-10" d="M414.64,457.1a13.41,13.41,0,0,0,.35,5" transform="translate(108.88)"/><path id="Path_4420-17" data-name="Path 4420" class="cls-10" d="M418.34,455.81l.21,4a5.34,5.34,0,0,0,.22,1.44" transform="translate(108.88)"/><path id="Path_4421-17" data-name="Path 4421" class="cls-10" d="M425.38,455.12a30.77,30.77,0,0,1,.31,3.95" transform="translate(108.88)"/><path id="Path_4422-17" data-name="Path 4422" class="cls-10" d="M421.65,455.58l.22,3.11" transform="translate(108.88)"/><path id="Path_4423-17" data-name="Path 4423" class="cls-10" d="M430,455v3.88" transform="translate(108.88)"/><path id="Path_4424-17" data-name="Path 4424" class="cls-10" d="M435.61,455.05c-.24,1.33-.53,2.64-.89,3.94" transform="translate(108.88)"/><path id="Path_4425-17" data-name="Path 4425" class="cls-10" d="M440.19,456c-.25,1.42-.56,2.84-.93,4.25" transform="translate(108.88)"/></g><g id="Group_2-18" data-name="Group 2"><path id="Path_4412-18" data-name="Path 4412" class="cls-2" d="M523.54,601.9a2.61,2.61,0,0,1-.17.28c-.08.14-.25.4-.28.44-.18.26-.36.52-.55.77a28.1,28.1,0,0,1-2.16,2.58c-.4.43-.82.86-1.24,1.28l-.14.13,0,0-.72.65a66.72,66.72,0,0,1-6.46,5l-1,.66q-.75-11.28-1.45-22.57l1.08.91c2.05,1.67,4.16,3.25,6.28,4.78a71.89,71.89,0,0,0,6.46,4.25,2.34,2.34,0,0,0,.27.15A3.17,3.17,0,0,0,523.54,601.9Z" transform="translate(108.88)"/><path id="Path_4413-18" data-name="Path 4413" class="cls-6" d="M548.2,578.58l-1.09.75-1,.7c-2.45,1.69-5,3.31-7.34,5.19-1.63,1.31-3.11,2.85-4.62,4.31l-1.08,1-.45.43-.23.21c-.87.8-1.76,1.58-2.69,2.29a19,19,0,0,1-1.86,1.26c.2-.13-.34.13-.64.26l-.1,0-.21-.12-.9-.5c-.49-.3-1-.63-1.45-1-1-.69-2.1-1.27-3.1-2A84,84,0,0,1,509.88,582c-.39-.4-.77-.8-1.15-1.21-.1-1.86-.16-3.73-.26-5.59a3.81,3.81,0,0,1,1.53-3.36,12.78,12.78,0,0,1,4.55-2.33c9.58-2.58,19.23-3.22,27.88-1.49,5.44,1.43,5.7,1.71,5.75,6.5C548.19,575.85,548.2,577.22,548.2,578.58Z" transform="translate(108.88)"/><path id="Path_4414-18" data-name="Path 4414" class="cls-2" d="M548.78,608.66l-1-.36-.4-.15-.53-.2-.63-.24-1.61-.68c-1.12-.48-2.22-1-3.31-1.53a99,99,0,0,1-9-5.09c3.29-2.12,6.05-5.23,8.91-7.95,0,0,.49-.46.65-.59s.62-.54.95-.79c1.26-1,2.58-1.84,3.87-2.74l.46-.32,1.06-.74c0,5,0,10.08.23,15.11Q548.55,605.54,548.78,608.66Z" transform="translate(108.88)"/><path id="Path_4415-18" data-name="Path 4415" class="cls-7" d="M549.7,617.91c-.35.12-.69.26-1,.4-5.43,2.32-9.65,6.9-14.67,10l-.91.53,0,0-.36.18a14,14,0,0,1-2.14.84c-.11,0-.48.13-.66.18l-.67.09a12.44,12.44,0,0,1-2.2,0l-.4,0-.95-.1c-.77-.09-1.54-.19-2.3-.31-1.52-.25-3-.55-4.53-1-.85-.22-1.7-.47-2.54-.76l-.53-.19-.07,0c-.42-.18-.83-.35-1.23-.55a17.76,17.76,0,0,1-2-1.13l-.08,0-.33-.23-.06-.05-.54-.49a20.57,20.57,0,0,0,0-2.83c0-.19,0-.38,0-.57l.93-.61c6-4,12.4-8.41,16.41-14.69a91.43,91.43,0,0,0,19.71,9.54c.36.12.73.25,1.1.36C549.58,617,549.64,617.44,549.7,617.91Z" transform="translate(108.88)"/><path id="Path_4416-18" data-name="Path 4416" class="cls-8" d="M528.3,672.34c-1.37,2.52-2.59,5.15-3.75,7.81-2.65,6.05-5.22,12.14-8.94,17.54-5.88,8.54-13.77,11.47-23.25,9.54-7.6-1.54-12.31-7.39-13.41-16.12a33.82,33.82,0,0,1,3.51-19.22c3.56-7.39,8.36-13.85,13.12-20.35,4.37-6,9-11.78,13.09-18q.31-.48.6-1l.87.53a29.79,29.79,0,0,0,5.35,2.26,42.15,42.15,0,0,0,6.33,1.49c1.67.94,3.41,1.81,4.15,3.73a17.56,17.56,0,0,1,.79,2.68c.32,9.09.27,18.2,1.31,27.22C528.14,671.12,528.22,671.73,528.3,672.34Z" transform="translate(108.88)"/><path id="Path_4417-18" data-name="Path 4417" class="cls-2" d="M550.77,651a38.26,38.26,0,0,1-5,3.73c-4,2.58-7.93,5.18-11.25,8.76-.08.08-.14.17-.22.24,0-.47-.06-.94-.08-1.42-.42-7-.43-14.14-.72-21.21a16.48,16.48,0,0,1,2.58-5.68,54.48,54.48,0,0,0,7.51-5.26c1.47-1.16,2.94-2.31,4.48-3.33.4-.26.79-.51,1.2-.75l.53-.32.06,0,0,0,.08,0c.29-.15.59-.28.88-.41.65,3.61,1.43,7.19,2.38,10.75a33.7,33.7,0,0,1,1,5.91A10.41,10.41,0,0,1,550.77,651Z" transform="translate(108.88)"/><path id="Path_4418-18" data-name="Path 4418" class="cls-9" d="M478.71,687.48a9,9,0,0,0,5.86,3.88,25.06,25.06,0,0,0,7,.15" transform="translate(108.88)"/><path id="Path_4419-18" data-name="Path 4419" class="cls-10" d="M515.37,569.64a13.22,13.22,0,0,0,.36,5" transform="translate(108.88)"/><path id="Path_4420-18" data-name="Path 4420" class="cls-10" d="M519.08,568.34l.21,4a4.66,4.66,0,0,0,.22,1.44" transform="translate(108.88)"/><path id="Path_4421-18" data-name="Path 4421" class="cls-10" d="M526.12,567.66a29.06,29.06,0,0,1,.3,4" transform="translate(108.88)"/><path id="Path_4422-18" data-name="Path 4422" class="cls-10" d="M522.38,568.12l.22,3.11" transform="translate(108.88)"/><path id="Path_4423-18" data-name="Path 4423" class="cls-10" d="M530.76,567.58v3.88" transform="translate(108.88)"/><path id="Path_4424-18" data-name="Path 4424" class="cls-10" d="M536.34,567.59c-.23,1.32-.53,2.64-.88,3.94" transform="translate(108.88)"/><path id="Path_4425-18" data-name="Path 4425" class="cls-10" d="M540.92,568.57q-.37,2.14-.93,4.26" transform="translate(108.88)"/></g><g id="Group_2-19" data-name="Group 2"><path id="Path_4412-19" data-name="Path 4412" class="cls-2" d="M492,787.49c0,.08-.11.19-.16.27l-.28.44c-.18.26-.37.52-.56.77a29.68,29.68,0,0,1-2.15,2.58c-.41.44-.83.86-1.25,1.28l-.13.13,0,0c-.24.22-.48.44-.73.65a66.72,66.72,0,0,1-6.46,5l-1,.66q-.75-11.28-1.44-22.57c.36.31.71.61,1.08.91,2,1.67,4.16,3.25,6.28,4.78a71,71,0,0,0,6.45,4.25c.09.06.18.1.27.15A5.35,5.35,0,0,0,492,787.49Z" transform="translate(108.88)"/><path id="Path_4413-19" data-name="Path 4413" class="cls-6" d="M516.63,764.16l-1.09.75-1,.7c-2.45,1.69-5,3.31-7.34,5.19-1.63,1.31-3.11,2.85-4.62,4.31-.36.35-.72.7-1.09,1,0,.05-.44.43-.44.43l-.24.21c-.87.8-1.75,1.58-2.69,2.29a17.73,17.73,0,0,1-1.85,1.26c.2-.13-.34.13-.64.26l-.11,0-.21-.12-.89-.5c-.49-.3-1-.63-1.45-1-1-.69-2.1-1.27-3.11-2a84.48,84.48,0,0,1-11.53-9.47c-.39-.4-.78-.8-1.16-1.21-.09-1.86-.15-3.73-.25-5.58a3.81,3.81,0,0,1,1.52-3.37,12.91,12.91,0,0,1,4.56-2.33c9.58-2.58,19.22-3.22,27.88-1.49,5.44,1.43,5.7,1.71,5.74,6.5C516.62,761.43,516.62,762.8,516.63,764.16Z" transform="translate(108.88)"/><path id="Path_4414-19" data-name="Path 4414" class="cls-2" d="M517.21,794.24l-1.05-.36-.41-.15-.53-.2-.62-.24c-.54-.22-1.08-.44-1.62-.68q-1.67-.72-3.3-1.53a99,99,0,0,1-8.95-5.09c3.29-2.12,6-5.23,8.9-8l.65-.59c.31-.27.63-.54,1-.79,1.26-1,2.57-1.84,3.86-2.74l.46-.32,1.07-.74c0,5,0,10.08.23,15.11C516.94,790.07,517.05,792.16,517.21,794.24Z" transform="translate(108.88)"/><path id="Path_4415-19" data-name="Path 4415" class="cls-7" d="M518.12,803.49c-.34.12-.68.26-1,.4-5.42,2.32-9.64,6.9-14.67,10l-.9.53,0,0-.35.18a14.38,14.38,0,0,1-2.14.84l-.66.18c-.19,0-.58.09-.67.09a12.44,12.44,0,0,1-2.2,0l-.41,0-.95-.1c-.76-.09-1.53-.19-2.29-.31-1.53-.25-3-.55-4.54-1-.85-.22-1.7-.47-2.53-.76l-.53-.19-.08,0c-.41-.18-.82-.35-1.23-.55a18.5,18.5,0,0,1-2-1.13l-.09-.05-.33-.23,0,0-.55-.48a20.71,20.71,0,0,0,0-2.84c0-.19,0-.38,0-.57l.93-.61c6-4,12.4-8.41,16.41-14.69a91.58,91.58,0,0,0,19.7,9.54l1.1.36C518,802.56,518.07,803,518.12,803.49Z" transform="translate(108.88)"/><path id="Path_4416-19" data-name="Path 4416" class="cls-8" d="M496.73,857.92c-1.38,2.52-2.59,5.15-3.76,7.81-2.64,6-5.21,12.14-8.94,17.54-5.87,8.54-13.76,11.47-23.25,9.54-7.6-1.54-12.3-7.39-13.4-16.12a33.74,33.74,0,0,1,3.51-19.22c3.56-7.39,8.36-13.85,13.11-20.35,4.38-6,9-11.78,13.1-18,.21-.32.41-.64.59-1,.29.18.58.36.88.53a29.19,29.19,0,0,0,5.35,2.26,41.86,41.86,0,0,0,6.33,1.49c1.66.94,3.4,1.81,4.15,3.73a18.77,18.77,0,0,1,.79,2.68c.32,9.09.26,18.2,1.31,27.22C496.57,856.7,496.65,857.31,496.73,857.92Z" transform="translate(108.88)"/><path id="Path_4417-19" data-name="Path 4417" class="cls-2" d="M519.19,836.58a37,37,0,0,1-5,3.73c-4,2.58-7.93,5.18-11.25,8.77l-.21.23-.09-1.42c-.42-7-.42-14.14-.71-21.21a16.29,16.29,0,0,1,2.58-5.68,55.09,55.09,0,0,0,7.51-5.26c1.46-1.16,2.93-2.31,4.48-3.33.39-.26.79-.51,1.19-.75l.54-.31.06,0,0,0,.07,0,.89-.41q1,5.42,2.38,10.75a33.7,33.7,0,0,1,1,5.91A10.42,10.42,0,0,1,519.19,836.58Z" transform="translate(108.88)"/><path id="Path_4418-19" data-name="Path 4418" class="cls-9" d="M447.14,873.06a8.94,8.94,0,0,0,5.85,3.88,25.08,25.08,0,0,0,7,.15" transform="translate(108.88)"/><path id="Path_4419-19" data-name="Path 4419" class="cls-10" d="M483.8,755.22a13.42,13.42,0,0,0,.35,5" transform="translate(108.88)"/><path id="Path_4420-19" data-name="Path 4420" class="cls-10" d="M487.5,753.92l.22,4a5,5,0,0,0,.21,1.44" transform="translate(108.88)"/><path id="Path_4421-19" data-name="Path 4421" class="cls-10" d="M494.54,753.24a29.07,29.07,0,0,1,.31,4" transform="translate(108.88)"/><path id="Path_4422-19" data-name="Path 4422" class="cls-10" d="M490.81,753.7l.22,3.11" transform="translate(108.88)"/><path id="Path_4423-19" data-name="Path 4423" class="cls-10" d="M499.19,753.16V757" transform="translate(108.88)"/><path id="Path_4424-19" data-name="Path 4424" class="cls-10" d="M504.77,753.17c-.23,1.33-.53,2.64-.89,3.94" transform="translate(108.88)"/><path id="Path_4425-19" data-name="Path 4425" class="cls-10" d="M509.35,754.15q-.37,2.15-.93,4.26" transform="translate(108.88)"/></g><g id="Group_2-20" data-name="Group 2"><path id="Path_4412-20" data-name="Path 4412" class="cls-2" d="M-63.83,754.48l-.16.28c-.09.13-.26.4-.29.43l-.55.78A31.26,31.26,0,0,1-67,758.55c-.41.43-.83.85-1.25,1.27l-.13.13,0,0c-.24.23-.49.44-.73.66a68.35,68.35,0,0,1-6.46,5l-1,.65Q-77.3,755-78,743.7l1.09.91c2,1.67,4.16,3.24,6.27,4.78a75.66,75.66,0,0,0,6.46,4.25l.27.15A3.25,3.25,0,0,0-63.83,754.48Z" transform="translate(108.88)"/><path id="Path_4413-20" data-name="Path 4413" class="cls-6" d="M-39.17,731.16l-1.09.75-1,.69c-2.45,1.7-5,3.32-7.34,5.2-1.63,1.3-3.11,2.84-4.62,4.3l-1.08,1-.45.42-.23.22c-.87.8-1.76,1.57-2.69,2.29a18.86,18.86,0,0,1-1.85,1.26c.2-.13-.35.12-.64.26l-.11,0-.21-.11c-.3-.17-.6-.33-.89-.51-.5-.29-1-.62-1.46-.94-1-.69-2.09-1.28-3.1-2a84.43,84.43,0,0,1-11.54-9.47c-.39-.39-.77-.8-1.15-1.21-.09-1.86-.16-3.72-.25-5.58a3.77,3.77,0,0,1,1.52-3.36,12.59,12.59,0,0,1,4.56-2.33c9.57-2.59,19.22-3.23,27.87-1.49,5.44,1.43,5.7,1.71,5.75,6.49C-39.18,728.43-39.17,729.79-39.17,731.16Z" transform="translate(108.88)"/><path id="Path_4414-20" data-name="Path 4414" class="cls-2" d="M-38.59,761.24l-1-.37-.4-.14-.53-.2-.62-.25c-.55-.21-1.08-.44-1.62-.67-1.12-.48-2.22-1-3.31-1.53a100.36,100.36,0,0,1-9-5.09c3.29-2.12,6.06-5.24,8.91-8l.65-.59c.31-.28.63-.54,1-.8,1.25-.95,2.57-1.83,3.86-2.74l.46-.32,1.06-.74c0,5,0,10.08.24,15.12C-38.86,757.07-38.74,759.16-38.59,761.24Z" transform="translate(108.88)"/><path id="Path_4415-20" data-name="Path 4415" class="cls-7" d="M-37.67,770.48c-.34.13-.68.26-1,.41-5.42,2.32-9.65,6.9-14.67,10-.3.18-.61.34-.9.53l0,0-.36.18a16.38,16.38,0,0,1-2.14.84l-.66.17-.67.1a12.32,12.32,0,0,1-2.19,0l-.41,0-1-.1c-.77-.09-1.54-.2-2.3-.32-1.52-.24-3-.55-4.53-.94-.85-.22-1.7-.48-2.54-.77l-.53-.19-.07,0c-.41-.17-.83-.35-1.23-.54a17.63,17.63,0,0,1-2-1.13l-.09-.06-.33-.22,0,0-.55-.49a20.56,20.56,0,0,0,0-2.83c0-.19,0-.38,0-.57l.94-.61c6-4,12.39-8.41,16.4-14.69a91.9,91.9,0,0,0,19.71,9.54l1.1.36C-37.78,769.55-37.73,770-37.67,770.48Z" transform="translate(108.88)"/><path id="Path_4416-20" data-name="Path 4416" class="cls-8" d="M-59.07,824.91c-1.37,2.52-2.58,5.15-3.75,7.82-2.65,6-5.21,12.13-8.94,17.54-5.88,8.53-13.77,11.46-23.25,9.54-7.6-1.54-12.31-7.4-13.4-16.13a33.7,33.7,0,0,1,3.5-19.21c3.56-7.39,8.36-13.86,13.12-20.36,4.38-6,9-11.77,13.09-18,.22-.32.41-.64.6-1,.29.19.58.37.88.54A29.4,29.4,0,0,0-71.88,788a44.55,44.55,0,0,0,6.34,1.49c1.66.93,3.4,1.81,4.14,3.73a17.78,17.78,0,0,1,.79,2.67c.32,9.09.27,18.21,1.31,27.23C-59.22,823.7-59.15,824.31-59.07,824.91Z" transform="translate(108.88)"/><path id="Path_4417-20" data-name="Path 4417" class="cls-2" d="M-36.6,803.58a38.73,38.73,0,0,1-5,3.73c-4,2.58-7.93,5.18-11.25,8.76l-.21.24-.09-1.42c-.42-7-.43-14.14-.72-21.22A16.56,16.56,0,0,1-51.32,788a52.24,52.24,0,0,0,7.51-5.26c1.47-1.15,2.94-2.31,4.49-3.33.39-.26.79-.51,1.19-.75l.54-.31.05,0,0,0,.07,0,.88-.4c.65,3.6,1.43,7.18,2.38,10.74a33.82,33.82,0,0,1,1,5.92A10.41,10.41,0,0,1-36.6,803.58Z" transform="translate(108.88)"/><path id="Path_4418-20" data-name="Path 4418" class="cls-9" d="M-108.66,840.05a8.93,8.93,0,0,0,5.86,3.88,24.69,24.69,0,0,0,7,.16" transform="translate(108.88)"/><path id="Path_4419-20" data-name="Path 4419" class="cls-10" d="M-72,722.21a13.27,13.27,0,0,0,.36,5" transform="translate(108.88)"/><path id="Path_4420-20" data-name="Path 4420" class="cls-10" d="M-68.29,720.92l.21,4a5,5,0,0,0,.22,1.44" transform="translate(108.88)"/><path id="Path_4421-20" data-name="Path 4421" class="cls-10" d="M-61.25,720.24a30.49,30.49,0,0,1,.31,4" transform="translate(108.88)"/><path id="Path_4422-20" data-name="Path 4422" class="cls-10" d="M-65,720.69l.23,3.12" transform="translate(108.88)"/><path id="Path_4423-20" data-name="Path 4423" class="cls-10" d="M-56.6,720.16V724" transform="translate(108.88)"/><path id="Path_4424-20" data-name="Path 4424" class="cls-10" d="M-51,720.16c-.23,1.33-.52,2.64-.88,3.94" transform="translate(108.88)"/><path id="Path_4425-20" data-name="Path 4425" class="cls-10" d="M-46.44,721.15c-.26,1.43-.57,2.85-.94,4.25" transform="translate(108.88)"/></g></g></g><line id="Line_7" data-name="Line 7" class="cls-11" x1="533.9" y1="45.17" x2="682.67" y2="45.17"/><line id="Line_8" data-name="Line 8" class="cls-11" x1="216.04" y1="45.17" x2="364.8" y2="45.17"/><text class="cls-12" transform="translate(398.8 47.98)">MEMBERSHIP</text></g></g></svg>