<svg xmlns="http://www.w3.org/2000/svg" xmlns:xlink="http://www.w3.org/1999/xlink" viewBox="0 0 680.37 460"><defs><style>.cls-1,.cls-10,.cls-11,.cls-9{fill:none;}.cls-2{fill:#f2de79;}.cls-3{fill:#f8f4eb;}.cls-4{opacity:0.15;}.cls-5{clip-path:url(#clip-path);}.cls-12,.cls-6{fill:#03588c;}.cls-7{fill:#ff9685;}.cls-8{fill:#0388a6;}.cls-9{stroke:#ededed;}.cls-10,.cls-11,.cls-9{stroke-miterlimit:10;}.cls-10,.cls-9{stroke-width:0.52px;}.cls-10{stroke:#00a99d;}.cls-11{stroke:#03588c;}.cls-12{font-size:12px;font-family:NotoSans-Regular, Noto Sans;letter-spacing:0.2em;}</style><clipPath id="clip-path" transform="translate(0.37)"><path id="Rectangle_8" data-name="Rectangle 8" class="cls-1" d="M50.38,15H629.62C649.16,15,665,31.67,665,52.24V407.76c0,20.57-15.84,37.24-35.38,37.24H50.38C30.84,445,15,428.33,15,407.76V52.24C15,31.67,30.84,15,50.38,15Z"/></clipPath></defs><g id="圖層_2" data-name="圖層 2"><g id="圖層_1-2" data-name="圖層 1"><path id="Rectangle_8-2" data-name="Rectangle 8" class="cls-2" d="M37,0H643c20.45,0,37,17.83,37,39.83V420.17c0,22-16.57,39.83-37,39.83H37c-20.45,0-37-17.83-37-39.83V39.83C0,17.83,16.57,0,37,0Z" transform="translate(0.37)"/><path id="Rectangle_8-3" data-name="Rectangle 8" class="cls-3" d="M50.38,15H629.62C649.16,15,665,31.67,665,52.24V407.76c0,20.57-15.84,37.24-35.38,37.24H50.38C30.84,445,15,428.33,15,407.76V52.24C15,31.67,30.84,15,50.38,15Z" transform="translate(0.37)"/><g class="cls-4"><g class="cls-5"><g id="Group_2" data-name="Group 2"><path id="Path_4412" data-name="Path 4412" class="cls-2" d="M82.76,116c0,.09-.11.19-.16.28s-.26.4-.29.43c-.18.27-.36.52-.55.78a31.5,31.5,0,0,1-2.17,2.58c-.41.43-.83.86-1.26,1.28l-.13.13,0,0-.73.65a67.22,67.22,0,0,1-6.5,5l-1,.66q-.75-11.28-1.45-22.57l1.09.91c2.05,1.67,4.18,3.24,6.32,4.78a74.6,74.6,0,0,0,6.49,4.25c.09.06.18.1.27.15A3.94,3.94,0,0,0,82.76,116Z" transform="translate(0.37)"/><path id="Path_4413" data-name="Path 4413" class="cls-6" d="M107.57,92.72l-1.09.75-1,.69c-2.46,1.7-5,3.32-7.38,5.2-1.64,1.31-3.13,2.84-4.65,4.31l-1.09,1-.45.42-.24.22c-.87.8-1.76,1.58-2.7,2.29a18,18,0,0,1-1.87,1.26c.21-.13-.34.12-.64.26l-.11,0-.21-.12-.9-.5c-.49-.3-1-.63-1.46-1-1-.69-2.11-1.27-3.12-2A84.35,84.35,0,0,1,69,96.11c-.39-.4-.78-.8-1.16-1.22-.09-1.86-.16-3.72-.25-5.58A3.78,3.78,0,0,1,69.14,86a12.75,12.75,0,0,1,4.58-2.33c9.64-2.59,19.34-3.22,28.05-1.49,5.47,1.43,5.73,1.71,5.78,6.5C107.56,90,107.57,91.35,107.57,92.72Z" transform="translate(0.37)"/><path id="Path_4414" data-name="Path 4414" class="cls-2" d="M108.16,122.8l-1.06-.37-.4-.14-.54-.2-.63-.25c-.54-.21-1.08-.44-1.62-.67q-1.68-.72-3.33-1.53a99.8,99.8,0,0,1-9-5.09c3.31-2.12,6.09-5.24,9-8l.65-.59c.31-.27.63-.54,1-.79,1.27-1,2.59-1.84,3.89-2.74l.47-.32,1.06-.74c0,5,0,10.07.24,15.11C107.89,118.63,108,120.72,108.16,122.8Z" transform="translate(0.37)"/><path id="Path_4415" data-name="Path 4415" class="cls-7" d="M109.08,132c-.35.13-.69.26-1,.41-5.45,2.32-9.7,6.9-14.76,10l-.9.53,0,0-.36.18a15.69,15.69,0,0,1-2.15.84l-.67.18-.67.09a12.55,12.55,0,0,1-2.21,0l-.41,0-1-.1c-.77-.09-1.54-.19-2.31-.32a45,45,0,0,1-4.56-.94c-.85-.22-1.71-.48-2.55-.77L75,142l-.08,0c-.41-.18-.83-.36-1.23-.55a17.89,17.89,0,0,1-2.06-1.13l-.09-.06-.33-.22s0,0,0-.05l-.55-.49a20.56,20.56,0,0,0,0-2.83c0-.19,0-.38,0-.57l.94-.61c6.08-4,12.47-8.41,16.51-14.69a92.25,92.25,0,0,0,19.82,9.54l1.11.36C109,131.11,109,131.58,109.08,132Z" transform="translate(0.37)"/><path id="Path_4416" data-name="Path 4416" class="cls-8" d="M87.55,186.48c-1.38,2.52-2.6,5.14-3.77,7.81-2.66,6-5.25,12.13-9,17.54-5.91,8.54-13.84,11.47-23.39,9.54C43.75,219.83,39,214,37.91,205.24A33.57,33.57,0,0,1,41.44,186c3.58-7.39,8.41-13.86,13.19-20.36,4.41-6,9-11.77,13.18-18,.21-.32.41-.64.59-1l.89.53a29.47,29.47,0,0,0,5.38,2.26A42.36,42.36,0,0,0,81,151c1.67.94,3.42,1.81,4.17,3.73a17.78,17.78,0,0,1,.79,2.67c.33,9.09.27,18.21,1.32,27.23C87.4,185.26,87.47,185.87,87.55,186.48Z" transform="translate(0.37)"/><path id="Path_4417" data-name="Path 4417" class="cls-2" d="M110.16,165.14a39.46,39.46,0,0,1-5.06,3.73c-4,2.58-8,5.18-11.32,8.76-.08.08-.14.17-.22.24l-.09-1.42c-.42-7-.42-14.14-.72-21.21a16.26,16.26,0,0,1,2.6-5.68,55,55,0,0,0,7.56-5.26c1.47-1.16,3-2.31,4.51-3.33.39-.26.79-.51,1.19-.75l.55-.32,0,0,0,0,.07,0c.3-.15.59-.28.89-.41q1,5.42,2.39,10.74a33.09,33.09,0,0,1,1.05,5.92A10.4,10.4,0,0,1,110.16,165.14Z" transform="translate(0.37)"/><path id="Path_4418" data-name="Path 4418" class="cls-9" d="M37.67,201.62a9,9,0,0,0,5.88,3.87,25,25,0,0,0,7.08.16" transform="translate(0.37)"/><path id="Path_4419" data-name="Path 4419" class="cls-10" d="M74.55,83.78a13,13,0,0,0,.36,5" transform="translate(0.37)"/><path id="Path_4420" data-name="Path 4420" class="cls-10" d="M78.27,82.48l.22,4A4.7,4.7,0,0,0,78.71,88" transform="translate(0.37)"/><path id="Path_4421" data-name="Path 4421" class="cls-10" d="M85.36,81.8a30.49,30.49,0,0,1,.31,4" transform="translate(0.37)"/><path id="Path_4422" data-name="Path 4422" class="cls-10" d="M81.6,82.25l.22,3.12" transform="translate(0.37)"/><path id="Path_4423" data-name="Path 4423" class="cls-10" d="M90,81.72V85.6" transform="translate(0.37)"/><path id="Path_4424" data-name="Path 4424" class="cls-10" d="M95.64,81.72c-.23,1.33-.53,2.65-.89,4" transform="translate(0.37)"/><path id="Path_4425" data-name="Path 4425" class="cls-10" d="M100.25,82.71c-.25,1.43-.56,2.85-.93,4.25" transform="translate(0.37)"/></g><g id="Group_2-2" data-name="Group 2"><path id="Path_4412-2" data-name="Path 4412" class="cls-2" d="M196.21,244.81l-.17.28c-.09.14-.25.4-.28.43-.18.27-.37.52-.56.78a31.5,31.5,0,0,1-2.17,2.58c-.41.43-.83.86-1.25,1.28l-.13.13s0,0,0,0l-.74.65a66,66,0,0,1-6.5,5l-1,.66Q182.65,245.32,182,234l1.09.91c2.06,1.67,4.19,3.24,6.32,4.78a76.14,76.14,0,0,0,6.49,4.25l.27.15A4,4,0,0,0,196.21,244.81Z" transform="translate(0.37)"/><path id="Path_4413-2" data-name="Path 4413" class="cls-6" d="M221,221.49l-1.1.75-1,.69c-2.46,1.7-5,3.32-7.38,5.2-1.64,1.31-3.13,2.84-4.65,4.31-.36.35-.72.7-1.09,1,0,.05-.45.42-.45.42a2.39,2.39,0,0,1-.23.22c-.88.8-1.77,1.58-2.71,2.29a19,19,0,0,1-1.86,1.26c.2-.13-.34.12-.65.26l-.1,0-.21-.12-.9-.5c-.5-.3-1-.63-1.47-.95-1-.69-2.1-1.27-3.12-2a83.67,83.67,0,0,1-11.6-9.46c-.39-.4-.78-.8-1.16-1.22-.1-1.86-.16-3.72-.26-5.58a3.77,3.77,0,0,1,1.54-3.36,12.67,12.67,0,0,1,4.58-2.33c9.63-2.59,19.34-3.22,28-1.49,5.48,1.43,5.74,1.71,5.78,6.5C221,218.76,221,220.12,221,221.49Z" transform="translate(0.37)"/><path id="Path_4414-2" data-name="Path 4414" class="cls-2" d="M221.6,251.57l-1.06-.37-.4-.14-.53-.2-.63-.25c-.55-.21-1.09-.44-1.63-.67-1.12-.48-2.23-1-3.32-1.53a100,100,0,0,1-9-5.09c3.31-2.12,6.09-5.24,9-7.95,0,0,.5-.46.66-.59.31-.27.63-.54,1-.79,1.26-1,2.59-1.84,3.89-2.74l.46-.32,1.07-.74c0,5,0,10.07.23,15.11Q221.37,248.45,221.6,251.57Z" transform="translate(0.37)"/><path id="Path_4415-2" data-name="Path 4415" class="cls-7" d="M222.52,260.81c-.34.13-.68.26-1,.41-5.46,2.32-9.71,6.9-14.76,10l-.91.53,0,0-.36.18a14.74,14.74,0,0,1-2.15.84l-.66.18-.68.09a12.54,12.54,0,0,1-2.21,0l-.4,0-1-.1c-.77-.09-1.55-.19-2.31-.31-1.53-.25-3.06-.55-4.56-.95-.86-.22-1.71-.48-2.55-.77l-.54-.18-.07,0-1.24-.55a17.76,17.76,0,0,1-2.05-1.13L185,269l-.33-.22-.06-.05-.55-.49a20.56,20.56,0,0,0,0-2.83l0-.57.94-.61c6.07-4,12.47-8.41,16.5-14.69a92.32,92.32,0,0,0,19.83,9.54l1.1.36C222.41,259.88,222.47,260.35,222.52,260.81Z" transform="translate(0.37)"/><path id="Path_4416-2" data-name="Path 4416" class="cls-8" d="M201,315.25c-1.39,2.52-2.6,5.14-3.78,7.81-2.66,6-5.24,12.13-9,17.54-5.91,8.54-13.85,11.47-23.39,9.54-7.65-1.54-12.38-7.39-13.49-16.13a33.65,33.65,0,0,1,3.53-19.21c3.58-7.39,8.41-13.86,13.2-20.36,4.4-6,9-11.77,13.17-18q.31-.48.6-1c.29.18.58.36.88.53a29.77,29.77,0,0,0,5.38,2.26,42.65,42.65,0,0,0,6.37,1.49c1.67.94,3.42,1.81,4.18,3.73a19,19,0,0,1,.79,2.67c.32,9.09.27,18.21,1.32,27.23C200.84,314,200.92,314.64,201,315.25Z" transform="translate(0.37)"/><path id="Path_4417-2" data-name="Path 4417" class="cls-2" d="M223.6,293.91a38.12,38.12,0,0,1-5.06,3.73c-4,2.58-8,5.18-11.32,8.76-.07.08-.14.17-.21.24l-.09-1.42c-.42-7.05-.43-14.14-.72-21.21a16.42,16.42,0,0,1,2.59-5.68,55,55,0,0,0,7.56-5.26c1.48-1.16,3-2.31,4.51-3.33l1.2-.75.54-.32.06,0,0,0,.07,0c.3-.15.6-.28.89-.41.65,3.61,1.44,7.19,2.4,10.74a34,34,0,0,1,1,5.92A10.37,10.37,0,0,1,223.6,293.91Z" transform="translate(0.37)"/><path id="Path_4418-2" data-name="Path 4418" class="cls-9" d="M151.11,330.39a9,9,0,0,0,5.89,3.87,25,25,0,0,0,7.07.16" transform="translate(0.37)"/><path id="Path_4419-2" data-name="Path 4419" class="cls-10" d="M188,212.55a13.22,13.22,0,0,0,.36,5" transform="translate(0.37)"/><path id="Path_4420-2" data-name="Path 4420" class="cls-10" d="M191.72,211.25l.21,4a5,5,0,0,0,.22,1.44" transform="translate(0.37)"/><path id="Path_4421-2" data-name="Path 4421" class="cls-10" d="M198.8,210.57a28.82,28.82,0,0,1,.31,4" transform="translate(0.37)"/><path id="Path_4422-2" data-name="Path 4422" class="cls-10" d="M195,211l.23,3.12" transform="translate(0.37)"/><path id="Path_4423-2" data-name="Path 4423" class="cls-10" d="M203.48,210.49v3.88" transform="translate(0.37)"/><path id="Path_4424-2" data-name="Path 4424" class="cls-10" d="M209.09,210.5c-.24,1.32-.53,2.64-.89,3.94" transform="translate(0.37)"/><path id="Path_4425-2" data-name="Path 4425" class="cls-10" d="M213.7,211.48c-.26,1.43-.57,2.85-.94,4.26" transform="translate(0.37)"/></g><g id="Group_2-3" data-name="Group 2"><path id="Path_4412-3" data-name="Path 4412" class="cls-2" d="M262.26,51.66l-.17.28-.28.43c-.19.26-.37.52-.56.77a30,30,0,0,1-2.17,2.59c-.41.43-.83.85-1.25,1.27l-.13.13s0,0,0,0l-.74.66a67.61,67.61,0,0,1-6.5,5l-1,.65Q248.7,52.16,248,40.88l1.09.9c2.06,1.68,4.19,3.25,6.32,4.78a72.46,72.46,0,0,0,6.49,4.26l.27.14A4.06,4.06,0,0,0,262.26,51.66Z" transform="translate(0.37)"/><path id="Path_4413-3" data-name="Path 4413" class="cls-6" d="M287.07,28.34l-1.1.74-1,.7c-2.46,1.7-5,3.32-7.38,5.19-1.64,1.31-3.13,2.85-4.65,4.31l-1.09,1-.45.42-.23.22c-.88.79-1.77,1.57-2.71,2.28a21.05,21.05,0,0,1-1.86,1.27c.2-.14-.35.12-.65.25l-.1,0-.21-.12c-.3-.16-.61-.32-.9-.5-.5-.3-1-.63-1.47-.95-1-.69-2.1-1.27-3.12-2a84.47,84.47,0,0,1-11.6-9.47c-.39-.4-.78-.8-1.16-1.21-.1-1.86-.16-3.72-.26-5.58a3.75,3.75,0,0,1,1.54-3.36,12.67,12.67,0,0,1,4.58-2.33c9.63-2.59,19.34-3.23,28-1.49,5.48,1.43,5.74,1.71,5.78,6.49C287.06,25.6,287.07,27,287.07,28.34Z" transform="translate(0.37)"/><path id="Path_4414-3" data-name="Path 4414" class="cls-2" d="M287.65,58.42l-1.06-.37-.4-.15-.53-.19-.63-.25c-.55-.22-1.09-.44-1.63-.68-1.12-.48-2.23-1-3.32-1.53a97.5,97.5,0,0,1-9-5.08c3.31-2.12,6.09-5.24,9-8l.66-.59c.31-.27.63-.54,1-.79,1.26-1,2.59-1.83,3.89-2.74l.46-.32,1.07-.74c0,5,0,10.08.23,15.12Q287.42,55.29,287.65,58.42Z" transform="translate(0.37)"/><path id="Path_4415-3" data-name="Path 4415" class="cls-7" d="M288.57,67.66c-.34.12-.68.26-1,.4-5.46,2.32-9.71,6.91-14.76,10-.3.19-.61.35-.91.54h0l-.36.18a14.79,14.79,0,0,1-2.15.85l-.66.17-.68.1a13.58,13.58,0,0,1-2.21,0l-.41,0-.95-.11c-.77-.08-1.55-.19-2.31-.31-1.53-.24-3.06-.55-4.56-.94-.86-.23-1.71-.48-2.55-.77l-.54-.19-.07,0c-.42-.17-.83-.35-1.24-.54a17.83,17.83,0,0,1-2-1.14l-.09,0a3.88,3.88,0,0,1-.33-.23l-.06,0-.55-.49a20.56,20.56,0,0,0,0-2.83l0-.58.94-.61c6.07-4,12.47-8.41,16.5-14.69a92.47,92.47,0,0,0,19.82,9.54l1.11.37C288.46,66.73,288.52,67.19,288.57,67.66Z" transform="translate(0.37)"/><path id="Path_4416-3" data-name="Path 4416" class="cls-8" d="M267.05,122.09c-1.39,2.52-2.61,5.15-3.78,7.81-2.66,6-5.24,12.14-9,17.55-5.91,8.53-13.85,11.46-23.39,9.54-7.65-1.55-12.38-7.4-13.49-16.13a33.67,33.67,0,0,1,3.53-19.22c3.58-7.39,8.41-13.85,13.2-20.35,4.4-6,9-11.78,13.17-18,.21-.32.41-.64.6-1,.29.19.58.36.88.53a29.07,29.07,0,0,0,5.38,2.26,42.65,42.65,0,0,0,6.37,1.49c1.67.94,3.42,1.81,4.18,3.74A18.64,18.64,0,0,1,265.5,93c.32,9.09.27,18.2,1.32,27.23C266.89,120.88,267,121.48,267.05,122.09Z" transform="translate(0.37)"/><path id="Path_4417-3" data-name="Path 4417" class="cls-2" d="M289.65,100.76a39,39,0,0,1-5.06,3.73c-4,2.57-8,5.17-11.32,8.76l-.21.24-.09-1.42c-.42-7.06-.43-14.15-.72-21.22a16.5,16.5,0,0,1,2.59-5.68,53.27,53.27,0,0,0,7.56-5.26c1.47-1.16,3-2.31,4.51-3.33q.6-.39,1.2-.75l.54-.31.06,0,0,0,.07,0,.89-.4c.65,3.6,1.44,7.18,2.4,10.74a33.65,33.65,0,0,1,1,5.92A10.38,10.38,0,0,1,289.65,100.76Z" transform="translate(0.37)"/><path id="Path_4418-3" data-name="Path 4418" class="cls-9" d="M217.16,137.23a9,9,0,0,0,5.89,3.88,25,25,0,0,0,7.07.16" transform="translate(0.37)"/><path id="Path_4419-3" data-name="Path 4419" class="cls-10" d="M254,19.39a13.21,13.21,0,0,0,.36,5" transform="translate(0.37)"/><path id="Path_4420-3" data-name="Path 4420" class="cls-10" d="M257.77,18.1l.21,4a5,5,0,0,0,.22,1.43" transform="translate(0.37)"/><path id="Path_4421-3" data-name="Path 4421" class="cls-10" d="M264.85,17.41a30.77,30.77,0,0,1,.31,3.95" transform="translate(0.37)"/><path id="Path_4422-3" data-name="Path 4422" class="cls-10" d="M261.09,17.87l.23,3.11" transform="translate(0.37)"/><path id="Path_4423-3" data-name="Path 4423" class="cls-10" d="M269.53,17.34v3.87" transform="translate(0.37)"/><path id="Path_4424-3" data-name="Path 4424" class="cls-10" d="M275.14,17.34c-.24,1.33-.53,2.64-.89,3.94" transform="translate(0.37)"/><path id="Path_4425-3" data-name="Path 4425" class="cls-10" d="M279.75,18.33c-.26,1.42-.57,2.84-.94,4.25" transform="translate(0.37)"/></g><g id="Group_2-4" data-name="Group 2"><path id="Path_4412-4" data-name="Path 4412" class="cls-2" d="M385.28,155l-.16.28-.29.43-.56.78a31.38,31.38,0,0,1-2.16,2.58c-.41.43-.84.85-1.26,1.27l-.13.13,0,0-.73.66a70.18,70.18,0,0,1-6.5,5l-1,.65q-.75-11.28-1.45-22.56l1.09.9c2.05,1.68,4.18,3.25,6.31,4.78a74.07,74.07,0,0,0,6.5,4.26c.09.05.18.09.27.15A3.25,3.25,0,0,0,385.28,155Z" transform="translate(0.37)"/><path id="Path_4413-4" data-name="Path 4413" class="cls-6" d="M410.09,131.68l-1.1.74-1,.7c-2.47,1.7-5,3.32-7.38,5.19-1.64,1.31-3.13,2.85-4.65,4.31l-1.09,1-.45.42-.24.22c-.87.79-1.77,1.57-2.7,2.29a19.73,19.73,0,0,1-1.87,1.26c.2-.14-.34.12-.64.26l-.11,0-.21-.12c-.3-.16-.6-.32-.9-.5-.5-.3-1-.63-1.46-1-1-.69-2.11-1.27-3.13-2a85.69,85.69,0,0,1-11.6-9.47c-.39-.4-.78-.8-1.16-1.21-.09-1.86-.16-3.72-.26-5.58a3.77,3.77,0,0,1,1.54-3.36,12.75,12.75,0,0,1,4.58-2.33c9.64-2.59,19.34-3.23,28-1.49,5.48,1.43,5.74,1.71,5.79,6.49C410.08,129,410.09,130.31,410.09,131.68Z" transform="translate(0.37)"/><path id="Path_4414-4" data-name="Path 4414" class="cls-2" d="M410.67,161.76l-1.05-.37-.41-.15-.53-.19s-.63-.25-.63-.25l-1.62-.67c-1.12-.49-2.23-1-3.33-1.54a97.33,97.33,0,0,1-9-5.08c3.31-2.12,6.09-5.24,9-8l.65-.58c.31-.28.63-.55,1-.8,1.27-1,2.59-1.83,3.89-2.74l.46-.32,1.07-.74c0,5,0,10.08.24,15.12Q410.45,158.63,410.67,161.76Z" transform="translate(0.37)"/><path id="Path_4415-4" data-name="Path 4415" class="cls-7" d="M411.6,171l-1,.4c-5.45,2.32-9.7,6.91-14.76,10-.3.19-.61.35-.91.54h0a3,3,0,0,1-.36.18,15.74,15.74,0,0,1-2.15.85l-.67.17-.67.1a13.59,13.59,0,0,1-2.21,0l-.41,0-1-.1c-.77-.09-1.54-.2-2.31-.32-1.53-.24-3.05-.55-4.56-.94-.86-.23-1.71-.48-2.55-.77l-.53-.19-.08,0c-.41-.17-.83-.35-1.24-.54a17.19,17.19,0,0,1-2.05-1.14l-.09-.05-.33-.23,0,0-.55-.49a22.27,22.27,0,0,0,0-2.83c0-.19,0-.38,0-.58l.94-.61c6.08-4,12.47-8.41,16.5-14.69a92.32,92.32,0,0,0,19.83,9.54l1.11.37C411.48,170.07,411.54,170.53,411.6,171Z" transform="translate(0.37)"/><path id="Path_4416-4" data-name="Path 4416" class="cls-8" d="M390.07,225.43c-1.38,2.52-2.6,5.15-3.78,7.82-2.66,6-5.24,12.13-9,17.54-5.91,8.53-13.85,11.46-23.39,9.54-7.64-1.55-12.38-7.4-13.48-16.13A33.52,33.52,0,0,1,344,225c3.58-7.39,8.4-13.85,13.19-20.35,4.4-6,9-11.77,13.17-18,.22-.32.41-.64.6-1,.29.19.59.36.89.53a28.78,28.78,0,0,0,5.38,2.26,42.08,42.08,0,0,0,6.37,1.49c1.67.94,3.42,1.81,4.17,3.74a17.44,17.44,0,0,1,.79,2.67c.33,9.09.27,18.2,1.32,27.23C389.91,224.22,390,224.82,390.07,225.43Z" transform="translate(0.37)"/><path id="Path_4417-4" data-name="Path 4417" class="cls-2" d="M412.67,204.1a39,39,0,0,1-5.06,3.73c-4,2.57-8,5.17-11.31,8.76l-.22.24-.09-1.42c-.42-7.06-.42-14.15-.72-21.22a16.34,16.34,0,0,1,2.6-5.68,53.27,53.27,0,0,0,7.56-5.26c1.47-1.16,2.95-2.31,4.5-3.33l1.2-.75.54-.31.06,0,0,0,.07,0,.89-.4q1,5.4,2.39,10.74a32.77,32.77,0,0,1,1.05,5.92A10.39,10.39,0,0,1,412.67,204.1Z" transform="translate(0.37)"/><path id="Path_4418-4" data-name="Path 4418" class="cls-9" d="M340.18,240.57a9,9,0,0,0,5.89,3.88,25,25,0,0,0,7.07.16" transform="translate(0.37)"/><path id="Path_4419-4" data-name="Path 4419" class="cls-10" d="M377.06,122.73a13.27,13.27,0,0,0,.36,5" transform="translate(0.37)"/><path id="Path_4420-4" data-name="Path 4420" class="cls-10" d="M380.79,121.44l.22,4a4.59,4.59,0,0,0,.22,1.43" transform="translate(0.37)"/><path id="Path_4421-4" data-name="Path 4421" class="cls-10" d="M387.87,120.75a29.07,29.07,0,0,1,.31,4" transform="translate(0.37)"/><path id="Path_4422-4" data-name="Path 4422" class="cls-10" d="M384.12,121.21l.22,3.11" transform="translate(0.37)"/><path id="Path_4423-4" data-name="Path 4423" class="cls-10" d="M392.55,120.68v3.87" transform="translate(0.37)"/><path id="Path_4424-4" data-name="Path 4424" class="cls-10" d="M398.16,120.68c-.23,1.33-.53,2.64-.89,3.94" transform="translate(0.37)"/><path id="Path_4425-4" data-name="Path 4425" class="cls-10" d="M402.77,121.67c-.25,1.43-.57,2.84-.94,4.25" transform="translate(0.37)"/></g><g id="Group_2-5" data-name="Group 2"><path id="Path_4412-5" data-name="Path 4412" class="cls-2" d="M297.55,347.07l-.16.28c-.09.13-.26.4-.29.43-.18.27-.37.52-.56.78a31.38,31.38,0,0,1-2.16,2.58c-.41.43-.84.85-1.26,1.27l-.13.14,0,0c-.24.23-.49.44-.73.66a68.47,68.47,0,0,1-6.5,5l-1,.65q-.75-11.28-1.45-22.56l1.09.91c2.05,1.67,4.18,3.24,6.31,4.78a76.3,76.3,0,0,0,6.5,4.25l.27.15A3.25,3.25,0,0,0,297.55,347.07Z" transform="translate(0.37)"/><path id="Path_4413-5" data-name="Path 4413" class="cls-6" d="M322.36,323.75l-1.1.75-1,.69c-2.47,1.7-5,3.32-7.38,5.2-1.64,1.3-3.13,2.84-4.65,4.3l-1.09,1.05-.45.42-.24.22c-.87.8-1.77,1.57-2.7,2.29a18,18,0,0,1-1.87,1.26c.2-.13-.34.12-.64.26l-.11,0-.21-.11-.9-.51c-.5-.29-1-.62-1.46-.94-1-.69-2.11-1.28-3.13-2a84.94,84.94,0,0,1-11.6-9.47c-.39-.39-.78-.8-1.16-1.21-.09-1.86-.16-3.72-.26-5.58a3.79,3.79,0,0,1,1.54-3.36,12.75,12.75,0,0,1,4.58-2.33c9.64-2.59,19.34-3.23,28-1.49,5.48,1.43,5.74,1.71,5.79,6.5C322.35,321,322.36,322.38,322.36,323.75Z" transform="translate(0.37)"/><path id="Path_4414-5" data-name="Path 4414" class="cls-2" d="M322.94,353.83l-1.05-.37-.41-.14-.53-.2-.63-.25c-.54-.21-1.08-.44-1.62-.67-1.13-.48-2.23-1-3.33-1.53a99.8,99.8,0,0,1-9-5.09c3.31-2.12,6.09-5.24,9-7.95L316,337c.31-.28.63-.54,1-.79,1.27-1,2.59-1.84,3.89-2.74l.46-.33,1.07-.73c0,5,0,10.07.24,15.11Q322.72,350.71,322.94,353.83Z" transform="translate(0.37)"/><path id="Path_4415-5" data-name="Path 4415" class="cls-7" d="M323.87,363.07c-.35.13-.69.26-1,.41-5.45,2.32-9.7,6.9-14.76,10l-.91.53,0,0-.36.18a17.09,17.09,0,0,1-2.15.84l-.67.18-.67.09a12.55,12.55,0,0,1-2.21,0l-.41,0-1-.1c-.77-.09-1.54-.2-2.31-.32-1.53-.24-3.05-.55-4.56-.94-.86-.22-1.71-.48-2.55-.77l-.53-.19-.08,0c-.41-.17-.83-.35-1.24-.54a18.63,18.63,0,0,1-2.05-1.13l-.09-.06L286,371l-.05,0-.55-.49a22.27,22.27,0,0,0,0-2.83c0-.19,0-.38,0-.57l.94-.61c6.08-4,12.47-8.41,16.5-14.69a92.32,92.32,0,0,0,19.83,9.54l1.11.36C323.75,362.14,323.81,362.61,323.87,363.07Z" transform="translate(0.37)"/><path id="Path_4416-5" data-name="Path 4416" class="cls-8" d="M302.34,417.5c-1.38,2.52-2.6,5.15-3.78,7.82-2.66,6-5.24,12.13-9,17.54-5.91,8.53-13.85,11.46-23.39,9.54-7.64-1.54-12.38-7.39-13.48-16.13a33.48,33.48,0,0,1,3.53-19.21c3.58-7.39,8.4-13.86,13.19-20.36,4.4-6,9-11.77,13.17-18,.22-.32.41-.64.6-1l.89.53a29.47,29.47,0,0,0,5.38,2.26,43.49,43.49,0,0,0,6.36,1.49c1.68.93,3.43,1.81,4.18,3.73a17.78,17.78,0,0,1,.79,2.67c.33,9.09.27,18.21,1.32,27.23C302.18,416.29,302.26,416.9,302.34,417.5Z" transform="translate(0.37)"/><path id="Path_4417-5" data-name="Path 4417" class="cls-2" d="M324.94,396.17a38.12,38.12,0,0,1-5.06,3.73c-4,2.58-8,5.18-11.31,8.76l-.22.24-.09-1.42c-.42-7.05-.42-14.14-.72-21.21a16.39,16.39,0,0,1,2.6-5.69,54,54,0,0,0,7.56-5.25c1.47-1.16,2.95-2.31,4.5-3.34l1.2-.75.54-.31.06,0,0,0,.07,0c.29-.15.59-.28.89-.41.65,3.6,1.44,7.19,2.39,10.74a32.93,32.93,0,0,1,1.05,5.92A10.38,10.38,0,0,1,324.94,396.17Z" transform="translate(0.37)"/><path id="Path_4418-5" data-name="Path 4418" class="cls-9" d="M252.45,432.65a9,9,0,0,0,5.89,3.87,25,25,0,0,0,7.07.16" transform="translate(0.37)"/><path id="Path_4419-5" data-name="Path 4419" class="cls-10" d="M289.33,314.8a13.27,13.27,0,0,0,.36,5" transform="translate(0.37)"/><path id="Path_4420-5" data-name="Path 4420" class="cls-10" d="M293.06,313.51l.22,4a4.7,4.7,0,0,0,.22,1.44" transform="translate(0.37)"/><path id="Path_4421-5" data-name="Path 4421" class="cls-10" d="M300.14,312.83a28.82,28.82,0,0,1,.31,3.95" transform="translate(0.37)"/><path id="Path_4422-5" data-name="Path 4422" class="cls-10" d="M296.39,313.28l.22,3.12" transform="translate(0.37)"/><path id="Path_4423-5" data-name="Path 4423" class="cls-10" d="M304.82,312.75v3.88" transform="translate(0.37)"/><path id="Path_4424-5" data-name="Path 4424" class="cls-10" d="M310.43,312.75a40.13,40.13,0,0,1-.89,3.94" transform="translate(0.37)"/><path id="Path_4425-5" data-name="Path 4425" class="cls-10" d="M315,313.74c-.25,1.43-.57,2.85-.94,4.25" transform="translate(0.37)"/></g><g id="Group_2-6" data-name="Group 2"><path id="Path_4412-6" data-name="Path 4412" class="cls-2" d="M483.09,254.55c0,.08-.11.19-.16.28s-.26.4-.29.43c-.18.27-.36.52-.55.78a31.5,31.5,0,0,1-2.17,2.58c-.41.43-.83.85-1.25,1.27l-.14.14,0,0-.73.65a66,66,0,0,1-6.5,5l-1,.65q-.76-11.26-1.46-22.56l1.09.91c2.06,1.67,4.19,3.24,6.32,4.78a74.6,74.6,0,0,0,6.49,4.25l.27.15A5.4,5.4,0,0,0,483.09,254.55Z" transform="translate(0.37)"/><path id="Path_4413-6" data-name="Path 4413" class="cls-6" d="M507.91,231.23l-1.1.75-1,.69c-2.46,1.7-5,3.32-7.38,5.2-1.64,1.3-3.13,2.84-4.65,4.3-.36.36-.73.7-1.09,1.05l-.45.42-.23.22c-.88.8-1.77,1.58-2.71,2.29a19,19,0,0,1-1.86,1.26c.2-.13-.35.12-.65.26l-.11,0-.21-.11c-.29-.17-.6-.33-.9-.51-.49-.29-1-.62-1.46-.94-1-.69-2.11-1.28-3.12-2a83.75,83.75,0,0,1-11.6-9.47c-.4-.39-.78-.8-1.17-1.21-.09-1.86-.15-3.72-.25-5.58a3.78,3.78,0,0,1,1.53-3.36,12.79,12.79,0,0,1,4.59-2.33c9.63-2.59,19.34-3.22,28-1.49,5.47,1.43,5.74,1.71,5.78,6.5C507.9,228.5,507.9,229.86,507.91,231.23Z" transform="translate(0.37)"/><path id="Path_4414-6" data-name="Path 4414" class="cls-2" d="M508.49,261.31l-1.06-.37-.4-.14-.53-.2-.63-.25c-.55-.21-1.09-.44-1.63-.67q-1.68-.72-3.33-1.53a101.19,101.19,0,0,1-9-5.09c3.31-2.12,6.09-5.24,9-7.95l.65-.59c.32-.27.63-.54,1-.79,1.26-1,2.59-1.84,3.88-2.74l.47-.33,1.07-.73c0,5,0,10.07.23,15.11Q508.26,258.19,508.49,261.31Z" transform="translate(0.37)"/><path id="Path_4415-6" data-name="Path 4415" class="cls-7" d="M509.41,270.55c-.34.13-.69.26-1,.41-5.46,2.32-9.71,6.9-14.76,10-.3.18-.62.35-.91.53l0,0-.36.18a17.09,17.09,0,0,1-2.15.84l-.66.18-.68.09a12.54,12.54,0,0,1-2.21,0l-.41,0-1-.1c-.77-.09-1.54-.19-2.3-.32-1.54-.24-3.06-.55-4.56-.94-.86-.22-1.71-.48-2.56-.77l-.53-.19a.11.11,0,0,1-.07,0c-.42-.17-.83-.35-1.24-.54a18.77,18.77,0,0,1-2.06-1.13l-.08-.06-.34-.22,0-.05-.55-.49a20.56,20.56,0,0,0,0-2.83c0-.19,0-.38,0-.57l.94-.61c6.08-4,12.47-8.41,16.51-14.69a92.47,92.47,0,0,0,19.82,9.54l1.11.36C509.3,269.62,509.35,270.09,509.41,270.55Z" transform="translate(0.37)"/><path id="Path_4416-6" data-name="Path 4416" class="cls-8" d="M487.89,325c-1.39,2.51-2.61,5.14-3.78,7.81-2.66,6-5.25,12.13-9,17.54-5.91,8.53-13.84,11.46-23.38,9.54-7.65-1.54-12.39-7.39-13.49-16.13a33.57,33.57,0,0,1,3.53-19.21c3.58-7.39,8.41-13.86,13.19-20.36,4.41-6,9-11.77,13.18-18q.32-.48.6-1c.29.18.58.36.88.53A29.47,29.47,0,0,0,475,288a43.92,43.92,0,0,0,6.37,1.49c1.67.93,3.42,1.81,4.17,3.73a17.81,17.81,0,0,1,.8,2.67c.32,9.09.26,18.21,1.32,27.23C487.73,323.77,487.8,324.38,487.89,325Z" transform="translate(0.37)"/><path id="Path_4417-6" data-name="Path 4417" class="cls-2" d="M510.49,303.65a38.78,38.78,0,0,1-5.06,3.73c-4,2.58-8,5.18-11.32,8.76l-.21.24c0-.47-.07-.95-.09-1.42-.42-7-.43-14.14-.72-21.21a16.36,16.36,0,0,1,2.59-5.69,54,54,0,0,0,7.56-5.25c1.47-1.16,2.95-2.31,4.51-3.34q.58-.39,1.2-.75l.54-.31.06,0,0,0,.07,0c.3-.15.59-.28.89-.41.65,3.6,1.44,7.19,2.39,10.74a33.09,33.09,0,0,1,1.05,5.92A10.37,10.37,0,0,1,510.49,303.65Z" transform="translate(0.37)"/><path id="Path_4418-6" data-name="Path 4418" class="cls-9" d="M438,340.13a9,9,0,0,0,5.89,3.87,25,25,0,0,0,7.07.16" transform="translate(0.37)"/><path id="Path_4419-6" data-name="Path 4419" class="cls-10" d="M474.88,222.29a13.24,13.24,0,0,0,.36,5" transform="translate(0.37)"/><path id="Path_4420-6" data-name="Path 4420" class="cls-10" d="M478.61,221l.21,4a5,5,0,0,0,.22,1.44" transform="translate(0.37)"/><path id="Path_4421-6" data-name="Path 4421" class="cls-10" d="M485.69,220.31a30.49,30.49,0,0,1,.31,3.95" transform="translate(0.37)"/><path id="Path_4422-6" data-name="Path 4422" class="cls-10" d="M481.93,220.76l.22,3.12" transform="translate(0.37)"/><path id="Path_4423-6" data-name="Path 4423" class="cls-10" d="M490.36,220.23v3.88" transform="translate(0.37)"/><path id="Path_4424-6" data-name="Path 4424" class="cls-10" d="M496,220.23c-.24,1.33-.54,2.65-.89,3.94" transform="translate(0.37)"/><path id="Path_4425-6" data-name="Path 4425" class="cls-10" d="M500.58,221.22c-.25,1.43-.56,2.85-.93,4.25" transform="translate(0.37)"/></g><g id="Group_2-7" data-name="Group 2"><path id="Path_4412-7" data-name="Path 4412" class="cls-2" d="M534.52,50c0,.08-.11.19-.16.27l-.29.44c-.18.26-.36.52-.55.77a29.9,29.9,0,0,1-2.17,2.58c-.41.43-.83.86-1.26,1.28l-.13.13,0,0-.73.65a68.47,68.47,0,0,1-6.5,5l-1,.66q-.75-11.28-1.45-22.57l1.09.91c2,1.67,4.18,3.25,6.32,4.78a70.23,70.23,0,0,0,6.49,4.25l.27.15A4.17,4.17,0,0,0,534.52,50Z" transform="translate(0.37)"/><path id="Path_4413-7" data-name="Path 4413" class="cls-6" d="M559.33,26.71l-1.09.75-1,.7c-2.46,1.69-5,3.31-7.38,5.19-1.64,1.31-3.13,2.85-4.65,4.31l-1.09,1-.45.43-.24.21c-.87.8-1.76,1.58-2.7,2.29a18,18,0,0,1-1.87,1.26c.2-.13-.34.13-.64.26l-.11,0-.21-.12-.9-.5c-.49-.3-1-.63-1.46-1-1-.69-2.11-1.27-3.12-2a85.16,85.16,0,0,1-11.61-9.47c-.39-.4-.78-.8-1.16-1.21-.09-1.86-.16-3.73-.25-5.59a3.78,3.78,0,0,1,1.53-3.36,12.91,12.91,0,0,1,4.58-2.33c9.64-2.58,19.34-3.22,28-1.49,5.47,1.43,5.73,1.71,5.78,6.5C559.32,24,559.33,25.35,559.33,26.71Z" transform="translate(0.37)"/><path id="Path_4414-7" data-name="Path 4414" class="cls-2" d="M559.92,56.79l-1.06-.36-.4-.15-.54-.2-.63-.24-1.62-.68q-1.68-.72-3.33-1.53a99.8,99.8,0,0,1-9-5.09c3.31-2.12,6.09-5.23,9-7.95L553,40c.31-.27.63-.54,1-.79,1.27-1,2.59-1.84,3.89-2.74l.46-.32,1.07-.74c0,5,0,10.08.24,15.11C559.65,52.62,559.76,54.71,559.92,56.79Z" transform="translate(0.37)"/><path id="Path_4415-7" data-name="Path 4415" class="cls-7" d="M560.84,66c-.35.12-.69.26-1,.4-5.45,2.32-9.7,6.9-14.76,10l-.9.53,0,0-.36.18a14.5,14.5,0,0,1-2.15.84c-.11,0-.49.13-.67.18l-.67.09a12.55,12.55,0,0,1-2.21,0l-.41,0-1-.1c-.77-.09-1.54-.19-2.31-.31-1.53-.25-3-.55-4.56-1-.85-.22-1.71-.47-2.55-.76l-.53-.19-.08,0c-.41-.18-.83-.35-1.23-.55a17.89,17.89,0,0,1-2.06-1.13l-.09-.05L523,74l-.05,0-.55-.48a20.71,20.71,0,0,0,0-2.84c0-.19,0-.38,0-.57l.94-.61c6.08-4,12.47-8.41,16.51-14.69a92.25,92.25,0,0,0,19.82,9.54c.37.12.74.25,1.11.36C560.72,65.11,560.78,65.57,560.84,66Z" transform="translate(0.37)"/><path id="Path_4416-7" data-name="Path 4416" class="cls-8" d="M539.31,120.47c-1.38,2.52-2.6,5.15-3.77,7.81-2.66,6.05-5.25,12.14-9,17.54-5.91,8.54-13.84,11.47-23.39,9.54-7.64-1.54-12.38-7.39-13.48-16.12A33.58,33.58,0,0,1,493.2,120c3.58-7.39,8.41-13.85,13.19-20.35,4.41-6,9-11.78,13.18-18,.21-.32.41-.64.59-1l.89.53a29.47,29.47,0,0,0,5.38,2.26A42.08,42.08,0,0,0,532.8,85c1.67.94,3.42,1.81,4.17,3.73a17.56,17.56,0,0,1,.79,2.68c.33,9.09.27,18.2,1.32,27.22C539.16,119.25,539.23,119.86,539.31,120.47Z" transform="translate(0.37)"/><path id="Path_4417-7" data-name="Path 4417" class="cls-2" d="M561.92,99.13a38.54,38.54,0,0,1-5.06,3.73c-4,2.58-8,5.18-11.32,8.77-.08.07-.14.16-.22.23l-.09-1.42c-.42-7-.42-14.14-.72-21.21a16.34,16.34,0,0,1,2.6-5.68,55,55,0,0,0,7.56-5.26c1.47-1.16,3-2.31,4.51-3.33.39-.26.79-.51,1.19-.75l.55-.32.05,0a.05.05,0,0,0,0,0l.07,0c.3-.15.59-.28.89-.41q1,5.41,2.39,10.75a32.82,32.82,0,0,1,1,5.91A10.4,10.4,0,0,1,561.92,99.13Z" transform="translate(0.37)"/><path id="Path_4418-7" data-name="Path 4418" class="cls-9" d="M489.43,135.61a9,9,0,0,0,5.88,3.88,25.42,25.42,0,0,0,7.08.15" transform="translate(0.37)"/><path id="Path_4419-7" data-name="Path 4419" class="cls-10" d="M526.31,17.77a13.22,13.22,0,0,0,.35,5" transform="translate(0.37)"/><path id="Path_4420-7" data-name="Path 4420" class="cls-10" d="M530,16.47l.22,4a4.66,4.66,0,0,0,.22,1.44" transform="translate(0.37)"/><path id="Path_4421-7" data-name="Path 4421" class="cls-10" d="M537.12,15.79a30.77,30.77,0,0,1,.31,3.95" transform="translate(0.37)"/><path id="Path_4422-7" data-name="Path 4422" class="cls-10" d="M533.36,16.25l.22,3.11" transform="translate(0.37)"/><path id="Path_4423-7" data-name="Path 4423" class="cls-10" d="M541.79,15.71v3.88" transform="translate(0.37)"/><path id="Path_4424-7" data-name="Path 4424" class="cls-10" d="M547.4,15.72c-.23,1.33-.53,2.64-.89,3.94" transform="translate(0.37)"/><path id="Path_4425-7" data-name="Path 4425" class="cls-10" d="M552,16.7q-.37,2.14-.93,4.26" transform="translate(0.37)"/></g><g id="Group_2-8" data-name="Group 2"><path id="Path_4412-8" data-name="Path 4412" class="cls-2" d="M635.87,162.57l-.17.28c-.09.14-.26.4-.29.43-.18.27-.36.52-.55.78a31.5,31.5,0,0,1-2.17,2.58c-.41.43-.83.86-1.25,1.28l-.14.13,0,0c-.24.22-.48.44-.73.65a66,66,0,0,1-6.5,5l-1,.66q-.77-11.28-1.46-22.57l1.09.91c2.06,1.67,4.19,3.24,6.32,4.78a74.6,74.6,0,0,0,6.49,4.25l.27.15A4,4,0,0,0,635.87,162.57Z" transform="translate(0.37)"/><path id="Path_4413-8" data-name="Path 4413" class="cls-6" d="M660.68,139.25l-1.1.75-1,.7c-2.46,1.69-5,3.31-7.38,5.19-1.64,1.31-3.13,2.84-4.65,4.31-.36.35-.72.7-1.09,1l-.45.42-.23.22c-.88.8-1.77,1.58-2.71,2.29a19,19,0,0,1-1.86,1.26c.2-.13-.35.12-.65.26l-.1,0-.21-.12-.9-.5c-.5-.3-1-.63-1.47-.95-1-.69-2.1-1.27-3.12-2a83.67,83.67,0,0,1-11.6-9.46c-.4-.4-.78-.8-1.16-1.21-.1-1.87-.16-3.73-.26-5.59a3.78,3.78,0,0,1,1.53-3.36,12.79,12.79,0,0,1,4.59-2.33c9.63-2.59,19.34-3.22,28-1.49,5.48,1.43,5.74,1.71,5.78,6.5C660.67,136.52,660.67,137.89,660.68,139.25Z" transform="translate(0.37)"/><path id="Path_4414-8" data-name="Path 4414" class="cls-2" d="M661.26,169.33,660.2,169c-.13-.06-.27-.1-.4-.15l-.53-.2-.63-.25c-.55-.21-1.09-.44-1.63-.67q-1.68-.72-3.33-1.53a101.19,101.19,0,0,1-9-5.09c3.31-2.12,6.09-5.23,9-8l.65-.59c.32-.27.64-.54,1-.79,1.26-1,2.59-1.84,3.89-2.74l.46-.32,1.07-.74c0,5,0,10.07.23,15.11Q661,166.21,661.26,169.33Z" transform="translate(0.37)"/><path id="Path_4415-8" data-name="Path 4415" class="cls-7" d="M662.18,178.57c-.34.13-.68.26-1,.41-5.46,2.32-9.71,6.9-14.76,10l-.91.53,0,0-.36.18a14.74,14.74,0,0,1-2.15.84l-.66.18-.68.09a12.54,12.54,0,0,1-2.21,0l-.41,0-1-.1c-.78-.09-1.55-.19-2.31-.31-1.54-.25-3.06-.55-4.56-.95-.86-.22-1.71-.48-2.55-.76l-.54-.19-.07,0-1.24-.55a18.77,18.77,0,0,1-2.06-1.13l-.08-.06-.33-.22-.06-.05-.55-.49a20.56,20.56,0,0,0,0-2.83l0-.57.93-.61c6.08-4,12.47-8.41,16.51-14.69a92.47,92.47,0,0,0,19.82,9.54l1.11.36C662.07,177.65,662.13,178.11,662.18,178.57Z" transform="translate(0.37)"/><path id="Path_4416-8" data-name="Path 4416" class="cls-8" d="M640.66,233c-1.39,2.52-2.61,5.14-3.78,7.81-2.66,6-5.24,12.13-9,17.54C622,266.9,614,269.83,604.5,267.9c-7.65-1.54-12.39-7.39-13.49-16.12a33.67,33.67,0,0,1,3.53-19.22c3.58-7.39,8.41-13.86,13.2-20.36,4.4-6,9-11.77,13.17-18q.32-.48.6-1c.29.18.58.36.88.53a29.77,29.77,0,0,0,5.38,2.26,42.65,42.65,0,0,0,6.37,1.49c1.67.94,3.42,1.81,4.18,3.73a19,19,0,0,1,.79,2.67c.32,9.09.27,18.21,1.32,27.23C640.5,231.79,640.58,232.4,640.66,233Z" transform="translate(0.37)"/><path id="Path_4417-8" data-name="Path 4417" class="cls-2" d="M663.26,211.67a38.12,38.12,0,0,1-5.06,3.73c-4,2.58-8,5.18-11.32,8.76-.07.08-.14.17-.21.24l-.09-1.42c-.42-7-.43-14.14-.72-21.21a16.42,16.42,0,0,1,2.59-5.68,55,55,0,0,0,7.56-5.26c1.47-1.16,3-2.31,4.51-3.33.4-.26.79-.51,1.2-.75l.54-.32.06,0,0,0,.07,0c.3-.15.6-.28.89-.41.65,3.61,1.44,7.19,2.4,10.74a34,34,0,0,1,1,5.92A10.37,10.37,0,0,1,663.26,211.67Z" transform="translate(0.37)"/><path id="Path_4418-8" data-name="Path 4418" class="cls-9" d="M590.77,248.15a9,9,0,0,0,5.89,3.87,25,25,0,0,0,7.07.16" transform="translate(0.37)"/><path id="Path_4419-8" data-name="Path 4419" class="cls-10" d="M627.65,130.31a13.22,13.22,0,0,0,.36,5" transform="translate(0.37)"/><path id="Path_4420-8" data-name="Path 4420" class="cls-10" d="M631.38,129l.21,4a5,5,0,0,0,.22,1.44" transform="translate(0.37)"/><path id="Path_4421-8" data-name="Path 4421" class="cls-10" d="M638.46,128.33a30.77,30.77,0,0,1,.31,3.95" transform="translate(0.37)"/><path id="Path_4422-8" data-name="Path 4422" class="cls-10" d="M634.7,128.78l.23,3.12" transform="translate(0.37)"/><path id="Path_4423-8" data-name="Path 4423" class="cls-10" d="M643.14,128.25v3.88" transform="translate(0.37)"/><path id="Path_4424-8" data-name="Path 4424" class="cls-10" d="M648.75,128.26c-.24,1.32-.53,2.64-.89,3.94" transform="translate(0.37)"/><path id="Path_4425-8" data-name="Path 4425" class="cls-10" d="M653.36,129.24c-.26,1.43-.57,2.85-.94,4.26" transform="translate(0.37)"/></g><g id="Group_2-9" data-name="Group 2"><path id="Path_4412-9" data-name="Path 4412" class="cls-2" d="M604.1,348.15l-.16.28-.29.44-.55.77a31.82,31.82,0,0,1-2.17,2.58c-.41.43-.84.86-1.26,1.28l-.13.13,0,0-.73.65a68.47,68.47,0,0,1-6.5,5l-1,.66q-.75-11.28-1.45-22.57l1.09.91c2,1.67,4.18,3.25,6.31,4.78a76.3,76.3,0,0,0,6.5,4.25l.27.15A3.94,3.94,0,0,0,604.1,348.15Z" transform="translate(0.37)"/><path id="Path_4413-9" data-name="Path 4413" class="cls-6" d="M628.91,324.83l-1.1.75-1,.7c-2.47,1.69-5,3.31-7.38,5.19-1.64,1.31-3.13,2.85-4.65,4.31l-1.09,1-.45.42-.24.22c-.87.8-1.76,1.58-2.7,2.29a18,18,0,0,1-1.87,1.26c.2-.13-.34.12-.64.26l-.11,0-.21-.12-.9-.5c-.5-.3-1-.63-1.46-.95-1-.69-2.11-1.27-3.12-2a84.35,84.35,0,0,1-11.61-9.46c-.39-.4-.78-.8-1.16-1.21-.09-1.87-.16-3.73-.25-5.59a3.78,3.78,0,0,1,1.53-3.36,12.91,12.91,0,0,1,4.58-2.33c9.64-2.58,19.34-3.22,28.05-1.49,5.47,1.43,5.73,1.71,5.78,6.5C628.9,322.1,628.91,323.47,628.91,324.83Z" transform="translate(0.37)"/><path id="Path_4414-9" data-name="Path 4414" class="cls-2" d="M629.49,354.91l-1-.36-.4-.15-.54-.2-.63-.24-1.62-.68q-1.68-.72-3.33-1.53a99.8,99.8,0,0,1-9-5.09c3.31-2.12,6.09-5.23,9-8l.65-.59c.31-.27.63-.54,1-.79,1.27-1,2.59-1.84,3.89-2.74l.46-.32,1.07-.74c0,5,0,10.07.24,15.11Q629.27,351.79,629.49,354.91Z" transform="translate(0.37)"/><path id="Path_4415-9" data-name="Path 4415" class="cls-7" d="M630.42,364.16c-.35.12-.69.26-1,.4-5.45,2.32-9.7,6.9-14.76,10l-.9.53,0,0-.36.18a15.69,15.69,0,0,1-2.15.84c-.11,0-.49.13-.67.18l-.67.09a12.55,12.55,0,0,1-2.21,0l-.41,0-1-.1c-.77-.09-1.54-.19-2.31-.31-1.53-.25-3.05-.55-4.56-.95-.85-.22-1.71-.48-2.55-.76l-.53-.19-.08,0c-.41-.18-.83-.35-1.24-.55a18.63,18.63,0,0,1-2-1.13l-.09-.06-.33-.22,0-.05-.55-.49a20.56,20.56,0,0,0,0-2.83c0-.19,0-.38,0-.57l.94-.61c6.08-4,12.47-8.41,16.5-14.69a92.32,92.32,0,0,0,19.83,9.54l1.11.36C630.3,363.23,630.36,363.69,630.42,364.16Z" transform="translate(0.37)"/><path id="Path_4416-9" data-name="Path 4416" class="cls-8" d="M608.89,418.59c-1.38,2.52-2.6,5.15-3.78,7.81-2.66,6-5.24,12.13-9,17.54-5.91,8.54-13.85,11.47-23.39,9.54-7.64-1.54-12.38-7.39-13.48-16.12a33.58,33.58,0,0,1,3.53-19.22c3.58-7.39,8.4-13.86,13.19-20.36,4.41-6,9-11.77,13.18-18,.21-.32.41-.64.59-1l.89.53a29.47,29.47,0,0,0,5.38,2.26,42.08,42.08,0,0,0,6.37,1.49c1.67.94,3.42,1.81,4.17,3.73a17.78,17.78,0,0,1,.79,2.67c.33,9.09.27,18.21,1.32,27.23C608.74,417.37,608.81,418,608.89,418.59Z" transform="translate(0.37)"/><path id="Path_4417-9" data-name="Path 4417" class="cls-2" d="M631.49,397.25a38.68,38.68,0,0,1-5,3.73c-4,2.58-8,5.18-11.32,8.76-.08.08-.14.17-.22.24l-.09-1.42c-.42-7.05-.42-14.14-.72-21.21a16.26,16.26,0,0,1,2.6-5.68,55,55,0,0,0,7.56-5.26c1.47-1.16,3-2.31,4.51-3.33.39-.26.79-.51,1.19-.75l.55-.32,0,0,0,0,.07,0c.29-.15.59-.28.89-.41q1,5.42,2.39,10.74a33.09,33.09,0,0,1,1,5.92A10.38,10.38,0,0,1,631.49,397.25Z" transform="translate(0.37)"/><path id="Path_4418-9" data-name="Path 4418" class="cls-9" d="M559,433.73a8.93,8.93,0,0,0,5.88,3.87,25,25,0,0,0,7.08.16" transform="translate(0.37)"/><path id="Path_4419-9" data-name="Path 4419" class="cls-10" d="M595.89,315.89a13,13,0,0,0,.35,5" transform="translate(0.37)"/><path id="Path_4420-9" data-name="Path 4420" class="cls-10" d="M599.61,314.59l.22,4a4.66,4.66,0,0,0,.22,1.44" transform="translate(0.37)"/><path id="Path_4421-9" data-name="Path 4421" class="cls-10" d="M606.69,313.91a29.08,29.08,0,0,1,.32,3.95" transform="translate(0.37)"/><path id="Path_4422-9" data-name="Path 4422" class="cls-10" d="M602.94,314.36l.22,3.12" transform="translate(0.37)"/><path id="Path_4423-9" data-name="Path 4423" class="cls-10" d="M611.37,313.83v3.88" transform="translate(0.37)"/><path id="Path_4424-9" data-name="Path 4424" class="cls-10" d="M617,313.84c-.23,1.32-.53,2.64-.89,3.94" transform="translate(0.37)"/><path id="Path_4425-9" data-name="Path 4425" class="cls-10" d="M621.59,314.82c-.25,1.43-.56,2.85-.94,4.26" transform="translate(0.37)"/></g><g id="Group_2-10" data-name="Group 2"><path id="Path_4412-10" data-name="Path 4412" class="cls-2" d="M45,315.15l-.17.28-.28.43-.56.78a29.62,29.62,0,0,1-2.17,2.58c-.41.43-.83.85-1.25,1.27l-.13.13,0,0-.74.66a67.61,67.61,0,0,1-6.5,5l-1,.65q-.75-11.28-1.46-22.56l1.09.9c2.06,1.68,4.19,3.25,6.32,4.79a76.14,76.14,0,0,0,6.49,4.25l.28.15A3.25,3.25,0,0,0,45,315.15Z" transform="translate(0.37)"/><path id="Path_4413-10" data-name="Path 4413" class="cls-6" d="M69.76,291.83l-1.1.74-1,.7c-2.47,1.7-5,3.32-7.39,5.2-1.64,1.3-3.13,2.84-4.64,4.3l-1.1,1.05-.44.42-.24.22c-.88.8-1.77,1.57-2.71,2.29A17.86,17.86,0,0,1,49.26,308c.2-.14-.34.12-.65.26l-.1,0-.21-.12c-.3-.16-.61-.32-.9-.5-.5-.3-1-.62-1.46-.95-1-.68-2.11-1.27-3.13-2a85.08,85.08,0,0,1-11.6-9.47c-.39-.39-.78-.8-1.16-1.21-.1-1.86-.16-3.72-.26-5.58a3.76,3.76,0,0,1,1.54-3.36,12.75,12.75,0,0,1,4.58-2.33c9.63-2.59,19.34-3.23,28-1.49,5.48,1.43,5.74,1.71,5.79,6.49C69.75,289.1,69.76,290.46,69.76,291.83Z" transform="translate(0.37)"/><path id="Path_4414-10" data-name="Path 4414" class="cls-2" d="M70.34,321.91l-1-.37-.41-.14-.53-.2-.63-.25-1.63-.67c-1.12-.48-2.23-1-3.32-1.54a97.5,97.5,0,0,1-9-5.08c3.31-2.12,6.09-5.24,9-8,0,0,.5-.45.66-.58.31-.28.63-.54,1-.8,1.26-.95,2.59-1.83,3.89-2.74l.46-.32,1.07-.74c0,5,0,10.08.23,15.12Q70.11,318.79,70.34,321.91Z" transform="translate(0.37)"/><path id="Path_4415-10" data-name="Path 4415" class="cls-7" d="M71.27,331.15l-1,.4c-5.46,2.33-9.7,6.91-14.76,10-.3.19-.61.35-.91.54l0,0-.35.17a15.37,15.37,0,0,1-2.16.85l-.66.17-.68.1a12.54,12.54,0,0,1-2.21,0l-.4,0-1-.1c-.77-.09-1.54-.2-2.31-.32-1.53-.24-3.06-.55-4.56-.94-.86-.23-1.71-.48-2.55-.77l-.54-.19-.07,0c-.42-.17-.83-.35-1.24-.54a16.44,16.44,0,0,1-2.05-1.14l-.09-.05-.33-.23-.06,0-.54-.49a22.27,22.27,0,0,0,0-2.83c0-.19,0-.38,0-.57l.94-.61c6.07-4,12.47-8.42,16.5-14.69A92.76,92.76,0,0,0,70,329.39l1.11.37C71.15,330.22,71.21,330.69,71.27,331.15Z" transform="translate(0.37)"/><path id="Path_4416-10" data-name="Path 4416" class="cls-8" d="M49.74,385.58c-1.38,2.52-2.6,5.15-3.78,7.82-2.66,6-5.24,12.13-9,17.54-5.91,8.53-13.85,11.46-23.39,9.54C5.93,418.94,1.2,413.08.09,404.35a33.63,33.63,0,0,1,3.53-19.21c3.58-7.4,8.41-13.86,13.2-20.36,4.4-6,9-11.77,13.17-18,.21-.32.41-.64.6-1,.29.19.58.37.88.53a28.68,28.68,0,0,0,5.38,2.26,44,44,0,0,0,6.37,1.5c1.67.93,3.43,1.81,4.18,3.73a18.64,18.64,0,0,1,.79,2.67c.32,9.09.27,18.21,1.32,27.23C49.58,384.37,49.66,385,49.74,385.58Z" transform="translate(0.37)"/><path id="Path_4417-10" data-name="Path 4417" class="cls-2" d="M72.34,364.25A39,39,0,0,1,67.28,368c-4,2.57-8,5.17-11.32,8.76l-.21.24-.09-1.42c-.42-7.06-.43-14.15-.72-21.22a16.5,16.5,0,0,1,2.59-5.68,52.7,52.7,0,0,0,7.56-5.26c1.48-1.16,3-2.31,4.51-3.33l1.2-.75.54-.31.06,0,0,0,.08,0,.89-.4c.65,3.6,1.43,7.18,2.39,10.74a34.62,34.62,0,0,1,1,5.92A10.4,10.4,0,0,1,72.34,364.25Z" transform="translate(0.37)"/><path id="Path_4418-10" data-name="Path 4418" class="cls-9" d="M-.15,400.72a9,9,0,0,0,5.89,3.88,25,25,0,0,0,7.07.16" transform="translate(0.37)"/><path id="Path_4419-10" data-name="Path 4419" class="cls-10" d="M36.73,282.88a13.27,13.27,0,0,0,.36,5" transform="translate(0.37)"/><path id="Path_4420-10" data-name="Path 4420" class="cls-10" d="M40.46,281.59l.21,4a4.91,4.91,0,0,0,.22,1.43" transform="translate(0.37)"/><path id="Path_4421-10" data-name="Path 4421" class="cls-10" d="M47.54,280.9a29.07,29.07,0,0,1,.31,4" transform="translate(0.37)"/><path id="Path_4422-10" data-name="Path 4422" class="cls-10" d="M43.79,281.36l.22,3.12" transform="translate(0.37)"/><path id="Path_4423-10" data-name="Path 4423" class="cls-10" d="M52.22,280.83v3.87" transform="translate(0.37)"/><path id="Path_4424-10" data-name="Path 4424" class="cls-10" d="M57.83,280.83c-.24,1.33-.53,2.64-.89,3.94" transform="translate(0.37)"/><path id="Path_4425-10" data-name="Path 4425" class="cls-10" d="M62.44,281.82c-.26,1.43-.57,2.84-.94,4.25" transform="translate(0.37)"/></g></g></g><line id="Line_7" data-name="Line 7" class="cls-11" x1="421.42" y1="43.84" x2="570.19" y2="43.84"/><line id="Line_8" data-name="Line 8" class="cls-11" x1="103.56" y1="43.84" x2="252.32" y2="43.84"/><text class="cls-12" transform="translate(286.32 46.65)">MEMBERSHIP</text></g></g></svg>