<svg xmlns="http://www.w3.org/2000/svg" xmlns:xlink="http://www.w3.org/1999/xlink" viewBox="0 0 754.18 844.9"><defs><style>.cls-1,.cls-10,.cls-11,.cls-12,.cls-9{fill:none;}.cls-2{fill:#f2de79;}.cls-3{fill:#f8f4eb;}.cls-4{opacity:0.15;}.cls-5{clip-path:url(#clip-path);}.cls-14,.cls-6{fill:#03588c;}.cls-7{fill:#ff9685;}.cls-8{fill:#0388a6;}.cls-9{stroke:#ededed;}.cls-10,.cls-11,.cls-12,.cls-9{stroke-miterlimit:10;}.cls-10,.cls-9{stroke-width:0.52px;}.cls-10{stroke:#00a99d;}.cls-11,.cls-12{stroke:#03588c;}.cls-11{stroke-width:0.41px;}.cls-12{stroke-width:0.55px;}.cls-13,.cls-14{isolation:isolate;}.cls-14{font-size:12px;font-family:NotoSans-Regular, Noto Sans;letter-spacing:0.2em;}</style><clipPath id="clip-path" transform="translate(159.2 96.99)"><rect class="cls-1" x="12" y="9.88" width="276" height="605" rx="25.37"/></clipPath></defs><g id="圖層_2" data-name="圖層 2"><g id="圖層_1-2" data-name="圖層 1"><rect class="cls-2" x="159.2" y="96.99" width="300" height="630" rx="39.52"/><rect class="cls-3" x="171.2" y="106.87" width="276" height="605" rx="25.37"/><g class="cls-4"><g class="cls-5"><g id="Group_2" data-name="Group 2"><path id="Path_4412" data-name="Path 4412" class="cls-2" d="M14.43,3.9c0,.08-.11.19-.16.28s-.25.4-.28.43c-.18.27-.37.52-.56.78A31.26,31.26,0,0,1,11.28,8c-.41.43-.83.85-1.25,1.27l-.13.14,0,0-.73.65a66.72,66.72,0,0,1-6.46,5l-1,.65Q1,4.41.27-6.88c.35.31.71.61,1.08.91,2,1.67,4.16,3.24,6.28,4.78a75.5,75.5,0,0,0,6.45,4.25l.27.15A5.4,5.4,0,0,0,14.43,3.9Z" transform="translate(159.2 96.99)"/><path id="Path_4413" data-name="Path 4413" class="cls-6" d="M39.1-19.42l-1.1.75L37-18c-2.45,1.7-5,3.32-7.34,5.2C28-11.48,26.54-9.94,25-8.48c-.36.36-.73.7-1.09,1.05,0,0-.44.42-.44.42l-.24.22c-.87.8-1.76,1.58-2.69,2.29a17.73,17.73,0,0,1-1.85,1.26c.2-.13-.34.12-.64.26L18-3l-.21-.11c-.29-.17-.6-.33-.89-.51-.49-.29-1-.62-1.45-.94-1-.69-2.1-1.28-3.11-2A83.75,83.75,0,0,1,.78-16c-.39-.39-.78-.8-1.16-1.21C-.47-19.11-.53-21-.63-22.83A3.8,3.8,0,0,1,.89-26.19a12.75,12.75,0,0,1,4.56-2.33C15-31.11,24.67-31.74,33.32-30c5.45,1.43,5.71,1.71,5.75,6.5C39.09-22.15,39.09-20.79,39.1-19.42Z" transform="translate(159.2 96.99)"/><path id="Path_4414" data-name="Path 4414" class="cls-2" d="M39.67,10.66l-1-.37-.41-.14-.53-.2-.62-.25C36.53,9.49,36,9.26,35.45,9q-1.66-.72-3.3-1.53A99,99,0,0,1,23.2,2.41c3.29-2.12,6.05-5.24,8.9-7.95l.65-.59c.31-.27.63-.54,1-.79,1.26-1,2.57-1.84,3.86-2.74L38-10l1.07-.73c0,5,0,10.07.23,15.11Q39.45,7.54,39.67,10.66Z" transform="translate(159.2 96.99)"/><path id="Path_4415" data-name="Path 4415" class="cls-7" d="M40.59,19.9c-.34.13-.68.26-1,.41-5.42,2.32-9.64,6.9-14.67,10l-.9.53,0,0-.35.18a17,17,0,0,1-2.14.84l-.66.18-.67.09a12.44,12.44,0,0,1-2.2,0l-.41,0-.95-.1c-.77-.09-1.53-.19-2.29-.32-1.53-.24-3-.55-4.54-.94-.85-.22-1.7-.48-2.53-.77l-.53-.19-.08,0-1.23-.54a18.5,18.5,0,0,1-2-1.13l-.09-.06-.33-.22s0,0-.05-.05l-.55-.49a22.27,22.27,0,0,0,0-2.83c0-.19,0-.38,0-.57l.93-.61c6-4,12.4-8.41,16.41-14.69a91.58,91.58,0,0,0,19.7,9.54l1.1.36C40.48,19,40.54,19.44,40.59,19.9Z" transform="translate(159.2 96.99)"/><path id="Path_4416" data-name="Path 4416" class="cls-8" d="M19.2,74.34c-1.38,2.51-2.59,5.14-3.76,7.81-2.64,6-5.21,12.13-8.94,17.54-5.87,8.53-13.76,11.46-23.25,9.54-7.6-1.54-12.3-7.39-13.4-16.13a33.72,33.72,0,0,1,3.51-19.21C-23.08,66.5-18.29,60-13.53,53.53c4.38-6,9-11.77,13.1-18,.21-.32.41-.64.59-1,.29.18.58.36.88.53a29.19,29.19,0,0,0,5.35,2.26,43.1,43.1,0,0,0,6.33,1.49c1.66.93,3.4,1.81,4.15,3.73a19,19,0,0,1,.79,2.67c.32,9.09.26,18.21,1.31,27.23C19,73.12,19.12,73.73,19.2,74.34Z" transform="translate(159.2 96.99)"/><path id="Path_4417" data-name="Path 4417" class="cls-2" d="M41.66,53a37.83,37.83,0,0,1-5,3.73c-4,2.58-7.93,5.18-11.25,8.76l-.21.24-.09-1.42c-.42-7.05-.42-14.14-.71-21.21a16.5,16.5,0,0,1,2.57-5.69,53.65,53.65,0,0,0,7.52-5.25c1.46-1.16,2.93-2.31,4.48-3.34.39-.26.79-.51,1.19-.75l.54-.31.06,0,0,0,.07,0c.3-.15.59-.28.89-.41.64,3.6,1.43,7.19,2.38,10.74a34,34,0,0,1,1,5.92A10.42,10.42,0,0,1,41.66,53Z" transform="translate(159.2 96.99)"/><path id="Path_4418" data-name="Path 4418" class="cls-9" d="M-30.39,89.48a8.89,8.89,0,0,0,5.85,3.87,24.71,24.71,0,0,0,7,.16" transform="translate(159.2 96.99)"/><path id="Path_4419" data-name="Path 4419" class="cls-10" d="M6.27-28.36a13.44,13.44,0,0,0,.35,5" transform="translate(159.2 96.99)"/><path id="Path_4420" data-name="Path 4420" class="cls-10" d="M10-29.66l.21,4a5.4,5.4,0,0,0,.22,1.44" transform="translate(159.2 96.99)"/><path id="Path_4421" data-name="Path 4421" class="cls-10" d="M17-30.34a28.82,28.82,0,0,1,.31,3.95" transform="translate(159.2 96.99)"/><path id="Path_4422" data-name="Path 4422" class="cls-10" d="M13.28-29.89l.22,3.12" transform="translate(159.2 96.99)"/><path id="Path_4423" data-name="Path 4423" class="cls-10" d="M21.66-30.42v3.88" transform="translate(159.2 96.99)"/><path id="Path_4424" data-name="Path 4424" class="cls-10" d="M27.24-30.42a40.13,40.13,0,0,1-.89,3.94" transform="translate(159.2 96.99)"/><path id="Path_4425" data-name="Path 4425" class="cls-10" d="M31.82-29.43c-.25,1.43-.56,2.85-.93,4.25" transform="translate(159.2 96.99)"/></g><g id="Group_2-2" data-name="Group 2"><path id="Path_4412-2" data-name="Path 4412" class="cls-2" d="M127.2,132.67,127,133c-.09.14-.25.4-.28.43-.18.27-.37.52-.55.78a33.51,33.51,0,0,1-2.16,2.58c-.41.43-.83.85-1.25,1.27l-.13.14,0,0-.73.65a65.52,65.52,0,0,1-6.46,5l-1,.65q-.77-11.26-1.45-22.56l1.08.91c2,1.67,4.16,3.24,6.28,4.78a75.5,75.5,0,0,0,6.45,4.25l.27.15A4.08,4.08,0,0,0,127.2,132.67Z" transform="translate(159.2 96.99)"/><path id="Path_4413-2" data-name="Path 4413" class="cls-6" d="M151.86,109.35l-1.09.75-1,.69c-2.45,1.7-5,3.32-7.34,5.2-1.63,1.3-3.11,2.84-4.62,4.3-.36.36-.72.7-1.09,1,0,0-.44.42-.44.42L136,122c-.87.8-1.75,1.58-2.68,2.29a19,19,0,0,1-1.86,1.26c.2-.13-.34.12-.64.26l-.1,0-.21-.12-.9-.5c-.49-.3-1-.63-1.45-1-1-.69-2.1-1.28-3.11-2a83,83,0,0,1-11.53-9.47c-.39-.39-.77-.8-1.15-1.21-.1-1.86-.16-3.72-.26-5.58a3.78,3.78,0,0,1,1.53-3.36,12.62,12.62,0,0,1,4.55-2.33c9.58-2.59,19.23-3.22,27.88-1.49,5.44,1.43,5.7,1.71,5.75,6.5C151.85,106.62,151.86,108,151.86,109.35Z" transform="translate(159.2 96.99)"/><path id="Path_4414-2" data-name="Path 4414" class="cls-2" d="M152.44,139.43l-1.05-.37-.4-.14-.53-.2-.63-.25c-.54-.21-1.08-.44-1.61-.67-1.12-.48-2.22-1-3.31-1.53a99,99,0,0,1-8.95-5.09c3.29-2.12,6-5.24,8.91-8l.64-.59c.32-.27.63-.54,1-.79,1.26-1,2.58-1.84,3.87-2.74l.46-.33,1.06-.73c0,5,0,10.07.23,15.11Q152.21,136.31,152.44,139.43Z" transform="translate(159.2 96.99)"/><path id="Path_4415-2" data-name="Path 4415" class="cls-7" d="M153.36,148.67c-.35.13-.69.26-1,.41-5.43,2.32-9.65,6.9-14.67,10l-.91.53,0,0-.36.18a15.08,15.08,0,0,1-2.14.84l-.66.18-.67.09a12.44,12.44,0,0,1-2.2,0l-.4,0-1-.1c-.76-.09-1.53-.19-2.29-.32-1.52-.24-3-.55-4.53-.94-.86-.22-1.7-.48-2.54-.77l-.53-.19a.11.11,0,0,1-.07,0c-.42-.17-.83-.35-1.24-.54a18.5,18.5,0,0,1-2-1.13l-.08-.06c-.12-.07-.22-.15-.33-.22l-.06-.05-.54-.49a22.27,22.27,0,0,0,0-2.83c0-.19,0-.38,0-.57l.93-.61c6-4,12.4-8.41,16.41-14.69a91.58,91.58,0,0,0,19.7,9.54l1.11.36C153.24,147.74,153.3,148.21,153.36,148.67Z" transform="translate(159.2 96.99)"/><path id="Path_4416-2" data-name="Path 4416" class="cls-8" d="M132,203.11c-1.38,2.51-2.59,5.14-3.76,7.81-2.64,6-5.21,12.13-8.94,17.54C113.39,237,105.5,239.92,96,238c-7.6-1.54-12.31-7.39-13.41-16.13a33.8,33.8,0,0,1,3.51-19.21c3.56-7.39,8.36-13.86,13.12-20.36,4.37-6,9-11.77,13.09-18,.21-.32.41-.64.59-1l.88.53a29.79,29.79,0,0,0,5.35,2.26,43.4,43.4,0,0,0,6.33,1.49c1.66.93,3.4,1.81,4.15,3.73a19,19,0,0,1,.79,2.67c.32,9.09.27,18.21,1.31,27.23C131.8,201.89,131.88,202.5,132,203.11Z" transform="translate(159.2 96.99)"/><path id="Path_4417-2" data-name="Path 4417" class="cls-2" d="M154.43,181.77a39.17,39.17,0,0,1-5,3.73c-4,2.58-7.93,5.18-11.25,8.76l-.22.24-.09-1.42c-.41-7.05-.42-14.14-.71-21.21a16.21,16.21,0,0,1,2.58-5.68,54.48,54.48,0,0,0,7.51-5.26c1.47-1.16,2.93-2.31,4.48-3.34.4-.26.79-.51,1.19-.75l.54-.31.06,0,0,0,.07,0c.3-.15.59-.28.89-.41.65,3.6,1.43,7.19,2.38,10.74a34,34,0,0,1,1,5.92A10.44,10.44,0,0,1,154.43,181.77Z" transform="translate(159.2 96.99)"/><path id="Path_4418-2" data-name="Path 4418" class="cls-9" d="M82.37,218.25a8.92,8.92,0,0,0,5.85,3.87,24.71,24.71,0,0,0,7,.16" transform="translate(159.2 96.99)"/><path id="Path_4419-2" data-name="Path 4419" class="cls-10" d="M119,100.41a13.24,13.24,0,0,0,.36,5" transform="translate(159.2 96.99)"/><path id="Path_4420-2" data-name="Path 4420" class="cls-10" d="M122.74,99.11l.21,4a4.7,4.7,0,0,0,.22,1.44" transform="translate(159.2 96.99)"/><path id="Path_4421-2" data-name="Path 4421" class="cls-10" d="M129.77,98.43a28.82,28.82,0,0,1,.31,3.95" transform="translate(159.2 96.99)"/><path id="Path_4422-2" data-name="Path 4422" class="cls-10" d="M126,98.88l.22,3.12" transform="translate(159.2 96.99)"/><path id="Path_4423-2" data-name="Path 4423" class="cls-10" d="M134.42,98.35v3.88" transform="translate(159.2 96.99)"/><path id="Path_4424-2" data-name="Path 4424" class="cls-10" d="M140,98.35c-.23,1.33-.53,2.65-.88,3.94" transform="translate(159.2 96.99)"/><path id="Path_4425-2" data-name="Path 4425" class="cls-10" d="M144.58,99.34c-.25,1.43-.56,2.85-.93,4.25" transform="translate(159.2 96.99)"/></g><g id="Group_2-3" data-name="Group 2"><path id="Path_4412-3" data-name="Path 4412" class="cls-2" d="M192.85-60.48l-.16.28-.29.43c-.18.26-.36.52-.55.77a26.82,26.82,0,0,1-2.16,2.58c-.4.44-.82.86-1.24,1.28l-.13.13s0,0,0,0l-.73.65a68.46,68.46,0,0,1-6.46,5l-1,.65q-.75-11.28-1.45-22.57l1.08.91c2.05,1.68,4.16,3.25,6.28,4.78a73.45,73.45,0,0,0,6.46,4.26l.27.14A3.27,3.27,0,0,0,192.85-60.48Z" transform="translate(159.2 96.99)"/><path id="Path_4413-3" data-name="Path 4413" class="cls-6" d="M217.51-83.8l-1.09.74-1,.7c-2.45,1.69-5,3.32-7.34,5.19-1.63,1.31-3.11,2.85-4.62,4.31l-1.08,1-.45.42-.23.21c-.87.8-1.76,1.58-2.69,2.29a19,19,0,0,1-1.86,1.26c.21-.13-.34.13-.64.26l-.1,0-.21-.12c-.3-.17-.6-.32-.9-.5-.49-.3-1-.63-1.45-1-1-.69-2.09-1.27-3.1-2a84.57,84.57,0,0,1-11.54-9.47c-.39-.4-.77-.8-1.15-1.21-.09-1.86-.16-3.72-.26-5.58a3.79,3.79,0,0,1,1.53-3.36,12.59,12.59,0,0,1,4.56-2.33c9.57-2.59,19.22-3.23,27.87-1.49,5.44,1.43,5.7,1.7,5.75,6.49C217.5-86.54,217.51-85.17,217.51-83.8Z" transform="translate(159.2 96.99)"/><path id="Path_4414-3" data-name="Path 4414" class="cls-2" d="M218.09-53.72,217-54.09l-.4-.15-.53-.19s-.63-.25-.63-.25c-.54-.22-1.07-.44-1.61-.68-1.12-.48-2.22-1-3.31-1.53A97.85,97.85,0,0,1,201.61-62c3.29-2.12,6.06-5.24,8.91-8l.65-.59c.31-.27.62-.54,1-.79,1.26-1,2.58-1.83,3.87-2.74l.46-.32,1.06-.74c0,5,0,10.08.23,15.12Q217.86-56.85,218.09-53.72Z" transform="translate(159.2 96.99)"/><path id="Path_4415-3" data-name="Path 4415" class="cls-7" d="M219-44.48c-.34.12-.68.26-1,.4-5.42,2.32-9.65,6.91-14.67,10-.3.19-.61.35-.9.53l0,0-.36.18a14,14,0,0,1-2.14.84c-.11,0-.48.13-.66.18l-.67.1a13.46,13.46,0,0,1-2.2,0l-.4,0-1-.11c-.77-.08-1.54-.19-2.3-.31-1.52-.25-3-.55-4.53-1-.85-.22-1.7-.47-2.54-.76l-.53-.19-.07,0c-.42-.17-.83-.35-1.23-.55a16.25,16.25,0,0,1-2-1.13l-.09-.05-.33-.23-.06-.05-.54-.48a20.55,20.55,0,0,0,0-2.83c0-.2,0-.38,0-.58l.94-.61c6-4,12.39-8.41,16.4-14.69a91.43,91.43,0,0,0,19.71,9.54c.36.13.73.25,1.1.36C218.89-45.41,219-44.95,219-44.48Z" transform="translate(159.2 96.99)"/><path id="Path_4416-3" data-name="Path 4416" class="cls-8" d="M197.61,10c-1.37,2.52-2.59,5.15-3.75,7.81-2.65,6-5.22,12.14-8.94,17.55-5.88,8.53-13.77,11.46-23.25,9.54-7.6-1.55-12.31-7.4-13.4-16.13a33.73,33.73,0,0,1,3.5-19.22c3.56-7.39,8.36-13.85,13.12-20.35,4.38-6,9-11.78,13.09-18,.22-.32.41-.65.6-1,.29.19.58.36.88.53A28.71,28.71,0,0,0,184.8-27a42.15,42.15,0,0,0,6.33,1.49c1.67.94,3.41,1.81,4.15,3.74a17.44,17.44,0,0,1,.79,2.67c.32,9.09.27,18.2,1.31,27.23C197.46,8.73,197.53,9.34,197.61,10Z" transform="translate(159.2 96.99)"/><path id="Path_4417-3" data-name="Path 4417" class="cls-2" d="M220.08-11.38a39.42,39.42,0,0,1-5,3.73c-4,2.57-7.93,5.17-11.25,8.76l-.21.23c0-.47-.06-.94-.09-1.41-.42-7.06-.43-14.15-.72-21.22A16.48,16.48,0,0,1,205.36-27a53.05,53.05,0,0,0,7.51-5.26c1.47-1.16,2.94-2.31,4.49-3.33.39-.26.79-.51,1.19-.75l.54-.31,0,0,0,0,.07,0,.88-.41c.65,3.61,1.43,7.19,2.38,10.75a33.65,33.65,0,0,1,1,5.92A10.42,10.42,0,0,1,220.08-11.38Z" transform="translate(159.2 96.99)"/><path id="Path_4418-3" data-name="Path 4418" class="cls-9" d="M148,25.09A8.93,8.93,0,0,0,153.88,29a24.33,24.33,0,0,0,7,.15" transform="translate(159.2 96.99)"/><path id="Path_4419-3" data-name="Path 4419" class="cls-10" d="M184.68-92.75a13.21,13.21,0,0,0,.36,5" transform="translate(159.2 96.99)"/><path id="Path_4420-3" data-name="Path 4420" class="cls-10" d="M188.39-94l.21,4a5,5,0,0,0,.22,1.44" transform="translate(159.2 96.99)"/><path id="Path_4421-3" data-name="Path 4421" class="cls-10" d="M195.43-94.73a30.77,30.77,0,0,1,.31,4" transform="translate(159.2 96.99)"/><path id="Path_4422-3" data-name="Path 4422" class="cls-10" d="M191.69-94.27l.23,3.11" transform="translate(159.2 96.99)"/><path id="Path_4423-3" data-name="Path 4423" class="cls-10" d="M200.08-94.8v3.87" transform="translate(159.2 96.99)"/><path id="Path_4424-3" data-name="Path 4424" class="cls-10" d="M205.65-94.8c-.23,1.33-.52,2.64-.88,3.94" transform="translate(159.2 96.99)"/><path id="Path_4425-3" data-name="Path 4425" class="cls-10" d="M210.23-93.81c-.25,1.42-.56,2.84-.93,4.25" transform="translate(159.2 96.99)"/></g><g id="Group_2-4" data-name="Group 2"><path id="Path_4412-4" data-name="Path 4412" class="cls-2" d="M315.13,42.86l-.16.28-.28.43c-.18.26-.37.52-.56.77A29.82,29.82,0,0,1,312,46.93c-.41.43-.83.85-1.25,1.27l-.13.13,0,0c-.24.22-.48.44-.73.65a68.46,68.46,0,0,1-6.46,5l-1,.65q-.75-11.28-1.44-22.56l1.08.9c2,1.68,4.16,3.25,6.28,4.78A73.3,73.3,0,0,0,314.78,42l.27.14A5.35,5.35,0,0,0,315.13,42.86Z" transform="translate(159.2 96.99)"/><path id="Path_4413-4" data-name="Path 4413" class="cls-6" d="M339.8,19.54l-1.09.74-1,.7c-2.45,1.7-5,3.32-7.34,5.19-1.63,1.31-3.11,2.85-4.62,4.31l-1.09,1.05-.44.42-.24.22c-.87.79-1.75,1.57-2.69,2.28a17.73,17.73,0,0,1-1.85,1.26c.2-.13-.34.13-.64.26l-.11,0-.21-.12c-.29-.16-.6-.32-.89-.5-.49-.3-1-.63-1.45-1-1-.69-2.1-1.27-3.11-2a84.48,84.48,0,0,1-11.53-9.47c-.39-.4-.78-.8-1.16-1.21-.09-1.86-.15-3.72-.25-5.58a3.78,3.78,0,0,1,1.52-3.36,12.75,12.75,0,0,1,4.56-2.33C315.73,7.85,325.37,7.21,334,9c5.45,1.43,5.71,1.71,5.75,6.49C339.79,16.8,339.79,18.17,339.8,19.54Z" transform="translate(159.2 96.99)"/><path id="Path_4414-4" data-name="Path 4414" class="cls-2" d="M340.38,49.62l-1.05-.37-.41-.15-.53-.19s-.62-.25-.62-.25c-.54-.22-1.08-.44-1.62-.68q-1.66-.72-3.3-1.53a96.53,96.53,0,0,1-9-5.08c3.29-2.12,6.05-5.24,8.9-8l.65-.59c.31-.27.63-.54,1-.79,1.26-1,2.57-1.83,3.86-2.74l.46-.32,1.07-.74c0,5,0,10.08.23,15.12C340.11,45.44,340.22,47.53,340.38,49.62Z" transform="translate(159.2 96.99)"/><path id="Path_4415-4" data-name="Path 4415" class="cls-7" d="M341.29,58.86c-.34.12-.68.26-1,.4-5.42,2.32-9.64,6.91-14.67,10-.29.19-.61.35-.9.54h0l-.35.18a15.62,15.62,0,0,1-2.14.85l-.66.17-.67.1a13.47,13.47,0,0,1-2.2,0l-.41,0-.95-.11c-.76-.08-1.53-.19-2.29-.31-1.53-.24-3-.55-4.54-.94-.85-.23-1.7-.48-2.53-.77l-.53-.19-.08,0-1.23-.54a18.58,18.58,0,0,1-2-1.14L304,67l-.33-.23-.05,0-.55-.49a20.55,20.55,0,0,0,0-2.83c0-.2,0-.38,0-.58l.93-.61c6-4,12.4-8.41,16.41-14.69A91.58,91.58,0,0,0,340,57.1l1.1.37C341.18,57.93,341.24,58.39,341.29,58.86Z" transform="translate(159.2 96.99)"/><path id="Path_4416-4" data-name="Path 4416" class="cls-8" d="M319.9,113.29c-1.38,2.52-2.59,5.15-3.76,7.81-2.64,6.05-5.21,12.14-8.94,17.55-5.87,8.53-13.76,11.46-23.25,9.54-7.6-1.55-12.3-7.4-13.4-16.13a33.74,33.74,0,0,1,3.51-19.22c3.56-7.39,8.36-13.85,13.11-20.35,4.38-6,9-11.78,13.1-18,.21-.32.41-.64.59-1,.29.19.58.36.88.53a28.52,28.52,0,0,0,5.35,2.26,41.86,41.86,0,0,0,6.33,1.49c1.66.94,3.4,1.81,4.15,3.74a18.64,18.64,0,0,1,.79,2.67c.32,9.09.26,18.2,1.31,27.23C319.74,112.08,319.82,112.68,319.9,113.29Z" transform="translate(159.2 96.99)"/><path id="Path_4417-4" data-name="Path 4417" class="cls-2" d="M342.36,92a38.73,38.73,0,0,1-5,3.73c-4,2.57-7.93,5.17-11.25,8.76l-.21.23-.09-1.41c-.42-7.06-.42-14.15-.71-21.22a16.29,16.29,0,0,1,2.58-5.68,53.38,53.38,0,0,0,7.51-5.26c1.46-1.16,2.93-2.31,4.48-3.33.39-.26.79-.51,1.19-.75l.54-.31.06,0,0,0,.07,0,.89-.4q1,5.4,2.38,10.74a33.65,33.65,0,0,1,1,5.92A10.43,10.43,0,0,1,342.36,92Z" transform="translate(159.2 96.99)"/><path id="Path_4418-4" data-name="Path 4418" class="cls-9" d="M270.31,128.43a8.91,8.91,0,0,0,5.85,3.88,24.71,24.71,0,0,0,7,.16" transform="translate(159.2 96.99)"/><path id="Path_4419-4" data-name="Path 4419" class="cls-10" d="M307,10.59a13.41,13.41,0,0,0,.35,5" transform="translate(159.2 96.99)"/><path id="Path_4420-4" data-name="Path 4420" class="cls-10" d="M310.67,9.3l.22,4a5,5,0,0,0,.21,1.43" transform="translate(159.2 96.99)"/><path id="Path_4421-4" data-name="Path 4421" class="cls-10" d="M317.71,8.61a29.07,29.07,0,0,1,.31,4" transform="translate(159.2 96.99)"/><path id="Path_4422-4" data-name="Path 4422" class="cls-10" d="M314,9.07l.22,3.11" transform="translate(159.2 96.99)"/><path id="Path_4423-4" data-name="Path 4423" class="cls-10" d="M322.36,8.54v3.87" transform="translate(159.2 96.99)"/><path id="Path_4424-4" data-name="Path 4424" class="cls-10" d="M327.94,8.54c-.23,1.33-.53,2.64-.89,3.94" transform="translate(159.2 96.99)"/><path id="Path_4425-4" data-name="Path 4425" class="cls-10" d="M332.52,9.53c-.25,1.42-.56,2.84-.93,4.25" transform="translate(159.2 96.99)"/></g><g id="Group_2-5" data-name="Group 2"><path id="Path_4412-5" data-name="Path 4412" class="cls-2" d="M227.93,234.93l-.16.28c-.09.13-.26.4-.29.43l-.55.78a31.26,31.26,0,0,1-2.15,2.58c-.41.43-.83.85-1.25,1.27l-.13.13,0,0-.73.66a68.35,68.35,0,0,1-6.46,5l-1,.65q-.75-11.28-1.45-22.56l1.09.91c2,1.67,4.16,3.24,6.28,4.78a74,74,0,0,0,6.45,4.25l.27.15A4.06,4.06,0,0,0,227.93,234.93Z" transform="translate(159.2 96.99)"/><path id="Path_4413-5" data-name="Path 4413" class="cls-6" d="M252.59,211.61l-1.09.75-1,.69c-2.45,1.7-5,3.32-7.33,5.2-1.63,1.3-3.12,2.84-4.63,4.3l-1.08,1L237,224l-.23.22c-.87.8-1.76,1.57-2.69,2.29a17.73,17.73,0,0,1-1.85,1.26c.2-.13-.34.12-.64.26l-.11,0-.21-.11c-.3-.17-.6-.33-.89-.51-.5-.3-1-.62-1.46-.94-1-.69-2.09-1.28-3.1-2A83.75,83.75,0,0,1,214.28,215c-.4-.39-.78-.8-1.16-1.21-.09-1.86-.16-3.72-.25-5.58a3.77,3.77,0,0,1,1.52-3.36,12.67,12.67,0,0,1,4.56-2.33c9.57-2.59,19.22-3.23,27.87-1.49,5.44,1.43,5.7,1.71,5.75,6.49C252.58,208.88,252.59,210.24,252.59,211.61Z" transform="translate(159.2 96.99)"/><path id="Path_4414-5" data-name="Path 4414" class="cls-2" d="M253.17,241.69l-1-.37-.4-.14-.53-.2-.62-.25c-.54-.21-1.08-.44-1.62-.67-1.11-.48-2.22-1-3.31-1.53a98.81,98.81,0,0,1-8.94-5.09c3.28-2.12,6.05-5.24,8.9-7.95l.65-.59c.31-.28.63-.54,1-.8,1.25-.95,2.57-1.83,3.86-2.74l.46-.32,1.06-.74c0,5,0,10.08.24,15.12Q253,238.57,253.17,241.69Z" transform="translate(159.2 96.99)"/><path id="Path_4415-5" data-name="Path 4415" class="cls-7" d="M254.09,250.93c-.34.13-.68.26-1,.41-5.42,2.32-9.64,6.9-14.67,10-.3.18-.61.34-.9.53l0,0-.36.18a16.38,16.38,0,0,1-2.14.84l-.66.17-.67.1a12.32,12.32,0,0,1-2.19,0l-.41,0-.95-.1c-.77-.09-1.53-.2-2.3-.32-1.52-.24-3-.55-4.53-.94-.85-.22-1.7-.48-2.54-.77l-.53-.19-.07,0c-.41-.17-.83-.35-1.23-.54a17.63,17.63,0,0,1-2-1.13l-.09-.06-.33-.22-.05-.05-.55-.49a20.56,20.56,0,0,0,0-2.83c0-.19,0-.38,0-.57l.94-.61c6-4,12.39-8.41,16.4-14.69a92.13,92.13,0,0,0,19.71,9.54l1.1.36C254,250,254,250.47,254.09,250.93Z" transform="translate(159.2 96.99)"/><path id="Path_4416-5" data-name="Path 4416" class="cls-8" d="M232.69,305.36c-1.37,2.52-2.58,5.15-3.75,7.82-2.65,6-5.21,12.13-8.94,17.54-5.88,8.53-13.76,11.46-23.25,9.54-7.6-1.54-12.31-7.4-13.4-16.13a33.7,33.7,0,0,1,3.51-19.21c3.55-7.39,8.35-13.86,13.11-20.36,4.38-6,9-11.77,13.1-18,.21-.32.4-.64.59-1,.29.19.58.37.88.54a29.19,29.19,0,0,0,5.35,2.26,44.42,44.42,0,0,0,6.33,1.49c1.66.93,3.4,1.81,4.15,3.73a17.74,17.74,0,0,1,.78,2.67c.33,9.09.27,18.21,1.32,27.23C232.54,304.15,232.61,304.76,232.69,305.36Z" transform="translate(159.2 96.99)"/><path id="Path_4417-5" data-name="Path 4417" class="cls-2" d="M255.16,284a38.73,38.73,0,0,1-5,3.73c-4,2.58-7.93,5.17-11.25,8.76l-.21.24-.09-1.42c-.42-7-.43-14.14-.72-21.22a16.56,16.56,0,0,1,2.58-5.68,52.9,52.9,0,0,0,7.52-5.26c1.46-1.15,2.93-2.31,4.48-3.33.39-.26.79-.51,1.19-.75l.54-.31.05,0,0,0,.07,0,.88-.4c.65,3.6,1.43,7.18,2.38,10.74a33.82,33.82,0,0,1,1,5.92A10.41,10.41,0,0,1,255.16,284Z" transform="translate(159.2 96.99)"/><path id="Path_4418-5" data-name="Path 4418" class="cls-9" d="M183.11,320.5a8.88,8.88,0,0,0,5.85,3.88,24.69,24.69,0,0,0,7,.16" transform="translate(159.2 96.99)"/><path id="Path_4419-5" data-name="Path 4419" class="cls-10" d="M219.77,202.66a13.07,13.07,0,0,0,.35,5" transform="translate(159.2 96.99)"/><path id="Path_4420-5" data-name="Path 4420" class="cls-10" d="M223.47,201.37l.21,4a5,5,0,0,0,.22,1.44" transform="translate(159.2 96.99)"/><path id="Path_4421-5" data-name="Path 4421" class="cls-10" d="M230.51,200.69a30.49,30.49,0,0,1,.31,3.95" transform="translate(159.2 96.99)"/><path id="Path_4422-5" data-name="Path 4422" class="cls-10" d="M226.78,201.14l.22,3.12" transform="translate(159.2 96.99)"/><path id="Path_4423-5" data-name="Path 4423" class="cls-10" d="M235.16,200.61v3.87" transform="translate(159.2 96.99)"/><path id="Path_4424-5" data-name="Path 4424" class="cls-10" d="M240.74,200.61c-.24,1.33-.53,2.64-.89,3.94" transform="translate(159.2 96.99)"/><path id="Path_4425-5" data-name="Path 4425" class="cls-10" d="M245.32,201.6c-.26,1.43-.57,2.84-.94,4.25" transform="translate(159.2 96.99)"/></g><g id="Group_2-6" data-name="Group 2"><path id="Path_4412-6" data-name="Path 4412" class="cls-2" d="M412.36,142.41l-.16.28c-.09.13-.26.4-.29.43l-.55.78a31.26,31.26,0,0,1-2.15,2.58c-.41.43-.83.85-1.25,1.27l-.13.14,0,0c-.24.23-.49.44-.73.66a68.35,68.35,0,0,1-6.46,5l-1,.65q-.75-11.28-1.45-22.56l1.09.91c2,1.67,4.16,3.24,6.27,4.78a75.66,75.66,0,0,0,6.46,4.25l.27.15A4.06,4.06,0,0,0,412.36,142.41Z" transform="translate(159.2 96.99)"/><path id="Path_4413-6" data-name="Path 4413" class="cls-6" d="M437,119.09l-1.09.75-1,.69c-2.45,1.7-5,3.32-7.33,5.2-1.64,1.3-3.12,2.84-4.63,4.3l-1.08,1.05-.45.42a2.39,2.39,0,0,1-.23.22c-.87.8-1.76,1.57-2.69,2.29a17.73,17.73,0,0,1-1.85,1.26c.2-.13-.34.12-.64.26l-.11,0-.21-.11c-.3-.17-.6-.33-.89-.51-.5-.29-1-.62-1.46-.94-1-.69-2.09-1.28-3.1-2a83.75,83.75,0,0,1-11.53-9.47c-.4-.39-.78-.8-1.16-1.21-.09-1.86-.16-3.72-.25-5.58a3.77,3.77,0,0,1,1.52-3.36,12.67,12.67,0,0,1,4.56-2.33c9.57-2.59,19.22-3.23,27.87-1.49,5.44,1.43,5.7,1.71,5.75,6.49C437,116.36,437,117.72,437,119.09Z" transform="translate(159.2 96.99)"/><path id="Path_4414-6" data-name="Path 4414" class="cls-2" d="M437.6,149.17l-1.05-.37-.4-.14-.53-.2-.62-.25c-.54-.21-1.08-.44-1.62-.67-1.11-.48-2.22-1-3.31-1.53a100.36,100.36,0,0,1-8.95-5.09c3.29-2.12,6.06-5.24,8.91-7.95l.65-.59c.31-.28.63-.54,1-.8,1.25-1,2.57-1.83,3.86-2.74l.46-.32,1.06-.74c0,5,0,10.08.24,15.12Q437.38,146.05,437.6,149.17Z" transform="translate(159.2 96.99)"/><path id="Path_4415-6" data-name="Path 4415" class="cls-7" d="M438.52,158.41c-.34.13-.68.26-1,.41-5.42,2.32-9.64,6.9-14.67,10-.3.18-.61.34-.9.53l0,0-.36.18a16.38,16.38,0,0,1-2.14.84l-.66.17-.67.1a12.32,12.32,0,0,1-2.19,0l-.41,0-1-.1c-.77-.09-1.53-.2-2.3-.32-1.52-.24-3-.55-4.53-.94-.85-.22-1.7-.48-2.54-.77l-.53-.19-.07,0c-.41-.17-.83-.35-1.23-.54a17.63,17.63,0,0,1-2-1.13l-.09-.06-.33-.22-.05-.05-.55-.49a20.56,20.56,0,0,0,0-2.83c0-.19,0-.38,0-.57l.94-.61c6-4,12.39-8.41,16.4-14.69a91.66,91.66,0,0,0,19.71,9.54l1.1.36C438.41,157.48,438.46,158,438.52,158.41Z" transform="translate(159.2 96.99)"/><path id="Path_4416-6" data-name="Path 4416" class="cls-8" d="M417.12,212.84c-1.37,2.52-2.58,5.15-3.75,7.82-2.65,6-5.21,12.13-8.94,17.54-5.88,8.53-13.76,11.46-23.25,9.54-7.6-1.54-12.31-7.4-13.4-16.13a33.78,33.78,0,0,1,3.5-19.21c3.56-7.39,8.36-13.86,13.12-20.36,4.38-6,9-11.77,13.1-18,.21-.32.4-.64.59-1,.29.19.58.37.88.54a29.4,29.4,0,0,0,5.34,2.26,43.53,43.53,0,0,0,6.34,1.49c1.66.93,3.4,1.81,4.15,3.73a17.74,17.74,0,0,1,.78,2.67c.32,9.09.27,18.21,1.32,27.23C417,211.63,417,212.24,417.12,212.84Z" transform="translate(159.2 96.99)"/><path id="Path_4417-6" data-name="Path 4417" class="cls-2" d="M439.59,191.51a38.73,38.73,0,0,1-5,3.73c-4,2.58-7.93,5.18-11.25,8.76l-.21.24-.09-1.42c-.42-7-.43-14.14-.72-21.21a16.52,16.52,0,0,1,2.58-5.69,52.9,52.9,0,0,0,7.52-5.26c1.46-1.15,2.93-2.31,4.48-3.33.39-.26.79-.51,1.19-.75l.54-.31,0,0,0,0,.07,0,.88-.4c.65,3.6,1.43,7.19,2.38,10.74a33.82,33.82,0,0,1,1,5.92A10.41,10.41,0,0,1,439.59,191.51Z" transform="translate(159.2 96.99)"/><path id="Path_4418-6" data-name="Path 4418" class="cls-9" d="M367.54,228a8.88,8.88,0,0,0,5.85,3.88,24.69,24.69,0,0,0,7,.16" transform="translate(159.2 96.99)"/><path id="Path_4419-6" data-name="Path 4419" class="cls-10" d="M404.19,110.14a13.27,13.27,0,0,0,.36,5" transform="translate(159.2 96.99)"/><path id="Path_4420-6" data-name="Path 4420" class="cls-10" d="M407.9,108.85l.21,4a5,5,0,0,0,.22,1.44" transform="translate(159.2 96.99)"/><path id="Path_4421-6" data-name="Path 4421" class="cls-10" d="M414.94,108.17a30.49,30.49,0,0,1,.31,4" transform="translate(159.2 96.99)"/><path id="Path_4422-6" data-name="Path 4422" class="cls-10" d="M411.21,108.62l.22,3.12" transform="translate(159.2 96.99)"/><path id="Path_4423-6" data-name="Path 4423" class="cls-10" d="M419.59,108.09V112" transform="translate(159.2 96.99)"/><path id="Path_4424-6" data-name="Path 4424" class="cls-10" d="M425.17,108.09c-.24,1.33-.53,2.64-.89,3.94" transform="translate(159.2 96.99)"/><path id="Path_4425-6" data-name="Path 4425" class="cls-10" d="M429.75,109.08c-.26,1.43-.57,2.85-.94,4.25" transform="translate(159.2 96.99)"/></g><g id="Group_2-7" data-name="Group 2"><path id="Path_4412-7" data-name="Path 4412" class="cls-2" d="M463.48-62.11l-.16.28-.29.44-.55.77A29.68,29.68,0,0,1,460.33-58c-.41.43-.83.86-1.25,1.28l-.13.13,0,0-.73.65a66.72,66.72,0,0,1-6.46,5l-1,.66Q450-61.6,449.31-72.89l1.09.91c2,1.67,4.15,3.25,6.27,4.78a75.66,75.66,0,0,0,6.46,4.25l.27.15A3.17,3.17,0,0,0,463.48-62.11Z" transform="translate(159.2 96.99)"/><path id="Path_4413-7" data-name="Path 4413" class="cls-6" d="M488.14-85.43l-1.09.75-1,.7c-2.45,1.69-5,3.31-7.34,5.19-1.63,1.31-3.11,2.85-4.62,4.31l-1.08,1-.45.42-.23.22c-.87.8-1.76,1.58-2.69,2.29a17.86,17.86,0,0,1-1.86,1.26c.21-.13-.34.12-.64.26l-.1,0-.21-.12-.89-.5c-.5-.3-1-.63-1.46-1-1-.69-2.09-1.27-3.1-2A83.76,83.76,0,0,1,449.82-82c-.39-.4-.77-.8-1.15-1.21-.09-1.87-.16-3.73-.25-5.59a3.78,3.78,0,0,1,1.52-3.36,12.74,12.74,0,0,1,4.56-2.33c9.57-2.58,19.22-3.22,27.87-1.49,5.44,1.43,5.7,1.71,5.75,6.5C488.13-88.16,488.14-86.79,488.14-85.43Z" transform="translate(159.2 96.99)"/><path id="Path_4414-7" data-name="Path 4414" class="cls-2" d="M488.72-55.35l-1.05-.36-.4-.15-.53-.2-.62-.24c-.55-.22-1.08-.45-1.62-.68-1.12-.48-2.22-1-3.31-1.53a100.36,100.36,0,0,1-8.95-5.09c3.29-2.12,6.06-5.23,8.91-7.95l.65-.59c.31-.27.63-.54.95-.79,1.26-1,2.58-1.84,3.87-2.74l.46-.32,1.06-.74c0,5,0,10.07.23,15.11Q488.49-58.47,488.72-55.35Z" transform="translate(159.2 96.99)"/><path id="Path_4415-7" data-name="Path 4415" class="cls-7" d="M489.64-46.1c-.34.12-.68.26-1,.4-5.42,2.32-9.65,6.9-14.67,10l-.9.53,0,0-.36.18a15.08,15.08,0,0,1-2.14.84c-.11,0-.48.13-.66.18l-.67.09a12.32,12.32,0,0,1-2.19,0l-.41,0-.95-.1c-.77-.09-1.54-.19-2.3-.31-1.52-.25-3-.55-4.53-.95-.85-.22-1.7-.48-2.54-.76l-.53-.19-.07,0c-.41-.18-.83-.35-1.23-.55a17.63,17.63,0,0,1-2-1.13l-.09-.06-.33-.22-.06-.05-.54-.49a20.56,20.56,0,0,0,0-2.83c0-.19,0-.38,0-.57l.94-.61c6-4,12.39-8.41,16.4-14.69a91.43,91.43,0,0,0,19.71,9.54c.36.12.73.25,1.1.36C489.52-47,489.58-46.57,489.64-46.1Z" transform="translate(159.2 96.99)"/><path id="Path_4416-7" data-name="Path 4416" class="cls-8" d="M468.24,8.33c-1.37,2.52-2.58,5.15-3.75,7.81-2.65,6-5.21,12.13-8.94,17.54-5.88,8.54-13.77,11.47-23.25,9.54-7.6-1.54-12.31-7.39-13.4-16.12a33.73,33.73,0,0,1,3.5-19.22C426,.49,430.76-6,435.52-12.48c4.38-6,9-11.77,13.09-18,.22-.32.41-.64.6-1,.29.18.58.36.88.53a29.4,29.4,0,0,0,5.34,2.26,42,42,0,0,0,6.34,1.49c1.66.94,3.4,1.81,4.14,3.73a17.78,17.78,0,0,1,.79,2.67C467-11.64,467-2.52,468,6.5,468.09,7.11,468.16,7.72,468.24,8.33Z" transform="translate(159.2 96.99)"/><path id="Path_4417-7" data-name="Path 4417" class="cls-2" d="M490.71-13a37.83,37.83,0,0,1-5,3.73c-4,2.58-7.93,5.18-11.25,8.76-.07.08-.14.17-.21.24,0-.47-.06-.95-.09-1.42-.42-7-.43-14.14-.72-21.21A16.39,16.39,0,0,1,476-28.59a53.88,53.88,0,0,0,7.51-5.26C485-35,486.44-36.16,488-37.18c.39-.26.79-.51,1.19-.75l.54-.32,0,0,0,0,.07,0c.29-.15.59-.28.88-.41.65,3.61,1.43,7.19,2.38,10.74a34,34,0,0,1,1,5.92A10.41,10.41,0,0,1,490.71-13Z" transform="translate(159.2 96.99)"/><path id="Path_4418-7" data-name="Path 4418" class="cls-9" d="M418.65,23.47a8.91,8.91,0,0,0,5.86,3.87,24.69,24.69,0,0,0,7,.16" transform="translate(159.2 96.99)"/><path id="Path_4419-7" data-name="Path 4419" class="cls-10" d="M455.31-94.37a13.22,13.22,0,0,0,.36,5" transform="translate(159.2 96.99)"/><path id="Path_4420-7" data-name="Path 4420" class="cls-10" d="M459-95.67l.21,4a5,5,0,0,0,.22,1.44" transform="translate(159.2 96.99)"/><path id="Path_4421-7" data-name="Path 4421" class="cls-10" d="M466.06-96.35a30.77,30.77,0,0,1,.31,3.95" transform="translate(159.2 96.99)"/><path id="Path_4422-7" data-name="Path 4422" class="cls-10" d="M462.32-95.9l.23,3.12" transform="translate(159.2 96.99)"/><path id="Path_4423-7" data-name="Path 4423" class="cls-10" d="M470.71-96.43v3.88" transform="translate(159.2 96.99)"/><path id="Path_4424-7" data-name="Path 4424" class="cls-10" d="M476.28-96.42c-.23,1.32-.52,2.64-.88,3.94" transform="translate(159.2 96.99)"/><path id="Path_4425-7" data-name="Path 4425" class="cls-10" d="M480.86-95.44q-.37,2.14-.93,4.26" transform="translate(159.2 96.99)"/></g><g id="Group_2-8" data-name="Group 2"><path id="Path_4412-8" data-name="Path 4412" class="cls-2" d="M564.21,50.43l-.16.28c-.09.14-.25.4-.28.43-.18.27-.37.52-.56.78a31.26,31.26,0,0,1-2.15,2.58c-.41.43-.83.85-1.25,1.27l-.13.14,0,0-.73.65a66.72,66.72,0,0,1-6.46,5l-1,.65q-.75-11.26-1.44-22.56c.36.31.71.61,1.08.91,2,1.67,4.16,3.24,6.28,4.78a75.5,75.5,0,0,0,6.45,4.25l.27.15A5.4,5.4,0,0,0,564.21,50.43Z" transform="translate(159.2 96.99)"/><path id="Path_4413-8" data-name="Path 4413" class="cls-6" d="M588.88,27.11l-1.09.75-1,.69c-2.45,1.7-5,3.32-7.34,5.2-1.63,1.3-3.11,2.84-4.62,4.31l-1.09,1s-.44.42-.44.42l-.24.22c-.87.8-1.75,1.58-2.69,2.29a17.73,17.73,0,0,1-1.85,1.26c.2-.13-.34.12-.64.26l-.11,0-.21-.12-.89-.5c-.49-.3-1-.63-1.45-.95-1-.69-2.1-1.28-3.11-2a83,83,0,0,1-11.53-9.47c-.39-.39-.78-.8-1.16-1.21-.09-1.86-.15-3.72-.25-5.58a3.8,3.8,0,0,1,1.52-3.36A12.75,12.75,0,0,1,555.23,18c9.58-2.59,19.22-3.22,27.87-1.49,5.45,1.43,5.71,1.71,5.75,6.5C588.87,24.38,588.87,25.74,588.88,27.11Z" transform="translate(159.2 96.99)"/><path id="Path_4414-8" data-name="Path 4414" class="cls-2" d="M589.46,57.19l-1.05-.37-.41-.14-.53-.2-.62-.25c-.54-.21-1.08-.44-1.62-.67q-1.66-.72-3.3-1.53A99,99,0,0,1,573,48.94c3.29-2.12,6-5.24,8.9-7.95l.65-.59c.31-.27.63-.54,1-.79,1.26-1,2.57-1.84,3.86-2.74l.46-.33,1.07-.73c0,5,0,10.07.23,15.11C589.19,53,589.3,55.11,589.46,57.19Z" transform="translate(159.2 96.99)"/><path id="Path_4415-8" data-name="Path 4415" class="cls-7" d="M590.37,66.43c-.34.13-.68.26-1,.41-5.42,2.32-9.64,6.9-14.67,10l-.9.53,0,0-.35.18a15.56,15.56,0,0,1-2.14.84l-.66.18-.67.09a12.44,12.44,0,0,1-2.2,0l-.41,0-1-.1c-.76-.09-1.53-.19-2.29-.32-1.53-.24-3-.55-4.54-.94-.85-.22-1.7-.48-2.53-.77l-.53-.19-.08,0-1.23-.54a18.5,18.5,0,0,1-2-1.13L553,74.6l-.33-.22s0,0-.05,0l-.55-.49a20.56,20.56,0,0,0,0-2.83c0-.19,0-.38,0-.57l.93-.61c6-4,12.4-8.41,16.41-14.69a91.58,91.58,0,0,0,19.7,9.54l1.1.36C590.26,65.5,590.32,66,590.37,66.43Z" transform="translate(159.2 96.99)"/><path id="Path_4416-8" data-name="Path 4416" class="cls-8" d="M569,120.87c-1.38,2.51-2.59,5.14-3.76,7.81-2.64,6-5.21,12.13-8.94,17.54-5.87,8.53-13.76,11.46-23.25,9.54-7.6-1.54-12.3-7.39-13.4-16.13a33.72,33.72,0,0,1,3.51-19.21c3.56-7.39,8.36-13.86,13.11-20.36,4.38-6,9-11.77,13.1-18,.21-.32.41-.64.59-1,.29.18.58.36.88.53a29.19,29.19,0,0,0,5.35,2.26,43.1,43.1,0,0,0,6.33,1.49c1.66.93,3.4,1.81,4.15,3.73a19,19,0,0,1,.79,2.67c.32,9.09.26,18.21,1.31,27.23C568.82,119.65,568.9,120.26,569,120.87Z" transform="translate(159.2 96.99)"/><path id="Path_4417-8" data-name="Path 4417" class="cls-2" d="M591.44,99.53a37.83,37.83,0,0,1-5,3.73c-4,2.58-7.93,5.18-11.25,8.76l-.21.24-.09-1.42c-.42-7-.42-14.14-.71-21.21A16.21,16.21,0,0,1,576.73,84a55.09,55.09,0,0,0,7.51-5.26c1.46-1.16,2.93-2.31,4.48-3.34.39-.26.79-.51,1.19-.75l.54-.31.06,0,0,0,.07,0c.3-.15.59-.28.89-.41.64,3.6,1.43,7.19,2.38,10.74a34,34,0,0,1,1,5.92A10.42,10.42,0,0,1,591.44,99.53Z" transform="translate(159.2 96.99)"/><path id="Path_4418-8" data-name="Path 4418" class="cls-9" d="M519.39,136a8.89,8.89,0,0,0,5.85,3.87,24.71,24.71,0,0,0,7,.16" transform="translate(159.2 96.99)"/><path id="Path_4419-8" data-name="Path 4419" class="cls-10" d="M556.05,18.17a13.42,13.42,0,0,0,.35,5" transform="translate(159.2 96.99)"/><path id="Path_4420-8" data-name="Path 4420" class="cls-10" d="M559.75,16.87l.22,4a5,5,0,0,0,.21,1.44" transform="translate(159.2 96.99)"/><path id="Path_4421-8" data-name="Path 4421" class="cls-10" d="M566.79,16.19a28.82,28.82,0,0,1,.31,3.95" transform="translate(159.2 96.99)"/><path id="Path_4422-8" data-name="Path 4422" class="cls-10" d="M563.06,16.64l.22,3.12" transform="translate(159.2 96.99)"/><path id="Path_4423-8" data-name="Path 4423" class="cls-10" d="M571.44,16.11V20" transform="translate(159.2 96.99)"/><path id="Path_4424-8" data-name="Path 4424" class="cls-10" d="M577,16.11a40.13,40.13,0,0,1-.89,3.94" transform="translate(159.2 96.99)"/><path id="Path_4425-8" data-name="Path 4425" class="cls-10" d="M581.6,17.1c-.25,1.43-.56,2.85-.93,4.25" transform="translate(159.2 96.99)"/></g><g id="Group_2-9" data-name="Group 2"><path id="Path_4412-9" data-name="Path 4412" class="cls-2" d="M532.64,236l-.16.28c-.09.14-.26.4-.29.43-.18.27-.36.52-.55.78a31.26,31.26,0,0,1-2.15,2.58c-.41.43-.83.86-1.25,1.27l-.13.14s0,0,0,0l-.73.65a66.72,66.72,0,0,1-6.46,5l-1,.66q-.75-11.28-1.45-22.57l1.09.91c2,1.67,4.16,3.24,6.27,4.78a75.66,75.66,0,0,0,6.46,4.25l.27.15A3.94,3.94,0,0,0,532.64,236Z" transform="translate(159.2 96.99)"/><path id="Path_4413-9" data-name="Path 4413" class="cls-6" d="M557.3,212.69l-1.09.75-1,.69c-2.45,1.7-5,3.32-7.33,5.2-1.63,1.31-3.12,2.84-4.63,4.31l-1.08,1-.45.42a2.39,2.39,0,0,1-.23.22c-.87.8-1.76,1.58-2.69,2.29a17.73,17.73,0,0,1-1.85,1.26c.2-.13-.34.12-.64.26l-.11,0L536,229l-.89-.5c-.5-.3-1-.63-1.46-.95-1-.69-2.09-1.27-3.1-2A83.68,83.68,0,0,1,519,216.08c-.4-.4-.78-.81-1.16-1.22-.09-1.86-.16-3.72-.25-5.58a3.78,3.78,0,0,1,1.52-3.36,12.67,12.67,0,0,1,4.56-2.33c9.57-2.59,19.22-3.22,27.87-1.49,5.44,1.43,5.7,1.71,5.75,6.5C557.29,210,557.3,211.32,557.3,212.69Z" transform="translate(159.2 96.99)"/><path id="Path_4414-9" data-name="Path 4414" class="cls-2" d="M557.88,242.77l-1-.37-.4-.14-.53-.2-.62-.25c-.54-.21-1.08-.44-1.62-.67-1.11-.48-2.22-1-3.31-1.53a100.36,100.36,0,0,1-9-5.09c3.29-2.12,6.06-5.24,8.91-8L551,226c.31-.27.63-.54,1-.79,1.25-1,2.57-1.84,3.86-2.74l.46-.33,1.06-.73c0,5,0,10.07.24,15.11Q557.66,239.65,557.88,242.77Z" transform="translate(159.2 96.99)"/><path id="Path_4415-9" data-name="Path 4415" class="cls-7" d="M558.8,252c-.34.13-.68.26-1,.41-5.42,2.32-9.64,6.9-14.67,10l-.9.53,0,0-.36.18a15.08,15.08,0,0,1-2.14.84l-.66.18-.67.09a12.32,12.32,0,0,1-2.19,0l-.41,0-1-.1c-.77-.09-1.53-.19-2.3-.32a44.42,44.42,0,0,1-4.53-.94c-.85-.22-1.7-.48-2.54-.77l-.53-.18-.07,0c-.41-.18-.83-.36-1.23-.55a17.63,17.63,0,0,1-2-1.13l-.09-.06-.33-.22,0,0-.55-.49a20.56,20.56,0,0,0,0-2.83c0-.19,0-.38,0-.57l.94-.61c6-4,12.39-8.41,16.4-14.69a91.66,91.66,0,0,0,19.71,9.54l1.1.36C558.69,251.08,558.74,251.55,558.8,252Z" transform="translate(159.2 96.99)"/><path id="Path_4416-9" data-name="Path 4416" class="cls-8" d="M537.4,306.45c-1.37,2.52-2.58,5.14-3.75,7.81-2.65,6-5.21,12.13-8.94,17.54-5.88,8.54-13.76,11.47-23.25,9.54-7.6-1.54-12.31-7.39-13.4-16.13a33.8,33.8,0,0,1,3.5-19.21c3.56-7.39,8.36-13.86,13.12-20.36,4.38-6,9-11.77,13.1-18,.21-.32.4-.64.59-1,.29.18.58.36.88.53a29.4,29.4,0,0,0,5.34,2.26,42.27,42.27,0,0,0,6.34,1.49c1.66.94,3.4,1.81,4.15,3.73a17.74,17.74,0,0,1,.78,2.67c.32,9.09.27,18.21,1.32,27.23C537.25,305.23,537.32,305.84,537.4,306.45Z" transform="translate(159.2 96.99)"/><path id="Path_4417-9" data-name="Path 4417" class="cls-2" d="M559.87,285.11a37.83,37.83,0,0,1-5,3.73c-4,2.58-7.93,5.18-11.25,8.76-.07.08-.14.17-.21.24l-.09-1.42c-.42-7.05-.43-14.14-.72-21.21a16.39,16.39,0,0,1,2.58-5.68,54.57,54.57,0,0,0,7.52-5.26c1.46-1.16,2.93-2.31,4.48-3.34.39-.26.79-.51,1.19-.74l.54-.32,0,0,0,0,.07,0c.29-.15.59-.28.88-.41.65,3.61,1.43,7.19,2.38,10.74a34,34,0,0,1,1,5.92A10.41,10.41,0,0,1,559.87,285.11Z" transform="translate(159.2 96.99)"/><path id="Path_4418-9" data-name="Path 4418" class="cls-9" d="M487.82,321.59a8.87,8.87,0,0,0,5.85,3.87,24.69,24.69,0,0,0,7,.16" transform="translate(159.2 96.99)"/><path id="Path_4419-9" data-name="Path 4419" class="cls-10" d="M524.48,203.75a13,13,0,0,0,.35,5" transform="translate(159.2 96.99)"/><path id="Path_4420-9" data-name="Path 4420" class="cls-10" d="M528.18,202.45l.21,4a5,5,0,0,0,.22,1.44" transform="translate(159.2 96.99)"/><path id="Path_4421-9" data-name="Path 4421" class="cls-10" d="M535.22,201.77a30.49,30.49,0,0,1,.31,3.95" transform="translate(159.2 96.99)"/><path id="Path_4422-9" data-name="Path 4422" class="cls-10" d="M531.49,202.22l.22,3.12" transform="translate(159.2 96.99)"/><path id="Path_4423-9" data-name="Path 4423" class="cls-10" d="M539.87,201.69v3.88" transform="translate(159.2 96.99)"/><path id="Path_4424-9" data-name="Path 4424" class="cls-10" d="M545.45,201.69c-.24,1.33-.53,2.65-.89,3.95" transform="translate(159.2 96.99)"/><path id="Path_4425-9" data-name="Path 4425" class="cls-10" d="M550,202.68c-.26,1.43-.57,2.85-.94,4.25" transform="translate(159.2 96.99)"/></g><g id="Group_2-10" data-name="Group 2"><path id="Path_4412-10" data-name="Path 4412" class="cls-2" d="M-23.15,203l-.17.28-.28.43-.55.78a33.51,33.51,0,0,1-2.16,2.58c-.41.43-.83.85-1.25,1.27l-.13.13,0,0-.73.66a67.09,67.09,0,0,1-6.46,5l-.95.65q-.77-11.28-1.45-22.56c.36.3.72.61,1.08.9,2,1.68,4.16,3.25,6.28,4.79a75.5,75.5,0,0,0,6.45,4.25l.27.15A4.08,4.08,0,0,0-23.15,203Z" transform="translate(159.2 96.99)"/><path id="Path_4413-10" data-name="Path 4413" class="cls-6" d="M1.51,179.69l-1.09.74-1,.7c-2.45,1.7-5,3.32-7.34,5.19-1.63,1.31-3.11,2.85-4.62,4.31l-1.09,1.05-.44.42-.24.22c-.87.79-1.75,1.57-2.68,2.29a20.94,20.94,0,0,1-1.86,1.26c.2-.14-.34.12-.64.26l-.1,0-.21-.12c-.3-.16-.6-.32-.9-.5-.49-.3-1-.63-1.45-.95-1-.69-2.1-1.27-3.11-2a84.48,84.48,0,0,1-11.53-9.47c-.39-.4-.77-.8-1.15-1.21-.1-1.86-.16-3.72-.26-5.58a3.76,3.76,0,0,1,1.53-3.36,12.62,12.62,0,0,1,4.55-2.33c9.58-2.59,19.23-3.23,27.88-1.49,5.44,1.43,5.7,1.71,5.75,6.49C1.5,177,1.51,178.32,1.51,179.69Z" transform="translate(159.2 96.99)"/><path id="Path_4414-10" data-name="Path 4414" class="cls-2" d="M2.09,209.77l-1-.37-.4-.15-.53-.19-.63-.25-1.61-.67c-1.12-.49-2.22-1-3.31-1.54a96.53,96.53,0,0,1-8.95-5.08c3.29-2.12,6.05-5.24,8.91-8l.64-.58c.31-.28.63-.55,1-.8,1.26-1,2.58-1.83,3.87-2.74l.46-.32,1.06-.74c0,5,0,10.08.23,15.12Q1.86,206.64,2.09,209.77Z" transform="translate(159.2 96.99)"/><path id="Path_4415-10" data-name="Path 4415" class="cls-7" d="M3,219c-.35.13-.69.26-1,.4-5.43,2.32-9.65,6.91-14.68,10-.29.19-.6.35-.9.54h0a3,3,0,0,1-.36.18,15.62,15.62,0,0,1-2.14.85l-.66.17-.67.1a12.44,12.44,0,0,1-2.2,0l-.4,0-1-.1c-.76-.09-1.53-.2-2.29-.32-1.52-.24-3-.55-4.53-.94-.86-.23-1.7-.48-2.54-.77l-.53-.19-.07,0c-.42-.17-.83-.35-1.24-.54a17.06,17.06,0,0,1-2-1.14l-.08,0a3.88,3.88,0,0,1-.33-.23l-.06,0-.54-.49a22.27,22.27,0,0,0,0-2.83c0-.19,0-.38,0-.58l.93-.61c6-4,12.4-8.41,16.41-14.69a91.58,91.58,0,0,0,19.7,9.54l1.11.37C2.89,218.08,3,218.55,3,219Z" transform="translate(159.2 96.99)"/><path id="Path_4416-10" data-name="Path 4416" class="cls-8" d="M-18.39,273.44c-1.38,2.52-2.59,5.15-3.76,7.82-2.64,6-5.21,12.13-8.94,17.54-5.87,8.53-13.76,11.46-23.24,9.54-7.6-1.54-12.31-7.4-13.41-16.13A33.79,33.79,0,0,1-64.23,273c3.56-7.4,8.36-13.86,13.12-20.36,4.37-6,9-11.77,13.09-18,.21-.32.41-.64.59-1,.29.19.59.36.88.53a29.08,29.08,0,0,0,5.35,2.26A42.15,42.15,0,0,0-24.87,238c1.66.94,3.4,1.81,4.15,3.74a18.64,18.64,0,0,1,.79,2.67c.32,9.09.27,18.2,1.31,27.23C-18.55,272.23-18.47,272.83-18.39,273.44Z" transform="translate(159.2 96.99)"/><path id="Path_4417-10" data-name="Path 4417" class="cls-2" d="M4.07,252.11a39.32,39.32,0,0,1-5,3.73c-4,2.57-7.93,5.17-11.25,8.76l-.22.24-.09-1.42c-.41-7.06-.42-14.15-.71-21.22a16.29,16.29,0,0,1,2.58-5.68,52.81,52.81,0,0,0,7.51-5.26c1.47-1.16,2.93-2.31,4.48-3.33.4-.26.79-.51,1.19-.75l.54-.31.06,0,0,0,.07,0,.89-.4c.65,3.6,1.43,7.18,2.38,10.74a33.65,33.65,0,0,1,1,5.92A10.43,10.43,0,0,1,4.07,252.11Z" transform="translate(159.2 96.99)"/><path id="Path_4418-10" data-name="Path 4418" class="cls-9" d="M-68,288.58a8.93,8.93,0,0,0,5.85,3.88,24.71,24.71,0,0,0,7,.16" transform="translate(159.2 96.99)"/><path id="Path_4419-10" data-name="Path 4419" class="cls-10" d="M-31.32,170.74a13.27,13.27,0,0,0,.36,5" transform="translate(159.2 96.99)"/><path id="Path_4420-10" data-name="Path 4420" class="cls-10" d="M-27.61,169.45l.21,4a4.59,4.59,0,0,0,.22,1.43" transform="translate(159.2 96.99)"/><path id="Path_4421-10" data-name="Path 4421" class="cls-10" d="M-20.58,168.76a29.07,29.07,0,0,1,.31,4" transform="translate(159.2 96.99)"/><path id="Path_4422-10" data-name="Path 4422" class="cls-10" d="M-24.31,169.22l.22,3.11" transform="translate(159.2 96.99)"/><path id="Path_4423-10" data-name="Path 4423" class="cls-10" d="M-15.93,168.69v3.87" transform="translate(159.2 96.99)"/><path id="Path_4424-10" data-name="Path 4424" class="cls-10" d="M-10.35,168.69c-.23,1.33-.53,2.64-.88,3.94" transform="translate(159.2 96.99)"/><path id="Path_4425-10" data-name="Path 4425" class="cls-10" d="M-5.77,169.68c-.25,1.43-.56,2.84-.93,4.25" transform="translate(159.2 96.99)"/></g><g id="Group_2-11" data-name="Group 2"><path id="Path_4412-11" data-name="Path 4412" class="cls-2" d="M-76.57,409.9c0,.08-.11.19-.16.28s-.25.4-.28.43c-.18.27-.37.52-.56.78A31.26,31.26,0,0,1-79.72,414c-.41.43-.83.85-1.25,1.27l-.13.14,0,0-.73.65a66.72,66.72,0,0,1-6.46,5l-1,.65q-.75-11.26-1.44-22.56c.35.31.71.61,1.08.91,2,1.67,4.16,3.24,6.28,4.78a75.5,75.5,0,0,0,6.45,4.25l.27.15A5.4,5.4,0,0,0-76.57,409.9Z" transform="translate(159.2 96.99)"/><path id="Path_4413-11" data-name="Path 4413" class="cls-6" d="M-51.9,386.58l-1.1.75-1,.69c-2.45,1.7-5,3.32-7.34,5.2-1.63,1.3-3.11,2.84-4.62,4.3-.36.36-.73.7-1.09,1.05,0,.05-.44.42-.44.42l-.24.22c-.87.8-1.76,1.58-2.69,2.29a17.73,17.73,0,0,1-1.85,1.26c.2-.13-.34.12-.64.26l-.11,0-.21-.11c-.29-.17-.6-.33-.89-.51-.49-.29-1-.62-1.45-.94-1-.69-2.1-1.28-3.11-2A83.75,83.75,0,0,1-90.22,390c-.39-.39-.78-.8-1.16-1.21-.09-1.86-.15-3.72-.25-5.58a3.8,3.8,0,0,1,1.52-3.36,12.75,12.75,0,0,1,4.56-2.33c9.58-2.59,19.22-3.22,27.87-1.49,5.45,1.43,5.71,1.71,5.75,6.5C-51.91,383.85-51.91,385.21-51.9,386.58Z" transform="translate(159.2 96.99)"/><path id="Path_4414-11" data-name="Path 4414" class="cls-2" d="M-51.33,416.66l-1-.37-.41-.14-.53-.2-.62-.25c-.54-.21-1.08-.44-1.62-.67q-1.66-.72-3.3-1.53a99,99,0,0,1-8.95-5.09c3.29-2.12,6-5.24,8.9-8l.65-.59c.31-.27.63-.54,1-.79,1.26-1,2.57-1.84,3.86-2.74L-53,396l1.07-.73c0,5,0,10.07.23,15.11Q-51.55,413.54-51.33,416.66Z" transform="translate(159.2 96.99)"/><path id="Path_4415-11" data-name="Path 4415" class="cls-7" d="M-50.41,425.9c-.34.13-.68.26-1,.41-5.42,2.32-9.64,6.9-14.67,10l-.9.53,0,0-.35.18a17,17,0,0,1-2.14.84l-.66.18-.67.09a12.44,12.44,0,0,1-2.2,0l-.41,0-1-.1c-.77-.09-1.53-.19-2.29-.32-1.53-.24-3-.55-4.54-.94-.85-.22-1.7-.48-2.53-.77l-.53-.19-.08,0-1.23-.54a18.5,18.5,0,0,1-2-1.13l-.09-.06-.33-.22s0,0-.05-.05l-.55-.49a22.27,22.27,0,0,0,0-2.83c0-.19,0-.38,0-.57l.93-.61c6-4,12.4-8.41,16.41-14.69a91.58,91.58,0,0,0,19.7,9.54l1.1.36C-50.52,425-50.46,425.44-50.41,425.9Z" transform="translate(159.2 96.99)"/><path id="Path_4416-11" data-name="Path 4416" class="cls-8" d="M-71.8,480.34c-1.38,2.51-2.59,5.14-3.76,7.81-2.64,6-5.21,12.13-8.94,17.54-5.87,8.53-13.76,11.46-23.25,9.54-7.6-1.54-12.3-7.39-13.4-16.13a33.72,33.72,0,0,1,3.51-19.21c3.56-7.39,8.35-13.86,13.11-20.36,4.38-6,9-11.77,13.1-18,.21-.32.41-.64.59-1,.29.18.58.36.88.53a29.19,29.19,0,0,0,5.35,2.26,43.1,43.1,0,0,0,6.33,1.49c1.66.93,3.4,1.81,4.15,3.73a19,19,0,0,1,.79,2.67c.32,9.09.26,18.21,1.31,27.23C-72,479.12-71.88,479.73-71.8,480.34Z" transform="translate(159.2 96.99)"/><path id="Path_4417-11" data-name="Path 4417" class="cls-2" d="M-49.34,459a37.83,37.83,0,0,1-5,3.73c-4,2.58-7.93,5.18-11.25,8.76l-.21.24-.09-1.42c-.42-7.05-.42-14.14-.71-21.21a16.5,16.5,0,0,1,2.57-5.69,53.65,53.65,0,0,0,7.52-5.25c1.46-1.16,2.93-2.31,4.48-3.34.39-.26.79-.51,1.19-.75l.54-.31.06,0,0,0,.07,0c.3-.15.59-.28.89-.41.64,3.6,1.43,7.19,2.38,10.74a34,34,0,0,1,1,5.92A10.42,10.42,0,0,1-49.34,459Z" transform="translate(159.2 96.99)"/><path id="Path_4418-11" data-name="Path 4418" class="cls-9" d="M-121.39,495.48a8.89,8.89,0,0,0,5.85,3.87,24.71,24.71,0,0,0,7,.16" transform="translate(159.2 96.99)"/><path id="Path_4419-11" data-name="Path 4419" class="cls-10" d="M-84.73,377.64a13.44,13.44,0,0,0,.35,5" transform="translate(159.2 96.99)"/><path id="Path_4420-11" data-name="Path 4420" class="cls-10" d="M-81,376.34l.21,4a5.4,5.4,0,0,0,.22,1.44" transform="translate(159.2 96.99)"/><path id="Path_4421-11" data-name="Path 4421" class="cls-10" d="M-74,375.66a28.82,28.82,0,0,1,.31,3.95" transform="translate(159.2 96.99)"/><path id="Path_4422-11" data-name="Path 4422" class="cls-10" d="M-77.72,376.11l.22,3.12" transform="translate(159.2 96.99)"/><path id="Path_4423-11" data-name="Path 4423" class="cls-10" d="M-69.34,375.58v3.88" transform="translate(159.2 96.99)"/><path id="Path_4424-11" data-name="Path 4424" class="cls-10" d="M-63.76,375.58a40.13,40.13,0,0,1-.89,3.94" transform="translate(159.2 96.99)"/><path id="Path_4425-11" data-name="Path 4425" class="cls-10" d="M-59.18,376.57c-.25,1.43-.56,2.85-.93,4.25" transform="translate(159.2 96.99)"/></g><g id="Group_2-12" data-name="Group 2"><path id="Path_4412-12" data-name="Path 4412" class="cls-2" d="M36.2,538.67,36,539c-.09.14-.25.4-.28.43-.18.27-.37.52-.55.78A33.51,33.51,0,0,1,33,542.74c-.41.43-.83.85-1.25,1.27l-.13.14,0,0-.73.65a65.52,65.52,0,0,1-6.46,5l-.95.65q-.77-11.26-1.45-22.56l1.08.91c2,1.67,4.16,3.24,6.28,4.78a75.5,75.5,0,0,0,6.45,4.25l.27.15A4.08,4.08,0,0,0,36.2,538.67Z" transform="translate(159.2 96.99)"/><path id="Path_4413-12" data-name="Path 4413" class="cls-6" d="M60.86,515.35l-1.09.75-1,.69c-2.45,1.7-5,3.32-7.34,5.2-1.63,1.3-3.11,2.84-4.62,4.3-.36.36-.72.7-1.09,1.05,0,0-.44.42-.44.42L45,528c-.87.8-1.75,1.58-2.68,2.29a19,19,0,0,1-1.86,1.26c.2-.13-.34.12-.64.26l-.1,0-.21-.12-.9-.5c-.49-.3-1-.63-1.45-.95-1-.69-2.1-1.28-3.11-2a83,83,0,0,1-11.53-9.47c-.39-.39-.77-.8-1.15-1.21-.1-1.86-.16-3.72-.26-5.58a3.78,3.78,0,0,1,1.53-3.36,12.62,12.62,0,0,1,4.55-2.33c9.58-2.59,19.23-3.22,27.88-1.49,5.44,1.43,5.7,1.71,5.75,6.5C60.85,512.62,60.86,514,60.86,515.35Z" transform="translate(159.2 96.99)"/><path id="Path_4414-12" data-name="Path 4414" class="cls-2" d="M61.44,545.43l-1-.37-.4-.14-.53-.2-.63-.25c-.54-.21-1.08-.44-1.61-.67-1.12-.48-2.22-1-3.31-1.53A99,99,0,0,1,45,537.18c3.29-2.12,6-5.24,8.91-7.95l.64-.59c.32-.27.63-.54,1-.79,1.26-1,2.58-1.84,3.87-2.74l.46-.33,1.06-.73c0,5,0,10.07.23,15.11Q61.21,542.31,61.44,545.43Z" transform="translate(159.2 96.99)"/><path id="Path_4415-12" data-name="Path 4415" class="cls-7" d="M62.36,554.67c-.35.13-.69.26-1,.41-5.43,2.32-9.65,6.9-14.67,10l-.91.53,0,0-.36.18a15.08,15.08,0,0,1-2.14.84l-.66.18-.67.09a12.44,12.44,0,0,1-2.2,0l-.4,0-1-.1c-.76-.09-1.53-.19-2.29-.32-1.52-.24-3-.55-4.53-.94-.86-.22-1.7-.48-2.54-.77l-.53-.19a.11.11,0,0,1-.07,0c-.42-.17-.83-.35-1.24-.54a18.5,18.5,0,0,1-2-1.13l-.08-.06-.33-.22-.06,0-.54-.49a22.27,22.27,0,0,0,0-2.83c0-.19,0-.38,0-.57l.93-.61c6-4,12.4-8.41,16.41-14.69a91.58,91.58,0,0,0,19.7,9.54l1.11.36C62.24,553.74,62.3,554.21,62.36,554.67Z" transform="translate(159.2 96.99)"/><path id="Path_4416-12" data-name="Path 4416" class="cls-8" d="M41,609.11c-1.38,2.51-2.59,5.14-3.76,7.81-2.64,6-5.21,12.13-8.94,17.54C22.39,643,14.5,645.92,5,644c-7.6-1.54-12.31-7.39-13.41-16.13a33.8,33.8,0,0,1,3.51-19.21c3.56-7.39,8.36-13.86,13.12-20.36,4.37-6,9-11.77,13.09-18,.21-.32.41-.64.59-1l.88.53a29.79,29.79,0,0,0,5.35,2.26,43.4,43.4,0,0,0,6.33,1.49c1.66.93,3.4,1.81,4.15,3.73a19,19,0,0,1,.79,2.67c.32,9.09.27,18.21,1.31,27.23C40.8,607.89,40.88,608.5,41,609.11Z" transform="translate(159.2 96.99)"/><path id="Path_4417-12" data-name="Path 4417" class="cls-2" d="M63.43,587.77a39.17,39.17,0,0,1-5,3.73c-4,2.58-7.93,5.18-11.25,8.76l-.22.24-.09-1.42c-.41-7.05-.42-14.14-.71-21.21a16.21,16.21,0,0,1,2.58-5.68,54.48,54.48,0,0,0,7.51-5.26c1.47-1.16,2.93-2.31,4.48-3.34.4-.26.79-.51,1.19-.75l.54-.31.06,0,0,0,.07,0c.3-.15.59-.28.89-.41.65,3.6,1.43,7.19,2.38,10.74a34,34,0,0,1,1,5.92A10.44,10.44,0,0,1,63.43,587.77Z" transform="translate(159.2 96.99)"/><path id="Path_4418-12" data-name="Path 4418" class="cls-9" d="M-8.63,624.25a8.92,8.92,0,0,0,5.85,3.87,24.71,24.71,0,0,0,7,.16" transform="translate(159.2 96.99)"/><path id="Path_4419-12" data-name="Path 4419" class="cls-10" d="M28,506.41a13.24,13.24,0,0,0,.36,5" transform="translate(159.2 96.99)"/><path id="Path_4420-12" data-name="Path 4420" class="cls-10" d="M31.74,505.11l.21,4a4.7,4.7,0,0,0,.22,1.44" transform="translate(159.2 96.99)"/><path id="Path_4421-12" data-name="Path 4421" class="cls-10" d="M38.77,504.43a28.82,28.82,0,0,1,.31,3.95" transform="translate(159.2 96.99)"/><path id="Path_4422-12" data-name="Path 4422" class="cls-10" d="M35,504.88l.22,3.12" transform="translate(159.2 96.99)"/><path id="Path_4423-12" data-name="Path 4423" class="cls-10" d="M43.42,504.35v3.88" transform="translate(159.2 96.99)"/><path id="Path_4424-12" data-name="Path 4424" class="cls-10" d="M49,504.35c-.23,1.33-.53,2.65-.88,3.94" transform="translate(159.2 96.99)"/><path id="Path_4425-12" data-name="Path 4425" class="cls-10" d="M53.58,505.34c-.25,1.43-.56,2.85-.93,4.25" transform="translate(159.2 96.99)"/></g><g id="Group_2-13" data-name="Group 2"><path id="Path_4412-13" data-name="Path 4412" class="cls-2" d="M101.85,345.52l-.16.28-.29.43c-.18.26-.36.52-.55.77a26.82,26.82,0,0,1-2.16,2.58c-.4.44-.82.86-1.24,1.28l-.13.13,0,0-.73.65a68.46,68.46,0,0,1-6.46,5l-1,.65q-.75-11.28-1.45-22.57l1.08.91c2,1.68,4.16,3.25,6.28,4.78a73.45,73.45,0,0,0,6.46,4.26l.27.14A3.27,3.27,0,0,0,101.85,345.52Z" transform="translate(159.2 96.99)"/><path id="Path_4413-13" data-name="Path 4413" class="cls-6" d="M126.51,322.2l-1.09.74-1,.7c-2.45,1.69-5,3.32-7.34,5.19-1.63,1.31-3.11,2.85-4.62,4.31l-1.08,1.05-.45.42-.23.21c-.87.8-1.76,1.58-2.69,2.29a19,19,0,0,1-1.86,1.26c.21-.13-.34.13-.64.26l-.1,0-.21-.12c-.3-.17-.6-.32-.9-.5-.49-.3-1-.63-1.45-1-1-.69-2.09-1.27-3.1-2a84.57,84.57,0,0,1-11.54-9.47c-.39-.4-.77-.8-1.15-1.21-.09-1.86-.16-3.72-.26-5.58a3.79,3.79,0,0,1,1.53-3.36,12.59,12.59,0,0,1,4.56-2.33c9.57-2.59,19.22-3.23,27.87-1.49,5.44,1.43,5.7,1.7,5.75,6.49C126.5,319.46,126.51,320.83,126.51,322.2Z" transform="translate(159.2 96.99)"/><path id="Path_4414-13" data-name="Path 4414" class="cls-2" d="M127.09,352.28l-1-.37-.4-.15-.53-.19s-.63-.25-.63-.25c-.54-.22-1.07-.44-1.61-.68-1.12-.48-2.22-1-3.31-1.53a97.85,97.85,0,0,1-9-5.08c3.29-2.12,6.06-5.24,8.91-8l.65-.59c.31-.27.62-.54,1-.79,1.26-1,2.58-1.83,3.87-2.74l.46-.32,1.06-.74c0,5,0,10.08.23,15.12Q126.86,349.15,127.09,352.28Z" transform="translate(159.2 96.99)"/><path id="Path_4415-13" data-name="Path 4415" class="cls-7" d="M128,361.52c-.34.12-.68.26-1,.4-5.42,2.32-9.65,6.91-14.67,10-.3.19-.61.35-.9.53l0,0-.36.18a14,14,0,0,1-2.14.84c-.11,0-.48.13-.66.18l-.67.1a13.46,13.46,0,0,1-2.2,0l-.4,0-.95-.11c-.77-.08-1.54-.19-2.3-.31-1.52-.25-3-.55-4.53-1-.85-.22-1.7-.47-2.54-.76l-.53-.19-.07,0c-.42-.17-.83-.35-1.23-.55a16.25,16.25,0,0,1-2-1.13l-.09-.05-.33-.23-.06,0-.54-.48a20.55,20.55,0,0,0,0-2.83c0-.2,0-.38,0-.58l.94-.61c6-4,12.39-8.41,16.4-14.69a91.43,91.43,0,0,0,19.71,9.54c.36.13.73.25,1.1.36C127.89,360.59,128,361.05,128,361.52Z" transform="translate(159.2 96.99)"/><path id="Path_4416-13" data-name="Path 4416" class="cls-8" d="M106.61,416c-1.37,2.52-2.59,5.15-3.75,7.81-2.65,6.05-5.22,12.14-8.94,17.55-5.88,8.53-13.77,11.46-23.25,9.54-7.6-1.55-12.31-7.4-13.4-16.13a33.73,33.73,0,0,1,3.5-19.22c3.56-7.39,8.36-13.85,13.12-20.35,4.38-6,9-11.78,13.09-18,.22-.32.41-.65.6-1,.29.19.58.36.88.53A28.71,28.71,0,0,0,93.8,379a42.15,42.15,0,0,0,6.33,1.49c1.67.94,3.41,1.81,4.15,3.74a17.44,17.44,0,0,1,.79,2.67c.32,9.09.27,18.2,1.31,27.23C106.46,414.73,106.53,415.34,106.61,416Z" transform="translate(159.2 96.99)"/><path id="Path_4417-13" data-name="Path 4417" class="cls-2" d="M129.08,394.62a39.42,39.42,0,0,1-5,3.73c-4,2.57-7.93,5.17-11.25,8.76l-.21.23c0-.47-.06-.94-.09-1.41-.42-7.06-.43-14.15-.72-21.22a16.48,16.48,0,0,1,2.58-5.68,53.05,53.05,0,0,0,7.51-5.26c1.47-1.16,2.94-2.31,4.49-3.33.39-.26.79-.51,1.19-.75l.54-.31,0,0,0,0,.07,0,.88-.41c.65,3.61,1.43,7.19,2.38,10.75a33.65,33.65,0,0,1,1,5.92A10.42,10.42,0,0,1,129.08,394.62Z" transform="translate(159.2 96.99)"/><path id="Path_4418-13" data-name="Path 4418" class="cls-9" d="M57,431.09A8.93,8.93,0,0,0,62.88,435a24.33,24.33,0,0,0,7,.15" transform="translate(159.2 96.99)"/><path id="Path_4419-13" data-name="Path 4419" class="cls-10" d="M93.68,313.25a13.21,13.21,0,0,0,.36,5" transform="translate(159.2 96.99)"/><path id="Path_4420-13" data-name="Path 4420" class="cls-10" d="M97.39,312l.21,4a5,5,0,0,0,.22,1.44" transform="translate(159.2 96.99)"/><path id="Path_4421-13" data-name="Path 4421" class="cls-10" d="M104.43,311.27a30.77,30.77,0,0,1,.31,4" transform="translate(159.2 96.99)"/><path id="Path_4422-13" data-name="Path 4422" class="cls-10" d="M100.69,311.73l.23,3.11" transform="translate(159.2 96.99)"/><path id="Path_4423-13" data-name="Path 4423" class="cls-10" d="M109.08,311.2v3.87" transform="translate(159.2 96.99)"/><path id="Path_4424-13" data-name="Path 4424" class="cls-10" d="M114.65,311.2c-.23,1.33-.52,2.64-.88,3.94" transform="translate(159.2 96.99)"/><path id="Path_4425-13" data-name="Path 4425" class="cls-10" d="M119.23,312.19c-.25,1.42-.56,2.84-.93,4.25" transform="translate(159.2 96.99)"/></g><g id="Group_2-14" data-name="Group 2"><path id="Path_4412-14" data-name="Path 4412" class="cls-2" d="M224.13,448.86l-.16.28-.28.43c-.18.26-.37.52-.56.77a29.82,29.82,0,0,1-2.15,2.59c-.41.43-.83.85-1.25,1.27l-.13.13,0,0c-.24.22-.48.44-.73.65a68.46,68.46,0,0,1-6.46,5l-1,.65q-.75-11.28-1.44-22.56l1.08.9c2,1.68,4.16,3.25,6.28,4.78a73.3,73.3,0,0,0,6.45,4.26l.27.14A5.35,5.35,0,0,0,224.13,448.86Z" transform="translate(159.2 96.99)"/><path id="Path_4413-14" data-name="Path 4413" class="cls-6" d="M248.8,425.54l-1.09.74-1,.7c-2.45,1.7-5,3.32-7.34,5.19-1.63,1.31-3.11,2.85-4.62,4.31l-1.09,1-.44.42-.24.22c-.87.79-1.75,1.57-2.69,2.28a17.73,17.73,0,0,1-1.85,1.26c.2-.13-.34.13-.64.26l-.11,0-.21-.12c-.29-.16-.6-.32-.89-.5-.49-.3-1-.63-1.45-.95-1-.69-2.1-1.27-3.11-2a84.48,84.48,0,0,1-11.53-9.47c-.39-.4-.78-.8-1.16-1.21-.09-1.86-.15-3.72-.25-5.58a3.78,3.78,0,0,1,1.52-3.36,12.75,12.75,0,0,1,4.56-2.33c9.58-2.59,19.22-3.23,27.87-1.49,5.45,1.43,5.71,1.71,5.75,6.49C248.79,422.8,248.79,424.17,248.8,425.54Z" transform="translate(159.2 96.99)"/><path id="Path_4414-14" data-name="Path 4414" class="cls-2" d="M249.38,455.62l-1-.37-.41-.15-.53-.19s-.62-.25-.62-.25c-.54-.22-1.08-.44-1.62-.68q-1.67-.72-3.3-1.53a96.53,96.53,0,0,1-8.95-5.08c3.29-2.12,6-5.24,8.9-8l.65-.59c.31-.27.63-.54,1-.79,1.26-1,2.57-1.83,3.86-2.74l.46-.32,1.07-.74c0,5,0,10.08.23,15.12C249.11,451.44,249.22,453.53,249.38,455.62Z" transform="translate(159.2 96.99)"/><path id="Path_4415-14" data-name="Path 4415" class="cls-7" d="M250.29,464.86c-.34.12-.68.26-1,.4-5.42,2.32-9.64,6.91-14.67,10-.29.19-.61.35-.9.54h0l-.35.18a15.62,15.62,0,0,1-2.14.85l-.66.17-.67.1a13.47,13.47,0,0,1-2.2,0l-.41,0-1-.11c-.76-.08-1.53-.19-2.29-.31-1.53-.24-3-.55-4.54-.94-.85-.23-1.7-.48-2.53-.77l-.53-.19-.08,0-1.23-.54a18.58,18.58,0,0,1-2-1.14L213,473l-.33-.23,0,0-.55-.49a20.55,20.55,0,0,0,0-2.83c0-.2,0-.38,0-.58l.93-.61c6-4,12.4-8.41,16.41-14.69A91.58,91.58,0,0,0,249,463.1l1.1.37C250.18,463.93,250.24,464.39,250.29,464.86Z" transform="translate(159.2 96.99)"/><path id="Path_4416-14" data-name="Path 4416" class="cls-8" d="M228.9,519.29c-1.38,2.52-2.59,5.15-3.76,7.81-2.64,6-5.21,12.14-8.94,17.55-5.87,8.53-13.76,11.46-23.25,9.54-7.6-1.55-12.3-7.4-13.4-16.13a33.74,33.74,0,0,1,3.51-19.22c3.56-7.39,8.36-13.85,13.11-20.35,4.38-6,9-11.78,13.1-18,.21-.32.41-.64.59-1,.29.19.58.36.88.53a28.52,28.52,0,0,0,5.35,2.26,41.86,41.86,0,0,0,6.33,1.49c1.66.94,3.4,1.81,4.15,3.74a18.64,18.64,0,0,1,.79,2.67c.32,9.09.26,18.2,1.31,27.23C228.74,518.08,228.82,518.68,228.9,519.29Z" transform="translate(159.2 96.99)"/><path id="Path_4417-14" data-name="Path 4417" class="cls-2" d="M251.36,498a38.73,38.73,0,0,1-5,3.73c-4,2.57-7.93,5.17-11.25,8.76l-.21.23-.09-1.41c-.42-7.06-.42-14.15-.71-21.22a16.29,16.29,0,0,1,2.58-5.68,53.38,53.38,0,0,0,7.51-5.26c1.46-1.16,2.93-2.31,4.48-3.33.39-.26.79-.51,1.19-.75l.54-.31.06,0,0,0,.07,0,.89-.4q1,5.4,2.38,10.74a33.65,33.65,0,0,1,1,5.92A10.43,10.43,0,0,1,251.36,498Z" transform="translate(159.2 96.99)"/><path id="Path_4418-14" data-name="Path 4418" class="cls-9" d="M179.31,534.43a8.91,8.91,0,0,0,5.85,3.88,24.71,24.71,0,0,0,7,.16" transform="translate(159.2 96.99)"/><path id="Path_4419-14" data-name="Path 4419" class="cls-10" d="M216,416.59a13.41,13.41,0,0,0,.35,5" transform="translate(159.2 96.99)"/><path id="Path_4420-14" data-name="Path 4420" class="cls-10" d="M219.67,415.3l.22,4a5,5,0,0,0,.21,1.43" transform="translate(159.2 96.99)"/><path id="Path_4421-14" data-name="Path 4421" class="cls-10" d="M226.71,414.61a29.07,29.07,0,0,1,.31,3.95" transform="translate(159.2 96.99)"/><path id="Path_4422-14" data-name="Path 4422" class="cls-10" d="M223,415.07l.22,3.11" transform="translate(159.2 96.99)"/><path id="Path_4423-14" data-name="Path 4423" class="cls-10" d="M231.36,414.54v3.87" transform="translate(159.2 96.99)"/><path id="Path_4424-14" data-name="Path 4424" class="cls-10" d="M236.94,414.54c-.23,1.33-.53,2.64-.89,3.94" transform="translate(159.2 96.99)"/><path id="Path_4425-14" data-name="Path 4425" class="cls-10" d="M241.52,415.53c-.25,1.42-.56,2.84-.93,4.25" transform="translate(159.2 96.99)"/></g><g id="Group_2-15" data-name="Group 2"><path id="Path_4412-15" data-name="Path 4412" class="cls-2" d="M136.93,640.93l-.16.28c-.09.13-.26.4-.29.43l-.55.78a31.26,31.26,0,0,1-2.15,2.58c-.41.43-.83.85-1.25,1.27l-.13.13,0,0-.73.66a68.35,68.35,0,0,1-6.46,5l-1,.65q-.75-11.28-1.45-22.56l1.09.91c2,1.67,4.16,3.24,6.28,4.78a74,74,0,0,0,6.45,4.25l.27.15A4.06,4.06,0,0,0,136.93,640.93Z" transform="translate(159.2 96.99)"/><path id="Path_4413-15" data-name="Path 4413" class="cls-6" d="M161.59,617.61l-1.09.75-1,.69c-2.45,1.7-5,3.32-7.33,5.2-1.63,1.3-3.12,2.84-4.63,4.3l-1.08,1.05L146,630l-.23.22c-.87.8-1.76,1.57-2.69,2.29a17.73,17.73,0,0,1-1.85,1.26c.2-.13-.34.12-.64.26l-.11,0-.21-.11c-.3-.17-.6-.33-.89-.51-.5-.3-1-.62-1.46-.94-1-.69-2.09-1.28-3.1-2A83.75,83.75,0,0,1,123.28,621c-.4-.39-.78-.8-1.16-1.21-.09-1.86-.16-3.72-.25-5.58a3.77,3.77,0,0,1,1.52-3.36,12.67,12.67,0,0,1,4.56-2.33c9.57-2.59,19.22-3.23,27.87-1.49,5.44,1.43,5.7,1.71,5.75,6.49C161.58,614.88,161.59,616.24,161.59,617.61Z" transform="translate(159.2 96.99)"/><path id="Path_4414-15" data-name="Path 4414" class="cls-2" d="M162.17,647.69l-1-.37-.4-.14-.53-.2-.62-.25c-.54-.21-1.08-.44-1.62-.67-1.11-.48-2.22-1-3.31-1.53a98.81,98.81,0,0,1-8.94-5.09c3.28-2.12,6.05-5.24,8.9-8l.65-.59c.31-.28.63-.54,1-.8,1.25-1,2.57-1.83,3.86-2.74l.46-.32,1.06-.74c0,5,0,10.08.24,15.12Q162,644.57,162.17,647.69Z" transform="translate(159.2 96.99)"/><path id="Path_4415-15" data-name="Path 4415" class="cls-7" d="M163.09,656.93c-.34.13-.68.26-1,.41-5.42,2.32-9.64,6.9-14.67,10-.3.18-.61.34-.9.53l0,0-.36.18a16.38,16.38,0,0,1-2.14.84l-.66.17-.67.1a12.32,12.32,0,0,1-2.19,0l-.41,0-.95-.1c-.77-.09-1.53-.2-2.3-.32-1.52-.24-3-.55-4.53-.94-.85-.22-1.7-.48-2.54-.77l-.53-.19-.07,0c-.41-.17-.83-.35-1.23-.54a17.63,17.63,0,0,1-2-1.13l-.09-.06-.33-.22-.05,0-.55-.49a20.56,20.56,0,0,0,0-2.83c0-.19,0-.38,0-.57l.94-.61c6-4,12.39-8.41,16.4-14.69a92.13,92.13,0,0,0,19.71,9.54l1.1.36C163,656,163,656.47,163.09,656.93Z" transform="translate(159.2 96.99)"/><path id="Path_4416-15" data-name="Path 4416" class="cls-8" d="M141.69,711.36c-1.37,2.52-2.58,5.15-3.75,7.82-2.65,6-5.21,12.13-8.94,17.54-5.88,8.53-13.76,11.46-23.25,9.54-7.6-1.54-12.31-7.4-13.4-16.13a33.7,33.7,0,0,1,3.51-19.21c3.55-7.39,8.35-13.86,13.11-20.36,4.38-6,9-11.77,13.1-18,.21-.32.4-.64.59-1,.29.19.58.37.88.54a29.19,29.19,0,0,0,5.35,2.26,44.42,44.42,0,0,0,6.33,1.49c1.66.93,3.4,1.81,4.15,3.73a17.74,17.74,0,0,1,.78,2.67c.33,9.09.27,18.21,1.32,27.23C141.54,710.15,141.61,710.76,141.69,711.36Z" transform="translate(159.2 96.99)"/><path id="Path_4417-15" data-name="Path 4417" class="cls-2" d="M164.16,690a38.73,38.73,0,0,1-5,3.73c-4,2.58-7.93,5.17-11.25,8.76l-.21.24-.09-1.42c-.42-7.05-.43-14.14-.72-21.22a16.56,16.56,0,0,1,2.58-5.68,52.9,52.9,0,0,0,7.52-5.26c1.46-1.15,2.93-2.31,4.48-3.33.39-.26.79-.51,1.19-.75l.54-.31.05,0,0,0,.07,0,.88-.4c.65,3.6,1.43,7.18,2.38,10.74a33.82,33.82,0,0,1,1,5.92A10.41,10.41,0,0,1,164.16,690Z" transform="translate(159.2 96.99)"/><path id="Path_4418-15" data-name="Path 4418" class="cls-9" d="M92.11,726.5A8.88,8.88,0,0,0,98,730.38a24.69,24.69,0,0,0,7,.16" transform="translate(159.2 96.99)"/><path id="Path_4419-15" data-name="Path 4419" class="cls-10" d="M128.77,608.66a13.07,13.07,0,0,0,.35,5" transform="translate(159.2 96.99)"/><path id="Path_4420-15" data-name="Path 4420" class="cls-10" d="M132.47,607.37l.21,4a5,5,0,0,0,.22,1.44" transform="translate(159.2 96.99)"/><path id="Path_4421-15" data-name="Path 4421" class="cls-10" d="M139.51,606.69a30.49,30.49,0,0,1,.31,3.95" transform="translate(159.2 96.99)"/><path id="Path_4422-15" data-name="Path 4422" class="cls-10" d="M135.78,607.14l.22,3.12" transform="translate(159.2 96.99)"/><path id="Path_4423-15" data-name="Path 4423" class="cls-10" d="M144.16,606.61v3.87" transform="translate(159.2 96.99)"/><path id="Path_4424-15" data-name="Path 4424" class="cls-10" d="M149.74,606.61c-.24,1.33-.53,2.64-.89,3.94" transform="translate(159.2 96.99)"/><path id="Path_4425-15" data-name="Path 4425" class="cls-10" d="M154.32,607.6c-.26,1.43-.57,2.84-.94,4.25" transform="translate(159.2 96.99)"/></g><g id="Group_2-16" data-name="Group 2"><path id="Path_4412-16" data-name="Path 4412" class="cls-2" d="M321.36,548.41l-.16.28c-.09.13-.26.4-.29.43l-.55.78a31.26,31.26,0,0,1-2.15,2.58c-.41.43-.83.85-1.25,1.27l-.13.14,0,0c-.24.23-.49.44-.73.66a68.35,68.35,0,0,1-6.46,5l-1,.65q-.75-11.28-1.45-22.56l1.09.91c2,1.67,4.16,3.24,6.27,4.78a75.66,75.66,0,0,0,6.46,4.25l.27.15A4.06,4.06,0,0,0,321.36,548.41Z" transform="translate(159.2 96.99)"/><path id="Path_4413-16" data-name="Path 4413" class="cls-6" d="M346,525.09l-1.09.75-1,.69c-2.45,1.7-5,3.32-7.33,5.2-1.64,1.3-3.12,2.84-4.63,4.3l-1.08,1.05-.45.42a2.39,2.39,0,0,1-.23.22c-.87.8-1.76,1.57-2.69,2.29a17.73,17.73,0,0,1-1.85,1.26c.2-.13-.34.12-.64.26l-.11,0-.21-.11c-.3-.17-.6-.33-.89-.51-.5-.29-1-.62-1.46-.94-1-.69-2.09-1.28-3.1-2a83.75,83.75,0,0,1-11.53-9.47c-.4-.39-.78-.8-1.16-1.21-.09-1.86-.16-3.72-.25-5.58a3.77,3.77,0,0,1,1.52-3.36,12.67,12.67,0,0,1,4.56-2.33c9.57-2.59,19.22-3.23,27.87-1.49,5.44,1.43,5.7,1.71,5.75,6.49C346,522.36,346,523.72,346,525.09Z" transform="translate(159.2 96.99)"/><path id="Path_4414-16" data-name="Path 4414" class="cls-2" d="M346.6,555.17l-1.05-.37-.4-.14-.53-.2-.62-.25c-.54-.21-1.08-.44-1.62-.67-1.11-.48-2.22-1-3.31-1.53a100.36,100.36,0,0,1-8.95-5.09c3.29-2.12,6.06-5.24,8.91-7.95l.65-.59c.31-.28.63-.54,1-.8,1.25-1,2.57-1.83,3.86-2.74l.46-.32,1.06-.74c0,5,0,10.08.24,15.12Q346.38,552.05,346.6,555.17Z" transform="translate(159.2 96.99)"/><path id="Path_4415-16" data-name="Path 4415" class="cls-7" d="M347.52,564.41c-.34.13-.68.26-1,.41-5.42,2.32-9.64,6.9-14.67,10-.3.18-.61.34-.9.53l0,0-.36.18a16.38,16.38,0,0,1-2.14.84l-.66.17-.67.1a12.32,12.32,0,0,1-2.19,0l-.41,0-1-.1c-.77-.09-1.53-.2-2.3-.32-1.52-.24-3-.55-4.53-.94-.85-.22-1.7-.48-2.54-.77l-.53-.19-.07,0c-.41-.17-.83-.35-1.23-.54a17.63,17.63,0,0,1-2-1.13l-.09-.06-.33-.22-.05-.05-.55-.49a20.56,20.56,0,0,0,0-2.83c0-.19,0-.38,0-.57l.94-.61c6-4,12.39-8.41,16.4-14.69a91.66,91.66,0,0,0,19.71,9.54l1.1.36C347.41,563.48,347.46,564,347.52,564.41Z" transform="translate(159.2 96.99)"/><path id="Path_4416-16" data-name="Path 4416" class="cls-8" d="M326.12,618.84c-1.37,2.52-2.58,5.15-3.75,7.82-2.65,6-5.21,12.13-8.94,17.54-5.88,8.53-13.76,11.46-23.25,9.54-7.6-1.54-12.31-7.4-13.4-16.13a33.78,33.78,0,0,1,3.5-19.21c3.56-7.39,8.36-13.86,13.12-20.36,4.38-6,9-11.77,13.1-18,.21-.32.4-.64.59-1,.29.19.58.37.88.54a29.4,29.4,0,0,0,5.34,2.26,43.53,43.53,0,0,0,6.34,1.49c1.66.93,3.4,1.81,4.15,3.73a17.74,17.74,0,0,1,.78,2.67c.32,9.09.27,18.21,1.32,27.23C326,617.63,326,618.24,326.12,618.84Z" transform="translate(159.2 96.99)"/><path id="Path_4417-16" data-name="Path 4417" class="cls-2" d="M348.59,597.51a38.73,38.73,0,0,1-5,3.73c-4,2.58-7.93,5.18-11.25,8.76l-.21.24-.09-1.42c-.42-7.05-.43-14.14-.72-21.21a16.52,16.52,0,0,1,2.58-5.69,52.9,52.9,0,0,0,7.52-5.26c1.46-1.15,2.93-2.31,4.48-3.33.39-.26.79-.51,1.19-.75l.54-.31,0,0,0,0,.07,0,.88-.4c.65,3.6,1.43,7.19,2.38,10.74a33.82,33.82,0,0,1,1,5.92A10.41,10.41,0,0,1,348.59,597.51Z" transform="translate(159.2 96.99)"/><path id="Path_4418-16" data-name="Path 4418" class="cls-9" d="M276.54,634a8.88,8.88,0,0,0,5.85,3.88,24.69,24.69,0,0,0,7,.16" transform="translate(159.2 96.99)"/><path id="Path_4419-16" data-name="Path 4419" class="cls-10" d="M313.19,516.14a13.27,13.27,0,0,0,.36,5" transform="translate(159.2 96.99)"/><path id="Path_4420-16" data-name="Path 4420" class="cls-10" d="M316.9,514.85l.21,4a5,5,0,0,0,.22,1.44" transform="translate(159.2 96.99)"/><path id="Path_4421-16" data-name="Path 4421" class="cls-10" d="M323.94,514.17a30.49,30.49,0,0,1,.31,4" transform="translate(159.2 96.99)"/><path id="Path_4422-16" data-name="Path 4422" class="cls-10" d="M320.21,514.62l.22,3.12" transform="translate(159.2 96.99)"/><path id="Path_4423-16" data-name="Path 4423" class="cls-10" d="M328.59,514.09V518" transform="translate(159.2 96.99)"/><path id="Path_4424-16" data-name="Path 4424" class="cls-10" d="M334.17,514.09c-.24,1.33-.53,2.64-.89,3.94" transform="translate(159.2 96.99)"/><path id="Path_4425-16" data-name="Path 4425" class="cls-10" d="M338.75,515.08c-.26,1.43-.57,2.85-.94,4.25" transform="translate(159.2 96.99)"/></g><g id="Group_2-17" data-name="Group 2"><path id="Path_4412-17" data-name="Path 4412" class="cls-2" d="M372.48,343.89l-.16.28-.29.44-.55.77a29.68,29.68,0,0,1-2.15,2.58c-.41.43-.83.86-1.25,1.28l-.13.13s0,0,0,0l-.73.65a66.72,66.72,0,0,1-6.46,5l-1,.66q-.75-11.28-1.45-22.57l1.09.91c2,1.67,4.15,3.25,6.27,4.78a75.66,75.66,0,0,0,6.46,4.25l.27.15A3.17,3.17,0,0,0,372.48,343.89Z" transform="translate(159.2 96.99)"/><path id="Path_4413-17" data-name="Path 4413" class="cls-6" d="M397.14,320.57l-1.09.75-1,.7c-2.45,1.69-5,3.31-7.34,5.19-1.63,1.31-3.11,2.85-4.62,4.31l-1.08,1-.45.42-.23.22c-.87.8-1.76,1.58-2.69,2.29a17.86,17.86,0,0,1-1.86,1.26c.21-.13-.34.12-.64.26l-.1,0-.21-.12-.89-.5c-.5-.3-1-.63-1.46-.95-1-.69-2.09-1.27-3.1-2A83.76,83.76,0,0,1,358.82,324c-.39-.4-.77-.8-1.15-1.21-.09-1.87-.16-3.73-.25-5.59a3.78,3.78,0,0,1,1.52-3.36,12.74,12.74,0,0,1,4.56-2.33c9.57-2.58,19.22-3.22,27.87-1.49,5.44,1.43,5.7,1.71,5.75,6.5C397.13,317.84,397.14,319.21,397.14,320.57Z" transform="translate(159.2 96.99)"/><path id="Path_4414-17" data-name="Path 4414" class="cls-2" d="M397.72,350.65l-1.05-.36-.4-.15-.53-.2-.62-.24c-.55-.22-1.08-.45-1.62-.68-1.12-.48-2.22-1-3.31-1.53a100.36,100.36,0,0,1-8.95-5.09c3.29-2.12,6.06-5.23,8.91-7.95l.65-.59c.31-.27.63-.54.95-.79,1.26-1,2.58-1.84,3.87-2.74l.46-.32,1.06-.74c0,5,0,10.07.23,15.11Q397.49,347.53,397.72,350.65Z" transform="translate(159.2 96.99)"/><path id="Path_4415-17" data-name="Path 4415" class="cls-7" d="M398.64,359.9c-.34.12-.68.26-1,.4-5.42,2.32-9.65,6.9-14.67,10l-.9.53,0,0-.36.18a15.08,15.08,0,0,1-2.14.84c-.11,0-.48.13-.66.18l-.67.09a12.32,12.32,0,0,1-2.19,0l-.41,0-.95-.1c-.77-.09-1.54-.19-2.3-.31-1.52-.25-3-.55-4.53-1-.85-.22-1.7-.48-2.54-.76l-.53-.19-.07,0c-.41-.18-.83-.35-1.23-.55a17.63,17.63,0,0,1-2-1.13l-.09-.06-.33-.22-.06,0-.54-.49a20.56,20.56,0,0,0,0-2.83c0-.19,0-.38,0-.57l.94-.61c6-4,12.39-8.41,16.4-14.69a91.43,91.43,0,0,0,19.71,9.54c.36.12.73.25,1.1.36C398.52,359,398.58,359.43,398.64,359.9Z" transform="translate(159.2 96.99)"/><path id="Path_4416-17" data-name="Path 4416" class="cls-8" d="M377.24,414.33c-1.37,2.52-2.58,5.15-3.75,7.81-2.65,6-5.21,12.13-8.94,17.54-5.88,8.54-13.77,11.47-23.25,9.54-7.6-1.54-12.31-7.39-13.4-16.12a33.73,33.73,0,0,1,3.5-19.22c3.56-7.39,8.36-13.86,13.12-20.36,4.38-6,9-11.77,13.09-18,.22-.32.41-.64.6-1,.29.18.58.36.88.53a29.4,29.4,0,0,0,5.34,2.26,42,42,0,0,0,6.34,1.49c1.66.94,3.4,1.81,4.14,3.73a17.78,17.78,0,0,1,.79,2.67c.32,9.09.27,18.21,1.31,27.23C377.09,413.11,377.16,413.72,377.24,414.33Z" transform="translate(159.2 96.99)"/><path id="Path_4417-17" data-name="Path 4417" class="cls-2" d="M399.71,393a37.83,37.83,0,0,1-5,3.73c-4,2.58-7.93,5.18-11.25,8.76l-.21.24c0-.47-.06-1-.09-1.42-.42-7.05-.43-14.14-.72-21.21a16.39,16.39,0,0,1,2.58-5.68,53.88,53.88,0,0,0,7.51-5.26c1.47-1.16,2.94-2.31,4.49-3.33.39-.26.79-.51,1.19-.75l.54-.32,0,0,0,0,.07,0c.29-.15.59-.28.88-.41.65,3.61,1.43,7.19,2.38,10.74a34,34,0,0,1,1,5.92A10.41,10.41,0,0,1,399.71,393Z" transform="translate(159.2 96.99)"/><path id="Path_4418-17" data-name="Path 4418" class="cls-9" d="M327.65,429.47a8.91,8.91,0,0,0,5.86,3.87,24.69,24.69,0,0,0,7,.16" transform="translate(159.2 96.99)"/><path id="Path_4419-17" data-name="Path 4419" class="cls-10" d="M364.31,311.63a13.22,13.22,0,0,0,.36,5" transform="translate(159.2 96.99)"/><path id="Path_4420-17" data-name="Path 4420" class="cls-10" d="M368,310.33l.21,4a5,5,0,0,0,.22,1.44" transform="translate(159.2 96.99)"/><path id="Path_4421-17" data-name="Path 4421" class="cls-10" d="M375.06,309.65a30.77,30.77,0,0,1,.31,4" transform="translate(159.2 96.99)"/><path id="Path_4422-17" data-name="Path 4422" class="cls-10" d="M371.32,310.1l.23,3.12" transform="translate(159.2 96.99)"/><path id="Path_4423-17" data-name="Path 4423" class="cls-10" d="M379.71,309.57v3.88" transform="translate(159.2 96.99)"/><path id="Path_4424-17" data-name="Path 4424" class="cls-10" d="M385.28,309.58c-.23,1.32-.52,2.64-.88,3.94" transform="translate(159.2 96.99)"/><path id="Path_4425-17" data-name="Path 4425" class="cls-10" d="M389.86,310.56q-.37,2.15-.93,4.26" transform="translate(159.2 96.99)"/></g><g id="Group_2-18" data-name="Group 2"><path id="Path_4412-18" data-name="Path 4412" class="cls-2" d="M473.21,456.43c0,.08-.11.19-.16.28s-.25.4-.28.43c-.18.27-.37.52-.56.78a31.26,31.26,0,0,1-2.15,2.58c-.41.43-.83.85-1.25,1.27l-.13.14,0,0-.73.65a66.72,66.72,0,0,1-6.46,5l-1,.65q-.75-11.26-1.44-22.56c.36.31.71.61,1.08.91,2,1.67,4.16,3.24,6.28,4.78a75.5,75.5,0,0,0,6.45,4.25l.27.15A5.4,5.4,0,0,0,473.21,456.43Z" transform="translate(159.2 96.99)"/><path id="Path_4413-18" data-name="Path 4413" class="cls-6" d="M497.88,433.11l-1.09.75-1,.69c-2.45,1.7-5,3.32-7.34,5.2-1.63,1.3-3.11,2.84-4.62,4.31l-1.09,1s-.44.42-.44.42l-.24.22c-.87.8-1.75,1.58-2.69,2.29a17.73,17.73,0,0,1-1.85,1.26c.2-.13-.34.12-.64.26l-.11,0-.21-.12-.89-.5c-.49-.3-1-.63-1.45-.95-1-.69-2.1-1.28-3.11-2a83,83,0,0,1-11.53-9.47c-.39-.39-.78-.8-1.16-1.21-.09-1.86-.15-3.72-.25-5.58a3.8,3.8,0,0,1,1.52-3.36,12.75,12.75,0,0,1,4.56-2.33c9.58-2.59,19.22-3.22,27.87-1.49,5.45,1.43,5.71,1.71,5.75,6.5C497.87,430.38,497.87,431.74,497.88,433.11Z" transform="translate(159.2 96.99)"/><path id="Path_4414-18" data-name="Path 4414" class="cls-2" d="M498.46,463.19l-1-.37-.41-.14-.53-.2-.62-.25c-.54-.21-1.08-.44-1.62-.67q-1.67-.72-3.3-1.53a99,99,0,0,1-8.95-5.09c3.29-2.12,6-5.24,8.9-7.95l.65-.59c.31-.27.63-.54,1-.79,1.26-1,2.57-1.84,3.86-2.74l.46-.33,1.07-.73c0,5,0,10.07.23,15.11C498.19,459,498.3,461.11,498.46,463.19Z" transform="translate(159.2 96.99)"/><path id="Path_4415-18" data-name="Path 4415" class="cls-7" d="M499.37,472.43c-.34.13-.68.26-1,.41-5.42,2.32-9.64,6.9-14.67,10l-.9.53,0,0-.35.18a15.56,15.56,0,0,1-2.14.84l-.66.18-.67.09a12.44,12.44,0,0,1-2.2,0l-.41,0-.95-.1c-.76-.09-1.53-.19-2.29-.32-1.53-.24-3-.55-4.54-.94-.85-.22-1.7-.48-2.53-.77l-.53-.19-.08,0q-.61-.25-1.23-.54a18.5,18.5,0,0,1-2-1.13l-.09-.06-.33-.22,0-.05-.55-.49a20.56,20.56,0,0,0,0-2.83c0-.19,0-.38,0-.57l.93-.61c6-4,12.4-8.41,16.41-14.69a91.58,91.58,0,0,0,19.7,9.54l1.1.36C499.26,471.5,499.32,472,499.37,472.43Z" transform="translate(159.2 96.99)"/><path id="Path_4416-18" data-name="Path 4416" class="cls-8" d="M478,526.87c-1.38,2.51-2.59,5.14-3.76,7.81-2.64,6-5.21,12.13-8.94,17.54-5.87,8.53-13.76,11.46-23.25,9.54-7.6-1.54-12.3-7.39-13.4-16.13a33.72,33.72,0,0,1,3.51-19.21c3.56-7.39,8.36-13.86,13.11-20.36,4.38-6,9-11.77,13.1-18,.21-.32.41-.64.59-1,.29.18.58.36.88.53a29.19,29.19,0,0,0,5.35,2.26,43.1,43.1,0,0,0,6.33,1.49c1.66.93,3.4,1.81,4.15,3.73a19,19,0,0,1,.79,2.67c.32,9.09.26,18.21,1.31,27.23C477.82,525.65,477.9,526.26,478,526.87Z" transform="translate(159.2 96.99)"/><path id="Path_4417-18" data-name="Path 4417" class="cls-2" d="M500.44,505.53a37.83,37.83,0,0,1-5,3.73c-4,2.58-7.93,5.18-11.25,8.76l-.21.24-.09-1.42c-.42-7.05-.42-14.14-.71-21.21a16.21,16.21,0,0,1,2.58-5.68,55.09,55.09,0,0,0,7.51-5.26c1.46-1.16,2.93-2.31,4.48-3.34.39-.26.79-.51,1.19-.75l.54-.31.06,0,0,0,.07,0c.3-.15.59-.28.89-.41.64,3.6,1.43,7.19,2.38,10.74a34,34,0,0,1,1,5.92A10.42,10.42,0,0,1,500.44,505.53Z" transform="translate(159.2 96.99)"/><path id="Path_4418-18" data-name="Path 4418" class="cls-9" d="M428.39,542a8.89,8.89,0,0,0,5.85,3.87,24.71,24.71,0,0,0,7,.16" transform="translate(159.2 96.99)"/><path id="Path_4419-18" data-name="Path 4419" class="cls-10" d="M465.05,424.17a13.42,13.42,0,0,0,.35,5" transform="translate(159.2 96.99)"/><path id="Path_4420-18" data-name="Path 4420" class="cls-10" d="M468.75,422.87l.22,4a5,5,0,0,0,.21,1.44" transform="translate(159.2 96.99)"/><path id="Path_4421-18" data-name="Path 4421" class="cls-10" d="M475.79,422.19a28.82,28.82,0,0,1,.31,3.95" transform="translate(159.2 96.99)"/><path id="Path_4422-18" data-name="Path 4422" class="cls-10" d="M472.06,422.64l.22,3.12" transform="translate(159.2 96.99)"/><path id="Path_4423-18" data-name="Path 4423" class="cls-10" d="M480.44,422.11V426" transform="translate(159.2 96.99)"/><path id="Path_4424-18" data-name="Path 4424" class="cls-10" d="M486,422.11a40.13,40.13,0,0,1-.89,3.94" transform="translate(159.2 96.99)"/><path id="Path_4425-18" data-name="Path 4425" class="cls-10" d="M490.6,423.1c-.25,1.43-.56,2.85-.93,4.25" transform="translate(159.2 96.99)"/></g><g id="Group_2-19" data-name="Group 2"><path id="Path_4412-19" data-name="Path 4412" class="cls-2" d="M441.64,642l-.16.28c-.09.14-.26.4-.29.43-.18.27-.36.52-.55.78a31.26,31.26,0,0,1-2.15,2.58c-.41.43-.83.86-1.25,1.27l-.13.14,0,0-.73.65a66.72,66.72,0,0,1-6.46,5l-1,.66q-.75-11.28-1.45-22.57l1.09.91c2,1.67,4.16,3.24,6.27,4.78a75.66,75.66,0,0,0,6.46,4.25l.27.15A3.94,3.94,0,0,0,441.64,642Z" transform="translate(159.2 96.99)"/><path id="Path_4413-19" data-name="Path 4413" class="cls-6" d="M466.3,618.69l-1.09.75-1,.69c-2.45,1.7-5,3.32-7.33,5.2-1.63,1.31-3.12,2.84-4.63,4.31l-1.08,1-.45.42a2.39,2.39,0,0,1-.23.22c-.87.8-1.76,1.58-2.69,2.29a17.73,17.73,0,0,1-1.85,1.26c.2-.13-.34.12-.64.26l-.11,0L445,635l-.89-.5c-.5-.3-1-.63-1.46-1-1-.69-2.09-1.27-3.1-2A83.68,83.68,0,0,1,428,622.08c-.4-.4-.78-.81-1.16-1.22-.09-1.86-.16-3.72-.25-5.58a3.78,3.78,0,0,1,1.52-3.36,12.67,12.67,0,0,1,4.56-2.33c9.57-2.59,19.22-3.22,27.87-1.49,5.44,1.43,5.7,1.71,5.75,6.5C466.29,616,466.3,617.32,466.3,618.69Z" transform="translate(159.2 96.99)"/><path id="Path_4414-19" data-name="Path 4414" class="cls-2" d="M466.88,648.77l-1.05-.37-.4-.14-.53-.2-.62-.25c-.54-.21-1.08-.44-1.62-.67-1.11-.48-2.22-1-3.31-1.53a100.36,100.36,0,0,1-9-5.09c3.29-2.12,6.06-5.24,8.91-7.95L460,632c.31-.27.63-.54,1-.79,1.25-1,2.57-1.84,3.86-2.74l.46-.33,1.06-.73c0,5,0,10.07.24,15.11Q466.66,645.65,466.88,648.77Z" transform="translate(159.2 96.99)"/><path id="Path_4415-19" data-name="Path 4415" class="cls-7" d="M467.8,658c-.34.13-.68.26-1,.41-5.42,2.32-9.64,6.9-14.67,10l-.9.53,0,0-.36.18a15.08,15.08,0,0,1-2.14.84l-.66.18-.67.09a12.32,12.32,0,0,1-2.19,0l-.41,0-.95-.1c-.77-.09-1.53-.19-2.3-.32a44.42,44.42,0,0,1-4.53-.94c-.85-.22-1.7-.48-2.54-.77l-.53-.18-.07,0c-.41-.18-.83-.36-1.23-.55a17.63,17.63,0,0,1-2-1.13l-.09-.06-.33-.22-.05-.05-.55-.49a20.56,20.56,0,0,0,0-2.83c0-.19,0-.38,0-.57l.94-.61c6-4,12.39-8.41,16.4-14.69a91.66,91.66,0,0,0,19.71,9.54l1.1.36C467.69,657.08,467.74,657.55,467.8,658Z" transform="translate(159.2 96.99)"/><path id="Path_4416-19" data-name="Path 4416" class="cls-8" d="M446.4,712.45c-1.37,2.52-2.58,5.14-3.75,7.81-2.65,6-5.21,12.13-8.94,17.54-5.88,8.54-13.76,11.47-23.25,9.54-7.6-1.54-12.31-7.39-13.4-16.13a33.8,33.8,0,0,1,3.5-19.21c3.56-7.39,8.36-13.86,13.12-20.36,4.38-6,9-11.77,13.1-18,.21-.32.4-.64.59-1,.29.18.58.36.88.53a29.4,29.4,0,0,0,5.34,2.26,42.27,42.27,0,0,0,6.34,1.49c1.66.94,3.4,1.81,4.15,3.73a17.74,17.74,0,0,1,.78,2.67c.32,9.09.27,18.21,1.32,27.23C446.25,711.23,446.32,711.84,446.4,712.45Z" transform="translate(159.2 96.99)"/><path id="Path_4417-19" data-name="Path 4417" class="cls-2" d="M468.87,691.11a37.83,37.83,0,0,1-5,3.73c-4,2.58-7.93,5.18-11.25,8.76l-.21.24-.09-1.42c-.42-7-.43-14.14-.72-21.21a16.39,16.39,0,0,1,2.58-5.68,54.57,54.57,0,0,0,7.52-5.26c1.46-1.16,2.93-2.31,4.48-3.34.39-.26.79-.51,1.19-.74l.54-.32.05,0,0,0,.07,0c.29-.15.59-.28.88-.41.65,3.61,1.43,7.19,2.38,10.74a34,34,0,0,1,1,5.92A10.41,10.41,0,0,1,468.87,691.11Z" transform="translate(159.2 96.99)"/><path id="Path_4418-19" data-name="Path 4418" class="cls-9" d="M396.82,727.59a8.87,8.87,0,0,0,5.85,3.87,24.69,24.69,0,0,0,7,.16" transform="translate(159.2 96.99)"/><path id="Path_4419-19" data-name="Path 4419" class="cls-10" d="M433.48,609.75a13,13,0,0,0,.35,5" transform="translate(159.2 96.99)"/><path id="Path_4420-19" data-name="Path 4420" class="cls-10" d="M437.18,608.45l.21,4a5,5,0,0,0,.22,1.44" transform="translate(159.2 96.99)"/><path id="Path_4421-19" data-name="Path 4421" class="cls-10" d="M444.22,607.77a30.49,30.49,0,0,1,.31,4" transform="translate(159.2 96.99)"/><path id="Path_4422-19" data-name="Path 4422" class="cls-10" d="M440.49,608.22l.22,3.12" transform="translate(159.2 96.99)"/><path id="Path_4423-19" data-name="Path 4423" class="cls-10" d="M448.87,607.69v3.88" transform="translate(159.2 96.99)"/><path id="Path_4424-19" data-name="Path 4424" class="cls-10" d="M454.45,607.69c-.24,1.33-.53,2.65-.89,3.95" transform="translate(159.2 96.99)"/><path id="Path_4425-19" data-name="Path 4425" class="cls-10" d="M459,608.68c-.26,1.43-.57,2.85-.94,4.25" transform="translate(159.2 96.99)"/></g><g id="Group_2-20" data-name="Group 2"><path id="Path_4412-20" data-name="Path 4412" class="cls-2" d="M-114.15,609l-.17.28-.28.43-.55.78a33.51,33.51,0,0,1-2.16,2.58c-.41.43-.83.85-1.25,1.27l-.13.13,0,0-.73.66a67.09,67.09,0,0,1-6.46,5l-1,.65q-.76-11.28-1.45-22.56l1.08.9c2,1.68,4.16,3.25,6.28,4.79a75.5,75.5,0,0,0,6.45,4.25l.27.15A4.08,4.08,0,0,0-114.15,609Z" transform="translate(159.2 96.99)"/><path id="Path_4413-20" data-name="Path 4413" class="cls-6" d="M-89.49,585.69l-1.09.74-1,.7c-2.45,1.7-5,3.32-7.34,5.19-1.63,1.31-3.11,2.85-4.62,4.31l-1.09,1-.44.42-.24.22c-.87.79-1.75,1.57-2.68,2.29a20.94,20.94,0,0,1-1.86,1.26c.2-.14-.34.12-.64.26l-.1,0-.21-.12c-.3-.16-.6-.32-.9-.5-.49-.3-1-.63-1.45-1-1-.69-2.1-1.27-3.11-2a84.48,84.48,0,0,1-11.53-9.47c-.39-.4-.77-.8-1.15-1.21-.1-1.86-.16-3.72-.26-5.58a3.76,3.76,0,0,1,1.53-3.36,12.62,12.62,0,0,1,4.55-2.33c9.58-2.59,19.23-3.23,27.88-1.49,5.44,1.43,5.7,1.71,5.75,6.49C-89.5,583-89.49,584.32-89.49,585.69Z" transform="translate(159.2 96.99)"/><path id="Path_4414-20" data-name="Path 4414" class="cls-2" d="M-88.91,615.77l-1-.37-.4-.15-.53-.19-.63-.25-1.61-.67c-1.12-.49-2.22-1-3.31-1.54a96.53,96.53,0,0,1-9-5.08c3.29-2.12,6-5.24,8.91-8l.64-.58c.31-.28.63-.55,1-.8,1.26-1,2.58-1.83,3.87-2.74l.46-.32,1.06-.74c0,5,0,10.08.23,15.12Q-89.14,612.64-88.91,615.77Z" transform="translate(159.2 96.99)"/><path id="Path_4415-20" data-name="Path 4415" class="cls-7" d="M-88,625c-.35.13-.69.26-1,.4-5.43,2.32-9.65,6.91-14.68,10-.29.19-.6.35-.9.54h0l-.36.18a15.62,15.62,0,0,1-2.14.85l-.66.17-.67.1a12.44,12.44,0,0,1-2.2,0l-.4,0-1-.1c-.76-.09-1.53-.2-2.29-.32-1.52-.24-3-.55-4.53-.94-.86-.23-1.7-.48-2.54-.77l-.53-.19-.07,0c-.42-.17-.83-.35-1.24-.54a17.06,17.06,0,0,1-2-1.14l-.08-.05a3.88,3.88,0,0,1-.33-.23l-.06,0-.54-.49a22.27,22.27,0,0,0,0-2.83c0-.19,0-.38,0-.58l.93-.61c6-4,12.4-8.41,16.41-14.69a91.58,91.58,0,0,0,19.7,9.54l1.11.37C-88.11,624.08-88,624.55-88,625Z" transform="translate(159.2 96.99)"/><path id="Path_4416-20" data-name="Path 4416" class="cls-8" d="M-109.39,679.44c-1.38,2.52-2.59,5.15-3.76,7.82-2.64,6-5.21,12.13-8.94,17.54-5.87,8.53-13.76,11.46-23.24,9.54-7.6-1.54-12.31-7.4-13.41-16.13A33.79,33.79,0,0,1-155.23,679c3.56-7.4,8.36-13.86,13.12-20.36,4.37-6,9-11.77,13.09-18,.21-.32.41-.64.59-1,.29.19.59.36.88.53a29.08,29.08,0,0,0,5.35,2.26,42.15,42.15,0,0,0,6.33,1.49c1.66.94,3.4,1.81,4.15,3.74a18.64,18.64,0,0,1,.79,2.67c.32,9.09.27,18.2,1.31,27.23C-109.55,678.23-109.47,678.83-109.39,679.44Z" transform="translate(159.2 96.99)"/><path id="Path_4417-20" data-name="Path 4417" class="cls-2" d="M-86.93,658.11a39.32,39.32,0,0,1-5,3.73c-4,2.57-7.93,5.17-11.25,8.76l-.22.24-.09-1.42c-.41-7.06-.42-14.15-.71-21.22a16.29,16.29,0,0,1,2.58-5.68,52.81,52.81,0,0,0,7.51-5.26c1.47-1.16,2.93-2.31,4.48-3.33.4-.26.79-.51,1.19-.75l.54-.31.06,0,0,0,.07,0,.89-.4c.65,3.6,1.43,7.18,2.38,10.74a33.65,33.65,0,0,1,1,5.92A10.43,10.43,0,0,1-86.93,658.11Z" transform="translate(159.2 96.99)"/><path id="Path_4418-20" data-name="Path 4418" class="cls-9" d="M-159,694.58a8.93,8.93,0,0,0,5.85,3.88,24.71,24.71,0,0,0,7,.16" transform="translate(159.2 96.99)"/><path id="Path_4419-20" data-name="Path 4419" class="cls-10" d="M-122.32,576.74a13.27,13.27,0,0,0,.36,5" transform="translate(159.2 96.99)"/><path id="Path_4420-20" data-name="Path 4420" class="cls-10" d="M-118.61,575.45l.21,4a4.59,4.59,0,0,0,.22,1.43" transform="translate(159.2 96.99)"/><path id="Path_4421-20" data-name="Path 4421" class="cls-10" d="M-111.58,574.76a29.07,29.07,0,0,1,.31,4" transform="translate(159.2 96.99)"/><path id="Path_4422-20" data-name="Path 4422" class="cls-10" d="M-115.31,575.22l.22,3.11" transform="translate(159.2 96.99)"/><path id="Path_4423-20" data-name="Path 4423" class="cls-10" d="M-106.93,574.69v3.87" transform="translate(159.2 96.99)"/><path id="Path_4424-20" data-name="Path 4424" class="cls-10" d="M-101.35,574.69c-.23,1.33-.53,2.64-.88,3.94" transform="translate(159.2 96.99)"/><path id="Path_4425-20" data-name="Path 4425" class="cls-10" d="M-96.77,575.68c-.25,1.43-.56,2.84-.93,4.25" transform="translate(159.2 96.99)"/></g></g></g><line id="Line_7" data-name="Line 7" class="cls-11" x1="373.2" y1="130.98" x2="429.99" y2="130.98"/><line id="Line_7-2" data-name="Line 7-2" class="cls-12" x1="188.62" y1="130.98" x2="243.2" y2="130.98"/><g id="MEMBERSHIP" class="cls-13"><text class="cls-14" transform="translate(259.12 133.79)">MEMBERSHIP</text></g></g></g></svg>