<svg xmlns="http://www.w3.org/2000/svg" xmlns:xlink="http://www.w3.org/1999/xlink" viewBox="0 0 754.18 844.9"><defs><style>.cls-1,.cls-13,.cls-14,.cls-4,.cls-5{fill:none;}.cls-2{fill:#f2de79;}.cls-3{fill:#f8f4eb;}.cls-4,.cls-5{stroke:#03588c;}.cls-13,.cls-14,.cls-4,.cls-5{stroke-miterlimit:10;}.cls-4{stroke-width:0.41px;}.cls-5{stroke-width:0.55px;}.cls-6,.cls-7{isolation:isolate;}.cls-7{font-size:12px;font-family:NotoSans-Regular, Noto Sans;letter-spacing:0.2em;}.cls-10,.cls-7{fill:#03588c;}.cls-8{opacity:0.15;}.cls-9{clip-path:url(#clip-path);}.cls-11{fill:#ff9685;}.cls-12{fill:#0388a6;}.cls-13{stroke:#ededed;}.cls-13,.cls-14{stroke-width:0.52px;}.cls-14{stroke:#00a99d;}</style><clipPath id="clip-path" transform="translate(109.88 207.02)"><rect class="cls-1" x="12" y="10.5" width="276" height="446" rx="21.78"/></clipPath></defs><g id="圖層_2" data-name="圖層 2"><g id="圖層_1-2" data-name="圖層 1"><rect class="cls-2" x="109.88" y="207.02" width="300" height="470" rx="34.13"/><rect class="cls-3" x="121.88" y="217.52" width="276" height="446" rx="21.78"/><line id="Line_7" data-name="Line 7" class="cls-4" x1="324.88" y1="241.63" x2="381.67" y2="241.63"/><line id="Line_7-2" data-name="Line 7-2" class="cls-5" x1="140.3" y1="241.63" x2="194.88" y2="241.63"/><g id="MEMBERSHIP" class="cls-6"><text class="cls-7" transform="translate(210.8 244.44)">MEMBERSHIP</text></g><g class="cls-8"><g class="cls-9"><g id="Group_2" data-name="Group 2"><path id="Path_4412" data-name="Path 4412" class="cls-2" d="M63.76-106.13a2.61,2.61,0,0,1-.17.28c-.08.14-.25.4-.28.44-.18.26-.36.52-.55.77a28.1,28.1,0,0,1-2.16,2.58c-.4.43-.83.86-1.25,1.28l-.13.13,0,0-.72.65A66.85,66.85,0,0,1,52-95l-1,.66q-.75-11.28-1.45-22.57l1.08.91c2,1.67,4.16,3.25,6.28,4.78A71.89,71.89,0,0,0,63.41-107a2.34,2.34,0,0,0,.27.15A3.17,3.17,0,0,0,63.76-106.13Z" transform="translate(109.88 207.02)"/><path id="Path_4413" data-name="Path 4413" class="cls-10" d="M88.42-129.45l-1.09.75-1,.7c-2.45,1.69-5,3.31-7.34,5.19-1.63,1.31-3.11,2.85-4.62,4.31l-1.08,1-.45.43-.23.21c-.87.8-1.76,1.58-2.69,2.29A19,19,0,0,1,68-113.27c.2-.13-.34.12-.64.26l-.1,0-.21-.12-.9-.5c-.49-.3-1-.63-1.45-1-1-.69-2.1-1.27-3.11-2a84.48,84.48,0,0,1-11.53-9.47c-.39-.4-.77-.8-1.15-1.21-.1-1.86-.16-3.73-.26-5.59a3.81,3.81,0,0,1,1.53-3.36,12.78,12.78,0,0,1,4.55-2.33c9.58-2.58,19.23-3.22,27.88-1.49,5.44,1.43,5.7,1.71,5.75,6.5C88.41-132.18,88.42-130.81,88.42-129.45Z" transform="translate(109.88 207.02)"/><path id="Path_4414" data-name="Path 4414" class="cls-2" d="M89-99.37l-1-.36-.4-.15-.53-.2-.63-.24L84.78-101c-1.12-.48-2.22-1-3.31-1.53a99,99,0,0,1-9-5.09c3.29-2.12,6-5.23,8.91-7.95,0,0,.49-.46.65-.59.31-.27.62-.54,1-.79,1.26-1,2.58-1.84,3.87-2.74l.46-.32,1.06-.74c0,5,0,10.08.23,15.11Q88.77-102.49,89-99.37Z" transform="translate(109.88 207.02)"/><path id="Path_4415" data-name="Path 4415" class="cls-11" d="M89.92-90.12c-.35.12-.69.26-1,.4-5.43,2.32-9.65,6.9-14.67,10l-.91.53a0,0,0,0,1,0,0l-.36.18a14,14,0,0,1-2.14.84c-.11,0-.48.13-.66.18l-.67.09a12.44,12.44,0,0,1-2.2,0l-.4,0-1-.1c-.77-.09-1.54-.19-2.3-.31-1.52-.25-3-.55-4.53-.95-.85-.22-1.7-.47-2.54-.76L56-80.19l-.07,0c-.42-.18-.83-.35-1.23-.55a17.76,17.76,0,0,1-2-1.13L52.59-82a3.78,3.78,0,0,1-.33-.22l-.06,0-.54-.49a22.27,22.27,0,0,0,0-2.83c0-.19,0-.38,0-.57l.93-.61c6-4,12.4-8.41,16.41-14.69a91.43,91.43,0,0,0,19.71,9.54c.36.12.73.25,1.1.36C89.8-91,89.86-90.59,89.92-90.12Z" transform="translate(109.88 207.02)"/><path id="Path_4416" data-name="Path 4416" class="cls-12" d="M68.52-35.69c-1.37,2.52-2.59,5.15-3.75,7.81-2.65,6-5.22,12.13-8.94,17.54C50-1.8,42.06,1.13,32.58-.8,25-2.34,20.27-8.19,19.17-16.92a33.82,33.82,0,0,1,3.51-19.22C26.24-43.53,31-50,35.8-56.49c4.37-6,9-11.78,13.09-18q.31-.48.6-1l.87.53a29.79,29.79,0,0,0,5.35,2.26A42.15,42.15,0,0,0,62-71.15c1.66.94,3.41,1.81,4.15,3.73A17.56,17.56,0,0,1,67-64.74c.32,9.08.27,18.2,1.31,27.22C68.36-36.91,68.44-36.3,68.52-35.69Z" transform="translate(109.88 207.02)"/><path id="Path_4417" data-name="Path 4417" class="cls-2" d="M91-57a38.26,38.26,0,0,1-5,3.73c-4,2.58-7.93,5.18-11.25,8.76-.08.08-.14.17-.22.24,0-.47-.06-.94-.08-1.42C74-52.77,74-59.86,73.69-66.93a16.39,16.39,0,0,1,2.58-5.68,54.48,54.48,0,0,0,7.51-5.26c1.47-1.16,2.94-2.31,4.48-3.33.4-.26.79-.51,1.19-.75l.54-.32.06,0,0,0,.08,0c.29-.15.59-.28.88-.41.65,3.61,1.43,7.19,2.38,10.74a34,34,0,0,1,1,5.92A10.41,10.41,0,0,1,91-57Z" transform="translate(109.88 207.02)"/><path id="Path_4418" data-name="Path 4418" class="cls-13" d="M18.93-20.55a9,9,0,0,0,5.86,3.88,25,25,0,0,0,7,.15" transform="translate(109.88 207.02)"/><path id="Path_4419" data-name="Path 4419" class="cls-14" d="M55.59-138.39a13.22,13.22,0,0,0,.36,5" transform="translate(109.88 207.02)"/><path id="Path_4420" data-name="Path 4420" class="cls-14" d="M59.3-139.69l.21,4a4.66,4.66,0,0,0,.22,1.44" transform="translate(109.88 207.02)"/><path id="Path_4421" data-name="Path 4421" class="cls-14" d="M66.34-140.37a29.06,29.06,0,0,1,.3,4" transform="translate(109.88 207.02)"/><path id="Path_4422" data-name="Path 4422" class="cls-14" d="M62.6-139.91l.22,3.11" transform="translate(109.88 207.02)"/><path id="Path_4423" data-name="Path 4423" class="cls-14" d="M71-140.45v3.88" transform="translate(109.88 207.02)"/><path id="Path_4424" data-name="Path 4424" class="cls-14" d="M76.56-140.44c-.23,1.32-.53,2.64-.88,3.94" transform="translate(109.88 207.02)"/><path id="Path_4425" data-name="Path 4425" class="cls-14" d="M81.14-139.46q-.37,2.15-.93,4.26" transform="translate(109.88 207.02)"/></g><g id="Group_2-2" data-name="Group 2"><path id="Path_4412-2" data-name="Path 4412" class="cls-2" d="M176.52,22.64l-.16.28-.29.44c-.18.26-.36.52-.55.77a29.68,29.68,0,0,1-2.15,2.58c-.41.43-.83.86-1.25,1.28l-.13.13,0,0-.73.65a66.72,66.72,0,0,1-6.46,5l-1,.66q-.75-11.28-1.45-22.57l1.09.91c2,1.67,4.16,3.25,6.27,4.78a73.34,73.34,0,0,0,6.46,4.25l.27.15A3.17,3.17,0,0,0,176.52,22.64Z" transform="translate(109.88 207.02)"/><path id="Path_4413-2" data-name="Path 4413" class="cls-10" d="M201.18-.68l-1.09.75-1,.7c-2.45,1.69-5,3.31-7.34,5.19-1.63,1.31-3.11,2.85-4.62,4.31l-1.08,1-.45.43-.23.21c-.87.8-1.76,1.58-2.69,2.29a18.86,18.86,0,0,1-1.85,1.26c.2-.13-.35.12-.64.26l-.11,0-.21-.12-.89-.5c-.5-.3-1-.63-1.46-.95-1-.69-2.09-1.27-3.1-2a85.18,85.18,0,0,1-11.54-9.47c-.39-.4-.77-.8-1.15-1.21-.09-1.86-.16-3.73-.25-5.59A3.78,3.78,0,0,1,163-7.45a12.74,12.74,0,0,1,4.56-2.33c9.57-2.58,19.22-3.22,27.87-1.49,5.44,1.43,5.7,1.71,5.75,6.5C201.17-3.41,201.18-2,201.18-.68Z" transform="translate(109.88 207.02)"/><path id="Path_4414-2" data-name="Path 4414" class="cls-2" d="M201.76,29.4l-1-.36-.4-.15-.53-.2-.62-.24c-.55-.22-1.08-.45-1.62-.68-1.12-.48-2.22-1-3.31-1.53a100.36,100.36,0,0,1-8.95-5.09c3.29-2.12,6.06-5.23,8.91-7.95l.65-.59c.31-.27.63-.54,1-.79,1.25-1,2.57-1.84,3.86-2.74l.46-.32L201.18,8c0,5,0,10.08.24,15.11Q201.54,26.28,201.76,29.4Z" transform="translate(109.88 207.02)"/><path id="Path_4415-2" data-name="Path 4415" class="cls-11" d="M202.68,38.65c-.34.12-.68.26-1,.4-5.42,2.32-9.65,6.9-14.67,10l-.9.53,0,0-.36.18a14,14,0,0,1-2.14.84l-.66.18-.67.09a12.32,12.32,0,0,1-2.19,0l-.41,0-.95-.1c-.77-.09-1.54-.19-2.3-.31-1.52-.25-3-.55-4.53-.95-.85-.22-1.7-.47-2.54-.76l-.53-.19-.07,0c-.41-.18-.83-.35-1.23-.55a17.63,17.63,0,0,1-2-1.13l-.09-.06-.33-.22s0,0-.05-.05l-.55-.49a20.57,20.57,0,0,0,0-2.83c0-.19,0-.38,0-.57l.94-.61c6-4,12.39-8.41,16.4-14.69a91.43,91.43,0,0,0,19.71,9.54c.36.12.73.25,1.1.36C202.57,37.72,202.62,38.18,202.68,38.65Z" transform="translate(109.88 207.02)"/><path id="Path_4416-2" data-name="Path 4416" class="cls-12" d="M181.28,93.08c-1.37,2.52-2.58,5.15-3.75,7.81-2.65,6-5.21,12.13-8.94,17.54-5.88,8.54-13.77,11.47-23.25,9.54-7.6-1.54-12.31-7.39-13.4-16.12a33.73,33.73,0,0,1,3.5-19.22c3.56-7.39,8.36-13.85,13.12-20.35,4.38-6,9-11.78,13.09-18,.22-.32.41-.64.6-1,.29.18.58.36.88.53a29.4,29.4,0,0,0,5.34,2.26,42,42,0,0,0,6.34,1.49c1.66.94,3.4,1.81,4.15,3.73a18.74,18.74,0,0,1,.78,2.68c.32,9.08.27,18.2,1.31,27.22C181.13,91.86,181.2,92.47,181.28,93.08Z" transform="translate(109.88 207.02)"/><path id="Path_4417-2" data-name="Path 4417" class="cls-2" d="M203.75,71.74a37,37,0,0,1-5,3.73c-4,2.58-7.93,5.18-11.25,8.76-.07.08-.14.17-.21.24l-.09-1.42c-.42-7-.43-14.14-.72-21.21A16.48,16.48,0,0,1,189,56.16a54.57,54.57,0,0,0,7.52-5.26c1.46-1.16,2.93-2.31,4.48-3.33.39-.26.79-.51,1.19-.75l.54-.32.05,0,0,0,.07,0c.29-.15.59-.28.88-.41.65,3.61,1.43,7.19,2.38,10.75a33.7,33.7,0,0,1,1,5.91A10.41,10.41,0,0,1,203.75,71.74Z" transform="translate(109.88 207.02)"/><path id="Path_4418-2" data-name="Path 4418" class="cls-13" d="M131.69,108.22a9,9,0,0,0,5.86,3.88,25.06,25.06,0,0,0,7,.15" transform="translate(109.88 207.02)"/><path id="Path_4419-2" data-name="Path 4419" class="cls-14" d="M168.35-9.62a13.22,13.22,0,0,0,.36,5" transform="translate(109.88 207.02)"/><path id="Path_4420-2" data-name="Path 4420" class="cls-14" d="M172.06-10.92l.21,4a5,5,0,0,0,.22,1.44" transform="translate(109.88 207.02)"/><path id="Path_4421-2" data-name="Path 4421" class="cls-14" d="M179.1-11.6a30.77,30.77,0,0,1,.31,3.95" transform="translate(109.88 207.02)"/><path id="Path_4422-2" data-name="Path 4422" class="cls-14" d="M175.36-11.14,175.59-8" transform="translate(109.88 207.02)"/><path id="Path_4423-2" data-name="Path 4423" class="cls-14" d="M183.75-11.68V-7.8" transform="translate(109.88 207.02)"/><path id="Path_4424-2" data-name="Path 4424" class="cls-14" d="M189.33-11.67c-.24,1.32-.53,2.64-.89,3.94" transform="translate(109.88 207.02)"/><path id="Path_4425-2" data-name="Path 4425" class="cls-14" d="M193.91-10.69c-.26,1.43-.57,2.85-.94,4.26" transform="translate(109.88 207.02)"/></g><g id="Group_2-3" data-name="Group 2"><path id="Path_4412-3" data-name="Path 4412" class="cls-2" d="M242.17-170.51l-.16.28-.29.43c-.17.26-.36.52-.55.78a31.26,31.26,0,0,1-2.15,2.58c-.41.43-.83.85-1.25,1.27l-.13.13s0,0,0,0l-.73.66a68.35,68.35,0,0,1-6.46,5l-1,.65Q228.7-170,228-181.29c.36.3.72.61,1.09.9,2,1.68,4.16,3.25,6.28,4.79a74,74,0,0,0,6.45,4.25l.27.15A5.4,5.4,0,0,0,242.17-170.51Z" transform="translate(109.88 207.02)"/><path id="Path_4413-3" data-name="Path 4413" class="cls-10" d="M266.84-193.83l-1.1.74-1,.7c-2.45,1.7-5,3.32-7.33,5.19-1.63,1.31-3.11,2.85-4.62,4.31l-1.09,1-.44.42-.24.22c-.87.79-1.76,1.57-2.69,2.29a19.43,19.43,0,0,1-1.85,1.26c.2-.14-.34.12-.64.26l-.11,0-.21-.12c-.29-.16-.6-.32-.89-.5-.5-.3-1-.63-1.46-.95-1-.69-2.09-1.27-3.1-2a84.48,84.48,0,0,1-11.53-9.47c-.39-.4-.78-.8-1.16-1.21-.09-1.86-.15-3.72-.25-5.58a3.78,3.78,0,0,1,1.52-3.36,12.67,12.67,0,0,1,4.56-2.33c9.58-2.59,19.22-3.23,27.87-1.49,5.45,1.43,5.71,1.71,5.75,6.49C266.83-196.56,266.83-195.2,266.84-193.83Z" transform="translate(109.88 207.02)"/><path id="Path_4414-3" data-name="Path 4414" class="cls-2" d="M267.41-163.75l-1.05-.37-.4-.15-.53-.19-.62-.25-1.62-.67c-1.11-.49-2.21-1-3.31-1.54a97.69,97.69,0,0,1-8.94-5.08c3.29-2.12,6.05-5.24,8.9-8,0,0,.5-.45.65-.58.31-.28.63-.54,1-.8,1.25-.95,2.57-1.83,3.86-2.74l.46-.32,1.07-.74c0,5,0,10.08.23,15.12Q267.19-166.88,267.41-163.75Z" transform="translate(109.88 207.02)"/><path id="Path_4415-3" data-name="Path 4415" class="cls-11" d="M268.33-154.51l-1,.4c-5.42,2.33-9.64,6.91-14.67,10-.3.19-.61.35-.9.54l0,0a4,4,0,0,1-.36.17,15,15,0,0,1-2.13.85l-.66.17-.68.1a12.32,12.32,0,0,1-2.19,0l-.41,0-.95-.1c-.77-.09-1.53-.2-2.3-.32-1.52-.24-3-.55-4.53-.94-.85-.23-1.7-.48-2.53-.77l-.53-.19-.08,0q-.62-.25-1.23-.54a17.06,17.06,0,0,1-2-1.14l-.09-.05-.33-.23,0,0-.55-.49a20.56,20.56,0,0,0,0-2.83l0-.57.93-.62c6-4,12.39-8.41,16.41-14.69a91.58,91.58,0,0,0,19.7,9.54l1.1.37C268.22-155.44,268.27-155,268.33-154.51Z" transform="translate(109.88 207.02)"/><path id="Path_4416-3" data-name="Path 4416" class="cls-12" d="M246.94-100.08c-1.38,2.52-2.59,5.15-3.76,7.82-2.64,6-5.21,12.13-8.94,17.54-5.87,8.53-13.76,11.46-23.25,9.54-7.6-1.54-12.31-7.4-13.4-16.13a33.7,33.7,0,0,1,3.51-19.21c3.56-7.4,8.35-13.86,13.11-20.36,4.38-6,9-11.77,13.1-18,.21-.32.41-.64.59-1,.29.19.58.37.88.53a28.52,28.52,0,0,0,5.35,2.26,41.86,41.86,0,0,0,6.33,1.49c1.66.94,3.4,1.81,4.15,3.74a18.64,18.64,0,0,1,.79,2.67c.32,9.09.26,18.21,1.31,27.23C246.78-101.29,246.86-100.69,246.94-100.08Z" transform="translate(109.88 207.02)"/><path id="Path_4417-3" data-name="Path 4417" class="cls-2" d="M269.4-121.41a38.73,38.73,0,0,1-5,3.73c-4,2.57-7.93,5.17-11.25,8.76l-.21.24-.09-1.42c-.42-7.06-.42-14.15-.71-21.22a16.45,16.45,0,0,1,2.57-5.68,52.9,52.9,0,0,0,7.52-5.26c1.46-1.16,2.93-2.31,4.48-3.33.39-.26.79-.51,1.19-.75l.54-.31.06,0,0,0,.07,0,.89-.4q1,5.4,2.37,10.74a33.67,33.67,0,0,1,1.05,5.92A10.45,10.45,0,0,1,269.4-121.41Z" transform="translate(109.88 207.02)"/><path id="Path_4418-3" data-name="Path 4418" class="cls-13" d="M197.35-84.94a8.91,8.91,0,0,0,5.85,3.88,24.7,24.7,0,0,0,7,.16" transform="translate(109.88 207.02)"/><path id="Path_4419-3" data-name="Path 4419" class="cls-14" d="M234-202.78a13.27,13.27,0,0,0,.35,5" transform="translate(109.88 207.02)"/><path id="Path_4420-3" data-name="Path 4420" class="cls-14" d="M237.71-204.07l.21,4a5.27,5.27,0,0,0,.22,1.43" transform="translate(109.88 207.02)"/><path id="Path_4421-3" data-name="Path 4421" class="cls-14" d="M244.75-204.76a30.77,30.77,0,0,1,.31,3.95" transform="translate(109.88 207.02)"/><path id="Path_4422-3" data-name="Path 4422" class="cls-14" d="M241-204.3l.22,3.11" transform="translate(109.88 207.02)"/><path id="Path_4423-3" data-name="Path 4423" class="cls-14" d="M249.4-204.83V-201" transform="translate(109.88 207.02)"/><path id="Path_4424-3" data-name="Path 4424" class="cls-14" d="M255-204.83c-.24,1.33-.53,2.64-.89,3.94" transform="translate(109.88 207.02)"/><path id="Path_4425-3" data-name="Path 4425" class="cls-14" d="M259.56-203.84c-.25,1.43-.56,2.84-.93,4.25" transform="translate(109.88 207.02)"/></g><g id="Group_2-4" data-name="Group 2"><path id="Path_4412-4" data-name="Path 4412" class="cls-2" d="M364.46-67.17l-.17.28-.28.43-.55.78a29.5,29.5,0,0,1-2.16,2.58c-.4.43-.82.85-1.24,1.27l-.14.13,0,0-.72.66a68.35,68.35,0,0,1-6.46,5l-1,.65q-.75-11.28-1.45-22.56c.36.3.72.61,1.08.9,2.05,1.68,4.16,3.25,6.28,4.79A74.12,74.12,0,0,0,364.11-68l.27.15A3.25,3.25,0,0,0,364.46-67.17Z" transform="translate(109.88 207.02)"/><path id="Path_4413-4" data-name="Path 4413" class="cls-10" d="M389.12-90.49l-1.09.74-1,.7c-2.45,1.7-5,3.32-7.34,5.2-1.63,1.3-3.11,2.84-4.62,4.3l-1.08,1-.45.42-.23.22c-.87.8-1.76,1.57-2.69,2.29a19,19,0,0,1-1.86,1.26c.2-.13-.34.12-.64.26l-.1,0-.21-.12c-.3-.16-.6-.32-.9-.5-.49-.3-1-.62-1.45-1-1-.68-2.1-1.27-3.1-2a84,84,0,0,1-11.54-9.47c-.39-.39-.77-.8-1.15-1.21-.1-1.86-.16-3.72-.26-5.58a3.8,3.8,0,0,1,1.53-3.36,12.62,12.62,0,0,1,4.55-2.33c9.58-2.59,19.23-3.23,27.88-1.49,5.44,1.43,5.7,1.71,5.75,6.49C389.11-93.22,389.12-91.86,389.12-90.49Z" transform="translate(109.88 207.02)"/><path id="Path_4414-4" data-name="Path 4414" class="cls-2" d="M389.7-60.41l-1.05-.37-.4-.14-.53-.2-.63-.25L385.48-62c-1.12-.48-2.22-1-3.31-1.54a96.53,96.53,0,0,1-8.95-5.08c3.29-2.12,6-5.24,8.91-8,0,0,.49-.45.65-.58.31-.28.62-.54,1-.8,1.26-1,2.58-1.83,3.87-2.74l.46-.32,1.06-.74c0,5,0,10.08.23,15.12Q389.47-63.53,389.7-60.41Z" transform="translate(109.88 207.02)"/><path id="Path_4415-4" data-name="Path 4415" class="cls-11" d="M390.62-51.17c-.35.13-.69.26-1,.4-5.43,2.33-9.65,6.91-14.67,10-.3.19-.61.35-.91.54l0,0-.36.17a15.13,15.13,0,0,1-2.14.85l-.66.17-.67.1a12.44,12.44,0,0,1-2.2,0l-.4,0-.95-.1c-.77-.09-1.54-.2-2.3-.32-1.52-.24-3-.55-4.53-.94-.85-.23-1.7-.48-2.54-.77l-.53-.19-.07,0q-.63-.25-1.23-.54a16.44,16.44,0,0,1-2.05-1.14l-.08,0a3.88,3.88,0,0,1-.33-.23l-.06,0-.54-.49a20.56,20.56,0,0,0,0-2.83c0-.19,0-.38,0-.57l.93-.61c6-4,12.4-8.42,16.41-14.69a91.86,91.86,0,0,0,19.71,9.53l1.1.37C390.5-52.1,390.56-51.63,390.62-51.17Z" transform="translate(109.88 207.02)"/><path id="Path_4416-4" data-name="Path 4416" class="cls-12" d="M369.22,3.26c-1.37,2.52-2.59,5.15-3.75,7.82-2.65,6-5.22,12.13-8.94,17.54-5.88,8.53-13.77,11.46-23.25,9.54-7.6-1.54-12.31-7.4-13.41-16.13a33.79,33.79,0,0,1,3.51-19.21c3.56-7.4,8.36-13.86,13.12-20.36,4.37-6,9-11.77,13.09-18,.21-.32.41-.64.6-1,.29.19.58.37.87.53a28.41,28.41,0,0,0,5.35,2.26,43.44,43.44,0,0,0,6.33,1.5c1.67.93,3.41,1.81,4.15,3.73a17.44,17.44,0,0,1,.79,2.67C368-16.7,368-7.58,369,1.44,369.06,2.05,369.14,2.66,369.22,3.26Z" transform="translate(109.88 207.02)"/><path id="Path_4417-4" data-name="Path 4417" class="cls-2" d="M391.69-18.07a40.14,40.14,0,0,1-5,3.73c-4,2.57-7.93,5.17-11.25,8.76l-.22.24c0-.47-.06-1-.08-1.42-.42-7.06-.43-14.15-.72-21.22A16.48,16.48,0,0,1,377-33.66a52.81,52.81,0,0,0,7.51-5.26c1.47-1.16,2.94-2.31,4.48-3.33.4-.26.79-.51,1.19-.75l.54-.31.06,0,0,0,.08,0,.88-.4c.65,3.6,1.43,7.18,2.38,10.74a33.65,33.65,0,0,1,1,5.92A10.41,10.41,0,0,1,391.69-18.07Z" transform="translate(109.88 207.02)"/><path id="Path_4418-4" data-name="Path 4418" class="cls-13" d="M319.63,18.4a8.93,8.93,0,0,0,5.86,3.88,24.69,24.69,0,0,0,7,.16" transform="translate(109.88 207.02)"/><path id="Path_4419-4" data-name="Path 4419" class="cls-14" d="M356.29-99.44a13.27,13.27,0,0,0,.36,5" transform="translate(109.88 207.02)"/><path id="Path_4420-4" data-name="Path 4420" class="cls-14" d="M360-100.73l.21,4a4.59,4.59,0,0,0,.22,1.43" transform="translate(109.88 207.02)"/><path id="Path_4421-4" data-name="Path 4421" class="cls-14" d="M367-101.42a29.06,29.06,0,0,1,.3,4" transform="translate(109.88 207.02)"/><path id="Path_4422-4" data-name="Path 4422" class="cls-14" d="M363.3-101l.22,3.12" transform="translate(109.88 207.02)"/><path id="Path_4423-4" data-name="Path 4423" class="cls-14" d="M371.68-101.49v3.87" transform="translate(109.88 207.02)"/><path id="Path_4424-4" data-name="Path 4424" class="cls-14" d="M377.26-101.49c-.23,1.33-.53,2.64-.88,3.94" transform="translate(109.88 207.02)"/><path id="Path_4425-4" data-name="Path 4425" class="cls-14" d="M381.84-100.5c-.25,1.43-.56,2.84-.93,4.25" transform="translate(109.88 207.02)"/></g><g id="Group_2-5" data-name="Group 2"><path id="Path_4412-5" data-name="Path 4412" class="cls-2" d="M277.25,124.9c0,.09-.11.19-.16.28s-.25.4-.28.43c-.18.27-.37.52-.55.78A33.51,33.51,0,0,1,274.1,129c-.41.43-.83.86-1.25,1.27l-.13.14,0,0c-.24.22-.48.44-.73.65a66.72,66.72,0,0,1-6.46,5l-1,.66q-.75-11.28-1.44-22.57c.36.31.71.61,1.08.91,2,1.67,4.16,3.24,6.28,4.78a75.5,75.5,0,0,0,6.45,4.25l.27.15A5.2,5.2,0,0,0,277.25,124.9Z" transform="translate(109.88 207.02)"/><path id="Path_4413-5" data-name="Path 4413" class="cls-10" d="M301.92,101.58l-1.09.75-1,.69c-2.45,1.7-5,3.32-7.34,5.2-1.63,1.31-3.11,2.84-4.62,4.31-.36.35-.72.7-1.09,1,0,.05-.44.42-.44.42l-.24.22c-.87.8-1.75,1.58-2.69,2.29a17.73,17.73,0,0,1-1.85,1.26c.2-.13-.34.12-.64.26l-.11,0-.2-.12-.9-.5c-.49-.3-1-.63-1.45-1-1-.69-2.1-1.27-3.11-2A83.68,83.68,0,0,1,263.6,105c-.39-.4-.78-.8-1.16-1.22-.09-1.86-.15-3.72-.25-5.58a3.78,3.78,0,0,1,1.53-3.36,12.62,12.62,0,0,1,4.55-2.33c9.58-2.59,19.23-3.22,27.88-1.49,5.44,1.43,5.7,1.71,5.74,6.5C301.91,98.85,301.91,100.21,301.92,101.58Z" transform="translate(109.88 207.02)"/><path id="Path_4414-5" data-name="Path 4414" class="cls-2" d="M302.5,131.66l-1.05-.37-.4-.14-.53-.2-.63-.25c-.54-.21-1.08-.44-1.62-.67q-1.66-.72-3.3-1.53a99,99,0,0,1-9-5.09c3.29-2.12,6.05-5.24,8.9-8l.65-.59c.31-.27.63-.54,1-.79,1.26-1,2.57-1.84,3.86-2.74l.46-.33,1.07-.73c0,5,0,10.07.23,15.11C302.23,127.49,302.34,129.58,302.5,131.66Z" transform="translate(109.88 207.02)"/><path id="Path_4415-5" data-name="Path 4415" class="cls-11" d="M303.41,140.9c-.34.13-.68.26-1,.41-5.42,2.32-9.64,6.9-14.67,10l-.9.53,0,0-.35.18a15.56,15.56,0,0,1-2.14.84l-.66.18-.67.09a12.44,12.44,0,0,1-2.2,0l-.41,0-.95-.1c-.76-.09-1.53-.19-2.29-.32a44.05,44.05,0,0,1-4.54-.94c-.85-.22-1.7-.48-2.53-.77l-.53-.18-.08,0-1.23-.55a18.5,18.5,0,0,1-2-1.13l-.09-.06-.33-.22-.05,0c-.18-.16-.37-.32-.54-.49a22.27,22.27,0,0,0,0-2.83c0-.19,0-.38,0-.57l.93-.61c6-4,12.4-8.41,16.41-14.69a91.58,91.58,0,0,0,19.7,9.54l1.11.36C303.3,140,303.36,140.44,303.41,140.9Z" transform="translate(109.88 207.02)"/><path id="Path_4416-5" data-name="Path 4416" class="cls-12" d="M282,195.34c-1.38,2.52-2.59,5.14-3.76,7.81-2.64,6-5.21,12.13-8.94,17.54-5.87,8.54-13.76,11.47-23.25,9.54-7.6-1.54-12.3-7.39-13.4-16.13a33.72,33.72,0,0,1,3.51-19.21c3.56-7.39,8.36-13.86,13.11-20.36,4.38-6,9-11.77,13.1-18,.21-.32.41-.64.59-1,.29.18.58.36.88.53a29.19,29.19,0,0,0,5.35,2.26,41.86,41.86,0,0,0,6.33,1.49c1.66.94,3.4,1.81,4.15,3.73a19,19,0,0,1,.79,2.67c.32,9.09.26,18.21,1.31,27.23C281.86,194.12,281.94,194.73,282,195.34Z" transform="translate(109.88 207.02)"/><path id="Path_4417-5" data-name="Path 4417" class="cls-2" d="M304.48,174a38.39,38.39,0,0,1-5,3.73c-4,2.58-7.93,5.18-11.26,8.76l-.21.24-.09-1.42c-.42-7.05-.42-14.14-.71-21.21a16.21,16.21,0,0,1,2.58-5.68,55.09,55.09,0,0,0,7.51-5.26c1.46-1.16,2.93-2.31,4.48-3.34.39-.26.79-.51,1.19-.74l.54-.32.06,0,0,0,.07,0c.3-.15.59-.28.89-.41q1,5.41,2.38,10.74a34,34,0,0,1,1,5.92A10.42,10.42,0,0,1,304.48,174Z" transform="translate(109.88 207.02)"/><path id="Path_4418-5" data-name="Path 4418" class="cls-13" d="M232.43,210.48a8.89,8.89,0,0,0,5.85,3.87,24.71,24.71,0,0,0,7,.16" transform="translate(109.88 207.02)"/><path id="Path_4419-5" data-name="Path 4419" class="cls-14" d="M269.09,92.64a13.42,13.42,0,0,0,.35,5" transform="translate(109.88 207.02)"/><path id="Path_4420-5" data-name="Path 4420" class="cls-14" d="M272.79,91.34l.22,4a4.7,4.7,0,0,0,.22,1.44" transform="translate(109.88 207.02)"/><path id="Path_4421-5" data-name="Path 4421" class="cls-14" d="M279.83,90.66a28.82,28.82,0,0,1,.31,4" transform="translate(109.88 207.02)"/><path id="Path_4422-5" data-name="Path 4422" class="cls-14" d="M276.1,91.11l.22,3.12" transform="translate(109.88 207.02)"/><path id="Path_4423-5" data-name="Path 4423" class="cls-14" d="M284.48,90.58v3.88" transform="translate(109.88 207.02)"/><path id="Path_4424-5" data-name="Path 4424" class="cls-14" d="M290.06,90.58c-.23,1.33-.53,2.65-.89,4" transform="translate(109.88 207.02)"/><path id="Path_4425-5" data-name="Path 4425" class="cls-14" d="M294.64,91.57c-.25,1.43-.56,2.85-.93,4.25" transform="translate(109.88 207.02)"/></g><g id="Group_2-6" data-name="Group 2"><path id="Path_4412-6" data-name="Path 4412" class="cls-2" d="M461.68,32.38c0,.09-.11.19-.16.28s-.25.4-.28.43c-.18.27-.37.52-.56.78a31.26,31.26,0,0,1-2.15,2.58c-.41.43-.83.86-1.25,1.28l-.13.13,0,0c-.24.22-.48.44-.73.65a66.72,66.72,0,0,1-6.46,5l-1,.66q-.75-11.28-1.44-22.57c.35.31.71.61,1.08.91,2,1.67,4.16,3.24,6.28,4.78a75.5,75.5,0,0,0,6.45,4.25l.27.15A5.2,5.2,0,0,0,461.68,32.38Z" transform="translate(109.88 207.02)"/><path id="Path_4413-6" data-name="Path 4413" class="cls-10" d="M486.35,9.06l-1.09.75-1,.69c-2.45,1.7-5,3.32-7.34,5.2-1.63,1.31-3.11,2.84-4.62,4.31-.36.35-.72.7-1.09,1,0,.05-.44.42-.44.42l-.24.22c-.87.8-1.75,1.58-2.69,2.29A17.73,17.73,0,0,1,466,25.24c.2-.13-.34.12-.64.26l-.11,0-.21-.12-.89-.5c-.49-.3-1-.63-1.45-1-1-.69-2.1-1.27-3.11-2A83.68,83.68,0,0,1,448,12.45c-.39-.4-.78-.8-1.16-1.22-.09-1.86-.15-3.72-.25-5.58a3.8,3.8,0,0,1,1.52-3.36A12.75,12.75,0,0,1,452.7,0c9.58-2.59,19.22-3.22,27.87-1.49C486-.1,486.28.18,486.32,5,486.34,6.33,486.34,7.69,486.35,9.06Z" transform="translate(109.88 207.02)"/><path id="Path_4414-6" data-name="Path 4414" class="cls-2" d="M486.93,39.14l-1.05-.37-.41-.14-.53-.2-.62-.25c-.54-.21-1.08-.44-1.62-.67Q481,36.79,479.4,36a99,99,0,0,1-8.95-5.09c3.29-2.12,6.05-5.24,8.9-7.95l.65-.59c.31-.27.63-.54,1-.79,1.26-1,2.57-1.84,3.86-2.74l.46-.32,1.07-.74c0,5,0,10.07.23,15.11C486.66,35,486.77,37.06,486.93,39.14Z" transform="translate(109.88 207.02)"/><path id="Path_4415-6" data-name="Path 4415" class="cls-11" d="M487.84,48.38c-.34.13-.68.26-1,.41-5.42,2.32-9.64,6.9-14.67,10l-.9.53,0,0-.35.18a15.56,15.56,0,0,1-2.14.84l-.66.18-.67.09a12.44,12.44,0,0,1-2.2,0l-.41,0-1-.1c-.76-.09-1.53-.19-2.29-.31-1.53-.25-3-.55-4.54-.95-.85-.22-1.7-.48-2.53-.77l-.53-.18-.08,0-1.23-.55a18.5,18.5,0,0,1-2-1.13l-.09-.06-.33-.22s0,0-.05,0l-.55-.49a20.56,20.56,0,0,0,0-2.83c0-.19,0-.38,0-.57l.93-.61c6-4,12.4-8.41,16.41-14.69a91.58,91.58,0,0,0,19.7,9.54l1.1.36C487.73,47.45,487.79,47.92,487.84,48.38Z" transform="translate(109.88 207.02)"/><path id="Path_4416-6" data-name="Path 4416" class="cls-12" d="M466.45,102.82c-1.38,2.52-2.59,5.14-3.76,7.81-2.64,6-5.21,12.13-8.94,17.54-5.87,8.54-13.76,11.47-23.25,9.54-7.6-1.54-12.3-7.39-13.4-16.13a33.72,33.72,0,0,1,3.51-19.21C424.17,95,429,88.51,433.72,82c4.38-6,9-11.77,13.1-18,.21-.32.41-.64.59-1,.29.18.58.36.88.53a29.19,29.19,0,0,0,5.35,2.26A41.86,41.86,0,0,0,460,67.36c1.66.94,3.4,1.81,4.15,3.73a19,19,0,0,1,.79,2.67c.32,9.09.26,18.21,1.31,27.23C466.29,101.6,466.37,102.21,466.45,102.82Z" transform="translate(109.88 207.02)"/><path id="Path_4417-6" data-name="Path 4417" class="cls-2" d="M488.91,81.48a37.83,37.83,0,0,1-5,3.73c-4,2.58-7.93,5.18-11.25,8.76-.07.08-.14.17-.21.24l-.09-1.42c-.42-7.05-.42-14.14-.71-21.21a16.21,16.21,0,0,1,2.58-5.68,55.09,55.09,0,0,0,7.51-5.26c1.46-1.16,2.93-2.31,4.48-3.33.39-.26.79-.51,1.19-.75l.54-.32.06,0,0,0,.07,0c.3-.15.59-.28.89-.41q1,5.41,2.38,10.74a34,34,0,0,1,1,5.92A10.42,10.42,0,0,1,488.91,81.48Z" transform="translate(109.88 207.02)"/><path id="Path_4418-6" data-name="Path 4418" class="cls-13" d="M416.86,118a8.89,8.89,0,0,0,5.85,3.87,24.71,24.71,0,0,0,7,.16" transform="translate(109.88 207.02)"/><path id="Path_4419-6" data-name="Path 4419" class="cls-14" d="M453.52.12a13.42,13.42,0,0,0,.35,5" transform="translate(109.88 207.02)"/><path id="Path_4420-6" data-name="Path 4420" class="cls-14" d="M457.22-1.18l.22,4a5,5,0,0,0,.21,1.44" transform="translate(109.88 207.02)"/><path id="Path_4421-6" data-name="Path 4421" class="cls-14" d="M464.26-1.86a28.94,28.94,0,0,1,.31,4" transform="translate(109.88 207.02)"/><path id="Path_4422-6" data-name="Path 4422" class="cls-14" d="M460.53-1.41l.22,3.12" transform="translate(109.88 207.02)"/><path id="Path_4423-6" data-name="Path 4423" class="cls-14" d="M468.91-1.94V1.94" transform="translate(109.88 207.02)"/><path id="Path_4424-6" data-name="Path 4424" class="cls-14" d="M474.49-1.93C474.26-.61,474,.71,473.6,2" transform="translate(109.88 207.02)"/><path id="Path_4425-6" data-name="Path 4425" class="cls-14" d="M479.07-.95q-.37,2.15-.93,4.26" transform="translate(109.88 207.02)"/></g><g id="Group_2-7" data-name="Group 2"><path id="Path_4412-7" data-name="Path 4412" class="cls-2" d="M512.8-172.13c0,.08-.11.19-.16.27l-.28.44c-.18.26-.37.52-.56.77a28.26,28.26,0,0,1-2.15,2.58c-.41.44-.83.86-1.25,1.28l-.13.13,0,0c-.24.22-.48.44-.73.65a66.72,66.72,0,0,1-6.46,5l-1,.66q-.75-11.28-1.44-22.57c.35.31.71.61,1.08.91,2,1.67,4.16,3.25,6.28,4.78a69.65,69.65,0,0,0,6.45,4.25c.09.06.18.1.27.15A5.35,5.35,0,0,0,512.8-172.13Z" transform="translate(109.88 207.02)"/><path id="Path_4413-7" data-name="Path 4413" class="cls-10" d="M537.47-195.46l-1.1.75-1,.7c-2.45,1.69-5,3.31-7.33,5.19-1.63,1.31-3.11,2.85-4.62,4.31l-1.09,1-.44.43-.24.21c-.87.8-1.76,1.58-2.69,2.29a17.73,17.73,0,0,1-1.85,1.26c.2-.13-.34.13-.64.26l-.11,0-.21-.12c-.29-.17-.6-.32-.89-.5-.5-.3-1-.63-1.45-1-1-.69-2.1-1.27-3.11-2a84.48,84.48,0,0,1-11.53-9.47c-.39-.4-.78-.8-1.16-1.21-.09-1.86-.15-3.73-.25-5.58a3.78,3.78,0,0,1,1.52-3.36,12.67,12.67,0,0,1,4.56-2.33c9.58-2.59,19.22-3.23,27.87-1.5,5.45,1.44,5.71,1.71,5.75,6.5C537.46-198.19,537.46-196.82,537.47-195.46Z" transform="translate(109.88 207.02)"/><path id="Path_4414-7" data-name="Path 4414" class="cls-2" d="M538-165.38l-1-.36-.4-.15-.53-.19s-.62-.25-.62-.25c-.54-.22-1.08-.44-1.62-.68q-1.67-.72-3.3-1.53a96.63,96.63,0,0,1-8.95-5.09c3.29-2.12,6-5.23,8.9-8l.65-.59c.31-.27.63-.54,1-.79,1.25-1,2.57-1.84,3.86-2.74l.46-.32,1.07-.74c0,5,0,10.08.23,15.12Q537.82-168.51,538-165.38Z" transform="translate(109.88 207.02)"/><path id="Path_4415-7" data-name="Path 4415" class="cls-11" d="M539-156.13c-.34.12-.68.26-1,.4-5.42,2.32-9.64,6.9-14.67,10l-.9.53,0,0L522-145a14.38,14.38,0,0,1-2.14.84l-.66.18-.67.1a12.43,12.43,0,0,1-2.2,0l-.41,0L515-144c-.77-.09-1.53-.19-2.29-.31-1.53-.25-3-.55-4.54-.95-.85-.22-1.7-.47-2.53-.76l-.53-.19-.08,0c-.41-.17-.82-.35-1.23-.55a18.5,18.5,0,0,1-2-1.13l-.09-.05-.33-.23-.05-.05-.55-.48a20.71,20.71,0,0,0,0-2.84l0-.57.93-.61c6-4,12.4-8.41,16.41-14.69a91.58,91.58,0,0,0,19.7,9.54c.37.12.73.25,1.1.36C538.85-157.06,538.91-156.6,539-156.13Z" transform="translate(109.88 207.02)"/><path id="Path_4416-7" data-name="Path 4416" class="cls-12" d="M517.57-101.7c-1.38,2.52-2.59,5.15-3.76,7.81-2.64,6-5.21,12.14-8.94,17.54-5.87,8.54-13.76,11.47-23.25,9.55-7.6-1.55-12.3-7.4-13.4-16.13a33.74,33.74,0,0,1,3.51-19.22c3.56-7.39,8.35-13.85,13.11-20.35,4.38-6,9-11.78,13.1-18,.21-.32.41-.64.59-1,.29.18.58.36.88.53a28.52,28.52,0,0,0,5.35,2.26,41.86,41.86,0,0,0,6.33,1.49c1.66.94,3.4,1.81,4.15,3.73a18.77,18.77,0,0,1,.79,2.68c.32,9.09.26,18.2,1.31,27.22C517.41-102.92,517.49-102.31,517.57-101.7Z" transform="translate(109.88 207.02)"/><path id="Path_4417-7" data-name="Path 4417" class="cls-2" d="M540-123a37,37,0,0,1-5,3.73c-4,2.58-7.93,5.18-11.25,8.77l-.21.23-.09-1.41c-.42-7.06-.42-14.15-.71-21.22a16.45,16.45,0,0,1,2.57-5.68,54.57,54.57,0,0,0,7.52-5.26c1.46-1.16,2.93-2.31,4.48-3.33.39-.26.79-.51,1.19-.75l.54-.31.06,0,0,0,.07,0,.89-.41q1,5.42,2.37,10.75a32.77,32.77,0,0,1,1,5.92A10.42,10.42,0,0,1,540-123Z" transform="translate(109.88 207.02)"/><path id="Path_4418-7" data-name="Path 4418" class="cls-13" d="M468-86.56a8.91,8.91,0,0,0,5.85,3.88,24.71,24.71,0,0,0,7,.15" transform="translate(109.88 207.02)"/><path id="Path_4419-7" data-name="Path 4419" class="cls-14" d="M504.64-204.4a13.41,13.41,0,0,0,.35,5" transform="translate(109.88 207.02)"/><path id="Path_4420-7" data-name="Path 4420" class="cls-14" d="M508.34-205.69l.21,4a5.34,5.34,0,0,0,.22,1.44" transform="translate(109.88 207.02)"/><path id="Path_4421-7" data-name="Path 4421" class="cls-14" d="M515.38-206.38a30.77,30.77,0,0,1,.31,3.95" transform="translate(109.88 207.02)"/><path id="Path_4422-7" data-name="Path 4422" class="cls-14" d="M511.65-205.92l.22,3.11" transform="translate(109.88 207.02)"/><path id="Path_4423-7" data-name="Path 4423" class="cls-14" d="M520-206.46v3.88" transform="translate(109.88 207.02)"/><path id="Path_4424-7" data-name="Path 4424" class="cls-14" d="M525.61-206.45c-.24,1.33-.53,2.64-.89,3.94" transform="translate(109.88 207.02)"/><path id="Path_4425-7" data-name="Path 4425" class="cls-14" d="M530.19-205.46c-.25,1.42-.56,2.84-.93,4.25" transform="translate(109.88 207.02)"/></g><g id="Group_2-8" data-name="Group 2"><path id="Path_4412-8" data-name="Path 4412" class="cls-2" d="M613.54-59.6a2.61,2.61,0,0,1-.17.28c-.08.14-.25.4-.28.44-.18.26-.36.52-.55.77a28.1,28.1,0,0,1-2.16,2.58c-.4.43-.82.86-1.24,1.28l-.14.13,0,0-.72.65a66.72,66.72,0,0,1-6.46,5l-1,.66q-.75-11.28-1.45-22.57l1.08.91c2,1.67,4.16,3.25,6.28,4.78a71.89,71.89,0,0,0,6.46,4.25,2.34,2.34,0,0,0,.27.15A3.17,3.17,0,0,0,613.54-59.6Z" transform="translate(109.88 207.02)"/><path id="Path_4413-8" data-name="Path 4413" class="cls-10" d="M638.2-82.92l-1.09.75-1,.7c-2.45,1.69-5,3.31-7.34,5.19-1.63,1.31-3.11,2.85-4.62,4.31l-1.08,1-.45.43-.23.21c-.87.8-1.76,1.58-2.69,2.29a19,19,0,0,1-1.86,1.26c.2-.13-.34.13-.64.26l-.1,0-.21-.12-.9-.5c-.49-.3-1-.63-1.45-1-1-.69-2.1-1.27-3.1-2a84,84,0,0,1-11.54-9.47c-.39-.4-.77-.8-1.15-1.21-.1-1.86-.16-3.73-.26-5.59A3.81,3.81,0,0,1,600-89.69,12.78,12.78,0,0,1,604.55-92c9.58-2.58,19.23-3.22,27.88-1.49,5.44,1.43,5.7,1.71,5.75,6.5C638.19-85.65,638.2-84.28,638.2-82.92Z" transform="translate(109.88 207.02)"/><path id="Path_4414-8" data-name="Path 4414" class="cls-2" d="M638.78-52.84l-1-.36-.4-.15-.53-.2-.63-.24-1.61-.68c-1.12-.48-2.22-1-3.31-1.53a99,99,0,0,1-9-5.09c3.29-2.12,6.05-5.23,8.91-8,0,0,.49-.46.65-.59s.62-.54.95-.79c1.26-1,2.58-1.84,3.87-2.74l.46-.32,1.06-.74c0,5,0,10.08.23,15.11Q638.55-56,638.78-52.84Z" transform="translate(109.88 207.02)"/><path id="Path_4415-8" data-name="Path 4415" class="cls-11" d="M639.7-43.59c-.35.12-.69.26-1,.4-5.43,2.32-9.65,6.9-14.67,10l-.91.53a0,0,0,0,1,0,0l-.36.18a14,14,0,0,1-2.14.84l-.66.18-.67.09a12.44,12.44,0,0,1-2.2,0l-.4,0-.95-.1c-.77-.09-1.54-.19-2.3-.31-1.52-.25-3-.55-4.53-.95-.85-.22-1.7-.47-2.54-.76l-.53-.19-.07,0c-.42-.18-.83-.35-1.23-.55a17.76,17.76,0,0,1-2-1.13l-.08-.05-.33-.23L602-35.7l-.54-.49a20.57,20.57,0,0,0,0-2.83c0-.19,0-.38,0-.57l.93-.61c6-4,12.4-8.41,16.41-14.69a91.43,91.43,0,0,0,19.71,9.54c.36.12.73.25,1.1.36C639.58-44.52,639.64-44.06,639.7-43.59Z" transform="translate(109.88 207.02)"/><path id="Path_4416-8" data-name="Path 4416" class="cls-12" d="M618.3,10.84c-1.37,2.52-2.59,5.15-3.75,7.81-2.65,6.05-5.22,12.14-8.94,17.54-5.88,8.54-13.77,11.47-23.25,9.54-7.6-1.54-12.31-7.39-13.41-16.12a33.82,33.82,0,0,1,3.51-19.22C576,3,580.82-3.46,585.58-10c4.37-6,9-11.78,13.09-18q.32-.48.6-1l.87.53a29.79,29.79,0,0,0,5.35,2.26,42.15,42.15,0,0,0,6.33,1.49c1.67.94,3.41,1.81,4.15,3.73a17.56,17.56,0,0,1,.79,2.68C617.08-9.12,617,0,618.07,9,618.14,9.62,618.22,10.23,618.3,10.84Z" transform="translate(109.88 207.02)"/><path id="Path_4417-8" data-name="Path 4417" class="cls-2" d="M640.77-10.5a38.26,38.26,0,0,1-5,3.73c-4,2.58-7.93,5.18-11.25,8.76-.08.08-.14.17-.22.24,0-.47-.06-.94-.08-1.42-.42-7-.43-14.14-.72-21.21a16.48,16.48,0,0,1,2.58-5.68,54.48,54.48,0,0,0,7.51-5.26c1.47-1.16,2.94-2.31,4.48-3.33.4-.26.79-.51,1.2-.75l.53-.32.06,0,0,0,.08,0c.29-.15.59-.28.88-.41.65,3.61,1.43,7.19,2.38,10.75a33.7,33.7,0,0,1,1,5.91A10.41,10.41,0,0,1,640.77-10.5Z" transform="translate(109.88 207.02)"/><path id="Path_4418-8" data-name="Path 4418" class="cls-13" d="M568.71,26a9,9,0,0,0,5.86,3.88,25.06,25.06,0,0,0,7,.15" transform="translate(109.88 207.02)"/><path id="Path_4419-8" data-name="Path 4419" class="cls-14" d="M605.37-91.86a13.22,13.22,0,0,0,.36,5" transform="translate(109.88 207.02)"/><path id="Path_4420-8" data-name="Path 4420" class="cls-14" d="M609.08-93.16l.21,4a4.66,4.66,0,0,0,.22,1.44" transform="translate(109.88 207.02)"/><path id="Path_4421-8" data-name="Path 4421" class="cls-14" d="M616.12-93.84a29.06,29.06,0,0,1,.3,4" transform="translate(109.88 207.02)"/><path id="Path_4422-8" data-name="Path 4422" class="cls-14" d="M612.38-93.38l.22,3.11" transform="translate(109.88 207.02)"/><path id="Path_4423-8" data-name="Path 4423" class="cls-14" d="M620.76-93.92V-90" transform="translate(109.88 207.02)"/><path id="Path_4424-8" data-name="Path 4424" class="cls-14" d="M626.34-93.91c-.23,1.32-.53,2.64-.88,3.94" transform="translate(109.88 207.02)"/><path id="Path_4425-8" data-name="Path 4425" class="cls-14" d="M630.92-92.93q-.37,2.15-.93,4.26" transform="translate(109.88 207.02)"/></g><g id="Group_2-9" data-name="Group 2"><path id="Path_4412-9" data-name="Path 4412" class="cls-2" d="M582,126c0,.08-.11.19-.16.27l-.28.44c-.18.26-.37.52-.56.77a29.68,29.68,0,0,1-2.15,2.58c-.41.44-.83.86-1.25,1.28l-.13.13,0,0c-.24.22-.48.44-.73.65a66.72,66.72,0,0,1-6.46,5l-1,.66q-.75-11.28-1.44-22.57c.36.31.71.61,1.08.91,2,1.67,4.16,3.25,6.28,4.78a71,71,0,0,0,6.45,4.25l.27.15A5.35,5.35,0,0,0,582,126Z" transform="translate(109.88 207.02)"/><path id="Path_4413-9" data-name="Path 4413" class="cls-10" d="M606.63,102.66l-1.09.75-1,.7c-2.45,1.69-5,3.31-7.34,5.19-1.63,1.31-3.11,2.85-4.62,4.31-.36.35-.72.7-1.09,1,0,0-.44.43-.44.43l-.24.21c-.87.8-1.75,1.58-2.69,2.29a17.73,17.73,0,0,1-1.85,1.26c.2-.13-.34.13-.64.26l-.11,0-.21-.12-.89-.5c-.49-.3-1-.63-1.45-1-1-.69-2.1-1.27-3.11-2a84.48,84.48,0,0,1-11.53-9.47c-.39-.4-.78-.8-1.16-1.21-.09-1.86-.15-3.73-.25-5.58a3.81,3.81,0,0,1,1.52-3.37A12.91,12.91,0,0,1,573,93.56c9.58-2.58,19.22-3.22,27.88-1.49,5.44,1.43,5.7,1.71,5.74,6.5C606.62,99.93,606.62,101.3,606.63,102.66Z" transform="translate(109.88 207.02)"/><path id="Path_4414-9" data-name="Path 4414" class="cls-2" d="M607.21,132.74l-1.05-.36-.41-.15-.53-.2-.62-.24c-.54-.22-1.08-.44-1.62-.68q-1.66-.72-3.3-1.53a99,99,0,0,1-8.95-5.09c3.29-2.12,6-5.23,8.9-7.95l.65-.59c.31-.27.63-.54,1-.79,1.26-1,2.57-1.84,3.86-2.74l.46-.32,1.07-.74c0,5,0,10.08.23,15.11C606.94,128.57,607.05,130.66,607.21,132.74Z" transform="translate(109.88 207.02)"/><path id="Path_4415-9" data-name="Path 4415" class="cls-11" d="M608.12,142c-.34.12-.68.26-1,.4-5.42,2.32-9.64,6.9-14.67,10l-.9.53,0,0-.35.18A14.38,14.38,0,0,1,589,154l-.66.18c-.19,0-.58.09-.67.09a12.44,12.44,0,0,1-2.2,0l-.41,0-1-.1c-.76-.09-1.53-.19-2.29-.31-1.53-.25-3-.55-4.54-.95-.85-.22-1.7-.47-2.53-.76l-.53-.19-.08,0c-.41-.18-.82-.35-1.23-.55a18.5,18.5,0,0,1-2-1.13l-.09-.05-.33-.23-.05-.05-.55-.48a20.71,20.71,0,0,0,0-2.84c0-.19,0-.38,0-.57l.93-.61c6-4,12.4-8.41,16.41-14.69a91.58,91.58,0,0,0,19.7,9.54l1.1.36C608,141.06,608.07,141.52,608.12,142Z" transform="translate(109.88 207.02)"/><path id="Path_4416-9" data-name="Path 4416" class="cls-12" d="M586.73,196.42c-1.38,2.52-2.59,5.15-3.76,7.81-2.64,6.05-5.21,12.14-8.94,17.54-5.87,8.54-13.76,11.47-23.25,9.54-7.6-1.54-12.3-7.39-13.4-16.12A33.74,33.74,0,0,1,540.89,196c3.56-7.39,8.36-13.85,13.11-20.35,4.38-6,9-11.78,13.1-18,.21-.32.41-.64.59-1,.29.18.58.36.88.53a29.19,29.19,0,0,0,5.35,2.26,41.86,41.86,0,0,0,6.33,1.49c1.66.94,3.4,1.81,4.15,3.73a18.77,18.77,0,0,1,.79,2.68c.32,9.09.26,18.2,1.31,27.22C586.57,195.2,586.65,195.81,586.73,196.42Z" transform="translate(109.88 207.02)"/><path id="Path_4417-9" data-name="Path 4417" class="cls-2" d="M609.19,175.08a37,37,0,0,1-5,3.73c-4,2.58-7.93,5.18-11.25,8.77l-.21.23-.09-1.42c-.42-7-.42-14.14-.71-21.21a16.29,16.29,0,0,1,2.58-5.68,55.09,55.09,0,0,0,7.51-5.26c1.46-1.16,2.93-2.31,4.48-3.33.39-.26.79-.51,1.19-.75l.54-.31.06,0,0,0,.07,0,.89-.41q1,5.42,2.38,10.75a33.7,33.7,0,0,1,1,5.91A10.42,10.42,0,0,1,609.19,175.08Z" transform="translate(109.88 207.02)"/><path id="Path_4418-9" data-name="Path 4418" class="cls-13" d="M537.14,211.56a8.94,8.94,0,0,0,5.85,3.88,25.08,25.08,0,0,0,7,.15" transform="translate(109.88 207.02)"/><path id="Path_4419-9" data-name="Path 4419" class="cls-14" d="M573.8,93.72a13.42,13.42,0,0,0,.35,5" transform="translate(109.88 207.02)"/><path id="Path_4420-9" data-name="Path 4420" class="cls-14" d="M577.5,92.42l.22,4a5,5,0,0,0,.21,1.44" transform="translate(109.88 207.02)"/><path id="Path_4421-9" data-name="Path 4421" class="cls-14" d="M584.54,91.74a29.07,29.07,0,0,1,.31,4" transform="translate(109.88 207.02)"/><path id="Path_4422-9" data-name="Path 4422" class="cls-14" d="M580.81,92.2l.22,3.11" transform="translate(109.88 207.02)"/><path id="Path_4423-9" data-name="Path 4423" class="cls-14" d="M589.19,91.66v3.88" transform="translate(109.88 207.02)"/><path id="Path_4424-9" data-name="Path 4424" class="cls-14" d="M594.77,91.67c-.23,1.33-.53,2.64-.89,3.94" transform="translate(109.88 207.02)"/><path id="Path_4425-9" data-name="Path 4425" class="cls-14" d="M599.35,92.65q-.37,2.14-.93,4.26" transform="translate(109.88 207.02)"/></g><g id="Group_2-10" data-name="Group 2"><path id="Path_4412-10" data-name="Path 4412" class="cls-2" d="M26.17,93l-.16.28c-.09.13-.26.4-.29.43l-.55.78A31.26,31.26,0,0,1,23,97.05c-.41.43-.83.85-1.25,1.27l-.13.13,0,0c-.24.23-.49.44-.73.66a68.35,68.35,0,0,1-6.46,5l-1,.65Q12.7,93.48,12,82.2l1.09.91c2,1.67,4.16,3.24,6.27,4.78a75.66,75.66,0,0,0,6.46,4.25l.27.15A3.25,3.25,0,0,0,26.17,93Z" transform="translate(109.88 207.02)"/><path id="Path_4413-10" data-name="Path 4413" class="cls-10" d="M50.83,69.66l-1.09.75-1,.69c-2.45,1.7-5,3.32-7.34,5.2-1.63,1.3-3.11,2.84-4.62,4.3l-1.08,1.05-.45.42-.23.22c-.87.8-1.76,1.57-2.69,2.29a18.86,18.86,0,0,1-1.85,1.26c.2-.13-.35.12-.64.26l-.11,0L29.5,86c-.3-.17-.6-.33-.89-.51-.5-.29-1-.62-1.46-.94-1-.69-2.09-1.28-3.1-2A84.43,84.43,0,0,1,12.51,73c-.39-.39-.77-.8-1.15-1.21-.09-1.86-.16-3.72-.25-5.58a3.77,3.77,0,0,1,1.52-3.36,12.59,12.59,0,0,1,4.56-2.33c9.57-2.59,19.22-3.23,27.87-1.49,5.44,1.43,5.7,1.71,5.75,6.49C50.82,66.93,50.83,68.29,50.83,69.66Z" transform="translate(109.88 207.02)"/><path id="Path_4414-10" data-name="Path 4414" class="cls-2" d="M51.41,99.74l-1-.37-.4-.14-.53-.2-.62-.25c-.55-.21-1.08-.44-1.62-.67-1.12-.48-2.22-1-3.31-1.53a100.36,100.36,0,0,1-9-5.09c3.29-2.12,6.06-5.24,8.91-7.95l.65-.59c.31-.28.63-.54,1-.8,1.25-1,2.57-1.83,3.86-2.74l.46-.32,1.06-.74c0,5,0,10.08.24,15.12C51.14,95.57,51.26,97.66,51.41,99.74Z" transform="translate(109.88 207.02)"/><path id="Path_4415-10" data-name="Path 4415" class="cls-11" d="M52.33,109c-.34.13-.68.26-1,.41-5.42,2.32-9.65,6.9-14.67,10-.3.18-.61.34-.9.53l0,0-.36.18a16.38,16.38,0,0,1-2.14.84l-.66.17-.67.1a12.32,12.32,0,0,1-2.19,0l-.41,0-1-.1c-.77-.09-1.54-.2-2.3-.32-1.52-.24-3-.55-4.53-.94-.85-.22-1.7-.48-2.54-.77l-.53-.19-.07,0c-.41-.17-.83-.35-1.23-.54a17.63,17.63,0,0,1-2-1.13l-.09-.06-.33-.22-.05-.05-.55-.49a20.56,20.56,0,0,0,0-2.83c0-.19,0-.38,0-.57l.94-.61c6-4,12.39-8.41,16.4-14.69a91.9,91.9,0,0,0,19.71,9.54l1.1.36C52.22,108.05,52.27,108.52,52.33,109Z" transform="translate(109.88 207.02)"/><path id="Path_4416-10" data-name="Path 4416" class="cls-12" d="M30.93,163.41c-1.37,2.52-2.58,5.15-3.75,7.82-2.65,6-5.21,12.13-8.94,17.54C12.36,197.3,4.47,200.23-5,198.31c-7.6-1.54-12.31-7.4-13.4-16.13A33.7,33.7,0,0,1-14.91,163c3.56-7.39,8.36-13.86,13.12-20.36,4.38-6,9-11.77,13.09-18,.22-.32.41-.64.6-1,.29.19.58.37.88.54a29.4,29.4,0,0,0,5.34,2.26A44.55,44.55,0,0,0,24.46,128c1.66.93,3.4,1.81,4.14,3.73a17.78,17.78,0,0,1,.79,2.67c.32,9.09.27,18.21,1.31,27.23C30.78,162.2,30.85,162.81,30.93,163.41Z" transform="translate(109.88 207.02)"/><path id="Path_4417-10" data-name="Path 4417" class="cls-2" d="M53.4,142.08a38.73,38.73,0,0,1-5,3.73c-4,2.58-7.93,5.18-11.25,8.76l-.21.24-.09-1.42c-.42-7-.43-14.14-.72-21.22a16.56,16.56,0,0,1,2.58-5.68,52.24,52.24,0,0,0,7.51-5.26c1.47-1.15,2.94-2.31,4.49-3.33.39-.26.79-.51,1.19-.75l.54-.31.05,0,0,0,.07,0,.88-.4c.65,3.6,1.43,7.18,2.38,10.74a33.82,33.82,0,0,1,1,5.92A10.41,10.41,0,0,1,53.4,142.08Z" transform="translate(109.88 207.02)"/><path id="Path_4418-10" data-name="Path 4418" class="cls-13" d="M-18.66,178.55a8.93,8.93,0,0,0,5.86,3.88,24.69,24.69,0,0,0,7,.16" transform="translate(109.88 207.02)"/><path id="Path_4419-10" data-name="Path 4419" class="cls-14" d="M18,60.71a13.27,13.27,0,0,0,.36,5" transform="translate(109.88 207.02)"/><path id="Path_4420-10" data-name="Path 4420" class="cls-14" d="M21.71,59.42l.21,4a5,5,0,0,0,.22,1.44" transform="translate(109.88 207.02)"/><path id="Path_4421-10" data-name="Path 4421" class="cls-14" d="M28.75,58.74a30.49,30.49,0,0,1,.31,3.95" transform="translate(109.88 207.02)"/><path id="Path_4422-10" data-name="Path 4422" class="cls-14" d="M25,59.19l.23,3.12" transform="translate(109.88 207.02)"/><path id="Path_4423-10" data-name="Path 4423" class="cls-14" d="M33.4,58.66v3.88" transform="translate(109.88 207.02)"/><path id="Path_4424-10" data-name="Path 4424" class="cls-14" d="M39,58.66c-.23,1.33-.52,2.64-.88,3.94" transform="translate(109.88 207.02)"/><path id="Path_4425-10" data-name="Path 4425" class="cls-14" d="M43.56,59.65c-.26,1.43-.57,2.85-.94,4.25" transform="translate(109.88 207.02)"/></g><g id="Group_2-11" data-name="Group 2"><path id="Path_4412-11" data-name="Path 4412" class="cls-2" d="M-27.24,299.87a2.61,2.61,0,0,1-.17.28c-.08.14-.25.4-.28.44-.18.26-.36.52-.55.77a28.1,28.1,0,0,1-2.16,2.58c-.4.43-.83.86-1.25,1.28l-.13.13,0,0-.72.65A66.85,66.85,0,0,1-39,311l-1,.66q-.75-11.28-1.45-22.57l1.08.91c2,1.67,4.16,3.25,6.28,4.78A71.89,71.89,0,0,0-27.59,299a2.34,2.34,0,0,0,.27.15A3.17,3.17,0,0,0-27.24,299.87Z" transform="translate(109.88 207.02)"/><path id="Path_4413-11" data-name="Path 4413" class="cls-10" d="M-2.58,276.55l-1.09.75-1,.7c-2.45,1.69-5,3.31-7.34,5.19-1.63,1.31-3.11,2.85-4.62,4.31l-1.08,1-.45.43-.23.21c-.87.8-1.76,1.58-2.69,2.29A19,19,0,0,1-23,292.73c.2-.13-.34.12-.64.26l-.1,0-.21-.12-.9-.5c-.49-.3-1-.63-1.45-.95-1-.69-2.1-1.27-3.11-2a84.48,84.48,0,0,1-11.53-9.47c-.39-.4-.77-.8-1.15-1.21-.1-1.86-.16-3.73-.26-5.59a3.81,3.81,0,0,1,1.53-3.36,12.78,12.78,0,0,1,4.55-2.33c9.58-2.58,19.23-3.22,27.88-1.49,5.44,1.43,5.7,1.71,5.75,6.5C-2.59,273.82-2.58,275.19-2.58,276.55Z" transform="translate(109.88 207.02)"/><path id="Path_4414-11" data-name="Path 4414" class="cls-2" d="M-2,306.63l-1-.36-.4-.15-.53-.2-.63-.24L-6.22,305c-1.12-.48-2.22-1-3.31-1.53a99,99,0,0,1-9-5.09c3.29-2.12,6.05-5.23,8.91-7.95,0,0,.49-.46.65-.59.31-.27.62-.54,1-.79,1.26-1,2.58-1.84,3.87-2.74l.46-.32,1.06-.74c0,5,0,10.08.23,15.11Q-2.23,303.51-2,306.63Z" transform="translate(109.88 207.02)"/><path id="Path_4415-11" data-name="Path 4415" class="cls-11" d="M-1.08,315.88c-.35.12-.69.26-1,.4-5.43,2.32-9.65,6.9-14.67,10l-.91.53a0,0,0,0,1,0,0l-.36.18a14,14,0,0,1-2.14.84c-.11,0-.48.13-.66.18l-.67.09a12.44,12.44,0,0,1-2.2,0l-.4,0-.95-.1c-.77-.09-1.54-.19-2.3-.31-1.52-.25-3-.55-4.53-.95-.85-.22-1.7-.47-2.54-.76l-.53-.19-.07,0c-.42-.18-.83-.35-1.23-.55a17.76,17.76,0,0,1-2-1.13l-.08-.06-.33-.22-.06-.05-.54-.49a22.27,22.27,0,0,0,0-2.83c0-.19,0-.38,0-.57l.93-.61c6-4,12.4-8.41,16.41-14.69a91.43,91.43,0,0,0,19.71,9.54c.36.12.73.25,1.1.36C-1.2,315-1.14,315.41-1.08,315.88Z" transform="translate(109.88 207.02)"/><path id="Path_4416-11" data-name="Path 4416" class="cls-12" d="M-22.48,370.31c-1.37,2.52-2.59,5.15-3.75,7.81-2.65,6-5.22,12.13-8.94,17.54-5.88,8.54-13.77,11.47-23.25,9.54-7.6-1.54-12.31-7.39-13.41-16.12a33.82,33.82,0,0,1,3.51-19.22C-64.76,362.47-60,356-55.2,349.51c4.37-6,9-11.78,13.09-18q.31-.48.6-1l.87.53a29.79,29.79,0,0,0,5.35,2.26A42.15,42.15,0,0,0-29,334.85c1.66.94,3.41,1.81,4.15,3.73a17.56,17.56,0,0,1,.79,2.68c.32,9.08.27,18.2,1.31,27.22C-22.64,369.09-22.56,369.7-22.48,370.31Z" transform="translate(109.88 207.02)"/><path id="Path_4417-11" data-name="Path 4417" class="cls-2" d="M0,349a38.26,38.26,0,0,1-5,3.73c-4,2.58-7.93,5.18-11.25,8.76-.08.08-.14.17-.22.24,0-.47-.06-.94-.08-1.42-.42-7-.43-14.14-.72-21.21a16.39,16.39,0,0,1,2.58-5.68,54.48,54.48,0,0,0,7.51-5.26c1.47-1.16,2.94-2.31,4.48-3.33.4-.26.79-.51,1.19-.75l.54-.32.06,0,0,0,.08,0c.29-.15.59-.28.88-.41.65,3.61,1.43,7.19,2.38,10.74a34,34,0,0,1,1,5.92A10.41,10.41,0,0,1,0,349Z" transform="translate(109.88 207.02)"/><path id="Path_4418-11" data-name="Path 4418" class="cls-13" d="M-72.07,385.45a9,9,0,0,0,5.86,3.88,25,25,0,0,0,7,.15" transform="translate(109.88 207.02)"/><path id="Path_4419-11" data-name="Path 4419" class="cls-14" d="M-35.41,267.61a13.22,13.22,0,0,0,.36,5" transform="translate(109.88 207.02)"/><path id="Path_4420-11" data-name="Path 4420" class="cls-14" d="M-31.7,266.31l.21,4a4.66,4.66,0,0,0,.22,1.44" transform="translate(109.88 207.02)"/><path id="Path_4421-11" data-name="Path 4421" class="cls-14" d="M-24.66,265.63a29.06,29.06,0,0,1,.3,3.95" transform="translate(109.88 207.02)"/><path id="Path_4422-11" data-name="Path 4422" class="cls-14" d="M-28.4,266.09l.22,3.11" transform="translate(109.88 207.02)"/><path id="Path_4423-11" data-name="Path 4423" class="cls-14" d="M-20,265.55v3.88" transform="translate(109.88 207.02)"/><path id="Path_4424-11" data-name="Path 4424" class="cls-14" d="M-14.44,265.56c-.23,1.32-.53,2.64-.88,3.94" transform="translate(109.88 207.02)"/><path id="Path_4425-11" data-name="Path 4425" class="cls-14" d="M-9.86,266.54q-.37,2.15-.93,4.26" transform="translate(109.88 207.02)"/></g><g id="Group_2-12" data-name="Group 2"><path id="Path_4412-12" data-name="Path 4412" class="cls-2" d="M85.52,428.64l-.16.28-.29.44c-.18.26-.36.52-.55.77a29.68,29.68,0,0,1-2.15,2.58c-.41.43-.83.86-1.25,1.28l-.13.13s0,0,0,0l-.73.65a66.72,66.72,0,0,1-6.46,5l-1,.66q-.75-11.28-1.45-22.57l1.09.91c2,1.67,4.16,3.25,6.27,4.78a73.34,73.34,0,0,0,6.46,4.25l.27.15A3.17,3.17,0,0,0,85.52,428.64Z" transform="translate(109.88 207.02)"/><path id="Path_4413-12" data-name="Path 4413" class="cls-10" d="M110.18,405.32l-1.09.75-1,.7c-2.45,1.69-5,3.31-7.34,5.19-1.63,1.31-3.11,2.85-4.62,4.31l-1.08,1-.45.43-.23.21c-.87.8-1.76,1.58-2.69,2.29a18.86,18.86,0,0,1-1.85,1.26c.2-.13-.35.12-.64.26l-.11,0-.21-.12-.89-.5c-.5-.3-1-.63-1.46-.95-1-.69-2.09-1.27-3.1-2a85.18,85.18,0,0,1-11.54-9.47c-.39-.4-.77-.8-1.15-1.21-.09-1.86-.16-3.73-.25-5.59A3.78,3.78,0,0,1,72,398.55a12.74,12.74,0,0,1,4.56-2.33c9.57-2.58,19.22-3.22,27.87-1.49,5.44,1.43,5.7,1.71,5.75,6.5C110.17,402.59,110.18,404,110.18,405.32Z" transform="translate(109.88 207.02)"/><path id="Path_4414-12" data-name="Path 4414" class="cls-2" d="M110.76,435.4l-1.05-.36-.4-.15-.53-.2-.62-.24c-.55-.22-1.08-.45-1.62-.68-1.12-.48-2.22-1-3.31-1.53a100.36,100.36,0,0,1-9-5.09c3.29-2.12,6.06-5.23,8.91-7.95l.65-.59c.31-.27.63-.54,1-.79,1.25-1,2.57-1.84,3.86-2.74l.46-.32,1.06-.74c0,5,0,10.08.24,15.11Q110.54,432.28,110.76,435.4Z" transform="translate(109.88 207.02)"/><path id="Path_4415-12" data-name="Path 4415" class="cls-11" d="M111.68,444.65c-.34.12-.68.26-1,.4-5.42,2.32-9.65,6.9-14.67,10l-.9.53,0,0-.36.18a14,14,0,0,1-2.14.84c-.11,0-.48.13-.66.18l-.67.09a12.32,12.32,0,0,1-2.19,0l-.41,0-.95-.1c-.77-.09-1.54-.19-2.3-.31-1.52-.25-3-.55-4.53-1-.85-.22-1.7-.47-2.54-.76l-.53-.19-.07,0c-.41-.18-.83-.35-1.23-.55a17.63,17.63,0,0,1-2-1.13l-.09-.06-.33-.22,0,0-.55-.49a20.57,20.57,0,0,0,0-2.83c0-.19,0-.38,0-.57l.94-.61c6-4,12.39-8.41,16.4-14.69a91.43,91.43,0,0,0,19.71,9.54c.36.12.73.25,1.1.36C111.57,443.72,111.62,444.18,111.68,444.65Z" transform="translate(109.88 207.02)"/><path id="Path_4416-12" data-name="Path 4416" class="cls-12" d="M90.28,499.08c-1.37,2.52-2.58,5.15-3.75,7.81-2.65,6-5.21,12.13-8.94,17.54C71.71,533,63.82,535.9,54.34,534c-7.6-1.54-12.31-7.39-13.4-16.12a33.73,33.73,0,0,1,3.5-19.22c3.56-7.39,8.36-13.85,13.12-20.35,4.38-6,9-11.78,13.09-18,.22-.32.41-.64.6-1,.29.18.58.36.88.53a29.4,29.4,0,0,0,5.34,2.26,42,42,0,0,0,6.34,1.49c1.66.94,3.4,1.81,4.15,3.73a18.74,18.74,0,0,1,.78,2.68c.32,9.08.27,18.2,1.31,27.22C90.13,497.86,90.2,498.47,90.28,499.08Z" transform="translate(109.88 207.02)"/><path id="Path_4417-12" data-name="Path 4417" class="cls-2" d="M112.75,477.74a37,37,0,0,1-5,3.73c-4,2.58-7.93,5.18-11.25,8.76l-.21.24-.09-1.42c-.42-7.05-.43-14.14-.72-21.21A16.48,16.48,0,0,1,98,462.16a54.57,54.57,0,0,0,7.52-5.26c1.46-1.16,2.93-2.31,4.48-3.33.39-.26.79-.51,1.19-.75l.54-.32,0,0,0,0,.07,0c.29-.15.59-.28.88-.41.65,3.61,1.43,7.19,2.38,10.75a33.7,33.7,0,0,1,1,5.91A10.41,10.41,0,0,1,112.75,477.74Z" transform="translate(109.88 207.02)"/><path id="Path_4418-12" data-name="Path 4418" class="cls-13" d="M40.69,514.22a9,9,0,0,0,5.86,3.88,25.06,25.06,0,0,0,7,.15" transform="translate(109.88 207.02)"/><path id="Path_4419-12" data-name="Path 4419" class="cls-14" d="M77.35,396.38a13.22,13.22,0,0,0,.36,5" transform="translate(109.88 207.02)"/><path id="Path_4420-12" data-name="Path 4420" class="cls-14" d="M81.06,395.08l.21,4a5,5,0,0,0,.22,1.44" transform="translate(109.88 207.02)"/><path id="Path_4421-12" data-name="Path 4421" class="cls-14" d="M88.1,394.4a30.77,30.77,0,0,1,.31,4" transform="translate(109.88 207.02)"/><path id="Path_4422-12" data-name="Path 4422" class="cls-14" d="M84.36,394.86l.23,3.11" transform="translate(109.88 207.02)"/><path id="Path_4423-12" data-name="Path 4423" class="cls-14" d="M92.75,394.32v3.88" transform="translate(109.88 207.02)"/><path id="Path_4424-12" data-name="Path 4424" class="cls-14" d="M98.33,394.33c-.24,1.32-.53,2.64-.89,3.94" transform="translate(109.88 207.02)"/><path id="Path_4425-12" data-name="Path 4425" class="cls-14" d="M102.91,395.31c-.26,1.43-.57,2.85-.94,4.26" transform="translate(109.88 207.02)"/></g><g id="Group_2-13" data-name="Group 2"><path id="Path_4412-13" data-name="Path 4412" class="cls-2" d="M151.17,235.49l-.16.28-.29.43c-.17.26-.36.52-.55.78a31.26,31.26,0,0,1-2.15,2.58c-.41.43-.83.85-1.25,1.27l-.13.13s0,0,0,0l-.73.66a68.35,68.35,0,0,1-6.46,5l-1,.65Q137.7,236,137,224.71c.36.3.72.61,1.09.9,2,1.68,4.16,3.25,6.28,4.79a74,74,0,0,0,6.45,4.25l.27.15A5.4,5.4,0,0,0,151.17,235.49Z" transform="translate(109.88 207.02)"/><path id="Path_4413-13" data-name="Path 4413" class="cls-10" d="M175.84,212.17l-1.1.74-1,.7c-2.45,1.7-5,3.32-7.33,5.19-1.63,1.31-3.11,2.85-4.62,4.31l-1.09,1-.44.42-.24.22c-.87.79-1.76,1.57-2.69,2.29a19.43,19.43,0,0,1-1.85,1.26c.2-.14-.34.12-.64.26l-.11,0-.21-.12c-.29-.16-.6-.32-.89-.5-.5-.3-1-.63-1.46-.95-1-.69-2.09-1.27-3.1-2a84.48,84.48,0,0,1-11.53-9.47c-.39-.4-.78-.8-1.16-1.21-.09-1.86-.15-3.72-.25-5.58a3.78,3.78,0,0,1,1.52-3.36,12.67,12.67,0,0,1,4.56-2.33c9.58-2.59,19.22-3.23,27.87-1.49,5.45,1.43,5.71,1.71,5.75,6.49C175.83,209.44,175.83,210.8,175.84,212.17Z" transform="translate(109.88 207.02)"/><path id="Path_4414-13" data-name="Path 4414" class="cls-2" d="M176.41,242.25l-1-.37-.4-.15-.53-.19-.62-.25-1.62-.67c-1.11-.49-2.21-1-3.31-1.54a97.69,97.69,0,0,1-8.94-5.08c3.29-2.12,6.05-5.24,8.9-8,0,0,.5-.45.65-.58.31-.28.63-.54,1-.8,1.25-.95,2.57-1.83,3.86-2.74l.46-.32,1.07-.74c0,5,0,10.08.23,15.12Q176.19,239.12,176.41,242.25Z" transform="translate(109.88 207.02)"/><path id="Path_4415-13" data-name="Path 4415" class="cls-11" d="M177.33,251.49l-1,.4c-5.42,2.33-9.64,6.91-14.67,10-.3.19-.61.35-.9.54l0,0a4,4,0,0,1-.36.17,15,15,0,0,1-2.13.85l-.66.17-.68.1a12.32,12.32,0,0,1-2.19,0l-.41,0-.95-.1c-.77-.09-1.53-.2-2.3-.32-1.52-.24-3-.55-4.53-.94-.85-.23-1.7-.48-2.53-.77l-.53-.19-.08,0q-.62-.25-1.23-.54a17.06,17.06,0,0,1-2-1.14l-.09,0-.33-.23,0,0-.55-.49a20.56,20.56,0,0,0,0-2.83l0-.57.93-.62c6-4,12.39-8.41,16.41-14.69a91.58,91.58,0,0,0,19.7,9.54l1.1.37C177.22,250.56,177.27,251,177.33,251.49Z" transform="translate(109.88 207.02)"/><path id="Path_4416-13" data-name="Path 4416" class="cls-12" d="M155.94,305.92c-1.38,2.52-2.59,5.15-3.76,7.82-2.64,6-5.21,12.13-8.94,17.54-5.87,8.53-13.76,11.46-23.25,9.54-7.6-1.54-12.31-7.4-13.4-16.13a33.7,33.7,0,0,1,3.51-19.21c3.56-7.4,8.35-13.86,13.11-20.36,4.38-6,9-11.77,13.1-18,.21-.32.41-.64.59-1,.29.19.58.37.88.53a28.52,28.52,0,0,0,5.35,2.26,41.86,41.86,0,0,0,6.33,1.49c1.66.94,3.4,1.81,4.15,3.74a18.64,18.64,0,0,1,.79,2.67c.32,9.09.26,18.21,1.31,27.23C155.78,304.71,155.86,305.31,155.94,305.92Z" transform="translate(109.88 207.02)"/><path id="Path_4417-13" data-name="Path 4417" class="cls-2" d="M178.4,284.59a38.73,38.73,0,0,1-5,3.73c-4,2.57-7.93,5.17-11.25,8.76l-.21.24-.09-1.42c-.42-7.06-.42-14.15-.71-21.22a16.45,16.45,0,0,1,2.57-5.68,52.9,52.9,0,0,0,7.52-5.26c1.46-1.16,2.93-2.31,4.48-3.33.39-.26.79-.51,1.19-.75l.54-.31.06,0,0,0,.07,0,.89-.4q1,5.4,2.37,10.74a33.67,33.67,0,0,1,1,5.92A10.45,10.45,0,0,1,178.4,284.59Z" transform="translate(109.88 207.02)"/><path id="Path_4418-13" data-name="Path 4418" class="cls-13" d="M106.35,321.06a8.91,8.91,0,0,0,5.85,3.88,24.7,24.7,0,0,0,7,.16" transform="translate(109.88 207.02)"/><path id="Path_4419-13" data-name="Path 4419" class="cls-14" d="M143,203.22a13.27,13.27,0,0,0,.35,5" transform="translate(109.88 207.02)"/><path id="Path_4420-13" data-name="Path 4420" class="cls-14" d="M146.71,201.93l.21,4a5.27,5.27,0,0,0,.22,1.43" transform="translate(109.88 207.02)"/><path id="Path_4421-13" data-name="Path 4421" class="cls-14" d="M153.75,201.24a30.77,30.77,0,0,1,.31,3.95" transform="translate(109.88 207.02)"/><path id="Path_4422-13" data-name="Path 4422" class="cls-14" d="M150,201.7l.22,3.11" transform="translate(109.88 207.02)"/><path id="Path_4423-13" data-name="Path 4423" class="cls-14" d="M158.4,201.17V205" transform="translate(109.88 207.02)"/><path id="Path_4424-13" data-name="Path 4424" class="cls-14" d="M164,201.17c-.24,1.33-.53,2.64-.89,3.94" transform="translate(109.88 207.02)"/><path id="Path_4425-13" data-name="Path 4425" class="cls-14" d="M168.56,202.16c-.25,1.43-.56,2.84-.93,4.25" transform="translate(109.88 207.02)"/></g><g id="Group_2-14" data-name="Group 2"><path id="Path_4412-14" data-name="Path 4412" class="cls-2" d="M273.46,338.83l-.17.28-.28.43-.55.78a29.5,29.5,0,0,1-2.16,2.58c-.4.43-.82.85-1.24,1.27l-.14.13,0,0-.72.66a68.35,68.35,0,0,1-6.46,5l-1,.65q-.75-11.28-1.45-22.56c.36.3.72.61,1.08.9,2.05,1.68,4.16,3.25,6.28,4.79a74.12,74.12,0,0,0,6.46,4.25l.27.15A3.25,3.25,0,0,0,273.46,338.83Z" transform="translate(109.88 207.02)"/><path id="Path_4413-14" data-name="Path 4413" class="cls-10" d="M298.12,315.51l-1.09.74-1,.7c-2.45,1.7-5,3.32-7.34,5.2-1.63,1.3-3.11,2.84-4.62,4.3L283,327.5l-.45.42-.23.22c-.87.8-1.76,1.57-2.69,2.29a19,19,0,0,1-1.86,1.26c.2-.13-.34.12-.64.26l-.1,0-.21-.12c-.3-.16-.6-.32-.9-.5-.49-.3-1-.62-1.45-1-1-.68-2.1-1.27-3.1-2a84,84,0,0,1-11.54-9.47c-.39-.39-.77-.8-1.15-1.21-.1-1.86-.16-3.72-.26-5.58a3.8,3.8,0,0,1,1.53-3.36,12.62,12.62,0,0,1,4.55-2.33c9.58-2.59,19.23-3.23,27.88-1.49,5.44,1.43,5.7,1.71,5.75,6.49C298.11,312.78,298.12,314.14,298.12,315.51Z" transform="translate(109.88 207.02)"/><path id="Path_4414-14" data-name="Path 4414" class="cls-2" d="M298.7,345.59l-1.05-.37-.4-.14-.53-.2-.63-.25-1.61-.67c-1.12-.48-2.22-1-3.31-1.54a96.53,96.53,0,0,1-8.95-5.08c3.29-2.12,6-5.24,8.91-8,0,0,.49-.45.65-.58.31-.28.62-.54,1-.8,1.26-.95,2.58-1.83,3.87-2.74l.46-.32,1.06-.74c0,5,0,10.08.23,15.12Q298.47,342.47,298.7,345.59Z" transform="translate(109.88 207.02)"/><path id="Path_4415-14" data-name="Path 4415" class="cls-11" d="M299.62,354.83c-.35.13-.69.26-1,.4-5.43,2.33-9.65,6.91-14.67,10-.3.19-.61.35-.91.54l0,0-.36.17a15.13,15.13,0,0,1-2.14.85l-.66.17-.67.1a12.44,12.44,0,0,1-2.2,0l-.4,0-.95-.1c-.77-.09-1.54-.2-2.3-.32-1.52-.24-3-.55-4.53-.94-.85-.23-1.7-.48-2.54-.77l-.53-.19-.07,0q-.63-.25-1.23-.54a16.44,16.44,0,0,1-2.05-1.14l-.08-.05a3.88,3.88,0,0,1-.33-.23l-.06,0-.54-.49a20.56,20.56,0,0,0,0-2.83c0-.19,0-.38,0-.57l.93-.61c6-4,12.4-8.42,16.41-14.69a91.86,91.86,0,0,0,19.71,9.53l1.1.37C299.5,353.9,299.56,354.37,299.62,354.83Z" transform="translate(109.88 207.02)"/><path id="Path_4416-14" data-name="Path 4416" class="cls-12" d="M278.22,409.26c-1.37,2.52-2.59,5.15-3.75,7.82-2.65,6-5.22,12.13-8.94,17.54-5.88,8.53-13.77,11.46-23.25,9.54-7.6-1.54-12.31-7.4-13.41-16.13a33.79,33.79,0,0,1,3.51-19.21c3.56-7.4,8.36-13.86,13.12-20.36,4.37-6,9-11.77,13.09-18,.21-.32.41-.64.6-1,.29.19.58.37.87.53a28.41,28.41,0,0,0,5.35,2.26,43.44,43.44,0,0,0,6.33,1.5c1.67.93,3.41,1.81,4.15,3.73a17.44,17.44,0,0,1,.79,2.67c.32,9.09.27,18.21,1.31,27.23C278.06,408.05,278.14,408.66,278.22,409.26Z" transform="translate(109.88 207.02)"/><path id="Path_4417-14" data-name="Path 4417" class="cls-2" d="M300.69,387.93a40.14,40.14,0,0,1-5,3.73c-4,2.57-7.93,5.17-11.25,8.76l-.22.24c0-.47-.06-1-.08-1.42-.42-7.06-.43-14.15-.72-21.22a16.48,16.48,0,0,1,2.58-5.68,52.81,52.81,0,0,0,7.51-5.26c1.47-1.16,2.94-2.31,4.48-3.33.4-.26.79-.51,1.19-.75l.54-.31.06,0,0,0,.08,0,.88-.4c.65,3.6,1.43,7.18,2.38,10.74a33.65,33.65,0,0,1,1,5.92A10.41,10.41,0,0,1,300.69,387.93Z" transform="translate(109.88 207.02)"/><path id="Path_4418-14" data-name="Path 4418" class="cls-13" d="M228.63,424.4a8.93,8.93,0,0,0,5.86,3.88,24.69,24.69,0,0,0,7,.16" transform="translate(109.88 207.02)"/><path id="Path_4419-14" data-name="Path 4419" class="cls-14" d="M265.29,306.56a13.27,13.27,0,0,0,.36,5" transform="translate(109.88 207.02)"/><path id="Path_4420-14" data-name="Path 4420" class="cls-14" d="M269,305.27l.21,4a4.59,4.59,0,0,0,.22,1.43" transform="translate(109.88 207.02)"/><path id="Path_4421-14" data-name="Path 4421" class="cls-14" d="M276,304.58a29.06,29.06,0,0,1,.3,3.95" transform="translate(109.88 207.02)"/><path id="Path_4422-14" data-name="Path 4422" class="cls-14" d="M272.3,305l.22,3.12" transform="translate(109.88 207.02)"/><path id="Path_4423-14" data-name="Path 4423" class="cls-14" d="M280.68,304.51v3.87" transform="translate(109.88 207.02)"/><path id="Path_4424-14" data-name="Path 4424" class="cls-14" d="M286.26,304.51c-.23,1.33-.53,2.64-.88,3.94" transform="translate(109.88 207.02)"/><path id="Path_4425-14" data-name="Path 4425" class="cls-14" d="M290.84,305.5c-.25,1.43-.56,2.84-.93,4.25" transform="translate(109.88 207.02)"/></g><g id="Group_2-15" data-name="Group 2"><path id="Path_4412-15" data-name="Path 4412" class="cls-2" d="M186.25,530.9c0,.09-.11.19-.16.28s-.25.4-.28.43c-.18.27-.37.52-.55.78A33.51,33.51,0,0,1,183.1,535c-.41.43-.83.86-1.25,1.27l-.13.14,0,0c-.24.22-.48.44-.73.65a66.72,66.72,0,0,1-6.46,5l-1,.66q-.75-11.28-1.44-22.57c.36.31.71.61,1.08.91,2,1.67,4.16,3.24,6.28,4.78a75.5,75.5,0,0,0,6.45,4.25l.27.15A5.2,5.2,0,0,0,186.25,530.9Z" transform="translate(109.88 207.02)"/><path id="Path_4413-15" data-name="Path 4413" class="cls-10" d="M210.92,507.58l-1.09.75-1,.69c-2.45,1.7-5,3.32-7.34,5.2-1.63,1.31-3.11,2.84-4.62,4.31-.36.35-.72.7-1.09,1,0,0-.44.42-.44.42l-.24.22c-.87.8-1.75,1.58-2.69,2.29a17.73,17.73,0,0,1-1.85,1.26c.2-.13-.34.12-.64.26l-.11,0-.2-.12-.9-.5c-.49-.3-1-.63-1.45-1-1-.69-2.1-1.27-3.11-2A83.68,83.68,0,0,1,172.6,511c-.39-.4-.78-.8-1.16-1.22-.09-1.86-.15-3.72-.25-5.58a3.78,3.78,0,0,1,1.53-3.36,12.62,12.62,0,0,1,4.55-2.33c9.58-2.59,19.23-3.22,27.88-1.49,5.44,1.43,5.7,1.71,5.74,6.5C210.91,504.85,210.91,506.21,210.92,507.58Z" transform="translate(109.88 207.02)"/><path id="Path_4414-15" data-name="Path 4414" class="cls-2" d="M211.5,537.66l-1.05-.37-.4-.14-.53-.2-.63-.25c-.54-.21-1.08-.44-1.62-.67q-1.67-.72-3.3-1.53a99,99,0,0,1-8.95-5.09c3.29-2.12,6-5.24,8.9-7.95l.65-.59c.31-.27.63-.54,1-.79,1.26-1,2.57-1.84,3.86-2.74l.46-.33,1.07-.73c0,5,0,10.07.23,15.11C211.23,533.49,211.34,535.58,211.5,537.66Z" transform="translate(109.88 207.02)"/><path id="Path_4415-15" data-name="Path 4415" class="cls-11" d="M212.41,546.9c-.34.13-.68.26-1,.41-5.42,2.32-9.64,6.9-14.67,10l-.9.53,0,0-.35.18a15.56,15.56,0,0,1-2.14.84l-.66.18-.67.09a12.44,12.44,0,0,1-2.2,0l-.41,0-1-.1c-.76-.09-1.53-.19-2.29-.32a44.05,44.05,0,0,1-4.54-.94c-.85-.22-1.7-.48-2.53-.77l-.53-.18-.08,0-1.23-.55a18.5,18.5,0,0,1-2-1.13l-.09-.06-.33-.22-.05-.05c-.18-.16-.37-.32-.54-.49a22.27,22.27,0,0,0,0-2.83c0-.19,0-.38,0-.57l.93-.61c6-4,12.4-8.41,16.41-14.69a91.58,91.58,0,0,0,19.7,9.54l1.11.36C212.3,546,212.36,546.44,212.41,546.9Z" transform="translate(109.88 207.02)"/><path id="Path_4416-15" data-name="Path 4416" class="cls-12" d="M191,601.34c-1.38,2.52-2.59,5.14-3.76,7.81-2.64,6-5.21,12.13-8.94,17.54-5.87,8.54-13.76,11.47-23.25,9.54-7.6-1.54-12.3-7.39-13.4-16.13a33.72,33.72,0,0,1,3.51-19.21c3.56-7.39,8.36-13.86,13.11-20.36,4.38-6,9-11.77,13.1-18,.21-.32.41-.64.59-1,.29.18.58.36.88.53a29.19,29.19,0,0,0,5.35,2.26,41.86,41.86,0,0,0,6.33,1.49c1.66.94,3.4,1.81,4.15,3.73a19,19,0,0,1,.79,2.67c.32,9.09.26,18.21,1.31,27.23C190.86,600.12,190.94,600.73,191,601.34Z" transform="translate(109.88 207.02)"/><path id="Path_4417-15" data-name="Path 4417" class="cls-2" d="M213.48,580a38.39,38.39,0,0,1-5,3.73c-4,2.58-7.93,5.18-11.26,8.76l-.21.24-.09-1.42c-.42-7-.42-14.14-.71-21.21a16.21,16.21,0,0,1,2.58-5.68,55.09,55.09,0,0,0,7.51-5.26c1.46-1.16,2.93-2.31,4.48-3.34.39-.26.79-.51,1.19-.74l.54-.32.06,0,0,0,.07,0c.3-.15.59-.28.89-.41q1,5.41,2.38,10.74a34,34,0,0,1,1,5.92A10.42,10.42,0,0,1,213.48,580Z" transform="translate(109.88 207.02)"/><path id="Path_4418-15" data-name="Path 4418" class="cls-13" d="M141.43,616.48a8.89,8.89,0,0,0,5.85,3.87,24.71,24.71,0,0,0,7,.16" transform="translate(109.88 207.02)"/><path id="Path_4419-15" data-name="Path 4419" class="cls-14" d="M178.09,498.64a13.42,13.42,0,0,0,.35,5" transform="translate(109.88 207.02)"/><path id="Path_4420-15" data-name="Path 4420" class="cls-14" d="M181.79,497.34l.22,4a4.7,4.7,0,0,0,.22,1.44" transform="translate(109.88 207.02)"/><path id="Path_4421-15" data-name="Path 4421" class="cls-14" d="M188.83,496.66a28.82,28.82,0,0,1,.31,3.95" transform="translate(109.88 207.02)"/><path id="Path_4422-15" data-name="Path 4422" class="cls-14" d="M185.1,497.11l.22,3.12" transform="translate(109.88 207.02)"/><path id="Path_4423-15" data-name="Path 4423" class="cls-14" d="M193.48,496.58v3.88" transform="translate(109.88 207.02)"/><path id="Path_4424-15" data-name="Path 4424" class="cls-14" d="M199.06,496.58c-.23,1.33-.53,2.65-.89,3.95" transform="translate(109.88 207.02)"/><path id="Path_4425-15" data-name="Path 4425" class="cls-14" d="M203.64,497.57c-.25,1.43-.56,2.85-.93,4.25" transform="translate(109.88 207.02)"/></g><g id="Group_2-16" data-name="Group 2"><path id="Path_4412-16" data-name="Path 4412" class="cls-2" d="M370.68,438.38c0,.09-.11.19-.16.28s-.25.4-.28.43c-.18.27-.37.52-.56.78a31.26,31.26,0,0,1-2.15,2.58c-.41.43-.83.86-1.25,1.28l-.13.13,0,0c-.24.22-.48.44-.73.65a66.72,66.72,0,0,1-6.46,5l-1,.66q-.75-11.28-1.44-22.57c.35.31.71.61,1.08.91,2,1.67,4.16,3.24,6.28,4.78a75.5,75.5,0,0,0,6.45,4.25l.27.15A5.2,5.2,0,0,0,370.68,438.38Z" transform="translate(109.88 207.02)"/><path id="Path_4413-16" data-name="Path 4413" class="cls-10" d="M395.35,415.06l-1.09.75-1,.69c-2.45,1.7-5,3.32-7.34,5.2-1.63,1.31-3.11,2.84-4.62,4.31-.36.35-.72.7-1.09,1,0,.05-.44.42-.44.42l-.24.22c-.87.8-1.75,1.58-2.69,2.29a17.73,17.73,0,0,1-1.85,1.26c.2-.13-.34.12-.64.26l-.11,0-.21-.12-.89-.5c-.49-.3-1-.63-1.45-1-1-.69-2.1-1.27-3.11-2A83.68,83.68,0,0,1,357,418.45c-.39-.4-.78-.8-1.16-1.22-.09-1.86-.15-3.72-.25-5.58a3.8,3.8,0,0,1,1.52-3.36A12.75,12.75,0,0,1,361.7,406c9.58-2.59,19.22-3.22,27.87-1.49,5.45,1.43,5.71,1.71,5.75,6.5C395.34,412.33,395.34,413.69,395.35,415.06Z" transform="translate(109.88 207.02)"/><path id="Path_4414-16" data-name="Path 4414" class="cls-2" d="M395.93,445.14l-1.05-.37-.41-.14-.53-.2-.62-.25c-.54-.21-1.08-.44-1.62-.67q-1.67-.72-3.3-1.53a99,99,0,0,1-8.95-5.09c3.29-2.12,6.05-5.24,8.9-7.95l.65-.59c.31-.27.63-.54,1-.79,1.26-1,2.57-1.84,3.86-2.74l.46-.32,1.07-.74c0,5,0,10.07.23,15.11C395.66,441,395.77,443.06,395.93,445.14Z" transform="translate(109.88 207.02)"/><path id="Path_4415-16" data-name="Path 4415" class="cls-11" d="M396.84,454.38c-.34.13-.68.26-1,.41-5.42,2.32-9.64,6.9-14.67,10l-.9.53,0,0-.35.18a15.56,15.56,0,0,1-2.14.84l-.66.18-.67.09a12.44,12.44,0,0,1-2.2,0l-.41,0-1-.1c-.76-.09-1.53-.19-2.29-.31-1.53-.25-3-.55-4.54-1-.85-.22-1.7-.48-2.53-.77l-.53-.18-.08,0-1.23-.55a18.5,18.5,0,0,1-2-1.13l-.09-.06-.33-.22-.05-.05-.55-.49a20.56,20.56,0,0,0,0-2.83c0-.19,0-.38,0-.57l.93-.61c6-4,12.4-8.41,16.41-14.69a91.58,91.58,0,0,0,19.7,9.54l1.1.36C396.73,453.45,396.79,453.92,396.84,454.38Z" transform="translate(109.88 207.02)"/><path id="Path_4416-16" data-name="Path 4416" class="cls-12" d="M375.45,508.82c-1.38,2.52-2.59,5.14-3.76,7.81-2.64,6-5.21,12.13-8.94,17.54-5.87,8.54-13.76,11.47-23.25,9.54-7.6-1.54-12.3-7.39-13.4-16.13a33.72,33.72,0,0,1,3.51-19.21C333.17,501,338,494.51,342.72,488c4.38-6,9-11.77,13.1-18,.21-.32.41-.64.59-1,.29.18.58.36.88.53a29.19,29.19,0,0,0,5.35,2.26,41.86,41.86,0,0,0,6.33,1.49c1.66.94,3.4,1.81,4.15,3.73a19,19,0,0,1,.79,2.67c.32,9.09.26,18.21,1.31,27.23C375.29,507.6,375.37,508.21,375.45,508.82Z" transform="translate(109.88 207.02)"/><path id="Path_4417-16" data-name="Path 4417" class="cls-2" d="M397.91,487.48a37.83,37.83,0,0,1-5,3.73c-4,2.58-7.93,5.18-11.25,8.76l-.21.24-.09-1.42c-.42-7.05-.42-14.14-.71-21.21a16.21,16.21,0,0,1,2.58-5.68,55.09,55.09,0,0,0,7.51-5.26c1.46-1.16,2.93-2.31,4.48-3.33.39-.26.79-.51,1.19-.75l.54-.32.06,0,0,0,.07,0c.3-.15.59-.28.89-.41q1,5.42,2.38,10.74a34,34,0,0,1,1,5.92A10.42,10.42,0,0,1,397.91,487.48Z" transform="translate(109.88 207.02)"/><path id="Path_4418-16" data-name="Path 4418" class="cls-13" d="M325.86,524a8.89,8.89,0,0,0,5.85,3.87,24.71,24.71,0,0,0,7,.16" transform="translate(109.88 207.02)"/><path id="Path_4419-16" data-name="Path 4419" class="cls-14" d="M362.52,406.12a13.42,13.42,0,0,0,.35,5" transform="translate(109.88 207.02)"/><path id="Path_4420-16" data-name="Path 4420" class="cls-14" d="M366.22,404.82l.22,4a5,5,0,0,0,.21,1.44" transform="translate(109.88 207.02)"/><path id="Path_4421-16" data-name="Path 4421" class="cls-14" d="M373.26,404.14a28.94,28.94,0,0,1,.31,3.95" transform="translate(109.88 207.02)"/><path id="Path_4422-16" data-name="Path 4422" class="cls-14" d="M369.53,404.59l.22,3.12" transform="translate(109.88 207.02)"/><path id="Path_4423-16" data-name="Path 4423" class="cls-14" d="M377.91,404.06v3.88" transform="translate(109.88 207.02)"/><path id="Path_4424-16" data-name="Path 4424" class="cls-14" d="M383.49,404.07c-.23,1.32-.53,2.64-.89,3.94" transform="translate(109.88 207.02)"/><path id="Path_4425-16" data-name="Path 4425" class="cls-14" d="M388.07,405.05q-.37,2.15-.93,4.26" transform="translate(109.88 207.02)"/></g><g id="Group_2-17" data-name="Group 2"><path id="Path_4412-17" data-name="Path 4412" class="cls-2" d="M421.8,233.87c0,.08-.11.19-.16.27l-.28.44c-.18.26-.37.52-.56.77a28.26,28.26,0,0,1-2.15,2.58c-.41.44-.83.86-1.25,1.28l-.13.13,0,0c-.24.22-.48.44-.73.65a66.72,66.72,0,0,1-6.46,5l-1,.66q-.75-11.28-1.44-22.57c.35.31.71.61,1.08.91,2,1.67,4.16,3.25,6.28,4.78a69.65,69.65,0,0,0,6.45,4.25l.27.15A5.35,5.35,0,0,0,421.8,233.87Z" transform="translate(109.88 207.02)"/><path id="Path_4413-17" data-name="Path 4413" class="cls-10" d="M446.47,210.54l-1.1.75-1,.7c-2.45,1.69-5,3.31-7.33,5.19-1.63,1.31-3.11,2.85-4.62,4.31l-1.09,1-.44.43-.24.21c-.87.8-1.76,1.58-2.69,2.29a17.73,17.73,0,0,1-1.85,1.26c.2-.13-.34.13-.64.26l-.11,0-.21-.12c-.29-.17-.6-.32-.89-.5-.5-.3-1-.63-1.45-1-1-.69-2.1-1.27-3.11-2a84.48,84.48,0,0,1-11.53-9.47c-.39-.4-.78-.8-1.16-1.21-.09-1.86-.15-3.73-.25-5.58a3.78,3.78,0,0,1,1.52-3.36,12.67,12.67,0,0,1,4.56-2.33c9.58-2.59,19.22-3.23,27.87-1.5,5.45,1.44,5.71,1.71,5.75,6.5C446.46,207.81,446.46,209.18,446.47,210.54Z" transform="translate(109.88 207.02)"/><path id="Path_4414-17" data-name="Path 4414" class="cls-2" d="M447,240.62l-1.05-.36-.4-.15-.53-.19s-.62-.25-.62-.25c-.54-.22-1.08-.44-1.62-.68q-1.67-.72-3.3-1.53a96.63,96.63,0,0,1-8.95-5.09c3.29-2.12,6.05-5.23,8.9-8l.65-.59c.31-.27.63-.54,1-.79,1.25-1,2.57-1.84,3.86-2.74l.46-.32,1.07-.74c0,5,0,10.08.23,15.12Q446.82,237.49,447,240.62Z" transform="translate(109.88 207.02)"/><path id="Path_4415-17" data-name="Path 4415" class="cls-11" d="M448,249.87c-.34.12-.68.26-1,.4-5.42,2.32-9.64,6.9-14.67,10l-.9.53,0,0L431,261a14.38,14.38,0,0,1-2.14.84l-.66.18-.67.1a12.43,12.43,0,0,1-2.2,0l-.41,0-1-.11c-.77-.09-1.53-.19-2.29-.31-1.53-.25-3-.55-4.54-.95-.85-.22-1.7-.47-2.53-.76l-.53-.19-.08,0c-.41-.17-.82-.35-1.23-.55a18.5,18.5,0,0,1-2-1.13l-.09,0-.33-.23-.05-.05-.55-.48a20.71,20.71,0,0,0,0-2.84l0-.57.93-.61c6-4,12.4-8.41,16.41-14.69a91.58,91.58,0,0,0,19.7,9.54c.37.12.73.25,1.1.36C447.85,248.94,447.91,249.4,448,249.87Z" transform="translate(109.88 207.02)"/><path id="Path_4416-17" data-name="Path 4416" class="cls-12" d="M426.57,304.3c-1.38,2.52-2.59,5.15-3.76,7.81-2.64,6.05-5.21,12.14-8.94,17.54-5.87,8.54-13.76,11.47-23.25,9.55-7.6-1.55-12.3-7.4-13.4-16.13a33.74,33.74,0,0,1,3.51-19.22c3.56-7.39,8.35-13.85,13.11-20.35,4.38-6,9-11.78,13.1-18,.21-.32.41-.64.59-1,.29.18.58.36.88.53a28.52,28.52,0,0,0,5.35,2.26,41.86,41.86,0,0,0,6.33,1.49c1.66.94,3.4,1.81,4.15,3.73a18.77,18.77,0,0,1,.79,2.68c.32,9.09.26,18.2,1.31,27.22C426.41,303.08,426.49,303.69,426.57,304.3Z" transform="translate(109.88 207.02)"/><path id="Path_4417-17" data-name="Path 4417" class="cls-2" d="M449,283a37,37,0,0,1-5,3.73c-4,2.58-7.93,5.18-11.25,8.77l-.21.23-.09-1.41c-.42-7.06-.42-14.15-.71-21.22a16.45,16.45,0,0,1,2.57-5.68,54.57,54.57,0,0,0,7.52-5.26c1.46-1.16,2.93-2.31,4.48-3.33.39-.26.79-.51,1.19-.75l.54-.31.06,0,0,0,.07,0,.89-.41q1,5.41,2.37,10.75a32.77,32.77,0,0,1,1.05,5.92A10.42,10.42,0,0,1,449,283Z" transform="translate(109.88 207.02)"/><path id="Path_4418-17" data-name="Path 4418" class="cls-13" d="M377,319.44a8.91,8.91,0,0,0,5.85,3.88,24.71,24.71,0,0,0,7,.15" transform="translate(109.88 207.02)"/><path id="Path_4419-17" data-name="Path 4419" class="cls-14" d="M413.64,201.6a13.41,13.41,0,0,0,.35,5" transform="translate(109.88 207.02)"/><path id="Path_4420-17" data-name="Path 4420" class="cls-14" d="M417.34,200.31l.21,4a5.34,5.34,0,0,0,.22,1.44" transform="translate(109.88 207.02)"/><path id="Path_4421-17" data-name="Path 4421" class="cls-14" d="M424.38,199.62a30.77,30.77,0,0,1,.31,3.95" transform="translate(109.88 207.02)"/><path id="Path_4422-17" data-name="Path 4422" class="cls-14" d="M420.65,200.08l.22,3.11" transform="translate(109.88 207.02)"/><path id="Path_4423-17" data-name="Path 4423" class="cls-14" d="M429,199.54v3.88" transform="translate(109.88 207.02)"/><path id="Path_4424-17" data-name="Path 4424" class="cls-14" d="M434.61,199.55c-.24,1.33-.53,2.64-.89,3.94" transform="translate(109.88 207.02)"/><path id="Path_4425-17" data-name="Path 4425" class="cls-14" d="M439.19,200.54c-.25,1.42-.56,2.84-.93,4.25" transform="translate(109.88 207.02)"/></g><g id="Group_2-18" data-name="Group 2"><path id="Path_4412-18" data-name="Path 4412" class="cls-2" d="M522.54,346.4a2.61,2.61,0,0,1-.17.28c-.08.14-.25.4-.28.44-.18.26-.36.52-.55.77a28.1,28.1,0,0,1-2.16,2.58c-.4.43-.82.86-1.24,1.28l-.14.13,0,0-.72.65a66.72,66.72,0,0,1-6.46,5l-1,.66q-.75-11.28-1.45-22.57l1.08.91c2.05,1.67,4.16,3.25,6.28,4.78a71.89,71.89,0,0,0,6.46,4.25,2.34,2.34,0,0,0,.27.15A3.17,3.17,0,0,0,522.54,346.4Z" transform="translate(109.88 207.02)"/><path id="Path_4413-18" data-name="Path 4413" class="cls-10" d="M547.2,323.08l-1.09.75-1,.7c-2.45,1.69-5,3.31-7.34,5.19-1.63,1.31-3.11,2.85-4.62,4.31l-1.08,1-.45.43-.23.21c-.87.8-1.76,1.58-2.69,2.29a19,19,0,0,1-1.86,1.26c.2-.13-.34.13-.64.26l-.1,0-.21-.12-.9-.5c-.49-.3-1-.63-1.45-.95-1-.69-2.1-1.27-3.1-2a84,84,0,0,1-11.54-9.47c-.39-.4-.77-.8-1.15-1.21-.1-1.86-.16-3.73-.26-5.59a3.81,3.81,0,0,1,1.53-3.36,12.78,12.78,0,0,1,4.55-2.33c9.58-2.58,19.23-3.22,27.88-1.49,5.44,1.43,5.7,1.71,5.75,6.5C547.19,320.35,547.2,321.72,547.2,323.08Z" transform="translate(109.88 207.02)"/><path id="Path_4414-18" data-name="Path 4414" class="cls-2" d="M547.78,353.16l-1-.36-.4-.15-.53-.2-.63-.24-1.61-.68c-1.12-.48-2.22-1-3.31-1.53a99,99,0,0,1-9-5.09c3.29-2.12,6.05-5.23,8.91-8,0,0,.49-.46.65-.59s.62-.54.95-.79c1.26-1,2.58-1.84,3.87-2.74l.46-.32,1.06-.74c0,5,0,10.08.23,15.11Q547.55,350,547.78,353.16Z" transform="translate(109.88 207.02)"/><path id="Path_4415-18" data-name="Path 4415" class="cls-11" d="M548.7,362.41c-.35.12-.69.26-1,.4-5.43,2.32-9.65,6.9-14.67,10l-.91.53,0,0-.36.18a14,14,0,0,1-2.14.84l-.66.18-.67.09a12.44,12.44,0,0,1-2.2,0l-.4,0-.95-.1c-.77-.09-1.54-.19-2.3-.31-1.52-.25-3-.55-4.53-.95-.85-.22-1.7-.47-2.54-.76l-.53-.19-.07,0c-.42-.18-.83-.35-1.23-.55a17.76,17.76,0,0,1-2.05-1.13l-.08-.05-.33-.23-.06-.05-.54-.49a20.57,20.57,0,0,0,0-2.83c0-.19,0-.38,0-.57l.93-.61c6-4,12.4-8.41,16.41-14.69a91.43,91.43,0,0,0,19.71,9.54c.36.12.73.25,1.1.36C548.58,361.48,548.64,361.94,548.7,362.41Z" transform="translate(109.88 207.02)"/><path id="Path_4416-18" data-name="Path 4416" class="cls-12" d="M527.3,416.84c-1.37,2.52-2.59,5.15-3.75,7.81-2.65,6.05-5.22,12.14-8.94,17.54-5.88,8.54-13.77,11.47-23.25,9.54-7.6-1.54-12.31-7.39-13.41-16.12a33.82,33.82,0,0,1,3.51-19.22C485,409,489.82,402.54,494.58,396c4.37-6,9-11.78,13.09-18q.31-.48.6-1l.87.53a29.79,29.79,0,0,0,5.35,2.26,42.15,42.15,0,0,0,6.33,1.49c1.67.94,3.41,1.81,4.15,3.73a17.56,17.56,0,0,1,.79,2.68c.32,9.09.27,18.2,1.31,27.22C527.14,415.62,527.22,416.23,527.3,416.84Z" transform="translate(109.88 207.02)"/><path id="Path_4417-18" data-name="Path 4417" class="cls-2" d="M549.77,395.5a38.26,38.26,0,0,1-5,3.73c-4,2.58-7.93,5.18-11.25,8.76-.08.08-.14.17-.22.24,0-.47-.06-.94-.08-1.42-.42-7.05-.43-14.14-.72-21.21a16.48,16.48,0,0,1,2.58-5.68,54.48,54.48,0,0,0,7.51-5.26c1.47-1.16,2.94-2.31,4.48-3.33.4-.26.79-.51,1.2-.75l.53-.32.06,0,0,0,.08,0c.29-.15.59-.28.88-.41.65,3.61,1.43,7.19,2.38,10.75a33.7,33.7,0,0,1,1,5.91A10.41,10.41,0,0,1,549.77,395.5Z" transform="translate(109.88 207.02)"/><path id="Path_4418-18" data-name="Path 4418" class="cls-13" d="M477.71,432a9,9,0,0,0,5.86,3.88,25.06,25.06,0,0,0,7,.15" transform="translate(109.88 207.02)"/><path id="Path_4419-18" data-name="Path 4419" class="cls-14" d="M514.37,314.14a13.22,13.22,0,0,0,.36,5" transform="translate(109.88 207.02)"/><path id="Path_4420-18" data-name="Path 4420" class="cls-14" d="M518.08,312.84l.21,4a4.66,4.66,0,0,0,.22,1.44" transform="translate(109.88 207.02)"/><path id="Path_4421-18" data-name="Path 4421" class="cls-14" d="M525.12,312.16a29.06,29.06,0,0,1,.3,3.95" transform="translate(109.88 207.02)"/><path id="Path_4422-18" data-name="Path 4422" class="cls-14" d="M521.38,312.62l.22,3.11" transform="translate(109.88 207.02)"/><path id="Path_4423-18" data-name="Path 4423" class="cls-14" d="M529.76,312.08V316" transform="translate(109.88 207.02)"/><path id="Path_4424-18" data-name="Path 4424" class="cls-14" d="M535.34,312.09c-.23,1.32-.53,2.64-.88,3.94" transform="translate(109.88 207.02)"/><path id="Path_4425-18" data-name="Path 4425" class="cls-14" d="M539.92,313.07q-.37,2.15-.93,4.26" transform="translate(109.88 207.02)"/></g><g id="Group_2-19" data-name="Group 2"><path id="Path_4412-19" data-name="Path 4412" class="cls-2" d="M491,532c0,.08-.11.19-.16.27l-.28.44c-.18.26-.37.52-.56.77a29.68,29.68,0,0,1-2.15,2.58c-.41.44-.83.86-1.25,1.28l-.13.13,0,0c-.24.22-.48.44-.73.65a66.72,66.72,0,0,1-6.46,5l-1,.66q-.75-11.28-1.44-22.57c.36.31.71.61,1.08.91,2,1.67,4.16,3.25,6.28,4.78a71,71,0,0,0,6.45,4.25c.09.06.18.1.27.15A5.35,5.35,0,0,0,491,532Z" transform="translate(109.88 207.02)"/><path id="Path_4413-19" data-name="Path 4413" class="cls-10" d="M515.63,508.66l-1.09.75-1,.7c-2.45,1.69-5,3.31-7.34,5.19-1.63,1.31-3.11,2.85-4.62,4.31-.36.35-.72.7-1.09,1,0,.05-.44.43-.44.43l-.24.21c-.87.8-1.75,1.58-2.69,2.29a17.73,17.73,0,0,1-1.85,1.26c.2-.13-.34.13-.64.26l-.11,0-.21-.12-.89-.5c-.49-.3-1-.63-1.45-1-1-.69-2.1-1.27-3.11-2a84.48,84.48,0,0,1-11.53-9.47c-.39-.4-.78-.8-1.16-1.21-.09-1.86-.15-3.73-.25-5.58a3.81,3.81,0,0,1,1.52-3.37,12.91,12.91,0,0,1,4.56-2.33c9.58-2.58,19.22-3.22,27.88-1.49,5.44,1.43,5.7,1.71,5.74,6.5C515.62,505.93,515.62,507.3,515.63,508.66Z" transform="translate(109.88 207.02)"/><path id="Path_4414-19" data-name="Path 4414" class="cls-2" d="M516.21,538.74l-1.05-.36-.41-.15-.53-.2-.62-.24c-.54-.22-1.08-.44-1.62-.68q-1.67-.72-3.3-1.53a99,99,0,0,1-8.95-5.09c3.29-2.12,6-5.23,8.9-8l.65-.59c.31-.27.63-.54,1-.79,1.26-1,2.57-1.84,3.86-2.74l.46-.32,1.07-.74c0,5,0,10.08.23,15.11C515.94,534.57,516.05,536.66,516.21,538.74Z" transform="translate(109.88 207.02)"/><path id="Path_4415-19" data-name="Path 4415" class="cls-11" d="M517.12,548c-.34.12-.68.26-1,.4-5.42,2.32-9.64,6.9-14.67,10l-.9.53,0,0-.35.18A14.38,14.38,0,0,1,498,560l-.66.18c-.19,0-.58.09-.67.09a12.44,12.44,0,0,1-2.2,0l-.41,0-.95-.1c-.76-.09-1.53-.19-2.29-.31-1.53-.25-3-.55-4.54-1-.85-.22-1.7-.47-2.53-.76l-.53-.19-.08,0c-.41-.18-.82-.35-1.23-.55a18.5,18.5,0,0,1-2-1.13l-.09-.05-.33-.23,0,0-.55-.48a20.71,20.71,0,0,0,0-2.84c0-.19,0-.38,0-.57l.93-.61c6-4,12.4-8.41,16.41-14.69a91.58,91.58,0,0,0,19.7,9.54l1.1.36C517,547.06,517.07,547.52,517.12,548Z" transform="translate(109.88 207.02)"/><path id="Path_4416-19" data-name="Path 4416" class="cls-12" d="M495.73,602.42c-1.38,2.52-2.59,5.15-3.76,7.81-2.64,6-5.21,12.14-8.94,17.54-5.87,8.54-13.76,11.47-23.25,9.54-7.6-1.54-12.3-7.39-13.4-16.12A33.74,33.74,0,0,1,449.89,602c3.56-7.39,8.36-13.85,13.11-20.35,4.38-6,9-11.78,13.1-18,.21-.32.41-.64.59-1,.29.18.58.36.88.53a29.19,29.19,0,0,0,5.35,2.26,41.86,41.86,0,0,0,6.33,1.49c1.66.94,3.4,1.81,4.15,3.73a18.77,18.77,0,0,1,.79,2.68c.32,9.09.26,18.2,1.31,27.22C495.57,601.2,495.65,601.81,495.73,602.42Z" transform="translate(109.88 207.02)"/><path id="Path_4417-19" data-name="Path 4417" class="cls-2" d="M518.19,581.08a37,37,0,0,1-5,3.73c-4,2.58-7.93,5.18-11.25,8.77l-.21.23-.09-1.42c-.42-7-.42-14.14-.71-21.21a16.29,16.29,0,0,1,2.58-5.68,55.09,55.09,0,0,0,7.51-5.26c1.46-1.16,2.93-2.31,4.48-3.33.39-.26.79-.51,1.19-.75l.54-.31.06,0,0,0,.07,0,.89-.41q1,5.42,2.38,10.75a33.7,33.7,0,0,1,1,5.91A10.42,10.42,0,0,1,518.19,581.08Z" transform="translate(109.88 207.02)"/><path id="Path_4418-19" data-name="Path 4418" class="cls-13" d="M446.14,617.56a8.94,8.94,0,0,0,5.85,3.88,25.08,25.08,0,0,0,7,.15" transform="translate(109.88 207.02)"/><path id="Path_4419-19" data-name="Path 4419" class="cls-14" d="M482.8,499.72a13.42,13.42,0,0,0,.35,5" transform="translate(109.88 207.02)"/><path id="Path_4420-19" data-name="Path 4420" class="cls-14" d="M486.5,498.42l.22,4a5,5,0,0,0,.21,1.44" transform="translate(109.88 207.02)"/><path id="Path_4421-19" data-name="Path 4421" class="cls-14" d="M493.54,497.74a29.07,29.07,0,0,1,.31,3.95" transform="translate(109.88 207.02)"/><path id="Path_4422-19" data-name="Path 4422" class="cls-14" d="M489.81,498.2l.22,3.11" transform="translate(109.88 207.02)"/><path id="Path_4423-19" data-name="Path 4423" class="cls-14" d="M498.19,497.66v3.88" transform="translate(109.88 207.02)"/><path id="Path_4424-19" data-name="Path 4424" class="cls-14" d="M503.77,497.67c-.23,1.33-.53,2.64-.89,3.94" transform="translate(109.88 207.02)"/><path id="Path_4425-19" data-name="Path 4425" class="cls-14" d="M508.35,498.65q-.37,2.14-.93,4.26" transform="translate(109.88 207.02)"/></g><g id="Group_2-20" data-name="Group 2"><path id="Path_4412-20" data-name="Path 4412" class="cls-2" d="M-64.83,499l-.16.28c-.09.13-.26.4-.29.43l-.55.78A31.26,31.26,0,0,1-68,503.05c-.41.43-.83.85-1.25,1.27l-.13.13,0,0c-.24.23-.49.44-.73.66a68.35,68.35,0,0,1-6.46,5l-1,.65Q-78.3,499.48-79,488.2l1.09.91c2,1.67,4.16,3.24,6.27,4.78a75.66,75.66,0,0,0,6.46,4.25l.27.15A3.25,3.25,0,0,0-64.83,499Z" transform="translate(109.88 207.02)"/><path id="Path_4413-20" data-name="Path 4413" class="cls-10" d="M-40.17,475.66l-1.09.75-1,.69c-2.45,1.7-5,3.32-7.34,5.2-1.63,1.3-3.11,2.84-4.62,4.3l-1.08,1-.45.42-.23.22c-.87.8-1.76,1.57-2.69,2.29a18.86,18.86,0,0,1-1.85,1.26c.2-.13-.35.12-.64.26l-.11,0-.21-.11c-.3-.17-.6-.33-.89-.51-.5-.29-1-.62-1.46-.94-1-.69-2.09-1.28-3.1-2A84.43,84.43,0,0,1-78.49,479c-.39-.39-.77-.8-1.15-1.21-.09-1.86-.16-3.72-.25-5.58a3.77,3.77,0,0,1,1.52-3.36,12.59,12.59,0,0,1,4.56-2.33c9.57-2.59,19.22-3.23,27.87-1.49,5.44,1.43,5.7,1.71,5.75,6.49C-40.18,472.93-40.17,474.29-40.17,475.66Z" transform="translate(109.88 207.02)"/><path id="Path_4414-20" data-name="Path 4414" class="cls-2" d="M-39.59,505.74l-1-.37-.4-.14-.53-.2-.62-.25c-.55-.21-1.08-.44-1.62-.67-1.12-.48-2.22-1-3.31-1.53a100.36,100.36,0,0,1-9-5.09c3.29-2.12,6.06-5.24,8.91-7.95l.65-.59c.31-.28.63-.54,1-.8,1.25-.95,2.57-1.83,3.86-2.74l.46-.32,1.06-.74c0,5,0,10.08.24,15.12C-39.86,501.57-39.74,503.66-39.59,505.74Z" transform="translate(109.88 207.02)"/><path id="Path_4415-20" data-name="Path 4415" class="cls-11" d="M-38.67,515c-.34.13-.68.26-1,.41-5.42,2.32-9.65,6.9-14.67,10-.3.18-.61.34-.9.53l0,0-.36.18a16.38,16.38,0,0,1-2.14.84l-.66.17-.67.1a12.32,12.32,0,0,1-2.19,0l-.41,0-1-.1c-.77-.09-1.54-.2-2.3-.32-1.52-.24-3-.55-4.53-.94-.85-.22-1.7-.48-2.54-.77l-.53-.19-.07,0c-.41-.17-.83-.35-1.23-.54a17.63,17.63,0,0,1-2-1.13l-.09-.06-.33-.22,0,0-.55-.49a20.56,20.56,0,0,0,0-2.83c0-.19,0-.38,0-.57l.94-.61c6-4,12.39-8.41,16.4-14.69a91.9,91.9,0,0,0,19.71,9.54l1.1.36C-38.78,514.05-38.73,514.52-38.67,515Z" transform="translate(109.88 207.02)"/><path id="Path_4416-20" data-name="Path 4416" class="cls-12" d="M-60.07,569.41c-1.37,2.52-2.58,5.15-3.75,7.82-2.65,6-5.21,12.13-8.94,17.54-5.88,8.53-13.77,11.46-23.25,9.54-7.6-1.54-12.31-7.4-13.4-16.13a33.7,33.7,0,0,1,3.5-19.21c3.56-7.39,8.36-13.86,13.12-20.36,4.38-6,9-11.77,13.09-18,.22-.32.41-.64.6-1,.29.19.58.37.88.54a29.4,29.4,0,0,0,5.34,2.26A44.55,44.55,0,0,0-66.54,534c1.66.93,3.4,1.81,4.14,3.73a17.78,17.78,0,0,1,.79,2.67c.32,9.09.27,18.21,1.31,27.23C-60.22,568.2-60.15,568.81-60.07,569.41Z" transform="translate(109.88 207.02)"/><path id="Path_4417-20" data-name="Path 4417" class="cls-2" d="M-37.6,548.08a38.73,38.73,0,0,1-5,3.73c-4,2.58-7.93,5.18-11.25,8.76l-.21.24-.09-1.42c-.42-7-.43-14.14-.72-21.22a16.56,16.56,0,0,1,2.58-5.68,52.24,52.24,0,0,0,7.51-5.26c1.47-1.15,2.94-2.31,4.49-3.33.39-.26.79-.51,1.19-.75l.54-.31.05,0,0,0,.07,0,.88-.4c.65,3.6,1.43,7.18,2.38,10.74a33.82,33.82,0,0,1,1,5.92A10.41,10.41,0,0,1-37.6,548.08Z" transform="translate(109.88 207.02)"/><path id="Path_4418-20" data-name="Path 4418" class="cls-13" d="M-109.66,584.55a8.93,8.93,0,0,0,5.86,3.88,24.69,24.69,0,0,0,7,.16" transform="translate(109.88 207.02)"/><path id="Path_4419-20" data-name="Path 4419" class="cls-14" d="M-73,466.71a13.27,13.27,0,0,0,.36,5" transform="translate(109.88 207.02)"/><path id="Path_4420-20" data-name="Path 4420" class="cls-14" d="M-69.29,465.42l.21,4a5,5,0,0,0,.22,1.44" transform="translate(109.88 207.02)"/><path id="Path_4421-20" data-name="Path 4421" class="cls-14" d="M-62.25,464.74a30.49,30.49,0,0,1,.31,3.95" transform="translate(109.88 207.02)"/><path id="Path_4422-20" data-name="Path 4422" class="cls-14" d="M-66,465.19l.23,3.12" transform="translate(109.88 207.02)"/><path id="Path_4423-20" data-name="Path 4423" class="cls-14" d="M-57.6,464.66v3.88" transform="translate(109.88 207.02)"/><path id="Path_4424-20" data-name="Path 4424" class="cls-14" d="M-52,464.66c-.23,1.33-.52,2.64-.88,3.94" transform="translate(109.88 207.02)"/><path id="Path_4425-20" data-name="Path 4425" class="cls-14" d="M-47.44,465.65c-.26,1.43-.57,2.85-.94,4.25" transform="translate(109.88 207.02)"/></g></g></g></g></g></svg>