<svg xmlns="http://www.w3.org/2000/svg" viewBox="0 0 299.31 493.41"><defs><style>.cls-1{fill:#777;}</style></defs><g id="圖層_2" data-name="圖層 2"><g id="圖層_1-2" data-name="圖層 1"><g id="圖層_2-2" data-name="圖層 2"><g id="圖層_1-2-2" data-name="圖層 1-2"><path d="M299.28,271.59a112.09,112.09,0,0,0-2.8-21.27c-9-39.7-12-79.94-11.45-120.57.47-33.15,3.18-66.17,4.73-99.26.79-17-.14-18.07-20.74-24.37C236.19-2,199-1.8,161.73,5.26a50,50,0,0,0-17.95,7.27c-4.23,2.73-6.54,6.48-6.54,11.62,0,8.69-.24,17.34-.15,26,.52,47.62.91,95.24,1.81,142.86.27,14.67-3.49,27.26-12.8,38.77-17.1,21.13-35.93,40.71-53.93,61-19.57,22.06-39.31,44-54.47,69.48C5.31,383.05-1.59,405.29.31,429.8c2.44,31.27,19.3,53.11,48.17,60.27,36,8.92,66.86.2,91.15-28.8,15.4-18.39,26.54-39.57,37.89-60.39s23.55-40.95,41.55-57c13.47-12,29.16-20.39,44.95-28.67a147.5,147.5,0,0,0,20.08-12.15C294.65,295.19,299.69,284.73,299.28,271.59Zm-17,27.84c-8.05,6.36-17.15,10.91-26.23,15.44-22.67,11.32-42.66,25.94-58.28,46.12-11.88,15.35-20.63,32.62-29.94,49.53-8.68,15.76-17.76,31.25-28.9,45.47C114,487.83,75.94,498.09,38.71,482.37c-17.32-7.26-27.6-21-32.09-39C2.33,426.14,3.15,409,7.79,394.85c6.94-22.83,18.35-40,31-56.4,19.25-25,40.84-47.89,62-71.2,10.73-11.84,21.31-23.82,31-36.58a52.15,52.15,0,0,0,10.9-33.47Q142,140,141.4,82.8c-.18-18.15.08-36.31-.44-54.45-.22-7.73,3.21-12.16,9.71-15.1a77.3,77.3,0,0,1,21.6-6C201.15,3.33,230,2.62,258.81,8c7.05,1.3,13.84,3.63,20.62,5.84,4.65,1.51,6.79,4.33,6.51,9.25C285,39.74,284.27,56.37,283.27,73c-2.4,41.76-3.71,83.51.48,125.26,1.87,18.6,5.71,36.86,9.27,55.17a113.82,113.82,0,0,1,2.22,18.77C295.6,283.53,291.07,292.43,282.24,299.43Z"/><path class="cls-1" d="M282.24,299.43c-8.05,6.36-17.15,10.91-26.23,15.44-22.67,11.32-42.66,25.94-58.28,46.12-11.88,15.35-20.63,32.62-29.94,49.53-8.68,15.76-17.76,31.25-28.9,45.47C114,487.83,75.94,498.09,38.71,482.37c-17.32-7.26-27.6-21-32.09-39C2.33,426.14,3.15,409,7.79,394.85c6.94-22.83,18.35-40,31-56.4,19.25-25,40.84-47.89,62-71.2,10.73-11.84,21.31-23.82,31-36.58a52.15,52.15,0,0,0,10.9-33.47Q142,140,141.4,82.8c-.18-18.15.08-36.31-.44-54.45-.22-7.73,3.21-12.16,9.71-15.1a77.3,77.3,0,0,1,21.6-6C201.15,3.33,230,2.62,258.81,8c7.05,1.3,13.84,3.63,20.62,5.84,4.65,1.51,6.79,4.33,6.51,9.25C285,39.74,284.27,56.37,283.27,73c-2.4,41.76-3.71,83.51.48,125.26,1.87,18.6,5.71,36.86,9.27,55.17a113.82,113.82,0,0,1,2.22,18.77C295.6,283.53,291.07,292.43,282.24,299.43Z"/></g></g></g></g></svg>