<svg xmlns="http://www.w3.org/2000/svg" viewBox="0 0 66.05 108.02"><defs><style>.cls-1,.cls-2,.cls-3{fill:none;stroke:#404040;}.cls-1{stroke-width:3px;}.cls-2,.cls-3{stroke-width:5px;}.cls-3{stroke-linecap:round;}</style></defs><g id="圖層_2" data-name="圖層 2"><g id="圖層_1-2" data-name="圖層 1"><g id="圖層_2-2" data-name="圖層 2"><g id="圖層_1-2-2" data-name="圖層 1-2"><g id="Group_83" data-name="Group 83"><path id="Path_4445" data-name="Path 4445" class="cls-1" d="M64.55,59.49a6.93,6.93,0,0,1-2.83,5.89,31.37,31.37,0,0,1-5.67,3.34,35.59,35.59,0,0,0-12.6,10A79.43,79.43,0,0,0,37,89.41a73.56,73.56,0,0,1-6.25,9.83c-5.39,6.89-13.62,9.11-21.67,5.71a11.7,11.7,0,0,1-7-8.45A19.31,19.31,0,0,1,2.36,86,37.17,37.17,0,0,1,9.07,73.8c4.16-5.4,8.83-10.36,13.41-15.4,2.32-2.56,4.61-5.15,6.71-7.91a11.28,11.28,0,0,0,2.35-7.24q-.18-12.36-.28-24.74c0-3.92,0-7.85-.1-11.78a3.13,3.13,0,0,1,2.1-3.26,16.46,16.46,0,0,1,4.67-1.29,58.21,58.21,0,0,1,18.72.16,35,35,0,0,1,4.47,1.27,1.79,1.79,0,0,1,1.41,2c-.2,3.59-.37,7.19-.58,10.78a171.33,171.33,0,0,0,.1,27.09c.4,4,1.24,8,2,11.94A26.47,26.47,0,0,1,64.55,59.49Z"/><line id="Line_1" data-name="Line 1" class="cls-2" x1="31.15" y1="10.13" x2="61.92" y2="10.13"/><line id="Line_1-2" data-name="Line 1-2" class="cls-2" x1="31.15" y1="20.64" x2="61.92" y2="20.64"/><line id="Line_1-3" data-name="Line 1-3" class="cls-2" x1="31.15" y1="31.15" x2="61.92" y2="31.15"/><line id="Line_1-4" data-name="Line 1-4" class="cls-2" x1="31.15" y1="41.66" x2="61.92" y2="41.66"/><line id="Line_1-5" data-name="Line 1-5" class="cls-3" x1="28.9" y1="52.17" x2="62.68" y2="52.17"/><line id="Line_1-6" data-name="Line 1-6" class="cls-3" x1="19.89" y1="62.67" x2="61.17" y2="64.17"/><line id="Line_1-7" data-name="Line 1-7" class="cls-3" x1="11.64" y1="73.18" x2="44.28" y2="75.35"/><line id="Line_1-8" data-name="Line 1-8" class="cls-2" x1="4.13" y1="83.69" x2="37.91" y2="86.69"/><line id="Line_1-9" data-name="Line 1-9" class="cls-3" x1="2.63" y1="95.7" x2="29.65" y2="98.7"/></g></g></g></g></g></svg>